G04 EAGLE Gerber RS-274X export*
G75*
%MOMM*%
%FSLAX34Y34*%
%LPD*%
%INSolderpaste Bottom*%
%IPPOS*%
%AMOC8*
5,1,8,0,0,1.08239X$1,22.5*%
G01*
%ADD10R,0.550000X0.550000*%
%ADD11R,0.700000X1.000000*%
%ADD12R,0.550000X0.550000*%
%ADD13R,1.000000X0.700000*%


D10*
G36*
X2626224Y707138D02*
X2628974Y711900D01*
X2633736Y709150D01*
X2630986Y704388D01*
X2626224Y707138D01*
G37*
G36*
X2634451Y702388D02*
X2637201Y707150D01*
X2641963Y704400D01*
X2639213Y699638D01*
X2634451Y702388D01*
G37*
G36*
X2639201Y710615D02*
X2641951Y715377D01*
X2646713Y712627D01*
X2643963Y707865D01*
X2639201Y710615D01*
G37*
G36*
X2630974Y715365D02*
X2633724Y720127D01*
X2638486Y717377D01*
X2635736Y712615D01*
X2630974Y715365D01*
G37*
G36*
X2592691Y634137D02*
X2591267Y639449D01*
X2596579Y640873D01*
X2598003Y635561D01*
X2592691Y634137D01*
G37*
G36*
X2601868Y636595D02*
X2600444Y641907D01*
X2605756Y643331D01*
X2607180Y638019D01*
X2601868Y636595D01*
G37*
G36*
X2599409Y645772D02*
X2597985Y651084D01*
X2603297Y652508D01*
X2604721Y647196D01*
X2599409Y645772D01*
G37*
G36*
X2590233Y643313D02*
X2588809Y648625D01*
X2594121Y650049D01*
X2595545Y644737D01*
X2590233Y643313D01*
G37*
G36*
X2554267Y567490D02*
X2552843Y572802D01*
X2558155Y574226D01*
X2559579Y568914D01*
X2554267Y567490D01*
G37*
G36*
X2563443Y569948D02*
X2562019Y575260D01*
X2567331Y576684D01*
X2568755Y571372D01*
X2563443Y569948D01*
G37*
G36*
X2560985Y579125D02*
X2559561Y584437D01*
X2564873Y585861D01*
X2566297Y580549D01*
X2560985Y579125D01*
G37*
G36*
X2551808Y576666D02*
X2550384Y581978D01*
X2555696Y583402D01*
X2557120Y578090D01*
X2551808Y576666D01*
G37*
G36*
X2388334Y525281D02*
X2391084Y530043D01*
X2395846Y527293D01*
X2393096Y522531D01*
X2388334Y525281D01*
G37*
G36*
X2396562Y520531D02*
X2399312Y525293D01*
X2404074Y522543D01*
X2401324Y517781D01*
X2396562Y520531D01*
G37*
G36*
X2401312Y528759D02*
X2404062Y533521D01*
X2408824Y530771D01*
X2406074Y526009D01*
X2401312Y528759D01*
G37*
G36*
X2393084Y533509D02*
X2395834Y538271D01*
X2400596Y535521D01*
X2397846Y530759D01*
X2393084Y533509D01*
G37*
G36*
X2265876Y491491D02*
X2268626Y496253D01*
X2273388Y493503D01*
X2270638Y488741D01*
X2265876Y491491D01*
G37*
G36*
X2274104Y486741D02*
X2276854Y491503D01*
X2281616Y488753D01*
X2278866Y483991D01*
X2274104Y486741D01*
G37*
G36*
X2278854Y494968D02*
X2281604Y499730D01*
X2286366Y496980D01*
X2283616Y492218D01*
X2278854Y494968D01*
G37*
G36*
X2270626Y499718D02*
X2273376Y504480D01*
X2278138Y501730D01*
X2275388Y496968D01*
X2270626Y499718D01*
G37*
G36*
X2599478Y401982D02*
X2594716Y404732D01*
X2597466Y409494D01*
X2602228Y406744D01*
X2599478Y401982D01*
G37*
G36*
X2604228Y410209D02*
X2599466Y412959D01*
X2602216Y417721D01*
X2606978Y414971D01*
X2604228Y410209D01*
G37*
G36*
X2596001Y414959D02*
X2591239Y417709D01*
X2593989Y422471D01*
X2598751Y419721D01*
X2596001Y414959D01*
G37*
G36*
X2591251Y406732D02*
X2586489Y409482D01*
X2589239Y414244D01*
X2594001Y411494D01*
X2591251Y406732D01*
G37*
D11*
G36*
X2494356Y484628D02*
X2500418Y481128D01*
X2495418Y472468D01*
X2489356Y475968D01*
X2494356Y484628D01*
G37*
G36*
X2506481Y477628D02*
X2512543Y474128D01*
X2507543Y465468D01*
X2501481Y468968D01*
X2506481Y477628D01*
G37*
D10*
G36*
X2632701Y279959D02*
X2627939Y282709D01*
X2630689Y287471D01*
X2635451Y284721D01*
X2632701Y279959D01*
G37*
G36*
X2637451Y288186D02*
X2632689Y290936D01*
X2635439Y295698D01*
X2640201Y292948D01*
X2637451Y288186D01*
G37*
G36*
X2629224Y292936D02*
X2624462Y295686D01*
X2627212Y300448D01*
X2631974Y297698D01*
X2629224Y292936D01*
G37*
G36*
X2624474Y284709D02*
X2619712Y287459D01*
X2622462Y292221D01*
X2627224Y289471D01*
X2624474Y284709D01*
G37*
G36*
X2515805Y500909D02*
X2514381Y506221D01*
X2519693Y507645D01*
X2521117Y502333D01*
X2515805Y500909D01*
G37*
G36*
X2524981Y503367D02*
X2523557Y508679D01*
X2528869Y510103D01*
X2530293Y504791D01*
X2524981Y503367D01*
G37*
G36*
X2522522Y512544D02*
X2521098Y517856D01*
X2526410Y519280D01*
X2527834Y513968D01*
X2522522Y512544D01*
G37*
G36*
X2513346Y510085D02*
X2511922Y515397D01*
X2517234Y516821D01*
X2518658Y511509D01*
X2513346Y510085D01*
G37*
G36*
X2477244Y434298D02*
X2475820Y439610D01*
X2481132Y441034D01*
X2482556Y435722D01*
X2477244Y434298D01*
G37*
G36*
X2486420Y436757D02*
X2484996Y442069D01*
X2490308Y443493D01*
X2491732Y438181D01*
X2486420Y436757D01*
G37*
G36*
X2483961Y445933D02*
X2482537Y451245D01*
X2487849Y452669D01*
X2489273Y447357D01*
X2483961Y445933D01*
G37*
G36*
X2474785Y443474D02*
X2473361Y448786D01*
X2478673Y450210D01*
X2480097Y444898D01*
X2474785Y443474D01*
G37*
G36*
X2438869Y367564D02*
X2437445Y372876D01*
X2442757Y374300D01*
X2444181Y368988D01*
X2438869Y367564D01*
G37*
G36*
X2448046Y370023D02*
X2446622Y375335D01*
X2451934Y376759D01*
X2453358Y371447D01*
X2448046Y370023D01*
G37*
G36*
X2445587Y379200D02*
X2444163Y384512D01*
X2449475Y385936D01*
X2450899Y380624D01*
X2445587Y379200D01*
G37*
G36*
X2436410Y376741D02*
X2434986Y382053D01*
X2440298Y383477D01*
X2441722Y378165D01*
X2436410Y376741D01*
G37*
G36*
X2400345Y301091D02*
X2398921Y306403D01*
X2404233Y307827D01*
X2405657Y302515D01*
X2400345Y301091D01*
G37*
G36*
X2409521Y303549D02*
X2408097Y308861D01*
X2413409Y310285D01*
X2414833Y304973D01*
X2409521Y303549D01*
G37*
G36*
X2407062Y312726D02*
X2405638Y318038D01*
X2410950Y319462D01*
X2412374Y314150D01*
X2407062Y312726D01*
G37*
G36*
X2397886Y310267D02*
X2396462Y315579D01*
X2401774Y317003D01*
X2403198Y311691D01*
X2397886Y310267D01*
G37*
G36*
X2254563Y278712D02*
X2257313Y283474D01*
X2262075Y280724D01*
X2259325Y275962D01*
X2254563Y278712D01*
G37*
G36*
X2262790Y273962D02*
X2265540Y278724D01*
X2270302Y275974D01*
X2267552Y271212D01*
X2262790Y273962D01*
G37*
G36*
X2267540Y282190D02*
X2270290Y286952D01*
X2275052Y284202D01*
X2272302Y279440D01*
X2267540Y282190D01*
G37*
G36*
X2259313Y286940D02*
X2262063Y291702D01*
X2266825Y288952D01*
X2264075Y284190D01*
X2259313Y286940D01*
G37*
G36*
X2450689Y160492D02*
X2445927Y163242D01*
X2448677Y168004D01*
X2453439Y165254D01*
X2450689Y160492D01*
G37*
G36*
X2455439Y168720D02*
X2450677Y171470D01*
X2453427Y176232D01*
X2458189Y173482D01*
X2455439Y168720D01*
G37*
G36*
X2447212Y173470D02*
X2442450Y176220D01*
X2445200Y180982D01*
X2449962Y178232D01*
X2447212Y173470D01*
G37*
G36*
X2442462Y165242D02*
X2437700Y167992D01*
X2440450Y172754D01*
X2445212Y170004D01*
X2442462Y165242D01*
G37*
G36*
X2362013Y234483D02*
X2360589Y239795D01*
X2365901Y241219D01*
X2367325Y235907D01*
X2362013Y234483D01*
G37*
G36*
X2371189Y236942D02*
X2369765Y242254D01*
X2375077Y243678D01*
X2376501Y238366D01*
X2371189Y236942D01*
G37*
G36*
X2368731Y246118D02*
X2367307Y251430D01*
X2372619Y252854D01*
X2374043Y247542D01*
X2368731Y246118D01*
G37*
G36*
X2359554Y243660D02*
X2358130Y248972D01*
X2363442Y250396D01*
X2364866Y245084D01*
X2359554Y243660D01*
G37*
D11*
G36*
X2350811Y236317D02*
X2356873Y232817D01*
X2351873Y224157D01*
X2345811Y227657D01*
X2350811Y236317D01*
G37*
G36*
X2362935Y229317D02*
X2368997Y225817D01*
X2363997Y217157D01*
X2357935Y220657D01*
X2362935Y229317D01*
G37*
D10*
G36*
X2513922Y786766D02*
X2519234Y785342D01*
X2517810Y780030D01*
X2512498Y781454D01*
X2513922Y786766D01*
G37*
G36*
X2511464Y777590D02*
X2516776Y776166D01*
X2515352Y770854D01*
X2510040Y772278D01*
X2511464Y777590D01*
G37*
G36*
X2520640Y775131D02*
X2525952Y773707D01*
X2524528Y768395D01*
X2519216Y769819D01*
X2520640Y775131D01*
G37*
G36*
X2523099Y784308D02*
X2528411Y782884D01*
X2526987Y777572D01*
X2521675Y778996D01*
X2523099Y784308D01*
G37*
D12*
X2514457Y917546D03*
X2514457Y908046D03*
X2523957Y908046D03*
X2523957Y917546D03*
D10*
G36*
X2431721Y912836D02*
X2435610Y916725D01*
X2439499Y912836D01*
X2435610Y908947D01*
X2431721Y912836D01*
G37*
G36*
X2438438Y906118D02*
X2442327Y910007D01*
X2446216Y906118D01*
X2442327Y902229D01*
X2438438Y906118D01*
G37*
G36*
X2445156Y912836D02*
X2449045Y916725D01*
X2452934Y912836D01*
X2449045Y908947D01*
X2445156Y912836D01*
G37*
G36*
X2438438Y919553D02*
X2442327Y923442D01*
X2446216Y919553D01*
X2442327Y915664D01*
X2438438Y919553D01*
G37*
G36*
X2354790Y912788D02*
X2358679Y916677D01*
X2362568Y912788D01*
X2358679Y908899D01*
X2354790Y912788D01*
G37*
G36*
X2361508Y906071D02*
X2365397Y909960D01*
X2369286Y906071D01*
X2365397Y902182D01*
X2361508Y906071D01*
G37*
G36*
X2368225Y912788D02*
X2372114Y916677D01*
X2376003Y912788D01*
X2372114Y908899D01*
X2368225Y912788D01*
G37*
G36*
X2361508Y919506D02*
X2365397Y923395D01*
X2369286Y919506D01*
X2365397Y915617D01*
X2361508Y919506D01*
G37*
D12*
X2238020Y1032636D03*
X2238020Y1023136D03*
X2247520Y1023136D03*
X2247520Y1032636D03*
X2147528Y1121793D03*
X2147528Y1112293D03*
X2157028Y1112293D03*
X2157028Y1121793D03*
X2236812Y793630D03*
X2246312Y793630D03*
X2246312Y803130D03*
X2236812Y803130D03*
D13*
X2248075Y919742D03*
X2248075Y905742D03*
D12*
X2147748Y703846D03*
X2157248Y703846D03*
X2157248Y713346D03*
X2147748Y713346D03*
D10*
G36*
X2277898Y912808D02*
X2281787Y916697D01*
X2285676Y912808D01*
X2281787Y908919D01*
X2277898Y912808D01*
G37*
G36*
X2284616Y906090D02*
X2288505Y909979D01*
X2292394Y906090D01*
X2288505Y902201D01*
X2284616Y906090D01*
G37*
G36*
X2291333Y912808D02*
X2295222Y916697D01*
X2299111Y912808D01*
X2295222Y908919D01*
X2291333Y912808D01*
G37*
G36*
X2284616Y919525D02*
X2288505Y923414D01*
X2292394Y919525D01*
X2288505Y915636D01*
X2284616Y919525D01*
G37*
G36*
X2200931Y912897D02*
X2204820Y916786D01*
X2208709Y912897D01*
X2204820Y909008D01*
X2200931Y912897D01*
G37*
G36*
X2207649Y906180D02*
X2211538Y910069D01*
X2215427Y906180D01*
X2211538Y902291D01*
X2207649Y906180D01*
G37*
G36*
X2214366Y912897D02*
X2218255Y916786D01*
X2222144Y912897D01*
X2218255Y909008D01*
X2214366Y912897D01*
G37*
G36*
X2207649Y919615D02*
X2211538Y923504D01*
X2215427Y919615D01*
X2211538Y915726D01*
X2207649Y919615D01*
G37*
G36*
X2123951Y912763D02*
X2127840Y916652D01*
X2131729Y912763D01*
X2127840Y908874D01*
X2123951Y912763D01*
G37*
G36*
X2130669Y906046D02*
X2134558Y909935D01*
X2138447Y906046D01*
X2134558Y902157D01*
X2130669Y906046D01*
G37*
G36*
X2137386Y912763D02*
X2141275Y916652D01*
X2145164Y912763D01*
X2141275Y908874D01*
X2137386Y912763D01*
G37*
G36*
X2130669Y919481D02*
X2134558Y923370D01*
X2138447Y919481D01*
X2134558Y915592D01*
X2130669Y919481D01*
G37*
G36*
X2047121Y912889D02*
X2051010Y916778D01*
X2054899Y912889D01*
X2051010Y909000D01*
X2047121Y912889D01*
G37*
G36*
X2053838Y906172D02*
X2057727Y910061D01*
X2061616Y906172D01*
X2057727Y902283D01*
X2053838Y906172D01*
G37*
G36*
X2060556Y912889D02*
X2064445Y916778D01*
X2068334Y912889D01*
X2064445Y909000D01*
X2060556Y912889D01*
G37*
G36*
X2053838Y919607D02*
X2057727Y923496D01*
X2061616Y919607D01*
X2057727Y915718D01*
X2053838Y919607D01*
G37*
D12*
X1957599Y1025201D03*
X1957599Y1015701D03*
X1967099Y1015701D03*
X1967099Y1025201D03*
X1953281Y801740D03*
X1962781Y801740D03*
X1962781Y811240D03*
X1953281Y811240D03*
D10*
G36*
X1970271Y912782D02*
X1974160Y916671D01*
X1978049Y912782D01*
X1974160Y908893D01*
X1970271Y912782D01*
G37*
G36*
X1976989Y906065D02*
X1980878Y909954D01*
X1984767Y906065D01*
X1980878Y902176D01*
X1976989Y906065D01*
G37*
G36*
X1983706Y912782D02*
X1987595Y916671D01*
X1991484Y912782D01*
X1987595Y908893D01*
X1983706Y912782D01*
G37*
G36*
X1976989Y919500D02*
X1980878Y923389D01*
X1984767Y919500D01*
X1980878Y915611D01*
X1976989Y919500D01*
G37*
D13*
X1959669Y920253D03*
X1959669Y906253D03*
D10*
G36*
X1892688Y913516D02*
X1896577Y917405D01*
X1900466Y913516D01*
X1896577Y909627D01*
X1892688Y913516D01*
G37*
G36*
X1899405Y906798D02*
X1903294Y910687D01*
X1907183Y906798D01*
X1903294Y902909D01*
X1899405Y906798D01*
G37*
G36*
X1906123Y913516D02*
X1910012Y917405D01*
X1913901Y913516D01*
X1910012Y909627D01*
X1906123Y913516D01*
G37*
G36*
X1899405Y920233D02*
X1903294Y924122D01*
X1907183Y920233D01*
X1903294Y916344D01*
X1899405Y920233D01*
G37*
G36*
X2524517Y1057366D02*
X2525941Y1052054D01*
X2520629Y1050630D01*
X2519205Y1055942D01*
X2524517Y1057366D01*
G37*
G36*
X2515340Y1054908D02*
X2516764Y1049596D01*
X2511452Y1048172D01*
X2510028Y1053484D01*
X2515340Y1054908D01*
G37*
G36*
X2517799Y1045731D02*
X2519223Y1040419D01*
X2513911Y1038995D01*
X2512487Y1044307D01*
X2517799Y1045731D01*
G37*
G36*
X2526976Y1048190D02*
X2528400Y1042878D01*
X2523088Y1041454D01*
X2521664Y1046766D01*
X2526976Y1048190D01*
G37*
G36*
X2639049Y1126049D02*
X2641799Y1121287D01*
X2637037Y1118537D01*
X2634287Y1123299D01*
X2639049Y1126049D01*
G37*
G36*
X2630822Y1121299D02*
X2633572Y1116537D01*
X2628810Y1113787D01*
X2626060Y1118549D01*
X2630822Y1121299D01*
G37*
G36*
X2635572Y1113071D02*
X2638322Y1108309D01*
X2633560Y1105559D01*
X2630810Y1110321D01*
X2635572Y1113071D01*
G37*
G36*
X2643799Y1117821D02*
X2646549Y1113059D01*
X2641787Y1110309D01*
X2639037Y1115071D01*
X2643799Y1117821D01*
G37*
G36*
X2592596Y1191589D02*
X2597908Y1190165D01*
X2596484Y1184853D01*
X2591172Y1186277D01*
X2592596Y1191589D01*
G37*
G36*
X2590137Y1182413D02*
X2595449Y1180989D01*
X2594025Y1175677D01*
X2588713Y1177101D01*
X2590137Y1182413D01*
G37*
G36*
X2599314Y1179954D02*
X2604626Y1178530D01*
X2603202Y1173218D01*
X2597890Y1174642D01*
X2599314Y1179954D01*
G37*
G36*
X2601772Y1189131D02*
X2607084Y1187707D01*
X2605660Y1182395D01*
X2600348Y1183819D01*
X2601772Y1189131D01*
G37*
G36*
X2554090Y1258189D02*
X2559402Y1256765D01*
X2557978Y1251453D01*
X2552666Y1252877D01*
X2554090Y1258189D01*
G37*
G36*
X2551631Y1249013D02*
X2556943Y1247589D01*
X2555519Y1242277D01*
X2550207Y1243701D01*
X2551631Y1249013D01*
G37*
G36*
X2560808Y1246554D02*
X2566120Y1245130D01*
X2564696Y1239818D01*
X2559384Y1241242D01*
X2560808Y1246554D01*
G37*
G36*
X2563267Y1255731D02*
X2568579Y1254307D01*
X2567155Y1248995D01*
X2561843Y1250419D01*
X2563267Y1255731D01*
G37*
G36*
X2600502Y1422995D02*
X2603252Y1418233D01*
X2598490Y1415483D01*
X2595740Y1420245D01*
X2600502Y1422995D01*
G37*
G36*
X2592274Y1418245D02*
X2595024Y1413483D01*
X2590262Y1410733D01*
X2587512Y1415495D01*
X2592274Y1418245D01*
G37*
G36*
X2597024Y1410018D02*
X2599774Y1405256D01*
X2595012Y1402506D01*
X2592262Y1407268D01*
X2597024Y1410018D01*
G37*
G36*
X2605252Y1414768D02*
X2608002Y1410006D01*
X2603240Y1407256D01*
X2600490Y1412018D01*
X2605252Y1414768D01*
G37*
G36*
X2632468Y1545942D02*
X2635218Y1541180D01*
X2630456Y1538430D01*
X2627706Y1543192D01*
X2632468Y1545942D01*
G37*
G36*
X2624240Y1541192D02*
X2626990Y1536430D01*
X2622228Y1533680D01*
X2619478Y1538442D01*
X2624240Y1541192D01*
G37*
G36*
X2628990Y1532965D02*
X2631740Y1528203D01*
X2626978Y1525453D01*
X2624228Y1530215D01*
X2628990Y1532965D01*
G37*
G36*
X2637218Y1537715D02*
X2639968Y1532953D01*
X2635206Y1530203D01*
X2632456Y1534965D01*
X2637218Y1537715D01*
G37*
G36*
X2388150Y1301788D02*
X2392912Y1304538D01*
X2395662Y1299776D01*
X2390900Y1297026D01*
X2388150Y1301788D01*
G37*
G36*
X2392900Y1293561D02*
X2397662Y1296311D01*
X2400412Y1291549D01*
X2395650Y1288799D01*
X2392900Y1293561D01*
G37*
G36*
X2401127Y1298311D02*
X2405889Y1301061D01*
X2408639Y1296299D01*
X2403877Y1293549D01*
X2401127Y1298311D01*
G37*
G36*
X2396377Y1306538D02*
X2401139Y1309288D01*
X2403889Y1304526D01*
X2399127Y1301776D01*
X2396377Y1306538D01*
G37*
D11*
G36*
X2512284Y1351505D02*
X2506222Y1348005D01*
X2501222Y1356665D01*
X2507284Y1360165D01*
X2512284Y1351505D01*
G37*
G36*
X2500160Y1344505D02*
X2494098Y1341005D01*
X2489098Y1349665D01*
X2495160Y1353165D01*
X2500160Y1344505D01*
G37*
D10*
G36*
X2265863Y1334028D02*
X2270625Y1336778D01*
X2273375Y1332016D01*
X2268613Y1329266D01*
X2265863Y1334028D01*
G37*
G36*
X2270613Y1325801D02*
X2275375Y1328551D01*
X2278125Y1323789D01*
X2273363Y1321039D01*
X2270613Y1325801D01*
G37*
G36*
X2278840Y1330551D02*
X2283602Y1333301D01*
X2286352Y1328539D01*
X2281590Y1325789D01*
X2278840Y1330551D01*
G37*
G36*
X2274090Y1338778D02*
X2278852Y1341528D01*
X2281602Y1336766D01*
X2276840Y1334016D01*
X2274090Y1338778D01*
G37*
G36*
X2515661Y1324789D02*
X2520973Y1323365D01*
X2519549Y1318053D01*
X2514237Y1319477D01*
X2515661Y1324789D01*
G37*
G36*
X2513202Y1315613D02*
X2518514Y1314189D01*
X2517090Y1308877D01*
X2511778Y1310301D01*
X2513202Y1315613D01*
G37*
G36*
X2522378Y1313154D02*
X2527690Y1311730D01*
X2526266Y1306418D01*
X2520954Y1307842D01*
X2522378Y1313154D01*
G37*
G36*
X2524837Y1322331D02*
X2530149Y1320907D01*
X2528725Y1315595D01*
X2523413Y1317019D01*
X2524837Y1322331D01*
G37*
G36*
X2477255Y1391489D02*
X2482567Y1390065D01*
X2481143Y1384753D01*
X2475831Y1386177D01*
X2477255Y1391489D01*
G37*
G36*
X2474796Y1382313D02*
X2480108Y1380889D01*
X2478684Y1375577D01*
X2473372Y1377001D01*
X2474796Y1382313D01*
G37*
G36*
X2483972Y1379854D02*
X2489284Y1378430D01*
X2487860Y1373118D01*
X2482548Y1374542D01*
X2483972Y1379854D01*
G37*
G36*
X2486431Y1389031D02*
X2491743Y1387607D01*
X2490319Y1382295D01*
X2485007Y1383719D01*
X2486431Y1389031D01*
G37*
G36*
X2438649Y1458089D02*
X2443961Y1456665D01*
X2442537Y1451353D01*
X2437225Y1452777D01*
X2438649Y1458089D01*
G37*
G36*
X2436190Y1448913D02*
X2441502Y1447489D01*
X2440078Y1442177D01*
X2434766Y1443601D01*
X2436190Y1448913D01*
G37*
G36*
X2445366Y1446454D02*
X2450678Y1445030D01*
X2449254Y1439718D01*
X2443942Y1441142D01*
X2445366Y1446454D01*
G37*
G36*
X2447825Y1455631D02*
X2453137Y1454207D01*
X2451713Y1448895D01*
X2446401Y1450319D01*
X2447825Y1455631D01*
G37*
G36*
X2400343Y1524689D02*
X2405655Y1523265D01*
X2404231Y1517953D01*
X2398919Y1519377D01*
X2400343Y1524689D01*
G37*
G36*
X2397884Y1515513D02*
X2403196Y1514089D01*
X2401772Y1508777D01*
X2396460Y1510201D01*
X2397884Y1515513D01*
G37*
G36*
X2407061Y1513054D02*
X2412373Y1511630D01*
X2410949Y1506318D01*
X2405637Y1507742D01*
X2407061Y1513054D01*
G37*
G36*
X2409519Y1522231D02*
X2414831Y1520807D01*
X2413407Y1515495D01*
X2408095Y1516919D01*
X2409519Y1522231D01*
G37*
G36*
X2453852Y1662129D02*
X2456602Y1657367D01*
X2451840Y1654617D01*
X2449090Y1659379D01*
X2453852Y1662129D01*
G37*
G36*
X2445625Y1657379D02*
X2448375Y1652617D01*
X2443613Y1649867D01*
X2440863Y1654629D01*
X2445625Y1657379D01*
G37*
G36*
X2450375Y1649152D02*
X2453125Y1644390D01*
X2448363Y1641640D01*
X2445613Y1646402D01*
X2450375Y1649152D01*
G37*
G36*
X2458602Y1653902D02*
X2461352Y1649140D01*
X2456590Y1646390D01*
X2453840Y1651152D01*
X2458602Y1653902D01*
G37*
G36*
X2253409Y1551388D02*
X2258171Y1554138D01*
X2260921Y1549376D01*
X2256159Y1546626D01*
X2253409Y1551388D01*
G37*
G36*
X2258159Y1543161D02*
X2262921Y1545911D01*
X2265671Y1541149D01*
X2260909Y1538399D01*
X2258159Y1543161D01*
G37*
G36*
X2266386Y1547911D02*
X2271148Y1550661D01*
X2273898Y1545899D01*
X2269136Y1543149D01*
X2266386Y1547911D01*
G37*
G36*
X2261636Y1556138D02*
X2266398Y1558888D01*
X2269148Y1554126D01*
X2264386Y1551376D01*
X2261636Y1556138D01*
G37*
G36*
X2361825Y1591189D02*
X2367137Y1589765D01*
X2365713Y1584453D01*
X2360401Y1585877D01*
X2361825Y1591189D01*
G37*
G36*
X2359366Y1582013D02*
X2364678Y1580589D01*
X2363254Y1575277D01*
X2357942Y1576701D01*
X2359366Y1582013D01*
G37*
G36*
X2368543Y1579554D02*
X2373855Y1578130D01*
X2372431Y1572818D01*
X2367119Y1574242D01*
X2368543Y1579554D01*
G37*
G36*
X2371002Y1588731D02*
X2376314Y1587307D01*
X2374890Y1581995D01*
X2369578Y1583419D01*
X2371002Y1588731D01*
G37*
D11*
G36*
X2368525Y1601526D02*
X2362463Y1598026D01*
X2357463Y1606686D01*
X2363525Y1610186D01*
X2368525Y1601526D01*
G37*
G36*
X2356400Y1594526D02*
X2350338Y1591026D01*
X2345338Y1599686D01*
X2351400Y1603186D01*
X2356400Y1594526D01*
G37*
D10*
G36*
X2323669Y1658746D02*
X2328981Y1657322D01*
X2327557Y1652010D01*
X2322245Y1653434D01*
X2323669Y1658746D01*
G37*
G36*
X2321210Y1649569D02*
X2326522Y1648145D01*
X2325098Y1642833D01*
X2319786Y1644257D01*
X2321210Y1649569D01*
G37*
G36*
X2330386Y1647111D02*
X2335698Y1645687D01*
X2334274Y1640375D01*
X2328962Y1641799D01*
X2330386Y1647111D01*
G37*
G36*
X2332845Y1656287D02*
X2338157Y1654863D01*
X2336733Y1649551D01*
X2331421Y1650975D01*
X2332845Y1656287D01*
G37*
G36*
X2764161Y1183491D02*
X2760272Y1179602D01*
X2756383Y1183491D01*
X2760272Y1187380D01*
X2764161Y1183491D01*
G37*
G36*
X2757444Y1190208D02*
X2753555Y1186319D01*
X2749666Y1190208D01*
X2753555Y1194097D01*
X2757444Y1190208D01*
G37*
G36*
X2750726Y1183491D02*
X2746837Y1179602D01*
X2742948Y1183491D01*
X2746837Y1187380D01*
X2750726Y1183491D01*
G37*
G36*
X2757444Y1176773D02*
X2753555Y1172884D01*
X2749666Y1176773D01*
X2753555Y1180662D01*
X2757444Y1176773D01*
G37*
G36*
X2880908Y1118643D02*
X2878158Y1113881D01*
X2873396Y1116631D01*
X2876146Y1121393D01*
X2880908Y1118643D01*
G37*
G36*
X2872681Y1123393D02*
X2869931Y1118631D01*
X2865169Y1121381D01*
X2867919Y1126143D01*
X2872681Y1123393D01*
G37*
G36*
X2867931Y1115166D02*
X2865181Y1110404D01*
X2860419Y1113154D01*
X2863169Y1117916D01*
X2867931Y1115166D01*
G37*
G36*
X2876158Y1110416D02*
X2873408Y1105654D01*
X2868646Y1108404D01*
X2871396Y1113166D01*
X2876158Y1110416D01*
G37*
G36*
X2914441Y1191644D02*
X2915865Y1186332D01*
X2910553Y1184908D01*
X2909129Y1190220D01*
X2914441Y1191644D01*
G37*
G36*
X2905264Y1189186D02*
X2906688Y1183874D01*
X2901376Y1182450D01*
X2899952Y1187762D01*
X2905264Y1189186D01*
G37*
G36*
X2907723Y1180009D02*
X2909147Y1174697D01*
X2903835Y1173273D01*
X2902411Y1178585D01*
X2907723Y1180009D01*
G37*
G36*
X2916899Y1182468D02*
X2918323Y1177156D01*
X2913011Y1175732D01*
X2911587Y1181044D01*
X2916899Y1182468D01*
G37*
G36*
X2952865Y1258292D02*
X2954289Y1252980D01*
X2948977Y1251556D01*
X2947553Y1256868D01*
X2952865Y1258292D01*
G37*
G36*
X2943689Y1255833D02*
X2945113Y1250521D01*
X2939801Y1249097D01*
X2938377Y1254409D01*
X2943689Y1255833D01*
G37*
G36*
X2946147Y1246656D02*
X2947571Y1241344D01*
X2942259Y1239920D01*
X2940835Y1245232D01*
X2946147Y1246656D01*
G37*
G36*
X2955324Y1249115D02*
X2956748Y1243803D01*
X2951436Y1242379D01*
X2950012Y1247691D01*
X2955324Y1249115D01*
G37*
G36*
X3118798Y1300500D02*
X3116048Y1295738D01*
X3111286Y1298488D01*
X3114036Y1303250D01*
X3118798Y1300500D01*
G37*
G36*
X3110570Y1305250D02*
X3107820Y1300488D01*
X3103058Y1303238D01*
X3105808Y1308000D01*
X3110570Y1305250D01*
G37*
G36*
X3105820Y1297023D02*
X3103070Y1292261D01*
X3098308Y1295011D01*
X3101058Y1299773D01*
X3105820Y1297023D01*
G37*
G36*
X3114048Y1292273D02*
X3111298Y1287511D01*
X3106536Y1290261D01*
X3109286Y1295023D01*
X3114048Y1292273D01*
G37*
G36*
X3241256Y1334290D02*
X3238506Y1329528D01*
X3233744Y1332278D01*
X3236494Y1337040D01*
X3241256Y1334290D01*
G37*
G36*
X3233028Y1339040D02*
X3230278Y1334278D01*
X3225516Y1337028D01*
X3228266Y1341790D01*
X3233028Y1339040D01*
G37*
G36*
X3228278Y1330813D02*
X3225528Y1326051D01*
X3220766Y1328801D01*
X3223516Y1333563D01*
X3228278Y1330813D01*
G37*
G36*
X3236506Y1326063D02*
X3233756Y1321301D01*
X3228994Y1324051D01*
X3231744Y1328813D01*
X3236506Y1326063D01*
G37*
G36*
X2907654Y1423799D02*
X2912416Y1421049D01*
X2909666Y1416287D01*
X2904904Y1419037D01*
X2907654Y1423799D01*
G37*
G36*
X2902904Y1415572D02*
X2907666Y1412822D01*
X2904916Y1408060D01*
X2900154Y1410810D01*
X2902904Y1415572D01*
G37*
G36*
X2911131Y1410822D02*
X2915893Y1408072D01*
X2913143Y1403310D01*
X2908381Y1406060D01*
X2911131Y1410822D01*
G37*
G36*
X2915881Y1419049D02*
X2920643Y1416299D01*
X2917893Y1411537D01*
X2913131Y1414287D01*
X2915881Y1419049D01*
G37*
D11*
G36*
X3012776Y1341154D02*
X3006714Y1344654D01*
X3011714Y1353314D01*
X3017776Y1349814D01*
X3012776Y1341154D01*
G37*
G36*
X3000652Y1348154D02*
X2994590Y1351654D01*
X2999590Y1360314D01*
X3005652Y1356814D01*
X3000652Y1348154D01*
G37*
D10*
G36*
X2874431Y1545822D02*
X2879193Y1543072D01*
X2876443Y1538310D01*
X2871681Y1541060D01*
X2874431Y1545822D01*
G37*
G36*
X2869681Y1537595D02*
X2874443Y1534845D01*
X2871693Y1530083D01*
X2866931Y1532833D01*
X2869681Y1537595D01*
G37*
G36*
X2877908Y1532845D02*
X2882670Y1530095D01*
X2879920Y1525333D01*
X2875158Y1528083D01*
X2877908Y1532845D01*
G37*
G36*
X2882658Y1541072D02*
X2887420Y1538322D01*
X2884670Y1533560D01*
X2879908Y1536310D01*
X2882658Y1541072D01*
G37*
G36*
X2991328Y1324872D02*
X2992752Y1319560D01*
X2987440Y1318136D01*
X2986016Y1323448D01*
X2991328Y1324872D01*
G37*
G36*
X2982151Y1322414D02*
X2983575Y1317102D01*
X2978263Y1315678D01*
X2976839Y1320990D01*
X2982151Y1322414D01*
G37*
G36*
X2984610Y1313237D02*
X2986034Y1307925D01*
X2980722Y1306501D01*
X2979298Y1311813D01*
X2984610Y1313237D01*
G37*
G36*
X2993786Y1315696D02*
X2995210Y1310384D01*
X2989898Y1308960D01*
X2988474Y1314272D01*
X2993786Y1315696D01*
G37*
G36*
X3029888Y1391483D02*
X3031312Y1386171D01*
X3026000Y1384747D01*
X3024576Y1390059D01*
X3029888Y1391483D01*
G37*
G36*
X3020712Y1389024D02*
X3022136Y1383712D01*
X3016824Y1382288D01*
X3015400Y1387600D01*
X3020712Y1389024D01*
G37*
G36*
X3023171Y1379848D02*
X3024595Y1374536D01*
X3019283Y1373112D01*
X3017859Y1378424D01*
X3023171Y1379848D01*
G37*
G36*
X3032347Y1382307D02*
X3033771Y1376995D01*
X3028459Y1375571D01*
X3027035Y1380883D01*
X3032347Y1382307D01*
G37*
G36*
X3068263Y1458217D02*
X3069687Y1452905D01*
X3064375Y1451481D01*
X3062951Y1456793D01*
X3068263Y1458217D01*
G37*
G36*
X3059086Y1455758D02*
X3060510Y1450446D01*
X3055198Y1449022D01*
X3053774Y1454334D01*
X3059086Y1455758D01*
G37*
G36*
X3061545Y1446582D02*
X3062969Y1441270D01*
X3057657Y1439846D01*
X3056233Y1445158D01*
X3061545Y1446582D01*
G37*
G36*
X3070722Y1449040D02*
X3072146Y1443728D01*
X3066834Y1442304D01*
X3065410Y1447616D01*
X3070722Y1449040D01*
G37*
G36*
X3106787Y1524691D02*
X3108211Y1519379D01*
X3102899Y1517955D01*
X3101475Y1523267D01*
X3106787Y1524691D01*
G37*
G36*
X3097611Y1522232D02*
X3099035Y1516920D01*
X3093723Y1515496D01*
X3092299Y1520808D01*
X3097611Y1522232D01*
G37*
G36*
X3100070Y1513055D02*
X3101494Y1507743D01*
X3096182Y1506319D01*
X3094758Y1511631D01*
X3100070Y1513055D01*
G37*
G36*
X3109246Y1515514D02*
X3110670Y1510202D01*
X3105358Y1508778D01*
X3103934Y1514090D01*
X3109246Y1515514D01*
G37*
G36*
X3252569Y1547069D02*
X3249819Y1542307D01*
X3245057Y1545057D01*
X3247807Y1549819D01*
X3252569Y1547069D01*
G37*
G36*
X3244342Y1551819D02*
X3241592Y1547057D01*
X3236830Y1549807D01*
X3239580Y1554569D01*
X3244342Y1551819D01*
G37*
G36*
X3239592Y1543591D02*
X3236842Y1538829D01*
X3232080Y1541579D01*
X3234830Y1546341D01*
X3239592Y1543591D01*
G37*
G36*
X3247819Y1538841D02*
X3245069Y1534079D01*
X3240307Y1536829D01*
X3243057Y1541591D01*
X3247819Y1538841D01*
G37*
G36*
X3056443Y1665289D02*
X3061205Y1662539D01*
X3058455Y1657777D01*
X3053693Y1660527D01*
X3056443Y1665289D01*
G37*
G36*
X3051693Y1657061D02*
X3056455Y1654311D01*
X3053705Y1649549D01*
X3048943Y1652299D01*
X3051693Y1657061D01*
G37*
G36*
X3059921Y1652311D02*
X3064683Y1649561D01*
X3061933Y1644799D01*
X3057171Y1647549D01*
X3059921Y1652311D01*
G37*
G36*
X3064671Y1660539D02*
X3069433Y1657789D01*
X3066683Y1653027D01*
X3061921Y1655777D01*
X3064671Y1660539D01*
G37*
G36*
X3145119Y1591298D02*
X3146543Y1585986D01*
X3141231Y1584562D01*
X3139807Y1589874D01*
X3145119Y1591298D01*
G37*
G36*
X3135943Y1588839D02*
X3137367Y1583527D01*
X3132055Y1582103D01*
X3130631Y1587415D01*
X3135943Y1588839D01*
G37*
G36*
X3138401Y1579663D02*
X3139825Y1574351D01*
X3134513Y1572927D01*
X3133089Y1578239D01*
X3138401Y1579663D01*
G37*
G36*
X3147578Y1582122D02*
X3149002Y1576810D01*
X3143690Y1575386D01*
X3142266Y1580698D01*
X3147578Y1582122D01*
G37*
D11*
G36*
X3157421Y1590664D02*
X3151359Y1594164D01*
X3156359Y1602824D01*
X3162421Y1599324D01*
X3157421Y1590664D01*
G37*
G36*
X3145297Y1597664D02*
X3139235Y1601164D01*
X3144235Y1609824D01*
X3150297Y1606324D01*
X3145297Y1597664D01*
G37*
D10*
G36*
X3184546Y1658121D02*
X3185970Y1652809D01*
X3180658Y1651385D01*
X3179234Y1656697D01*
X3184546Y1658121D01*
G37*
G36*
X3175370Y1655662D02*
X3176794Y1650350D01*
X3171482Y1648926D01*
X3170058Y1654238D01*
X3175370Y1655662D01*
G37*
G36*
X3177829Y1646486D02*
X3179253Y1641174D01*
X3173941Y1639750D01*
X3172517Y1645062D01*
X3177829Y1646486D01*
G37*
G36*
X3187005Y1648944D02*
X3188429Y1643632D01*
X3183117Y1642208D01*
X3181693Y1647520D01*
X3187005Y1648944D01*
G37*
G36*
X2993210Y1039015D02*
X2987898Y1040439D01*
X2989322Y1045751D01*
X2994634Y1044327D01*
X2993210Y1039015D01*
G37*
G36*
X2995668Y1048191D02*
X2990356Y1049615D01*
X2991780Y1054927D01*
X2997092Y1053503D01*
X2995668Y1048191D01*
G37*
G36*
X2986492Y1050650D02*
X2981180Y1052074D01*
X2982604Y1057386D01*
X2987916Y1055962D01*
X2986492Y1050650D01*
G37*
G36*
X2984033Y1041473D02*
X2978721Y1042897D01*
X2980145Y1048209D01*
X2985457Y1046785D01*
X2984033Y1041473D01*
G37*
D12*
X2992675Y908235D03*
X2992675Y917735D03*
X2983175Y917735D03*
X2983175Y908235D03*
D10*
G36*
X3075411Y912946D02*
X3071522Y909057D01*
X3067633Y912946D01*
X3071522Y916835D01*
X3075411Y912946D01*
G37*
G36*
X3068694Y919663D02*
X3064805Y915774D01*
X3060916Y919663D01*
X3064805Y923552D01*
X3068694Y919663D01*
G37*
G36*
X3061976Y912946D02*
X3058087Y909057D01*
X3054198Y912946D01*
X3058087Y916835D01*
X3061976Y912946D01*
G37*
G36*
X3068694Y906228D02*
X3064805Y902339D01*
X3060916Y906228D01*
X3064805Y910117D01*
X3068694Y906228D01*
G37*
G36*
X3152342Y912993D02*
X3148453Y909104D01*
X3144564Y912993D01*
X3148453Y916882D01*
X3152342Y912993D01*
G37*
G36*
X3145624Y919710D02*
X3141735Y915821D01*
X3137846Y919710D01*
X3141735Y923599D01*
X3145624Y919710D01*
G37*
G36*
X3138907Y912993D02*
X3135018Y909104D01*
X3131129Y912993D01*
X3135018Y916882D01*
X3138907Y912993D01*
G37*
G36*
X3145624Y906275D02*
X3141735Y902386D01*
X3137846Y906275D01*
X3141735Y910164D01*
X3145624Y906275D01*
G37*
D12*
X3269112Y793145D03*
X3269112Y802645D03*
X3259612Y802645D03*
X3259612Y793145D03*
X3359604Y703988D03*
X3359604Y713488D03*
X3350104Y713488D03*
X3350104Y703988D03*
X3270320Y1032152D03*
X3260820Y1032152D03*
X3260820Y1022652D03*
X3270320Y1022652D03*
D13*
X3259057Y906040D03*
X3259057Y920040D03*
D12*
X3359384Y1121935D03*
X3349884Y1121935D03*
X3349884Y1112435D03*
X3359384Y1112435D03*
D10*
G36*
X3229234Y912974D02*
X3225345Y909085D01*
X3221456Y912974D01*
X3225345Y916863D01*
X3229234Y912974D01*
G37*
G36*
X3222516Y919691D02*
X3218627Y915802D01*
X3214738Y919691D01*
X3218627Y923580D01*
X3222516Y919691D01*
G37*
G36*
X3215799Y912974D02*
X3211910Y909085D01*
X3208021Y912974D01*
X3211910Y916863D01*
X3215799Y912974D01*
G37*
G36*
X3222516Y906256D02*
X3218627Y902367D01*
X3214738Y906256D01*
X3218627Y910145D01*
X3222516Y906256D01*
G37*
G36*
X3306201Y912884D02*
X3302312Y908995D01*
X3298423Y912884D01*
X3302312Y916773D01*
X3306201Y912884D01*
G37*
G36*
X3299483Y919602D02*
X3295594Y915713D01*
X3291705Y919602D01*
X3295594Y923491D01*
X3299483Y919602D01*
G37*
G36*
X3292766Y912884D02*
X3288877Y908995D01*
X3284988Y912884D01*
X3288877Y916773D01*
X3292766Y912884D01*
G37*
G36*
X3299483Y906167D02*
X3295594Y902278D01*
X3291705Y906167D01*
X3295594Y910056D01*
X3299483Y906167D01*
G37*
G36*
X3383181Y913018D02*
X3379292Y909129D01*
X3375403Y913018D01*
X3379292Y916907D01*
X3383181Y913018D01*
G37*
G36*
X3376463Y919735D02*
X3372574Y915846D01*
X3368685Y919735D01*
X3372574Y923624D01*
X3376463Y919735D01*
G37*
G36*
X3369746Y913018D02*
X3365857Y909129D01*
X3361968Y913018D01*
X3365857Y916907D01*
X3369746Y913018D01*
G37*
G36*
X3376463Y906300D02*
X3372574Y902411D01*
X3368685Y906300D01*
X3372574Y910189D01*
X3376463Y906300D01*
G37*
G36*
X3460011Y912892D02*
X3456122Y909003D01*
X3452233Y912892D01*
X3456122Y916781D01*
X3460011Y912892D01*
G37*
G36*
X3453294Y919609D02*
X3449405Y915720D01*
X3445516Y919609D01*
X3449405Y923498D01*
X3453294Y919609D01*
G37*
G36*
X3446576Y912892D02*
X3442687Y909003D01*
X3438798Y912892D01*
X3442687Y916781D01*
X3446576Y912892D01*
G37*
G36*
X3453294Y906174D02*
X3449405Y902285D01*
X3445516Y906174D01*
X3449405Y910063D01*
X3453294Y906174D01*
G37*
D12*
X3549533Y800580D03*
X3549533Y810080D03*
X3540033Y810080D03*
X3540033Y800580D03*
X3553851Y1024041D03*
X3544351Y1024041D03*
X3544351Y1014541D03*
X3553851Y1014541D03*
D10*
G36*
X3536861Y912999D02*
X3532972Y909110D01*
X3529083Y912999D01*
X3532972Y916888D01*
X3536861Y912999D01*
G37*
G36*
X3530143Y919717D02*
X3526254Y915828D01*
X3522365Y919717D01*
X3526254Y923606D01*
X3530143Y919717D01*
G37*
G36*
X3523426Y912999D02*
X3519537Y909110D01*
X3515648Y912999D01*
X3519537Y916888D01*
X3523426Y912999D01*
G37*
G36*
X3530143Y906282D02*
X3526254Y902393D01*
X3522365Y906282D01*
X3526254Y910171D01*
X3530143Y906282D01*
G37*
D13*
X3547463Y905528D03*
X3547463Y919528D03*
D10*
G36*
X3614444Y912265D02*
X3610555Y908376D01*
X3606666Y912265D01*
X3610555Y916154D01*
X3614444Y912265D01*
G37*
G36*
X3607727Y918983D02*
X3603838Y915094D01*
X3599949Y918983D01*
X3603838Y922872D01*
X3607727Y918983D01*
G37*
G36*
X3601009Y912265D02*
X3597120Y908376D01*
X3593231Y912265D01*
X3597120Y916154D01*
X3601009Y912265D01*
G37*
G36*
X3607727Y905548D02*
X3603838Y901659D01*
X3599949Y905548D01*
X3603838Y909437D01*
X3607727Y905548D01*
G37*
G36*
X2982615Y768415D02*
X2981191Y773727D01*
X2986503Y775151D01*
X2987927Y769839D01*
X2982615Y768415D01*
G37*
G36*
X2991792Y770873D02*
X2990368Y776185D01*
X2995680Y777609D01*
X2997104Y772297D01*
X2991792Y770873D01*
G37*
G36*
X2989333Y780050D02*
X2987909Y785362D01*
X2993221Y786786D01*
X2994645Y781474D01*
X2989333Y780050D01*
G37*
G36*
X2980157Y777591D02*
X2978733Y782903D01*
X2984045Y784327D01*
X2985469Y779015D01*
X2980157Y777591D01*
G37*
G36*
X2868083Y699733D02*
X2865333Y704495D01*
X2870095Y707245D01*
X2872845Y702483D01*
X2868083Y699733D01*
G37*
G36*
X2876310Y704483D02*
X2873560Y709245D01*
X2878322Y711995D01*
X2881072Y707233D01*
X2876310Y704483D01*
G37*
G36*
X2871560Y712710D02*
X2868810Y717472D01*
X2873572Y720222D01*
X2876322Y715460D01*
X2871560Y712710D01*
G37*
G36*
X2863333Y707960D02*
X2860583Y712722D01*
X2865345Y715472D01*
X2868095Y710710D01*
X2863333Y707960D01*
G37*
G36*
X2914536Y634192D02*
X2909224Y635616D01*
X2910648Y640928D01*
X2915960Y639504D01*
X2914536Y634192D01*
G37*
G36*
X2916995Y643368D02*
X2911683Y644792D01*
X2913107Y650104D01*
X2918419Y648680D01*
X2916995Y643368D01*
G37*
G36*
X2907818Y645827D02*
X2902506Y647251D01*
X2903930Y652563D01*
X2909242Y651139D01*
X2907818Y645827D01*
G37*
G36*
X2905360Y636651D02*
X2900048Y638075D01*
X2901472Y643387D01*
X2906784Y641963D01*
X2905360Y636651D01*
G37*
G36*
X2953042Y567592D02*
X2947730Y569016D01*
X2949154Y574328D01*
X2954466Y572904D01*
X2953042Y567592D01*
G37*
G36*
X2955501Y576768D02*
X2950189Y578192D01*
X2951613Y583504D01*
X2956925Y582080D01*
X2955501Y576768D01*
G37*
G36*
X2946324Y579227D02*
X2941012Y580651D01*
X2942436Y585963D01*
X2947748Y584539D01*
X2946324Y579227D01*
G37*
G36*
X2943866Y570050D02*
X2938554Y571474D01*
X2939978Y576786D01*
X2945290Y575362D01*
X2943866Y570050D01*
G37*
G36*
X2906630Y402786D02*
X2903880Y407548D01*
X2908642Y410298D01*
X2911392Y405536D01*
X2906630Y402786D01*
G37*
G36*
X2914858Y407536D02*
X2912108Y412298D01*
X2916870Y415048D01*
X2919620Y410286D01*
X2914858Y407536D01*
G37*
G36*
X2910108Y415763D02*
X2907358Y420525D01*
X2912120Y423275D01*
X2914870Y418513D01*
X2910108Y415763D01*
G37*
G36*
X2901880Y411013D02*
X2899130Y415775D01*
X2903892Y418525D01*
X2906642Y413763D01*
X2901880Y411013D01*
G37*
G36*
X2874665Y279839D02*
X2871915Y284601D01*
X2876677Y287351D01*
X2879427Y282589D01*
X2874665Y279839D01*
G37*
G36*
X2882892Y284589D02*
X2880142Y289351D01*
X2884904Y292101D01*
X2887654Y287339D01*
X2882892Y284589D01*
G37*
G36*
X2878142Y292816D02*
X2875392Y297578D01*
X2880154Y300328D01*
X2882904Y295566D01*
X2878142Y292816D01*
G37*
G36*
X2869915Y288066D02*
X2867165Y292828D01*
X2871927Y295578D01*
X2874677Y290816D01*
X2869915Y288066D01*
G37*
G36*
X3118982Y523993D02*
X3114220Y521243D01*
X3111470Y526005D01*
X3116232Y528755D01*
X3118982Y523993D01*
G37*
G36*
X3114232Y532220D02*
X3109470Y529470D01*
X3106720Y534232D01*
X3111482Y536982D01*
X3114232Y532220D01*
G37*
G36*
X3106005Y527470D02*
X3101243Y524720D01*
X3098493Y529482D01*
X3103255Y532232D01*
X3106005Y527470D01*
G37*
G36*
X3110755Y519243D02*
X3105993Y516493D01*
X3103243Y521255D01*
X3108005Y524005D01*
X3110755Y519243D01*
G37*
D11*
G36*
X2994848Y474277D02*
X3000910Y477777D01*
X3005910Y469117D01*
X2999848Y465617D01*
X2994848Y474277D01*
G37*
G36*
X3006972Y481277D02*
X3013034Y484777D01*
X3018034Y476117D01*
X3011972Y472617D01*
X3006972Y481277D01*
G37*
D10*
G36*
X3241269Y491753D02*
X3236507Y489003D01*
X3233757Y493765D01*
X3238519Y496515D01*
X3241269Y491753D01*
G37*
G36*
X3236519Y499980D02*
X3231757Y497230D01*
X3229007Y501992D01*
X3233769Y504742D01*
X3236519Y499980D01*
G37*
G36*
X3228292Y495230D02*
X3223530Y492480D01*
X3220780Y497242D01*
X3225542Y499992D01*
X3228292Y495230D01*
G37*
G36*
X3233042Y487003D02*
X3228280Y484253D01*
X3225530Y489015D01*
X3230292Y491765D01*
X3233042Y487003D01*
G37*
G36*
X2991471Y500992D02*
X2986159Y502416D01*
X2987583Y507728D01*
X2992895Y506304D01*
X2991471Y500992D01*
G37*
G36*
X2993930Y510168D02*
X2988618Y511592D01*
X2990042Y516904D01*
X2995354Y515480D01*
X2993930Y510168D01*
G37*
G36*
X2984754Y512627D02*
X2979442Y514051D01*
X2980866Y519363D01*
X2986178Y517939D01*
X2984754Y512627D01*
G37*
G36*
X2982295Y503450D02*
X2976983Y504874D01*
X2978407Y510186D01*
X2983719Y508762D01*
X2982295Y503450D01*
G37*
G36*
X3029877Y434292D02*
X3024565Y435716D01*
X3025989Y441028D01*
X3031301Y439604D01*
X3029877Y434292D01*
G37*
G36*
X3032336Y443468D02*
X3027024Y444892D01*
X3028448Y450204D01*
X3033760Y448780D01*
X3032336Y443468D01*
G37*
G36*
X3023160Y445927D02*
X3017848Y447351D01*
X3019272Y452663D01*
X3024584Y451239D01*
X3023160Y445927D01*
G37*
G36*
X3020701Y436750D02*
X3015389Y438174D01*
X3016813Y443486D01*
X3022125Y442062D01*
X3020701Y436750D01*
G37*
G36*
X3068483Y367692D02*
X3063171Y369116D01*
X3064595Y374428D01*
X3069907Y373004D01*
X3068483Y367692D01*
G37*
G36*
X3070942Y376868D02*
X3065630Y378292D01*
X3067054Y383604D01*
X3072366Y382180D01*
X3070942Y376868D01*
G37*
G36*
X3061766Y379327D02*
X3056454Y380751D01*
X3057878Y386063D01*
X3063190Y384639D01*
X3061766Y379327D01*
G37*
G36*
X3059307Y370150D02*
X3053995Y371574D01*
X3055419Y376886D01*
X3060731Y375462D01*
X3059307Y370150D01*
G37*
G36*
X3106789Y301092D02*
X3101477Y302516D01*
X3102901Y307828D01*
X3108213Y306404D01*
X3106789Y301092D01*
G37*
G36*
X3109248Y310268D02*
X3103936Y311692D01*
X3105360Y317004D01*
X3110672Y315580D01*
X3109248Y310268D01*
G37*
G36*
X3100072Y312727D02*
X3094760Y314151D01*
X3096184Y319463D01*
X3101496Y318039D01*
X3100072Y312727D01*
G37*
G36*
X3097613Y303551D02*
X3092301Y304975D01*
X3093725Y310287D01*
X3099037Y308863D01*
X3097613Y303551D01*
G37*
G36*
X3053280Y163652D02*
X3050530Y168414D01*
X3055292Y171164D01*
X3058042Y166402D01*
X3053280Y163652D01*
G37*
G36*
X3061507Y168402D02*
X3058757Y173164D01*
X3063519Y175914D01*
X3066269Y171152D01*
X3061507Y168402D01*
G37*
G36*
X3056757Y176629D02*
X3054007Y181391D01*
X3058769Y184141D01*
X3061519Y179379D01*
X3056757Y176629D01*
G37*
G36*
X3048530Y171879D02*
X3045780Y176641D01*
X3050542Y179391D01*
X3053292Y174629D01*
X3048530Y171879D01*
G37*
G36*
X3253724Y274393D02*
X3248962Y271643D01*
X3246212Y276405D01*
X3250974Y279155D01*
X3253724Y274393D01*
G37*
G36*
X3248974Y282620D02*
X3244212Y279870D01*
X3241462Y284632D01*
X3246224Y287382D01*
X3248974Y282620D01*
G37*
G36*
X3240746Y277870D02*
X3235984Y275120D01*
X3233234Y279882D01*
X3237996Y282632D01*
X3240746Y277870D01*
G37*
G36*
X3245496Y269643D02*
X3240734Y266893D01*
X3237984Y271655D01*
X3242746Y274405D01*
X3245496Y269643D01*
G37*
G36*
X3145307Y234592D02*
X3139995Y236016D01*
X3141419Y241328D01*
X3146731Y239904D01*
X3145307Y234592D01*
G37*
G36*
X3147766Y243768D02*
X3142454Y245192D01*
X3143878Y250504D01*
X3149190Y249080D01*
X3147766Y243768D01*
G37*
G36*
X3138589Y246227D02*
X3133277Y247651D01*
X3134701Y252963D01*
X3140013Y251539D01*
X3138589Y246227D01*
G37*
G36*
X3136130Y237050D02*
X3130818Y238474D01*
X3132242Y243786D01*
X3137554Y242362D01*
X3136130Y237050D01*
G37*
D11*
G36*
X3138607Y224255D02*
X3144669Y227755D01*
X3149669Y219095D01*
X3143607Y215595D01*
X3138607Y224255D01*
G37*
G36*
X3150732Y231255D02*
X3156794Y234755D01*
X3161794Y226095D01*
X3155732Y222595D01*
X3150732Y231255D01*
G37*
D10*
G36*
X3183463Y167035D02*
X3178151Y168459D01*
X3179575Y173771D01*
X3184887Y172347D01*
X3183463Y167035D01*
G37*
G36*
X3185922Y176212D02*
X3180610Y177636D01*
X3182034Y182948D01*
X3187346Y181524D01*
X3185922Y176212D01*
G37*
G36*
X3176746Y178670D02*
X3171434Y180094D01*
X3172858Y185406D01*
X3178170Y183982D01*
X3176746Y178670D01*
G37*
G36*
X3174287Y169494D02*
X3168975Y170918D01*
X3170399Y176230D01*
X3175711Y174806D01*
X3174287Y169494D01*
G37*
G36*
X2742971Y642291D02*
X2746860Y646180D01*
X2750749Y642291D01*
X2746860Y638402D01*
X2742971Y642291D01*
G37*
G36*
X2749688Y635573D02*
X2753577Y639462D01*
X2757466Y635573D01*
X2753577Y631684D01*
X2749688Y635573D01*
G37*
G36*
X2756406Y642291D02*
X2760295Y646180D01*
X2764184Y642291D01*
X2760295Y638402D01*
X2756406Y642291D01*
G37*
G36*
X2749688Y649008D02*
X2753577Y652897D01*
X2757466Y649008D01*
X2753577Y645119D01*
X2749688Y649008D01*
G37*
G36*
X2306997Y140199D02*
X2305573Y145511D01*
X2310885Y146935D01*
X2312309Y141623D01*
X2306997Y140199D01*
G37*
G36*
X2316174Y142658D02*
X2314750Y147970D01*
X2320062Y149394D01*
X2321486Y144082D01*
X2316174Y142658D01*
G37*
G36*
X2313715Y151834D02*
X2312291Y157146D01*
X2317603Y158570D01*
X2319027Y153258D01*
X2313715Y151834D01*
G37*
G36*
X2304539Y149375D02*
X2303115Y154687D01*
X2308427Y156111D01*
X2309851Y150799D01*
X2304539Y149375D01*
G37*
G36*
X1026951Y699724D02*
X1024201Y704486D01*
X1028963Y707236D01*
X1031713Y702474D01*
X1026951Y699724D01*
G37*
G36*
X1035178Y704474D02*
X1032428Y709236D01*
X1037190Y711986D01*
X1039940Y707224D01*
X1035178Y704474D01*
G37*
G36*
X1030428Y712701D02*
X1027678Y717463D01*
X1032440Y720213D01*
X1035190Y715451D01*
X1030428Y712701D01*
G37*
G36*
X1022201Y707951D02*
X1019451Y712713D01*
X1024213Y715463D01*
X1026963Y710701D01*
X1022201Y707951D01*
G37*
G36*
X1073404Y634183D02*
X1068092Y635607D01*
X1069516Y640919D01*
X1074828Y639495D01*
X1073404Y634183D01*
G37*
G36*
X1075863Y643359D02*
X1070551Y644783D01*
X1071975Y650095D01*
X1077287Y648671D01*
X1075863Y643359D01*
G37*
G36*
X1066686Y645818D02*
X1061374Y647242D01*
X1062798Y652554D01*
X1068110Y651130D01*
X1066686Y645818D01*
G37*
G36*
X1064228Y636642D02*
X1058916Y638066D01*
X1060340Y643378D01*
X1065652Y641954D01*
X1064228Y636642D01*
G37*
G36*
X1111910Y567583D02*
X1106598Y569007D01*
X1108022Y574319D01*
X1113334Y572895D01*
X1111910Y567583D01*
G37*
G36*
X1114369Y576759D02*
X1109057Y578183D01*
X1110481Y583495D01*
X1115793Y582071D01*
X1114369Y576759D01*
G37*
G36*
X1105192Y579218D02*
X1099880Y580642D01*
X1101304Y585954D01*
X1106616Y584530D01*
X1105192Y579218D01*
G37*
G36*
X1102734Y570042D02*
X1097422Y571466D01*
X1098846Y576778D01*
X1104158Y575354D01*
X1102734Y570042D01*
G37*
G36*
X1065499Y402777D02*
X1062749Y407539D01*
X1067511Y410289D01*
X1070261Y405527D01*
X1065499Y402777D01*
G37*
G36*
X1073726Y407527D02*
X1070976Y412289D01*
X1075738Y415039D01*
X1078488Y410277D01*
X1073726Y407527D01*
G37*
G36*
X1068976Y415754D02*
X1066226Y420516D01*
X1070988Y423266D01*
X1073738Y418504D01*
X1068976Y415754D01*
G37*
G36*
X1060749Y411004D02*
X1057999Y415766D01*
X1062761Y418516D01*
X1065511Y413754D01*
X1060749Y411004D01*
G37*
G36*
X1033533Y279830D02*
X1030783Y284592D01*
X1035545Y287342D01*
X1038295Y282580D01*
X1033533Y279830D01*
G37*
G36*
X1041760Y284580D02*
X1039010Y289342D01*
X1043772Y292092D01*
X1046522Y287330D01*
X1041760Y284580D01*
G37*
G36*
X1037010Y292808D02*
X1034260Y297570D01*
X1039022Y300320D01*
X1041772Y295558D01*
X1037010Y292808D01*
G37*
G36*
X1028783Y288058D02*
X1026033Y292820D01*
X1030795Y295570D01*
X1033545Y290808D01*
X1028783Y288058D01*
G37*
G36*
X1277850Y523984D02*
X1273088Y521234D01*
X1270338Y525996D01*
X1275100Y528746D01*
X1277850Y523984D01*
G37*
G36*
X1273100Y532211D02*
X1268338Y529461D01*
X1265588Y534223D01*
X1270350Y536973D01*
X1273100Y532211D01*
G37*
G36*
X1264873Y527461D02*
X1260111Y524711D01*
X1257361Y529473D01*
X1262123Y532223D01*
X1264873Y527461D01*
G37*
G36*
X1269623Y519234D02*
X1264861Y516484D01*
X1262111Y521246D01*
X1266873Y523996D01*
X1269623Y519234D01*
G37*
D11*
G36*
X1153716Y474268D02*
X1159778Y477768D01*
X1164778Y469108D01*
X1158716Y465608D01*
X1153716Y474268D01*
G37*
G36*
X1165840Y481268D02*
X1171902Y484768D01*
X1176902Y476108D01*
X1170840Y472608D01*
X1165840Y481268D01*
G37*
D10*
G36*
X1400137Y491744D02*
X1395375Y488994D01*
X1392625Y493756D01*
X1397387Y496506D01*
X1400137Y491744D01*
G37*
G36*
X1395387Y499972D02*
X1390625Y497222D01*
X1387875Y501984D01*
X1392637Y504734D01*
X1395387Y499972D01*
G37*
G36*
X1387160Y495222D02*
X1382398Y492472D01*
X1379648Y497234D01*
X1384410Y499984D01*
X1387160Y495222D01*
G37*
G36*
X1391910Y486994D02*
X1387148Y484244D01*
X1384398Y489006D01*
X1389160Y491756D01*
X1391910Y486994D01*
G37*
G36*
X1150339Y500983D02*
X1145027Y502407D01*
X1146451Y507719D01*
X1151763Y506295D01*
X1150339Y500983D01*
G37*
G36*
X1152798Y510159D02*
X1147486Y511583D01*
X1148910Y516895D01*
X1154222Y515471D01*
X1152798Y510159D01*
G37*
G36*
X1143622Y512618D02*
X1138310Y514042D01*
X1139734Y519354D01*
X1145046Y517930D01*
X1143622Y512618D01*
G37*
G36*
X1141163Y503442D02*
X1135851Y504866D01*
X1137275Y510178D01*
X1142587Y508754D01*
X1141163Y503442D01*
G37*
G36*
X1188745Y434283D02*
X1183433Y435707D01*
X1184857Y441019D01*
X1190169Y439595D01*
X1188745Y434283D01*
G37*
G36*
X1191204Y443459D02*
X1185892Y444883D01*
X1187316Y450195D01*
X1192628Y448771D01*
X1191204Y443459D01*
G37*
G36*
X1182028Y445918D02*
X1176716Y447342D01*
X1178140Y452654D01*
X1183452Y451230D01*
X1182028Y445918D01*
G37*
G36*
X1179569Y436742D02*
X1174257Y438166D01*
X1175681Y443478D01*
X1180993Y442054D01*
X1179569Y436742D01*
G37*
G36*
X1227351Y367683D02*
X1222039Y369107D01*
X1223463Y374419D01*
X1228775Y372995D01*
X1227351Y367683D01*
G37*
G36*
X1229810Y376859D02*
X1224498Y378283D01*
X1225922Y383595D01*
X1231234Y382171D01*
X1229810Y376859D01*
G37*
G36*
X1220634Y379318D02*
X1215322Y380742D01*
X1216746Y386054D01*
X1222058Y384630D01*
X1220634Y379318D01*
G37*
G36*
X1218175Y370142D02*
X1212863Y371566D01*
X1214287Y376878D01*
X1219599Y375454D01*
X1218175Y370142D01*
G37*
G36*
X1265657Y301083D02*
X1260345Y302507D01*
X1261769Y307819D01*
X1267081Y306395D01*
X1265657Y301083D01*
G37*
G36*
X1268116Y310259D02*
X1262804Y311683D01*
X1264228Y316995D01*
X1269540Y315571D01*
X1268116Y310259D01*
G37*
G36*
X1258940Y312718D02*
X1253628Y314142D01*
X1255052Y319454D01*
X1260364Y318030D01*
X1258940Y312718D01*
G37*
G36*
X1256481Y303542D02*
X1251169Y304966D01*
X1252593Y310278D01*
X1257905Y308854D01*
X1256481Y303542D01*
G37*
G36*
X1212148Y163643D02*
X1209398Y168405D01*
X1214160Y171155D01*
X1216910Y166393D01*
X1212148Y163643D01*
G37*
G36*
X1220375Y168393D02*
X1217625Y173155D01*
X1222387Y175905D01*
X1225137Y171143D01*
X1220375Y168393D01*
G37*
G36*
X1215625Y176620D02*
X1212875Y181382D01*
X1217637Y184132D01*
X1220387Y179370D01*
X1215625Y176620D01*
G37*
G36*
X1207398Y171870D02*
X1204648Y176632D01*
X1209410Y179382D01*
X1212160Y174620D01*
X1207398Y171870D01*
G37*
G36*
X1412592Y274384D02*
X1407830Y271634D01*
X1405080Y276396D01*
X1409842Y279146D01*
X1412592Y274384D01*
G37*
G36*
X1407842Y282611D02*
X1403080Y279861D01*
X1400330Y284623D01*
X1405092Y287373D01*
X1407842Y282611D01*
G37*
G36*
X1399614Y277861D02*
X1394852Y275111D01*
X1392102Y279873D01*
X1396864Y282623D01*
X1399614Y277861D01*
G37*
G36*
X1404364Y269634D02*
X1399602Y266884D01*
X1396852Y271646D01*
X1401614Y274396D01*
X1404364Y269634D01*
G37*
G36*
X1304175Y234583D02*
X1298863Y236007D01*
X1300287Y241319D01*
X1305599Y239895D01*
X1304175Y234583D01*
G37*
G36*
X1306634Y243759D02*
X1301322Y245183D01*
X1302746Y250495D01*
X1308058Y249071D01*
X1306634Y243759D01*
G37*
G36*
X1297457Y246218D02*
X1292145Y247642D01*
X1293569Y252954D01*
X1298881Y251530D01*
X1297457Y246218D01*
G37*
G36*
X1294999Y237042D02*
X1289687Y238466D01*
X1291111Y243778D01*
X1296423Y242354D01*
X1294999Y237042D01*
G37*
D11*
G36*
X1296986Y225799D02*
X1303048Y229299D01*
X1308048Y220639D01*
X1301986Y217139D01*
X1296986Y225799D01*
G37*
G36*
X1309111Y232799D02*
X1315173Y236299D01*
X1320173Y227639D01*
X1314111Y224139D01*
X1309111Y232799D01*
G37*
D10*
G36*
X901839Y642282D02*
X905728Y646171D01*
X909617Y642282D01*
X905728Y638393D01*
X901839Y642282D01*
G37*
G36*
X908556Y635564D02*
X912445Y639453D01*
X916334Y635564D01*
X912445Y631675D01*
X908556Y635564D01*
G37*
G36*
X915274Y642282D02*
X919163Y646171D01*
X923052Y642282D01*
X919163Y638393D01*
X915274Y642282D01*
G37*
G36*
X908556Y648999D02*
X912445Y652888D01*
X916334Y648999D01*
X912445Y645110D01*
X908556Y648999D01*
G37*
G36*
X785092Y707129D02*
X787842Y711891D01*
X792604Y709141D01*
X789854Y704379D01*
X785092Y707129D01*
G37*
G36*
X793319Y702379D02*
X796069Y707141D01*
X800831Y704391D01*
X798081Y699629D01*
X793319Y702379D01*
G37*
G36*
X798069Y710607D02*
X800819Y715369D01*
X805581Y712619D01*
X802831Y707857D01*
X798069Y710607D01*
G37*
G36*
X789842Y715357D02*
X792592Y720119D01*
X797354Y717369D01*
X794604Y712607D01*
X789842Y715357D01*
G37*
G36*
X751559Y634128D02*
X750135Y639440D01*
X755447Y640864D01*
X756871Y635552D01*
X751559Y634128D01*
G37*
G36*
X760736Y636587D02*
X759312Y641899D01*
X764624Y643323D01*
X766048Y638011D01*
X760736Y636587D01*
G37*
G36*
X758277Y645763D02*
X756853Y651075D01*
X762165Y652499D01*
X763589Y647187D01*
X758277Y645763D01*
G37*
G36*
X749101Y643304D02*
X747677Y648616D01*
X752989Y650040D01*
X754413Y644728D01*
X749101Y643304D01*
G37*
G36*
X713135Y567481D02*
X711711Y572793D01*
X717023Y574217D01*
X718447Y568905D01*
X713135Y567481D01*
G37*
G36*
X722311Y569940D02*
X720887Y575252D01*
X726199Y576676D01*
X727623Y571364D01*
X722311Y569940D01*
G37*
G36*
X719853Y579116D02*
X718429Y584428D01*
X723741Y585852D01*
X725165Y580540D01*
X719853Y579116D01*
G37*
G36*
X710676Y576657D02*
X709252Y581969D01*
X714564Y583393D01*
X715988Y578081D01*
X710676Y576657D01*
G37*
G36*
X547202Y525273D02*
X549952Y530035D01*
X554714Y527285D01*
X551964Y522523D01*
X547202Y525273D01*
G37*
G36*
X555430Y520523D02*
X558180Y525285D01*
X562942Y522535D01*
X560192Y517773D01*
X555430Y520523D01*
G37*
G36*
X560180Y528750D02*
X562930Y533512D01*
X567692Y530762D01*
X564942Y526000D01*
X560180Y528750D01*
G37*
G36*
X551952Y533500D02*
X554702Y538262D01*
X559464Y535512D01*
X556714Y530750D01*
X551952Y533500D01*
G37*
G36*
X424744Y491482D02*
X427494Y496244D01*
X432256Y493494D01*
X429506Y488732D01*
X424744Y491482D01*
G37*
G36*
X432972Y486732D02*
X435722Y491494D01*
X440484Y488744D01*
X437734Y483982D01*
X432972Y486732D01*
G37*
G36*
X437722Y494960D02*
X440472Y499722D01*
X445234Y496972D01*
X442484Y492210D01*
X437722Y494960D01*
G37*
G36*
X429494Y499710D02*
X432244Y504472D01*
X437006Y501722D01*
X434256Y496960D01*
X429494Y499710D01*
G37*
G36*
X758346Y401973D02*
X753584Y404723D01*
X756334Y409485D01*
X761096Y406735D01*
X758346Y401973D01*
G37*
G36*
X763096Y410200D02*
X758334Y412950D01*
X761084Y417712D01*
X765846Y414962D01*
X763096Y410200D01*
G37*
G36*
X754869Y414950D02*
X750107Y417700D01*
X752857Y422462D01*
X757619Y419712D01*
X754869Y414950D01*
G37*
G36*
X750119Y406723D02*
X745357Y409473D01*
X748107Y414235D01*
X752869Y411485D01*
X750119Y406723D01*
G37*
D11*
G36*
X653224Y484619D02*
X659286Y481119D01*
X654286Y472459D01*
X648224Y475959D01*
X653224Y484619D01*
G37*
G36*
X665349Y477619D02*
X671411Y474119D01*
X666411Y465459D01*
X660349Y468959D01*
X665349Y477619D01*
G37*
D10*
G36*
X791569Y279950D02*
X786807Y282700D01*
X789557Y287462D01*
X794319Y284712D01*
X791569Y279950D01*
G37*
G36*
X796319Y288177D02*
X791557Y290927D01*
X794307Y295689D01*
X799069Y292939D01*
X796319Y288177D01*
G37*
G36*
X788092Y292927D02*
X783330Y295677D01*
X786080Y300439D01*
X790842Y297689D01*
X788092Y292927D01*
G37*
G36*
X783342Y284700D02*
X778580Y287450D01*
X781330Y292212D01*
X786092Y289462D01*
X783342Y284700D01*
G37*
G36*
X674673Y500900D02*
X673249Y506212D01*
X678561Y507636D01*
X679985Y502324D01*
X674673Y500900D01*
G37*
G36*
X683849Y503359D02*
X682425Y508671D01*
X687737Y510095D01*
X689161Y504783D01*
X683849Y503359D01*
G37*
G36*
X681390Y512535D02*
X679966Y517847D01*
X685278Y519271D01*
X686702Y513959D01*
X681390Y512535D01*
G37*
G36*
X672214Y510076D02*
X670790Y515388D01*
X676102Y516812D01*
X677526Y511500D01*
X672214Y510076D01*
G37*
G36*
X636112Y434289D02*
X634688Y439601D01*
X640000Y441025D01*
X641424Y435713D01*
X636112Y434289D01*
G37*
G36*
X645288Y436748D02*
X643864Y442060D01*
X649176Y443484D01*
X650600Y438172D01*
X645288Y436748D01*
G37*
G36*
X642829Y445924D02*
X641405Y451236D01*
X646717Y452660D01*
X648141Y447348D01*
X642829Y445924D01*
G37*
G36*
X633653Y443466D02*
X632229Y448778D01*
X637541Y450202D01*
X638965Y444890D01*
X633653Y443466D01*
G37*
G36*
X597737Y367556D02*
X596313Y372868D01*
X601625Y374292D01*
X603049Y368980D01*
X597737Y367556D01*
G37*
G36*
X606914Y370014D02*
X605490Y375326D01*
X610802Y376750D01*
X612226Y371438D01*
X606914Y370014D01*
G37*
G36*
X604455Y379191D02*
X603031Y384503D01*
X608343Y385927D01*
X609767Y380615D01*
X604455Y379191D01*
G37*
G36*
X595279Y376732D02*
X593855Y382044D01*
X599167Y383468D01*
X600591Y378156D01*
X595279Y376732D01*
G37*
G36*
X559213Y301082D02*
X557789Y306394D01*
X563101Y307818D01*
X564525Y302506D01*
X559213Y301082D01*
G37*
G36*
X568389Y303541D02*
X566965Y308853D01*
X572277Y310277D01*
X573701Y304965D01*
X568389Y303541D01*
G37*
G36*
X565931Y312717D02*
X564507Y318029D01*
X569819Y319453D01*
X571243Y314141D01*
X565931Y312717D01*
G37*
G36*
X556754Y310258D02*
X555330Y315570D01*
X560642Y316994D01*
X562066Y311682D01*
X556754Y310258D01*
G37*
G36*
X413431Y278704D02*
X416181Y283466D01*
X420943Y280716D01*
X418193Y275954D01*
X413431Y278704D01*
G37*
G36*
X421658Y273954D02*
X424408Y278716D01*
X429170Y275966D01*
X426420Y271204D01*
X421658Y273954D01*
G37*
G36*
X426408Y282181D02*
X429158Y286943D01*
X433920Y284193D01*
X431170Y279431D01*
X426408Y282181D01*
G37*
G36*
X418181Y286931D02*
X420931Y291693D01*
X425693Y288943D01*
X422943Y284181D01*
X418181Y286931D01*
G37*
G36*
X609557Y160484D02*
X604795Y163234D01*
X607545Y167996D01*
X612307Y165246D01*
X609557Y160484D01*
G37*
G36*
X614307Y168711D02*
X609545Y171461D01*
X612295Y176223D01*
X617057Y173473D01*
X614307Y168711D01*
G37*
G36*
X606080Y173461D02*
X601318Y176211D01*
X604068Y180973D01*
X608830Y178223D01*
X606080Y173461D01*
G37*
G36*
X601330Y165234D02*
X596568Y167984D01*
X599318Y172746D01*
X604080Y169996D01*
X601330Y165234D01*
G37*
G36*
X520881Y234474D02*
X519457Y239786D01*
X524769Y241210D01*
X526193Y235898D01*
X520881Y234474D01*
G37*
G36*
X530057Y236933D02*
X528633Y242245D01*
X533945Y243669D01*
X535369Y238357D01*
X530057Y236933D01*
G37*
G36*
X527599Y246110D02*
X526175Y251422D01*
X531487Y252846D01*
X532911Y247534D01*
X527599Y246110D01*
G37*
G36*
X518422Y243651D02*
X516998Y248963D01*
X522310Y250387D01*
X523734Y245075D01*
X518422Y243651D01*
G37*
D11*
G36*
X508579Y235108D02*
X514641Y231608D01*
X509641Y222948D01*
X503579Y226448D01*
X508579Y235108D01*
G37*
G36*
X520703Y228108D02*
X526765Y224608D01*
X521765Y215948D01*
X515703Y219448D01*
X520703Y228108D01*
G37*
D10*
G36*
X481454Y167652D02*
X480030Y172964D01*
X485342Y174388D01*
X486766Y169076D01*
X481454Y167652D01*
G37*
G36*
X490630Y170111D02*
X489206Y175423D01*
X494518Y176847D01*
X495942Y171535D01*
X490630Y170111D01*
G37*
G36*
X488171Y179287D02*
X486747Y184599D01*
X492059Y186023D01*
X493483Y180711D01*
X488171Y179287D01*
G37*
G36*
X478995Y176828D02*
X477571Y182140D01*
X482883Y183564D01*
X484307Y178252D01*
X478995Y176828D01*
G37*
G36*
X672790Y786758D02*
X678102Y785334D01*
X676678Y780022D01*
X671366Y781446D01*
X672790Y786758D01*
G37*
G36*
X670332Y777581D02*
X675644Y776157D01*
X674220Y770845D01*
X668908Y772269D01*
X670332Y777581D01*
G37*
G36*
X679508Y775123D02*
X684820Y773699D01*
X683396Y768387D01*
X678084Y769811D01*
X679508Y775123D01*
G37*
G36*
X681967Y784299D02*
X687279Y782875D01*
X685855Y777563D01*
X680543Y778987D01*
X681967Y784299D01*
G37*
D12*
X673325Y917537D03*
X673325Y908037D03*
X682825Y908037D03*
X682825Y917537D03*
D10*
G36*
X590589Y912827D02*
X594478Y916716D01*
X598367Y912827D01*
X594478Y908938D01*
X590589Y912827D01*
G37*
G36*
X597306Y906109D02*
X601195Y909998D01*
X605084Y906109D01*
X601195Y902220D01*
X597306Y906109D01*
G37*
G36*
X604024Y912827D02*
X607913Y916716D01*
X611802Y912827D01*
X607913Y908938D01*
X604024Y912827D01*
G37*
G36*
X597306Y919544D02*
X601195Y923433D01*
X605084Y919544D01*
X601195Y915655D01*
X597306Y919544D01*
G37*
G36*
X513658Y912780D02*
X517547Y916669D01*
X521436Y912780D01*
X517547Y908891D01*
X513658Y912780D01*
G37*
G36*
X520376Y906062D02*
X524265Y909951D01*
X528154Y906062D01*
X524265Y902173D01*
X520376Y906062D01*
G37*
G36*
X527093Y912780D02*
X530982Y916669D01*
X534871Y912780D01*
X530982Y908891D01*
X527093Y912780D01*
G37*
G36*
X520376Y919497D02*
X524265Y923386D01*
X528154Y919497D01*
X524265Y915608D01*
X520376Y919497D01*
G37*
D12*
X396888Y1032627D03*
X396888Y1023127D03*
X406388Y1023127D03*
X406388Y1032627D03*
X306396Y1121784D03*
X306396Y1112284D03*
X315896Y1112284D03*
X315896Y1121784D03*
X395680Y793621D03*
X405180Y793621D03*
X405180Y803121D03*
X395680Y803121D03*
D13*
X406943Y919733D03*
X406943Y905733D03*
D12*
X306616Y703837D03*
X316116Y703837D03*
X316116Y713337D03*
X306616Y713337D03*
D10*
G36*
X436766Y912799D02*
X440655Y916688D01*
X444544Y912799D01*
X440655Y908910D01*
X436766Y912799D01*
G37*
G36*
X443484Y906081D02*
X447373Y909970D01*
X451262Y906081D01*
X447373Y902192D01*
X443484Y906081D01*
G37*
G36*
X450201Y912799D02*
X454090Y916688D01*
X457979Y912799D01*
X454090Y908910D01*
X450201Y912799D01*
G37*
G36*
X443484Y919516D02*
X447373Y923405D01*
X451262Y919516D01*
X447373Y915627D01*
X443484Y919516D01*
G37*
G36*
X359799Y912888D02*
X363688Y916777D01*
X367577Y912888D01*
X363688Y908999D01*
X359799Y912888D01*
G37*
G36*
X366517Y906171D02*
X370406Y910060D01*
X374295Y906171D01*
X370406Y902282D01*
X366517Y906171D01*
G37*
G36*
X373234Y912888D02*
X377123Y916777D01*
X381012Y912888D01*
X377123Y908999D01*
X373234Y912888D01*
G37*
G36*
X366517Y919606D02*
X370406Y923495D01*
X374295Y919606D01*
X370406Y915717D01*
X366517Y919606D01*
G37*
G36*
X282819Y912755D02*
X286708Y916644D01*
X290597Y912755D01*
X286708Y908866D01*
X282819Y912755D01*
G37*
G36*
X289537Y906037D02*
X293426Y909926D01*
X297315Y906037D01*
X293426Y902148D01*
X289537Y906037D01*
G37*
G36*
X296254Y912755D02*
X300143Y916644D01*
X304032Y912755D01*
X300143Y908866D01*
X296254Y912755D01*
G37*
G36*
X289537Y919472D02*
X293426Y923361D01*
X297315Y919472D01*
X293426Y915583D01*
X289537Y919472D01*
G37*
G36*
X205989Y912881D02*
X209878Y916770D01*
X213767Y912881D01*
X209878Y908992D01*
X205989Y912881D01*
G37*
G36*
X212706Y906163D02*
X216595Y910052D01*
X220484Y906163D01*
X216595Y902274D01*
X212706Y906163D01*
G37*
G36*
X219424Y912881D02*
X223313Y916770D01*
X227202Y912881D01*
X223313Y908992D01*
X219424Y912881D01*
G37*
G36*
X212706Y919598D02*
X216595Y923487D01*
X220484Y919598D01*
X216595Y915709D01*
X212706Y919598D01*
G37*
D12*
X116467Y1025192D03*
X116467Y1015692D03*
X125967Y1015692D03*
X125967Y1025192D03*
X112149Y801731D03*
X121649Y801731D03*
X121649Y811231D03*
X112149Y811231D03*
D10*
G36*
X129139Y912773D02*
X133028Y916662D01*
X136917Y912773D01*
X133028Y908884D01*
X129139Y912773D01*
G37*
G36*
X135857Y906056D02*
X139746Y909945D01*
X143635Y906056D01*
X139746Y902167D01*
X135857Y906056D01*
G37*
G36*
X142574Y912773D02*
X146463Y916662D01*
X150352Y912773D01*
X146463Y908884D01*
X142574Y912773D01*
G37*
G36*
X135857Y919491D02*
X139746Y923380D01*
X143635Y919491D01*
X139746Y915602D01*
X135857Y919491D01*
G37*
D13*
X118537Y920244D03*
X118537Y906244D03*
D10*
G36*
X51556Y913507D02*
X55445Y917396D01*
X59334Y913507D01*
X55445Y909618D01*
X51556Y913507D01*
G37*
G36*
X58273Y906789D02*
X62162Y910678D01*
X66051Y906789D01*
X62162Y902900D01*
X58273Y906789D01*
G37*
G36*
X64991Y913507D02*
X68880Y917396D01*
X72769Y913507D01*
X68880Y909618D01*
X64991Y913507D01*
G37*
G36*
X58273Y920225D02*
X62162Y924114D01*
X66051Y920225D01*
X62162Y916336D01*
X58273Y920225D01*
G37*
G36*
X683385Y1057358D02*
X684809Y1052046D01*
X679497Y1050622D01*
X678073Y1055934D01*
X683385Y1057358D01*
G37*
G36*
X674208Y1054899D02*
X675632Y1049587D01*
X670320Y1048163D01*
X668896Y1053475D01*
X674208Y1054899D01*
G37*
G36*
X676667Y1045723D02*
X678091Y1040411D01*
X672779Y1038987D01*
X671355Y1044299D01*
X676667Y1045723D01*
G37*
G36*
X685844Y1048181D02*
X687268Y1042869D01*
X681956Y1041445D01*
X680532Y1046757D01*
X685844Y1048181D01*
G37*
G36*
X797918Y1126040D02*
X800668Y1121278D01*
X795906Y1118528D01*
X793156Y1123290D01*
X797918Y1126040D01*
G37*
G36*
X789690Y1121290D02*
X792440Y1116528D01*
X787678Y1113778D01*
X784928Y1118540D01*
X789690Y1121290D01*
G37*
G36*
X794440Y1113063D02*
X797190Y1108301D01*
X792428Y1105551D01*
X789678Y1110313D01*
X794440Y1113063D01*
G37*
G36*
X802668Y1117813D02*
X805418Y1113051D01*
X800656Y1110301D01*
X797906Y1115063D01*
X802668Y1117813D01*
G37*
G36*
X751464Y1191581D02*
X756776Y1190157D01*
X755352Y1184845D01*
X750040Y1186269D01*
X751464Y1191581D01*
G37*
G36*
X749005Y1182404D02*
X754317Y1180980D01*
X752893Y1175668D01*
X747581Y1177092D01*
X749005Y1182404D01*
G37*
G36*
X758182Y1179946D02*
X763494Y1178522D01*
X762070Y1173210D01*
X756758Y1174634D01*
X758182Y1179946D01*
G37*
G36*
X760641Y1189122D02*
X765953Y1187698D01*
X764529Y1182386D01*
X759217Y1183810D01*
X760641Y1189122D01*
G37*
G36*
X712958Y1258181D02*
X718270Y1256757D01*
X716846Y1251445D01*
X711534Y1252869D01*
X712958Y1258181D01*
G37*
G36*
X710499Y1249004D02*
X715811Y1247580D01*
X714387Y1242268D01*
X709075Y1243692D01*
X710499Y1249004D01*
G37*
G36*
X719676Y1246546D02*
X724988Y1245122D01*
X723564Y1239810D01*
X718252Y1241234D01*
X719676Y1246546D01*
G37*
G36*
X722135Y1255722D02*
X727447Y1254298D01*
X726023Y1248986D01*
X720711Y1250410D01*
X722135Y1255722D01*
G37*
G36*
X759370Y1422986D02*
X762120Y1418224D01*
X757358Y1415474D01*
X754608Y1420236D01*
X759370Y1422986D01*
G37*
G36*
X751142Y1418236D02*
X753892Y1413474D01*
X749130Y1410724D01*
X746380Y1415486D01*
X751142Y1418236D01*
G37*
G36*
X755892Y1410009D02*
X758642Y1405247D01*
X753880Y1402497D01*
X751130Y1407259D01*
X755892Y1410009D01*
G37*
G36*
X764120Y1414759D02*
X766870Y1409997D01*
X762108Y1407247D01*
X759358Y1412009D01*
X764120Y1414759D01*
G37*
G36*
X791336Y1545933D02*
X794086Y1541171D01*
X789324Y1538421D01*
X786574Y1543183D01*
X791336Y1545933D01*
G37*
G36*
X783108Y1541183D02*
X785858Y1536421D01*
X781096Y1533671D01*
X778346Y1538433D01*
X783108Y1541183D01*
G37*
G36*
X787858Y1532956D02*
X790608Y1528194D01*
X785846Y1525444D01*
X783096Y1530206D01*
X787858Y1532956D01*
G37*
G36*
X796086Y1537706D02*
X798836Y1532944D01*
X794074Y1530194D01*
X791324Y1534956D01*
X796086Y1537706D01*
G37*
G36*
X547018Y1301779D02*
X551780Y1304529D01*
X554530Y1299767D01*
X549768Y1297017D01*
X547018Y1301779D01*
G37*
G36*
X551768Y1293552D02*
X556530Y1296302D01*
X559280Y1291540D01*
X554518Y1288790D01*
X551768Y1293552D01*
G37*
G36*
X559995Y1298302D02*
X564757Y1301052D01*
X567507Y1296290D01*
X562745Y1293540D01*
X559995Y1298302D01*
G37*
G36*
X555245Y1306529D02*
X560007Y1309279D01*
X562757Y1304517D01*
X557995Y1301767D01*
X555245Y1306529D01*
G37*
D11*
G36*
X671152Y1351496D02*
X665090Y1347996D01*
X660090Y1356656D01*
X666152Y1360156D01*
X671152Y1351496D01*
G37*
G36*
X659028Y1344496D02*
X652966Y1340996D01*
X647966Y1349656D01*
X654028Y1353156D01*
X659028Y1344496D01*
G37*
D10*
G36*
X424731Y1334019D02*
X429493Y1336769D01*
X432243Y1332007D01*
X427481Y1329257D01*
X424731Y1334019D01*
G37*
G36*
X429481Y1325792D02*
X434243Y1328542D01*
X436993Y1323780D01*
X432231Y1321030D01*
X429481Y1325792D01*
G37*
G36*
X437709Y1330542D02*
X442471Y1333292D01*
X445221Y1328530D01*
X440459Y1325780D01*
X437709Y1330542D01*
G37*
G36*
X432959Y1338769D02*
X437721Y1341519D01*
X440471Y1336757D01*
X435709Y1334007D01*
X432959Y1338769D01*
G37*
G36*
X674529Y1324781D02*
X679841Y1323357D01*
X678417Y1318045D01*
X673105Y1319469D01*
X674529Y1324781D01*
G37*
G36*
X672070Y1315604D02*
X677382Y1314180D01*
X675958Y1308868D01*
X670646Y1310292D01*
X672070Y1315604D01*
G37*
G36*
X681246Y1313146D02*
X686558Y1311722D01*
X685134Y1306410D01*
X679822Y1307834D01*
X681246Y1313146D01*
G37*
G36*
X683705Y1322322D02*
X689017Y1320898D01*
X687593Y1315586D01*
X682281Y1317010D01*
X683705Y1322322D01*
G37*
G36*
X636123Y1391481D02*
X641435Y1390057D01*
X640011Y1384745D01*
X634699Y1386169D01*
X636123Y1391481D01*
G37*
G36*
X633664Y1382304D02*
X638976Y1380880D01*
X637552Y1375568D01*
X632240Y1376992D01*
X633664Y1382304D01*
G37*
G36*
X642840Y1379846D02*
X648152Y1378422D01*
X646728Y1373110D01*
X641416Y1374534D01*
X642840Y1379846D01*
G37*
G36*
X645299Y1389022D02*
X650611Y1387598D01*
X649187Y1382286D01*
X643875Y1383710D01*
X645299Y1389022D01*
G37*
G36*
X597517Y1458081D02*
X602829Y1456657D01*
X601405Y1451345D01*
X596093Y1452769D01*
X597517Y1458081D01*
G37*
G36*
X595058Y1448904D02*
X600370Y1447480D01*
X598946Y1442168D01*
X593634Y1443592D01*
X595058Y1448904D01*
G37*
G36*
X604234Y1446446D02*
X609546Y1445022D01*
X608122Y1439710D01*
X602810Y1441134D01*
X604234Y1446446D01*
G37*
G36*
X606693Y1455622D02*
X612005Y1454198D01*
X610581Y1448886D01*
X605269Y1450310D01*
X606693Y1455622D01*
G37*
G36*
X559211Y1524681D02*
X564523Y1523257D01*
X563099Y1517945D01*
X557787Y1519369D01*
X559211Y1524681D01*
G37*
G36*
X556752Y1515504D02*
X562064Y1514080D01*
X560640Y1508768D01*
X555328Y1510192D01*
X556752Y1515504D01*
G37*
G36*
X565929Y1513046D02*
X571241Y1511622D01*
X569817Y1506310D01*
X564505Y1507734D01*
X565929Y1513046D01*
G37*
G36*
X568387Y1522222D02*
X573699Y1520798D01*
X572275Y1515486D01*
X566963Y1516910D01*
X568387Y1522222D01*
G37*
G36*
X612720Y1662121D02*
X615470Y1657359D01*
X610708Y1654609D01*
X607958Y1659371D01*
X612720Y1662121D01*
G37*
G36*
X604493Y1657371D02*
X607243Y1652609D01*
X602481Y1649859D01*
X599731Y1654621D01*
X604493Y1657371D01*
G37*
G36*
X609243Y1649143D02*
X611993Y1644381D01*
X607231Y1641631D01*
X604481Y1646393D01*
X609243Y1649143D01*
G37*
G36*
X617470Y1653893D02*
X620220Y1649131D01*
X615458Y1646381D01*
X612708Y1651143D01*
X617470Y1653893D01*
G37*
G36*
X412277Y1551379D02*
X417039Y1554129D01*
X419789Y1549367D01*
X415027Y1546617D01*
X412277Y1551379D01*
G37*
G36*
X417027Y1543152D02*
X421789Y1545902D01*
X424539Y1541140D01*
X419777Y1538390D01*
X417027Y1543152D01*
G37*
G36*
X425254Y1547902D02*
X430016Y1550652D01*
X432766Y1545890D01*
X428004Y1543140D01*
X425254Y1547902D01*
G37*
G36*
X420504Y1556129D02*
X425266Y1558879D01*
X428016Y1554117D01*
X423254Y1551367D01*
X420504Y1556129D01*
G37*
G36*
X520693Y1591181D02*
X526005Y1589757D01*
X524581Y1584445D01*
X519269Y1585869D01*
X520693Y1591181D01*
G37*
G36*
X518235Y1582004D02*
X523547Y1580580D01*
X522123Y1575268D01*
X516811Y1576692D01*
X518235Y1582004D01*
G37*
G36*
X527411Y1579546D02*
X532723Y1578122D01*
X531299Y1572810D01*
X525987Y1574234D01*
X527411Y1579546D01*
G37*
G36*
X529870Y1588722D02*
X535182Y1587298D01*
X533758Y1581986D01*
X528446Y1583410D01*
X529870Y1588722D01*
G37*
D11*
G36*
X527393Y1601518D02*
X521331Y1598018D01*
X516331Y1606678D01*
X522393Y1610178D01*
X527393Y1601518D01*
G37*
G36*
X515268Y1594518D02*
X509206Y1591018D01*
X504206Y1599678D01*
X510268Y1603178D01*
X515268Y1594518D01*
G37*
D10*
G36*
X482537Y1658737D02*
X487849Y1657313D01*
X486425Y1652001D01*
X481113Y1653425D01*
X482537Y1658737D01*
G37*
G36*
X480078Y1649561D02*
X485390Y1648137D01*
X483966Y1642825D01*
X478654Y1644249D01*
X480078Y1649561D01*
G37*
G36*
X489254Y1647102D02*
X494566Y1645678D01*
X493142Y1640366D01*
X487830Y1641790D01*
X489254Y1647102D01*
G37*
G36*
X491713Y1656278D02*
X497025Y1654854D01*
X495601Y1649542D01*
X490289Y1650966D01*
X491713Y1656278D01*
G37*
G36*
X923029Y1183482D02*
X919140Y1179593D01*
X915251Y1183482D01*
X919140Y1187371D01*
X923029Y1183482D01*
G37*
G36*
X916312Y1190199D02*
X912423Y1186310D01*
X908534Y1190199D01*
X912423Y1194088D01*
X916312Y1190199D01*
G37*
G36*
X909594Y1183482D02*
X905705Y1179593D01*
X901816Y1183482D01*
X905705Y1187371D01*
X909594Y1183482D01*
G37*
G36*
X916312Y1176764D02*
X912423Y1172875D01*
X908534Y1176764D01*
X912423Y1180653D01*
X916312Y1176764D01*
G37*
G36*
X1039776Y1118634D02*
X1037026Y1113872D01*
X1032264Y1116622D01*
X1035014Y1121384D01*
X1039776Y1118634D01*
G37*
G36*
X1031549Y1123384D02*
X1028799Y1118622D01*
X1024037Y1121372D01*
X1026787Y1126134D01*
X1031549Y1123384D01*
G37*
G36*
X1026799Y1115157D02*
X1024049Y1110395D01*
X1019287Y1113145D01*
X1022037Y1117907D01*
X1026799Y1115157D01*
G37*
G36*
X1035026Y1110407D02*
X1032276Y1105645D01*
X1027514Y1108395D01*
X1030264Y1113157D01*
X1035026Y1110407D01*
G37*
G36*
X1073309Y1191636D02*
X1074733Y1186324D01*
X1069421Y1184900D01*
X1067997Y1190212D01*
X1073309Y1191636D01*
G37*
G36*
X1064132Y1189177D02*
X1065556Y1183865D01*
X1060244Y1182441D01*
X1058820Y1187753D01*
X1064132Y1189177D01*
G37*
G36*
X1066591Y1180001D02*
X1068015Y1174689D01*
X1062703Y1173265D01*
X1061279Y1178577D01*
X1066591Y1180001D01*
G37*
G36*
X1075767Y1182459D02*
X1077191Y1177147D01*
X1071879Y1175723D01*
X1070455Y1181035D01*
X1075767Y1182459D01*
G37*
G36*
X1111733Y1258283D02*
X1113157Y1252971D01*
X1107845Y1251547D01*
X1106421Y1256859D01*
X1111733Y1258283D01*
G37*
G36*
X1102557Y1255824D02*
X1103981Y1250512D01*
X1098669Y1249088D01*
X1097245Y1254400D01*
X1102557Y1255824D01*
G37*
G36*
X1105015Y1246648D02*
X1106439Y1241336D01*
X1101127Y1239912D01*
X1099703Y1245224D01*
X1105015Y1246648D01*
G37*
G36*
X1114192Y1249106D02*
X1115616Y1243794D01*
X1110304Y1242370D01*
X1108880Y1247682D01*
X1114192Y1249106D01*
G37*
G36*
X1277666Y1300491D02*
X1274916Y1295729D01*
X1270154Y1298479D01*
X1272904Y1303241D01*
X1277666Y1300491D01*
G37*
G36*
X1269438Y1305241D02*
X1266688Y1300479D01*
X1261926Y1303229D01*
X1264676Y1307991D01*
X1269438Y1305241D01*
G37*
G36*
X1264688Y1297014D02*
X1261938Y1292252D01*
X1257176Y1295002D01*
X1259926Y1299764D01*
X1264688Y1297014D01*
G37*
G36*
X1272916Y1292264D02*
X1270166Y1287502D01*
X1265404Y1290252D01*
X1268154Y1295014D01*
X1272916Y1292264D01*
G37*
G36*
X1400124Y1334281D02*
X1397374Y1329519D01*
X1392612Y1332269D01*
X1395362Y1337031D01*
X1400124Y1334281D01*
G37*
G36*
X1391896Y1339031D02*
X1389146Y1334269D01*
X1384384Y1337019D01*
X1387134Y1341781D01*
X1391896Y1339031D01*
G37*
G36*
X1387146Y1330804D02*
X1384396Y1326042D01*
X1379634Y1328792D01*
X1382384Y1333554D01*
X1387146Y1330804D01*
G37*
G36*
X1395374Y1326054D02*
X1392624Y1321292D01*
X1387862Y1324042D01*
X1390612Y1328804D01*
X1395374Y1326054D01*
G37*
G36*
X1066522Y1423790D02*
X1071284Y1421040D01*
X1068534Y1416278D01*
X1063772Y1419028D01*
X1066522Y1423790D01*
G37*
G36*
X1061772Y1415563D02*
X1066534Y1412813D01*
X1063784Y1408051D01*
X1059022Y1410801D01*
X1061772Y1415563D01*
G37*
G36*
X1069999Y1410813D02*
X1074761Y1408063D01*
X1072011Y1403301D01*
X1067249Y1406051D01*
X1069999Y1410813D01*
G37*
G36*
X1074749Y1419040D02*
X1079511Y1416290D01*
X1076761Y1411528D01*
X1071999Y1414278D01*
X1074749Y1419040D01*
G37*
D11*
G36*
X1171644Y1341145D02*
X1165582Y1344645D01*
X1170582Y1353305D01*
X1176644Y1349805D01*
X1171644Y1341145D01*
G37*
G36*
X1159520Y1348145D02*
X1153458Y1351645D01*
X1158458Y1360305D01*
X1164520Y1356805D01*
X1159520Y1348145D01*
G37*
D10*
G36*
X1033299Y1545814D02*
X1038061Y1543064D01*
X1035311Y1538302D01*
X1030549Y1541052D01*
X1033299Y1545814D01*
G37*
G36*
X1028549Y1537587D02*
X1033311Y1534837D01*
X1030561Y1530075D01*
X1025799Y1532825D01*
X1028549Y1537587D01*
G37*
G36*
X1036776Y1532837D02*
X1041538Y1530087D01*
X1038788Y1525325D01*
X1034026Y1528075D01*
X1036776Y1532837D01*
G37*
G36*
X1041526Y1541064D02*
X1046288Y1538314D01*
X1043538Y1533552D01*
X1038776Y1536302D01*
X1041526Y1541064D01*
G37*
G36*
X1150196Y1324864D02*
X1151620Y1319552D01*
X1146308Y1318128D01*
X1144884Y1323440D01*
X1150196Y1324864D01*
G37*
G36*
X1141019Y1322405D02*
X1142443Y1317093D01*
X1137131Y1315669D01*
X1135707Y1320981D01*
X1141019Y1322405D01*
G37*
G36*
X1143478Y1313229D02*
X1144902Y1307917D01*
X1139590Y1306493D01*
X1138166Y1311805D01*
X1143478Y1313229D01*
G37*
G36*
X1152654Y1315687D02*
X1154078Y1310375D01*
X1148766Y1308951D01*
X1147342Y1314263D01*
X1152654Y1315687D01*
G37*
G36*
X1188756Y1391474D02*
X1190180Y1386162D01*
X1184868Y1384738D01*
X1183444Y1390050D01*
X1188756Y1391474D01*
G37*
G36*
X1179580Y1389015D02*
X1181004Y1383703D01*
X1175692Y1382279D01*
X1174268Y1387591D01*
X1179580Y1389015D01*
G37*
G36*
X1182039Y1379839D02*
X1183463Y1374527D01*
X1178151Y1373103D01*
X1176727Y1378415D01*
X1182039Y1379839D01*
G37*
G36*
X1191215Y1382298D02*
X1192639Y1376986D01*
X1187327Y1375562D01*
X1185903Y1380874D01*
X1191215Y1382298D01*
G37*
G36*
X1227131Y1458208D02*
X1228555Y1452896D01*
X1223243Y1451472D01*
X1221819Y1456784D01*
X1227131Y1458208D01*
G37*
G36*
X1217955Y1455749D02*
X1219379Y1450437D01*
X1214067Y1449013D01*
X1212643Y1454325D01*
X1217955Y1455749D01*
G37*
G36*
X1220413Y1446573D02*
X1221837Y1441261D01*
X1216525Y1439837D01*
X1215101Y1445149D01*
X1220413Y1446573D01*
G37*
G36*
X1229590Y1449032D02*
X1231014Y1443720D01*
X1225702Y1442296D01*
X1224278Y1447608D01*
X1229590Y1449032D01*
G37*
G36*
X1265655Y1524682D02*
X1267079Y1519370D01*
X1261767Y1517946D01*
X1260343Y1523258D01*
X1265655Y1524682D01*
G37*
G36*
X1256479Y1522223D02*
X1257903Y1516911D01*
X1252591Y1515487D01*
X1251167Y1520799D01*
X1256479Y1522223D01*
G37*
G36*
X1258938Y1513047D02*
X1260362Y1507735D01*
X1255050Y1506311D01*
X1253626Y1511623D01*
X1258938Y1513047D01*
G37*
G36*
X1268114Y1515505D02*
X1269538Y1510193D01*
X1264226Y1508769D01*
X1262802Y1514081D01*
X1268114Y1515505D01*
G37*
G36*
X1411437Y1547060D02*
X1408687Y1542298D01*
X1403925Y1545048D01*
X1406675Y1549810D01*
X1411437Y1547060D01*
G37*
G36*
X1403210Y1551810D02*
X1400460Y1547048D01*
X1395698Y1549798D01*
X1398448Y1554560D01*
X1403210Y1551810D01*
G37*
G36*
X1398460Y1543583D02*
X1395710Y1538821D01*
X1390948Y1541571D01*
X1393698Y1546333D01*
X1398460Y1543583D01*
G37*
G36*
X1406687Y1538833D02*
X1403937Y1534071D01*
X1399175Y1536821D01*
X1401925Y1541583D01*
X1406687Y1538833D01*
G37*
G36*
X1215311Y1665280D02*
X1220073Y1662530D01*
X1217323Y1657768D01*
X1212561Y1660518D01*
X1215311Y1665280D01*
G37*
G36*
X1210561Y1657053D02*
X1215323Y1654303D01*
X1212573Y1649541D01*
X1207811Y1652291D01*
X1210561Y1657053D01*
G37*
G36*
X1218789Y1652303D02*
X1223551Y1649553D01*
X1220801Y1644791D01*
X1216039Y1647541D01*
X1218789Y1652303D01*
G37*
G36*
X1223539Y1660530D02*
X1228301Y1657780D01*
X1225551Y1653018D01*
X1220789Y1655768D01*
X1223539Y1660530D01*
G37*
G36*
X1303987Y1591289D02*
X1305411Y1585977D01*
X1300099Y1584553D01*
X1298675Y1589865D01*
X1303987Y1591289D01*
G37*
G36*
X1294811Y1588830D02*
X1296235Y1583518D01*
X1290923Y1582094D01*
X1289499Y1587406D01*
X1294811Y1588830D01*
G37*
G36*
X1297269Y1579654D02*
X1298693Y1574342D01*
X1293381Y1572918D01*
X1291957Y1578230D01*
X1297269Y1579654D01*
G37*
G36*
X1306446Y1582113D02*
X1307870Y1576801D01*
X1302558Y1575377D01*
X1301134Y1580689D01*
X1306446Y1582113D01*
G37*
D11*
G36*
X1316289Y1590655D02*
X1310227Y1594155D01*
X1315227Y1602815D01*
X1321289Y1599315D01*
X1316289Y1590655D01*
G37*
G36*
X1304165Y1597655D02*
X1298103Y1601155D01*
X1303103Y1609815D01*
X1309165Y1606315D01*
X1304165Y1597655D01*
G37*
D10*
G36*
X1343414Y1658112D02*
X1344838Y1652800D01*
X1339526Y1651376D01*
X1338102Y1656688D01*
X1343414Y1658112D01*
G37*
G36*
X1334238Y1655653D02*
X1335662Y1650341D01*
X1330350Y1648917D01*
X1328926Y1654229D01*
X1334238Y1655653D01*
G37*
G36*
X1336697Y1646477D02*
X1338121Y1641165D01*
X1332809Y1639741D01*
X1331385Y1645053D01*
X1336697Y1646477D01*
G37*
G36*
X1345873Y1648936D02*
X1347297Y1643624D01*
X1341985Y1642200D01*
X1340561Y1647512D01*
X1345873Y1648936D01*
G37*
G36*
X1152078Y1039006D02*
X1146766Y1040430D01*
X1148190Y1045742D01*
X1153502Y1044318D01*
X1152078Y1039006D01*
G37*
G36*
X1154537Y1048182D02*
X1149225Y1049606D01*
X1150649Y1054918D01*
X1155961Y1053494D01*
X1154537Y1048182D01*
G37*
G36*
X1145360Y1050641D02*
X1140048Y1052065D01*
X1141472Y1057377D01*
X1146784Y1055953D01*
X1145360Y1050641D01*
G37*
G36*
X1142901Y1041465D02*
X1137589Y1042889D01*
X1139013Y1048201D01*
X1144325Y1046777D01*
X1142901Y1041465D01*
G37*
D12*
X1151543Y908226D03*
X1151543Y917726D03*
X1142043Y917726D03*
X1142043Y908226D03*
D10*
G36*
X1234279Y912937D02*
X1230390Y909048D01*
X1226501Y912937D01*
X1230390Y916826D01*
X1234279Y912937D01*
G37*
G36*
X1227562Y919654D02*
X1223673Y915765D01*
X1219784Y919654D01*
X1223673Y923543D01*
X1227562Y919654D01*
G37*
G36*
X1220844Y912937D02*
X1216955Y909048D01*
X1213066Y912937D01*
X1216955Y916826D01*
X1220844Y912937D01*
G37*
G36*
X1227562Y906219D02*
X1223673Y902330D01*
X1219784Y906219D01*
X1223673Y910108D01*
X1227562Y906219D01*
G37*
G36*
X1311210Y912984D02*
X1307321Y909095D01*
X1303432Y912984D01*
X1307321Y916873D01*
X1311210Y912984D01*
G37*
G36*
X1304492Y919701D02*
X1300603Y915812D01*
X1296714Y919701D01*
X1300603Y923590D01*
X1304492Y919701D01*
G37*
G36*
X1297775Y912984D02*
X1293886Y909095D01*
X1289997Y912984D01*
X1293886Y916873D01*
X1297775Y912984D01*
G37*
G36*
X1304492Y906266D02*
X1300603Y902377D01*
X1296714Y906266D01*
X1300603Y910155D01*
X1304492Y906266D01*
G37*
D12*
X1427980Y793136D03*
X1427980Y802636D03*
X1418480Y802636D03*
X1418480Y793136D03*
X1518472Y703980D03*
X1518472Y713480D03*
X1508972Y713480D03*
X1508972Y703980D03*
X1429188Y1032143D03*
X1419688Y1032143D03*
X1419688Y1022643D03*
X1429188Y1022643D03*
D13*
X1417925Y906031D03*
X1417925Y920031D03*
D12*
X1518252Y1121926D03*
X1508752Y1121926D03*
X1508752Y1112426D03*
X1518252Y1112426D03*
D10*
G36*
X1388102Y912965D02*
X1384213Y909076D01*
X1380324Y912965D01*
X1384213Y916854D01*
X1388102Y912965D01*
G37*
G36*
X1381384Y919682D02*
X1377495Y915793D01*
X1373606Y919682D01*
X1377495Y923571D01*
X1381384Y919682D01*
G37*
G36*
X1374667Y912965D02*
X1370778Y909076D01*
X1366889Y912965D01*
X1370778Y916854D01*
X1374667Y912965D01*
G37*
G36*
X1381384Y906247D02*
X1377495Y902358D01*
X1373606Y906247D01*
X1377495Y910136D01*
X1381384Y906247D01*
G37*
G36*
X1465069Y912875D02*
X1461180Y908986D01*
X1457291Y912875D01*
X1461180Y916764D01*
X1465069Y912875D01*
G37*
G36*
X1458351Y919593D02*
X1454462Y915704D01*
X1450573Y919593D01*
X1454462Y923482D01*
X1458351Y919593D01*
G37*
G36*
X1451634Y912875D02*
X1447745Y908986D01*
X1443856Y912875D01*
X1447745Y916764D01*
X1451634Y912875D01*
G37*
G36*
X1458351Y906158D02*
X1454462Y902269D01*
X1450573Y906158D01*
X1454462Y910047D01*
X1458351Y906158D01*
G37*
G36*
X1542049Y913009D02*
X1538160Y909120D01*
X1534271Y913009D01*
X1538160Y916898D01*
X1542049Y913009D01*
G37*
G36*
X1535331Y919727D02*
X1531442Y915838D01*
X1527553Y919727D01*
X1531442Y923616D01*
X1535331Y919727D01*
G37*
G36*
X1528614Y913009D02*
X1524725Y909120D01*
X1520836Y913009D01*
X1524725Y916898D01*
X1528614Y913009D01*
G37*
G36*
X1535331Y906292D02*
X1531442Y902403D01*
X1527553Y906292D01*
X1531442Y910181D01*
X1535331Y906292D01*
G37*
G36*
X1618879Y912883D02*
X1614990Y908994D01*
X1611101Y912883D01*
X1614990Y916772D01*
X1618879Y912883D01*
G37*
G36*
X1612162Y919600D02*
X1608273Y915711D01*
X1604384Y919600D01*
X1608273Y923489D01*
X1612162Y919600D01*
G37*
G36*
X1605444Y912883D02*
X1601555Y908994D01*
X1597666Y912883D01*
X1601555Y916772D01*
X1605444Y912883D01*
G37*
G36*
X1612162Y906165D02*
X1608273Y902276D01*
X1604384Y906165D01*
X1608273Y910054D01*
X1612162Y906165D01*
G37*
D12*
X1708401Y800571D03*
X1708401Y810071D03*
X1698901Y810071D03*
X1698901Y800571D03*
X1712719Y1024032D03*
X1703219Y1024032D03*
X1703219Y1014532D03*
X1712719Y1014532D03*
D10*
G36*
X1695729Y912990D02*
X1691840Y909101D01*
X1687951Y912990D01*
X1691840Y916879D01*
X1695729Y912990D01*
G37*
G36*
X1689011Y919708D02*
X1685122Y915819D01*
X1681233Y919708D01*
X1685122Y923597D01*
X1689011Y919708D01*
G37*
G36*
X1682294Y912990D02*
X1678405Y909101D01*
X1674516Y912990D01*
X1678405Y916879D01*
X1682294Y912990D01*
G37*
G36*
X1689011Y906273D02*
X1685122Y902384D01*
X1681233Y906273D01*
X1685122Y910162D01*
X1689011Y906273D01*
G37*
D13*
X1706331Y905520D03*
X1706331Y919520D03*
D10*
G36*
X1773313Y912257D02*
X1769424Y908368D01*
X1765535Y912257D01*
X1769424Y916146D01*
X1773313Y912257D01*
G37*
G36*
X1766595Y918974D02*
X1762706Y915085D01*
X1758817Y918974D01*
X1762706Y922863D01*
X1766595Y918974D01*
G37*
G36*
X1759877Y912257D02*
X1755988Y908368D01*
X1752099Y912257D01*
X1755988Y916146D01*
X1759877Y912257D01*
G37*
G36*
X1766595Y905539D02*
X1762706Y901650D01*
X1758817Y905539D01*
X1762706Y909428D01*
X1766595Y905539D01*
G37*
G36*
X1141483Y768406D02*
X1140059Y773718D01*
X1145371Y775142D01*
X1146795Y769830D01*
X1141483Y768406D01*
G37*
G36*
X1150660Y770865D02*
X1149236Y776177D01*
X1154548Y777601D01*
X1155972Y772289D01*
X1150660Y770865D01*
G37*
G36*
X1148201Y780041D02*
X1146777Y785353D01*
X1152089Y786777D01*
X1153513Y781465D01*
X1148201Y780041D01*
G37*
G36*
X1139025Y777582D02*
X1137601Y782894D01*
X1142913Y784318D01*
X1144337Y779006D01*
X1139025Y777582D01*
G37*
G36*
X1358319Y139796D02*
X1353007Y141220D01*
X1354431Y146532D01*
X1359743Y145108D01*
X1358319Y139796D01*
G37*
G36*
X1360778Y148972D02*
X1355466Y150396D01*
X1356890Y155708D01*
X1362202Y154284D01*
X1360778Y148972D01*
G37*
G36*
X1351602Y151431D02*
X1346290Y152855D01*
X1347714Y158167D01*
X1353026Y156743D01*
X1351602Y151431D01*
G37*
G36*
X1349143Y142255D02*
X1343831Y143679D01*
X1345255Y148991D01*
X1350567Y147567D01*
X1349143Y142255D01*
G37*
M02*
