G04 EAGLE Gerber RS-274X export*
G75*
%MOMM*%
%FSLAX34Y34*%
%LPD*%
%INSolderpaste Top*%
%IPPOS*%
%AMOC8*
5,1,8,0,0,1.08239X$1,22.5*%
G01*
%ADD10R,0.550000X0.550000*%
%ADD11R,0.700000X1.000000*%
%ADD12R,0.550000X0.550000*%
%ADD13R,1.000000X0.700000*%
%ADD14R,1.100000X0.250000*%
%ADD15R,0.700000X0.250000*%

G36*
X1351126Y179754D02*
X1351126Y179754D01*
X1351127Y179754D01*
X1368014Y189504D01*
X1368016Y189511D01*
X1362516Y199037D01*
X1362510Y199039D01*
X1362509Y199039D01*
X1360344Y197789D01*
X1360343Y197787D01*
X1360342Y197786D01*
X1360343Y197785D01*
X1360342Y197783D01*
X1360343Y197783D01*
X1360342Y197782D01*
X1362840Y193457D01*
X1357652Y190462D01*
X1355155Y194787D01*
X1355152Y194789D01*
X1355151Y194789D01*
X1355150Y194789D01*
X1355149Y194789D01*
X1355148Y194789D01*
X1352983Y193539D01*
X1352981Y193533D01*
X1352981Y193532D01*
X1355479Y189207D01*
X1350291Y186212D01*
X1347794Y190537D01*
X1347787Y190539D01*
X1345622Y189289D01*
X1345620Y189284D01*
X1345620Y189283D01*
X1345620Y189282D01*
X1351120Y179756D01*
X1351126Y179754D01*
X1351126Y179754D01*
G37*
G36*
X1363626Y158104D02*
X1363626Y158104D01*
X1363627Y158104D01*
X1365792Y159354D01*
X1365794Y159360D01*
X1363296Y163686D01*
X1368484Y166681D01*
X1370981Y162355D01*
X1370988Y162353D01*
X1370988Y162354D01*
X1373153Y163604D01*
X1373154Y163607D01*
X1373155Y163608D01*
X1373155Y163610D01*
X1370657Y167936D01*
X1375845Y170931D01*
X1378342Y166605D01*
X1378349Y166603D01*
X1378349Y166604D01*
X1380514Y167854D01*
X1380516Y167860D01*
X1375016Y177387D01*
X1375010Y177389D01*
X1375010Y177388D01*
X1375009Y177389D01*
X1358122Y167639D01*
X1358120Y167634D01*
X1358120Y167632D01*
X1363620Y158105D01*
X1363626Y158103D01*
X1363626Y158104D01*
G37*
G36*
X2354899Y156659D02*
X2354899Y156659D01*
X2354900Y156659D01*
X2360400Y166186D01*
X2360400Y166187D01*
X2360398Y166192D01*
X2360398Y166193D01*
X2358233Y167443D01*
X2358226Y167441D01*
X2355728Y163115D01*
X2350541Y166110D01*
X2353038Y170436D01*
X2353037Y170442D01*
X2353037Y170443D01*
X2350872Y171693D01*
X2350871Y171692D01*
X2350870Y171692D01*
X2350869Y171692D01*
X2350868Y171692D01*
X2350865Y171691D01*
X2348367Y167365D01*
X2343180Y170360D01*
X2345677Y174686D01*
X2345677Y174688D01*
X2345677Y174689D01*
X2345676Y174692D01*
X2345675Y174693D01*
X2343510Y175943D01*
X2343504Y175941D01*
X2338004Y166414D01*
X2338005Y166408D01*
X2354893Y156658D01*
X2354899Y156659D01*
G37*
G36*
X2342399Y135008D02*
X2342399Y135008D01*
X2342399Y135009D01*
X2342400Y135009D01*
X2347900Y144535D01*
X2347900Y144536D01*
X2347898Y144542D01*
X2331010Y154292D01*
X2331004Y154291D01*
X2331004Y154290D01*
X2325504Y144764D01*
X2325505Y144757D01*
X2327670Y143507D01*
X2327677Y143508D01*
X2327677Y143509D01*
X2330175Y147835D01*
X2335362Y144840D01*
X2332865Y140514D01*
X2332865Y140513D01*
X2332864Y140512D01*
X2332865Y140511D01*
X2332866Y140507D01*
X2332867Y140507D01*
X2335032Y139257D01*
X2335038Y139258D01*
X2335038Y139259D01*
X2337536Y143585D01*
X2342723Y140590D01*
X2340226Y136264D01*
X2340227Y136257D01*
X2340228Y136257D01*
X2342393Y135007D01*
X2342399Y135008D01*
G37*
G36*
X2310789Y153258D02*
X2310789Y153258D01*
X2310789Y153259D01*
X2310790Y153259D01*
X2314290Y159321D01*
X2314290Y159322D01*
X2314290Y159323D01*
X2314289Y159324D01*
X2314288Y159328D01*
X2314288Y159327D01*
X2314288Y159328D01*
X2313205Y159953D01*
X2313203Y159952D01*
X2313202Y159953D01*
X2311494Y159496D01*
X2311493Y159494D01*
X2311491Y159494D01*
X2308616Y154514D01*
X2308617Y154507D01*
X2308618Y154507D01*
X2310783Y153257D01*
X2310789Y153258D01*
G37*
G36*
X1346739Y148354D02*
X1346739Y148354D01*
X1348904Y149604D01*
X1348907Y149610D01*
X1348906Y149610D01*
X1345406Y155673D01*
X1345400Y155675D01*
X1345400Y155674D01*
X1345399Y155674D01*
X1344317Y155049D01*
X1344316Y155047D01*
X1344315Y155046D01*
X1343857Y153339D01*
X1343858Y153338D01*
X1343857Y153337D01*
X1343858Y153337D01*
X1343858Y153335D01*
X1346733Y148355D01*
X1346739Y148353D01*
X1346739Y148354D01*
G37*
D10*
G36*
X2527824Y513931D02*
X2522512Y512507D01*
X2521088Y517819D01*
X2526400Y519243D01*
X2527824Y513931D01*
G37*
G36*
X2530283Y504755D02*
X2524971Y503331D01*
X2523547Y508643D01*
X2528859Y510067D01*
X2530283Y504755D01*
G37*
G36*
X2521106Y502296D02*
X2515794Y500872D01*
X2514370Y506184D01*
X2519682Y507608D01*
X2521106Y502296D01*
G37*
G36*
X2518648Y511472D02*
X2513336Y510048D01*
X2511912Y515360D01*
X2517224Y516784D01*
X2518648Y511472D01*
G37*
G36*
X2489350Y447371D02*
X2484038Y445947D01*
X2482614Y451259D01*
X2487926Y452683D01*
X2489350Y447371D01*
G37*
G36*
X2491808Y438194D02*
X2486496Y436770D01*
X2485072Y442082D01*
X2490384Y443506D01*
X2491808Y438194D01*
G37*
G36*
X2482632Y435736D02*
X2477320Y434312D01*
X2475896Y439624D01*
X2481208Y441048D01*
X2482632Y435736D01*
G37*
G36*
X2480173Y444912D02*
X2474861Y443488D01*
X2473437Y448800D01*
X2478749Y450224D01*
X2480173Y444912D01*
G37*
G36*
X2450839Y380674D02*
X2445527Y379250D01*
X2444103Y384562D01*
X2449415Y385986D01*
X2450839Y380674D01*
G37*
G36*
X2453297Y371497D02*
X2447985Y370073D01*
X2446561Y375385D01*
X2451873Y376809D01*
X2453297Y371497D01*
G37*
G36*
X2444121Y369038D02*
X2438809Y367614D01*
X2437385Y372926D01*
X2442697Y374350D01*
X2444121Y369038D01*
G37*
G36*
X2441662Y378215D02*
X2436350Y376791D01*
X2434926Y382103D01*
X2440238Y383527D01*
X2441662Y378215D01*
G37*
G36*
X2412364Y314113D02*
X2407052Y312689D01*
X2405628Y318001D01*
X2410940Y319425D01*
X2412364Y314113D01*
G37*
G36*
X2414823Y304937D02*
X2409511Y303513D01*
X2408087Y308825D01*
X2413399Y310249D01*
X2414823Y304937D01*
G37*
G36*
X2405647Y302478D02*
X2400335Y301054D01*
X2398911Y306366D01*
X2404223Y307790D01*
X2405647Y302478D01*
G37*
G36*
X2403188Y311654D02*
X2397876Y310230D01*
X2396452Y315542D01*
X2401764Y316966D01*
X2403188Y311654D01*
G37*
G36*
X2272292Y279403D02*
X2267530Y282153D01*
X2270280Y286915D01*
X2275042Y284165D01*
X2272292Y279403D01*
G37*
G36*
X2267542Y271176D02*
X2262780Y273926D01*
X2265530Y278688D01*
X2270292Y275938D01*
X2267542Y271176D01*
G37*
G36*
X2259315Y275926D02*
X2254553Y278676D01*
X2257303Y283438D01*
X2262065Y280688D01*
X2259315Y275926D01*
G37*
G36*
X2264065Y284153D02*
X2259303Y286903D01*
X2262053Y291665D01*
X2266815Y288915D01*
X2264065Y284153D01*
G37*
G36*
X2449951Y178195D02*
X2447201Y173433D01*
X2442439Y176183D01*
X2445189Y180945D01*
X2449951Y178195D01*
G37*
G36*
X2458179Y173445D02*
X2455429Y168683D01*
X2450667Y171433D01*
X2453417Y176195D01*
X2458179Y173445D01*
G37*
G36*
X2453429Y165218D02*
X2450679Y160456D01*
X2445917Y163206D01*
X2448667Y167968D01*
X2453429Y165218D01*
G37*
G36*
X2445201Y169968D02*
X2442451Y165206D01*
X2437689Y167956D01*
X2440439Y172718D01*
X2445201Y169968D01*
G37*
G36*
X2374032Y247506D02*
X2368720Y246082D01*
X2367296Y251394D01*
X2372608Y252818D01*
X2374032Y247506D01*
G37*
G36*
X2376491Y238329D02*
X2371179Y236905D01*
X2369755Y242217D01*
X2375067Y243641D01*
X2376491Y238329D01*
G37*
G36*
X2367315Y235871D02*
X2362003Y234447D01*
X2360579Y239759D01*
X2365891Y241183D01*
X2367315Y235871D01*
G37*
G36*
X2364856Y245047D02*
X2359544Y243623D01*
X2358120Y248935D01*
X2363432Y250359D01*
X2364856Y245047D01*
G37*
D11*
G36*
X2418695Y354101D02*
X2424757Y350601D01*
X2419757Y341941D01*
X2413695Y345441D01*
X2418695Y354101D01*
G37*
G36*
X2430819Y347101D02*
X2436881Y343601D01*
X2431881Y334941D01*
X2425819Y338441D01*
X2430819Y347101D01*
G37*
D10*
G36*
X2519164Y769829D02*
X2520588Y775141D01*
X2525900Y773717D01*
X2524476Y768405D01*
X2519164Y769829D01*
G37*
G36*
X2509987Y772288D02*
X2511411Y777600D01*
X2516723Y776176D01*
X2515299Y770864D01*
X2509987Y772288D01*
G37*
G36*
X2512446Y781464D02*
X2513870Y786776D01*
X2519182Y785352D01*
X2517758Y780040D01*
X2512446Y781464D01*
G37*
G36*
X2521622Y779006D02*
X2523046Y784318D01*
X2528358Y782894D01*
X2526934Y777582D01*
X2521622Y779006D01*
G37*
G36*
X2643928Y707872D02*
X2639166Y710622D01*
X2641916Y715384D01*
X2646678Y712634D01*
X2643928Y707872D01*
G37*
G36*
X2639178Y699645D02*
X2634416Y702395D01*
X2637166Y707157D01*
X2641928Y704407D01*
X2639178Y699645D01*
G37*
G36*
X2630951Y704395D02*
X2626189Y707145D01*
X2628939Y711907D01*
X2633701Y709157D01*
X2630951Y704395D01*
G37*
G36*
X2635701Y712622D02*
X2630939Y715372D01*
X2633689Y720134D01*
X2638451Y717384D01*
X2635701Y712622D01*
G37*
G36*
X2604711Y647159D02*
X2599399Y645735D01*
X2597975Y651047D01*
X2603287Y652471D01*
X2604711Y647159D01*
G37*
G36*
X2607170Y637983D02*
X2601858Y636559D01*
X2600434Y641871D01*
X2605746Y643295D01*
X2607170Y637983D01*
G37*
G36*
X2597993Y635524D02*
X2592681Y634100D01*
X2591257Y639412D01*
X2596569Y640836D01*
X2597993Y635524D01*
G37*
G36*
X2595535Y644701D02*
X2590223Y643277D01*
X2588799Y648589D01*
X2594111Y650013D01*
X2595535Y644701D01*
G37*
G36*
X2566286Y580512D02*
X2560974Y579088D01*
X2559550Y584400D01*
X2564862Y585824D01*
X2566286Y580512D01*
G37*
G36*
X2568745Y571336D02*
X2563433Y569912D01*
X2562009Y575224D01*
X2567321Y576648D01*
X2568745Y571336D01*
G37*
G36*
X2559569Y568877D02*
X2554257Y567453D01*
X2552833Y572765D01*
X2558145Y574189D01*
X2559569Y568877D01*
G37*
G36*
X2557110Y578053D02*
X2551798Y576629D01*
X2550374Y581941D01*
X2555686Y583365D01*
X2557110Y578053D01*
G37*
G36*
X2406063Y525972D02*
X2401301Y528722D01*
X2404051Y533484D01*
X2408813Y530734D01*
X2406063Y525972D01*
G37*
G36*
X2401313Y517745D02*
X2396551Y520495D01*
X2399301Y525257D01*
X2404063Y522507D01*
X2401313Y517745D01*
G37*
G36*
X2393086Y522495D02*
X2388324Y525245D01*
X2391074Y530007D01*
X2395836Y527257D01*
X2393086Y522495D01*
G37*
G36*
X2397836Y530722D02*
X2393074Y533472D01*
X2395824Y538234D01*
X2400586Y535484D01*
X2397836Y530722D01*
G37*
G36*
X2283605Y492182D02*
X2278843Y494932D01*
X2281593Y499694D01*
X2286355Y496944D01*
X2283605Y492182D01*
G37*
G36*
X2278855Y483955D02*
X2274093Y486705D01*
X2276843Y491467D01*
X2281605Y488717D01*
X2278855Y483955D01*
G37*
G36*
X2270628Y488705D02*
X2265866Y491455D01*
X2268616Y496217D01*
X2273378Y493467D01*
X2270628Y488705D01*
G37*
G36*
X2275378Y496932D02*
X2270616Y499682D01*
X2273366Y504444D01*
X2278128Y501694D01*
X2275378Y496932D01*
G37*
G36*
X2598741Y419685D02*
X2595991Y414923D01*
X2591229Y417673D01*
X2593979Y422435D01*
X2598741Y419685D01*
G37*
G36*
X2606968Y414935D02*
X2604218Y410173D01*
X2599456Y412923D01*
X2602206Y417685D01*
X2606968Y414935D01*
G37*
G36*
X2602218Y406707D02*
X2599468Y401945D01*
X2594706Y404695D01*
X2597456Y409457D01*
X2602218Y406707D01*
G37*
G36*
X2593991Y411457D02*
X2591241Y406695D01*
X2586479Y409445D01*
X2589229Y414207D01*
X2593991Y411457D01*
G37*
D11*
G36*
X2575340Y623611D02*
X2581402Y620111D01*
X2576402Y611451D01*
X2570340Y614951D01*
X2575340Y623611D01*
G37*
G36*
X2587464Y616611D02*
X2593526Y613111D01*
X2588526Y604451D01*
X2582464Y607951D01*
X2587464Y616611D01*
G37*
D10*
G36*
X2632050Y297711D02*
X2629300Y292949D01*
X2624538Y295699D01*
X2627288Y300461D01*
X2632050Y297711D01*
G37*
G36*
X2640277Y292961D02*
X2637527Y288199D01*
X2632765Y290949D01*
X2635515Y295711D01*
X2640277Y292961D01*
G37*
G36*
X2635527Y284734D02*
X2632777Y279972D01*
X2628015Y282722D01*
X2630765Y287484D01*
X2635527Y284734D01*
G37*
G36*
X2627300Y289484D02*
X2624550Y284722D01*
X2619788Y287472D01*
X2622538Y292234D01*
X2627300Y289484D01*
G37*
G36*
X2295186Y908909D02*
X2291297Y912798D01*
X2295186Y916687D01*
X2299075Y912798D01*
X2295186Y908909D01*
G37*
G36*
X2288468Y902191D02*
X2284579Y906080D01*
X2288468Y909969D01*
X2292357Y906080D01*
X2288468Y902191D01*
G37*
G36*
X2281751Y908909D02*
X2277862Y912798D01*
X2281751Y916687D01*
X2285640Y912798D01*
X2281751Y908909D01*
G37*
G36*
X2288468Y915627D02*
X2284579Y919516D01*
X2288468Y923405D01*
X2292357Y919516D01*
X2288468Y915627D01*
G37*
G36*
X2218305Y908949D02*
X2214416Y912838D01*
X2218305Y916727D01*
X2222194Y912838D01*
X2218305Y908949D01*
G37*
G36*
X2211588Y902231D02*
X2207699Y906120D01*
X2211588Y910009D01*
X2215477Y906120D01*
X2211588Y902231D01*
G37*
G36*
X2204870Y908949D02*
X2200981Y912838D01*
X2204870Y916727D01*
X2208759Y912838D01*
X2204870Y908949D01*
G37*
G36*
X2211588Y915666D02*
X2207699Y919555D01*
X2211588Y923444D01*
X2215477Y919555D01*
X2211588Y915666D01*
G37*
G36*
X2141288Y908951D02*
X2137399Y912840D01*
X2141288Y916729D01*
X2145177Y912840D01*
X2141288Y908951D01*
G37*
G36*
X2134571Y902234D02*
X2130682Y906123D01*
X2134571Y910012D01*
X2138460Y906123D01*
X2134571Y902234D01*
G37*
G36*
X2127853Y908951D02*
X2123964Y912840D01*
X2127853Y916729D01*
X2131742Y912840D01*
X2127853Y908951D01*
G37*
G36*
X2134571Y915669D02*
X2130682Y919558D01*
X2134571Y923447D01*
X2138460Y919558D01*
X2134571Y915669D01*
G37*
G36*
X2064408Y908991D02*
X2060519Y912880D01*
X2064408Y916769D01*
X2068297Y912880D01*
X2064408Y908991D01*
G37*
G36*
X2057691Y902273D02*
X2053802Y906162D01*
X2057691Y910051D01*
X2061580Y906162D01*
X2057691Y902273D01*
G37*
G36*
X2050973Y908991D02*
X2047084Y912880D01*
X2050973Y916769D01*
X2054862Y912880D01*
X2050973Y908991D01*
G37*
G36*
X2057691Y915708D02*
X2053802Y919597D01*
X2057691Y923486D01*
X2061580Y919597D01*
X2057691Y915708D01*
G37*
D12*
X1967063Y1015692D03*
X1957563Y1015692D03*
X1957563Y1025192D03*
X1967063Y1025192D03*
X1962745Y811231D03*
X1962745Y801731D03*
X1953245Y801731D03*
X1953245Y811231D03*
D10*
G36*
X1987559Y908884D02*
X1983670Y912773D01*
X1987559Y916662D01*
X1991448Y912773D01*
X1987559Y908884D01*
G37*
G36*
X1980841Y902166D02*
X1976952Y906055D01*
X1980841Y909944D01*
X1984730Y906055D01*
X1980841Y902166D01*
G37*
G36*
X1974124Y908884D02*
X1970235Y912773D01*
X1974124Y916662D01*
X1978013Y912773D01*
X1974124Y908884D01*
G37*
G36*
X1980841Y915601D02*
X1976952Y919490D01*
X1980841Y923379D01*
X1984730Y919490D01*
X1980841Y915601D01*
G37*
D13*
X2097204Y920003D03*
X2097204Y906003D03*
D10*
G36*
X1909975Y909617D02*
X1906086Y913506D01*
X1909975Y917395D01*
X1913864Y913506D01*
X1909975Y909617D01*
G37*
G36*
X1903257Y902900D02*
X1899368Y906789D01*
X1903257Y910678D01*
X1907146Y906789D01*
X1903257Y902900D01*
G37*
G36*
X1896540Y909617D02*
X1892651Y913506D01*
X1896540Y917395D01*
X1900429Y913506D01*
X1896540Y909617D01*
G37*
G36*
X1903257Y916335D02*
X1899368Y920224D01*
X1903257Y924113D01*
X1907146Y920224D01*
X1903257Y916335D01*
G37*
G36*
X2512470Y1044358D02*
X2517782Y1045782D01*
X2519206Y1040470D01*
X2513894Y1039046D01*
X2512470Y1044358D01*
G37*
G36*
X2510011Y1053534D02*
X2515323Y1054958D01*
X2516747Y1049646D01*
X2511435Y1048222D01*
X2510011Y1053534D01*
G37*
G36*
X2519187Y1055993D02*
X2524499Y1057417D01*
X2525923Y1052105D01*
X2520611Y1050681D01*
X2519187Y1055993D01*
G37*
G36*
X2521646Y1046816D02*
X2526958Y1048240D01*
X2528382Y1042928D01*
X2523070Y1041504D01*
X2521646Y1046816D01*
G37*
D12*
X2523946Y908080D03*
X2514446Y908080D03*
X2514446Y917580D03*
X2523946Y917580D03*
D10*
G36*
X2449008Y908937D02*
X2445119Y912826D01*
X2449008Y916715D01*
X2452897Y912826D01*
X2449008Y908937D01*
G37*
G36*
X2442290Y902220D02*
X2438401Y906109D01*
X2442290Y909998D01*
X2446179Y906109D01*
X2442290Y902220D01*
G37*
G36*
X2435573Y908937D02*
X2431684Y912826D01*
X2435573Y916715D01*
X2439462Y912826D01*
X2435573Y908937D01*
G37*
G36*
X2442290Y915655D02*
X2438401Y919544D01*
X2442290Y923433D01*
X2446179Y919544D01*
X2442290Y915655D01*
G37*
G36*
X2372078Y908890D02*
X2368189Y912779D01*
X2372078Y916668D01*
X2375967Y912779D01*
X2372078Y908890D01*
G37*
G36*
X2365360Y902172D02*
X2361471Y906061D01*
X2365360Y909950D01*
X2369249Y906061D01*
X2365360Y902172D01*
G37*
G36*
X2358643Y908890D02*
X2354754Y912779D01*
X2358643Y916668D01*
X2362532Y912779D01*
X2358643Y908890D01*
G37*
G36*
X2365360Y915608D02*
X2361471Y919497D01*
X2365360Y923386D01*
X2369249Y919497D01*
X2365360Y915608D01*
G37*
D12*
X2247483Y1023127D03*
X2237983Y1023127D03*
X2237983Y1032627D03*
X2247483Y1032627D03*
X2156991Y1112283D03*
X2147491Y1112283D03*
X2147491Y1121783D03*
X2156991Y1121783D03*
X2246275Y803120D03*
X2246275Y793620D03*
X2236775Y793620D03*
X2236775Y803120D03*
D13*
X2408930Y919099D03*
X2408930Y905099D03*
D12*
X2157298Y713287D03*
X2157298Y703787D03*
X2147798Y703787D03*
X2147798Y713287D03*
D10*
G36*
X2520928Y1307869D02*
X2522352Y1313181D01*
X2527664Y1311757D01*
X2526240Y1306445D01*
X2520928Y1307869D01*
G37*
G36*
X2511751Y1310328D02*
X2513175Y1315640D01*
X2518487Y1314216D01*
X2517063Y1308904D01*
X2511751Y1310328D01*
G37*
G36*
X2514210Y1319504D02*
X2515634Y1324816D01*
X2520946Y1323392D01*
X2519522Y1318080D01*
X2514210Y1319504D01*
G37*
G36*
X2523386Y1317046D02*
X2524810Y1322358D01*
X2530122Y1320934D01*
X2528698Y1315622D01*
X2523386Y1317046D01*
G37*
G36*
X2482522Y1374469D02*
X2483946Y1379781D01*
X2489258Y1378357D01*
X2487834Y1373045D01*
X2482522Y1374469D01*
G37*
G36*
X2473345Y1376928D02*
X2474769Y1382240D01*
X2480081Y1380816D01*
X2478657Y1375504D01*
X2473345Y1376928D01*
G37*
G36*
X2475804Y1386104D02*
X2477228Y1391416D01*
X2482540Y1389992D01*
X2481116Y1384680D01*
X2475804Y1386104D01*
G37*
G36*
X2484980Y1383646D02*
X2486404Y1388958D01*
X2491716Y1387534D01*
X2490292Y1382222D01*
X2484980Y1383646D01*
G37*
G36*
X2444016Y1441169D02*
X2445440Y1446481D01*
X2450752Y1445057D01*
X2449328Y1439745D01*
X2444016Y1441169D01*
G37*
G36*
X2434839Y1443628D02*
X2436263Y1448940D01*
X2441575Y1447516D01*
X2440151Y1442204D01*
X2434839Y1443628D01*
G37*
G36*
X2437298Y1452804D02*
X2438722Y1458116D01*
X2444034Y1456692D01*
X2442610Y1451380D01*
X2437298Y1452804D01*
G37*
G36*
X2446475Y1450346D02*
X2447899Y1455658D01*
X2453211Y1454234D01*
X2451787Y1448922D01*
X2446475Y1450346D01*
G37*
G36*
X2405610Y1507769D02*
X2407034Y1513081D01*
X2412346Y1511657D01*
X2410922Y1506345D01*
X2405610Y1507769D01*
G37*
G36*
X2396434Y1510228D02*
X2397858Y1515540D01*
X2403170Y1514116D01*
X2401746Y1508804D01*
X2396434Y1510228D01*
G37*
G36*
X2398892Y1519404D02*
X2400316Y1524716D01*
X2405628Y1523292D01*
X2404204Y1517980D01*
X2398892Y1519404D01*
G37*
G36*
X2408069Y1516946D02*
X2409493Y1522258D01*
X2414805Y1520834D01*
X2413381Y1515522D01*
X2408069Y1516946D01*
G37*
G36*
X2445587Y1646429D02*
X2450349Y1649179D01*
X2453099Y1644417D01*
X2448337Y1641667D01*
X2445587Y1646429D01*
G37*
G36*
X2440837Y1654656D02*
X2445599Y1657406D01*
X2448349Y1652644D01*
X2443587Y1649894D01*
X2440837Y1654656D01*
G37*
G36*
X2449064Y1659406D02*
X2453826Y1662156D01*
X2456576Y1657394D01*
X2451814Y1654644D01*
X2449064Y1659406D01*
G37*
G36*
X2453814Y1651179D02*
X2458576Y1653929D01*
X2461326Y1649167D01*
X2456564Y1646417D01*
X2453814Y1651179D01*
G37*
G36*
X2269109Y1543176D02*
X2266359Y1547938D01*
X2271121Y1550688D01*
X2273871Y1545926D01*
X2269109Y1543176D01*
G37*
G36*
X2260882Y1538426D02*
X2258132Y1543188D01*
X2262894Y1545938D01*
X2265644Y1541176D01*
X2260882Y1538426D01*
G37*
G36*
X2256132Y1546653D02*
X2253382Y1551415D01*
X2258144Y1554165D01*
X2260894Y1549403D01*
X2256132Y1546653D01*
G37*
G36*
X2264359Y1551403D02*
X2261609Y1556165D01*
X2266371Y1558915D01*
X2269121Y1554153D01*
X2264359Y1551403D01*
G37*
G36*
X2367092Y1574269D02*
X2368516Y1579581D01*
X2373828Y1578157D01*
X2372404Y1572845D01*
X2367092Y1574269D01*
G37*
G36*
X2357916Y1576728D02*
X2359340Y1582040D01*
X2364652Y1580616D01*
X2363228Y1575304D01*
X2357916Y1576728D01*
G37*
G36*
X2360375Y1585904D02*
X2361799Y1591216D01*
X2367111Y1589792D01*
X2365687Y1584480D01*
X2360375Y1585904D01*
G37*
G36*
X2369551Y1583446D02*
X2370975Y1588758D01*
X2376287Y1587334D01*
X2374863Y1582022D01*
X2369551Y1583446D01*
G37*
D11*
G36*
X2437076Y1482293D02*
X2431014Y1478793D01*
X2426014Y1487453D01*
X2432076Y1490953D01*
X2437076Y1482293D01*
G37*
G36*
X2424951Y1475293D02*
X2418889Y1471793D01*
X2413889Y1480453D01*
X2419951Y1483953D01*
X2424951Y1475293D01*
G37*
D10*
G36*
X2328936Y1641826D02*
X2330360Y1647138D01*
X2335672Y1645714D01*
X2334248Y1640402D01*
X2328936Y1641826D01*
G37*
G36*
X2319759Y1644285D02*
X2321183Y1649597D01*
X2326495Y1648173D01*
X2325071Y1642861D01*
X2319759Y1644285D01*
G37*
G36*
X2322218Y1653461D02*
X2323642Y1658773D01*
X2328954Y1657349D01*
X2327530Y1652037D01*
X2322218Y1653461D01*
G37*
G36*
X2331394Y1651002D02*
X2332818Y1656314D01*
X2338130Y1654890D01*
X2336706Y1649578D01*
X2331394Y1651002D01*
G37*
G36*
X2746872Y1187420D02*
X2750761Y1183531D01*
X2746872Y1179642D01*
X2742983Y1183531D01*
X2746872Y1187420D01*
G37*
G36*
X2753590Y1194137D02*
X2757479Y1190248D01*
X2753590Y1186359D01*
X2749701Y1190248D01*
X2753590Y1194137D01*
G37*
G36*
X2760307Y1187420D02*
X2764196Y1183531D01*
X2760307Y1179642D01*
X2756418Y1183531D01*
X2760307Y1187420D01*
G37*
G36*
X2753590Y1180702D02*
X2757479Y1176813D01*
X2753590Y1172924D01*
X2749701Y1176813D01*
X2753590Y1180702D01*
G37*
G36*
X2630834Y1110348D02*
X2635596Y1113098D01*
X2638346Y1108336D01*
X2633584Y1105586D01*
X2630834Y1110348D01*
G37*
G36*
X2626084Y1118576D02*
X2630846Y1121326D01*
X2633596Y1116564D01*
X2628834Y1113814D01*
X2626084Y1118576D01*
G37*
G36*
X2634311Y1123326D02*
X2639073Y1126076D01*
X2641823Y1121314D01*
X2637061Y1118564D01*
X2634311Y1123326D01*
G37*
G36*
X2639061Y1115098D02*
X2643823Y1117848D01*
X2646573Y1113086D01*
X2641811Y1110336D01*
X2639061Y1115098D01*
G37*
G36*
X2597863Y1174669D02*
X2599287Y1179981D01*
X2604599Y1178557D01*
X2603175Y1173245D01*
X2597863Y1174669D01*
G37*
G36*
X2588687Y1177128D02*
X2590111Y1182440D01*
X2595423Y1181016D01*
X2593999Y1175704D01*
X2588687Y1177128D01*
G37*
G36*
X2591146Y1186304D02*
X2592570Y1191616D01*
X2597882Y1190192D01*
X2596458Y1184880D01*
X2591146Y1186304D01*
G37*
G36*
X2600322Y1183846D02*
X2601746Y1189158D01*
X2607058Y1187734D01*
X2605634Y1182422D01*
X2600322Y1183846D01*
G37*
G36*
X2559357Y1241269D02*
X2560781Y1246581D01*
X2566093Y1245157D01*
X2564669Y1239845D01*
X2559357Y1241269D01*
G37*
G36*
X2550181Y1243728D02*
X2551605Y1249040D01*
X2556917Y1247616D01*
X2555493Y1242304D01*
X2550181Y1243728D01*
G37*
G36*
X2552640Y1252905D02*
X2554064Y1258217D01*
X2559376Y1256793D01*
X2557952Y1251481D01*
X2552640Y1252905D01*
G37*
G36*
X2561816Y1250446D02*
X2563240Y1255758D01*
X2568552Y1254334D01*
X2567128Y1249022D01*
X2561816Y1250446D01*
G37*
G36*
X2592236Y1407295D02*
X2596998Y1410045D01*
X2599748Y1405283D01*
X2594986Y1402533D01*
X2592236Y1407295D01*
G37*
G36*
X2587486Y1415522D02*
X2592248Y1418272D01*
X2594998Y1413510D01*
X2590236Y1410760D01*
X2587486Y1415522D01*
G37*
G36*
X2595713Y1420272D02*
X2600475Y1423022D01*
X2603225Y1418260D01*
X2598463Y1415510D01*
X2595713Y1420272D01*
G37*
G36*
X2600463Y1412045D02*
X2605225Y1414795D01*
X2607975Y1410033D01*
X2603213Y1407283D01*
X2600463Y1412045D01*
G37*
G36*
X2624202Y1530242D02*
X2628964Y1532992D01*
X2631714Y1528230D01*
X2626952Y1525480D01*
X2624202Y1530242D01*
G37*
G36*
X2619452Y1538469D02*
X2624214Y1541219D01*
X2626964Y1536457D01*
X2622202Y1533707D01*
X2619452Y1538469D01*
G37*
G36*
X2627679Y1543219D02*
X2632441Y1545969D01*
X2635191Y1541207D01*
X2630429Y1538457D01*
X2627679Y1543219D01*
G37*
G36*
X2632429Y1534992D02*
X2637191Y1537742D01*
X2639941Y1532980D01*
X2635179Y1530230D01*
X2632429Y1534992D01*
G37*
G36*
X2403851Y1293576D02*
X2401101Y1298338D01*
X2405863Y1301088D01*
X2408613Y1296326D01*
X2403851Y1293576D01*
G37*
G36*
X2395623Y1288826D02*
X2392873Y1293588D01*
X2397635Y1296338D01*
X2400385Y1291576D01*
X2395623Y1288826D01*
G37*
G36*
X2390873Y1297053D02*
X2388123Y1301815D01*
X2392885Y1304565D01*
X2395635Y1299803D01*
X2390873Y1297053D01*
G37*
G36*
X2399101Y1301803D02*
X2396351Y1306565D01*
X2401113Y1309315D01*
X2403863Y1304553D01*
X2399101Y1301803D01*
G37*
D11*
G36*
X2592156Y1211879D02*
X2586094Y1208379D01*
X2581094Y1217039D01*
X2587156Y1220539D01*
X2592156Y1211879D01*
G37*
G36*
X2580032Y1204879D02*
X2573970Y1201379D01*
X2568970Y1210039D01*
X2575032Y1213539D01*
X2580032Y1204879D01*
G37*
D10*
G36*
X2281564Y1325716D02*
X2278814Y1330478D01*
X2283576Y1333228D01*
X2286326Y1328466D01*
X2281564Y1325716D01*
G37*
G36*
X2273337Y1320966D02*
X2270587Y1325728D01*
X2275349Y1328478D01*
X2278099Y1323716D01*
X2273337Y1320966D01*
G37*
G36*
X2268587Y1329193D02*
X2265837Y1333955D01*
X2270599Y1336705D01*
X2273349Y1331943D01*
X2268587Y1329193D01*
G37*
G36*
X2276814Y1333943D02*
X2274064Y1338705D01*
X2278826Y1341455D01*
X2281576Y1336693D01*
X2276814Y1333943D01*
G37*
G36*
X2979308Y1311850D02*
X2984620Y1313274D01*
X2986044Y1307962D01*
X2980732Y1306538D01*
X2979308Y1311850D01*
G37*
G36*
X2976849Y1321026D02*
X2982161Y1322450D01*
X2983585Y1317138D01*
X2978273Y1315714D01*
X2976849Y1321026D01*
G37*
G36*
X2986026Y1323485D02*
X2991338Y1324909D01*
X2992762Y1319597D01*
X2987450Y1318173D01*
X2986026Y1323485D01*
G37*
G36*
X2988484Y1314309D02*
X2993796Y1315733D01*
X2995220Y1310421D01*
X2989908Y1308997D01*
X2988484Y1314309D01*
G37*
G36*
X3017782Y1378410D02*
X3023094Y1379834D01*
X3024518Y1374522D01*
X3019206Y1373098D01*
X3017782Y1378410D01*
G37*
G36*
X3015324Y1387587D02*
X3020636Y1389011D01*
X3022060Y1383699D01*
X3016748Y1382275D01*
X3015324Y1387587D01*
G37*
G36*
X3024500Y1390046D02*
X3029812Y1391470D01*
X3031236Y1386158D01*
X3025924Y1384734D01*
X3024500Y1390046D01*
G37*
G36*
X3026959Y1380869D02*
X3032271Y1382293D01*
X3033695Y1376981D01*
X3028383Y1375557D01*
X3026959Y1380869D01*
G37*
G36*
X3056293Y1445108D02*
X3061605Y1446532D01*
X3063029Y1441220D01*
X3057717Y1439796D01*
X3056293Y1445108D01*
G37*
G36*
X3053835Y1454284D02*
X3059147Y1455708D01*
X3060571Y1450396D01*
X3055259Y1448972D01*
X3053835Y1454284D01*
G37*
G36*
X3063011Y1456743D02*
X3068323Y1458167D01*
X3069747Y1452855D01*
X3064435Y1451431D01*
X3063011Y1456743D01*
G37*
G36*
X3065470Y1447566D02*
X3070782Y1448990D01*
X3072206Y1443678D01*
X3066894Y1442254D01*
X3065470Y1447566D01*
G37*
G36*
X3094768Y1511668D02*
X3100080Y1513092D01*
X3101504Y1507780D01*
X3096192Y1506356D01*
X3094768Y1511668D01*
G37*
G36*
X3092309Y1520844D02*
X3097621Y1522268D01*
X3099045Y1516956D01*
X3093733Y1515532D01*
X3092309Y1520844D01*
G37*
G36*
X3101485Y1523303D02*
X3106797Y1524727D01*
X3108221Y1519415D01*
X3102909Y1517991D01*
X3101485Y1523303D01*
G37*
G36*
X3103944Y1514127D02*
X3109256Y1515551D01*
X3110680Y1510239D01*
X3105368Y1508815D01*
X3103944Y1514127D01*
G37*
G36*
X3234840Y1546378D02*
X3239602Y1543628D01*
X3236852Y1538866D01*
X3232090Y1541616D01*
X3234840Y1546378D01*
G37*
G36*
X3239590Y1554605D02*
X3244352Y1551855D01*
X3241602Y1547093D01*
X3236840Y1549843D01*
X3239590Y1554605D01*
G37*
G36*
X3247817Y1549855D02*
X3252579Y1547105D01*
X3249829Y1542343D01*
X3245067Y1545093D01*
X3247817Y1549855D01*
G37*
G36*
X3243067Y1541628D02*
X3247829Y1538878D01*
X3245079Y1534116D01*
X3240317Y1536866D01*
X3243067Y1541628D01*
G37*
G36*
X3057181Y1647586D02*
X3059931Y1652348D01*
X3064693Y1649598D01*
X3061943Y1644836D01*
X3057181Y1647586D01*
G37*
G36*
X3048953Y1652336D02*
X3051703Y1657098D01*
X3056465Y1654348D01*
X3053715Y1649586D01*
X3048953Y1652336D01*
G37*
G36*
X3053703Y1660563D02*
X3056453Y1665325D01*
X3061215Y1662575D01*
X3058465Y1657813D01*
X3053703Y1660563D01*
G37*
G36*
X3061931Y1655813D02*
X3064681Y1660575D01*
X3069443Y1657825D01*
X3066693Y1653063D01*
X3061931Y1655813D01*
G37*
G36*
X3133100Y1578275D02*
X3138412Y1579699D01*
X3139836Y1574387D01*
X3134524Y1572963D01*
X3133100Y1578275D01*
G37*
G36*
X3130641Y1587452D02*
X3135953Y1588876D01*
X3137377Y1583564D01*
X3132065Y1582140D01*
X3130641Y1587452D01*
G37*
G36*
X3139817Y1589910D02*
X3145129Y1591334D01*
X3146553Y1586022D01*
X3141241Y1584598D01*
X3139817Y1589910D01*
G37*
G36*
X3142276Y1580734D02*
X3147588Y1582158D01*
X3149012Y1576846D01*
X3143700Y1575422D01*
X3142276Y1580734D01*
G37*
D11*
G36*
X3088437Y1471680D02*
X3082375Y1475180D01*
X3087375Y1483840D01*
X3093437Y1480340D01*
X3088437Y1471680D01*
G37*
G36*
X3076313Y1478680D02*
X3070251Y1482180D01*
X3075251Y1490840D01*
X3081313Y1487340D01*
X3076313Y1478680D01*
G37*
D10*
G36*
X3172527Y1645098D02*
X3177839Y1646522D01*
X3179263Y1641210D01*
X3173951Y1639786D01*
X3172527Y1645098D01*
G37*
G36*
X3170068Y1654274D02*
X3175380Y1655698D01*
X3176804Y1650386D01*
X3171492Y1648962D01*
X3170068Y1654274D01*
G37*
G36*
X3179244Y1656733D02*
X3184556Y1658157D01*
X3185980Y1652845D01*
X3180668Y1651421D01*
X3179244Y1656733D01*
G37*
G36*
X3181703Y1647557D02*
X3187015Y1648981D01*
X3188439Y1643669D01*
X3183127Y1642245D01*
X3181703Y1647557D01*
G37*
G36*
X2987968Y1055952D02*
X2986544Y1050640D01*
X2981232Y1052064D01*
X2982656Y1057376D01*
X2987968Y1055952D01*
G37*
G36*
X2997145Y1053493D02*
X2995721Y1048181D01*
X2990409Y1049605D01*
X2991833Y1054917D01*
X2997145Y1053493D01*
G37*
G36*
X2994686Y1044317D02*
X2993262Y1039005D01*
X2987950Y1040429D01*
X2989374Y1045741D01*
X2994686Y1044317D01*
G37*
G36*
X2985510Y1046776D02*
X2984086Y1041464D01*
X2978774Y1042888D01*
X2980198Y1048200D01*
X2985510Y1046776D01*
G37*
G36*
X2863204Y1117909D02*
X2867966Y1115159D01*
X2865216Y1110397D01*
X2860454Y1113147D01*
X2863204Y1117909D01*
G37*
G36*
X2867954Y1126136D02*
X2872716Y1123386D01*
X2869966Y1118624D01*
X2865204Y1121374D01*
X2867954Y1126136D01*
G37*
G36*
X2876181Y1121386D02*
X2880943Y1118636D01*
X2878193Y1113874D01*
X2873431Y1116624D01*
X2876181Y1121386D01*
G37*
G36*
X2871431Y1113159D02*
X2876193Y1110409D01*
X2873443Y1105647D01*
X2868681Y1108397D01*
X2871431Y1113159D01*
G37*
G36*
X2902421Y1178622D02*
X2907733Y1180046D01*
X2909157Y1174734D01*
X2903845Y1173310D01*
X2902421Y1178622D01*
G37*
G36*
X2899962Y1187798D02*
X2905274Y1189222D01*
X2906698Y1183910D01*
X2901386Y1182486D01*
X2899962Y1187798D01*
G37*
G36*
X2909139Y1190257D02*
X2914451Y1191681D01*
X2915875Y1186369D01*
X2910563Y1184945D01*
X2909139Y1190257D01*
G37*
G36*
X2911598Y1181081D02*
X2916910Y1182505D01*
X2918334Y1177193D01*
X2913022Y1175769D01*
X2911598Y1181081D01*
G37*
G36*
X2940846Y1245269D02*
X2946158Y1246693D01*
X2947582Y1241381D01*
X2942270Y1239957D01*
X2940846Y1245269D01*
G37*
G36*
X2938387Y1254445D02*
X2943699Y1255869D01*
X2945123Y1250557D01*
X2939811Y1249133D01*
X2938387Y1254445D01*
G37*
G36*
X2947563Y1256904D02*
X2952875Y1258328D01*
X2954299Y1253016D01*
X2948987Y1251592D01*
X2947563Y1256904D01*
G37*
G36*
X2950022Y1247728D02*
X2955334Y1249152D01*
X2956758Y1243840D01*
X2951446Y1242416D01*
X2950022Y1247728D01*
G37*
G36*
X3101069Y1299809D02*
X3105831Y1297059D01*
X3103081Y1292297D01*
X3098319Y1295047D01*
X3101069Y1299809D01*
G37*
G36*
X3105819Y1308036D02*
X3110581Y1305286D01*
X3107831Y1300524D01*
X3103069Y1303274D01*
X3105819Y1308036D01*
G37*
G36*
X3114046Y1303286D02*
X3118808Y1300536D01*
X3116058Y1295774D01*
X3111296Y1298524D01*
X3114046Y1303286D01*
G37*
G36*
X3109296Y1295059D02*
X3114058Y1292309D01*
X3111308Y1287547D01*
X3106546Y1290297D01*
X3109296Y1295059D01*
G37*
G36*
X3223527Y1333599D02*
X3228289Y1330849D01*
X3225539Y1326087D01*
X3220777Y1328837D01*
X3223527Y1333599D01*
G37*
G36*
X3228277Y1341827D02*
X3233039Y1339077D01*
X3230289Y1334315D01*
X3225527Y1337065D01*
X3228277Y1341827D01*
G37*
G36*
X3236504Y1337077D02*
X3241266Y1334327D01*
X3238516Y1329565D01*
X3233754Y1332315D01*
X3236504Y1337077D01*
G37*
G36*
X3231754Y1328849D02*
X3236516Y1326099D01*
X3233766Y1321337D01*
X3229004Y1324087D01*
X3231754Y1328849D01*
G37*
G36*
X2908391Y1406097D02*
X2911141Y1410859D01*
X2915903Y1408109D01*
X2913153Y1403347D01*
X2908391Y1406097D01*
G37*
G36*
X2900164Y1410847D02*
X2902914Y1415609D01*
X2907676Y1412859D01*
X2904926Y1408097D01*
X2900164Y1410847D01*
G37*
G36*
X2904914Y1419074D02*
X2907664Y1423836D01*
X2912426Y1421086D01*
X2909676Y1416324D01*
X2904914Y1419074D01*
G37*
G36*
X2913141Y1414324D02*
X2915891Y1419086D01*
X2920653Y1416336D01*
X2917903Y1411574D01*
X2913141Y1414324D01*
G37*
D11*
G36*
X2931792Y1202170D02*
X2925730Y1205670D01*
X2930730Y1214330D01*
X2936792Y1210830D01*
X2931792Y1202170D01*
G37*
G36*
X2919668Y1209170D02*
X2913606Y1212670D01*
X2918606Y1221330D01*
X2924668Y1217830D01*
X2919668Y1209170D01*
G37*
D10*
G36*
X2875082Y1528070D02*
X2877832Y1532832D01*
X2882594Y1530082D01*
X2879844Y1525320D01*
X2875082Y1528070D01*
G37*
G36*
X2866855Y1532820D02*
X2869605Y1537582D01*
X2874367Y1534832D01*
X2871617Y1530070D01*
X2866855Y1532820D01*
G37*
G36*
X2871605Y1541047D02*
X2874355Y1545809D01*
X2879117Y1543059D01*
X2876367Y1538297D01*
X2871605Y1541047D01*
G37*
G36*
X2879832Y1536297D02*
X2882582Y1541059D01*
X2887344Y1538309D01*
X2884594Y1533547D01*
X2879832Y1536297D01*
G37*
G36*
X3211946Y916872D02*
X3215835Y912983D01*
X3211946Y909094D01*
X3208057Y912983D01*
X3211946Y916872D01*
G37*
G36*
X3218664Y923590D02*
X3222553Y919701D01*
X3218664Y915812D01*
X3214775Y919701D01*
X3218664Y923590D01*
G37*
G36*
X3225381Y916872D02*
X3229270Y912983D01*
X3225381Y909094D01*
X3221492Y912983D01*
X3225381Y916872D01*
G37*
G36*
X3218664Y910155D02*
X3222553Y906266D01*
X3218664Y902377D01*
X3214775Y906266D01*
X3218664Y910155D01*
G37*
G36*
X3288827Y916833D02*
X3292716Y912944D01*
X3288827Y909055D01*
X3284938Y912944D01*
X3288827Y916833D01*
G37*
G36*
X3295544Y923550D02*
X3299433Y919661D01*
X3295544Y915772D01*
X3291655Y919661D01*
X3295544Y923550D01*
G37*
G36*
X3302262Y916833D02*
X3306151Y912944D01*
X3302262Y909055D01*
X3298373Y912944D01*
X3302262Y916833D01*
G37*
G36*
X3295544Y910115D02*
X3299433Y906226D01*
X3295544Y902337D01*
X3291655Y906226D01*
X3295544Y910115D01*
G37*
G36*
X3365844Y916830D02*
X3369733Y912941D01*
X3365844Y909052D01*
X3361955Y912941D01*
X3365844Y916830D01*
G37*
G36*
X3372561Y923547D02*
X3376450Y919658D01*
X3372561Y915769D01*
X3368672Y919658D01*
X3372561Y923547D01*
G37*
G36*
X3379279Y916830D02*
X3383168Y912941D01*
X3379279Y909052D01*
X3375390Y912941D01*
X3379279Y916830D01*
G37*
G36*
X3372561Y910112D02*
X3376450Y906223D01*
X3372561Y902334D01*
X3368672Y906223D01*
X3372561Y910112D01*
G37*
G36*
X3442724Y916790D02*
X3446613Y912901D01*
X3442724Y909012D01*
X3438835Y912901D01*
X3442724Y916790D01*
G37*
G36*
X3449441Y923508D02*
X3453330Y919619D01*
X3449441Y915730D01*
X3445552Y919619D01*
X3449441Y923508D01*
G37*
G36*
X3456159Y916790D02*
X3460048Y912901D01*
X3456159Y909012D01*
X3452270Y912901D01*
X3456159Y916790D01*
G37*
G36*
X3449441Y910073D02*
X3453330Y906184D01*
X3449441Y902295D01*
X3445552Y906184D01*
X3449441Y910073D01*
G37*
D12*
X3540069Y810090D03*
X3549569Y810090D03*
X3549569Y800590D03*
X3540069Y800590D03*
X3544387Y1014551D03*
X3544387Y1024051D03*
X3553887Y1024051D03*
X3553887Y1014551D03*
D10*
G36*
X3519573Y916898D02*
X3523462Y913009D01*
X3519573Y909120D01*
X3515684Y913009D01*
X3519573Y916898D01*
G37*
G36*
X3526291Y923615D02*
X3530180Y919726D01*
X3526291Y915837D01*
X3522402Y919726D01*
X3526291Y923615D01*
G37*
G36*
X3533008Y916898D02*
X3536897Y913009D01*
X3533008Y909120D01*
X3529119Y913009D01*
X3533008Y916898D01*
G37*
G36*
X3526291Y910180D02*
X3530180Y906291D01*
X3526291Y902402D01*
X3522402Y906291D01*
X3526291Y910180D01*
G37*
D13*
X3409928Y905778D03*
X3409928Y919778D03*
D10*
G36*
X3597157Y916164D02*
X3601046Y912275D01*
X3597157Y908386D01*
X3593268Y912275D01*
X3597157Y916164D01*
G37*
G36*
X3603875Y922881D02*
X3607764Y918992D01*
X3603875Y915103D01*
X3599986Y918992D01*
X3603875Y922881D01*
G37*
G36*
X3610592Y916164D02*
X3614481Y912275D01*
X3610592Y908386D01*
X3606703Y912275D01*
X3610592Y916164D01*
G37*
G36*
X3603875Y909446D02*
X3607764Y905557D01*
X3603875Y901668D01*
X3599986Y905557D01*
X3603875Y909446D01*
G37*
G36*
X2994662Y781424D02*
X2989350Y780000D01*
X2987926Y785312D01*
X2993238Y786736D01*
X2994662Y781424D01*
G37*
G36*
X2997121Y772247D02*
X2991809Y770823D01*
X2990385Y776135D01*
X2995697Y777559D01*
X2997121Y772247D01*
G37*
G36*
X2987945Y769788D02*
X2982633Y768364D01*
X2981209Y773676D01*
X2986521Y775100D01*
X2987945Y769788D01*
G37*
G36*
X2985486Y778965D02*
X2980174Y777541D01*
X2978750Y782853D01*
X2984062Y784277D01*
X2985486Y778965D01*
G37*
D12*
X2983186Y917701D03*
X2992686Y917701D03*
X2992686Y908201D03*
X2983186Y908201D03*
D10*
G36*
X3058124Y916844D02*
X3062013Y912955D01*
X3058124Y909066D01*
X3054235Y912955D01*
X3058124Y916844D01*
G37*
G36*
X3064842Y923562D02*
X3068731Y919673D01*
X3064842Y915784D01*
X3060953Y919673D01*
X3064842Y923562D01*
G37*
G36*
X3071559Y916844D02*
X3075448Y912955D01*
X3071559Y909066D01*
X3067670Y912955D01*
X3071559Y916844D01*
G37*
G36*
X3064842Y910127D02*
X3068731Y906238D01*
X3064842Y902349D01*
X3060953Y906238D01*
X3064842Y910127D01*
G37*
G36*
X3135054Y916891D02*
X3138943Y913002D01*
X3135054Y909113D01*
X3131165Y913002D01*
X3135054Y916891D01*
G37*
G36*
X3141772Y923609D02*
X3145661Y919720D01*
X3141772Y915831D01*
X3137883Y919720D01*
X3141772Y923609D01*
G37*
G36*
X3148489Y916891D02*
X3152378Y913002D01*
X3148489Y909113D01*
X3144600Y913002D01*
X3148489Y916891D01*
G37*
G36*
X3141772Y910174D02*
X3145661Y906285D01*
X3141772Y902396D01*
X3137883Y906285D01*
X3141772Y910174D01*
G37*
D12*
X3259649Y802655D03*
X3269149Y802655D03*
X3269149Y793155D03*
X3259649Y793155D03*
X3350141Y713498D03*
X3359641Y713498D03*
X3359641Y703998D03*
X3350141Y703998D03*
X3260857Y1022661D03*
X3260857Y1032161D03*
X3270357Y1032161D03*
X3270357Y1022661D03*
D13*
X3098202Y906682D03*
X3098202Y920682D03*
D12*
X3349834Y1112495D03*
X3349834Y1121995D03*
X3359334Y1121995D03*
X3359334Y1112495D03*
D10*
G36*
X2986204Y517912D02*
X2984780Y512600D01*
X2979468Y514024D01*
X2980892Y519336D01*
X2986204Y517912D01*
G37*
G36*
X2995381Y515453D02*
X2993957Y510141D01*
X2988645Y511565D01*
X2990069Y516877D01*
X2995381Y515453D01*
G37*
G36*
X2992922Y506277D02*
X2991498Y500965D01*
X2986186Y502389D01*
X2987610Y507701D01*
X2992922Y506277D01*
G37*
G36*
X2983746Y508735D02*
X2982322Y503423D01*
X2977010Y504847D01*
X2978434Y510159D01*
X2983746Y508735D01*
G37*
G36*
X3024610Y451312D02*
X3023186Y446000D01*
X3017874Y447424D01*
X3019298Y452736D01*
X3024610Y451312D01*
G37*
G36*
X3033787Y448853D02*
X3032363Y443541D01*
X3027051Y444965D01*
X3028475Y450277D01*
X3033787Y448853D01*
G37*
G36*
X3031328Y439677D02*
X3029904Y434365D01*
X3024592Y435789D01*
X3026016Y441101D01*
X3031328Y439677D01*
G37*
G36*
X3022152Y442135D02*
X3020728Y436823D01*
X3015416Y438247D01*
X3016840Y443559D01*
X3022152Y442135D01*
G37*
G36*
X3063116Y384612D02*
X3061692Y379300D01*
X3056380Y380724D01*
X3057804Y386036D01*
X3063116Y384612D01*
G37*
G36*
X3072293Y382153D02*
X3070869Y376841D01*
X3065557Y378265D01*
X3066981Y383577D01*
X3072293Y382153D01*
G37*
G36*
X3069834Y372977D02*
X3068410Y367665D01*
X3063098Y369089D01*
X3064522Y374401D01*
X3069834Y372977D01*
G37*
G36*
X3060657Y375435D02*
X3059233Y370123D01*
X3053921Y371547D01*
X3055345Y376859D01*
X3060657Y375435D01*
G37*
G36*
X3101522Y318012D02*
X3100098Y312700D01*
X3094786Y314124D01*
X3096210Y319436D01*
X3101522Y318012D01*
G37*
G36*
X3110698Y315553D02*
X3109274Y310241D01*
X3103962Y311665D01*
X3105386Y316977D01*
X3110698Y315553D01*
G37*
G36*
X3108240Y306377D02*
X3106816Y301065D01*
X3101504Y302489D01*
X3102928Y307801D01*
X3108240Y306377D01*
G37*
G36*
X3099063Y308835D02*
X3097639Y303523D01*
X3092327Y304947D01*
X3093751Y310259D01*
X3099063Y308835D01*
G37*
G36*
X3061545Y179352D02*
X3056783Y176602D01*
X3054033Y181364D01*
X3058795Y184114D01*
X3061545Y179352D01*
G37*
G36*
X3066295Y171125D02*
X3061533Y168375D01*
X3058783Y173137D01*
X3063545Y175887D01*
X3066295Y171125D01*
G37*
G36*
X3058068Y166375D02*
X3053306Y163625D01*
X3050556Y168387D01*
X3055318Y171137D01*
X3058068Y166375D01*
G37*
G36*
X3053318Y174602D02*
X3048556Y171852D01*
X3045806Y176614D01*
X3050568Y179364D01*
X3053318Y174602D01*
G37*
G36*
X3238023Y282605D02*
X3240773Y277843D01*
X3236011Y275093D01*
X3233261Y279855D01*
X3238023Y282605D01*
G37*
G36*
X3246250Y287355D02*
X3249000Y282593D01*
X3244238Y279843D01*
X3241488Y284605D01*
X3246250Y287355D01*
G37*
G36*
X3251000Y279128D02*
X3253750Y274366D01*
X3248988Y271616D01*
X3246238Y276378D01*
X3251000Y279128D01*
G37*
G36*
X3242773Y274378D02*
X3245523Y269616D01*
X3240761Y266866D01*
X3238011Y271628D01*
X3242773Y274378D01*
G37*
G36*
X3140040Y251512D02*
X3138616Y246200D01*
X3133304Y247624D01*
X3134728Y252936D01*
X3140040Y251512D01*
G37*
G36*
X3149216Y249053D02*
X3147792Y243741D01*
X3142480Y245165D01*
X3143904Y250477D01*
X3149216Y249053D01*
G37*
G36*
X3146757Y239877D02*
X3145333Y234565D01*
X3140021Y235989D01*
X3141445Y241301D01*
X3146757Y239877D01*
G37*
G36*
X3137581Y242335D02*
X3136157Y237023D01*
X3130845Y238447D01*
X3132269Y243759D01*
X3137581Y242335D01*
G37*
D11*
G36*
X3070056Y343488D02*
X3076118Y346988D01*
X3081118Y338328D01*
X3075056Y334828D01*
X3070056Y343488D01*
G37*
G36*
X3082181Y350488D02*
X3088243Y353988D01*
X3093243Y345328D01*
X3087181Y341828D01*
X3082181Y350488D01*
G37*
D10*
G36*
X3178196Y183955D02*
X3176772Y178643D01*
X3171460Y180067D01*
X3172884Y185379D01*
X3178196Y183955D01*
G37*
G36*
X3187373Y181497D02*
X3185949Y176185D01*
X3180637Y177609D01*
X3182061Y182921D01*
X3187373Y181497D01*
G37*
G36*
X3184914Y172320D02*
X3183490Y167008D01*
X3178178Y168432D01*
X3179602Y173744D01*
X3184914Y172320D01*
G37*
G36*
X3175738Y174779D02*
X3174314Y169467D01*
X3169002Y170891D01*
X3170426Y176203D01*
X3175738Y174779D01*
G37*
G36*
X2760260Y638361D02*
X2756371Y642250D01*
X2760260Y646139D01*
X2764149Y642250D01*
X2760260Y638361D01*
G37*
G36*
X2753542Y631644D02*
X2749653Y635533D01*
X2753542Y639422D01*
X2757431Y635533D01*
X2753542Y631644D01*
G37*
G36*
X2746825Y638361D02*
X2742936Y642250D01*
X2746825Y646139D01*
X2750714Y642250D01*
X2746825Y638361D01*
G37*
G36*
X2753542Y645079D02*
X2749653Y648968D01*
X2753542Y652857D01*
X2757431Y648968D01*
X2753542Y645079D01*
G37*
G36*
X2876298Y715433D02*
X2871536Y712683D01*
X2868786Y717445D01*
X2873548Y720195D01*
X2876298Y715433D01*
G37*
G36*
X2881048Y707206D02*
X2876286Y704456D01*
X2873536Y709218D01*
X2878298Y711968D01*
X2881048Y707206D01*
G37*
G36*
X2872821Y702456D02*
X2868059Y699706D01*
X2865309Y704468D01*
X2870071Y707218D01*
X2872821Y702456D01*
G37*
G36*
X2868071Y710683D02*
X2863309Y707933D01*
X2860559Y712695D01*
X2865321Y715445D01*
X2868071Y710683D01*
G37*
G36*
X2909269Y651112D02*
X2907845Y645800D01*
X2902533Y647224D01*
X2903957Y652536D01*
X2909269Y651112D01*
G37*
G36*
X2918445Y648653D02*
X2917021Y643341D01*
X2911709Y644765D01*
X2913133Y650077D01*
X2918445Y648653D01*
G37*
G36*
X2915986Y639477D02*
X2914562Y634165D01*
X2909250Y635589D01*
X2910674Y640901D01*
X2915986Y639477D01*
G37*
G36*
X2906810Y641935D02*
X2905386Y636623D01*
X2900074Y638047D01*
X2901498Y643359D01*
X2906810Y641935D01*
G37*
G36*
X2947775Y584512D02*
X2946351Y579200D01*
X2941039Y580624D01*
X2942463Y585936D01*
X2947775Y584512D01*
G37*
G36*
X2956951Y582053D02*
X2955527Y576741D01*
X2950215Y578165D01*
X2951639Y583477D01*
X2956951Y582053D01*
G37*
G36*
X2954492Y572877D02*
X2953068Y567565D01*
X2947756Y568989D01*
X2949180Y574301D01*
X2954492Y572877D01*
G37*
G36*
X2945316Y575335D02*
X2943892Y570023D01*
X2938580Y571447D01*
X2940004Y576759D01*
X2945316Y575335D01*
G37*
G36*
X2914896Y418486D02*
X2910134Y415736D01*
X2907384Y420498D01*
X2912146Y423248D01*
X2914896Y418486D01*
G37*
G36*
X2919646Y410259D02*
X2914884Y407509D01*
X2912134Y412271D01*
X2916896Y415021D01*
X2919646Y410259D01*
G37*
G36*
X2911419Y405509D02*
X2906657Y402759D01*
X2903907Y407521D01*
X2908669Y410271D01*
X2911419Y405509D01*
G37*
G36*
X2906669Y413736D02*
X2901907Y410986D01*
X2899157Y415748D01*
X2903919Y418498D01*
X2906669Y413736D01*
G37*
G36*
X2882930Y295539D02*
X2878168Y292789D01*
X2875418Y297551D01*
X2880180Y300301D01*
X2882930Y295539D01*
G37*
G36*
X2887680Y287312D02*
X2882918Y284562D01*
X2880168Y289324D01*
X2884930Y292074D01*
X2887680Y287312D01*
G37*
G36*
X2879453Y282562D02*
X2874691Y279812D01*
X2871941Y284574D01*
X2876703Y287324D01*
X2879453Y282562D01*
G37*
G36*
X2874703Y290789D02*
X2869941Y288039D01*
X2867191Y292801D01*
X2871953Y295551D01*
X2874703Y290789D01*
G37*
G36*
X3103281Y532205D02*
X3106031Y527443D01*
X3101269Y524693D01*
X3098519Y529455D01*
X3103281Y532205D01*
G37*
G36*
X3111509Y536955D02*
X3114259Y532193D01*
X3109497Y529443D01*
X3106747Y534205D01*
X3111509Y536955D01*
G37*
G36*
X3116259Y528728D02*
X3119009Y523966D01*
X3114247Y521216D01*
X3111497Y525978D01*
X3116259Y528728D01*
G37*
G36*
X3108031Y523978D02*
X3110781Y519216D01*
X3106019Y516466D01*
X3103269Y521228D01*
X3108031Y523978D01*
G37*
D11*
G36*
X2914976Y613903D02*
X2921038Y617403D01*
X2926038Y608743D01*
X2919976Y605243D01*
X2914976Y613903D01*
G37*
G36*
X2927100Y620903D02*
X2933162Y624403D01*
X2938162Y615743D01*
X2932100Y612243D01*
X2927100Y620903D01*
G37*
D10*
G36*
X3225568Y500065D02*
X3228318Y495303D01*
X3223556Y492553D01*
X3220806Y497315D01*
X3225568Y500065D01*
G37*
G36*
X3233795Y504815D02*
X3236545Y500053D01*
X3231783Y497303D01*
X3229033Y502065D01*
X3233795Y504815D01*
G37*
G36*
X3238545Y496588D02*
X3241295Y491826D01*
X3236533Y489076D01*
X3233783Y493838D01*
X3238545Y496588D01*
G37*
G36*
X3230318Y491838D02*
X3233068Y487076D01*
X3228306Y484326D01*
X3225556Y489088D01*
X3230318Y491838D01*
G37*
D11*
G36*
X2312521Y193967D02*
X2309021Y187905D01*
X2300361Y192905D01*
X2303861Y198967D01*
X2312521Y193967D01*
G37*
G36*
X2305521Y181843D02*
X2302021Y175781D01*
X2293361Y180781D01*
X2296861Y186843D01*
X2305521Y181843D01*
G37*
G36*
X2339503Y195502D02*
X2345565Y192002D01*
X2340565Y183342D01*
X2334503Y186842D01*
X2339503Y195502D01*
G37*
G36*
X2351627Y188502D02*
X2357689Y185002D01*
X2352689Y176342D01*
X2346627Y179842D01*
X2351627Y188502D01*
G37*
G36*
X2347123Y208700D02*
X2353185Y205200D01*
X2348185Y196540D01*
X2342123Y200040D01*
X2347123Y208700D01*
G37*
G36*
X2359247Y201700D02*
X2365309Y198200D01*
X2360309Y189540D01*
X2354247Y193040D01*
X2359247Y201700D01*
G37*
G36*
X2277547Y149150D02*
X2283609Y145650D01*
X2278609Y136990D01*
X2272547Y140490D01*
X2277547Y149150D01*
G37*
G36*
X2289671Y142150D02*
X2295733Y138650D01*
X2290733Y129990D01*
X2284671Y133490D01*
X2289671Y142150D01*
G37*
G36*
X2298353Y143188D02*
X2292291Y146688D01*
X2297291Y155348D01*
X2303353Y151848D01*
X2298353Y143188D01*
G37*
G36*
X2286229Y150188D02*
X2280167Y153688D01*
X2285167Y162348D01*
X2291229Y158848D01*
X2286229Y150188D01*
G37*
G36*
X2304964Y150918D02*
X2311026Y147418D01*
X2306026Y138758D01*
X2299964Y142258D01*
X2304964Y150918D01*
G37*
G36*
X2317088Y143918D02*
X2323150Y140418D01*
X2318150Y131758D01*
X2312088Y135258D01*
X2317088Y143918D01*
G37*
G36*
X2296244Y164936D02*
X2290182Y168436D01*
X2295182Y177096D01*
X2301244Y173596D01*
X2296244Y164936D01*
G37*
G36*
X2284120Y171936D02*
X2278058Y175436D01*
X2283058Y184096D01*
X2289120Y180596D01*
X2284120Y171936D01*
G37*
D14*
G36*
X2327543Y156287D02*
X2322044Y146761D01*
X2319879Y148011D01*
X2325378Y157537D01*
X2327543Y156287D01*
G37*
G36*
X2340043Y177938D02*
X2334544Y168412D01*
X2332379Y169662D01*
X2337878Y179188D01*
X2340043Y177938D01*
G37*
G36*
X2321914Y159537D02*
X2316415Y150011D01*
X2314250Y151261D01*
X2319749Y160787D01*
X2321914Y159537D01*
G37*
G36*
X2334414Y181188D02*
X2328915Y171662D01*
X2326750Y172912D01*
X2332249Y182438D01*
X2334414Y181188D01*
G37*
D15*
G36*
X2328785Y184438D02*
X2325286Y178376D01*
X2323121Y179626D01*
X2326620Y185688D01*
X2328785Y184438D01*
G37*
D14*
G36*
X2309753Y178972D02*
X2319279Y173473D01*
X2318029Y171308D01*
X2308503Y176807D01*
X2309753Y178972D01*
G37*
G36*
X2307253Y174642D02*
X2316779Y169143D01*
X2315529Y166978D01*
X2306003Y172477D01*
X2307253Y174642D01*
G37*
D15*
G36*
X2312253Y183302D02*
X2318315Y179803D01*
X2317065Y177638D01*
X2311003Y181137D01*
X2312253Y183302D01*
G37*
G36*
X2314753Y187632D02*
X2320815Y184133D01*
X2319565Y181968D01*
X2313503Y185467D01*
X2314753Y187632D01*
G37*
G36*
X2304753Y170312D02*
X2310815Y166813D01*
X2309565Y164648D01*
X2303503Y168147D01*
X2304753Y170312D01*
G37*
G36*
X2302253Y165981D02*
X2308315Y162482D01*
X2307065Y160317D01*
X2301003Y163816D01*
X2302253Y165981D01*
G37*
D10*
G36*
X1145072Y517903D02*
X1143648Y512591D01*
X1138336Y514015D01*
X1139760Y519327D01*
X1145072Y517903D01*
G37*
G36*
X1154249Y515444D02*
X1152825Y510132D01*
X1147513Y511556D01*
X1148937Y516868D01*
X1154249Y515444D01*
G37*
G36*
X1151790Y506268D02*
X1150366Y500956D01*
X1145054Y502380D01*
X1146478Y507692D01*
X1151790Y506268D01*
G37*
G36*
X1142614Y508727D02*
X1141190Y503415D01*
X1135878Y504839D01*
X1137302Y510151D01*
X1142614Y508727D01*
G37*
G36*
X1183478Y451303D02*
X1182054Y445991D01*
X1176742Y447415D01*
X1178166Y452727D01*
X1183478Y451303D01*
G37*
G36*
X1192655Y448844D02*
X1191231Y443532D01*
X1185919Y444956D01*
X1187343Y450268D01*
X1192655Y448844D01*
G37*
G36*
X1190196Y439668D02*
X1188772Y434356D01*
X1183460Y435780D01*
X1184884Y441092D01*
X1190196Y439668D01*
G37*
G36*
X1181020Y442127D02*
X1179596Y436815D01*
X1174284Y438239D01*
X1175708Y443551D01*
X1181020Y442127D01*
G37*
G36*
X1221984Y384603D02*
X1220560Y379291D01*
X1215248Y380715D01*
X1216672Y386027D01*
X1221984Y384603D01*
G37*
G36*
X1231161Y382144D02*
X1229737Y376832D01*
X1224425Y378256D01*
X1225849Y383568D01*
X1231161Y382144D01*
G37*
G36*
X1228702Y372968D02*
X1227278Y367656D01*
X1221966Y369080D01*
X1223390Y374392D01*
X1228702Y372968D01*
G37*
G36*
X1219525Y375427D02*
X1218101Y370115D01*
X1212789Y371539D01*
X1214213Y376851D01*
X1219525Y375427D01*
G37*
G36*
X1260390Y318003D02*
X1258966Y312691D01*
X1253654Y314115D01*
X1255078Y319427D01*
X1260390Y318003D01*
G37*
G36*
X1269566Y315544D02*
X1268142Y310232D01*
X1262830Y311656D01*
X1264254Y316968D01*
X1269566Y315544D01*
G37*
G36*
X1267108Y306368D02*
X1265684Y301056D01*
X1260372Y302480D01*
X1261796Y307792D01*
X1267108Y306368D01*
G37*
G36*
X1257931Y308827D02*
X1256507Y303515D01*
X1251195Y304939D01*
X1252619Y310251D01*
X1257931Y308827D01*
G37*
G36*
X1220413Y179343D02*
X1215651Y176593D01*
X1212901Y181355D01*
X1217663Y184105D01*
X1220413Y179343D01*
G37*
G36*
X1225163Y171116D02*
X1220401Y168366D01*
X1217651Y173128D01*
X1222413Y175878D01*
X1225163Y171116D01*
G37*
G36*
X1216936Y166366D02*
X1212174Y163616D01*
X1209424Y168378D01*
X1214186Y171128D01*
X1216936Y166366D01*
G37*
G36*
X1212186Y174593D02*
X1207424Y171843D01*
X1204674Y176605D01*
X1209436Y179355D01*
X1212186Y174593D01*
G37*
G36*
X1396891Y282596D02*
X1399641Y277834D01*
X1394879Y275084D01*
X1392129Y279846D01*
X1396891Y282596D01*
G37*
G36*
X1405118Y287346D02*
X1407868Y282584D01*
X1403106Y279834D01*
X1400356Y284596D01*
X1405118Y287346D01*
G37*
G36*
X1409868Y279119D02*
X1412618Y274357D01*
X1407856Y271607D01*
X1405106Y276369D01*
X1409868Y279119D01*
G37*
G36*
X1401641Y274369D02*
X1404391Y269607D01*
X1399629Y266857D01*
X1396879Y271619D01*
X1401641Y274369D01*
G37*
G36*
X1298908Y251503D02*
X1297484Y246191D01*
X1292172Y247615D01*
X1293596Y252927D01*
X1298908Y251503D01*
G37*
G36*
X1308084Y249044D02*
X1306660Y243732D01*
X1301348Y245156D01*
X1302772Y250468D01*
X1308084Y249044D01*
G37*
G36*
X1305625Y239868D02*
X1304201Y234556D01*
X1298889Y235980D01*
X1300313Y241292D01*
X1305625Y239868D01*
G37*
G36*
X1296449Y242327D02*
X1295025Y237015D01*
X1289713Y238439D01*
X1291137Y243751D01*
X1296449Y242327D01*
G37*
D11*
G36*
X1228924Y343480D02*
X1234986Y346980D01*
X1239986Y338320D01*
X1233924Y334820D01*
X1228924Y343480D01*
G37*
G36*
X1241049Y350480D02*
X1247111Y353980D01*
X1252111Y345320D01*
X1246049Y341820D01*
X1241049Y350480D01*
G37*
D10*
G36*
X919128Y638352D02*
X915239Y642241D01*
X919128Y646130D01*
X923017Y642241D01*
X919128Y638352D01*
G37*
G36*
X912410Y631635D02*
X908521Y635524D01*
X912410Y639413D01*
X916299Y635524D01*
X912410Y631635D01*
G37*
G36*
X905693Y638352D02*
X901804Y642241D01*
X905693Y646130D01*
X909582Y642241D01*
X905693Y638352D01*
G37*
G36*
X912410Y645070D02*
X908521Y648959D01*
X912410Y652848D01*
X916299Y648959D01*
X912410Y645070D01*
G37*
G36*
X1035166Y715424D02*
X1030404Y712674D01*
X1027654Y717436D01*
X1032416Y720186D01*
X1035166Y715424D01*
G37*
G36*
X1039916Y707197D02*
X1035154Y704447D01*
X1032404Y709209D01*
X1037166Y711959D01*
X1039916Y707197D01*
G37*
G36*
X1031689Y702447D02*
X1026927Y699697D01*
X1024177Y704459D01*
X1028939Y707209D01*
X1031689Y702447D01*
G37*
G36*
X1026939Y710674D02*
X1022177Y707924D01*
X1019427Y712686D01*
X1024189Y715436D01*
X1026939Y710674D01*
G37*
G36*
X1068137Y651103D02*
X1066713Y645791D01*
X1061401Y647215D01*
X1062825Y652527D01*
X1068137Y651103D01*
G37*
G36*
X1077313Y648644D02*
X1075889Y643332D01*
X1070577Y644756D01*
X1072001Y650068D01*
X1077313Y648644D01*
G37*
G36*
X1074854Y639468D02*
X1073430Y634156D01*
X1068118Y635580D01*
X1069542Y640892D01*
X1074854Y639468D01*
G37*
G36*
X1065678Y641927D02*
X1064254Y636615D01*
X1058942Y638039D01*
X1060366Y643351D01*
X1065678Y641927D01*
G37*
G36*
X1106643Y584503D02*
X1105219Y579191D01*
X1099907Y580615D01*
X1101331Y585927D01*
X1106643Y584503D01*
G37*
G36*
X1115819Y582044D02*
X1114395Y576732D01*
X1109083Y578156D01*
X1110507Y583468D01*
X1115819Y582044D01*
G37*
G36*
X1113360Y572868D02*
X1111936Y567556D01*
X1106624Y568980D01*
X1108048Y574292D01*
X1113360Y572868D01*
G37*
G36*
X1104184Y575327D02*
X1102760Y570015D01*
X1097448Y571439D01*
X1098872Y576751D01*
X1104184Y575327D01*
G37*
G36*
X1073764Y418477D02*
X1069002Y415727D01*
X1066252Y420489D01*
X1071014Y423239D01*
X1073764Y418477D01*
G37*
G36*
X1078514Y410250D02*
X1073752Y407500D01*
X1071002Y412262D01*
X1075764Y415012D01*
X1078514Y410250D01*
G37*
G36*
X1070287Y405500D02*
X1065525Y402750D01*
X1062775Y407512D01*
X1067537Y410262D01*
X1070287Y405500D01*
G37*
G36*
X1065537Y413727D02*
X1060775Y410977D01*
X1058025Y415739D01*
X1062787Y418489D01*
X1065537Y413727D01*
G37*
G36*
X1041798Y295530D02*
X1037036Y292780D01*
X1034286Y297542D01*
X1039048Y300292D01*
X1041798Y295530D01*
G37*
G36*
X1046548Y287303D02*
X1041786Y284553D01*
X1039036Y289315D01*
X1043798Y292065D01*
X1046548Y287303D01*
G37*
G36*
X1038321Y282553D02*
X1033559Y279803D01*
X1030809Y284565D01*
X1035571Y287315D01*
X1038321Y282553D01*
G37*
G36*
X1033571Y290780D02*
X1028809Y288030D01*
X1026059Y292792D01*
X1030821Y295542D01*
X1033571Y290780D01*
G37*
G36*
X1262149Y532196D02*
X1264899Y527434D01*
X1260137Y524684D01*
X1257387Y529446D01*
X1262149Y532196D01*
G37*
G36*
X1270377Y536946D02*
X1273127Y532184D01*
X1268365Y529434D01*
X1265615Y534196D01*
X1270377Y536946D01*
G37*
G36*
X1275127Y528719D02*
X1277877Y523957D01*
X1273115Y521207D01*
X1270365Y525969D01*
X1275127Y528719D01*
G37*
G36*
X1266899Y523969D02*
X1269649Y519207D01*
X1264887Y516457D01*
X1262137Y521219D01*
X1266899Y523969D01*
G37*
D11*
G36*
X1073844Y613894D02*
X1079906Y617394D01*
X1084906Y608734D01*
X1078844Y605234D01*
X1073844Y613894D01*
G37*
G36*
X1085968Y620894D02*
X1092030Y624394D01*
X1097030Y615734D01*
X1090968Y612234D01*
X1085968Y620894D01*
G37*
D10*
G36*
X1384436Y500057D02*
X1387186Y495295D01*
X1382424Y492545D01*
X1379674Y497307D01*
X1384436Y500057D01*
G37*
G36*
X1392663Y504807D02*
X1395413Y500045D01*
X1390651Y497295D01*
X1387901Y502057D01*
X1392663Y504807D01*
G37*
G36*
X1397413Y496579D02*
X1400163Y491817D01*
X1395401Y489067D01*
X1392651Y493829D01*
X1397413Y496579D01*
G37*
G36*
X1389186Y491829D02*
X1391936Y487067D01*
X1387174Y484317D01*
X1384424Y489079D01*
X1389186Y491829D01*
G37*
G36*
X686692Y513922D02*
X681380Y512498D01*
X679956Y517810D01*
X685268Y519234D01*
X686692Y513922D01*
G37*
G36*
X689151Y504746D02*
X683839Y503322D01*
X682415Y508634D01*
X687727Y510058D01*
X689151Y504746D01*
G37*
G36*
X679974Y502287D02*
X674662Y500863D01*
X673238Y506175D01*
X678550Y507599D01*
X679974Y502287D01*
G37*
G36*
X677516Y511464D02*
X672204Y510040D01*
X670780Y515352D01*
X676092Y516776D01*
X677516Y511464D01*
G37*
G36*
X648218Y447362D02*
X642906Y445938D01*
X641482Y451250D01*
X646794Y452674D01*
X648218Y447362D01*
G37*
G36*
X650676Y438186D02*
X645364Y436762D01*
X643940Y442074D01*
X649252Y443498D01*
X650676Y438186D01*
G37*
G36*
X641500Y435727D02*
X636188Y434303D01*
X634764Y439615D01*
X640076Y441039D01*
X641500Y435727D01*
G37*
G36*
X639041Y444903D02*
X633729Y443479D01*
X632305Y448791D01*
X637617Y450215D01*
X639041Y444903D01*
G37*
G36*
X609707Y380665D02*
X604395Y379241D01*
X602971Y384553D01*
X608283Y385977D01*
X609707Y380665D01*
G37*
G36*
X612165Y371489D02*
X606853Y370065D01*
X605429Y375377D01*
X610741Y376801D01*
X612165Y371489D01*
G37*
G36*
X602989Y369030D02*
X597677Y367606D01*
X596253Y372918D01*
X601565Y374342D01*
X602989Y369030D01*
G37*
G36*
X600530Y378206D02*
X595218Y376782D01*
X593794Y382094D01*
X599106Y383518D01*
X600530Y378206D01*
G37*
G36*
X571232Y314104D02*
X565920Y312680D01*
X564496Y317992D01*
X569808Y319416D01*
X571232Y314104D01*
G37*
G36*
X573691Y304928D02*
X568379Y303504D01*
X566955Y308816D01*
X572267Y310240D01*
X573691Y304928D01*
G37*
G36*
X564515Y302469D02*
X559203Y301045D01*
X557779Y306357D01*
X563091Y307781D01*
X564515Y302469D01*
G37*
G36*
X562056Y311646D02*
X556744Y310222D01*
X555320Y315534D01*
X560632Y316958D01*
X562056Y311646D01*
G37*
G36*
X431160Y279394D02*
X426398Y282144D01*
X429148Y286906D01*
X433910Y284156D01*
X431160Y279394D01*
G37*
G36*
X426410Y271167D02*
X421648Y273917D01*
X424398Y278679D01*
X429160Y275929D01*
X426410Y271167D01*
G37*
G36*
X418183Y275917D02*
X413421Y278667D01*
X416171Y283429D01*
X420933Y280679D01*
X418183Y275917D01*
G37*
G36*
X422933Y284144D02*
X418171Y286894D01*
X420921Y291656D01*
X425683Y288906D01*
X422933Y284144D01*
G37*
G36*
X608819Y178186D02*
X606069Y173424D01*
X601307Y176174D01*
X604057Y180936D01*
X608819Y178186D01*
G37*
G36*
X617047Y173436D02*
X614297Y168674D01*
X609535Y171424D01*
X612285Y176186D01*
X617047Y173436D01*
G37*
G36*
X612297Y165209D02*
X609547Y160447D01*
X604785Y163197D01*
X607535Y167959D01*
X612297Y165209D01*
G37*
G36*
X604069Y169959D02*
X601319Y165197D01*
X596557Y167947D01*
X599307Y172709D01*
X604069Y169959D01*
G37*
G36*
X532901Y247497D02*
X527589Y246073D01*
X526165Y251385D01*
X531477Y252809D01*
X532901Y247497D01*
G37*
G36*
X535359Y238321D02*
X530047Y236897D01*
X528623Y242209D01*
X533935Y243633D01*
X535359Y238321D01*
G37*
G36*
X526183Y235862D02*
X520871Y234438D01*
X519447Y239750D01*
X524759Y241174D01*
X526183Y235862D01*
G37*
G36*
X523724Y245038D02*
X518412Y243614D01*
X516988Y248926D01*
X522300Y250350D01*
X523724Y245038D01*
G37*
D11*
G36*
X577563Y354092D02*
X583625Y350592D01*
X578625Y341932D01*
X572563Y345432D01*
X577563Y354092D01*
G37*
G36*
X589687Y347092D02*
X595749Y343592D01*
X590749Y334932D01*
X584687Y338432D01*
X589687Y347092D01*
G37*
D10*
G36*
X493473Y180674D02*
X488161Y179250D01*
X486737Y184562D01*
X492049Y185986D01*
X493473Y180674D01*
G37*
G36*
X495932Y171498D02*
X490620Y170074D01*
X489196Y175386D01*
X494508Y176810D01*
X495932Y171498D01*
G37*
G36*
X486756Y169039D02*
X481444Y167615D01*
X480020Y172927D01*
X485332Y174351D01*
X486756Y169039D01*
G37*
G36*
X484297Y178215D02*
X478985Y176791D01*
X477561Y182103D01*
X482873Y183527D01*
X484297Y178215D01*
G37*
G36*
X678032Y769820D02*
X679456Y775132D01*
X684768Y773708D01*
X683344Y768396D01*
X678032Y769820D01*
G37*
G36*
X668855Y772279D02*
X670279Y777591D01*
X675591Y776167D01*
X674167Y770855D01*
X668855Y772279D01*
G37*
G36*
X671314Y781456D02*
X672738Y786768D01*
X678050Y785344D01*
X676626Y780032D01*
X671314Y781456D01*
G37*
G36*
X680490Y778997D02*
X681914Y784309D01*
X687226Y782885D01*
X685802Y777573D01*
X680490Y778997D01*
G37*
G36*
X802796Y707863D02*
X798034Y710613D01*
X800784Y715375D01*
X805546Y712625D01*
X802796Y707863D01*
G37*
G36*
X798046Y699636D02*
X793284Y702386D01*
X796034Y707148D01*
X800796Y704398D01*
X798046Y699636D01*
G37*
G36*
X789819Y704386D02*
X785057Y707136D01*
X787807Y711898D01*
X792569Y709148D01*
X789819Y704386D01*
G37*
G36*
X794569Y712613D02*
X789807Y715363D01*
X792557Y720125D01*
X797319Y717375D01*
X794569Y712613D01*
G37*
G36*
X763579Y647151D02*
X758267Y645727D01*
X756843Y651039D01*
X762155Y652463D01*
X763579Y647151D01*
G37*
G36*
X766038Y637974D02*
X760726Y636550D01*
X759302Y641862D01*
X764614Y643286D01*
X766038Y637974D01*
G37*
G36*
X756861Y635515D02*
X751549Y634091D01*
X750125Y639403D01*
X755437Y640827D01*
X756861Y635515D01*
G37*
G36*
X754403Y644692D02*
X749091Y643268D01*
X747667Y648580D01*
X752979Y650004D01*
X754403Y644692D01*
G37*
G36*
X725154Y580503D02*
X719842Y579079D01*
X718418Y584391D01*
X723730Y585815D01*
X725154Y580503D01*
G37*
G36*
X727613Y571327D02*
X722301Y569903D01*
X720877Y575215D01*
X726189Y576639D01*
X727613Y571327D01*
G37*
G36*
X718437Y568868D02*
X713125Y567444D01*
X711701Y572756D01*
X717013Y574180D01*
X718437Y568868D01*
G37*
G36*
X715978Y578045D02*
X710666Y576621D01*
X709242Y581933D01*
X714554Y583357D01*
X715978Y578045D01*
G37*
G36*
X564931Y525963D02*
X560169Y528713D01*
X562919Y533475D01*
X567681Y530725D01*
X564931Y525963D01*
G37*
G36*
X560181Y517736D02*
X555419Y520486D01*
X558169Y525248D01*
X562931Y522498D01*
X560181Y517736D01*
G37*
G36*
X551954Y522486D02*
X547192Y525236D01*
X549942Y529998D01*
X554704Y527248D01*
X551954Y522486D01*
G37*
G36*
X556704Y530713D02*
X551942Y533463D01*
X554692Y538225D01*
X559454Y535475D01*
X556704Y530713D01*
G37*
G36*
X442473Y492173D02*
X437711Y494923D01*
X440461Y499685D01*
X445223Y496935D01*
X442473Y492173D01*
G37*
G36*
X437723Y483946D02*
X432961Y486696D01*
X435711Y491458D01*
X440473Y488708D01*
X437723Y483946D01*
G37*
G36*
X429496Y488696D02*
X424734Y491446D01*
X427484Y496208D01*
X432246Y493458D01*
X429496Y488696D01*
G37*
G36*
X434246Y496923D02*
X429484Y499673D01*
X432234Y504435D01*
X436996Y501685D01*
X434246Y496923D01*
G37*
G36*
X757609Y419676D02*
X754859Y414914D01*
X750097Y417664D01*
X752847Y422426D01*
X757609Y419676D01*
G37*
G36*
X765836Y414926D02*
X763086Y410164D01*
X758324Y412914D01*
X761074Y417676D01*
X765836Y414926D01*
G37*
G36*
X761086Y406699D02*
X758336Y401937D01*
X753574Y404687D01*
X756324Y409449D01*
X761086Y406699D01*
G37*
G36*
X752859Y411449D02*
X750109Y406687D01*
X745347Y409437D01*
X748097Y414199D01*
X752859Y411449D01*
G37*
D11*
G36*
X734208Y623603D02*
X740270Y620103D01*
X735270Y611443D01*
X729208Y614943D01*
X734208Y623603D01*
G37*
G36*
X746332Y616603D02*
X752394Y613103D01*
X747394Y604443D01*
X741332Y607943D01*
X746332Y616603D01*
G37*
D10*
G36*
X790918Y297703D02*
X788168Y292941D01*
X783406Y295691D01*
X786156Y300453D01*
X790918Y297703D01*
G37*
G36*
X799145Y292953D02*
X796395Y288191D01*
X791633Y290941D01*
X794383Y295703D01*
X799145Y292953D01*
G37*
G36*
X794395Y284725D02*
X791645Y279963D01*
X786883Y282713D01*
X789633Y287475D01*
X794395Y284725D01*
G37*
G36*
X786168Y289475D02*
X783418Y284713D01*
X778656Y287463D01*
X781406Y292225D01*
X786168Y289475D01*
G37*
G36*
X454054Y908900D02*
X450165Y912789D01*
X454054Y916678D01*
X457943Y912789D01*
X454054Y908900D01*
G37*
G36*
X447336Y902183D02*
X443447Y906072D01*
X447336Y909961D01*
X451225Y906072D01*
X447336Y902183D01*
G37*
G36*
X440619Y908900D02*
X436730Y912789D01*
X440619Y916678D01*
X444508Y912789D01*
X440619Y908900D01*
G37*
G36*
X447336Y915618D02*
X443447Y919507D01*
X447336Y923396D01*
X451225Y919507D01*
X447336Y915618D01*
G37*
G36*
X377173Y908940D02*
X373284Y912829D01*
X377173Y916718D01*
X381062Y912829D01*
X377173Y908940D01*
G37*
G36*
X370456Y902222D02*
X366567Y906111D01*
X370456Y910000D01*
X374345Y906111D01*
X370456Y902222D01*
G37*
G36*
X363738Y908940D02*
X359849Y912829D01*
X363738Y916718D01*
X367627Y912829D01*
X363738Y908940D01*
G37*
G36*
X370456Y915657D02*
X366567Y919546D01*
X370456Y923435D01*
X374345Y919546D01*
X370456Y915657D01*
G37*
G36*
X300156Y908943D02*
X296267Y912832D01*
X300156Y916721D01*
X304045Y912832D01*
X300156Y908943D01*
G37*
G36*
X293439Y902225D02*
X289550Y906114D01*
X293439Y910003D01*
X297328Y906114D01*
X293439Y902225D01*
G37*
G36*
X286721Y908943D02*
X282832Y912832D01*
X286721Y916721D01*
X290610Y912832D01*
X286721Y908943D01*
G37*
G36*
X293439Y915660D02*
X289550Y919549D01*
X293439Y923438D01*
X297328Y919549D01*
X293439Y915660D01*
G37*
G36*
X223276Y908982D02*
X219387Y912871D01*
X223276Y916760D01*
X227165Y912871D01*
X223276Y908982D01*
G37*
G36*
X216559Y902265D02*
X212670Y906154D01*
X216559Y910043D01*
X220448Y906154D01*
X216559Y902265D01*
G37*
G36*
X209841Y908982D02*
X205952Y912871D01*
X209841Y916760D01*
X213730Y912871D01*
X209841Y908982D01*
G37*
G36*
X216559Y915700D02*
X212670Y919589D01*
X216559Y923478D01*
X220448Y919589D01*
X216559Y915700D01*
G37*
D12*
X125931Y1015683D03*
X116431Y1015683D03*
X116431Y1025183D03*
X125931Y1025183D03*
X121613Y811222D03*
X121613Y801722D03*
X112113Y801722D03*
X112113Y811222D03*
D10*
G36*
X146427Y908875D02*
X142538Y912764D01*
X146427Y916653D01*
X150316Y912764D01*
X146427Y908875D01*
G37*
G36*
X139709Y902157D02*
X135820Y906046D01*
X139709Y909935D01*
X143598Y906046D01*
X139709Y902157D01*
G37*
G36*
X132992Y908875D02*
X129103Y912764D01*
X132992Y916653D01*
X136881Y912764D01*
X132992Y908875D01*
G37*
G36*
X139709Y915592D02*
X135820Y919481D01*
X139709Y923370D01*
X143598Y919481D01*
X139709Y915592D01*
G37*
D13*
X256072Y919994D03*
X256072Y905994D03*
D10*
G36*
X68843Y909608D02*
X64954Y913497D01*
X68843Y917386D01*
X72732Y913497D01*
X68843Y909608D01*
G37*
G36*
X62125Y902891D02*
X58236Y906780D01*
X62125Y910669D01*
X66014Y906780D01*
X62125Y902891D01*
G37*
G36*
X55408Y909608D02*
X51519Y913497D01*
X55408Y917386D01*
X59297Y913497D01*
X55408Y909608D01*
G37*
G36*
X62125Y916326D02*
X58236Y920215D01*
X62125Y924104D01*
X66014Y920215D01*
X62125Y916326D01*
G37*
G36*
X671338Y1044349D02*
X676650Y1045773D01*
X678074Y1040461D01*
X672762Y1039037D01*
X671338Y1044349D01*
G37*
G36*
X668879Y1053525D02*
X674191Y1054949D01*
X675615Y1049637D01*
X670303Y1048213D01*
X668879Y1053525D01*
G37*
G36*
X678055Y1055984D02*
X683367Y1057408D01*
X684791Y1052096D01*
X679479Y1050672D01*
X678055Y1055984D01*
G37*
G36*
X680514Y1046808D02*
X685826Y1048232D01*
X687250Y1042920D01*
X681938Y1041496D01*
X680514Y1046808D01*
G37*
D12*
X682814Y908071D03*
X673314Y908071D03*
X673314Y917571D03*
X682814Y917571D03*
D10*
G36*
X607876Y908928D02*
X603987Y912817D01*
X607876Y916706D01*
X611765Y912817D01*
X607876Y908928D01*
G37*
G36*
X601158Y902211D02*
X597269Y906100D01*
X601158Y909989D01*
X605047Y906100D01*
X601158Y902211D01*
G37*
G36*
X594441Y908928D02*
X590552Y912817D01*
X594441Y916706D01*
X598330Y912817D01*
X594441Y908928D01*
G37*
G36*
X601158Y915646D02*
X597269Y919535D01*
X601158Y923424D01*
X605047Y919535D01*
X601158Y915646D01*
G37*
G36*
X530946Y908881D02*
X527057Y912770D01*
X530946Y916659D01*
X534835Y912770D01*
X530946Y908881D01*
G37*
G36*
X524228Y902164D02*
X520339Y906053D01*
X524228Y909942D01*
X528117Y906053D01*
X524228Y902164D01*
G37*
G36*
X517511Y908881D02*
X513622Y912770D01*
X517511Y916659D01*
X521400Y912770D01*
X517511Y908881D01*
G37*
G36*
X524228Y915599D02*
X520339Y919488D01*
X524228Y923377D01*
X528117Y919488D01*
X524228Y915599D01*
G37*
D12*
X406351Y1023118D03*
X396851Y1023118D03*
X396851Y1032618D03*
X406351Y1032618D03*
X315859Y1112274D03*
X306359Y1112274D03*
X306359Y1121774D03*
X315859Y1121774D03*
X405143Y803111D03*
X405143Y793611D03*
X395643Y793611D03*
X395643Y803111D03*
D13*
X567798Y919091D03*
X567798Y905091D03*
D12*
X316166Y713278D03*
X316166Y703778D03*
X306666Y703778D03*
X306666Y713278D03*
D10*
G36*
X679796Y1307861D02*
X681220Y1313173D01*
X686532Y1311749D01*
X685108Y1306437D01*
X679796Y1307861D01*
G37*
G36*
X670619Y1310319D02*
X672043Y1315631D01*
X677355Y1314207D01*
X675931Y1308895D01*
X670619Y1310319D01*
G37*
G36*
X673078Y1319496D02*
X674502Y1324808D01*
X679814Y1323384D01*
X678390Y1318072D01*
X673078Y1319496D01*
G37*
G36*
X682254Y1317037D02*
X683678Y1322349D01*
X688990Y1320925D01*
X687566Y1315613D01*
X682254Y1317037D01*
G37*
G36*
X641390Y1374461D02*
X642814Y1379773D01*
X648126Y1378349D01*
X646702Y1373037D01*
X641390Y1374461D01*
G37*
G36*
X632213Y1376919D02*
X633637Y1382231D01*
X638949Y1380807D01*
X637525Y1375495D01*
X632213Y1376919D01*
G37*
G36*
X634672Y1386096D02*
X636096Y1391408D01*
X641408Y1389984D01*
X639984Y1384672D01*
X634672Y1386096D01*
G37*
G36*
X643849Y1383637D02*
X645273Y1388949D01*
X650585Y1387525D01*
X649161Y1382213D01*
X643849Y1383637D01*
G37*
G36*
X602884Y1441161D02*
X604308Y1446473D01*
X609620Y1445049D01*
X608196Y1439737D01*
X602884Y1441161D01*
G37*
G36*
X593708Y1443619D02*
X595132Y1448931D01*
X600444Y1447507D01*
X599020Y1442195D01*
X593708Y1443619D01*
G37*
G36*
X596166Y1452796D02*
X597590Y1458108D01*
X602902Y1456684D01*
X601478Y1451372D01*
X596166Y1452796D01*
G37*
G36*
X605343Y1450337D02*
X606767Y1455649D01*
X612079Y1454225D01*
X610655Y1448913D01*
X605343Y1450337D01*
G37*
G36*
X564478Y1507761D02*
X565902Y1513073D01*
X571214Y1511649D01*
X569790Y1506337D01*
X564478Y1507761D01*
G37*
G36*
X555302Y1510219D02*
X556726Y1515531D01*
X562038Y1514107D01*
X560614Y1508795D01*
X555302Y1510219D01*
G37*
G36*
X557760Y1519396D02*
X559184Y1524708D01*
X564496Y1523284D01*
X563072Y1517972D01*
X557760Y1519396D01*
G37*
G36*
X566937Y1516937D02*
X568361Y1522249D01*
X573673Y1520825D01*
X572249Y1515513D01*
X566937Y1516937D01*
G37*
G36*
X604455Y1646420D02*
X609217Y1649170D01*
X611967Y1644408D01*
X607205Y1641658D01*
X604455Y1646420D01*
G37*
G36*
X599705Y1654648D02*
X604467Y1657398D01*
X607217Y1652636D01*
X602455Y1649886D01*
X599705Y1654648D01*
G37*
G36*
X607932Y1659398D02*
X612694Y1662148D01*
X615444Y1657386D01*
X610682Y1654636D01*
X607932Y1659398D01*
G37*
G36*
X612682Y1651170D02*
X617444Y1653920D01*
X620194Y1649158D01*
X615432Y1646408D01*
X612682Y1651170D01*
G37*
G36*
X427977Y1543167D02*
X425227Y1547929D01*
X429989Y1550679D01*
X432739Y1545917D01*
X427977Y1543167D01*
G37*
G36*
X419750Y1538417D02*
X417000Y1543179D01*
X421762Y1545929D01*
X424512Y1541167D01*
X419750Y1538417D01*
G37*
G36*
X415000Y1546645D02*
X412250Y1551407D01*
X417012Y1554157D01*
X419762Y1549395D01*
X415000Y1546645D01*
G37*
G36*
X423227Y1551395D02*
X420477Y1556157D01*
X425239Y1558907D01*
X427989Y1554145D01*
X423227Y1551395D01*
G37*
G36*
X525960Y1574261D02*
X527384Y1579573D01*
X532696Y1578149D01*
X531272Y1572837D01*
X525960Y1574261D01*
G37*
G36*
X516784Y1576719D02*
X518208Y1582031D01*
X523520Y1580607D01*
X522096Y1575295D01*
X516784Y1576719D01*
G37*
G36*
X519243Y1585896D02*
X520667Y1591208D01*
X525979Y1589784D01*
X524555Y1584472D01*
X519243Y1585896D01*
G37*
G36*
X528419Y1583437D02*
X529843Y1588749D01*
X535155Y1587325D01*
X533731Y1582013D01*
X528419Y1583437D01*
G37*
D11*
G36*
X595944Y1482284D02*
X589882Y1478784D01*
X584882Y1487444D01*
X590944Y1490944D01*
X595944Y1482284D01*
G37*
G36*
X583819Y1475284D02*
X577757Y1471784D01*
X572757Y1480444D01*
X578819Y1483944D01*
X583819Y1475284D01*
G37*
D10*
G36*
X487804Y1641817D02*
X489228Y1647129D01*
X494540Y1645705D01*
X493116Y1640393D01*
X487804Y1641817D01*
G37*
G36*
X478627Y1644276D02*
X480051Y1649588D01*
X485363Y1648164D01*
X483939Y1642852D01*
X478627Y1644276D01*
G37*
G36*
X481086Y1653452D02*
X482510Y1658764D01*
X487822Y1657340D01*
X486398Y1652028D01*
X481086Y1653452D01*
G37*
G36*
X490262Y1650993D02*
X491686Y1656305D01*
X496998Y1654881D01*
X495574Y1649569D01*
X490262Y1650993D01*
G37*
G36*
X905740Y1187411D02*
X909629Y1183522D01*
X905740Y1179633D01*
X901851Y1183522D01*
X905740Y1187411D01*
G37*
G36*
X912458Y1194129D02*
X916347Y1190240D01*
X912458Y1186351D01*
X908569Y1190240D01*
X912458Y1194129D01*
G37*
G36*
X919175Y1187411D02*
X923064Y1183522D01*
X919175Y1179633D01*
X915286Y1183522D01*
X919175Y1187411D01*
G37*
G36*
X912458Y1180694D02*
X916347Y1176805D01*
X912458Y1172916D01*
X908569Y1176805D01*
X912458Y1180694D01*
G37*
G36*
X789702Y1110340D02*
X794464Y1113090D01*
X797214Y1108328D01*
X792452Y1105578D01*
X789702Y1110340D01*
G37*
G36*
X784952Y1118567D02*
X789714Y1121317D01*
X792464Y1116555D01*
X787702Y1113805D01*
X784952Y1118567D01*
G37*
G36*
X793179Y1123317D02*
X797941Y1126067D01*
X800691Y1121305D01*
X795929Y1118555D01*
X793179Y1123317D01*
G37*
G36*
X797929Y1115090D02*
X802691Y1117840D01*
X805441Y1113078D01*
X800679Y1110328D01*
X797929Y1115090D01*
G37*
G36*
X756731Y1174661D02*
X758155Y1179973D01*
X763467Y1178549D01*
X762043Y1173237D01*
X756731Y1174661D01*
G37*
G36*
X747555Y1177119D02*
X748979Y1182431D01*
X754291Y1181007D01*
X752867Y1175695D01*
X747555Y1177119D01*
G37*
G36*
X750014Y1186296D02*
X751438Y1191608D01*
X756750Y1190184D01*
X755326Y1184872D01*
X750014Y1186296D01*
G37*
G36*
X759190Y1183837D02*
X760614Y1189149D01*
X765926Y1187725D01*
X764502Y1182413D01*
X759190Y1183837D01*
G37*
G36*
X718225Y1241261D02*
X719649Y1246573D01*
X724961Y1245149D01*
X723537Y1239837D01*
X718225Y1241261D01*
G37*
G36*
X709049Y1243719D02*
X710473Y1249031D01*
X715785Y1247607D01*
X714361Y1242295D01*
X709049Y1243719D01*
G37*
G36*
X711508Y1252896D02*
X712932Y1258208D01*
X718244Y1256784D01*
X716820Y1251472D01*
X711508Y1252896D01*
G37*
G36*
X720684Y1250437D02*
X722108Y1255749D01*
X727420Y1254325D01*
X725996Y1249013D01*
X720684Y1250437D01*
G37*
G36*
X751104Y1407286D02*
X755866Y1410036D01*
X758616Y1405274D01*
X753854Y1402524D01*
X751104Y1407286D01*
G37*
G36*
X746354Y1415514D02*
X751116Y1418264D01*
X753866Y1413502D01*
X749104Y1410752D01*
X746354Y1415514D01*
G37*
G36*
X754581Y1420264D02*
X759343Y1423014D01*
X762093Y1418252D01*
X757331Y1415502D01*
X754581Y1420264D01*
G37*
G36*
X759331Y1412036D02*
X764093Y1414786D01*
X766843Y1410024D01*
X762081Y1407274D01*
X759331Y1412036D01*
G37*
G36*
X783070Y1530233D02*
X787832Y1532983D01*
X790582Y1528221D01*
X785820Y1525471D01*
X783070Y1530233D01*
G37*
G36*
X778320Y1538460D02*
X783082Y1541210D01*
X785832Y1536448D01*
X781070Y1533698D01*
X778320Y1538460D01*
G37*
G36*
X786547Y1543210D02*
X791309Y1545960D01*
X794059Y1541198D01*
X789297Y1538448D01*
X786547Y1543210D01*
G37*
G36*
X791297Y1534983D02*
X796059Y1537733D01*
X798809Y1532971D01*
X794047Y1530221D01*
X791297Y1534983D01*
G37*
G36*
X562719Y1293567D02*
X559969Y1298329D01*
X564731Y1301079D01*
X567481Y1296317D01*
X562719Y1293567D01*
G37*
G36*
X554491Y1288817D02*
X551741Y1293579D01*
X556503Y1296329D01*
X559253Y1291567D01*
X554491Y1288817D01*
G37*
G36*
X549741Y1297045D02*
X546991Y1301807D01*
X551753Y1304557D01*
X554503Y1299795D01*
X549741Y1297045D01*
G37*
G36*
X557969Y1301795D02*
X555219Y1306557D01*
X559981Y1309307D01*
X562731Y1304545D01*
X557969Y1301795D01*
G37*
D11*
G36*
X751024Y1211870D02*
X744962Y1208370D01*
X739962Y1217030D01*
X746024Y1220530D01*
X751024Y1211870D01*
G37*
G36*
X738900Y1204870D02*
X732838Y1201370D01*
X727838Y1210030D01*
X733900Y1213530D01*
X738900Y1204870D01*
G37*
D10*
G36*
X440432Y1325707D02*
X437682Y1330469D01*
X442444Y1333219D01*
X445194Y1328457D01*
X440432Y1325707D01*
G37*
G36*
X432205Y1320957D02*
X429455Y1325719D01*
X434217Y1328469D01*
X436967Y1323707D01*
X432205Y1320957D01*
G37*
G36*
X427455Y1329184D02*
X424705Y1333946D01*
X429467Y1336696D01*
X432217Y1331934D01*
X427455Y1329184D01*
G37*
G36*
X435682Y1333934D02*
X432932Y1338696D01*
X437694Y1341446D01*
X440444Y1336684D01*
X435682Y1333934D01*
G37*
G36*
X1138176Y1311841D02*
X1143488Y1313265D01*
X1144912Y1307953D01*
X1139600Y1306529D01*
X1138176Y1311841D01*
G37*
G36*
X1135717Y1321017D02*
X1141029Y1322441D01*
X1142453Y1317129D01*
X1137141Y1315705D01*
X1135717Y1321017D01*
G37*
G36*
X1144894Y1323476D02*
X1150206Y1324900D01*
X1151630Y1319588D01*
X1146318Y1318164D01*
X1144894Y1323476D01*
G37*
G36*
X1147352Y1314300D02*
X1152664Y1315724D01*
X1154088Y1310412D01*
X1148776Y1308988D01*
X1147352Y1314300D01*
G37*
G36*
X1176650Y1378402D02*
X1181962Y1379826D01*
X1183386Y1374514D01*
X1178074Y1373090D01*
X1176650Y1378402D01*
G37*
G36*
X1174192Y1387578D02*
X1179504Y1389002D01*
X1180928Y1383690D01*
X1175616Y1382266D01*
X1174192Y1387578D01*
G37*
G36*
X1183368Y1390037D02*
X1188680Y1391461D01*
X1190104Y1386149D01*
X1184792Y1384725D01*
X1183368Y1390037D01*
G37*
G36*
X1185827Y1380860D02*
X1191139Y1382284D01*
X1192563Y1376972D01*
X1187251Y1375548D01*
X1185827Y1380860D01*
G37*
G36*
X1215161Y1445099D02*
X1220473Y1446523D01*
X1221897Y1441211D01*
X1216585Y1439787D01*
X1215161Y1445099D01*
G37*
G36*
X1212703Y1454275D02*
X1218015Y1455699D01*
X1219439Y1450387D01*
X1214127Y1448963D01*
X1212703Y1454275D01*
G37*
G36*
X1221879Y1456734D02*
X1227191Y1458158D01*
X1228615Y1452846D01*
X1223303Y1451422D01*
X1221879Y1456734D01*
G37*
G36*
X1224338Y1447558D02*
X1229650Y1448982D01*
X1231074Y1443670D01*
X1225762Y1442246D01*
X1224338Y1447558D01*
G37*
G36*
X1253636Y1511659D02*
X1258948Y1513083D01*
X1260372Y1507771D01*
X1255060Y1506347D01*
X1253636Y1511659D01*
G37*
G36*
X1251177Y1520836D02*
X1256489Y1522260D01*
X1257913Y1516948D01*
X1252601Y1515524D01*
X1251177Y1520836D01*
G37*
G36*
X1260353Y1523294D02*
X1265665Y1524718D01*
X1267089Y1519406D01*
X1261777Y1517982D01*
X1260353Y1523294D01*
G37*
G36*
X1262812Y1514118D02*
X1268124Y1515542D01*
X1269548Y1510230D01*
X1264236Y1508806D01*
X1262812Y1514118D01*
G37*
G36*
X1393708Y1546369D02*
X1398470Y1543619D01*
X1395720Y1538857D01*
X1390958Y1541607D01*
X1393708Y1546369D01*
G37*
G36*
X1398458Y1554597D02*
X1403220Y1551847D01*
X1400470Y1547085D01*
X1395708Y1549835D01*
X1398458Y1554597D01*
G37*
G36*
X1406685Y1549847D02*
X1411447Y1547097D01*
X1408697Y1542335D01*
X1403935Y1545085D01*
X1406685Y1549847D01*
G37*
G36*
X1401935Y1541619D02*
X1406697Y1538869D01*
X1403947Y1534107D01*
X1399185Y1536857D01*
X1401935Y1541619D01*
G37*
G36*
X1216049Y1647577D02*
X1218799Y1652339D01*
X1223561Y1649589D01*
X1220811Y1644827D01*
X1216049Y1647577D01*
G37*
G36*
X1207821Y1652327D02*
X1210571Y1657089D01*
X1215333Y1654339D01*
X1212583Y1649577D01*
X1207821Y1652327D01*
G37*
G36*
X1212571Y1660554D02*
X1215321Y1665316D01*
X1220083Y1662566D01*
X1217333Y1657804D01*
X1212571Y1660554D01*
G37*
G36*
X1220799Y1655804D02*
X1223549Y1660566D01*
X1228311Y1657816D01*
X1225561Y1653054D01*
X1220799Y1655804D01*
G37*
G36*
X1291968Y1578267D02*
X1297280Y1579691D01*
X1298704Y1574379D01*
X1293392Y1572955D01*
X1291968Y1578267D01*
G37*
G36*
X1289509Y1587443D02*
X1294821Y1588867D01*
X1296245Y1583555D01*
X1290933Y1582131D01*
X1289509Y1587443D01*
G37*
G36*
X1298685Y1589902D02*
X1303997Y1591326D01*
X1305421Y1586014D01*
X1300109Y1584590D01*
X1298685Y1589902D01*
G37*
G36*
X1301144Y1580725D02*
X1306456Y1582149D01*
X1307880Y1576837D01*
X1302568Y1575413D01*
X1301144Y1580725D01*
G37*
D11*
G36*
X1247305Y1471672D02*
X1241243Y1475172D01*
X1246243Y1483832D01*
X1252305Y1480332D01*
X1247305Y1471672D01*
G37*
G36*
X1235181Y1478672D02*
X1229119Y1482172D01*
X1234119Y1490832D01*
X1240181Y1487332D01*
X1235181Y1478672D01*
G37*
D10*
G36*
X1331395Y1645089D02*
X1336707Y1646513D01*
X1338131Y1641201D01*
X1332819Y1639777D01*
X1331395Y1645089D01*
G37*
G36*
X1328936Y1654266D02*
X1334248Y1655690D01*
X1335672Y1650378D01*
X1330360Y1648954D01*
X1328936Y1654266D01*
G37*
G36*
X1338112Y1656724D02*
X1343424Y1658148D01*
X1344848Y1652836D01*
X1339536Y1651412D01*
X1338112Y1656724D01*
G37*
G36*
X1340571Y1647548D02*
X1345883Y1648972D01*
X1347307Y1643660D01*
X1341995Y1642236D01*
X1340571Y1647548D01*
G37*
G36*
X1146836Y1055943D02*
X1145412Y1050631D01*
X1140100Y1052055D01*
X1141524Y1057367D01*
X1146836Y1055943D01*
G37*
G36*
X1156013Y1053484D02*
X1154589Y1048172D01*
X1149277Y1049596D01*
X1150701Y1054908D01*
X1156013Y1053484D01*
G37*
G36*
X1153554Y1044308D02*
X1152130Y1038996D01*
X1146818Y1040420D01*
X1148242Y1045732D01*
X1153554Y1044308D01*
G37*
G36*
X1144378Y1046767D02*
X1142954Y1041455D01*
X1137642Y1042879D01*
X1139066Y1048191D01*
X1144378Y1046767D01*
G37*
G36*
X1022072Y1117900D02*
X1026834Y1115150D01*
X1024084Y1110388D01*
X1019322Y1113138D01*
X1022072Y1117900D01*
G37*
G36*
X1026822Y1126127D02*
X1031584Y1123377D01*
X1028834Y1118615D01*
X1024072Y1121365D01*
X1026822Y1126127D01*
G37*
G36*
X1035049Y1121377D02*
X1039811Y1118627D01*
X1037061Y1113865D01*
X1032299Y1116615D01*
X1035049Y1121377D01*
G37*
G36*
X1030299Y1113150D02*
X1035061Y1110400D01*
X1032311Y1105638D01*
X1027549Y1108388D01*
X1030299Y1113150D01*
G37*
G36*
X1061289Y1178613D02*
X1066601Y1180037D01*
X1068025Y1174725D01*
X1062713Y1173301D01*
X1061289Y1178613D01*
G37*
G36*
X1058830Y1187789D02*
X1064142Y1189213D01*
X1065566Y1183901D01*
X1060254Y1182477D01*
X1058830Y1187789D01*
G37*
G36*
X1068007Y1190248D02*
X1073319Y1191672D01*
X1074743Y1186360D01*
X1069431Y1184936D01*
X1068007Y1190248D01*
G37*
G36*
X1070466Y1181072D02*
X1075778Y1182496D01*
X1077202Y1177184D01*
X1071890Y1175760D01*
X1070466Y1181072D01*
G37*
G36*
X1099714Y1245260D02*
X1105026Y1246684D01*
X1106450Y1241372D01*
X1101138Y1239948D01*
X1099714Y1245260D01*
G37*
G36*
X1097255Y1254437D02*
X1102567Y1255861D01*
X1103991Y1250549D01*
X1098679Y1249125D01*
X1097255Y1254437D01*
G37*
G36*
X1106431Y1256895D02*
X1111743Y1258319D01*
X1113167Y1253007D01*
X1107855Y1251583D01*
X1106431Y1256895D01*
G37*
G36*
X1108890Y1247719D02*
X1114202Y1249143D01*
X1115626Y1243831D01*
X1110314Y1242407D01*
X1108890Y1247719D01*
G37*
G36*
X1259937Y1299800D02*
X1264699Y1297050D01*
X1261949Y1292288D01*
X1257187Y1295038D01*
X1259937Y1299800D01*
G37*
G36*
X1264687Y1308028D02*
X1269449Y1305278D01*
X1266699Y1300516D01*
X1261937Y1303266D01*
X1264687Y1308028D01*
G37*
G36*
X1272914Y1303278D02*
X1277676Y1300528D01*
X1274926Y1295766D01*
X1270164Y1298516D01*
X1272914Y1303278D01*
G37*
G36*
X1268164Y1295050D02*
X1272926Y1292300D01*
X1270176Y1287538D01*
X1265414Y1290288D01*
X1268164Y1295050D01*
G37*
G36*
X1382395Y1333591D02*
X1387157Y1330841D01*
X1384407Y1326079D01*
X1379645Y1328829D01*
X1382395Y1333591D01*
G37*
G36*
X1387145Y1341818D02*
X1391907Y1339068D01*
X1389157Y1334306D01*
X1384395Y1337056D01*
X1387145Y1341818D01*
G37*
G36*
X1395372Y1337068D02*
X1400134Y1334318D01*
X1397384Y1329556D01*
X1392622Y1332306D01*
X1395372Y1337068D01*
G37*
G36*
X1390622Y1328841D02*
X1395384Y1326091D01*
X1392634Y1321329D01*
X1387872Y1324079D01*
X1390622Y1328841D01*
G37*
G36*
X1067259Y1406088D02*
X1070009Y1410850D01*
X1074771Y1408100D01*
X1072021Y1403338D01*
X1067259Y1406088D01*
G37*
G36*
X1059032Y1410838D02*
X1061782Y1415600D01*
X1066544Y1412850D01*
X1063794Y1408088D01*
X1059032Y1410838D01*
G37*
G36*
X1063782Y1419065D02*
X1066532Y1423827D01*
X1071294Y1421077D01*
X1068544Y1416315D01*
X1063782Y1419065D01*
G37*
G36*
X1072009Y1414315D02*
X1074759Y1419077D01*
X1079521Y1416327D01*
X1076771Y1411565D01*
X1072009Y1414315D01*
G37*
D11*
G36*
X1090660Y1202161D02*
X1084598Y1205661D01*
X1089598Y1214321D01*
X1095660Y1210821D01*
X1090660Y1202161D01*
G37*
G36*
X1078536Y1209161D02*
X1072474Y1212661D01*
X1077474Y1221321D01*
X1083536Y1217821D01*
X1078536Y1209161D01*
G37*
D10*
G36*
X1033950Y1528061D02*
X1036700Y1532823D01*
X1041462Y1530073D01*
X1038712Y1525311D01*
X1033950Y1528061D01*
G37*
G36*
X1025723Y1532811D02*
X1028473Y1537573D01*
X1033235Y1534823D01*
X1030485Y1530061D01*
X1025723Y1532811D01*
G37*
G36*
X1030473Y1541038D02*
X1033223Y1545800D01*
X1037985Y1543050D01*
X1035235Y1538288D01*
X1030473Y1541038D01*
G37*
G36*
X1038700Y1536288D02*
X1041450Y1541050D01*
X1046212Y1538300D01*
X1043462Y1533538D01*
X1038700Y1536288D01*
G37*
G36*
X1370814Y916863D02*
X1374703Y912974D01*
X1370814Y909085D01*
X1366925Y912974D01*
X1370814Y916863D01*
G37*
G36*
X1377532Y923581D02*
X1381421Y919692D01*
X1377532Y915803D01*
X1373643Y919692D01*
X1377532Y923581D01*
G37*
G36*
X1384249Y916863D02*
X1388138Y912974D01*
X1384249Y909085D01*
X1380360Y912974D01*
X1384249Y916863D01*
G37*
G36*
X1377532Y910146D02*
X1381421Y906257D01*
X1377532Y902368D01*
X1373643Y906257D01*
X1377532Y910146D01*
G37*
G36*
X1447695Y916824D02*
X1451584Y912935D01*
X1447695Y909046D01*
X1443806Y912935D01*
X1447695Y916824D01*
G37*
G36*
X1454412Y923541D02*
X1458301Y919652D01*
X1454412Y915763D01*
X1450523Y919652D01*
X1454412Y923541D01*
G37*
G36*
X1461130Y916824D02*
X1465019Y912935D01*
X1461130Y909046D01*
X1457241Y912935D01*
X1461130Y916824D01*
G37*
G36*
X1454412Y910106D02*
X1458301Y906217D01*
X1454412Y902328D01*
X1450523Y906217D01*
X1454412Y910106D01*
G37*
G36*
X1524712Y916821D02*
X1528601Y912932D01*
X1524712Y909043D01*
X1520823Y912932D01*
X1524712Y916821D01*
G37*
G36*
X1531429Y923538D02*
X1535318Y919649D01*
X1531429Y915760D01*
X1527540Y919649D01*
X1531429Y923538D01*
G37*
G36*
X1538147Y916821D02*
X1542036Y912932D01*
X1538147Y909043D01*
X1534258Y912932D01*
X1538147Y916821D01*
G37*
G36*
X1531429Y910103D02*
X1535318Y906214D01*
X1531429Y902325D01*
X1527540Y906214D01*
X1531429Y910103D01*
G37*
G36*
X1601592Y916781D02*
X1605481Y912892D01*
X1601592Y909003D01*
X1597703Y912892D01*
X1601592Y916781D01*
G37*
G36*
X1608309Y923499D02*
X1612198Y919610D01*
X1608309Y915721D01*
X1604420Y919610D01*
X1608309Y923499D01*
G37*
G36*
X1615027Y916781D02*
X1618916Y912892D01*
X1615027Y909003D01*
X1611138Y912892D01*
X1615027Y916781D01*
G37*
G36*
X1608309Y910064D02*
X1612198Y906175D01*
X1608309Y902286D01*
X1604420Y906175D01*
X1608309Y910064D01*
G37*
D12*
X1698937Y810081D03*
X1708437Y810081D03*
X1708437Y800581D03*
X1698937Y800581D03*
X1703255Y1014542D03*
X1703255Y1024042D03*
X1712755Y1024042D03*
X1712755Y1014542D03*
D10*
G36*
X1678441Y916889D02*
X1682330Y913000D01*
X1678441Y909111D01*
X1674552Y913000D01*
X1678441Y916889D01*
G37*
G36*
X1685159Y923606D02*
X1689048Y919717D01*
X1685159Y915828D01*
X1681270Y919717D01*
X1685159Y923606D01*
G37*
G36*
X1691876Y916889D02*
X1695765Y913000D01*
X1691876Y909111D01*
X1687987Y913000D01*
X1691876Y916889D01*
G37*
G36*
X1685159Y910171D02*
X1689048Y906282D01*
X1685159Y902393D01*
X1681270Y906282D01*
X1685159Y910171D01*
G37*
D13*
X1568796Y905769D03*
X1568796Y919769D03*
D10*
G36*
X1756025Y916155D02*
X1759914Y912266D01*
X1756025Y908377D01*
X1752136Y912266D01*
X1756025Y916155D01*
G37*
G36*
X1762743Y922873D02*
X1766632Y918984D01*
X1762743Y915095D01*
X1758854Y918984D01*
X1762743Y922873D01*
G37*
G36*
X1769460Y916155D02*
X1773349Y912266D01*
X1769460Y908377D01*
X1765571Y912266D01*
X1769460Y916155D01*
G37*
G36*
X1762743Y909438D02*
X1766632Y905549D01*
X1762743Y901660D01*
X1758854Y905549D01*
X1762743Y909438D01*
G37*
G36*
X1153530Y781415D02*
X1148218Y779991D01*
X1146794Y785303D01*
X1152106Y786727D01*
X1153530Y781415D01*
G37*
G36*
X1155989Y772238D02*
X1150677Y770814D01*
X1149253Y776126D01*
X1154565Y777550D01*
X1155989Y772238D01*
G37*
G36*
X1146813Y769780D02*
X1141501Y768356D01*
X1140077Y773668D01*
X1145389Y775092D01*
X1146813Y769780D01*
G37*
G36*
X1144354Y778956D02*
X1139042Y777532D01*
X1137618Y782844D01*
X1142930Y784268D01*
X1144354Y778956D01*
G37*
D12*
X1142054Y917693D03*
X1151554Y917693D03*
X1151554Y908193D03*
X1142054Y908193D03*
D10*
G36*
X1216992Y916835D02*
X1220881Y912946D01*
X1216992Y909057D01*
X1213103Y912946D01*
X1216992Y916835D01*
G37*
G36*
X1223710Y923553D02*
X1227599Y919664D01*
X1223710Y915775D01*
X1219821Y919664D01*
X1223710Y923553D01*
G37*
G36*
X1230427Y916835D02*
X1234316Y912946D01*
X1230427Y909057D01*
X1226538Y912946D01*
X1230427Y916835D01*
G37*
G36*
X1223710Y910118D02*
X1227599Y906229D01*
X1223710Y902340D01*
X1219821Y906229D01*
X1223710Y910118D01*
G37*
G36*
X1293922Y916882D02*
X1297811Y912993D01*
X1293922Y909104D01*
X1290033Y912993D01*
X1293922Y916882D01*
G37*
G36*
X1300640Y923600D02*
X1304529Y919711D01*
X1300640Y915822D01*
X1296751Y919711D01*
X1300640Y923600D01*
G37*
G36*
X1307357Y916882D02*
X1311246Y912993D01*
X1307357Y909104D01*
X1303468Y912993D01*
X1307357Y916882D01*
G37*
G36*
X1300640Y910165D02*
X1304529Y906276D01*
X1300640Y902387D01*
X1296751Y906276D01*
X1300640Y910165D01*
G37*
D12*
X1418517Y802646D03*
X1428017Y802646D03*
X1428017Y793146D03*
X1418517Y793146D03*
X1509009Y713489D03*
X1518509Y713489D03*
X1518509Y703989D03*
X1509009Y703989D03*
X1419725Y1022652D03*
X1419725Y1032152D03*
X1429225Y1032152D03*
X1429225Y1022652D03*
D13*
X1257070Y906673D03*
X1257070Y920673D03*
D12*
X1508702Y1112486D03*
X1508702Y1121986D03*
X1518202Y1121986D03*
X1518202Y1112486D03*
D11*
G36*
X1314517Y171464D02*
X1318017Y165402D01*
X1309357Y160402D01*
X1305857Y166464D01*
X1314517Y171464D01*
G37*
G36*
X1321517Y159339D02*
X1325017Y153277D01*
X1316357Y148277D01*
X1312857Y154339D01*
X1321517Y159339D01*
G37*
G36*
X1326680Y195598D02*
X1332742Y199098D01*
X1337742Y190438D01*
X1331680Y186938D01*
X1326680Y195598D01*
G37*
G36*
X1338804Y202598D02*
X1344866Y206098D01*
X1349866Y197438D01*
X1343804Y193938D01*
X1338804Y202598D01*
G37*
G36*
X1319060Y208796D02*
X1325122Y212296D01*
X1330122Y203636D01*
X1324060Y200136D01*
X1319060Y208796D01*
G37*
G36*
X1331184Y215796D02*
X1337246Y219296D01*
X1342246Y210636D01*
X1336184Y207136D01*
X1331184Y215796D01*
G37*
G36*
X1335843Y118766D02*
X1341905Y122266D01*
X1346905Y113606D01*
X1340843Y110106D01*
X1335843Y118766D01*
G37*
G36*
X1347968Y125766D02*
X1354030Y129266D01*
X1359030Y120606D01*
X1352968Y117106D01*
X1347968Y125766D01*
G37*
G36*
X1351410Y133805D02*
X1345348Y130305D01*
X1340348Y138965D01*
X1346410Y142465D01*
X1351410Y133805D01*
G37*
G36*
X1339285Y126805D02*
X1333223Y123305D01*
X1328223Y131965D01*
X1334285Y135465D01*
X1339285Y126805D01*
G37*
G36*
X1348021Y143395D02*
X1354083Y146895D01*
X1359083Y138235D01*
X1353021Y134735D01*
X1348021Y143395D01*
G37*
G36*
X1360145Y150395D02*
X1366207Y153895D01*
X1371207Y145235D01*
X1365145Y141735D01*
X1360145Y150395D01*
G37*
G36*
X1331521Y142853D02*
X1325459Y139353D01*
X1320459Y148013D01*
X1326521Y151513D01*
X1331521Y142853D01*
G37*
G36*
X1319397Y135853D02*
X1313335Y132353D01*
X1308335Y141013D01*
X1314397Y144513D01*
X1319397Y135853D01*
G37*
D14*
G36*
X1354661Y165634D02*
X1360160Y156108D01*
X1357995Y154858D01*
X1352496Y164384D01*
X1354661Y165634D01*
G37*
G36*
X1342161Y187285D02*
X1347660Y177759D01*
X1345495Y176509D01*
X1339996Y186035D01*
X1342161Y187285D01*
G37*
G36*
X1349032Y162384D02*
X1354531Y152858D01*
X1352366Y151608D01*
X1346867Y161134D01*
X1349032Y162384D01*
G37*
G36*
X1336532Y184035D02*
X1342031Y174509D01*
X1339866Y173259D01*
X1334367Y182785D01*
X1336532Y184035D01*
G37*
D15*
G36*
X1330902Y180785D02*
X1334401Y174723D01*
X1332236Y173473D01*
X1328737Y179535D01*
X1330902Y180785D01*
G37*
D14*
G36*
X1326119Y161570D02*
X1335645Y167069D01*
X1336895Y164904D01*
X1327369Y159405D01*
X1326119Y161570D01*
G37*
G36*
X1328619Y157239D02*
X1338145Y162738D01*
X1339395Y160573D01*
X1329869Y155074D01*
X1328619Y157239D01*
G37*
D15*
G36*
X1323619Y165900D02*
X1329681Y169399D01*
X1330931Y167234D01*
X1324869Y163735D01*
X1323619Y165900D01*
G37*
G36*
X1321119Y170230D02*
X1327181Y173729D01*
X1328431Y171564D01*
X1322369Y168065D01*
X1321119Y170230D01*
G37*
G36*
X1331119Y152909D02*
X1337181Y156408D01*
X1338431Y154243D01*
X1332369Y150744D01*
X1331119Y152909D01*
G37*
G36*
X1333619Y148579D02*
X1339681Y152078D01*
X1340931Y149913D01*
X1334869Y146414D01*
X1333619Y148579D01*
G37*
M02*
