M48
;GenerationSoftware,Autodesk,EAGLE,9.6.2*%
;CreationDate,2023-04-13T19:44:03Z*%
FMAT,2
ICI,OFF
METRIC,TZ,000.000
T4C0.300
T3C0.350
T2C0.500
T1C1.016
%
G90
M71
T1
X180372Y12594
X196372Y12594
X193832Y12594
X191292Y12594
X188752Y12594
X177832Y12594
X172752Y12594
X175292Y12594
T2
X233282Y3790
X231608Y3890
X231983Y4540
X247112Y12134
X247112Y10634
X245581Y12134
X245581Y10634
X265124Y23915
X264374Y23915
X265124Y22415
X264374Y22415
X263593Y23915
X263593Y22415
X287124Y23915
X286374Y23915
X287124Y22415
X286374Y22415
X285593Y23915
X285593Y22415
X304874Y12165
X304124Y12165
X304874Y10665
X304124Y10665
X303343Y12165
X303343Y10665
X318999Y12165
X318249Y12165
X318999Y10665
X318249Y10665
X317468Y12165
X317468Y10665
X265249Y160165
X264499Y160165
X265249Y158665
X264499Y158665
X263718Y160165
X263718Y158665
X287124Y160165
X286374Y160165
X287124Y158665
X286374Y158665
X285593Y160165
X285593Y158665
X329707Y27285
X329332Y26635
X331006Y26535
X330631Y25885
X328941Y25959
X330240Y25209
X328775Y48877
X328400Y48228
X330074Y48127
X329699Y47478
X328009Y47551
X329308Y46801
X339650Y67752
X339275Y67103
X340949Y67002
X340574Y66353
X338884Y66426
X340183Y65676
X358775Y77627
X358400Y76978
X360074Y76877
X359699Y76228
X358009Y76301
X359308Y75551
X191400Y107002
X191025Y106353
X192699Y106252
X192324Y105603
X190634Y105676
X191933Y104926
X210650Y116877
X210275Y116228
X211949Y116127
X211574Y115478
X209884Y115551
X211183Y114801
X221525Y135752
X221150Y135103
X222824Y135002
X222449Y134353
X220759Y134426
X222058Y133676
X364746Y87871
X364371Y87222
X365670Y86472
X185073Y96002
X186372Y95252
X184682Y95325
X185981Y94575
X220539Y157398
X220164Y156749
X221838Y156648
X221463Y155999
X219773Y156072
X221072Y155322
X220893Y27285
X221268Y26635
X219594Y26535
X219969Y25885
X221659Y25959
X220360Y25209
X221825Y48877
X222200Y48228
X220526Y48127
X220901Y47478
X222591Y47551
X221292Y46801
X210950Y67752
X211325Y67103
X209651Y67002
X210026Y66353
X211716Y66426
X210417Y65676
X191825Y77627
X192200Y76978
X190526Y76877
X190901Y76228
X192591Y76301
X191292Y75551
X359200Y107002
X359575Y106353
X357901Y106252
X358276Y105603
X359966Y105676
X358667Y104926
X339950Y116877
X340325Y116228
X338651Y116127
X339026Y115478
X340716Y115551
X339417Y114801
X329075Y135752
X329450Y135103
X327776Y135002
X328151Y134353
X329841Y134426
X328542Y133676
X185854Y87871
X186229Y87222
X184930Y86472
X365528Y96002
X364229Y95252
X364619Y94575
X330062Y157398
X330437Y156749
X328763Y156648
X329138Y155999
X330827Y156072
X329528Y155322
X184478Y87216
X147950Y3790
X146651Y4540
X133693Y3140
X133318Y3790
X134992Y3890
X134617Y4540
X119488Y12134
X120238Y12134
X119488Y10634
X120238Y10634
X121019Y12134
X121019Y10634
X101476Y23915
X102226Y23915
X101476Y22415
X102226Y22415
X103007Y23915
X103007Y22415
X79476Y23915
X80226Y23915
X79476Y22415
X80226Y22415
X81007Y23915
X81007Y22415
X61726Y12165
X62476Y12165
X61726Y10665
X62476Y10665
X63257Y12165
X63257Y10665
X47601Y12165
X48351Y12165
X47601Y10665
X48351Y10665
X49132Y12165
X49132Y10665
X101351Y160165
X102101Y160165
X101351Y158665
X102101Y158665
X102882Y160165
X102882Y158665
X79476Y160165
X80226Y160165
X79476Y158665
X80226Y158665
X81007Y160165
X81007Y158665
X36893Y27285
X37268Y26635
X35594Y26535
X35969Y25885
X37659Y25959
X36360Y25209
X37825Y48877
X38200Y48228
X36526Y48127
X36901Y47478
X38591Y47551
X37292Y46801
X26950Y67752
X27325Y67103
X25651Y67002
X26026Y66353
X27716Y66426
X26417Y65676
X7825Y77627
X8200Y76978
X6526Y76877
X6901Y76228
X8591Y76301
X7292Y75551
X175200Y107002
X175575Y106353
X173901Y106252
X174276Y105603
X175966Y105676
X174667Y104926
X155950Y116877
X156325Y116228
X154651Y116127
X155026Y115478
X155417Y114801
X145075Y135752
X145450Y135103
X143776Y135002
X144151Y134353
X145841Y134426
X144542Y133676
X1854Y87871
X2229Y87222
X930Y86472
X181527Y96002
X180228Y95252
X181918Y95325
X180619Y94575
X146061Y157398
X146436Y156749
X144762Y156648
X145137Y155999
X146827Y156072
X145528Y155322
X145707Y27285
X147006Y26535
X144941Y25959
X146240Y25209
X144775Y48877
X144400Y48228
X146074Y48127
X145699Y47478
X144009Y47551
X145308Y46801
X155650Y67752
X155275Y67103
X156949Y67002
X156574Y66353
X154884Y66426
X156183Y65676
X174775Y77627
X174400Y76978
X176074Y76877
X156716Y115551
X174009Y76301
X175308Y75551
X7400Y107002
X7025Y106353
X8699Y106252
X8324Y105603
X6634Y105676
X7933Y104926
X26650Y116877
X26275Y116228
X27949Y116127
X27574Y115478
X25884Y115551
X27183Y114801
X37525Y135752
X37150Y135103
X38824Y135002
X38449Y134353
X36759Y134426
X38058Y133676
X180746Y87871
X180371Y87222
X181670Y86472
X1072Y96002
X2371Y95252
X1981Y94575
X36538Y157398
X36163Y156749
X37837Y156648
X37462Y155999
X35773Y156072
X37072Y155322
X182122Y87216
X135367Y3241
X232907Y3140
X175699Y76228
T3
X139994Y5771
X225672Y6312
X137340Y11631
X229420Y11540
X186800Y18200
T4
X117048Y92842
X117854Y92846
X117439Y102717
X114239Y108259
X113459Y107809
X113789Y109039
X116659Y102267
X117889Y101937
X94443Y119688
X88043Y119688
X88043Y118788
X87143Y119688
X94443Y118788
X95343Y119688
X65048Y79859
X68248Y74317
X69028Y74767
X68698Y73537
X65828Y80309
X64598Y80639
X68248Y108259
X65048Y102717
X65828Y102267
X64598Y101937
X69028Y107809
X68698Y109039
X88043Y62888
X88043Y63788
X87143Y62888
X114239Y74317
X117439Y79859
X116659Y80309
X117889Y80639
X113459Y74767
X113789Y73537
X135316Y11023
X136248Y17999
X135588Y17618
X136908Y18380
X135420Y20043
X135039Y20703
X134658Y21363
X136080Y20424
X135699Y21084
X135318Y21744
X134277Y22023
X134937Y22404
X134556Y23064
X134175Y23724
X133896Y22683
X133515Y23343
X133236Y22302
X132855Y22962
X253400Y78565
X264400Y72165
X258300Y65165
X254500Y58565
X239400Y54565
X227100Y51165
X251200Y52565
X258000Y40765
X261300Y29465
X246800Y45165
X242900Y38565
X239100Y31865
X226100Y29965
X235900Y25765
X243300Y17565
X248500Y48465
X256600Y62265
X240900Y35365
X234270Y23605
X262900Y73165
X263300Y73865
X263700Y74565
X253359Y103942
X253316Y91216
X244204Y92998
X236588Y92989
X225574Y104066
X216479Y113018
X229742Y92847
X222923Y81058
X214787Y72550
X221133Y92958
X213468Y93035
X205765Y92976
X197620Y103284
X198882Y92697
X190534Y92958
X195481Y82189
X224841Y93135
X240842Y93021
X209696Y93167
X195991Y93106
X253432Y93015
X254238Y93018
X255044Y93022
X275315Y116666
X264273Y110340
X261260Y119123
X257445Y125714
X261531Y140791
X264736Y153143
X253898Y131572
X240279Y131583
X228843Y134375
X249690Y139082
X245924Y145760
X242022Y152400
X246876Y164609
X238339Y158222
X234390Y165582
X227538Y155913
X251698Y135960
X259599Y122045
X244153Y149092
X237247Y160931
X265889Y111139
X266295Y110443
X266701Y109746
X297313Y104014
X286313Y110414
X292413Y117414
X296213Y124014
X311313Y128014
X323613Y131414
X299513Y130014
X292713Y141814
X289413Y153114
X303913Y137414
X307813Y144014
X311613Y150714
X324613Y152614
X314813Y156814
X319213Y163914
X307413Y165014
X302213Y134114
X294113Y120314
X309813Y147214
X316613Y159114
X287813Y109414
X287413Y108714
X287013Y108014
X297355Y78636
X297397Y91363
X306509Y89580
X314125Y89589
X325139Y78512
X334234Y69560
X320971Y89731
X327790Y101520
X335926Y110028
X329580Y89621
X337246Y89543
X344948Y89602
X353093Y79294
X351831Y89881
X360180Y89620
X355232Y100389
X325872Y89443
X309871Y89558
X341017Y89411
X354723Y89472
X297281Y89564
X296475Y89560
X295669Y89556
X275398Y65912
X286441Y72238
X289453Y63455
X293269Y56864
X289183Y41787
X285977Y29435
X296815Y51007
X310434Y50996
X321870Y48203
X301023Y43496
X304789Y36819
X308691Y30178
X303837Y17969
X312374Y24356
X316323Y16996
X323176Y26665
X299015Y46618
X291114Y60533
X306560Y33487
X313466Y21648
X284825Y71439
X284418Y72135
X284012Y72832
X233017Y18984
X233398Y19644
X233779Y20303
X234160Y20963
X232357Y19365
X232738Y20025
X233119Y20684
X233500Y21344
X233881Y22004
X233221Y22385
X232840Y21725
X232459Y21065
X232078Y20406
X231697Y19746
X231037Y20127
X231418Y20787
X231799Y21446
X232180Y22106
X232561Y22766
X225172Y5446
X224306Y5946
X224806Y6812
X223440Y6446
X223940Y7312
X91285Y65911
X102327Y72237
X105340Y63454
X109155Y56864
X105069Y41787
X101864Y29434
X112702Y51006
X126321Y50995
X137757Y48203
X116910Y43495
X120676Y36818
X124578Y30177
X119724Y17968
X128261Y24356
X139062Y26664
X114902Y46617
X107001Y60532
X122447Y33486
X129317Y21864
X100711Y71438
X100305Y72135
X99899Y72831
X69287Y78564
X80287Y72164
X74187Y65164
X70387Y58564
X55287Y54564
X42987Y51164
X67087Y52564
X73887Y40764
X77187Y29464
X62687Y45164
X58787Y38564
X54987Y31864
X41987Y29964
X51787Y25764
X47387Y18664
X59187Y17564
X64387Y48464
X72487Y62264
X56787Y35364
X49987Y23464
X78787Y73164
X79187Y73864
X79587Y74564
X69245Y103941
X69203Y91215
X60091Y92997
X52475Y92988
X41461Y104065
X32366Y113017
X45629Y92846
X38810Y81057
X30674Y72549
X37020Y92957
X29354Y93034
X21652Y92975
X13507Y103283
X14769Y92696
X6420Y92957
X11368Y82188
X40728Y93134
X56729Y93020
X25583Y93166
X11877Y93105
X69319Y93014
X70125Y93017
X70931Y93021
X91202Y116665
X80159Y110339
X77147Y119122
X73331Y125713
X77417Y140790
X80623Y153142
X69785Y131571
X56166Y131582
X44730Y134374
X65577Y139081
X61811Y145759
X57909Y152400
X62763Y164608
X54226Y158221
X50277Y165581
X43424Y155912
X67585Y135959
X75486Y122044
X60040Y149091
X53134Y160930
X81775Y111138
X82182Y110442
X82588Y109745
X113200Y104013
X102200Y110413
X108300Y117413
X112100Y124013
X127200Y128013
X139500Y131413
X115400Y130013
X108600Y141813
X105300Y153113
X119800Y137413
X123700Y144013
X127500Y150713
X279457Y119689
X130700Y156813
X135100Y163913
X123300Y165013
X118100Y134113
X110000Y120313
X125700Y147213
X132500Y159113
X103700Y109413
X103300Y108713
X102900Y108013
X113241Y78635
X113284Y91362
X122396Y89579
X130012Y89588
X141026Y78511
X150121Y69559
X136858Y89730
X143677Y101519
X151813Y110027
X145467Y89620
X153132Y89542
X160835Y89601
X168980Y79293
X167718Y89880
X176066Y89619
X171119Y100389
X141759Y89442
X125758Y89557
X156904Y89410
X170609Y89471
X113168Y89563
X112362Y89559
X111556Y89556
X132692Y18468
X132311Y19128
X131930Y19788
X131549Y20448
X132032Y18087
X131651Y18747
X131270Y19407
X130889Y20067
X130508Y20727
X129848Y20346
X130229Y19686
X130610Y19026
X130991Y18366
X131372Y17706
X130712Y17325
X130331Y17985
X129950Y18645
X129569Y19305
X129188Y19965
X140494Y4905
X139628Y4405
X139128Y5271
X138762Y3905
X138262Y4771
X250400Y76865
X263200Y69365
X265000Y70165
X259357Y50889
X255157Y44889
X244857Y25289
X240657Y19689
X104359Y71757
X118231Y57232
X121327Y50594
X133151Y31874
X135901Y25437
X253400Y51765
X262528Y30745
X229269Y49877
X259222Y42871
X241572Y53266
X256797Y59124
X260709Y65758
X230100Y24965
X253500Y76865
X234100Y33665
X244600Y50765
X249000Y59165
X244307Y18736
X238196Y24851
X228195Y28493
X241423Y32509
X245263Y39144
X249106Y45819
X240700Y18565
X246000Y25565
X255400Y43365
X260300Y51165
X261200Y63465
X251884Y89696
X230149Y90542
X216510Y72127
X216449Y110496
X225358Y81053
X225536Y101536
X238221Y91280
X245923Y91209
X195843Y95561
X251936Y103005
X207900Y95479
X224830Y95554
X236664Y95458
X192067Y91339
X196999Y81902
X199240Y90252
X197393Y100734
X207485Y91287
X215150Y91278
X222853Y91288
X262241Y110820
X252106Y130066
X229338Y132671
X262536Y151908
X241492Y129471
X259320Y139559
X256781Y123445
X260570Y116740
X239300Y162286
X273793Y117430
X245256Y151803
X253787Y137178
X259620Y126882
X233755Y163445
X228048Y154456
X236400Y156690
X244554Y163530
X241419Y150067
X245244Y143424
X249104Y136758
X285713Y112414
X297313Y130814
X288185Y151833
X321444Y132702
X291491Y139707
X309141Y129312
X293916Y123454
X290004Y116820
X318813Y158014
X297213Y105714
X312713Y147614
X304313Y132914
X298313Y122714
X317045Y163395
X306406Y163842
X312517Y157727
X322518Y154086
X309291Y150069
X305451Y143435
X301608Y136759
X298829Y92882
X320564Y92036
X334203Y110451
X334265Y72082
X325356Y101525
X325178Y81043
X312492Y91299
X304791Y91369
X354870Y87017
X298777Y79573
X342813Y87100
X325883Y87024
X314049Y87120
X358646Y91239
X353715Y100676
X351474Y92326
X353321Y81845
X343228Y91291
X335563Y91300
X327860Y91290
X288473Y71758
X298608Y52512
X321375Y49907
X288177Y30670
X309221Y53107
X291393Y43020
X293933Y59133
X290143Y65839
X311413Y20292
X276920Y65148
X305457Y30775
X296926Y45400
X291093Y55696
X316958Y19133
X322665Y28123
X314313Y25888
X306159Y19048
X309294Y32512
X305469Y39154
X301609Y45820
X221516Y6113
X221241Y7138
X221790Y5089
X138088Y2073
X137063Y2347
X139112Y1798
X114494Y52511
X137262Y49907
X104064Y30669
X125108Y53106
X107280Y43019
X109819Y59133
X106030Y65838
X126054Y18933
X92807Y65148
X120519Y26747
X110960Y44390
X105886Y52400
X138552Y28122
X130200Y25887
X122046Y19047
X125181Y32511
X121356Y39153
X117496Y45819
X136896Y24912
X133484Y33002
X122769Y50043
X118464Y58187
X257500Y56765
X80887Y70164
X69287Y51764
X78415Y30744
X45156Y49876
X75109Y42870
X57459Y53265
X72684Y59123
X76596Y65758
X47787Y24564
X69387Y76864
X53887Y34964
X62287Y49664
X68287Y59864
X49555Y19182
X60194Y18735
X54083Y24850
X44082Y28492
X57309Y32509
X61149Y39143
X64992Y45818
X67771Y89695
X46036Y90541
X32397Y72126
X32335Y110495
X41244Y81052
X41423Y101535
X54108Y91279
X61809Y91208
X11730Y95560
X67823Y103004
X23787Y95478
X40717Y95553
X52551Y95457
X7954Y91339
X12885Y81901
X15126Y90251
X13279Y100733
X23372Y91286
X31037Y91278
X38740Y91287
X78127Y110820
X67992Y130065
X45225Y132670
X78423Y151907
X57379Y129471
X75207Y139558
X72667Y123444
X76457Y116739
X55187Y162285
X89680Y117429
X61143Y151802
X69674Y137178
X75507Y126881
X49642Y163444
X43935Y154455
X52287Y156689
X60441Y163529
X57306Y150066
X61131Y143423
X64991Y136757
X101600Y112413
X113200Y130813
X104072Y151832
X137331Y132701
X107378Y139707
X125028Y129311
X109803Y123453
X105891Y116819
X134700Y158013
X113100Y105713
X128600Y147613
X120200Y132913
X114200Y122713
X132932Y163394
X122293Y163842
X128404Y157726
X138405Y154085
X125177Y150068
X121337Y143434
X117494Y136758
X114716Y92881
X136451Y92035
X150090Y110451
X150151Y72081
X141242Y101524
X141064Y81042
X128379Y91298
X120677Y91368
X170757Y87016
X114664Y79572
X158700Y87099
X141770Y87023
X129936Y87119
X174533Y91238
X169601Y100675
X167360Y92325
X169207Y81844
X159115Y91290
X240400Y51165
X143747Y91289
X228700Y48265
X253300Y49965
X261400Y41665
X264800Y29465
X249800Y43465
X245900Y36665
X242200Y30165
X227800Y26865
X238200Y23465
X246600Y17465
X251500Y46665
X259600Y60565
X244100Y33565
X237470Y21965
X264200Y68865
X263800Y68165
X263400Y67465
X250386Y105690
X250291Y90855
X244182Y89637
X236529Y89491
X223129Y101500
X214768Y110183
X228540Y89728
X225402Y78564
X216537Y69519
X221161Y89509
X213322Y89487
X205843Y89441
X195785Y100262
X198041Y89555
X190238Y89669
X197044Y79281
X224782Y89637
X240870Y89572
X209737Y89496
X195895Y89471
X250358Y89739
X249552Y89735
X248746Y89732
X275343Y120114
X262448Y112779
X258338Y117461
X254386Y124016
X258086Y141625
X261425Y153207
X250597Y131053
X239359Y128188
X227093Y131344
X246718Y137334
X242779Y144111
X239000Y150566
X243342Y164687
X235197Y157380
X231395Y164194
X225801Y153105
X248639Y134262
X256627Y120297
X240994Y147220
X234052Y159196
X261515Y112163
X261108Y112860
X260702Y113556
X300313Y105714
X287513Y113214
X289513Y119114
X293213Y125814
X310313Y131414
X322013Y134314
X297413Y132614
X289313Y140914
X285913Y153114
X300913Y139114
X304813Y145914
X308513Y152414
X322913Y155714
X312513Y159114
X316513Y165814
X304113Y165114
X299213Y135914
X291113Y122014
X306613Y149014
X313513Y161014
X286513Y113714
X286913Y114414
X287313Y115114
X300327Y76888
X300422Y91723
X306532Y92941
X314184Y93087
X327584Y81078
X335945Y72396
X322173Y92850
X325311Y104015
X334176Y113059
X329552Y93069
X337391Y93091
X344870Y93137
X354928Y82316
X352673Y93023
X360475Y92909
X353669Y103297
X325931Y92941
X309843Y93006
X340976Y93082
X354818Y93107
X300355Y92839
X301161Y92843
X301968Y92847
X275370Y62464
X288265Y69799
X292375Y65117
X296327Y58563
X292627Y40954
X289289Y29371
X300116Y51525
X311354Y54390
X323620Y51235
X303996Y45244
X307935Y38467
X311714Y32012
X307372Y17892
X315516Y25198
X319318Y18384
X324912Y29473
X302074Y48316
X294086Y62281
X309719Y35358
X316661Y23382
X289198Y70415
X289605Y69719
X290011Y69022
X298352Y74318
X301552Y79860
X300772Y80310
X302002Y80640
X297572Y74768
X297902Y73538
X301552Y102718
X298352Y108260
X297572Y107810
X297902Y109040
X300772Y102268
X302002Y101938
X252361Y108260
X249161Y102718
X249941Y102268
X248711Y101938
X253141Y107810
X252811Y109040
X278557Y119689
X272157Y119689
X272157Y118789
X271257Y119689
X278557Y118789
X249161Y79860
X249941Y80310
X248711Y80640
X140500Y152613
X272157Y62889
X278557Y62889
X278557Y63789
X279457Y62889
X272157Y63789
X271257Y62889
X227881Y12988
X234389Y15669
X233729Y16050
X235049Y15288
X235745Y17409
X236126Y18069
X236507Y18729
X236405Y17028
X236786Y17688
X237167Y18348
X236888Y19389
X237548Y19008
X237929Y19667
X238310Y20327
X237269Y20048
X237650Y20708
X236609Y20429
X236990Y21089
X91257Y62463
X104152Y69798
X108262Y65116
X112214Y58562
X108514Y40953
X105175Y29370
X116003Y51524
X127241Y54389
X139507Y51234
X119882Y45243
X123821Y38466
X127600Y32011
X123258Y17891
X131403Y25197
X140799Y29472
X117961Y48316
X109973Y62280
X125606Y35357
X132337Y23815
X105085Y70414
X105492Y69718
X105898Y69021
X66287Y76864
X79087Y69364
X77087Y63464
X73387Y56764
X56287Y51164
X44587Y48264
X69187Y49964
X77287Y41664
X80687Y29464
X65687Y43464
X61787Y36664
X58087Y30164
X43687Y26864
X54087Y23464
X50087Y16764
X62487Y17464
X67387Y46664
X75487Y60564
X59987Y33564
X53087Y21564
X80087Y68864
X79687Y68164
X79287Y67464
X66273Y105689
X66178Y90854
X60068Y89636
X52416Y89490
X39016Y101499
X30655Y110182
X44427Y89728
X41289Y78563
X32424Y69518
X37048Y89509
X29209Y89486
X21730Y89440
X11672Y100261
X13927Y89554
X6125Y89669
X12931Y79280
X40669Y89636
X56757Y89572
X25624Y89495
X11782Y89471
X66245Y89738
X65439Y89734
X64632Y89731
X91230Y120113
X78335Y112778
X74225Y117460
X70273Y124015
X73973Y141624
X77311Y153206
X66484Y131052
X55246Y128187
X42980Y131343
X62604Y137333
X58666Y144111
X54886Y150565
X59228Y164686
X51084Y157379
X47282Y164193
X41688Y153104
X64526Y134261
X72514Y120296
X56881Y147219
X49939Y159195
X77402Y112162
X76995Y112859
X76589Y113555
X116200Y105713
X103400Y113213
X105400Y119113
X109100Y125813
X126200Y131413
X137900Y134313
X113300Y132613
X105200Y140913
X101800Y153113
X116800Y139113
X120700Y145913
X124400Y152413
X138800Y155713
X128400Y159113
X132400Y165813
X120000Y165113
X115100Y135913
X107000Y122013
X122500Y149013
X129400Y161013
X102400Y113713
X102800Y114413
X103200Y115113
X116214Y76887
X116309Y91723
X122418Y92940
X130071Y93086
X143471Y81077
X151832Y72395
X138060Y92849
X141198Y104014
X150063Y113058
X145439Y93068
X153278Y93090
X160757Y93136
X170815Y82315
X168559Y93022
X176362Y92908
X169556Y103296
X141818Y92940
X125730Y93005
X156863Y93081
X170705Y93106
X116242Y92839
X151450Y91299
M30