G04 EAGLE Gerber RS-274X export*
G75*
%MOMM*%
%FSLAX34Y34*%
%LPD*%
%INSolderpaste Bottom*%
%IPPOS*%
%AMOC8*
5,1,8,0,0,1.08239X$1,22.5*%
G01*
%ADD10R,0.550000X0.550000*%
%ADD11R,0.550000X0.550000*%
%ADD12R,0.700000X1.000000*%


D10*
G36*
X608426Y722906D02*
X604537Y726795D01*
X608426Y730684D01*
X612315Y726795D01*
X608426Y722906D01*
G37*
G36*
X615144Y729623D02*
X611255Y733512D01*
X615144Y737401D01*
X619033Y733512D01*
X615144Y729623D01*
G37*
G36*
X608426Y736341D02*
X604537Y740230D01*
X608426Y744119D01*
X612315Y740230D01*
X608426Y736341D01*
G37*
G36*
X601709Y729623D02*
X597820Y733512D01*
X601709Y737401D01*
X605598Y733512D01*
X601709Y729623D01*
G37*
G36*
X608426Y644166D02*
X604537Y648055D01*
X608426Y651944D01*
X612315Y648055D01*
X608426Y644166D01*
G37*
G36*
X615144Y650883D02*
X611255Y654772D01*
X615144Y658661D01*
X619033Y654772D01*
X615144Y650883D01*
G37*
G36*
X608426Y657601D02*
X604537Y661490D01*
X608426Y665379D01*
X612315Y661490D01*
X608426Y657601D01*
G37*
G36*
X601709Y650883D02*
X597820Y654772D01*
X601709Y658661D01*
X605598Y654772D01*
X601709Y650883D01*
G37*
G36*
X608426Y565680D02*
X604537Y569569D01*
X608426Y573458D01*
X612315Y569569D01*
X608426Y565680D01*
G37*
G36*
X615144Y572397D02*
X611255Y576286D01*
X615144Y580175D01*
X619033Y576286D01*
X615144Y572397D01*
G37*
G36*
X608426Y579115D02*
X604537Y583004D01*
X608426Y586893D01*
X612315Y583004D01*
X608426Y579115D01*
G37*
G36*
X601709Y572397D02*
X597820Y576286D01*
X601709Y580175D01*
X605598Y576286D01*
X601709Y572397D01*
G37*
D11*
X539668Y516418D03*
X549168Y516418D03*
X549168Y525918D03*
X539668Y525918D03*
X481502Y457744D03*
X491002Y457744D03*
X491002Y467244D03*
X481502Y467244D03*
X677438Y516418D03*
X677438Y525918D03*
X667938Y525918D03*
X667938Y516418D03*
D12*
X601426Y695432D03*
X615426Y695432D03*
D11*
X735604Y457490D03*
X735604Y466990D03*
X726104Y466990D03*
X726104Y457490D03*
D10*
G36*
X608426Y486940D02*
X604537Y490829D01*
X608426Y494718D01*
X612315Y490829D01*
X608426Y486940D01*
G37*
G36*
X615144Y493657D02*
X611255Y497546D01*
X615144Y501435D01*
X619033Y497546D01*
X615144Y493657D01*
G37*
G36*
X608426Y500375D02*
X604537Y504264D01*
X608426Y508153D01*
X612315Y504264D01*
X608426Y500375D01*
G37*
G36*
X601709Y493657D02*
X597820Y497546D01*
X601709Y501435D01*
X605598Y497546D01*
X601709Y493657D01*
G37*
G36*
X608426Y408200D02*
X604537Y412089D01*
X608426Y415978D01*
X612315Y412089D01*
X608426Y408200D01*
G37*
G36*
X615144Y414917D02*
X611255Y418806D01*
X615144Y422695D01*
X619033Y418806D01*
X615144Y414917D01*
G37*
G36*
X608426Y421635D02*
X604537Y425524D01*
X608426Y429413D01*
X612315Y425524D01*
X608426Y421635D01*
G37*
G36*
X601709Y414917D02*
X597820Y418806D01*
X601709Y422695D01*
X605598Y418806D01*
X601709Y414917D01*
G37*
G36*
X608426Y329714D02*
X604537Y333603D01*
X608426Y337492D01*
X612315Y333603D01*
X608426Y329714D01*
G37*
G36*
X615144Y336431D02*
X611255Y340320D01*
X615144Y344209D01*
X619033Y340320D01*
X615144Y336431D01*
G37*
G36*
X608426Y343149D02*
X604537Y347038D01*
X608426Y350927D01*
X612315Y347038D01*
X608426Y343149D01*
G37*
G36*
X601709Y336431D02*
X597820Y340320D01*
X601709Y344209D01*
X605598Y340320D01*
X601709Y336431D01*
G37*
D11*
X539668Y286294D03*
X549168Y286294D03*
X549168Y295794D03*
X539668Y295794D03*
X481502Y227366D03*
X491002Y227366D03*
X491002Y236866D03*
X481502Y236866D03*
X677438Y286294D03*
X677438Y295794D03*
X667938Y295794D03*
X667938Y286294D03*
X735604Y227366D03*
X735604Y236866D03*
X726104Y236866D03*
X726104Y227366D03*
D12*
X601426Y459466D03*
X615426Y459466D03*
D10*
G36*
X608426Y250974D02*
X604537Y254863D01*
X608426Y258752D01*
X612315Y254863D01*
X608426Y250974D01*
G37*
G36*
X615144Y257691D02*
X611255Y261580D01*
X615144Y265469D01*
X619033Y261580D01*
X615144Y257691D01*
G37*
G36*
X608426Y264409D02*
X604537Y268298D01*
X608426Y272187D01*
X612315Y268298D01*
X608426Y264409D01*
G37*
G36*
X601709Y257691D02*
X597820Y261580D01*
X601709Y265469D01*
X605598Y261580D01*
X601709Y257691D01*
G37*
G36*
X608426Y172234D02*
X604537Y176123D01*
X608426Y180012D01*
X612315Y176123D01*
X608426Y172234D01*
G37*
G36*
X615144Y178951D02*
X611255Y182840D01*
X615144Y186729D01*
X619033Y182840D01*
X615144Y178951D01*
G37*
G36*
X608426Y185669D02*
X604537Y189558D01*
X608426Y193447D01*
X612315Y189558D01*
X608426Y185669D01*
G37*
G36*
X601709Y178951D02*
X597820Y182840D01*
X601709Y186729D01*
X605598Y182840D01*
X601709Y178951D01*
G37*
G36*
X530879Y767678D02*
X532303Y772990D01*
X537615Y771566D01*
X536191Y766254D01*
X530879Y767678D01*
G37*
G36*
X540055Y765219D02*
X541479Y770531D01*
X546791Y769107D01*
X545367Y763795D01*
X540055Y765219D01*
G37*
G36*
X542514Y774396D02*
X543938Y779708D01*
X549250Y778284D01*
X547826Y772972D01*
X542514Y774396D01*
G37*
G36*
X533337Y776854D02*
X534761Y782166D01*
X540073Y780742D01*
X538649Y775430D01*
X533337Y776854D01*
G37*
G36*
X462688Y728308D02*
X464112Y733620D01*
X469424Y732196D01*
X468000Y726884D01*
X462688Y728308D01*
G37*
G36*
X471864Y725849D02*
X473288Y731161D01*
X478600Y729737D01*
X477176Y724425D01*
X471864Y725849D01*
G37*
G36*
X474323Y735026D02*
X475747Y740338D01*
X481059Y738914D01*
X479635Y733602D01*
X474323Y735026D01*
G37*
G36*
X465147Y737484D02*
X466571Y742796D01*
X471883Y741372D01*
X470459Y736060D01*
X465147Y737484D01*
G37*
G36*
X394717Y689065D02*
X396141Y694377D01*
X401453Y692953D01*
X400029Y687641D01*
X394717Y689065D01*
G37*
G36*
X403893Y686606D02*
X405317Y691918D01*
X410629Y690494D01*
X409205Y685182D01*
X403893Y686606D01*
G37*
G36*
X406352Y695783D02*
X407776Y701095D01*
X413088Y699671D01*
X411664Y694359D01*
X406352Y695783D01*
G37*
G36*
X397176Y698241D02*
X398600Y703553D01*
X403912Y702129D01*
X402488Y696817D01*
X397176Y698241D01*
G37*
G36*
X313920Y724986D02*
X318682Y727736D01*
X321432Y722974D01*
X316670Y720224D01*
X313920Y724986D01*
G37*
G36*
X318670Y716759D02*
X323432Y719509D01*
X326182Y714747D01*
X321420Y711997D01*
X318670Y716759D01*
G37*
G36*
X326898Y721509D02*
X331660Y724259D01*
X334410Y719497D01*
X329648Y716747D01*
X326898Y721509D01*
G37*
G36*
X322148Y729736D02*
X326910Y732486D01*
X329660Y727724D01*
X324898Y724974D01*
X322148Y729736D01*
G37*
G36*
X234024Y746022D02*
X238786Y748772D01*
X241536Y744010D01*
X236774Y741260D01*
X234024Y746022D01*
G37*
G36*
X238774Y737795D02*
X243536Y740545D01*
X246286Y735783D01*
X241524Y733033D01*
X238774Y737795D01*
G37*
G36*
X247001Y742545D02*
X251763Y745295D01*
X254513Y740533D01*
X249751Y737783D01*
X247001Y742545D01*
G37*
G36*
X242251Y750772D02*
X247013Y753522D01*
X249763Y748760D01*
X245001Y746010D01*
X242251Y750772D01*
G37*
G36*
X385555Y600912D02*
X382805Y605674D01*
X387567Y608424D01*
X390317Y603662D01*
X385555Y600912D01*
G37*
G36*
X393783Y605662D02*
X391033Y610424D01*
X395795Y613174D01*
X398545Y608412D01*
X393783Y605662D01*
G37*
G36*
X389033Y613889D02*
X386283Y618651D01*
X391045Y621401D01*
X393795Y616639D01*
X389033Y613889D01*
G37*
G36*
X380805Y609139D02*
X378055Y613901D01*
X382817Y616651D01*
X385567Y611889D01*
X380805Y609139D01*
G37*
D12*
G36*
X506166Y765534D02*
X509666Y759472D01*
X501006Y754472D01*
X497506Y760534D01*
X506166Y765534D01*
G37*
G36*
X513166Y753410D02*
X516666Y747348D01*
X508006Y742348D01*
X504506Y748410D01*
X513166Y753410D01*
G37*
D10*
G36*
X363605Y521074D02*
X360855Y525836D01*
X365617Y528586D01*
X368367Y523824D01*
X363605Y521074D01*
G37*
G36*
X371832Y525824D02*
X369082Y530586D01*
X373844Y533336D01*
X376594Y528574D01*
X371832Y525824D01*
G37*
G36*
X367082Y534052D02*
X364332Y538814D01*
X369094Y541564D01*
X371844Y536802D01*
X367082Y534052D01*
G37*
G36*
X358855Y529302D02*
X356105Y534064D01*
X360867Y536814D01*
X363617Y532052D01*
X358855Y529302D01*
G37*
G36*
X326526Y649695D02*
X327950Y655007D01*
X333262Y653583D01*
X331838Y648271D01*
X326526Y649695D01*
G37*
G36*
X335702Y647236D02*
X337126Y652548D01*
X342438Y651124D01*
X341014Y645812D01*
X335702Y647236D01*
G37*
G36*
X338161Y656413D02*
X339585Y661725D01*
X344897Y660301D01*
X343473Y654989D01*
X338161Y656413D01*
G37*
G36*
X328985Y658871D02*
X330409Y664183D01*
X335721Y662759D01*
X334297Y657447D01*
X328985Y658871D01*
G37*
G36*
X258335Y610325D02*
X259759Y615637D01*
X265071Y614213D01*
X263647Y608901D01*
X258335Y610325D01*
G37*
G36*
X267512Y607866D02*
X268936Y613178D01*
X274248Y611754D01*
X272824Y606442D01*
X267512Y607866D01*
G37*
G36*
X269970Y617043D02*
X271394Y622355D01*
X276706Y620931D01*
X275282Y615619D01*
X269970Y617043D01*
G37*
G36*
X260794Y619501D02*
X262218Y624813D01*
X267530Y623389D01*
X266106Y618077D01*
X260794Y619501D01*
G37*
G36*
X190364Y571082D02*
X191788Y576394D01*
X197100Y574970D01*
X195676Y569658D01*
X190364Y571082D01*
G37*
G36*
X199541Y568623D02*
X200965Y573935D01*
X206277Y572511D01*
X204853Y567199D01*
X199541Y568623D01*
G37*
G36*
X202000Y577800D02*
X203424Y583112D01*
X208736Y581688D01*
X207312Y576376D01*
X202000Y577800D01*
G37*
G36*
X192823Y580258D02*
X194247Y585570D01*
X199559Y584146D01*
X198135Y578834D01*
X192823Y580258D01*
G37*
G36*
X114627Y609924D02*
X119389Y612674D01*
X122139Y607912D01*
X117377Y605162D01*
X114627Y609924D01*
G37*
G36*
X119377Y601697D02*
X124139Y604447D01*
X126889Y599685D01*
X122127Y596935D01*
X119377Y601697D01*
G37*
G36*
X127604Y606447D02*
X132366Y609197D01*
X135116Y604435D01*
X130354Y601685D01*
X127604Y606447D01*
G37*
G36*
X122854Y614674D02*
X127616Y617424D01*
X130366Y612662D01*
X125604Y609912D01*
X122854Y614674D01*
G37*
G36*
X34511Y630833D02*
X39273Y633583D01*
X42023Y628821D01*
X37261Y626071D01*
X34511Y630833D01*
G37*
G36*
X39261Y622606D02*
X44023Y625356D01*
X46773Y620594D01*
X42011Y617844D01*
X39261Y622606D01*
G37*
G36*
X47488Y627356D02*
X52250Y630106D01*
X55000Y625344D01*
X50238Y622594D01*
X47488Y627356D01*
G37*
G36*
X42738Y635583D02*
X47500Y638333D01*
X50250Y633571D01*
X45488Y630821D01*
X42738Y635583D01*
G37*
G36*
X186262Y485850D02*
X183512Y490612D01*
X188274Y493362D01*
X191024Y488600D01*
X186262Y485850D01*
G37*
G36*
X194489Y490600D02*
X191739Y495362D01*
X196501Y498112D01*
X199251Y493350D01*
X194489Y490600D01*
G37*
G36*
X189739Y498827D02*
X186989Y503589D01*
X191751Y506339D01*
X194501Y501577D01*
X189739Y498827D01*
G37*
G36*
X181512Y494077D02*
X178762Y498839D01*
X183524Y501589D01*
X186274Y496827D01*
X181512Y494077D01*
G37*
G36*
X164312Y406012D02*
X161562Y410774D01*
X166324Y413524D01*
X169074Y408762D01*
X164312Y406012D01*
G37*
G36*
X172539Y410762D02*
X169789Y415524D01*
X174551Y418274D01*
X177301Y413512D01*
X172539Y410762D01*
G37*
G36*
X167789Y418990D02*
X165039Y423752D01*
X169801Y426502D01*
X172551Y421740D01*
X167789Y418990D01*
G37*
G36*
X159562Y414240D02*
X156812Y419002D01*
X161574Y421752D01*
X164324Y416990D01*
X159562Y414240D01*
G37*
D12*
G36*
X301813Y647551D02*
X305313Y641489D01*
X296653Y636489D01*
X293153Y642551D01*
X301813Y647551D01*
G37*
G36*
X308813Y635427D02*
X312313Y629365D01*
X303653Y624365D01*
X300153Y630427D01*
X308813Y635427D01*
G37*
D10*
G36*
X122174Y531712D02*
X123598Y537024D01*
X128910Y535600D01*
X127486Y530288D01*
X122174Y531712D01*
G37*
G36*
X131350Y529253D02*
X132774Y534565D01*
X138086Y533141D01*
X136662Y527829D01*
X131350Y529253D01*
G37*
G36*
X133809Y538430D02*
X135233Y543742D01*
X140545Y542318D01*
X139121Y537006D01*
X133809Y538430D01*
G37*
G36*
X124632Y540888D02*
X126056Y546200D01*
X131368Y544776D01*
X129944Y539464D01*
X124632Y540888D01*
G37*
G36*
X53983Y492342D02*
X55407Y497654D01*
X60719Y496230D01*
X59295Y490918D01*
X53983Y492342D01*
G37*
G36*
X63159Y489883D02*
X64583Y495195D01*
X69895Y493771D01*
X68471Y488459D01*
X63159Y489883D01*
G37*
G36*
X65618Y499060D02*
X67042Y504372D01*
X72354Y502948D01*
X70930Y497636D01*
X65618Y499060D01*
G37*
G36*
X56442Y501518D02*
X57866Y506830D01*
X63178Y505406D01*
X61754Y500094D01*
X56442Y501518D01*
G37*
G36*
X530879Y857221D02*
X536191Y858645D01*
X537615Y853333D01*
X532303Y851909D01*
X530879Y857221D01*
G37*
G36*
X533337Y848045D02*
X538649Y849469D01*
X540073Y844157D01*
X534761Y842733D01*
X533337Y848045D01*
G37*
G36*
X542514Y850503D02*
X547826Y851927D01*
X549250Y846615D01*
X543938Y845191D01*
X542514Y850503D01*
G37*
G36*
X540055Y859680D02*
X545367Y861104D01*
X546791Y855792D01*
X541479Y854368D01*
X540055Y859680D01*
G37*
G36*
X462688Y896591D02*
X468000Y898015D01*
X469424Y892703D01*
X464112Y891279D01*
X462688Y896591D01*
G37*
G36*
X465147Y887415D02*
X470459Y888839D01*
X471883Y883527D01*
X466571Y882103D01*
X465147Y887415D01*
G37*
G36*
X474323Y889873D02*
X479635Y891297D01*
X481059Y885985D01*
X475747Y884561D01*
X474323Y889873D01*
G37*
G36*
X471864Y899050D02*
X477176Y900474D01*
X478600Y895162D01*
X473288Y893738D01*
X471864Y899050D01*
G37*
G36*
X394717Y935834D02*
X400029Y937258D01*
X401453Y931946D01*
X396141Y930522D01*
X394717Y935834D01*
G37*
G36*
X397176Y926658D02*
X402488Y928082D01*
X403912Y922770D01*
X398600Y921346D01*
X397176Y926658D01*
G37*
G36*
X406352Y929116D02*
X411664Y930540D01*
X413088Y925228D01*
X407776Y923804D01*
X406352Y929116D01*
G37*
G36*
X403893Y938293D02*
X409205Y939717D01*
X410629Y934405D01*
X405317Y932981D01*
X403893Y938293D01*
G37*
G36*
X385428Y1023767D02*
X390190Y1021017D01*
X387440Y1016255D01*
X382678Y1019005D01*
X385428Y1023767D01*
G37*
G36*
X380678Y1015540D02*
X385440Y1012790D01*
X382690Y1008028D01*
X377928Y1010778D01*
X380678Y1015540D01*
G37*
G36*
X388906Y1010790D02*
X393668Y1008040D01*
X390918Y1003278D01*
X386156Y1006028D01*
X388906Y1010790D01*
G37*
G36*
X393656Y1019017D02*
X398418Y1016267D01*
X395668Y1011505D01*
X390906Y1014255D01*
X393656Y1019017D01*
G37*
G36*
X363698Y1103478D02*
X368460Y1100728D01*
X365710Y1095966D01*
X360948Y1098716D01*
X363698Y1103478D01*
G37*
G36*
X358948Y1095250D02*
X363710Y1092500D01*
X360960Y1087738D01*
X356198Y1090488D01*
X358948Y1095250D01*
G37*
G36*
X367175Y1090500D02*
X371937Y1087750D01*
X369187Y1082988D01*
X364425Y1085738D01*
X367175Y1090500D01*
G37*
G36*
X371925Y1098728D02*
X376687Y1095978D01*
X373937Y1091216D01*
X369175Y1093966D01*
X371925Y1098728D01*
G37*
G36*
X313793Y899693D02*
X316543Y904455D01*
X321305Y901705D01*
X318555Y896943D01*
X313793Y899693D01*
G37*
G36*
X322021Y894943D02*
X324771Y899705D01*
X329533Y896955D01*
X326783Y892193D01*
X322021Y894943D01*
G37*
G36*
X326771Y903170D02*
X329521Y907932D01*
X334283Y905182D01*
X331533Y900420D01*
X326771Y903170D01*
G37*
G36*
X318543Y907920D02*
X321293Y912682D01*
X326055Y909932D01*
X323305Y905170D01*
X318543Y907920D01*
G37*
D12*
G36*
X516666Y877551D02*
X513166Y871489D01*
X504506Y876489D01*
X508006Y882551D01*
X516666Y877551D01*
G37*
G36*
X509666Y865427D02*
X506166Y859365D01*
X497506Y864365D01*
X501006Y870427D01*
X509666Y865427D01*
G37*
D10*
G36*
X233677Y878784D02*
X236427Y883546D01*
X241189Y880796D01*
X238439Y876034D01*
X233677Y878784D01*
G37*
G36*
X241904Y874034D02*
X244654Y878796D01*
X249416Y876046D01*
X246666Y871284D01*
X241904Y874034D01*
G37*
G36*
X246654Y882261D02*
X249404Y887023D01*
X254166Y884273D01*
X251416Y879511D01*
X246654Y882261D01*
G37*
G36*
X238427Y887011D02*
X241177Y891773D01*
X245939Y889023D01*
X243189Y884261D01*
X238427Y887011D01*
G37*
G36*
X326526Y975204D02*
X331838Y976628D01*
X333262Y971316D01*
X327950Y969892D01*
X326526Y975204D01*
G37*
G36*
X328985Y966028D02*
X334297Y967452D01*
X335721Y962140D01*
X330409Y960716D01*
X328985Y966028D01*
G37*
G36*
X338161Y968486D02*
X343473Y969910D01*
X344897Y964598D01*
X339585Y963174D01*
X338161Y968486D01*
G37*
G36*
X335702Y977663D02*
X341014Y979087D01*
X342438Y973775D01*
X337126Y972351D01*
X335702Y977663D01*
G37*
G36*
X258335Y1014574D02*
X263647Y1015998D01*
X265071Y1010686D01*
X259759Y1009262D01*
X258335Y1014574D01*
G37*
G36*
X260794Y1005398D02*
X266106Y1006822D01*
X267530Y1001510D01*
X262218Y1000086D01*
X260794Y1005398D01*
G37*
G36*
X269970Y1007856D02*
X275282Y1009280D01*
X276706Y1003968D01*
X271394Y1002544D01*
X269970Y1007856D01*
G37*
G36*
X267512Y1017033D02*
X272824Y1018457D01*
X274248Y1013145D01*
X268936Y1011721D01*
X267512Y1017033D01*
G37*
G36*
X190364Y1053817D02*
X195676Y1055241D01*
X197100Y1049929D01*
X191788Y1048505D01*
X190364Y1053817D01*
G37*
G36*
X192823Y1044641D02*
X198135Y1046065D01*
X199559Y1040753D01*
X194247Y1039329D01*
X192823Y1044641D01*
G37*
G36*
X201999Y1047099D02*
X207311Y1048523D01*
X208735Y1043211D01*
X203423Y1041787D01*
X201999Y1047099D01*
G37*
G36*
X199541Y1056276D02*
X204853Y1057700D01*
X206277Y1052388D01*
X200965Y1050964D01*
X199541Y1056276D01*
G37*
G36*
X186135Y1138829D02*
X190897Y1136079D01*
X188147Y1131317D01*
X183385Y1134067D01*
X186135Y1138829D01*
G37*
G36*
X181385Y1130602D02*
X186147Y1127852D01*
X183397Y1123090D01*
X178635Y1125840D01*
X181385Y1130602D01*
G37*
G36*
X189612Y1125852D02*
X194374Y1123102D01*
X191624Y1118340D01*
X186862Y1121090D01*
X189612Y1125852D01*
G37*
G36*
X194362Y1134079D02*
X199124Y1131329D01*
X196374Y1126567D01*
X191612Y1129317D01*
X194362Y1134079D01*
G37*
G36*
X164185Y1218667D02*
X168947Y1215917D01*
X166197Y1211155D01*
X161435Y1213905D01*
X164185Y1218667D01*
G37*
G36*
X159435Y1210439D02*
X164197Y1207689D01*
X161447Y1202927D01*
X156685Y1205677D01*
X159435Y1210439D01*
G37*
G36*
X167662Y1205689D02*
X172424Y1202939D01*
X169674Y1198177D01*
X164912Y1200927D01*
X167662Y1205689D01*
G37*
G36*
X172412Y1213917D02*
X177174Y1211167D01*
X174424Y1206405D01*
X169662Y1209155D01*
X172412Y1213917D01*
G37*
G36*
X114500Y1014755D02*
X117250Y1019517D01*
X122012Y1016767D01*
X119262Y1012005D01*
X114500Y1014755D01*
G37*
G36*
X122727Y1010005D02*
X125477Y1014767D01*
X130239Y1012017D01*
X127489Y1007255D01*
X122727Y1010005D01*
G37*
G36*
X127477Y1018232D02*
X130227Y1022994D01*
X134989Y1020244D01*
X132239Y1015482D01*
X127477Y1018232D01*
G37*
G36*
X119250Y1022982D02*
X122000Y1027744D01*
X126762Y1024994D01*
X124012Y1020232D01*
X119250Y1022982D01*
G37*
G36*
X34384Y993846D02*
X37134Y998608D01*
X41896Y995858D01*
X39146Y991096D01*
X34384Y993846D01*
G37*
G36*
X42611Y989096D02*
X45361Y993858D01*
X50123Y991108D01*
X47373Y986346D01*
X42611Y989096D01*
G37*
G36*
X47361Y997323D02*
X50111Y1002085D01*
X54873Y999335D01*
X52123Y994573D01*
X47361Y997323D01*
G37*
G36*
X39134Y1002073D02*
X41884Y1006835D01*
X46646Y1004085D01*
X43896Y999323D01*
X39134Y1002073D01*
G37*
D12*
G36*
X312313Y995534D02*
X308813Y989472D01*
X300153Y994472D01*
X303653Y1000534D01*
X312313Y995534D01*
G37*
G36*
X305313Y983410D02*
X301813Y977348D01*
X293153Y982348D01*
X296653Y988410D01*
X305313Y983410D01*
G37*
D10*
G36*
X122174Y1093187D02*
X127486Y1094611D01*
X128910Y1089299D01*
X123598Y1087875D01*
X122174Y1093187D01*
G37*
G36*
X124632Y1084011D02*
X129944Y1085435D01*
X131368Y1080123D01*
X126056Y1078699D01*
X124632Y1084011D01*
G37*
G36*
X133809Y1086469D02*
X139121Y1087893D01*
X140545Y1082581D01*
X135233Y1081157D01*
X133809Y1086469D01*
G37*
G36*
X131350Y1095646D02*
X136662Y1097070D01*
X138086Y1091758D01*
X132774Y1090334D01*
X131350Y1095646D01*
G37*
G36*
X53983Y1132557D02*
X59295Y1133981D01*
X60719Y1128669D01*
X55407Y1127245D01*
X53983Y1132557D01*
G37*
G36*
X56441Y1123381D02*
X61753Y1124805D01*
X63177Y1119493D01*
X57865Y1118069D01*
X56441Y1123381D01*
G37*
G36*
X65618Y1125839D02*
X70930Y1127263D01*
X72354Y1121951D01*
X67042Y1120527D01*
X65618Y1125839D01*
G37*
G36*
X63159Y1135016D02*
X68471Y1136440D01*
X69895Y1131128D01*
X64583Y1129704D01*
X63159Y1135016D01*
G37*
G36*
X608426Y901993D02*
X612315Y898104D01*
X608426Y894215D01*
X604537Y898104D01*
X608426Y901993D01*
G37*
G36*
X601709Y895276D02*
X605598Y891387D01*
X601709Y887498D01*
X597820Y891387D01*
X601709Y895276D01*
G37*
G36*
X608426Y888558D02*
X612315Y884669D01*
X608426Y880780D01*
X604537Y884669D01*
X608426Y888558D01*
G37*
G36*
X615144Y895276D02*
X619033Y891387D01*
X615144Y887498D01*
X611255Y891387D01*
X615144Y895276D01*
G37*
G36*
X608426Y980733D02*
X612315Y976844D01*
X608426Y972955D01*
X604537Y976844D01*
X608426Y980733D01*
G37*
G36*
X601709Y974016D02*
X605598Y970127D01*
X601709Y966238D01*
X597820Y970127D01*
X601709Y974016D01*
G37*
G36*
X608426Y967298D02*
X612315Y963409D01*
X608426Y959520D01*
X604537Y963409D01*
X608426Y967298D01*
G37*
G36*
X615144Y974016D02*
X619033Y970127D01*
X615144Y966238D01*
X611255Y970127D01*
X615144Y974016D01*
G37*
G36*
X608426Y1059219D02*
X612315Y1055330D01*
X608426Y1051441D01*
X604537Y1055330D01*
X608426Y1059219D01*
G37*
G36*
X601709Y1052502D02*
X605598Y1048613D01*
X601709Y1044724D01*
X597820Y1048613D01*
X601709Y1052502D01*
G37*
G36*
X608426Y1045784D02*
X612315Y1041895D01*
X608426Y1038006D01*
X604537Y1041895D01*
X608426Y1045784D01*
G37*
G36*
X615144Y1052502D02*
X619033Y1048613D01*
X615144Y1044724D01*
X611255Y1048613D01*
X615144Y1052502D01*
G37*
D11*
X677184Y1108481D03*
X667684Y1108481D03*
X667684Y1098981D03*
X677184Y1098981D03*
X735350Y1167155D03*
X725850Y1167155D03*
X725850Y1157655D03*
X735350Y1157655D03*
X539414Y1108481D03*
X539414Y1098981D03*
X548914Y1098981D03*
X548914Y1108481D03*
D12*
X615426Y929467D03*
X601426Y929467D03*
D11*
X481248Y1167409D03*
X481248Y1157909D03*
X490748Y1157909D03*
X490748Y1167409D03*
D10*
G36*
X608426Y1137959D02*
X612315Y1134070D01*
X608426Y1130181D01*
X604537Y1134070D01*
X608426Y1137959D01*
G37*
G36*
X601709Y1131242D02*
X605598Y1127353D01*
X601709Y1123464D01*
X597820Y1127353D01*
X601709Y1131242D01*
G37*
G36*
X608426Y1124524D02*
X612315Y1120635D01*
X608426Y1116746D01*
X604537Y1120635D01*
X608426Y1124524D01*
G37*
G36*
X615144Y1131242D02*
X619033Y1127353D01*
X615144Y1123464D01*
X611255Y1127353D01*
X615144Y1131242D01*
G37*
G36*
X608426Y1216699D02*
X612315Y1212810D01*
X608426Y1208921D01*
X604537Y1212810D01*
X608426Y1216699D01*
G37*
G36*
X601709Y1209982D02*
X605598Y1206093D01*
X601709Y1202204D01*
X597820Y1206093D01*
X601709Y1209982D01*
G37*
G36*
X608426Y1203264D02*
X612315Y1199375D01*
X608426Y1195486D01*
X604537Y1199375D01*
X608426Y1203264D01*
G37*
G36*
X615144Y1209982D02*
X619033Y1206093D01*
X615144Y1202204D01*
X611255Y1206093D01*
X615144Y1209982D01*
G37*
G36*
X608426Y1295185D02*
X612315Y1291296D01*
X608426Y1287407D01*
X604537Y1291296D01*
X608426Y1295185D01*
G37*
G36*
X601709Y1288468D02*
X605598Y1284579D01*
X601709Y1280690D01*
X597820Y1284579D01*
X601709Y1288468D01*
G37*
G36*
X608426Y1281750D02*
X612315Y1277861D01*
X608426Y1273972D01*
X604537Y1277861D01*
X608426Y1281750D01*
G37*
G36*
X615144Y1288468D02*
X619033Y1284579D01*
X615144Y1280690D01*
X611255Y1284579D01*
X615144Y1288468D01*
G37*
D11*
X677184Y1338605D03*
X667684Y1338605D03*
X667684Y1329105D03*
X677184Y1329105D03*
X735350Y1397533D03*
X725850Y1397533D03*
X725850Y1388033D03*
X735350Y1388033D03*
X539414Y1338605D03*
X539414Y1329105D03*
X548914Y1329105D03*
X548914Y1338605D03*
X481248Y1397533D03*
X481248Y1388033D03*
X490748Y1388033D03*
X490748Y1397533D03*
D12*
X615426Y1165433D03*
X601426Y1165433D03*
D10*
G36*
X608426Y1373925D02*
X612315Y1370036D01*
X608426Y1366147D01*
X604537Y1370036D01*
X608426Y1373925D01*
G37*
G36*
X601709Y1367208D02*
X605598Y1363319D01*
X601709Y1359430D01*
X597820Y1363319D01*
X601709Y1367208D01*
G37*
G36*
X608426Y1360490D02*
X612315Y1356601D01*
X608426Y1352712D01*
X604537Y1356601D01*
X608426Y1360490D01*
G37*
G36*
X615144Y1367208D02*
X619033Y1363319D01*
X615144Y1359430D01*
X611255Y1363319D01*
X615144Y1367208D01*
G37*
G36*
X608426Y1452665D02*
X612315Y1448776D01*
X608426Y1444887D01*
X604537Y1448776D01*
X608426Y1452665D01*
G37*
G36*
X601709Y1445948D02*
X605598Y1442059D01*
X601709Y1438170D01*
X597820Y1442059D01*
X601709Y1445948D01*
G37*
G36*
X608426Y1439230D02*
X612315Y1435341D01*
X608426Y1431452D01*
X604537Y1435341D01*
X608426Y1439230D01*
G37*
G36*
X615144Y1445948D02*
X619033Y1442059D01*
X615144Y1438170D01*
X611255Y1442059D01*
X615144Y1445948D01*
G37*
G36*
X685973Y857221D02*
X684549Y851909D01*
X679237Y853333D01*
X680661Y858645D01*
X685973Y857221D01*
G37*
G36*
X676797Y859680D02*
X675373Y854368D01*
X670061Y855792D01*
X671485Y861104D01*
X676797Y859680D01*
G37*
G36*
X674338Y850503D02*
X672914Y845191D01*
X667602Y846615D01*
X669026Y851927D01*
X674338Y850503D01*
G37*
G36*
X683515Y848045D02*
X682091Y842733D01*
X676779Y844157D01*
X678203Y849469D01*
X683515Y848045D01*
G37*
G36*
X754164Y896591D02*
X752740Y891279D01*
X747428Y892703D01*
X748852Y898015D01*
X754164Y896591D01*
G37*
G36*
X744988Y899050D02*
X743564Y893738D01*
X738252Y895162D01*
X739676Y900474D01*
X744988Y899050D01*
G37*
G36*
X742529Y889873D02*
X741105Y884561D01*
X735793Y885985D01*
X737217Y891297D01*
X742529Y889873D01*
G37*
G36*
X751706Y887415D02*
X750282Y882103D01*
X744970Y883527D01*
X746394Y888839D01*
X751706Y887415D01*
G37*
G36*
X822135Y935834D02*
X820711Y930522D01*
X815399Y931946D01*
X816823Y937258D01*
X822135Y935834D01*
G37*
G36*
X812959Y938293D02*
X811535Y932981D01*
X806223Y934405D01*
X807647Y939717D01*
X812959Y938293D01*
G37*
G36*
X810500Y929116D02*
X809076Y923804D01*
X803764Y925228D01*
X805188Y930540D01*
X810500Y929116D01*
G37*
G36*
X819676Y926658D02*
X818252Y921346D01*
X812940Y922770D01*
X814364Y928082D01*
X819676Y926658D01*
G37*
G36*
X902932Y899913D02*
X898170Y897163D01*
X895420Y901925D01*
X900182Y904675D01*
X902932Y899913D01*
G37*
G36*
X898182Y908140D02*
X893420Y905390D01*
X890670Y910152D01*
X895432Y912902D01*
X898182Y908140D01*
G37*
G36*
X889955Y903390D02*
X885193Y900640D01*
X882443Y905402D01*
X887205Y908152D01*
X889955Y903390D01*
G37*
G36*
X894705Y895163D02*
X889943Y892413D01*
X887193Y897175D01*
X891955Y899925D01*
X894705Y895163D01*
G37*
G36*
X982828Y878877D02*
X978066Y876127D01*
X975316Y880889D01*
X980078Y883639D01*
X982828Y878877D01*
G37*
G36*
X978078Y887104D02*
X973316Y884354D01*
X970566Y889116D01*
X975328Y891866D01*
X978078Y887104D01*
G37*
G36*
X969851Y882354D02*
X965089Y879604D01*
X962339Y884366D01*
X967101Y887116D01*
X969851Y882354D01*
G37*
G36*
X974601Y874127D02*
X969839Y871377D01*
X967089Y876139D01*
X971851Y878889D01*
X974601Y874127D01*
G37*
G36*
X831297Y1023987D02*
X834047Y1019225D01*
X829285Y1016475D01*
X826535Y1021237D01*
X831297Y1023987D01*
G37*
G36*
X823070Y1019237D02*
X825820Y1014475D01*
X821058Y1011725D01*
X818308Y1016487D01*
X823070Y1019237D01*
G37*
G36*
X827820Y1011010D02*
X830570Y1006248D01*
X825808Y1003498D01*
X823058Y1008260D01*
X827820Y1011010D01*
G37*
G36*
X836047Y1015760D02*
X838797Y1010998D01*
X834035Y1008248D01*
X831285Y1013010D01*
X836047Y1015760D01*
G37*
D12*
G36*
X710686Y859365D02*
X707186Y865427D01*
X715846Y870427D01*
X719346Y864365D01*
X710686Y859365D01*
G37*
G36*
X703686Y871489D02*
X700186Y877551D01*
X708846Y882551D01*
X712346Y876489D01*
X703686Y871489D01*
G37*
D10*
G36*
X853247Y1103825D02*
X855997Y1099063D01*
X851235Y1096313D01*
X848485Y1101075D01*
X853247Y1103825D01*
G37*
G36*
X845020Y1099075D02*
X847770Y1094313D01*
X843008Y1091563D01*
X840258Y1096325D01*
X845020Y1099075D01*
G37*
G36*
X849770Y1090847D02*
X852520Y1086085D01*
X847758Y1083335D01*
X845008Y1088097D01*
X849770Y1090847D01*
G37*
G36*
X857997Y1095597D02*
X860747Y1090835D01*
X855985Y1088085D01*
X853235Y1092847D01*
X857997Y1095597D01*
G37*
G36*
X890326Y975204D02*
X888902Y969892D01*
X883590Y971316D01*
X885014Y976628D01*
X890326Y975204D01*
G37*
G36*
X881150Y977663D02*
X879726Y972351D01*
X874414Y973775D01*
X875838Y979087D01*
X881150Y977663D01*
G37*
G36*
X878691Y968486D02*
X877267Y963174D01*
X871955Y964598D01*
X873379Y969910D01*
X878691Y968486D01*
G37*
G36*
X887867Y966028D02*
X886443Y960716D01*
X881131Y962140D01*
X882555Y967452D01*
X887867Y966028D01*
G37*
G36*
X958517Y1014574D02*
X957093Y1009262D01*
X951781Y1010686D01*
X953205Y1015998D01*
X958517Y1014574D01*
G37*
G36*
X949341Y1017033D02*
X947917Y1011721D01*
X942605Y1013145D01*
X944029Y1018457D01*
X949341Y1017033D01*
G37*
G36*
X946882Y1007856D02*
X945458Y1002544D01*
X940146Y1003968D01*
X941570Y1009280D01*
X946882Y1007856D01*
G37*
G36*
X956058Y1005398D02*
X954634Y1000086D01*
X949322Y1001510D01*
X950746Y1006822D01*
X956058Y1005398D01*
G37*
G36*
X1026488Y1053817D02*
X1025064Y1048505D01*
X1019752Y1049929D01*
X1021176Y1055241D01*
X1026488Y1053817D01*
G37*
G36*
X1017311Y1056276D02*
X1015887Y1050964D01*
X1010575Y1052388D01*
X1011999Y1057700D01*
X1017311Y1056276D01*
G37*
G36*
X1014853Y1047099D02*
X1013429Y1041787D01*
X1008117Y1043211D01*
X1009541Y1048523D01*
X1014853Y1047099D01*
G37*
G36*
X1024029Y1044641D02*
X1022605Y1039329D01*
X1017293Y1040753D01*
X1018717Y1046065D01*
X1024029Y1044641D01*
G37*
G36*
X1102225Y1014975D02*
X1097463Y1012225D01*
X1094713Y1016987D01*
X1099475Y1019737D01*
X1102225Y1014975D01*
G37*
G36*
X1097475Y1023202D02*
X1092713Y1020452D01*
X1089963Y1025214D01*
X1094725Y1027964D01*
X1097475Y1023202D01*
G37*
G36*
X1089248Y1018452D02*
X1084486Y1015702D01*
X1081736Y1020464D01*
X1086498Y1023214D01*
X1089248Y1018452D01*
G37*
G36*
X1093998Y1010225D02*
X1089236Y1007475D01*
X1086486Y1012237D01*
X1091248Y1014987D01*
X1093998Y1010225D01*
G37*
G36*
X1182341Y994066D02*
X1177579Y991316D01*
X1174829Y996078D01*
X1179591Y998828D01*
X1182341Y994066D01*
G37*
G36*
X1177591Y1002293D02*
X1172829Y999543D01*
X1170079Y1004305D01*
X1174841Y1007055D01*
X1177591Y1002293D01*
G37*
G36*
X1169364Y997543D02*
X1164602Y994793D01*
X1161852Y999555D01*
X1166614Y1002305D01*
X1169364Y997543D01*
G37*
G36*
X1174114Y989316D02*
X1169352Y986566D01*
X1166602Y991328D01*
X1171364Y994078D01*
X1174114Y989316D01*
G37*
G36*
X1030590Y1139049D02*
X1033340Y1134287D01*
X1028578Y1131537D01*
X1025828Y1136299D01*
X1030590Y1139049D01*
G37*
G36*
X1022363Y1134299D02*
X1025113Y1129537D01*
X1020351Y1126787D01*
X1017601Y1131549D01*
X1022363Y1134299D01*
G37*
G36*
X1027113Y1126072D02*
X1029863Y1121310D01*
X1025101Y1118560D01*
X1022351Y1123322D01*
X1027113Y1126072D01*
G37*
G36*
X1035340Y1130822D02*
X1038090Y1126060D01*
X1033328Y1123310D01*
X1030578Y1128072D01*
X1035340Y1130822D01*
G37*
G36*
X1052540Y1218887D02*
X1055290Y1214125D01*
X1050528Y1211375D01*
X1047778Y1216137D01*
X1052540Y1218887D01*
G37*
G36*
X1044313Y1214137D02*
X1047063Y1209375D01*
X1042301Y1206625D01*
X1039551Y1211387D01*
X1044313Y1214137D01*
G37*
G36*
X1049063Y1205909D02*
X1051813Y1201147D01*
X1047051Y1198397D01*
X1044301Y1203159D01*
X1049063Y1205909D01*
G37*
G36*
X1057290Y1210659D02*
X1060040Y1205897D01*
X1055278Y1203147D01*
X1052528Y1207909D01*
X1057290Y1210659D01*
G37*
D12*
G36*
X915039Y977348D02*
X911539Y983410D01*
X920199Y988410D01*
X923699Y982348D01*
X915039Y977348D01*
G37*
G36*
X908039Y989472D02*
X904539Y995534D01*
X913199Y1000534D01*
X916699Y994472D01*
X908039Y989472D01*
G37*
D10*
G36*
X1094679Y1093187D02*
X1093255Y1087875D01*
X1087943Y1089299D01*
X1089367Y1094611D01*
X1094679Y1093187D01*
G37*
G36*
X1085502Y1095646D02*
X1084078Y1090334D01*
X1078766Y1091758D01*
X1080190Y1097070D01*
X1085502Y1095646D01*
G37*
G36*
X1083043Y1086469D02*
X1081619Y1081157D01*
X1076307Y1082581D01*
X1077731Y1087893D01*
X1083043Y1086469D01*
G37*
G36*
X1092220Y1084011D02*
X1090796Y1078699D01*
X1085484Y1080123D01*
X1086908Y1085435D01*
X1092220Y1084011D01*
G37*
G36*
X1162869Y1132557D02*
X1161445Y1127245D01*
X1156133Y1128669D01*
X1157557Y1133981D01*
X1162869Y1132557D01*
G37*
G36*
X1153693Y1135016D02*
X1152269Y1129704D01*
X1146957Y1131128D01*
X1148381Y1136440D01*
X1153693Y1135016D01*
G37*
G36*
X1151234Y1125839D02*
X1149810Y1120527D01*
X1144498Y1121951D01*
X1145922Y1127263D01*
X1151234Y1125839D01*
G37*
G36*
X1160411Y1123381D02*
X1158987Y1118069D01*
X1153675Y1119493D01*
X1155099Y1124805D01*
X1160411Y1123381D01*
G37*
G36*
X685973Y767678D02*
X680661Y766254D01*
X679237Y771566D01*
X684549Y772990D01*
X685973Y767678D01*
G37*
G36*
X683515Y776854D02*
X678203Y775430D01*
X676779Y780742D01*
X682091Y782166D01*
X683515Y776854D01*
G37*
G36*
X674338Y774396D02*
X669026Y772972D01*
X667602Y778284D01*
X672914Y779708D01*
X674338Y774396D01*
G37*
G36*
X676797Y765219D02*
X671485Y763795D01*
X670061Y769107D01*
X675373Y770531D01*
X676797Y765219D01*
G37*
G36*
X754164Y728308D02*
X748852Y726884D01*
X747428Y732196D01*
X752740Y733620D01*
X754164Y728308D01*
G37*
G36*
X751706Y737484D02*
X746394Y736060D01*
X744970Y741372D01*
X750282Y742796D01*
X751706Y737484D01*
G37*
G36*
X742529Y735026D02*
X737217Y733602D01*
X735793Y738914D01*
X741105Y740338D01*
X742529Y735026D01*
G37*
G36*
X744988Y725849D02*
X739676Y724425D01*
X738252Y729737D01*
X743564Y731161D01*
X744988Y725849D01*
G37*
G36*
X822135Y689065D02*
X816823Y687641D01*
X815399Y692953D01*
X820711Y694377D01*
X822135Y689065D01*
G37*
G36*
X819676Y698241D02*
X814364Y696817D01*
X812940Y702129D01*
X818252Y703553D01*
X819676Y698241D01*
G37*
G36*
X810500Y695783D02*
X805188Y694359D01*
X803764Y699671D01*
X809076Y701095D01*
X810500Y695783D01*
G37*
G36*
X812959Y686606D02*
X807647Y685182D01*
X806223Y690494D01*
X811535Y691918D01*
X812959Y686606D01*
G37*
G36*
X831424Y601132D02*
X826662Y603882D01*
X829412Y608644D01*
X834174Y605894D01*
X831424Y601132D01*
G37*
G36*
X836174Y609359D02*
X831412Y612109D01*
X834162Y616871D01*
X838924Y614121D01*
X836174Y609359D01*
G37*
G36*
X827947Y614109D02*
X823185Y616859D01*
X825935Y621621D01*
X830697Y618871D01*
X827947Y614109D01*
G37*
G36*
X823197Y605882D02*
X818435Y608632D01*
X821185Y613394D01*
X825947Y610644D01*
X823197Y605882D01*
G37*
G36*
X853154Y521421D02*
X848392Y524171D01*
X851142Y528933D01*
X855904Y526183D01*
X853154Y521421D01*
G37*
G36*
X857904Y529649D02*
X853142Y532399D01*
X855892Y537161D01*
X860654Y534411D01*
X857904Y529649D01*
G37*
G36*
X849677Y534399D02*
X844915Y537149D01*
X847665Y541911D01*
X852427Y539161D01*
X849677Y534399D01*
G37*
G36*
X844927Y526171D02*
X840165Y528921D01*
X842915Y533683D01*
X847677Y530933D01*
X844927Y526171D01*
G37*
G36*
X903059Y725206D02*
X900309Y720444D01*
X895547Y723194D01*
X898297Y727956D01*
X903059Y725206D01*
G37*
G36*
X894832Y729956D02*
X892082Y725194D01*
X887320Y727944D01*
X890070Y732706D01*
X894832Y729956D01*
G37*
G36*
X890082Y721729D02*
X887332Y716967D01*
X882570Y719717D01*
X885320Y724479D01*
X890082Y721729D01*
G37*
G36*
X898309Y716979D02*
X895559Y712217D01*
X890797Y714967D01*
X893547Y719729D01*
X898309Y716979D01*
G37*
D12*
G36*
X700186Y747348D02*
X703686Y753410D01*
X712346Y748410D01*
X708846Y742348D01*
X700186Y747348D01*
G37*
G36*
X707186Y759472D02*
X710686Y765534D01*
X719346Y760534D01*
X715846Y754472D01*
X707186Y759472D01*
G37*
D10*
G36*
X983175Y746115D02*
X980425Y741353D01*
X975663Y744103D01*
X978413Y748865D01*
X983175Y746115D01*
G37*
G36*
X974948Y750865D02*
X972198Y746103D01*
X967436Y748853D01*
X970186Y753615D01*
X974948Y750865D01*
G37*
G36*
X970198Y742638D02*
X967448Y737876D01*
X962686Y740626D01*
X965436Y745388D01*
X970198Y742638D01*
G37*
G36*
X978425Y737888D02*
X975675Y733126D01*
X970913Y735876D01*
X973663Y740638D01*
X978425Y737888D01*
G37*
G36*
X890326Y649695D02*
X885014Y648271D01*
X883590Y653583D01*
X888902Y655007D01*
X890326Y649695D01*
G37*
G36*
X887867Y658871D02*
X882555Y657447D01*
X881131Y662759D01*
X886443Y664183D01*
X887867Y658871D01*
G37*
G36*
X878691Y656413D02*
X873379Y654989D01*
X871955Y660301D01*
X877267Y661725D01*
X878691Y656413D01*
G37*
G36*
X881150Y647236D02*
X875838Y645812D01*
X874414Y651124D01*
X879726Y652548D01*
X881150Y647236D01*
G37*
G36*
X958517Y610325D02*
X953205Y608901D01*
X951781Y614213D01*
X957093Y615637D01*
X958517Y610325D01*
G37*
G36*
X956058Y619501D02*
X950746Y618077D01*
X949322Y623389D01*
X954634Y624813D01*
X956058Y619501D01*
G37*
G36*
X946882Y617043D02*
X941570Y615619D01*
X940146Y620931D01*
X945458Y622355D01*
X946882Y617043D01*
G37*
G36*
X949341Y607866D02*
X944029Y606442D01*
X942605Y611754D01*
X947917Y613178D01*
X949341Y607866D01*
G37*
G36*
X1026488Y571082D02*
X1021176Y569658D01*
X1019752Y574970D01*
X1025064Y576394D01*
X1026488Y571082D01*
G37*
G36*
X1024029Y580258D02*
X1018717Y578834D01*
X1017293Y584146D01*
X1022605Y585570D01*
X1024029Y580258D01*
G37*
G36*
X1014853Y577800D02*
X1009541Y576376D01*
X1008117Y581688D01*
X1013429Y583112D01*
X1014853Y577800D01*
G37*
G36*
X1017311Y568623D02*
X1011999Y567199D01*
X1010575Y572511D01*
X1015887Y573935D01*
X1017311Y568623D01*
G37*
G36*
X1030717Y486070D02*
X1025955Y488820D01*
X1028705Y493582D01*
X1033467Y490832D01*
X1030717Y486070D01*
G37*
G36*
X1035467Y494297D02*
X1030705Y497047D01*
X1033455Y501809D01*
X1038217Y499059D01*
X1035467Y494297D01*
G37*
G36*
X1027240Y499047D02*
X1022478Y501797D01*
X1025228Y506559D01*
X1029990Y503809D01*
X1027240Y499047D01*
G37*
G36*
X1022490Y490820D02*
X1017728Y493570D01*
X1020478Y498332D01*
X1025240Y495582D01*
X1022490Y490820D01*
G37*
G36*
X1052667Y406232D02*
X1047905Y408982D01*
X1050655Y413744D01*
X1055417Y410994D01*
X1052667Y406232D01*
G37*
G36*
X1057417Y414460D02*
X1052655Y417210D01*
X1055405Y421972D01*
X1060167Y419222D01*
X1057417Y414460D01*
G37*
G36*
X1049190Y419210D02*
X1044428Y421960D01*
X1047178Y426722D01*
X1051940Y423972D01*
X1049190Y419210D01*
G37*
G36*
X1044440Y410982D02*
X1039678Y413732D01*
X1042428Y418494D01*
X1047190Y415744D01*
X1044440Y410982D01*
G37*
G36*
X1102352Y610144D02*
X1099602Y605382D01*
X1094840Y608132D01*
X1097590Y612894D01*
X1102352Y610144D01*
G37*
G36*
X1094125Y614894D02*
X1091375Y610132D01*
X1086613Y612882D01*
X1089363Y617644D01*
X1094125Y614894D01*
G37*
G36*
X1089375Y606667D02*
X1086625Y601905D01*
X1081863Y604655D01*
X1084613Y609417D01*
X1089375Y606667D01*
G37*
G36*
X1097602Y601917D02*
X1094852Y597155D01*
X1090090Y599905D01*
X1092840Y604667D01*
X1097602Y601917D01*
G37*
G36*
X1182468Y631053D02*
X1179718Y626291D01*
X1174956Y629041D01*
X1177706Y633803D01*
X1182468Y631053D01*
G37*
G36*
X1174241Y635803D02*
X1171491Y631041D01*
X1166729Y633791D01*
X1169479Y638553D01*
X1174241Y635803D01*
G37*
G36*
X1169491Y627576D02*
X1166741Y622814D01*
X1161979Y625564D01*
X1164729Y630326D01*
X1169491Y627576D01*
G37*
G36*
X1177718Y622826D02*
X1174968Y618064D01*
X1170206Y620814D01*
X1172956Y625576D01*
X1177718Y622826D01*
G37*
D12*
G36*
X904539Y629365D02*
X908039Y635427D01*
X916699Y630427D01*
X913199Y624365D01*
X904539Y629365D01*
G37*
G36*
X911539Y641489D02*
X915039Y647551D01*
X923699Y642551D01*
X920199Y636489D01*
X911539Y641489D01*
G37*
D10*
G36*
X1094679Y531712D02*
X1089367Y530288D01*
X1087943Y535600D01*
X1093255Y537024D01*
X1094679Y531712D01*
G37*
G36*
X1092220Y540888D02*
X1086908Y539464D01*
X1085484Y544776D01*
X1090796Y546200D01*
X1092220Y540888D01*
G37*
G36*
X1083043Y538430D02*
X1077731Y537006D01*
X1076307Y542318D01*
X1081619Y543742D01*
X1083043Y538430D01*
G37*
G36*
X1085502Y529253D02*
X1080190Y527829D01*
X1078766Y533141D01*
X1084078Y534565D01*
X1085502Y529253D01*
G37*
G36*
X1162869Y492342D02*
X1157557Y490918D01*
X1156133Y496230D01*
X1161445Y497654D01*
X1162869Y492342D01*
G37*
G36*
X1160411Y501518D02*
X1155099Y500094D01*
X1153675Y505406D01*
X1158987Y506830D01*
X1160411Y501518D01*
G37*
G36*
X1151234Y499060D02*
X1145922Y497636D01*
X1144498Y502948D01*
X1149810Y504372D01*
X1151234Y499060D01*
G37*
G36*
X1153693Y489883D02*
X1148381Y488459D01*
X1146957Y493771D01*
X1152269Y495195D01*
X1153693Y489883D01*
G37*
G36*
X1825104Y722906D02*
X1821215Y726795D01*
X1825104Y730684D01*
X1828993Y726795D01*
X1825104Y722906D01*
G37*
G36*
X1831822Y729623D02*
X1827933Y733512D01*
X1831822Y737401D01*
X1835711Y733512D01*
X1831822Y729623D01*
G37*
G36*
X1825104Y736341D02*
X1821215Y740230D01*
X1825104Y744119D01*
X1828993Y740230D01*
X1825104Y736341D01*
G37*
G36*
X1818387Y729623D02*
X1814498Y733512D01*
X1818387Y737401D01*
X1822276Y733512D01*
X1818387Y729623D01*
G37*
G36*
X1825104Y644166D02*
X1821215Y648055D01*
X1825104Y651944D01*
X1828993Y648055D01*
X1825104Y644166D01*
G37*
G36*
X1831822Y650883D02*
X1827933Y654772D01*
X1831822Y658661D01*
X1835711Y654772D01*
X1831822Y650883D01*
G37*
G36*
X1825104Y657601D02*
X1821215Y661490D01*
X1825104Y665379D01*
X1828993Y661490D01*
X1825104Y657601D01*
G37*
G36*
X1818387Y650883D02*
X1814498Y654772D01*
X1818387Y658661D01*
X1822276Y654772D01*
X1818387Y650883D01*
G37*
G36*
X1825104Y565680D02*
X1821215Y569569D01*
X1825104Y573458D01*
X1828993Y569569D01*
X1825104Y565680D01*
G37*
G36*
X1831822Y572397D02*
X1827933Y576286D01*
X1831822Y580175D01*
X1835711Y576286D01*
X1831822Y572397D01*
G37*
G36*
X1825104Y579115D02*
X1821215Y583004D01*
X1825104Y586893D01*
X1828993Y583004D01*
X1825104Y579115D01*
G37*
G36*
X1818387Y572397D02*
X1814498Y576286D01*
X1818387Y580175D01*
X1822276Y576286D01*
X1818387Y572397D01*
G37*
D11*
X1756346Y516418D03*
X1765846Y516418D03*
X1765846Y525918D03*
X1756346Y525918D03*
X1698180Y457744D03*
X1707680Y457744D03*
X1707680Y467244D03*
X1698180Y467244D03*
X1894116Y516418D03*
X1894116Y525918D03*
X1884616Y525918D03*
X1884616Y516418D03*
D12*
X1818104Y695432D03*
X1832104Y695432D03*
D11*
X1952282Y457490D03*
X1952282Y466990D03*
X1942782Y466990D03*
X1942782Y457490D03*
D10*
G36*
X1825104Y486940D02*
X1821215Y490829D01*
X1825104Y494718D01*
X1828993Y490829D01*
X1825104Y486940D01*
G37*
G36*
X1831822Y493657D02*
X1827933Y497546D01*
X1831822Y501435D01*
X1835711Y497546D01*
X1831822Y493657D01*
G37*
G36*
X1825104Y500375D02*
X1821215Y504264D01*
X1825104Y508153D01*
X1828993Y504264D01*
X1825104Y500375D01*
G37*
G36*
X1818387Y493657D02*
X1814498Y497546D01*
X1818387Y501435D01*
X1822276Y497546D01*
X1818387Y493657D01*
G37*
G36*
X1825104Y408200D02*
X1821215Y412089D01*
X1825104Y415978D01*
X1828993Y412089D01*
X1825104Y408200D01*
G37*
G36*
X1831822Y414917D02*
X1827933Y418806D01*
X1831822Y422695D01*
X1835711Y418806D01*
X1831822Y414917D01*
G37*
G36*
X1825104Y421635D02*
X1821215Y425524D01*
X1825104Y429413D01*
X1828993Y425524D01*
X1825104Y421635D01*
G37*
G36*
X1818387Y414917D02*
X1814498Y418806D01*
X1818387Y422695D01*
X1822276Y418806D01*
X1818387Y414917D01*
G37*
G36*
X1825104Y329714D02*
X1821215Y333603D01*
X1825104Y337492D01*
X1828993Y333603D01*
X1825104Y329714D01*
G37*
G36*
X1831822Y336431D02*
X1827933Y340320D01*
X1831822Y344209D01*
X1835711Y340320D01*
X1831822Y336431D01*
G37*
G36*
X1825104Y343149D02*
X1821215Y347038D01*
X1825104Y350927D01*
X1828993Y347038D01*
X1825104Y343149D01*
G37*
G36*
X1818387Y336431D02*
X1814498Y340320D01*
X1818387Y344209D01*
X1822276Y340320D01*
X1818387Y336431D01*
G37*
D11*
X1756346Y286294D03*
X1765846Y286294D03*
X1765846Y295794D03*
X1756346Y295794D03*
X1698180Y227366D03*
X1707680Y227366D03*
X1707680Y236866D03*
X1698180Y236866D03*
X1894116Y286294D03*
X1894116Y295794D03*
X1884616Y295794D03*
X1884616Y286294D03*
X1952282Y227366D03*
X1952282Y236866D03*
X1942782Y236866D03*
X1942782Y227366D03*
D12*
X1818104Y459466D03*
X1832104Y459466D03*
D10*
G36*
X1825104Y250974D02*
X1821215Y254863D01*
X1825104Y258752D01*
X1828993Y254863D01*
X1825104Y250974D01*
G37*
G36*
X1831822Y257691D02*
X1827933Y261580D01*
X1831822Y265469D01*
X1835711Y261580D01*
X1831822Y257691D01*
G37*
G36*
X1825104Y264409D02*
X1821215Y268298D01*
X1825104Y272187D01*
X1828993Y268298D01*
X1825104Y264409D01*
G37*
G36*
X1818387Y257691D02*
X1814498Y261580D01*
X1818387Y265469D01*
X1822276Y261580D01*
X1818387Y257691D01*
G37*
G36*
X1825104Y172234D02*
X1821215Y176123D01*
X1825104Y180012D01*
X1828993Y176123D01*
X1825104Y172234D01*
G37*
G36*
X1831822Y178951D02*
X1827933Y182840D01*
X1831822Y186729D01*
X1835711Y182840D01*
X1831822Y178951D01*
G37*
G36*
X1825104Y185669D02*
X1821215Y189558D01*
X1825104Y193447D01*
X1828993Y189558D01*
X1825104Y185669D01*
G37*
G36*
X1818387Y178951D02*
X1814498Y182840D01*
X1818387Y186729D01*
X1822276Y182840D01*
X1818387Y178951D01*
G37*
G36*
X1747557Y767678D02*
X1748981Y772990D01*
X1754293Y771566D01*
X1752869Y766254D01*
X1747557Y767678D01*
G37*
G36*
X1756733Y765219D02*
X1758157Y770531D01*
X1763469Y769107D01*
X1762045Y763795D01*
X1756733Y765219D01*
G37*
G36*
X1759192Y774396D02*
X1760616Y779708D01*
X1765928Y778284D01*
X1764504Y772972D01*
X1759192Y774396D01*
G37*
G36*
X1750015Y776854D02*
X1751439Y782166D01*
X1756751Y780742D01*
X1755327Y775430D01*
X1750015Y776854D01*
G37*
G36*
X1679366Y728308D02*
X1680790Y733620D01*
X1686102Y732196D01*
X1684678Y726884D01*
X1679366Y728308D01*
G37*
G36*
X1688542Y725849D02*
X1689966Y731161D01*
X1695278Y729737D01*
X1693854Y724425D01*
X1688542Y725849D01*
G37*
G36*
X1691001Y735026D02*
X1692425Y740338D01*
X1697737Y738914D01*
X1696313Y733602D01*
X1691001Y735026D01*
G37*
G36*
X1681825Y737484D02*
X1683249Y742796D01*
X1688561Y741372D01*
X1687137Y736060D01*
X1681825Y737484D01*
G37*
G36*
X1611395Y689065D02*
X1612819Y694377D01*
X1618131Y692953D01*
X1616707Y687641D01*
X1611395Y689065D01*
G37*
G36*
X1620571Y686606D02*
X1621995Y691918D01*
X1627307Y690494D01*
X1625883Y685182D01*
X1620571Y686606D01*
G37*
G36*
X1623030Y695783D02*
X1624454Y701095D01*
X1629766Y699671D01*
X1628342Y694359D01*
X1623030Y695783D01*
G37*
G36*
X1613854Y698241D02*
X1615278Y703553D01*
X1620590Y702129D01*
X1619166Y696817D01*
X1613854Y698241D01*
G37*
G36*
X1530598Y724986D02*
X1535360Y727736D01*
X1538110Y722974D01*
X1533348Y720224D01*
X1530598Y724986D01*
G37*
G36*
X1535348Y716759D02*
X1540110Y719509D01*
X1542860Y714747D01*
X1538098Y711997D01*
X1535348Y716759D01*
G37*
G36*
X1543576Y721509D02*
X1548338Y724259D01*
X1551088Y719497D01*
X1546326Y716747D01*
X1543576Y721509D01*
G37*
G36*
X1538826Y729736D02*
X1543588Y732486D01*
X1546338Y727724D01*
X1541576Y724974D01*
X1538826Y729736D01*
G37*
G36*
X1450702Y746022D02*
X1455464Y748772D01*
X1458214Y744010D01*
X1453452Y741260D01*
X1450702Y746022D01*
G37*
G36*
X1455452Y737795D02*
X1460214Y740545D01*
X1462964Y735783D01*
X1458202Y733033D01*
X1455452Y737795D01*
G37*
G36*
X1463679Y742545D02*
X1468441Y745295D01*
X1471191Y740533D01*
X1466429Y737783D01*
X1463679Y742545D01*
G37*
G36*
X1458929Y750772D02*
X1463691Y753522D01*
X1466441Y748760D01*
X1461679Y746010D01*
X1458929Y750772D01*
G37*
G36*
X1602233Y600912D02*
X1599483Y605674D01*
X1604245Y608424D01*
X1606995Y603662D01*
X1602233Y600912D01*
G37*
G36*
X1610461Y605662D02*
X1607711Y610424D01*
X1612473Y613174D01*
X1615223Y608412D01*
X1610461Y605662D01*
G37*
G36*
X1605711Y613889D02*
X1602961Y618651D01*
X1607723Y621401D01*
X1610473Y616639D01*
X1605711Y613889D01*
G37*
G36*
X1597483Y609139D02*
X1594733Y613901D01*
X1599495Y616651D01*
X1602245Y611889D01*
X1597483Y609139D01*
G37*
D12*
G36*
X1722844Y765534D02*
X1726344Y759472D01*
X1717684Y754472D01*
X1714184Y760534D01*
X1722844Y765534D01*
G37*
G36*
X1729844Y753410D02*
X1733344Y747348D01*
X1724684Y742348D01*
X1721184Y748410D01*
X1729844Y753410D01*
G37*
D10*
G36*
X1580283Y521074D02*
X1577533Y525836D01*
X1582295Y528586D01*
X1585045Y523824D01*
X1580283Y521074D01*
G37*
G36*
X1588510Y525824D02*
X1585760Y530586D01*
X1590522Y533336D01*
X1593272Y528574D01*
X1588510Y525824D01*
G37*
G36*
X1583760Y534052D02*
X1581010Y538814D01*
X1585772Y541564D01*
X1588522Y536802D01*
X1583760Y534052D01*
G37*
G36*
X1575533Y529302D02*
X1572783Y534064D01*
X1577545Y536814D01*
X1580295Y532052D01*
X1575533Y529302D01*
G37*
G36*
X1543204Y649695D02*
X1544628Y655007D01*
X1549940Y653583D01*
X1548516Y648271D01*
X1543204Y649695D01*
G37*
G36*
X1552380Y647236D02*
X1553804Y652548D01*
X1559116Y651124D01*
X1557692Y645812D01*
X1552380Y647236D01*
G37*
G36*
X1554839Y656413D02*
X1556263Y661725D01*
X1561575Y660301D01*
X1560151Y654989D01*
X1554839Y656413D01*
G37*
G36*
X1545663Y658871D02*
X1547087Y664183D01*
X1552399Y662759D01*
X1550975Y657447D01*
X1545663Y658871D01*
G37*
G36*
X1475013Y610325D02*
X1476437Y615637D01*
X1481749Y614213D01*
X1480325Y608901D01*
X1475013Y610325D01*
G37*
G36*
X1484190Y607866D02*
X1485614Y613178D01*
X1490926Y611754D01*
X1489502Y606442D01*
X1484190Y607866D01*
G37*
G36*
X1486648Y617043D02*
X1488072Y622355D01*
X1493384Y620931D01*
X1491960Y615619D01*
X1486648Y617043D01*
G37*
G36*
X1477472Y619501D02*
X1478896Y624813D01*
X1484208Y623389D01*
X1482784Y618077D01*
X1477472Y619501D01*
G37*
G36*
X1407042Y571082D02*
X1408466Y576394D01*
X1413778Y574970D01*
X1412354Y569658D01*
X1407042Y571082D01*
G37*
G36*
X1416219Y568623D02*
X1417643Y573935D01*
X1422955Y572511D01*
X1421531Y567199D01*
X1416219Y568623D01*
G37*
G36*
X1418678Y577800D02*
X1420102Y583112D01*
X1425414Y581688D01*
X1423990Y576376D01*
X1418678Y577800D01*
G37*
G36*
X1409501Y580258D02*
X1410925Y585570D01*
X1416237Y584146D01*
X1414813Y578834D01*
X1409501Y580258D01*
G37*
G36*
X1331305Y609924D02*
X1336067Y612674D01*
X1338817Y607912D01*
X1334055Y605162D01*
X1331305Y609924D01*
G37*
G36*
X1336055Y601697D02*
X1340817Y604447D01*
X1343567Y599685D01*
X1338805Y596935D01*
X1336055Y601697D01*
G37*
G36*
X1344282Y606447D02*
X1349044Y609197D01*
X1351794Y604435D01*
X1347032Y601685D01*
X1344282Y606447D01*
G37*
G36*
X1339532Y614674D02*
X1344294Y617424D01*
X1347044Y612662D01*
X1342282Y609912D01*
X1339532Y614674D01*
G37*
G36*
X1251189Y630833D02*
X1255951Y633583D01*
X1258701Y628821D01*
X1253939Y626071D01*
X1251189Y630833D01*
G37*
G36*
X1255939Y622606D02*
X1260701Y625356D01*
X1263451Y620594D01*
X1258689Y617844D01*
X1255939Y622606D01*
G37*
G36*
X1264166Y627356D02*
X1268928Y630106D01*
X1271678Y625344D01*
X1266916Y622594D01*
X1264166Y627356D01*
G37*
G36*
X1259416Y635583D02*
X1264178Y638333D01*
X1266928Y633571D01*
X1262166Y630821D01*
X1259416Y635583D01*
G37*
G36*
X1402940Y485850D02*
X1400190Y490612D01*
X1404952Y493362D01*
X1407702Y488600D01*
X1402940Y485850D01*
G37*
G36*
X1411167Y490600D02*
X1408417Y495362D01*
X1413179Y498112D01*
X1415929Y493350D01*
X1411167Y490600D01*
G37*
G36*
X1406417Y498827D02*
X1403667Y503589D01*
X1408429Y506339D01*
X1411179Y501577D01*
X1406417Y498827D01*
G37*
G36*
X1398190Y494077D02*
X1395440Y498839D01*
X1400202Y501589D01*
X1402952Y496827D01*
X1398190Y494077D01*
G37*
G36*
X1380990Y406012D02*
X1378240Y410774D01*
X1383002Y413524D01*
X1385752Y408762D01*
X1380990Y406012D01*
G37*
G36*
X1389217Y410762D02*
X1386467Y415524D01*
X1391229Y418274D01*
X1393979Y413512D01*
X1389217Y410762D01*
G37*
G36*
X1384467Y418990D02*
X1381717Y423752D01*
X1386479Y426502D01*
X1389229Y421740D01*
X1384467Y418990D01*
G37*
G36*
X1376240Y414240D02*
X1373490Y419002D01*
X1378252Y421752D01*
X1381002Y416990D01*
X1376240Y414240D01*
G37*
D12*
G36*
X1518491Y647551D02*
X1521991Y641489D01*
X1513331Y636489D01*
X1509831Y642551D01*
X1518491Y647551D01*
G37*
G36*
X1525491Y635427D02*
X1528991Y629365D01*
X1520331Y624365D01*
X1516831Y630427D01*
X1525491Y635427D01*
G37*
D10*
G36*
X1338852Y531712D02*
X1340276Y537024D01*
X1345588Y535600D01*
X1344164Y530288D01*
X1338852Y531712D01*
G37*
G36*
X1348028Y529253D02*
X1349452Y534565D01*
X1354764Y533141D01*
X1353340Y527829D01*
X1348028Y529253D01*
G37*
G36*
X1350487Y538430D02*
X1351911Y543742D01*
X1357223Y542318D01*
X1355799Y537006D01*
X1350487Y538430D01*
G37*
G36*
X1341310Y540888D02*
X1342734Y546200D01*
X1348046Y544776D01*
X1346622Y539464D01*
X1341310Y540888D01*
G37*
G36*
X1270661Y492342D02*
X1272085Y497654D01*
X1277397Y496230D01*
X1275973Y490918D01*
X1270661Y492342D01*
G37*
G36*
X1279837Y489883D02*
X1281261Y495195D01*
X1286573Y493771D01*
X1285149Y488459D01*
X1279837Y489883D01*
G37*
G36*
X1282296Y499060D02*
X1283720Y504372D01*
X1289032Y502948D01*
X1287608Y497636D01*
X1282296Y499060D01*
G37*
G36*
X1273120Y501518D02*
X1274544Y506830D01*
X1279856Y505406D01*
X1278432Y500094D01*
X1273120Y501518D01*
G37*
G36*
X1747557Y857221D02*
X1752869Y858645D01*
X1754293Y853333D01*
X1748981Y851909D01*
X1747557Y857221D01*
G37*
G36*
X1750015Y848045D02*
X1755327Y849469D01*
X1756751Y844157D01*
X1751439Y842733D01*
X1750015Y848045D01*
G37*
G36*
X1759192Y850503D02*
X1764504Y851927D01*
X1765928Y846615D01*
X1760616Y845191D01*
X1759192Y850503D01*
G37*
G36*
X1756733Y859680D02*
X1762045Y861104D01*
X1763469Y855792D01*
X1758157Y854368D01*
X1756733Y859680D01*
G37*
G36*
X1679366Y896591D02*
X1684678Y898015D01*
X1686102Y892703D01*
X1680790Y891279D01*
X1679366Y896591D01*
G37*
G36*
X1681825Y887415D02*
X1687137Y888839D01*
X1688561Y883527D01*
X1683249Y882103D01*
X1681825Y887415D01*
G37*
G36*
X1691001Y889873D02*
X1696313Y891297D01*
X1697737Y885985D01*
X1692425Y884561D01*
X1691001Y889873D01*
G37*
G36*
X1688542Y899050D02*
X1693854Y900474D01*
X1695278Y895162D01*
X1689966Y893738D01*
X1688542Y899050D01*
G37*
G36*
X1611395Y935834D02*
X1616707Y937258D01*
X1618131Y931946D01*
X1612819Y930522D01*
X1611395Y935834D01*
G37*
G36*
X1613854Y926658D02*
X1619166Y928082D01*
X1620590Y922770D01*
X1615278Y921346D01*
X1613854Y926658D01*
G37*
G36*
X1623030Y929116D02*
X1628342Y930540D01*
X1629766Y925228D01*
X1624454Y923804D01*
X1623030Y929116D01*
G37*
G36*
X1620571Y938293D02*
X1625883Y939717D01*
X1627307Y934405D01*
X1621995Y932981D01*
X1620571Y938293D01*
G37*
G36*
X1602106Y1023767D02*
X1606868Y1021017D01*
X1604118Y1016255D01*
X1599356Y1019005D01*
X1602106Y1023767D01*
G37*
G36*
X1597356Y1015540D02*
X1602118Y1012790D01*
X1599368Y1008028D01*
X1594606Y1010778D01*
X1597356Y1015540D01*
G37*
G36*
X1605584Y1010790D02*
X1610346Y1008040D01*
X1607596Y1003278D01*
X1602834Y1006028D01*
X1605584Y1010790D01*
G37*
G36*
X1610334Y1019017D02*
X1615096Y1016267D01*
X1612346Y1011505D01*
X1607584Y1014255D01*
X1610334Y1019017D01*
G37*
G36*
X1580376Y1103478D02*
X1585138Y1100728D01*
X1582388Y1095966D01*
X1577626Y1098716D01*
X1580376Y1103478D01*
G37*
G36*
X1575626Y1095250D02*
X1580388Y1092500D01*
X1577638Y1087738D01*
X1572876Y1090488D01*
X1575626Y1095250D01*
G37*
G36*
X1583853Y1090500D02*
X1588615Y1087750D01*
X1585865Y1082988D01*
X1581103Y1085738D01*
X1583853Y1090500D01*
G37*
G36*
X1588603Y1098728D02*
X1593365Y1095978D01*
X1590615Y1091216D01*
X1585853Y1093966D01*
X1588603Y1098728D01*
G37*
G36*
X1530471Y899693D02*
X1533221Y904455D01*
X1537983Y901705D01*
X1535233Y896943D01*
X1530471Y899693D01*
G37*
G36*
X1538699Y894943D02*
X1541449Y899705D01*
X1546211Y896955D01*
X1543461Y892193D01*
X1538699Y894943D01*
G37*
G36*
X1543449Y903170D02*
X1546199Y907932D01*
X1550961Y905182D01*
X1548211Y900420D01*
X1543449Y903170D01*
G37*
G36*
X1535221Y907920D02*
X1537971Y912682D01*
X1542733Y909932D01*
X1539983Y905170D01*
X1535221Y907920D01*
G37*
D12*
G36*
X1733344Y877551D02*
X1729844Y871489D01*
X1721184Y876489D01*
X1724684Y882551D01*
X1733344Y877551D01*
G37*
G36*
X1726344Y865427D02*
X1722844Y859365D01*
X1714184Y864365D01*
X1717684Y870427D01*
X1726344Y865427D01*
G37*
D10*
G36*
X1450355Y878784D02*
X1453105Y883546D01*
X1457867Y880796D01*
X1455117Y876034D01*
X1450355Y878784D01*
G37*
G36*
X1458582Y874034D02*
X1461332Y878796D01*
X1466094Y876046D01*
X1463344Y871284D01*
X1458582Y874034D01*
G37*
G36*
X1463332Y882261D02*
X1466082Y887023D01*
X1470844Y884273D01*
X1468094Y879511D01*
X1463332Y882261D01*
G37*
G36*
X1455105Y887011D02*
X1457855Y891773D01*
X1462617Y889023D01*
X1459867Y884261D01*
X1455105Y887011D01*
G37*
G36*
X1543204Y975204D02*
X1548516Y976628D01*
X1549940Y971316D01*
X1544628Y969892D01*
X1543204Y975204D01*
G37*
G36*
X1545663Y966028D02*
X1550975Y967452D01*
X1552399Y962140D01*
X1547087Y960716D01*
X1545663Y966028D01*
G37*
G36*
X1554839Y968486D02*
X1560151Y969910D01*
X1561575Y964598D01*
X1556263Y963174D01*
X1554839Y968486D01*
G37*
G36*
X1552380Y977663D02*
X1557692Y979087D01*
X1559116Y973775D01*
X1553804Y972351D01*
X1552380Y977663D01*
G37*
G36*
X1475013Y1014574D02*
X1480325Y1015998D01*
X1481749Y1010686D01*
X1476437Y1009262D01*
X1475013Y1014574D01*
G37*
G36*
X1477472Y1005398D02*
X1482784Y1006822D01*
X1484208Y1001510D01*
X1478896Y1000086D01*
X1477472Y1005398D01*
G37*
G36*
X1486648Y1007856D02*
X1491960Y1009280D01*
X1493384Y1003968D01*
X1488072Y1002544D01*
X1486648Y1007856D01*
G37*
G36*
X1484190Y1017033D02*
X1489502Y1018457D01*
X1490926Y1013145D01*
X1485614Y1011721D01*
X1484190Y1017033D01*
G37*
G36*
X1407042Y1053817D02*
X1412354Y1055241D01*
X1413778Y1049929D01*
X1408466Y1048505D01*
X1407042Y1053817D01*
G37*
G36*
X1409501Y1044641D02*
X1414813Y1046065D01*
X1416237Y1040753D01*
X1410925Y1039329D01*
X1409501Y1044641D01*
G37*
G36*
X1418677Y1047099D02*
X1423989Y1048523D01*
X1425413Y1043211D01*
X1420101Y1041787D01*
X1418677Y1047099D01*
G37*
G36*
X1416219Y1056276D02*
X1421531Y1057700D01*
X1422955Y1052388D01*
X1417643Y1050964D01*
X1416219Y1056276D01*
G37*
G36*
X1402813Y1138829D02*
X1407575Y1136079D01*
X1404825Y1131317D01*
X1400063Y1134067D01*
X1402813Y1138829D01*
G37*
G36*
X1398063Y1130602D02*
X1402825Y1127852D01*
X1400075Y1123090D01*
X1395313Y1125840D01*
X1398063Y1130602D01*
G37*
G36*
X1406290Y1125852D02*
X1411052Y1123102D01*
X1408302Y1118340D01*
X1403540Y1121090D01*
X1406290Y1125852D01*
G37*
G36*
X1411040Y1134079D02*
X1415802Y1131329D01*
X1413052Y1126567D01*
X1408290Y1129317D01*
X1411040Y1134079D01*
G37*
G36*
X1380863Y1218667D02*
X1385625Y1215917D01*
X1382875Y1211155D01*
X1378113Y1213905D01*
X1380863Y1218667D01*
G37*
G36*
X1376113Y1210439D02*
X1380875Y1207689D01*
X1378125Y1202927D01*
X1373363Y1205677D01*
X1376113Y1210439D01*
G37*
G36*
X1384340Y1205689D02*
X1389102Y1202939D01*
X1386352Y1198177D01*
X1381590Y1200927D01*
X1384340Y1205689D01*
G37*
G36*
X1389090Y1213917D02*
X1393852Y1211167D01*
X1391102Y1206405D01*
X1386340Y1209155D01*
X1389090Y1213917D01*
G37*
G36*
X1331178Y1014755D02*
X1333928Y1019517D01*
X1338690Y1016767D01*
X1335940Y1012005D01*
X1331178Y1014755D01*
G37*
G36*
X1339405Y1010005D02*
X1342155Y1014767D01*
X1346917Y1012017D01*
X1344167Y1007255D01*
X1339405Y1010005D01*
G37*
G36*
X1344155Y1018232D02*
X1346905Y1022994D01*
X1351667Y1020244D01*
X1348917Y1015482D01*
X1344155Y1018232D01*
G37*
G36*
X1335928Y1022982D02*
X1338678Y1027744D01*
X1343440Y1024994D01*
X1340690Y1020232D01*
X1335928Y1022982D01*
G37*
G36*
X1251062Y993846D02*
X1253812Y998608D01*
X1258574Y995858D01*
X1255824Y991096D01*
X1251062Y993846D01*
G37*
G36*
X1259289Y989096D02*
X1262039Y993858D01*
X1266801Y991108D01*
X1264051Y986346D01*
X1259289Y989096D01*
G37*
G36*
X1264039Y997323D02*
X1266789Y1002085D01*
X1271551Y999335D01*
X1268801Y994573D01*
X1264039Y997323D01*
G37*
G36*
X1255812Y1002073D02*
X1258562Y1006835D01*
X1263324Y1004085D01*
X1260574Y999323D01*
X1255812Y1002073D01*
G37*
D12*
G36*
X1528991Y995534D02*
X1525491Y989472D01*
X1516831Y994472D01*
X1520331Y1000534D01*
X1528991Y995534D01*
G37*
G36*
X1521991Y983410D02*
X1518491Y977348D01*
X1509831Y982348D01*
X1513331Y988410D01*
X1521991Y983410D01*
G37*
D10*
G36*
X1338852Y1093187D02*
X1344164Y1094611D01*
X1345588Y1089299D01*
X1340276Y1087875D01*
X1338852Y1093187D01*
G37*
G36*
X1341310Y1084011D02*
X1346622Y1085435D01*
X1348046Y1080123D01*
X1342734Y1078699D01*
X1341310Y1084011D01*
G37*
G36*
X1350487Y1086469D02*
X1355799Y1087893D01*
X1357223Y1082581D01*
X1351911Y1081157D01*
X1350487Y1086469D01*
G37*
G36*
X1348028Y1095646D02*
X1353340Y1097070D01*
X1354764Y1091758D01*
X1349452Y1090334D01*
X1348028Y1095646D01*
G37*
G36*
X1270661Y1132557D02*
X1275973Y1133981D01*
X1277397Y1128669D01*
X1272085Y1127245D01*
X1270661Y1132557D01*
G37*
G36*
X1273119Y1123381D02*
X1278431Y1124805D01*
X1279855Y1119493D01*
X1274543Y1118069D01*
X1273119Y1123381D01*
G37*
G36*
X1282296Y1125839D02*
X1287608Y1127263D01*
X1289032Y1121951D01*
X1283720Y1120527D01*
X1282296Y1125839D01*
G37*
G36*
X1279837Y1135016D02*
X1285149Y1136440D01*
X1286573Y1131128D01*
X1281261Y1129704D01*
X1279837Y1135016D01*
G37*
G36*
X1825104Y901993D02*
X1828993Y898104D01*
X1825104Y894215D01*
X1821215Y898104D01*
X1825104Y901993D01*
G37*
G36*
X1818387Y895276D02*
X1822276Y891387D01*
X1818387Y887498D01*
X1814498Y891387D01*
X1818387Y895276D01*
G37*
G36*
X1825104Y888558D02*
X1828993Y884669D01*
X1825104Y880780D01*
X1821215Y884669D01*
X1825104Y888558D01*
G37*
G36*
X1831822Y895276D02*
X1835711Y891387D01*
X1831822Y887498D01*
X1827933Y891387D01*
X1831822Y895276D01*
G37*
G36*
X1825104Y980733D02*
X1828993Y976844D01*
X1825104Y972955D01*
X1821215Y976844D01*
X1825104Y980733D01*
G37*
G36*
X1818387Y974016D02*
X1822276Y970127D01*
X1818387Y966238D01*
X1814498Y970127D01*
X1818387Y974016D01*
G37*
G36*
X1825104Y967298D02*
X1828993Y963409D01*
X1825104Y959520D01*
X1821215Y963409D01*
X1825104Y967298D01*
G37*
G36*
X1831822Y974016D02*
X1835711Y970127D01*
X1831822Y966238D01*
X1827933Y970127D01*
X1831822Y974016D01*
G37*
G36*
X1825104Y1059219D02*
X1828993Y1055330D01*
X1825104Y1051441D01*
X1821215Y1055330D01*
X1825104Y1059219D01*
G37*
G36*
X1818387Y1052502D02*
X1822276Y1048613D01*
X1818387Y1044724D01*
X1814498Y1048613D01*
X1818387Y1052502D01*
G37*
G36*
X1825104Y1045784D02*
X1828993Y1041895D01*
X1825104Y1038006D01*
X1821215Y1041895D01*
X1825104Y1045784D01*
G37*
G36*
X1831822Y1052502D02*
X1835711Y1048613D01*
X1831822Y1044724D01*
X1827933Y1048613D01*
X1831822Y1052502D01*
G37*
D11*
X1893862Y1108481D03*
X1884362Y1108481D03*
X1884362Y1098981D03*
X1893862Y1098981D03*
X1952028Y1167155D03*
X1942528Y1167155D03*
X1942528Y1157655D03*
X1952028Y1157655D03*
X1756092Y1108481D03*
X1756092Y1098981D03*
X1765592Y1098981D03*
X1765592Y1108481D03*
D12*
X1832104Y929467D03*
X1818104Y929467D03*
D11*
X1697926Y1167409D03*
X1697926Y1157909D03*
X1707426Y1157909D03*
X1707426Y1167409D03*
D10*
G36*
X1825104Y1137959D02*
X1828993Y1134070D01*
X1825104Y1130181D01*
X1821215Y1134070D01*
X1825104Y1137959D01*
G37*
G36*
X1818387Y1131242D02*
X1822276Y1127353D01*
X1818387Y1123464D01*
X1814498Y1127353D01*
X1818387Y1131242D01*
G37*
G36*
X1825104Y1124524D02*
X1828993Y1120635D01*
X1825104Y1116746D01*
X1821215Y1120635D01*
X1825104Y1124524D01*
G37*
G36*
X1831822Y1131242D02*
X1835711Y1127353D01*
X1831822Y1123464D01*
X1827933Y1127353D01*
X1831822Y1131242D01*
G37*
G36*
X1825104Y1216699D02*
X1828993Y1212810D01*
X1825104Y1208921D01*
X1821215Y1212810D01*
X1825104Y1216699D01*
G37*
G36*
X1818387Y1209982D02*
X1822276Y1206093D01*
X1818387Y1202204D01*
X1814498Y1206093D01*
X1818387Y1209982D01*
G37*
G36*
X1825104Y1203264D02*
X1828993Y1199375D01*
X1825104Y1195486D01*
X1821215Y1199375D01*
X1825104Y1203264D01*
G37*
G36*
X1831822Y1209982D02*
X1835711Y1206093D01*
X1831822Y1202204D01*
X1827933Y1206093D01*
X1831822Y1209982D01*
G37*
G36*
X1825104Y1295185D02*
X1828993Y1291296D01*
X1825104Y1287407D01*
X1821215Y1291296D01*
X1825104Y1295185D01*
G37*
G36*
X1818387Y1288468D02*
X1822276Y1284579D01*
X1818387Y1280690D01*
X1814498Y1284579D01*
X1818387Y1288468D01*
G37*
G36*
X1825104Y1281750D02*
X1828993Y1277861D01*
X1825104Y1273972D01*
X1821215Y1277861D01*
X1825104Y1281750D01*
G37*
G36*
X1831822Y1288468D02*
X1835711Y1284579D01*
X1831822Y1280690D01*
X1827933Y1284579D01*
X1831822Y1288468D01*
G37*
D11*
X1893862Y1338605D03*
X1884362Y1338605D03*
X1884362Y1329105D03*
X1893862Y1329105D03*
X1952028Y1397533D03*
X1942528Y1397533D03*
X1942528Y1388033D03*
X1952028Y1388033D03*
X1756092Y1338605D03*
X1756092Y1329105D03*
X1765592Y1329105D03*
X1765592Y1338605D03*
X1697926Y1397533D03*
X1697926Y1388033D03*
X1707426Y1388033D03*
X1707426Y1397533D03*
D12*
X1832104Y1165433D03*
X1818104Y1165433D03*
D10*
G36*
X1825104Y1373925D02*
X1828993Y1370036D01*
X1825104Y1366147D01*
X1821215Y1370036D01*
X1825104Y1373925D01*
G37*
G36*
X1818387Y1367208D02*
X1822276Y1363319D01*
X1818387Y1359430D01*
X1814498Y1363319D01*
X1818387Y1367208D01*
G37*
G36*
X1825104Y1360490D02*
X1828993Y1356601D01*
X1825104Y1352712D01*
X1821215Y1356601D01*
X1825104Y1360490D01*
G37*
G36*
X1831822Y1367208D02*
X1835711Y1363319D01*
X1831822Y1359430D01*
X1827933Y1363319D01*
X1831822Y1367208D01*
G37*
G36*
X1825104Y1452665D02*
X1828993Y1448776D01*
X1825104Y1444887D01*
X1821215Y1448776D01*
X1825104Y1452665D01*
G37*
G36*
X1818387Y1445948D02*
X1822276Y1442059D01*
X1818387Y1438170D01*
X1814498Y1442059D01*
X1818387Y1445948D01*
G37*
G36*
X1825104Y1439230D02*
X1828993Y1435341D01*
X1825104Y1431452D01*
X1821215Y1435341D01*
X1825104Y1439230D01*
G37*
G36*
X1831822Y1445948D02*
X1835711Y1442059D01*
X1831822Y1438170D01*
X1827933Y1442059D01*
X1831822Y1445948D01*
G37*
G36*
X1902651Y857221D02*
X1901227Y851909D01*
X1895915Y853333D01*
X1897339Y858645D01*
X1902651Y857221D01*
G37*
G36*
X1893475Y859680D02*
X1892051Y854368D01*
X1886739Y855792D01*
X1888163Y861104D01*
X1893475Y859680D01*
G37*
G36*
X1891016Y850503D02*
X1889592Y845191D01*
X1884280Y846615D01*
X1885704Y851927D01*
X1891016Y850503D01*
G37*
G36*
X1900193Y848045D02*
X1898769Y842733D01*
X1893457Y844157D01*
X1894881Y849469D01*
X1900193Y848045D01*
G37*
G36*
X1970842Y896591D02*
X1969418Y891279D01*
X1964106Y892703D01*
X1965530Y898015D01*
X1970842Y896591D01*
G37*
G36*
X1961666Y899050D02*
X1960242Y893738D01*
X1954930Y895162D01*
X1956354Y900474D01*
X1961666Y899050D01*
G37*
G36*
X1959207Y889873D02*
X1957783Y884561D01*
X1952471Y885985D01*
X1953895Y891297D01*
X1959207Y889873D01*
G37*
G36*
X1968384Y887415D02*
X1966960Y882103D01*
X1961648Y883527D01*
X1963072Y888839D01*
X1968384Y887415D01*
G37*
G36*
X2038813Y935834D02*
X2037389Y930522D01*
X2032077Y931946D01*
X2033501Y937258D01*
X2038813Y935834D01*
G37*
G36*
X2029637Y938293D02*
X2028213Y932981D01*
X2022901Y934405D01*
X2024325Y939717D01*
X2029637Y938293D01*
G37*
G36*
X2027178Y929116D02*
X2025754Y923804D01*
X2020442Y925228D01*
X2021866Y930540D01*
X2027178Y929116D01*
G37*
G36*
X2036354Y926658D02*
X2034930Y921346D01*
X2029618Y922770D01*
X2031042Y928082D01*
X2036354Y926658D01*
G37*
G36*
X2119610Y899913D02*
X2114848Y897163D01*
X2112098Y901925D01*
X2116860Y904675D01*
X2119610Y899913D01*
G37*
G36*
X2114860Y908140D02*
X2110098Y905390D01*
X2107348Y910152D01*
X2112110Y912902D01*
X2114860Y908140D01*
G37*
G36*
X2106633Y903390D02*
X2101871Y900640D01*
X2099121Y905402D01*
X2103883Y908152D01*
X2106633Y903390D01*
G37*
G36*
X2111383Y895163D02*
X2106621Y892413D01*
X2103871Y897175D01*
X2108633Y899925D01*
X2111383Y895163D01*
G37*
G36*
X2199506Y878877D02*
X2194744Y876127D01*
X2191994Y880889D01*
X2196756Y883639D01*
X2199506Y878877D01*
G37*
G36*
X2194756Y887104D02*
X2189994Y884354D01*
X2187244Y889116D01*
X2192006Y891866D01*
X2194756Y887104D01*
G37*
G36*
X2186529Y882354D02*
X2181767Y879604D01*
X2179017Y884366D01*
X2183779Y887116D01*
X2186529Y882354D01*
G37*
G36*
X2191279Y874127D02*
X2186517Y871377D01*
X2183767Y876139D01*
X2188529Y878889D01*
X2191279Y874127D01*
G37*
G36*
X2047975Y1023987D02*
X2050725Y1019225D01*
X2045963Y1016475D01*
X2043213Y1021237D01*
X2047975Y1023987D01*
G37*
G36*
X2039748Y1019237D02*
X2042498Y1014475D01*
X2037736Y1011725D01*
X2034986Y1016487D01*
X2039748Y1019237D01*
G37*
G36*
X2044498Y1011010D02*
X2047248Y1006248D01*
X2042486Y1003498D01*
X2039736Y1008260D01*
X2044498Y1011010D01*
G37*
G36*
X2052725Y1015760D02*
X2055475Y1010998D01*
X2050713Y1008248D01*
X2047963Y1013010D01*
X2052725Y1015760D01*
G37*
D12*
G36*
X1927364Y859365D02*
X1923864Y865427D01*
X1932524Y870427D01*
X1936024Y864365D01*
X1927364Y859365D01*
G37*
G36*
X1920364Y871489D02*
X1916864Y877551D01*
X1925524Y882551D01*
X1929024Y876489D01*
X1920364Y871489D01*
G37*
D10*
G36*
X2069925Y1103825D02*
X2072675Y1099063D01*
X2067913Y1096313D01*
X2065163Y1101075D01*
X2069925Y1103825D01*
G37*
G36*
X2061698Y1099075D02*
X2064448Y1094313D01*
X2059686Y1091563D01*
X2056936Y1096325D01*
X2061698Y1099075D01*
G37*
G36*
X2066448Y1090847D02*
X2069198Y1086085D01*
X2064436Y1083335D01*
X2061686Y1088097D01*
X2066448Y1090847D01*
G37*
G36*
X2074675Y1095597D02*
X2077425Y1090835D01*
X2072663Y1088085D01*
X2069913Y1092847D01*
X2074675Y1095597D01*
G37*
G36*
X2107004Y975204D02*
X2105580Y969892D01*
X2100268Y971316D01*
X2101692Y976628D01*
X2107004Y975204D01*
G37*
G36*
X2097828Y977663D02*
X2096404Y972351D01*
X2091092Y973775D01*
X2092516Y979087D01*
X2097828Y977663D01*
G37*
G36*
X2095369Y968486D02*
X2093945Y963174D01*
X2088633Y964598D01*
X2090057Y969910D01*
X2095369Y968486D01*
G37*
G36*
X2104545Y966028D02*
X2103121Y960716D01*
X2097809Y962140D01*
X2099233Y967452D01*
X2104545Y966028D01*
G37*
G36*
X2175195Y1014574D02*
X2173771Y1009262D01*
X2168459Y1010686D01*
X2169883Y1015998D01*
X2175195Y1014574D01*
G37*
G36*
X2166019Y1017033D02*
X2164595Y1011721D01*
X2159283Y1013145D01*
X2160707Y1018457D01*
X2166019Y1017033D01*
G37*
G36*
X2163560Y1007856D02*
X2162136Y1002544D01*
X2156824Y1003968D01*
X2158248Y1009280D01*
X2163560Y1007856D01*
G37*
G36*
X2172736Y1005398D02*
X2171312Y1000086D01*
X2166000Y1001510D01*
X2167424Y1006822D01*
X2172736Y1005398D01*
G37*
G36*
X2243166Y1053817D02*
X2241742Y1048505D01*
X2236430Y1049929D01*
X2237854Y1055241D01*
X2243166Y1053817D01*
G37*
G36*
X2233989Y1056276D02*
X2232565Y1050964D01*
X2227253Y1052388D01*
X2228677Y1057700D01*
X2233989Y1056276D01*
G37*
G36*
X2231531Y1047099D02*
X2230107Y1041787D01*
X2224795Y1043211D01*
X2226219Y1048523D01*
X2231531Y1047099D01*
G37*
G36*
X2240707Y1044641D02*
X2239283Y1039329D01*
X2233971Y1040753D01*
X2235395Y1046065D01*
X2240707Y1044641D01*
G37*
G36*
X2318903Y1014975D02*
X2314141Y1012225D01*
X2311391Y1016987D01*
X2316153Y1019737D01*
X2318903Y1014975D01*
G37*
G36*
X2314153Y1023202D02*
X2309391Y1020452D01*
X2306641Y1025214D01*
X2311403Y1027964D01*
X2314153Y1023202D01*
G37*
G36*
X2305926Y1018452D02*
X2301164Y1015702D01*
X2298414Y1020464D01*
X2303176Y1023214D01*
X2305926Y1018452D01*
G37*
G36*
X2310676Y1010225D02*
X2305914Y1007475D01*
X2303164Y1012237D01*
X2307926Y1014987D01*
X2310676Y1010225D01*
G37*
G36*
X2399019Y994066D02*
X2394257Y991316D01*
X2391507Y996078D01*
X2396269Y998828D01*
X2399019Y994066D01*
G37*
G36*
X2394269Y1002293D02*
X2389507Y999543D01*
X2386757Y1004305D01*
X2391519Y1007055D01*
X2394269Y1002293D01*
G37*
G36*
X2386042Y997543D02*
X2381280Y994793D01*
X2378530Y999555D01*
X2383292Y1002305D01*
X2386042Y997543D01*
G37*
G36*
X2390792Y989316D02*
X2386030Y986566D01*
X2383280Y991328D01*
X2388042Y994078D01*
X2390792Y989316D01*
G37*
G36*
X2247268Y1139049D02*
X2250018Y1134287D01*
X2245256Y1131537D01*
X2242506Y1136299D01*
X2247268Y1139049D01*
G37*
G36*
X2239041Y1134299D02*
X2241791Y1129537D01*
X2237029Y1126787D01*
X2234279Y1131549D01*
X2239041Y1134299D01*
G37*
G36*
X2243791Y1126072D02*
X2246541Y1121310D01*
X2241779Y1118560D01*
X2239029Y1123322D01*
X2243791Y1126072D01*
G37*
G36*
X2252018Y1130822D02*
X2254768Y1126060D01*
X2250006Y1123310D01*
X2247256Y1128072D01*
X2252018Y1130822D01*
G37*
G36*
X2269218Y1218887D02*
X2271968Y1214125D01*
X2267206Y1211375D01*
X2264456Y1216137D01*
X2269218Y1218887D01*
G37*
G36*
X2260991Y1214137D02*
X2263741Y1209375D01*
X2258979Y1206625D01*
X2256229Y1211387D01*
X2260991Y1214137D01*
G37*
G36*
X2265741Y1205909D02*
X2268491Y1201147D01*
X2263729Y1198397D01*
X2260979Y1203159D01*
X2265741Y1205909D01*
G37*
G36*
X2273968Y1210659D02*
X2276718Y1205897D01*
X2271956Y1203147D01*
X2269206Y1207909D01*
X2273968Y1210659D01*
G37*
D12*
G36*
X2131717Y977348D02*
X2128217Y983410D01*
X2136877Y988410D01*
X2140377Y982348D01*
X2131717Y977348D01*
G37*
G36*
X2124717Y989472D02*
X2121217Y995534D01*
X2129877Y1000534D01*
X2133377Y994472D01*
X2124717Y989472D01*
G37*
D10*
G36*
X2311357Y1093187D02*
X2309933Y1087875D01*
X2304621Y1089299D01*
X2306045Y1094611D01*
X2311357Y1093187D01*
G37*
G36*
X2302180Y1095646D02*
X2300756Y1090334D01*
X2295444Y1091758D01*
X2296868Y1097070D01*
X2302180Y1095646D01*
G37*
G36*
X2299721Y1086469D02*
X2298297Y1081157D01*
X2292985Y1082581D01*
X2294409Y1087893D01*
X2299721Y1086469D01*
G37*
G36*
X2308898Y1084011D02*
X2307474Y1078699D01*
X2302162Y1080123D01*
X2303586Y1085435D01*
X2308898Y1084011D01*
G37*
G36*
X2379547Y1132557D02*
X2378123Y1127245D01*
X2372811Y1128669D01*
X2374235Y1133981D01*
X2379547Y1132557D01*
G37*
G36*
X2370371Y1135016D02*
X2368947Y1129704D01*
X2363635Y1131128D01*
X2365059Y1136440D01*
X2370371Y1135016D01*
G37*
G36*
X2367912Y1125839D02*
X2366488Y1120527D01*
X2361176Y1121951D01*
X2362600Y1127263D01*
X2367912Y1125839D01*
G37*
G36*
X2377089Y1123381D02*
X2375665Y1118069D01*
X2370353Y1119493D01*
X2371777Y1124805D01*
X2377089Y1123381D01*
G37*
G36*
X1902651Y767678D02*
X1897339Y766254D01*
X1895915Y771566D01*
X1901227Y772990D01*
X1902651Y767678D01*
G37*
G36*
X1900193Y776854D02*
X1894881Y775430D01*
X1893457Y780742D01*
X1898769Y782166D01*
X1900193Y776854D01*
G37*
G36*
X1891016Y774396D02*
X1885704Y772972D01*
X1884280Y778284D01*
X1889592Y779708D01*
X1891016Y774396D01*
G37*
G36*
X1893475Y765219D02*
X1888163Y763795D01*
X1886739Y769107D01*
X1892051Y770531D01*
X1893475Y765219D01*
G37*
G36*
X1970842Y728308D02*
X1965530Y726884D01*
X1964106Y732196D01*
X1969418Y733620D01*
X1970842Y728308D01*
G37*
G36*
X1968384Y737484D02*
X1963072Y736060D01*
X1961648Y741372D01*
X1966960Y742796D01*
X1968384Y737484D01*
G37*
G36*
X1959207Y735026D02*
X1953895Y733602D01*
X1952471Y738914D01*
X1957783Y740338D01*
X1959207Y735026D01*
G37*
G36*
X1961666Y725849D02*
X1956354Y724425D01*
X1954930Y729737D01*
X1960242Y731161D01*
X1961666Y725849D01*
G37*
G36*
X2038813Y689065D02*
X2033501Y687641D01*
X2032077Y692953D01*
X2037389Y694377D01*
X2038813Y689065D01*
G37*
G36*
X2036354Y698241D02*
X2031042Y696817D01*
X2029618Y702129D01*
X2034930Y703553D01*
X2036354Y698241D01*
G37*
G36*
X2027178Y695783D02*
X2021866Y694359D01*
X2020442Y699671D01*
X2025754Y701095D01*
X2027178Y695783D01*
G37*
G36*
X2029637Y686606D02*
X2024325Y685182D01*
X2022901Y690494D01*
X2028213Y691918D01*
X2029637Y686606D01*
G37*
G36*
X2048102Y601132D02*
X2043340Y603882D01*
X2046090Y608644D01*
X2050852Y605894D01*
X2048102Y601132D01*
G37*
G36*
X2052852Y609359D02*
X2048090Y612109D01*
X2050840Y616871D01*
X2055602Y614121D01*
X2052852Y609359D01*
G37*
G36*
X2044625Y614109D02*
X2039863Y616859D01*
X2042613Y621621D01*
X2047375Y618871D01*
X2044625Y614109D01*
G37*
G36*
X2039875Y605882D02*
X2035113Y608632D01*
X2037863Y613394D01*
X2042625Y610644D01*
X2039875Y605882D01*
G37*
G36*
X2069832Y521421D02*
X2065070Y524171D01*
X2067820Y528933D01*
X2072582Y526183D01*
X2069832Y521421D01*
G37*
G36*
X2074582Y529649D02*
X2069820Y532399D01*
X2072570Y537161D01*
X2077332Y534411D01*
X2074582Y529649D01*
G37*
G36*
X2066355Y534399D02*
X2061593Y537149D01*
X2064343Y541911D01*
X2069105Y539161D01*
X2066355Y534399D01*
G37*
G36*
X2061605Y526171D02*
X2056843Y528921D01*
X2059593Y533683D01*
X2064355Y530933D01*
X2061605Y526171D01*
G37*
G36*
X2119737Y725206D02*
X2116987Y720444D01*
X2112225Y723194D01*
X2114975Y727956D01*
X2119737Y725206D01*
G37*
G36*
X2111510Y729956D02*
X2108760Y725194D01*
X2103998Y727944D01*
X2106748Y732706D01*
X2111510Y729956D01*
G37*
G36*
X2106760Y721729D02*
X2104010Y716967D01*
X2099248Y719717D01*
X2101998Y724479D01*
X2106760Y721729D01*
G37*
G36*
X2114987Y716979D02*
X2112237Y712217D01*
X2107475Y714967D01*
X2110225Y719729D01*
X2114987Y716979D01*
G37*
D12*
G36*
X1916864Y747348D02*
X1920364Y753410D01*
X1929024Y748410D01*
X1925524Y742348D01*
X1916864Y747348D01*
G37*
G36*
X1923864Y759472D02*
X1927364Y765534D01*
X1936024Y760534D01*
X1932524Y754472D01*
X1923864Y759472D01*
G37*
D10*
G36*
X2199853Y746115D02*
X2197103Y741353D01*
X2192341Y744103D01*
X2195091Y748865D01*
X2199853Y746115D01*
G37*
G36*
X2191626Y750865D02*
X2188876Y746103D01*
X2184114Y748853D01*
X2186864Y753615D01*
X2191626Y750865D01*
G37*
G36*
X2186876Y742638D02*
X2184126Y737876D01*
X2179364Y740626D01*
X2182114Y745388D01*
X2186876Y742638D01*
G37*
G36*
X2195103Y737888D02*
X2192353Y733126D01*
X2187591Y735876D01*
X2190341Y740638D01*
X2195103Y737888D01*
G37*
G36*
X2107004Y649695D02*
X2101692Y648271D01*
X2100268Y653583D01*
X2105580Y655007D01*
X2107004Y649695D01*
G37*
G36*
X2104545Y658871D02*
X2099233Y657447D01*
X2097809Y662759D01*
X2103121Y664183D01*
X2104545Y658871D01*
G37*
G36*
X2095369Y656413D02*
X2090057Y654989D01*
X2088633Y660301D01*
X2093945Y661725D01*
X2095369Y656413D01*
G37*
G36*
X2097828Y647236D02*
X2092516Y645812D01*
X2091092Y651124D01*
X2096404Y652548D01*
X2097828Y647236D01*
G37*
G36*
X2175195Y610325D02*
X2169883Y608901D01*
X2168459Y614213D01*
X2173771Y615637D01*
X2175195Y610325D01*
G37*
G36*
X2172736Y619501D02*
X2167424Y618077D01*
X2166000Y623389D01*
X2171312Y624813D01*
X2172736Y619501D01*
G37*
G36*
X2163560Y617043D02*
X2158248Y615619D01*
X2156824Y620931D01*
X2162136Y622355D01*
X2163560Y617043D01*
G37*
G36*
X2166019Y607866D02*
X2160707Y606442D01*
X2159283Y611754D01*
X2164595Y613178D01*
X2166019Y607866D01*
G37*
G36*
X2243166Y571082D02*
X2237854Y569658D01*
X2236430Y574970D01*
X2241742Y576394D01*
X2243166Y571082D01*
G37*
G36*
X2240707Y580258D02*
X2235395Y578834D01*
X2233971Y584146D01*
X2239283Y585570D01*
X2240707Y580258D01*
G37*
G36*
X2231531Y577800D02*
X2226219Y576376D01*
X2224795Y581688D01*
X2230107Y583112D01*
X2231531Y577800D01*
G37*
G36*
X2233989Y568623D02*
X2228677Y567199D01*
X2227253Y572511D01*
X2232565Y573935D01*
X2233989Y568623D01*
G37*
G36*
X2247395Y486070D02*
X2242633Y488820D01*
X2245383Y493582D01*
X2250145Y490832D01*
X2247395Y486070D01*
G37*
G36*
X2252145Y494297D02*
X2247383Y497047D01*
X2250133Y501809D01*
X2254895Y499059D01*
X2252145Y494297D01*
G37*
G36*
X2243918Y499047D02*
X2239156Y501797D01*
X2241906Y506559D01*
X2246668Y503809D01*
X2243918Y499047D01*
G37*
G36*
X2239168Y490820D02*
X2234406Y493570D01*
X2237156Y498332D01*
X2241918Y495582D01*
X2239168Y490820D01*
G37*
G36*
X2269345Y406232D02*
X2264583Y408982D01*
X2267333Y413744D01*
X2272095Y410994D01*
X2269345Y406232D01*
G37*
G36*
X2274095Y414460D02*
X2269333Y417210D01*
X2272083Y421972D01*
X2276845Y419222D01*
X2274095Y414460D01*
G37*
G36*
X2265868Y419210D02*
X2261106Y421960D01*
X2263856Y426722D01*
X2268618Y423972D01*
X2265868Y419210D01*
G37*
G36*
X2261118Y410982D02*
X2256356Y413732D01*
X2259106Y418494D01*
X2263868Y415744D01*
X2261118Y410982D01*
G37*
G36*
X2319030Y610144D02*
X2316280Y605382D01*
X2311518Y608132D01*
X2314268Y612894D01*
X2319030Y610144D01*
G37*
G36*
X2310803Y614894D02*
X2308053Y610132D01*
X2303291Y612882D01*
X2306041Y617644D01*
X2310803Y614894D01*
G37*
G36*
X2306053Y606667D02*
X2303303Y601905D01*
X2298541Y604655D01*
X2301291Y609417D01*
X2306053Y606667D01*
G37*
G36*
X2314280Y601917D02*
X2311530Y597155D01*
X2306768Y599905D01*
X2309518Y604667D01*
X2314280Y601917D01*
G37*
G36*
X2399146Y631053D02*
X2396396Y626291D01*
X2391634Y629041D01*
X2394384Y633803D01*
X2399146Y631053D01*
G37*
G36*
X2390919Y635803D02*
X2388169Y631041D01*
X2383407Y633791D01*
X2386157Y638553D01*
X2390919Y635803D01*
G37*
G36*
X2386169Y627576D02*
X2383419Y622814D01*
X2378657Y625564D01*
X2381407Y630326D01*
X2386169Y627576D01*
G37*
G36*
X2394396Y622826D02*
X2391646Y618064D01*
X2386884Y620814D01*
X2389634Y625576D01*
X2394396Y622826D01*
G37*
D12*
G36*
X2121217Y629365D02*
X2124717Y635427D01*
X2133377Y630427D01*
X2129877Y624365D01*
X2121217Y629365D01*
G37*
G36*
X2128217Y641489D02*
X2131717Y647551D01*
X2140377Y642551D01*
X2136877Y636489D01*
X2128217Y641489D01*
G37*
D10*
G36*
X2311357Y531712D02*
X2306045Y530288D01*
X2304621Y535600D01*
X2309933Y537024D01*
X2311357Y531712D01*
G37*
G36*
X2308898Y540888D02*
X2303586Y539464D01*
X2302162Y544776D01*
X2307474Y546200D01*
X2308898Y540888D01*
G37*
G36*
X2299721Y538430D02*
X2294409Y537006D01*
X2292985Y542318D01*
X2298297Y543742D01*
X2299721Y538430D01*
G37*
G36*
X2302180Y529253D02*
X2296868Y527829D01*
X2295444Y533141D01*
X2300756Y534565D01*
X2302180Y529253D01*
G37*
G36*
X2379547Y492342D02*
X2374235Y490918D01*
X2372811Y496230D01*
X2378123Y497654D01*
X2379547Y492342D01*
G37*
G36*
X2377089Y501518D02*
X2371777Y500094D01*
X2370353Y505406D01*
X2375665Y506830D01*
X2377089Y501518D01*
G37*
G36*
X2367912Y499060D02*
X2362600Y497636D01*
X2361176Y502948D01*
X2366488Y504372D01*
X2367912Y499060D01*
G37*
G36*
X2370371Y489883D02*
X2365059Y488459D01*
X2363635Y493771D01*
X2368947Y495195D01*
X2370371Y489883D01*
G37*
G36*
X3041782Y722906D02*
X3037893Y726795D01*
X3041782Y730684D01*
X3045671Y726795D01*
X3041782Y722906D01*
G37*
G36*
X3048500Y729623D02*
X3044611Y733512D01*
X3048500Y737401D01*
X3052389Y733512D01*
X3048500Y729623D01*
G37*
G36*
X3041782Y736341D02*
X3037893Y740230D01*
X3041782Y744119D01*
X3045671Y740230D01*
X3041782Y736341D01*
G37*
G36*
X3035065Y729623D02*
X3031176Y733512D01*
X3035065Y737401D01*
X3038954Y733512D01*
X3035065Y729623D01*
G37*
G36*
X3041782Y644166D02*
X3037893Y648055D01*
X3041782Y651944D01*
X3045671Y648055D01*
X3041782Y644166D01*
G37*
G36*
X3048500Y650883D02*
X3044611Y654772D01*
X3048500Y658661D01*
X3052389Y654772D01*
X3048500Y650883D01*
G37*
G36*
X3041782Y657601D02*
X3037893Y661490D01*
X3041782Y665379D01*
X3045671Y661490D01*
X3041782Y657601D01*
G37*
G36*
X3035065Y650883D02*
X3031176Y654772D01*
X3035065Y658661D01*
X3038954Y654772D01*
X3035065Y650883D01*
G37*
G36*
X3041782Y565680D02*
X3037893Y569569D01*
X3041782Y573458D01*
X3045671Y569569D01*
X3041782Y565680D01*
G37*
G36*
X3048500Y572397D02*
X3044611Y576286D01*
X3048500Y580175D01*
X3052389Y576286D01*
X3048500Y572397D01*
G37*
G36*
X3041782Y579115D02*
X3037893Y583004D01*
X3041782Y586893D01*
X3045671Y583004D01*
X3041782Y579115D01*
G37*
G36*
X3035065Y572397D02*
X3031176Y576286D01*
X3035065Y580175D01*
X3038954Y576286D01*
X3035065Y572397D01*
G37*
D11*
X2973024Y516418D03*
X2982524Y516418D03*
X2982524Y525918D03*
X2973024Y525918D03*
X2914858Y457744D03*
X2924358Y457744D03*
X2924358Y467244D03*
X2914858Y467244D03*
X3110794Y516418D03*
X3110794Y525918D03*
X3101294Y525918D03*
X3101294Y516418D03*
D12*
X3034782Y695432D03*
X3048782Y695432D03*
D11*
X3168960Y457490D03*
X3168960Y466990D03*
X3159460Y466990D03*
X3159460Y457490D03*
D10*
G36*
X3041782Y486940D02*
X3037893Y490829D01*
X3041782Y494718D01*
X3045671Y490829D01*
X3041782Y486940D01*
G37*
G36*
X3048500Y493657D02*
X3044611Y497546D01*
X3048500Y501435D01*
X3052389Y497546D01*
X3048500Y493657D01*
G37*
G36*
X3041782Y500375D02*
X3037893Y504264D01*
X3041782Y508153D01*
X3045671Y504264D01*
X3041782Y500375D01*
G37*
G36*
X3035065Y493657D02*
X3031176Y497546D01*
X3035065Y501435D01*
X3038954Y497546D01*
X3035065Y493657D01*
G37*
G36*
X3041782Y408200D02*
X3037893Y412089D01*
X3041782Y415978D01*
X3045671Y412089D01*
X3041782Y408200D01*
G37*
G36*
X3048500Y414917D02*
X3044611Y418806D01*
X3048500Y422695D01*
X3052389Y418806D01*
X3048500Y414917D01*
G37*
G36*
X3041782Y421635D02*
X3037893Y425524D01*
X3041782Y429413D01*
X3045671Y425524D01*
X3041782Y421635D01*
G37*
G36*
X3035065Y414917D02*
X3031176Y418806D01*
X3035065Y422695D01*
X3038954Y418806D01*
X3035065Y414917D01*
G37*
G36*
X3041782Y329714D02*
X3037893Y333603D01*
X3041782Y337492D01*
X3045671Y333603D01*
X3041782Y329714D01*
G37*
G36*
X3048500Y336431D02*
X3044611Y340320D01*
X3048500Y344209D01*
X3052389Y340320D01*
X3048500Y336431D01*
G37*
G36*
X3041782Y343149D02*
X3037893Y347038D01*
X3041782Y350927D01*
X3045671Y347038D01*
X3041782Y343149D01*
G37*
G36*
X3035065Y336431D02*
X3031176Y340320D01*
X3035065Y344209D01*
X3038954Y340320D01*
X3035065Y336431D01*
G37*
D11*
X2973024Y286294D03*
X2982524Y286294D03*
X2982524Y295794D03*
X2973024Y295794D03*
X2914858Y227366D03*
X2924358Y227366D03*
X2924358Y236866D03*
X2914858Y236866D03*
X3110794Y286294D03*
X3110794Y295794D03*
X3101294Y295794D03*
X3101294Y286294D03*
X3168960Y227366D03*
X3168960Y236866D03*
X3159460Y236866D03*
X3159460Y227366D03*
D12*
X3034782Y459466D03*
X3048782Y459466D03*
D10*
G36*
X3041782Y250974D02*
X3037893Y254863D01*
X3041782Y258752D01*
X3045671Y254863D01*
X3041782Y250974D01*
G37*
G36*
X3048500Y257691D02*
X3044611Y261580D01*
X3048500Y265469D01*
X3052389Y261580D01*
X3048500Y257691D01*
G37*
G36*
X3041782Y264409D02*
X3037893Y268298D01*
X3041782Y272187D01*
X3045671Y268298D01*
X3041782Y264409D01*
G37*
G36*
X3035065Y257691D02*
X3031176Y261580D01*
X3035065Y265469D01*
X3038954Y261580D01*
X3035065Y257691D01*
G37*
G36*
X3041782Y172234D02*
X3037893Y176123D01*
X3041782Y180012D01*
X3045671Y176123D01*
X3041782Y172234D01*
G37*
G36*
X3048500Y178951D02*
X3044611Y182840D01*
X3048500Y186729D01*
X3052389Y182840D01*
X3048500Y178951D01*
G37*
G36*
X3041782Y185669D02*
X3037893Y189558D01*
X3041782Y193447D01*
X3045671Y189558D01*
X3041782Y185669D01*
G37*
G36*
X3035065Y178951D02*
X3031176Y182840D01*
X3035065Y186729D01*
X3038954Y182840D01*
X3035065Y178951D01*
G37*
G36*
X2964235Y767678D02*
X2965659Y772990D01*
X2970971Y771566D01*
X2969547Y766254D01*
X2964235Y767678D01*
G37*
G36*
X2973411Y765219D02*
X2974835Y770531D01*
X2980147Y769107D01*
X2978723Y763795D01*
X2973411Y765219D01*
G37*
G36*
X2975870Y774396D02*
X2977294Y779708D01*
X2982606Y778284D01*
X2981182Y772972D01*
X2975870Y774396D01*
G37*
G36*
X2966693Y776854D02*
X2968117Y782166D01*
X2973429Y780742D01*
X2972005Y775430D01*
X2966693Y776854D01*
G37*
G36*
X2896044Y728308D02*
X2897468Y733620D01*
X2902780Y732196D01*
X2901356Y726884D01*
X2896044Y728308D01*
G37*
G36*
X2905220Y725849D02*
X2906644Y731161D01*
X2911956Y729737D01*
X2910532Y724425D01*
X2905220Y725849D01*
G37*
G36*
X2907679Y735026D02*
X2909103Y740338D01*
X2914415Y738914D01*
X2912991Y733602D01*
X2907679Y735026D01*
G37*
G36*
X2898503Y737484D02*
X2899927Y742796D01*
X2905239Y741372D01*
X2903815Y736060D01*
X2898503Y737484D01*
G37*
G36*
X2828073Y689065D02*
X2829497Y694377D01*
X2834809Y692953D01*
X2833385Y687641D01*
X2828073Y689065D01*
G37*
G36*
X2837249Y686606D02*
X2838673Y691918D01*
X2843985Y690494D01*
X2842561Y685182D01*
X2837249Y686606D01*
G37*
G36*
X2839708Y695783D02*
X2841132Y701095D01*
X2846444Y699671D01*
X2845020Y694359D01*
X2839708Y695783D01*
G37*
G36*
X2830532Y698241D02*
X2831956Y703553D01*
X2837268Y702129D01*
X2835844Y696817D01*
X2830532Y698241D01*
G37*
G36*
X2747276Y724986D02*
X2752038Y727736D01*
X2754788Y722974D01*
X2750026Y720224D01*
X2747276Y724986D01*
G37*
G36*
X2752026Y716759D02*
X2756788Y719509D01*
X2759538Y714747D01*
X2754776Y711997D01*
X2752026Y716759D01*
G37*
G36*
X2760254Y721509D02*
X2765016Y724259D01*
X2767766Y719497D01*
X2763004Y716747D01*
X2760254Y721509D01*
G37*
G36*
X2755504Y729736D02*
X2760266Y732486D01*
X2763016Y727724D01*
X2758254Y724974D01*
X2755504Y729736D01*
G37*
G36*
X2667380Y746022D02*
X2672142Y748772D01*
X2674892Y744010D01*
X2670130Y741260D01*
X2667380Y746022D01*
G37*
G36*
X2672130Y737795D02*
X2676892Y740545D01*
X2679642Y735783D01*
X2674880Y733033D01*
X2672130Y737795D01*
G37*
G36*
X2680357Y742545D02*
X2685119Y745295D01*
X2687869Y740533D01*
X2683107Y737783D01*
X2680357Y742545D01*
G37*
G36*
X2675607Y750772D02*
X2680369Y753522D01*
X2683119Y748760D01*
X2678357Y746010D01*
X2675607Y750772D01*
G37*
G36*
X2818911Y600912D02*
X2816161Y605674D01*
X2820923Y608424D01*
X2823673Y603662D01*
X2818911Y600912D01*
G37*
G36*
X2827139Y605662D02*
X2824389Y610424D01*
X2829151Y613174D01*
X2831901Y608412D01*
X2827139Y605662D01*
G37*
G36*
X2822389Y613889D02*
X2819639Y618651D01*
X2824401Y621401D01*
X2827151Y616639D01*
X2822389Y613889D01*
G37*
G36*
X2814161Y609139D02*
X2811411Y613901D01*
X2816173Y616651D01*
X2818923Y611889D01*
X2814161Y609139D01*
G37*
D12*
G36*
X2939522Y765534D02*
X2943022Y759472D01*
X2934362Y754472D01*
X2930862Y760534D01*
X2939522Y765534D01*
G37*
G36*
X2946522Y753410D02*
X2950022Y747348D01*
X2941362Y742348D01*
X2937862Y748410D01*
X2946522Y753410D01*
G37*
D10*
G36*
X2796961Y521074D02*
X2794211Y525836D01*
X2798973Y528586D01*
X2801723Y523824D01*
X2796961Y521074D01*
G37*
G36*
X2805188Y525824D02*
X2802438Y530586D01*
X2807200Y533336D01*
X2809950Y528574D01*
X2805188Y525824D01*
G37*
G36*
X2800438Y534052D02*
X2797688Y538814D01*
X2802450Y541564D01*
X2805200Y536802D01*
X2800438Y534052D01*
G37*
G36*
X2792211Y529302D02*
X2789461Y534064D01*
X2794223Y536814D01*
X2796973Y532052D01*
X2792211Y529302D01*
G37*
G36*
X2759882Y649695D02*
X2761306Y655007D01*
X2766618Y653583D01*
X2765194Y648271D01*
X2759882Y649695D01*
G37*
G36*
X2769058Y647236D02*
X2770482Y652548D01*
X2775794Y651124D01*
X2774370Y645812D01*
X2769058Y647236D01*
G37*
G36*
X2771517Y656413D02*
X2772941Y661725D01*
X2778253Y660301D01*
X2776829Y654989D01*
X2771517Y656413D01*
G37*
G36*
X2762341Y658871D02*
X2763765Y664183D01*
X2769077Y662759D01*
X2767653Y657447D01*
X2762341Y658871D01*
G37*
G36*
X2691691Y610325D02*
X2693115Y615637D01*
X2698427Y614213D01*
X2697003Y608901D01*
X2691691Y610325D01*
G37*
G36*
X2700868Y607866D02*
X2702292Y613178D01*
X2707604Y611754D01*
X2706180Y606442D01*
X2700868Y607866D01*
G37*
G36*
X2703326Y617043D02*
X2704750Y622355D01*
X2710062Y620931D01*
X2708638Y615619D01*
X2703326Y617043D01*
G37*
G36*
X2694150Y619501D02*
X2695574Y624813D01*
X2700886Y623389D01*
X2699462Y618077D01*
X2694150Y619501D01*
G37*
G36*
X2623720Y571082D02*
X2625144Y576394D01*
X2630456Y574970D01*
X2629032Y569658D01*
X2623720Y571082D01*
G37*
G36*
X2632897Y568623D02*
X2634321Y573935D01*
X2639633Y572511D01*
X2638209Y567199D01*
X2632897Y568623D01*
G37*
G36*
X2635356Y577800D02*
X2636780Y583112D01*
X2642092Y581688D01*
X2640668Y576376D01*
X2635356Y577800D01*
G37*
G36*
X2626179Y580258D02*
X2627603Y585570D01*
X2632915Y584146D01*
X2631491Y578834D01*
X2626179Y580258D01*
G37*
G36*
X2547983Y609924D02*
X2552745Y612674D01*
X2555495Y607912D01*
X2550733Y605162D01*
X2547983Y609924D01*
G37*
G36*
X2552733Y601697D02*
X2557495Y604447D01*
X2560245Y599685D01*
X2555483Y596935D01*
X2552733Y601697D01*
G37*
G36*
X2560960Y606447D02*
X2565722Y609197D01*
X2568472Y604435D01*
X2563710Y601685D01*
X2560960Y606447D01*
G37*
G36*
X2556210Y614674D02*
X2560972Y617424D01*
X2563722Y612662D01*
X2558960Y609912D01*
X2556210Y614674D01*
G37*
G36*
X2467867Y630833D02*
X2472629Y633583D01*
X2475379Y628821D01*
X2470617Y626071D01*
X2467867Y630833D01*
G37*
G36*
X2472617Y622606D02*
X2477379Y625356D01*
X2480129Y620594D01*
X2475367Y617844D01*
X2472617Y622606D01*
G37*
G36*
X2480844Y627356D02*
X2485606Y630106D01*
X2488356Y625344D01*
X2483594Y622594D01*
X2480844Y627356D01*
G37*
G36*
X2476094Y635583D02*
X2480856Y638333D01*
X2483606Y633571D01*
X2478844Y630821D01*
X2476094Y635583D01*
G37*
G36*
X2619618Y485850D02*
X2616868Y490612D01*
X2621630Y493362D01*
X2624380Y488600D01*
X2619618Y485850D01*
G37*
G36*
X2627845Y490600D02*
X2625095Y495362D01*
X2629857Y498112D01*
X2632607Y493350D01*
X2627845Y490600D01*
G37*
G36*
X2623095Y498827D02*
X2620345Y503589D01*
X2625107Y506339D01*
X2627857Y501577D01*
X2623095Y498827D01*
G37*
G36*
X2614868Y494077D02*
X2612118Y498839D01*
X2616880Y501589D01*
X2619630Y496827D01*
X2614868Y494077D01*
G37*
G36*
X2597668Y406012D02*
X2594918Y410774D01*
X2599680Y413524D01*
X2602430Y408762D01*
X2597668Y406012D01*
G37*
G36*
X2605895Y410762D02*
X2603145Y415524D01*
X2607907Y418274D01*
X2610657Y413512D01*
X2605895Y410762D01*
G37*
G36*
X2601145Y418990D02*
X2598395Y423752D01*
X2603157Y426502D01*
X2605907Y421740D01*
X2601145Y418990D01*
G37*
G36*
X2592918Y414240D02*
X2590168Y419002D01*
X2594930Y421752D01*
X2597680Y416990D01*
X2592918Y414240D01*
G37*
D12*
G36*
X2735169Y647551D02*
X2738669Y641489D01*
X2730009Y636489D01*
X2726509Y642551D01*
X2735169Y647551D01*
G37*
G36*
X2742169Y635427D02*
X2745669Y629365D01*
X2737009Y624365D01*
X2733509Y630427D01*
X2742169Y635427D01*
G37*
D10*
G36*
X2555530Y531712D02*
X2556954Y537024D01*
X2562266Y535600D01*
X2560842Y530288D01*
X2555530Y531712D01*
G37*
G36*
X2564706Y529253D02*
X2566130Y534565D01*
X2571442Y533141D01*
X2570018Y527829D01*
X2564706Y529253D01*
G37*
G36*
X2567165Y538430D02*
X2568589Y543742D01*
X2573901Y542318D01*
X2572477Y537006D01*
X2567165Y538430D01*
G37*
G36*
X2557988Y540888D02*
X2559412Y546200D01*
X2564724Y544776D01*
X2563300Y539464D01*
X2557988Y540888D01*
G37*
G36*
X2487339Y492342D02*
X2488763Y497654D01*
X2494075Y496230D01*
X2492651Y490918D01*
X2487339Y492342D01*
G37*
G36*
X2496515Y489883D02*
X2497939Y495195D01*
X2503251Y493771D01*
X2501827Y488459D01*
X2496515Y489883D01*
G37*
G36*
X2498974Y499060D02*
X2500398Y504372D01*
X2505710Y502948D01*
X2504286Y497636D01*
X2498974Y499060D01*
G37*
G36*
X2489798Y501518D02*
X2491222Y506830D01*
X2496534Y505406D01*
X2495110Y500094D01*
X2489798Y501518D01*
G37*
G36*
X2964235Y857221D02*
X2969547Y858645D01*
X2970971Y853333D01*
X2965659Y851909D01*
X2964235Y857221D01*
G37*
G36*
X2966693Y848045D02*
X2972005Y849469D01*
X2973429Y844157D01*
X2968117Y842733D01*
X2966693Y848045D01*
G37*
G36*
X2975870Y850503D02*
X2981182Y851927D01*
X2982606Y846615D01*
X2977294Y845191D01*
X2975870Y850503D01*
G37*
G36*
X2973411Y859680D02*
X2978723Y861104D01*
X2980147Y855792D01*
X2974835Y854368D01*
X2973411Y859680D01*
G37*
G36*
X2896044Y896591D02*
X2901356Y898015D01*
X2902780Y892703D01*
X2897468Y891279D01*
X2896044Y896591D01*
G37*
G36*
X2898503Y887415D02*
X2903815Y888839D01*
X2905239Y883527D01*
X2899927Y882103D01*
X2898503Y887415D01*
G37*
G36*
X2907679Y889873D02*
X2912991Y891297D01*
X2914415Y885985D01*
X2909103Y884561D01*
X2907679Y889873D01*
G37*
G36*
X2905220Y899050D02*
X2910532Y900474D01*
X2911956Y895162D01*
X2906644Y893738D01*
X2905220Y899050D01*
G37*
G36*
X2828073Y935834D02*
X2833385Y937258D01*
X2834809Y931946D01*
X2829497Y930522D01*
X2828073Y935834D01*
G37*
G36*
X2830532Y926658D02*
X2835844Y928082D01*
X2837268Y922770D01*
X2831956Y921346D01*
X2830532Y926658D01*
G37*
G36*
X2839708Y929116D02*
X2845020Y930540D01*
X2846444Y925228D01*
X2841132Y923804D01*
X2839708Y929116D01*
G37*
G36*
X2837249Y938293D02*
X2842561Y939717D01*
X2843985Y934405D01*
X2838673Y932981D01*
X2837249Y938293D01*
G37*
G36*
X2818784Y1023767D02*
X2823546Y1021017D01*
X2820796Y1016255D01*
X2816034Y1019005D01*
X2818784Y1023767D01*
G37*
G36*
X2814034Y1015540D02*
X2818796Y1012790D01*
X2816046Y1008028D01*
X2811284Y1010778D01*
X2814034Y1015540D01*
G37*
G36*
X2822262Y1010790D02*
X2827024Y1008040D01*
X2824274Y1003278D01*
X2819512Y1006028D01*
X2822262Y1010790D01*
G37*
G36*
X2827012Y1019017D02*
X2831774Y1016267D01*
X2829024Y1011505D01*
X2824262Y1014255D01*
X2827012Y1019017D01*
G37*
G36*
X2797054Y1103478D02*
X2801816Y1100728D01*
X2799066Y1095966D01*
X2794304Y1098716D01*
X2797054Y1103478D01*
G37*
G36*
X2792304Y1095250D02*
X2797066Y1092500D01*
X2794316Y1087738D01*
X2789554Y1090488D01*
X2792304Y1095250D01*
G37*
G36*
X2800531Y1090500D02*
X2805293Y1087750D01*
X2802543Y1082988D01*
X2797781Y1085738D01*
X2800531Y1090500D01*
G37*
G36*
X2805281Y1098728D02*
X2810043Y1095978D01*
X2807293Y1091216D01*
X2802531Y1093966D01*
X2805281Y1098728D01*
G37*
G36*
X2747149Y899693D02*
X2749899Y904455D01*
X2754661Y901705D01*
X2751911Y896943D01*
X2747149Y899693D01*
G37*
G36*
X2755377Y894943D02*
X2758127Y899705D01*
X2762889Y896955D01*
X2760139Y892193D01*
X2755377Y894943D01*
G37*
G36*
X2760127Y903170D02*
X2762877Y907932D01*
X2767639Y905182D01*
X2764889Y900420D01*
X2760127Y903170D01*
G37*
G36*
X2751899Y907920D02*
X2754649Y912682D01*
X2759411Y909932D01*
X2756661Y905170D01*
X2751899Y907920D01*
G37*
D12*
G36*
X2950022Y877551D02*
X2946522Y871489D01*
X2937862Y876489D01*
X2941362Y882551D01*
X2950022Y877551D01*
G37*
G36*
X2943022Y865427D02*
X2939522Y859365D01*
X2930862Y864365D01*
X2934362Y870427D01*
X2943022Y865427D01*
G37*
D10*
G36*
X2667033Y878784D02*
X2669783Y883546D01*
X2674545Y880796D01*
X2671795Y876034D01*
X2667033Y878784D01*
G37*
G36*
X2675260Y874034D02*
X2678010Y878796D01*
X2682772Y876046D01*
X2680022Y871284D01*
X2675260Y874034D01*
G37*
G36*
X2680010Y882261D02*
X2682760Y887023D01*
X2687522Y884273D01*
X2684772Y879511D01*
X2680010Y882261D01*
G37*
G36*
X2671783Y887011D02*
X2674533Y891773D01*
X2679295Y889023D01*
X2676545Y884261D01*
X2671783Y887011D01*
G37*
G36*
X2759882Y975204D02*
X2765194Y976628D01*
X2766618Y971316D01*
X2761306Y969892D01*
X2759882Y975204D01*
G37*
G36*
X2762341Y966028D02*
X2767653Y967452D01*
X2769077Y962140D01*
X2763765Y960716D01*
X2762341Y966028D01*
G37*
G36*
X2771517Y968486D02*
X2776829Y969910D01*
X2778253Y964598D01*
X2772941Y963174D01*
X2771517Y968486D01*
G37*
G36*
X2769058Y977663D02*
X2774370Y979087D01*
X2775794Y973775D01*
X2770482Y972351D01*
X2769058Y977663D01*
G37*
G36*
X2691691Y1014574D02*
X2697003Y1015998D01*
X2698427Y1010686D01*
X2693115Y1009262D01*
X2691691Y1014574D01*
G37*
G36*
X2694150Y1005398D02*
X2699462Y1006822D01*
X2700886Y1001510D01*
X2695574Y1000086D01*
X2694150Y1005398D01*
G37*
G36*
X2703326Y1007856D02*
X2708638Y1009280D01*
X2710062Y1003968D01*
X2704750Y1002544D01*
X2703326Y1007856D01*
G37*
G36*
X2700868Y1017033D02*
X2706180Y1018457D01*
X2707604Y1013145D01*
X2702292Y1011721D01*
X2700868Y1017033D01*
G37*
G36*
X2623720Y1053817D02*
X2629032Y1055241D01*
X2630456Y1049929D01*
X2625144Y1048505D01*
X2623720Y1053817D01*
G37*
G36*
X2626179Y1044641D02*
X2631491Y1046065D01*
X2632915Y1040753D01*
X2627603Y1039329D01*
X2626179Y1044641D01*
G37*
G36*
X2635355Y1047099D02*
X2640667Y1048523D01*
X2642091Y1043211D01*
X2636779Y1041787D01*
X2635355Y1047099D01*
G37*
G36*
X2632897Y1056276D02*
X2638209Y1057700D01*
X2639633Y1052388D01*
X2634321Y1050964D01*
X2632897Y1056276D01*
G37*
G36*
X2619491Y1138829D02*
X2624253Y1136079D01*
X2621503Y1131317D01*
X2616741Y1134067D01*
X2619491Y1138829D01*
G37*
G36*
X2614741Y1130602D02*
X2619503Y1127852D01*
X2616753Y1123090D01*
X2611991Y1125840D01*
X2614741Y1130602D01*
G37*
G36*
X2622968Y1125852D02*
X2627730Y1123102D01*
X2624980Y1118340D01*
X2620218Y1121090D01*
X2622968Y1125852D01*
G37*
G36*
X2627718Y1134079D02*
X2632480Y1131329D01*
X2629730Y1126567D01*
X2624968Y1129317D01*
X2627718Y1134079D01*
G37*
G36*
X2597541Y1218667D02*
X2602303Y1215917D01*
X2599553Y1211155D01*
X2594791Y1213905D01*
X2597541Y1218667D01*
G37*
G36*
X2592791Y1210439D02*
X2597553Y1207689D01*
X2594803Y1202927D01*
X2590041Y1205677D01*
X2592791Y1210439D01*
G37*
G36*
X2601018Y1205689D02*
X2605780Y1202939D01*
X2603030Y1198177D01*
X2598268Y1200927D01*
X2601018Y1205689D01*
G37*
G36*
X2605768Y1213917D02*
X2610530Y1211167D01*
X2607780Y1206405D01*
X2603018Y1209155D01*
X2605768Y1213917D01*
G37*
G36*
X2547856Y1014755D02*
X2550606Y1019517D01*
X2555368Y1016767D01*
X2552618Y1012005D01*
X2547856Y1014755D01*
G37*
G36*
X2556083Y1010005D02*
X2558833Y1014767D01*
X2563595Y1012017D01*
X2560845Y1007255D01*
X2556083Y1010005D01*
G37*
G36*
X2560833Y1018232D02*
X2563583Y1022994D01*
X2568345Y1020244D01*
X2565595Y1015482D01*
X2560833Y1018232D01*
G37*
G36*
X2552606Y1022982D02*
X2555356Y1027744D01*
X2560118Y1024994D01*
X2557368Y1020232D01*
X2552606Y1022982D01*
G37*
G36*
X2467740Y993846D02*
X2470490Y998608D01*
X2475252Y995858D01*
X2472502Y991096D01*
X2467740Y993846D01*
G37*
G36*
X2475967Y989096D02*
X2478717Y993858D01*
X2483479Y991108D01*
X2480729Y986346D01*
X2475967Y989096D01*
G37*
G36*
X2480717Y997323D02*
X2483467Y1002085D01*
X2488229Y999335D01*
X2485479Y994573D01*
X2480717Y997323D01*
G37*
G36*
X2472490Y1002073D02*
X2475240Y1006835D01*
X2480002Y1004085D01*
X2477252Y999323D01*
X2472490Y1002073D01*
G37*
D12*
G36*
X2745669Y995534D02*
X2742169Y989472D01*
X2733509Y994472D01*
X2737009Y1000534D01*
X2745669Y995534D01*
G37*
G36*
X2738669Y983410D02*
X2735169Y977348D01*
X2726509Y982348D01*
X2730009Y988410D01*
X2738669Y983410D01*
G37*
D10*
G36*
X2555530Y1093187D02*
X2560842Y1094611D01*
X2562266Y1089299D01*
X2556954Y1087875D01*
X2555530Y1093187D01*
G37*
G36*
X2557988Y1084011D02*
X2563300Y1085435D01*
X2564724Y1080123D01*
X2559412Y1078699D01*
X2557988Y1084011D01*
G37*
G36*
X2567165Y1086469D02*
X2572477Y1087893D01*
X2573901Y1082581D01*
X2568589Y1081157D01*
X2567165Y1086469D01*
G37*
G36*
X2564706Y1095646D02*
X2570018Y1097070D01*
X2571442Y1091758D01*
X2566130Y1090334D01*
X2564706Y1095646D01*
G37*
G36*
X2487339Y1132557D02*
X2492651Y1133981D01*
X2494075Y1128669D01*
X2488763Y1127245D01*
X2487339Y1132557D01*
G37*
G36*
X2489797Y1123381D02*
X2495109Y1124805D01*
X2496533Y1119493D01*
X2491221Y1118069D01*
X2489797Y1123381D01*
G37*
G36*
X2498974Y1125839D02*
X2504286Y1127263D01*
X2505710Y1121951D01*
X2500398Y1120527D01*
X2498974Y1125839D01*
G37*
G36*
X2496515Y1135016D02*
X2501827Y1136440D01*
X2503251Y1131128D01*
X2497939Y1129704D01*
X2496515Y1135016D01*
G37*
G36*
X3041782Y901993D02*
X3045671Y898104D01*
X3041782Y894215D01*
X3037893Y898104D01*
X3041782Y901993D01*
G37*
G36*
X3035065Y895276D02*
X3038954Y891387D01*
X3035065Y887498D01*
X3031176Y891387D01*
X3035065Y895276D01*
G37*
G36*
X3041782Y888558D02*
X3045671Y884669D01*
X3041782Y880780D01*
X3037893Y884669D01*
X3041782Y888558D01*
G37*
G36*
X3048500Y895276D02*
X3052389Y891387D01*
X3048500Y887498D01*
X3044611Y891387D01*
X3048500Y895276D01*
G37*
G36*
X3041782Y980733D02*
X3045671Y976844D01*
X3041782Y972955D01*
X3037893Y976844D01*
X3041782Y980733D01*
G37*
G36*
X3035065Y974016D02*
X3038954Y970127D01*
X3035065Y966238D01*
X3031176Y970127D01*
X3035065Y974016D01*
G37*
G36*
X3041782Y967298D02*
X3045671Y963409D01*
X3041782Y959520D01*
X3037893Y963409D01*
X3041782Y967298D01*
G37*
G36*
X3048500Y974016D02*
X3052389Y970127D01*
X3048500Y966238D01*
X3044611Y970127D01*
X3048500Y974016D01*
G37*
G36*
X3041782Y1059219D02*
X3045671Y1055330D01*
X3041782Y1051441D01*
X3037893Y1055330D01*
X3041782Y1059219D01*
G37*
G36*
X3035065Y1052502D02*
X3038954Y1048613D01*
X3035065Y1044724D01*
X3031176Y1048613D01*
X3035065Y1052502D01*
G37*
G36*
X3041782Y1045784D02*
X3045671Y1041895D01*
X3041782Y1038006D01*
X3037893Y1041895D01*
X3041782Y1045784D01*
G37*
G36*
X3048500Y1052502D02*
X3052389Y1048613D01*
X3048500Y1044724D01*
X3044611Y1048613D01*
X3048500Y1052502D01*
G37*
D11*
X3110540Y1108481D03*
X3101040Y1108481D03*
X3101040Y1098981D03*
X3110540Y1098981D03*
X3168706Y1167155D03*
X3159206Y1167155D03*
X3159206Y1157655D03*
X3168706Y1157655D03*
X2972770Y1108481D03*
X2972770Y1098981D03*
X2982270Y1098981D03*
X2982270Y1108481D03*
D12*
X3048782Y929467D03*
X3034782Y929467D03*
D11*
X2914604Y1167409D03*
X2914604Y1157909D03*
X2924104Y1157909D03*
X2924104Y1167409D03*
D10*
G36*
X3041782Y1137959D02*
X3045671Y1134070D01*
X3041782Y1130181D01*
X3037893Y1134070D01*
X3041782Y1137959D01*
G37*
G36*
X3035065Y1131242D02*
X3038954Y1127353D01*
X3035065Y1123464D01*
X3031176Y1127353D01*
X3035065Y1131242D01*
G37*
G36*
X3041782Y1124524D02*
X3045671Y1120635D01*
X3041782Y1116746D01*
X3037893Y1120635D01*
X3041782Y1124524D01*
G37*
G36*
X3048500Y1131242D02*
X3052389Y1127353D01*
X3048500Y1123464D01*
X3044611Y1127353D01*
X3048500Y1131242D01*
G37*
G36*
X3041782Y1216699D02*
X3045671Y1212810D01*
X3041782Y1208921D01*
X3037893Y1212810D01*
X3041782Y1216699D01*
G37*
G36*
X3035065Y1209982D02*
X3038954Y1206093D01*
X3035065Y1202204D01*
X3031176Y1206093D01*
X3035065Y1209982D01*
G37*
G36*
X3041782Y1203264D02*
X3045671Y1199375D01*
X3041782Y1195486D01*
X3037893Y1199375D01*
X3041782Y1203264D01*
G37*
G36*
X3048500Y1209982D02*
X3052389Y1206093D01*
X3048500Y1202204D01*
X3044611Y1206093D01*
X3048500Y1209982D01*
G37*
G36*
X3041782Y1295185D02*
X3045671Y1291296D01*
X3041782Y1287407D01*
X3037893Y1291296D01*
X3041782Y1295185D01*
G37*
G36*
X3035065Y1288468D02*
X3038954Y1284579D01*
X3035065Y1280690D01*
X3031176Y1284579D01*
X3035065Y1288468D01*
G37*
G36*
X3041782Y1281750D02*
X3045671Y1277861D01*
X3041782Y1273972D01*
X3037893Y1277861D01*
X3041782Y1281750D01*
G37*
G36*
X3048500Y1288468D02*
X3052389Y1284579D01*
X3048500Y1280690D01*
X3044611Y1284579D01*
X3048500Y1288468D01*
G37*
D11*
X3110540Y1338605D03*
X3101040Y1338605D03*
X3101040Y1329105D03*
X3110540Y1329105D03*
X3168706Y1397533D03*
X3159206Y1397533D03*
X3159206Y1388033D03*
X3168706Y1388033D03*
X2972770Y1338605D03*
X2972770Y1329105D03*
X2982270Y1329105D03*
X2982270Y1338605D03*
X2914604Y1397533D03*
X2914604Y1388033D03*
X2924104Y1388033D03*
X2924104Y1397533D03*
D12*
X3048782Y1165433D03*
X3034782Y1165433D03*
D10*
G36*
X3041782Y1373925D02*
X3045671Y1370036D01*
X3041782Y1366147D01*
X3037893Y1370036D01*
X3041782Y1373925D01*
G37*
G36*
X3035065Y1367208D02*
X3038954Y1363319D01*
X3035065Y1359430D01*
X3031176Y1363319D01*
X3035065Y1367208D01*
G37*
G36*
X3041782Y1360490D02*
X3045671Y1356601D01*
X3041782Y1352712D01*
X3037893Y1356601D01*
X3041782Y1360490D01*
G37*
G36*
X3048500Y1367208D02*
X3052389Y1363319D01*
X3048500Y1359430D01*
X3044611Y1363319D01*
X3048500Y1367208D01*
G37*
G36*
X3041782Y1452665D02*
X3045671Y1448776D01*
X3041782Y1444887D01*
X3037893Y1448776D01*
X3041782Y1452665D01*
G37*
G36*
X3035065Y1445948D02*
X3038954Y1442059D01*
X3035065Y1438170D01*
X3031176Y1442059D01*
X3035065Y1445948D01*
G37*
G36*
X3041782Y1439230D02*
X3045671Y1435341D01*
X3041782Y1431452D01*
X3037893Y1435341D01*
X3041782Y1439230D01*
G37*
G36*
X3048500Y1445948D02*
X3052389Y1442059D01*
X3048500Y1438170D01*
X3044611Y1442059D01*
X3048500Y1445948D01*
G37*
G36*
X3119329Y857221D02*
X3117905Y851909D01*
X3112593Y853333D01*
X3114017Y858645D01*
X3119329Y857221D01*
G37*
G36*
X3110153Y859680D02*
X3108729Y854368D01*
X3103417Y855792D01*
X3104841Y861104D01*
X3110153Y859680D01*
G37*
G36*
X3107694Y850503D02*
X3106270Y845191D01*
X3100958Y846615D01*
X3102382Y851927D01*
X3107694Y850503D01*
G37*
G36*
X3116871Y848045D02*
X3115447Y842733D01*
X3110135Y844157D01*
X3111559Y849469D01*
X3116871Y848045D01*
G37*
G36*
X3187520Y896591D02*
X3186096Y891279D01*
X3180784Y892703D01*
X3182208Y898015D01*
X3187520Y896591D01*
G37*
G36*
X3178344Y899050D02*
X3176920Y893738D01*
X3171608Y895162D01*
X3173032Y900474D01*
X3178344Y899050D01*
G37*
G36*
X3175885Y889873D02*
X3174461Y884561D01*
X3169149Y885985D01*
X3170573Y891297D01*
X3175885Y889873D01*
G37*
G36*
X3185062Y887415D02*
X3183638Y882103D01*
X3178326Y883527D01*
X3179750Y888839D01*
X3185062Y887415D01*
G37*
G36*
X3255491Y935834D02*
X3254067Y930522D01*
X3248755Y931946D01*
X3250179Y937258D01*
X3255491Y935834D01*
G37*
G36*
X3246315Y938293D02*
X3244891Y932981D01*
X3239579Y934405D01*
X3241003Y939717D01*
X3246315Y938293D01*
G37*
G36*
X3243856Y929116D02*
X3242432Y923804D01*
X3237120Y925228D01*
X3238544Y930540D01*
X3243856Y929116D01*
G37*
G36*
X3253032Y926658D02*
X3251608Y921346D01*
X3246296Y922770D01*
X3247720Y928082D01*
X3253032Y926658D01*
G37*
G36*
X3336288Y899913D02*
X3331526Y897163D01*
X3328776Y901925D01*
X3333538Y904675D01*
X3336288Y899913D01*
G37*
G36*
X3331538Y908140D02*
X3326776Y905390D01*
X3324026Y910152D01*
X3328788Y912902D01*
X3331538Y908140D01*
G37*
G36*
X3323311Y903390D02*
X3318549Y900640D01*
X3315799Y905402D01*
X3320561Y908152D01*
X3323311Y903390D01*
G37*
G36*
X3328061Y895163D02*
X3323299Y892413D01*
X3320549Y897175D01*
X3325311Y899925D01*
X3328061Y895163D01*
G37*
G36*
X3416184Y878877D02*
X3411422Y876127D01*
X3408672Y880889D01*
X3413434Y883639D01*
X3416184Y878877D01*
G37*
G36*
X3411434Y887104D02*
X3406672Y884354D01*
X3403922Y889116D01*
X3408684Y891866D01*
X3411434Y887104D01*
G37*
G36*
X3403207Y882354D02*
X3398445Y879604D01*
X3395695Y884366D01*
X3400457Y887116D01*
X3403207Y882354D01*
G37*
G36*
X3407957Y874127D02*
X3403195Y871377D01*
X3400445Y876139D01*
X3405207Y878889D01*
X3407957Y874127D01*
G37*
G36*
X3264653Y1023987D02*
X3267403Y1019225D01*
X3262641Y1016475D01*
X3259891Y1021237D01*
X3264653Y1023987D01*
G37*
G36*
X3256426Y1019237D02*
X3259176Y1014475D01*
X3254414Y1011725D01*
X3251664Y1016487D01*
X3256426Y1019237D01*
G37*
G36*
X3261176Y1011010D02*
X3263926Y1006248D01*
X3259164Y1003498D01*
X3256414Y1008260D01*
X3261176Y1011010D01*
G37*
G36*
X3269403Y1015760D02*
X3272153Y1010998D01*
X3267391Y1008248D01*
X3264641Y1013010D01*
X3269403Y1015760D01*
G37*
D12*
G36*
X3144042Y859365D02*
X3140542Y865427D01*
X3149202Y870427D01*
X3152702Y864365D01*
X3144042Y859365D01*
G37*
G36*
X3137042Y871489D02*
X3133542Y877551D01*
X3142202Y882551D01*
X3145702Y876489D01*
X3137042Y871489D01*
G37*
D10*
G36*
X3286603Y1103825D02*
X3289353Y1099063D01*
X3284591Y1096313D01*
X3281841Y1101075D01*
X3286603Y1103825D01*
G37*
G36*
X3278376Y1099075D02*
X3281126Y1094313D01*
X3276364Y1091563D01*
X3273614Y1096325D01*
X3278376Y1099075D01*
G37*
G36*
X3283126Y1090847D02*
X3285876Y1086085D01*
X3281114Y1083335D01*
X3278364Y1088097D01*
X3283126Y1090847D01*
G37*
G36*
X3291353Y1095597D02*
X3294103Y1090835D01*
X3289341Y1088085D01*
X3286591Y1092847D01*
X3291353Y1095597D01*
G37*
G36*
X3323682Y975204D02*
X3322258Y969892D01*
X3316946Y971316D01*
X3318370Y976628D01*
X3323682Y975204D01*
G37*
G36*
X3314506Y977663D02*
X3313082Y972351D01*
X3307770Y973775D01*
X3309194Y979087D01*
X3314506Y977663D01*
G37*
G36*
X3312047Y968486D02*
X3310623Y963174D01*
X3305311Y964598D01*
X3306735Y969910D01*
X3312047Y968486D01*
G37*
G36*
X3321223Y966028D02*
X3319799Y960716D01*
X3314487Y962140D01*
X3315911Y967452D01*
X3321223Y966028D01*
G37*
G36*
X3391873Y1014574D02*
X3390449Y1009262D01*
X3385137Y1010686D01*
X3386561Y1015998D01*
X3391873Y1014574D01*
G37*
G36*
X3382697Y1017033D02*
X3381273Y1011721D01*
X3375961Y1013145D01*
X3377385Y1018457D01*
X3382697Y1017033D01*
G37*
G36*
X3380238Y1007856D02*
X3378814Y1002544D01*
X3373502Y1003968D01*
X3374926Y1009280D01*
X3380238Y1007856D01*
G37*
G36*
X3389414Y1005398D02*
X3387990Y1000086D01*
X3382678Y1001510D01*
X3384102Y1006822D01*
X3389414Y1005398D01*
G37*
G36*
X3459844Y1053817D02*
X3458420Y1048505D01*
X3453108Y1049929D01*
X3454532Y1055241D01*
X3459844Y1053817D01*
G37*
G36*
X3450667Y1056276D02*
X3449243Y1050964D01*
X3443931Y1052388D01*
X3445355Y1057700D01*
X3450667Y1056276D01*
G37*
G36*
X3448209Y1047099D02*
X3446785Y1041787D01*
X3441473Y1043211D01*
X3442897Y1048523D01*
X3448209Y1047099D01*
G37*
G36*
X3457385Y1044641D02*
X3455961Y1039329D01*
X3450649Y1040753D01*
X3452073Y1046065D01*
X3457385Y1044641D01*
G37*
G36*
X3535581Y1014975D02*
X3530819Y1012225D01*
X3528069Y1016987D01*
X3532831Y1019737D01*
X3535581Y1014975D01*
G37*
G36*
X3530831Y1023202D02*
X3526069Y1020452D01*
X3523319Y1025214D01*
X3528081Y1027964D01*
X3530831Y1023202D01*
G37*
G36*
X3522604Y1018452D02*
X3517842Y1015702D01*
X3515092Y1020464D01*
X3519854Y1023214D01*
X3522604Y1018452D01*
G37*
G36*
X3527354Y1010225D02*
X3522592Y1007475D01*
X3519842Y1012237D01*
X3524604Y1014987D01*
X3527354Y1010225D01*
G37*
G36*
X3615697Y994066D02*
X3610935Y991316D01*
X3608185Y996078D01*
X3612947Y998828D01*
X3615697Y994066D01*
G37*
G36*
X3610947Y1002293D02*
X3606185Y999543D01*
X3603435Y1004305D01*
X3608197Y1007055D01*
X3610947Y1002293D01*
G37*
G36*
X3602720Y997543D02*
X3597958Y994793D01*
X3595208Y999555D01*
X3599970Y1002305D01*
X3602720Y997543D01*
G37*
G36*
X3607470Y989316D02*
X3602708Y986566D01*
X3599958Y991328D01*
X3604720Y994078D01*
X3607470Y989316D01*
G37*
G36*
X3463946Y1139049D02*
X3466696Y1134287D01*
X3461934Y1131537D01*
X3459184Y1136299D01*
X3463946Y1139049D01*
G37*
G36*
X3455719Y1134299D02*
X3458469Y1129537D01*
X3453707Y1126787D01*
X3450957Y1131549D01*
X3455719Y1134299D01*
G37*
G36*
X3460469Y1126072D02*
X3463219Y1121310D01*
X3458457Y1118560D01*
X3455707Y1123322D01*
X3460469Y1126072D01*
G37*
G36*
X3468696Y1130822D02*
X3471446Y1126060D01*
X3466684Y1123310D01*
X3463934Y1128072D01*
X3468696Y1130822D01*
G37*
G36*
X3485896Y1218887D02*
X3488646Y1214125D01*
X3483884Y1211375D01*
X3481134Y1216137D01*
X3485896Y1218887D01*
G37*
G36*
X3477669Y1214137D02*
X3480419Y1209375D01*
X3475657Y1206625D01*
X3472907Y1211387D01*
X3477669Y1214137D01*
G37*
G36*
X3482419Y1205909D02*
X3485169Y1201147D01*
X3480407Y1198397D01*
X3477657Y1203159D01*
X3482419Y1205909D01*
G37*
G36*
X3490646Y1210659D02*
X3493396Y1205897D01*
X3488634Y1203147D01*
X3485884Y1207909D01*
X3490646Y1210659D01*
G37*
D12*
G36*
X3348395Y977348D02*
X3344895Y983410D01*
X3353555Y988410D01*
X3357055Y982348D01*
X3348395Y977348D01*
G37*
G36*
X3341395Y989472D02*
X3337895Y995534D01*
X3346555Y1000534D01*
X3350055Y994472D01*
X3341395Y989472D01*
G37*
D10*
G36*
X3528035Y1093187D02*
X3526611Y1087875D01*
X3521299Y1089299D01*
X3522723Y1094611D01*
X3528035Y1093187D01*
G37*
G36*
X3518858Y1095646D02*
X3517434Y1090334D01*
X3512122Y1091758D01*
X3513546Y1097070D01*
X3518858Y1095646D01*
G37*
G36*
X3516399Y1086469D02*
X3514975Y1081157D01*
X3509663Y1082581D01*
X3511087Y1087893D01*
X3516399Y1086469D01*
G37*
G36*
X3525576Y1084011D02*
X3524152Y1078699D01*
X3518840Y1080123D01*
X3520264Y1085435D01*
X3525576Y1084011D01*
G37*
G36*
X3596225Y1132557D02*
X3594801Y1127245D01*
X3589489Y1128669D01*
X3590913Y1133981D01*
X3596225Y1132557D01*
G37*
G36*
X3587049Y1135016D02*
X3585625Y1129704D01*
X3580313Y1131128D01*
X3581737Y1136440D01*
X3587049Y1135016D01*
G37*
G36*
X3584590Y1125839D02*
X3583166Y1120527D01*
X3577854Y1121951D01*
X3579278Y1127263D01*
X3584590Y1125839D01*
G37*
G36*
X3593767Y1123381D02*
X3592343Y1118069D01*
X3587031Y1119493D01*
X3588455Y1124805D01*
X3593767Y1123381D01*
G37*
G36*
X3119329Y767678D02*
X3114017Y766254D01*
X3112593Y771566D01*
X3117905Y772990D01*
X3119329Y767678D01*
G37*
G36*
X3116871Y776854D02*
X3111559Y775430D01*
X3110135Y780742D01*
X3115447Y782166D01*
X3116871Y776854D01*
G37*
G36*
X3107694Y774396D02*
X3102382Y772972D01*
X3100958Y778284D01*
X3106270Y779708D01*
X3107694Y774396D01*
G37*
G36*
X3110153Y765219D02*
X3104841Y763795D01*
X3103417Y769107D01*
X3108729Y770531D01*
X3110153Y765219D01*
G37*
G36*
X3187520Y728308D02*
X3182208Y726884D01*
X3180784Y732196D01*
X3186096Y733620D01*
X3187520Y728308D01*
G37*
G36*
X3185062Y737484D02*
X3179750Y736060D01*
X3178326Y741372D01*
X3183638Y742796D01*
X3185062Y737484D01*
G37*
G36*
X3175885Y735026D02*
X3170573Y733602D01*
X3169149Y738914D01*
X3174461Y740338D01*
X3175885Y735026D01*
G37*
G36*
X3178344Y725849D02*
X3173032Y724425D01*
X3171608Y729737D01*
X3176920Y731161D01*
X3178344Y725849D01*
G37*
G36*
X3255491Y689065D02*
X3250179Y687641D01*
X3248755Y692953D01*
X3254067Y694377D01*
X3255491Y689065D01*
G37*
G36*
X3253032Y698241D02*
X3247720Y696817D01*
X3246296Y702129D01*
X3251608Y703553D01*
X3253032Y698241D01*
G37*
G36*
X3243856Y695783D02*
X3238544Y694359D01*
X3237120Y699671D01*
X3242432Y701095D01*
X3243856Y695783D01*
G37*
G36*
X3246315Y686606D02*
X3241003Y685182D01*
X3239579Y690494D01*
X3244891Y691918D01*
X3246315Y686606D01*
G37*
G36*
X3264780Y601132D02*
X3260018Y603882D01*
X3262768Y608644D01*
X3267530Y605894D01*
X3264780Y601132D01*
G37*
G36*
X3269530Y609359D02*
X3264768Y612109D01*
X3267518Y616871D01*
X3272280Y614121D01*
X3269530Y609359D01*
G37*
G36*
X3261303Y614109D02*
X3256541Y616859D01*
X3259291Y621621D01*
X3264053Y618871D01*
X3261303Y614109D01*
G37*
G36*
X3256553Y605882D02*
X3251791Y608632D01*
X3254541Y613394D01*
X3259303Y610644D01*
X3256553Y605882D01*
G37*
G36*
X3286510Y521421D02*
X3281748Y524171D01*
X3284498Y528933D01*
X3289260Y526183D01*
X3286510Y521421D01*
G37*
G36*
X3291260Y529649D02*
X3286498Y532399D01*
X3289248Y537161D01*
X3294010Y534411D01*
X3291260Y529649D01*
G37*
G36*
X3283033Y534399D02*
X3278271Y537149D01*
X3281021Y541911D01*
X3285783Y539161D01*
X3283033Y534399D01*
G37*
G36*
X3278283Y526171D02*
X3273521Y528921D01*
X3276271Y533683D01*
X3281033Y530933D01*
X3278283Y526171D01*
G37*
G36*
X3336415Y725206D02*
X3333665Y720444D01*
X3328903Y723194D01*
X3331653Y727956D01*
X3336415Y725206D01*
G37*
G36*
X3328188Y729956D02*
X3325438Y725194D01*
X3320676Y727944D01*
X3323426Y732706D01*
X3328188Y729956D01*
G37*
G36*
X3323438Y721729D02*
X3320688Y716967D01*
X3315926Y719717D01*
X3318676Y724479D01*
X3323438Y721729D01*
G37*
G36*
X3331665Y716979D02*
X3328915Y712217D01*
X3324153Y714967D01*
X3326903Y719729D01*
X3331665Y716979D01*
G37*
D12*
G36*
X3133542Y747348D02*
X3137042Y753410D01*
X3145702Y748410D01*
X3142202Y742348D01*
X3133542Y747348D01*
G37*
G36*
X3140542Y759472D02*
X3144042Y765534D01*
X3152702Y760534D01*
X3149202Y754472D01*
X3140542Y759472D01*
G37*
D10*
G36*
X3416531Y746115D02*
X3413781Y741353D01*
X3409019Y744103D01*
X3411769Y748865D01*
X3416531Y746115D01*
G37*
G36*
X3408304Y750865D02*
X3405554Y746103D01*
X3400792Y748853D01*
X3403542Y753615D01*
X3408304Y750865D01*
G37*
G36*
X3403554Y742638D02*
X3400804Y737876D01*
X3396042Y740626D01*
X3398792Y745388D01*
X3403554Y742638D01*
G37*
G36*
X3411781Y737888D02*
X3409031Y733126D01*
X3404269Y735876D01*
X3407019Y740638D01*
X3411781Y737888D01*
G37*
G36*
X3323682Y649695D02*
X3318370Y648271D01*
X3316946Y653583D01*
X3322258Y655007D01*
X3323682Y649695D01*
G37*
G36*
X3321223Y658871D02*
X3315911Y657447D01*
X3314487Y662759D01*
X3319799Y664183D01*
X3321223Y658871D01*
G37*
G36*
X3312047Y656413D02*
X3306735Y654989D01*
X3305311Y660301D01*
X3310623Y661725D01*
X3312047Y656413D01*
G37*
G36*
X3314506Y647236D02*
X3309194Y645812D01*
X3307770Y651124D01*
X3313082Y652548D01*
X3314506Y647236D01*
G37*
G36*
X3391873Y610325D02*
X3386561Y608901D01*
X3385137Y614213D01*
X3390449Y615637D01*
X3391873Y610325D01*
G37*
G36*
X3389414Y619501D02*
X3384102Y618077D01*
X3382678Y623389D01*
X3387990Y624813D01*
X3389414Y619501D01*
G37*
G36*
X3380238Y617043D02*
X3374926Y615619D01*
X3373502Y620931D01*
X3378814Y622355D01*
X3380238Y617043D01*
G37*
G36*
X3382697Y607866D02*
X3377385Y606442D01*
X3375961Y611754D01*
X3381273Y613178D01*
X3382697Y607866D01*
G37*
G36*
X3459844Y571082D02*
X3454532Y569658D01*
X3453108Y574970D01*
X3458420Y576394D01*
X3459844Y571082D01*
G37*
G36*
X3457385Y580258D02*
X3452073Y578834D01*
X3450649Y584146D01*
X3455961Y585570D01*
X3457385Y580258D01*
G37*
G36*
X3448209Y577800D02*
X3442897Y576376D01*
X3441473Y581688D01*
X3446785Y583112D01*
X3448209Y577800D01*
G37*
G36*
X3450667Y568623D02*
X3445355Y567199D01*
X3443931Y572511D01*
X3449243Y573935D01*
X3450667Y568623D01*
G37*
G36*
X3464073Y486070D02*
X3459311Y488820D01*
X3462061Y493582D01*
X3466823Y490832D01*
X3464073Y486070D01*
G37*
G36*
X3468823Y494297D02*
X3464061Y497047D01*
X3466811Y501809D01*
X3471573Y499059D01*
X3468823Y494297D01*
G37*
G36*
X3460596Y499047D02*
X3455834Y501797D01*
X3458584Y506559D01*
X3463346Y503809D01*
X3460596Y499047D01*
G37*
G36*
X3455846Y490820D02*
X3451084Y493570D01*
X3453834Y498332D01*
X3458596Y495582D01*
X3455846Y490820D01*
G37*
G36*
X3486023Y406232D02*
X3481261Y408982D01*
X3484011Y413744D01*
X3488773Y410994D01*
X3486023Y406232D01*
G37*
G36*
X3490773Y414460D02*
X3486011Y417210D01*
X3488761Y421972D01*
X3493523Y419222D01*
X3490773Y414460D01*
G37*
G36*
X3482546Y419210D02*
X3477784Y421960D01*
X3480534Y426722D01*
X3485296Y423972D01*
X3482546Y419210D01*
G37*
G36*
X3477796Y410982D02*
X3473034Y413732D01*
X3475784Y418494D01*
X3480546Y415744D01*
X3477796Y410982D01*
G37*
G36*
X3535708Y610144D02*
X3532958Y605382D01*
X3528196Y608132D01*
X3530946Y612894D01*
X3535708Y610144D01*
G37*
G36*
X3527481Y614894D02*
X3524731Y610132D01*
X3519969Y612882D01*
X3522719Y617644D01*
X3527481Y614894D01*
G37*
G36*
X3522731Y606667D02*
X3519981Y601905D01*
X3515219Y604655D01*
X3517969Y609417D01*
X3522731Y606667D01*
G37*
G36*
X3530958Y601917D02*
X3528208Y597155D01*
X3523446Y599905D01*
X3526196Y604667D01*
X3530958Y601917D01*
G37*
G36*
X3615824Y631053D02*
X3613074Y626291D01*
X3608312Y629041D01*
X3611062Y633803D01*
X3615824Y631053D01*
G37*
G36*
X3607597Y635803D02*
X3604847Y631041D01*
X3600085Y633791D01*
X3602835Y638553D01*
X3607597Y635803D01*
G37*
G36*
X3602847Y627576D02*
X3600097Y622814D01*
X3595335Y625564D01*
X3598085Y630326D01*
X3602847Y627576D01*
G37*
G36*
X3611074Y622826D02*
X3608324Y618064D01*
X3603562Y620814D01*
X3606312Y625576D01*
X3611074Y622826D01*
G37*
D12*
G36*
X3337895Y629365D02*
X3341395Y635427D01*
X3350055Y630427D01*
X3346555Y624365D01*
X3337895Y629365D01*
G37*
G36*
X3344895Y641489D02*
X3348395Y647551D01*
X3357055Y642551D01*
X3353555Y636489D01*
X3344895Y641489D01*
G37*
D10*
G36*
X3528035Y531712D02*
X3522723Y530288D01*
X3521299Y535600D01*
X3526611Y537024D01*
X3528035Y531712D01*
G37*
G36*
X3525576Y540888D02*
X3520264Y539464D01*
X3518840Y544776D01*
X3524152Y546200D01*
X3525576Y540888D01*
G37*
G36*
X3516399Y538430D02*
X3511087Y537006D01*
X3509663Y542318D01*
X3514975Y543742D01*
X3516399Y538430D01*
G37*
G36*
X3518858Y529253D02*
X3513546Y527829D01*
X3512122Y533141D01*
X3517434Y534565D01*
X3518858Y529253D01*
G37*
G36*
X3596225Y492342D02*
X3590913Y490918D01*
X3589489Y496230D01*
X3594801Y497654D01*
X3596225Y492342D01*
G37*
G36*
X3593767Y501518D02*
X3588455Y500094D01*
X3587031Y505406D01*
X3592343Y506830D01*
X3593767Y501518D01*
G37*
G36*
X3584590Y499060D02*
X3579278Y497636D01*
X3577854Y502948D01*
X3583166Y504372D01*
X3584590Y499060D01*
G37*
G36*
X3587049Y489883D02*
X3581737Y488459D01*
X3580313Y493771D01*
X3585625Y495195D01*
X3587049Y489883D01*
G37*
M02*
