G04 EAGLE Gerber RS-274X export*
G75*
%MOMM*%
%FSLAX34Y34*%
%LPD*%
%INBottom Copper*%
%IPPOS*%
%AMOC8*
5,1,8,0,0,1.08239X$1,22.5*%
G01*
%ADD10C,1.750000*%
%ADD11C,2.500000*%
%ADD12R,0.550000X0.550000*%
%ADD13R,0.700000X1.000000*%
%ADD14C,1.879600*%
%ADD15C,1.000000*%
%ADD16R,0.550000X0.550000*%
%ADD17R,1.000000X0.700000*%
%ADD18C,0.152400*%
%ADD19C,0.706400*%
%ADD20C,0.609600*%
%ADD21C,1.500000*%
%ADD22C,0.812800*%
%ADD23C,3.000000*%
%ADD24C,1.200000*%
%ADD25C,1.270000*%
%ADD26C,2.600000*%
%ADD27C,2.540000*%
%ADD28C,0.756400*%


D10*
X2743566Y912891D02*
X2743569Y913136D01*
X2743578Y913382D01*
X2743593Y913627D01*
X2743614Y913871D01*
X2743641Y914115D01*
X2743674Y914358D01*
X2743713Y914601D01*
X2743758Y914842D01*
X2743809Y915082D01*
X2743866Y915321D01*
X2743928Y915558D01*
X2743997Y915794D01*
X2744071Y916028D01*
X2744151Y916260D01*
X2744236Y916490D01*
X2744327Y916718D01*
X2744424Y916943D01*
X2744526Y917167D01*
X2744634Y917387D01*
X2744747Y917605D01*
X2744865Y917820D01*
X2744989Y918032D01*
X2745117Y918241D01*
X2745251Y918447D01*
X2745390Y918649D01*
X2745534Y918848D01*
X2745683Y919043D01*
X2745836Y919235D01*
X2745994Y919423D01*
X2746156Y919607D01*
X2746324Y919786D01*
X2746495Y919962D01*
X2746671Y920133D01*
X2746850Y920301D01*
X2747034Y920463D01*
X2747222Y920621D01*
X2747414Y920774D01*
X2747609Y920923D01*
X2747808Y921067D01*
X2748010Y921206D01*
X2748216Y921340D01*
X2748425Y921468D01*
X2748637Y921592D01*
X2748852Y921710D01*
X2749070Y921823D01*
X2749290Y921931D01*
X2749514Y922033D01*
X2749739Y922130D01*
X2749967Y922221D01*
X2750197Y922306D01*
X2750429Y922386D01*
X2750663Y922460D01*
X2750899Y922529D01*
X2751136Y922591D01*
X2751375Y922648D01*
X2751615Y922699D01*
X2751856Y922744D01*
X2752099Y922783D01*
X2752342Y922816D01*
X2752586Y922843D01*
X2752830Y922864D01*
X2753075Y922879D01*
X2753321Y922888D01*
X2753566Y922891D01*
X2753811Y922888D01*
X2754057Y922879D01*
X2754302Y922864D01*
X2754546Y922843D01*
X2754790Y922816D01*
X2755033Y922783D01*
X2755276Y922744D01*
X2755517Y922699D01*
X2755757Y922648D01*
X2755996Y922591D01*
X2756233Y922529D01*
X2756469Y922460D01*
X2756703Y922386D01*
X2756935Y922306D01*
X2757165Y922221D01*
X2757393Y922130D01*
X2757618Y922033D01*
X2757842Y921931D01*
X2758062Y921823D01*
X2758280Y921710D01*
X2758495Y921592D01*
X2758707Y921468D01*
X2758916Y921340D01*
X2759122Y921206D01*
X2759324Y921067D01*
X2759523Y920923D01*
X2759718Y920774D01*
X2759910Y920621D01*
X2760098Y920463D01*
X2760282Y920301D01*
X2760461Y920133D01*
X2760637Y919962D01*
X2760808Y919786D01*
X2760976Y919607D01*
X2761138Y919423D01*
X2761296Y919235D01*
X2761449Y919043D01*
X2761598Y918848D01*
X2761742Y918649D01*
X2761881Y918447D01*
X2762015Y918241D01*
X2762143Y918032D01*
X2762267Y917820D01*
X2762385Y917605D01*
X2762498Y917387D01*
X2762606Y917167D01*
X2762708Y916943D01*
X2762805Y916718D01*
X2762896Y916490D01*
X2762981Y916260D01*
X2763061Y916028D01*
X2763135Y915794D01*
X2763204Y915558D01*
X2763266Y915321D01*
X2763323Y915082D01*
X2763374Y914842D01*
X2763419Y914601D01*
X2763458Y914358D01*
X2763491Y914115D01*
X2763518Y913871D01*
X2763539Y913627D01*
X2763554Y913382D01*
X2763563Y913136D01*
X2763566Y912891D01*
X2763563Y912646D01*
X2763554Y912400D01*
X2763539Y912155D01*
X2763518Y911911D01*
X2763491Y911667D01*
X2763458Y911424D01*
X2763419Y911181D01*
X2763374Y910940D01*
X2763323Y910700D01*
X2763266Y910461D01*
X2763204Y910224D01*
X2763135Y909988D01*
X2763061Y909754D01*
X2762981Y909522D01*
X2762896Y909292D01*
X2762805Y909064D01*
X2762708Y908839D01*
X2762606Y908615D01*
X2762498Y908395D01*
X2762385Y908177D01*
X2762267Y907962D01*
X2762143Y907750D01*
X2762015Y907541D01*
X2761881Y907335D01*
X2761742Y907133D01*
X2761598Y906934D01*
X2761449Y906739D01*
X2761296Y906547D01*
X2761138Y906359D01*
X2760976Y906175D01*
X2760808Y905996D01*
X2760637Y905820D01*
X2760461Y905649D01*
X2760282Y905481D01*
X2760098Y905319D01*
X2759910Y905161D01*
X2759718Y905008D01*
X2759523Y904859D01*
X2759324Y904715D01*
X2759122Y904576D01*
X2758916Y904442D01*
X2758707Y904314D01*
X2758495Y904190D01*
X2758280Y904072D01*
X2758062Y903959D01*
X2757842Y903851D01*
X2757618Y903749D01*
X2757393Y903652D01*
X2757165Y903561D01*
X2756935Y903476D01*
X2756703Y903396D01*
X2756469Y903322D01*
X2756233Y903253D01*
X2755996Y903191D01*
X2755757Y903134D01*
X2755517Y903083D01*
X2755276Y903038D01*
X2755033Y902999D01*
X2754790Y902966D01*
X2754546Y902939D01*
X2754302Y902918D01*
X2754057Y902903D01*
X2753811Y902894D01*
X2753566Y902891D01*
X2753321Y902894D01*
X2753075Y902903D01*
X2752830Y902918D01*
X2752586Y902939D01*
X2752342Y902966D01*
X2752099Y902999D01*
X2751856Y903038D01*
X2751615Y903083D01*
X2751375Y903134D01*
X2751136Y903191D01*
X2750899Y903253D01*
X2750663Y903322D01*
X2750429Y903396D01*
X2750197Y903476D01*
X2749967Y903561D01*
X2749739Y903652D01*
X2749514Y903749D01*
X2749290Y903851D01*
X2749070Y903959D01*
X2748852Y904072D01*
X2748637Y904190D01*
X2748425Y904314D01*
X2748216Y904442D01*
X2748010Y904576D01*
X2747808Y904715D01*
X2747609Y904859D01*
X2747414Y905008D01*
X2747222Y905161D01*
X2747034Y905319D01*
X2746850Y905481D01*
X2746671Y905649D01*
X2746495Y905820D01*
X2746324Y905996D01*
X2746156Y906175D01*
X2745994Y906359D01*
X2745836Y906547D01*
X2745683Y906739D01*
X2745534Y906934D01*
X2745390Y907133D01*
X2745251Y907335D01*
X2745117Y907541D01*
X2744989Y907750D01*
X2744865Y907962D01*
X2744747Y908177D01*
X2744634Y908395D01*
X2744526Y908615D01*
X2744424Y908839D01*
X2744327Y909064D01*
X2744236Y909292D01*
X2744151Y909522D01*
X2744071Y909754D01*
X2743997Y909988D01*
X2743928Y910224D01*
X2743866Y910461D01*
X2743809Y910700D01*
X2743758Y910940D01*
X2743713Y911181D01*
X2743674Y911424D01*
X2743641Y911667D01*
X2743614Y911911D01*
X2743593Y912155D01*
X2743578Y912400D01*
X2743569Y912646D01*
X2743566Y912891D01*
X902415Y912804D02*
X902418Y913049D01*
X902427Y913295D01*
X902442Y913540D01*
X902463Y913784D01*
X902490Y914028D01*
X902523Y914271D01*
X902562Y914514D01*
X902607Y914755D01*
X902658Y914995D01*
X902715Y915234D01*
X902777Y915471D01*
X902846Y915707D01*
X902920Y915941D01*
X903000Y916173D01*
X903085Y916403D01*
X903176Y916631D01*
X903273Y916856D01*
X903375Y917080D01*
X903483Y917300D01*
X903596Y917518D01*
X903714Y917733D01*
X903838Y917945D01*
X903966Y918154D01*
X904100Y918360D01*
X904239Y918562D01*
X904383Y918761D01*
X904532Y918956D01*
X904685Y919148D01*
X904843Y919336D01*
X905005Y919520D01*
X905173Y919699D01*
X905344Y919875D01*
X905520Y920046D01*
X905699Y920214D01*
X905883Y920376D01*
X906071Y920534D01*
X906263Y920687D01*
X906458Y920836D01*
X906657Y920980D01*
X906859Y921119D01*
X907065Y921253D01*
X907274Y921381D01*
X907486Y921505D01*
X907701Y921623D01*
X907919Y921736D01*
X908139Y921844D01*
X908363Y921946D01*
X908588Y922043D01*
X908816Y922134D01*
X909046Y922219D01*
X909278Y922299D01*
X909512Y922373D01*
X909748Y922442D01*
X909985Y922504D01*
X910224Y922561D01*
X910464Y922612D01*
X910705Y922657D01*
X910948Y922696D01*
X911191Y922729D01*
X911435Y922756D01*
X911679Y922777D01*
X911924Y922792D01*
X912170Y922801D01*
X912415Y922804D01*
X912660Y922801D01*
X912906Y922792D01*
X913151Y922777D01*
X913395Y922756D01*
X913639Y922729D01*
X913882Y922696D01*
X914125Y922657D01*
X914366Y922612D01*
X914606Y922561D01*
X914845Y922504D01*
X915082Y922442D01*
X915318Y922373D01*
X915552Y922299D01*
X915784Y922219D01*
X916014Y922134D01*
X916242Y922043D01*
X916467Y921946D01*
X916691Y921844D01*
X916911Y921736D01*
X917129Y921623D01*
X917344Y921505D01*
X917556Y921381D01*
X917765Y921253D01*
X917971Y921119D01*
X918173Y920980D01*
X918372Y920836D01*
X918567Y920687D01*
X918759Y920534D01*
X918947Y920376D01*
X919131Y920214D01*
X919310Y920046D01*
X919486Y919875D01*
X919657Y919699D01*
X919825Y919520D01*
X919987Y919336D01*
X920145Y919148D01*
X920298Y918956D01*
X920447Y918761D01*
X920591Y918562D01*
X920730Y918360D01*
X920864Y918154D01*
X920992Y917945D01*
X921116Y917733D01*
X921234Y917518D01*
X921347Y917300D01*
X921455Y917080D01*
X921557Y916856D01*
X921654Y916631D01*
X921745Y916403D01*
X921830Y916173D01*
X921910Y915941D01*
X921984Y915707D01*
X922053Y915471D01*
X922115Y915234D01*
X922172Y914995D01*
X922223Y914755D01*
X922268Y914514D01*
X922307Y914271D01*
X922340Y914028D01*
X922367Y913784D01*
X922388Y913540D01*
X922403Y913295D01*
X922412Y913049D01*
X922415Y912804D01*
X922412Y912559D01*
X922403Y912313D01*
X922388Y912068D01*
X922367Y911824D01*
X922340Y911580D01*
X922307Y911337D01*
X922268Y911094D01*
X922223Y910853D01*
X922172Y910613D01*
X922115Y910374D01*
X922053Y910137D01*
X921984Y909901D01*
X921910Y909667D01*
X921830Y909435D01*
X921745Y909205D01*
X921654Y908977D01*
X921557Y908752D01*
X921455Y908528D01*
X921347Y908308D01*
X921234Y908090D01*
X921116Y907875D01*
X920992Y907663D01*
X920864Y907454D01*
X920730Y907248D01*
X920591Y907046D01*
X920447Y906847D01*
X920298Y906652D01*
X920145Y906460D01*
X919987Y906272D01*
X919825Y906088D01*
X919657Y905909D01*
X919486Y905733D01*
X919310Y905562D01*
X919131Y905394D01*
X918947Y905232D01*
X918759Y905074D01*
X918567Y904921D01*
X918372Y904772D01*
X918173Y904628D01*
X917971Y904489D01*
X917765Y904355D01*
X917556Y904227D01*
X917344Y904103D01*
X917129Y903985D01*
X916911Y903872D01*
X916691Y903764D01*
X916467Y903662D01*
X916242Y903565D01*
X916014Y903474D01*
X915784Y903389D01*
X915552Y903309D01*
X915318Y903235D01*
X915082Y903166D01*
X914845Y903104D01*
X914606Y903047D01*
X914366Y902996D01*
X914125Y902951D01*
X913882Y902912D01*
X913639Y902879D01*
X913395Y902852D01*
X913151Y902831D01*
X912906Y902816D01*
X912660Y902807D01*
X912415Y902804D01*
X912170Y902807D01*
X911924Y902816D01*
X911679Y902831D01*
X911435Y902852D01*
X911191Y902879D01*
X910948Y902912D01*
X910705Y902951D01*
X910464Y902996D01*
X910224Y903047D01*
X909985Y903104D01*
X909748Y903166D01*
X909512Y903235D01*
X909278Y903309D01*
X909046Y903389D01*
X908816Y903474D01*
X908588Y903565D01*
X908363Y903662D01*
X908139Y903764D01*
X907919Y903872D01*
X907701Y903985D01*
X907486Y904103D01*
X907274Y904227D01*
X907065Y904355D01*
X906859Y904489D01*
X906657Y904628D01*
X906458Y904772D01*
X906263Y904921D01*
X906071Y905074D01*
X905883Y905232D01*
X905699Y905394D01*
X905520Y905562D01*
X905344Y905733D01*
X905173Y905909D01*
X905005Y906088D01*
X904843Y906272D01*
X904685Y906460D01*
X904532Y906652D01*
X904383Y906847D01*
X904239Y907046D01*
X904100Y907248D01*
X903966Y907454D01*
X903838Y907663D01*
X903714Y907875D01*
X903596Y908090D01*
X903483Y908308D01*
X903375Y908528D01*
X903273Y908752D01*
X903176Y908977D01*
X903085Y909205D01*
X903000Y909435D01*
X902920Y909667D01*
X902846Y909901D01*
X902777Y910137D01*
X902715Y910374D01*
X902658Y910613D01*
X902607Y910853D01*
X902562Y911094D01*
X902523Y911337D01*
X902490Y911580D01*
X902463Y911824D01*
X902442Y912068D01*
X902427Y912313D01*
X902418Y912559D01*
X902415Y912804D01*
D11*
X2299916Y90509D02*
X2287418Y68859D01*
X2254942Y87609D02*
X2267440Y109259D01*
D12*
G36*
X2626224Y707138D02*
X2628974Y711900D01*
X2633736Y709150D01*
X2630986Y704388D01*
X2626224Y707138D01*
G37*
G36*
X2634451Y702388D02*
X2637201Y707150D01*
X2641963Y704400D01*
X2639213Y699638D01*
X2634451Y702388D01*
G37*
G36*
X2639201Y710615D02*
X2641951Y715377D01*
X2646713Y712627D01*
X2643963Y707865D01*
X2639201Y710615D01*
G37*
G36*
X2630974Y715365D02*
X2633724Y720127D01*
X2638486Y717377D01*
X2635736Y712615D01*
X2630974Y715365D01*
G37*
G36*
X2592691Y634137D02*
X2591267Y639449D01*
X2596579Y640873D01*
X2598003Y635561D01*
X2592691Y634137D01*
G37*
G36*
X2601868Y636595D02*
X2600444Y641907D01*
X2605756Y643331D01*
X2607180Y638019D01*
X2601868Y636595D01*
G37*
G36*
X2599409Y645772D02*
X2597985Y651084D01*
X2603297Y652508D01*
X2604721Y647196D01*
X2599409Y645772D01*
G37*
G36*
X2590233Y643313D02*
X2588809Y648625D01*
X2594121Y650049D01*
X2595545Y644737D01*
X2590233Y643313D01*
G37*
G36*
X2554267Y567490D02*
X2552843Y572802D01*
X2558155Y574226D01*
X2559579Y568914D01*
X2554267Y567490D01*
G37*
G36*
X2563443Y569948D02*
X2562019Y575260D01*
X2567331Y576684D01*
X2568755Y571372D01*
X2563443Y569948D01*
G37*
G36*
X2560985Y579125D02*
X2559561Y584437D01*
X2564873Y585861D01*
X2566297Y580549D01*
X2560985Y579125D01*
G37*
G36*
X2551808Y576666D02*
X2550384Y581978D01*
X2555696Y583402D01*
X2557120Y578090D01*
X2551808Y576666D01*
G37*
G36*
X2388334Y525281D02*
X2391084Y530043D01*
X2395846Y527293D01*
X2393096Y522531D01*
X2388334Y525281D01*
G37*
G36*
X2396562Y520531D02*
X2399312Y525293D01*
X2404074Y522543D01*
X2401324Y517781D01*
X2396562Y520531D01*
G37*
G36*
X2401312Y528759D02*
X2404062Y533521D01*
X2408824Y530771D01*
X2406074Y526009D01*
X2401312Y528759D01*
G37*
G36*
X2393084Y533509D02*
X2395834Y538271D01*
X2400596Y535521D01*
X2397846Y530759D01*
X2393084Y533509D01*
G37*
G36*
X2265876Y491491D02*
X2268626Y496253D01*
X2273388Y493503D01*
X2270638Y488741D01*
X2265876Y491491D01*
G37*
G36*
X2274104Y486741D02*
X2276854Y491503D01*
X2281616Y488753D01*
X2278866Y483991D01*
X2274104Y486741D01*
G37*
G36*
X2278854Y494968D02*
X2281604Y499730D01*
X2286366Y496980D01*
X2283616Y492218D01*
X2278854Y494968D01*
G37*
G36*
X2270626Y499718D02*
X2273376Y504480D01*
X2278138Y501730D01*
X2275388Y496968D01*
X2270626Y499718D01*
G37*
G36*
X2599478Y401982D02*
X2594716Y404732D01*
X2597466Y409494D01*
X2602228Y406744D01*
X2599478Y401982D01*
G37*
G36*
X2604228Y410209D02*
X2599466Y412959D01*
X2602216Y417721D01*
X2606978Y414971D01*
X2604228Y410209D01*
G37*
G36*
X2596001Y414959D02*
X2591239Y417709D01*
X2593989Y422471D01*
X2598751Y419721D01*
X2596001Y414959D01*
G37*
G36*
X2591251Y406732D02*
X2586489Y409482D01*
X2589239Y414244D01*
X2594001Y411494D01*
X2591251Y406732D01*
G37*
D13*
G36*
X2494356Y484628D02*
X2500418Y481128D01*
X2495418Y472468D01*
X2489356Y475968D01*
X2494356Y484628D01*
G37*
G36*
X2506481Y477628D02*
X2512543Y474128D01*
X2507543Y465468D01*
X2501481Y468968D01*
X2506481Y477628D01*
G37*
D12*
G36*
X2632701Y279959D02*
X2627939Y282709D01*
X2630689Y287471D01*
X2635451Y284721D01*
X2632701Y279959D01*
G37*
G36*
X2637451Y288186D02*
X2632689Y290936D01*
X2635439Y295698D01*
X2640201Y292948D01*
X2637451Y288186D01*
G37*
G36*
X2629224Y292936D02*
X2624462Y295686D01*
X2627212Y300448D01*
X2631974Y297698D01*
X2629224Y292936D01*
G37*
G36*
X2624474Y284709D02*
X2619712Y287459D01*
X2622462Y292221D01*
X2627224Y289471D01*
X2624474Y284709D01*
G37*
G36*
X2515805Y500909D02*
X2514381Y506221D01*
X2519693Y507645D01*
X2521117Y502333D01*
X2515805Y500909D01*
G37*
G36*
X2524981Y503367D02*
X2523557Y508679D01*
X2528869Y510103D01*
X2530293Y504791D01*
X2524981Y503367D01*
G37*
G36*
X2522522Y512544D02*
X2521098Y517856D01*
X2526410Y519280D01*
X2527834Y513968D01*
X2522522Y512544D01*
G37*
G36*
X2513346Y510085D02*
X2511922Y515397D01*
X2517234Y516821D01*
X2518658Y511509D01*
X2513346Y510085D01*
G37*
G36*
X2477244Y434298D02*
X2475820Y439610D01*
X2481132Y441034D01*
X2482556Y435722D01*
X2477244Y434298D01*
G37*
G36*
X2486420Y436757D02*
X2484996Y442069D01*
X2490308Y443493D01*
X2491732Y438181D01*
X2486420Y436757D01*
G37*
G36*
X2483961Y445933D02*
X2482537Y451245D01*
X2487849Y452669D01*
X2489273Y447357D01*
X2483961Y445933D01*
G37*
G36*
X2474785Y443474D02*
X2473361Y448786D01*
X2478673Y450210D01*
X2480097Y444898D01*
X2474785Y443474D01*
G37*
G36*
X2438869Y367564D02*
X2437445Y372876D01*
X2442757Y374300D01*
X2444181Y368988D01*
X2438869Y367564D01*
G37*
G36*
X2448046Y370023D02*
X2446622Y375335D01*
X2451934Y376759D01*
X2453358Y371447D01*
X2448046Y370023D01*
G37*
G36*
X2445587Y379200D02*
X2444163Y384512D01*
X2449475Y385936D01*
X2450899Y380624D01*
X2445587Y379200D01*
G37*
G36*
X2436410Y376741D02*
X2434986Y382053D01*
X2440298Y383477D01*
X2441722Y378165D01*
X2436410Y376741D01*
G37*
G36*
X2400345Y301091D02*
X2398921Y306403D01*
X2404233Y307827D01*
X2405657Y302515D01*
X2400345Y301091D01*
G37*
G36*
X2409521Y303549D02*
X2408097Y308861D01*
X2413409Y310285D01*
X2414833Y304973D01*
X2409521Y303549D01*
G37*
G36*
X2407062Y312726D02*
X2405638Y318038D01*
X2410950Y319462D01*
X2412374Y314150D01*
X2407062Y312726D01*
G37*
G36*
X2397886Y310267D02*
X2396462Y315579D01*
X2401774Y317003D01*
X2403198Y311691D01*
X2397886Y310267D01*
G37*
G36*
X2254563Y278712D02*
X2257313Y283474D01*
X2262075Y280724D01*
X2259325Y275962D01*
X2254563Y278712D01*
G37*
G36*
X2262790Y273962D02*
X2265540Y278724D01*
X2270302Y275974D01*
X2267552Y271212D01*
X2262790Y273962D01*
G37*
G36*
X2267540Y282190D02*
X2270290Y286952D01*
X2275052Y284202D01*
X2272302Y279440D01*
X2267540Y282190D01*
G37*
G36*
X2259313Y286940D02*
X2262063Y291702D01*
X2266825Y288952D01*
X2264075Y284190D01*
X2259313Y286940D01*
G37*
G36*
X2450689Y160492D02*
X2445927Y163242D01*
X2448677Y168004D01*
X2453439Y165254D01*
X2450689Y160492D01*
G37*
G36*
X2455439Y168720D02*
X2450677Y171470D01*
X2453427Y176232D01*
X2458189Y173482D01*
X2455439Y168720D01*
G37*
G36*
X2447212Y173470D02*
X2442450Y176220D01*
X2445200Y180982D01*
X2449962Y178232D01*
X2447212Y173470D01*
G37*
G36*
X2442462Y165242D02*
X2437700Y167992D01*
X2440450Y172754D01*
X2445212Y170004D01*
X2442462Y165242D01*
G37*
G36*
X2362013Y234483D02*
X2360589Y239795D01*
X2365901Y241219D01*
X2367325Y235907D01*
X2362013Y234483D01*
G37*
G36*
X2371189Y236942D02*
X2369765Y242254D01*
X2375077Y243678D01*
X2376501Y238366D01*
X2371189Y236942D01*
G37*
G36*
X2368731Y246118D02*
X2367307Y251430D01*
X2372619Y252854D01*
X2374043Y247542D01*
X2368731Y246118D01*
G37*
G36*
X2359554Y243660D02*
X2358130Y248972D01*
X2363442Y250396D01*
X2364866Y245084D01*
X2359554Y243660D01*
G37*
D13*
G36*
X2349711Y235117D02*
X2355773Y231617D01*
X2350773Y222957D01*
X2344711Y226457D01*
X2349711Y235117D01*
G37*
G36*
X2361835Y228117D02*
X2367897Y224617D01*
X2362897Y215957D01*
X2356835Y219457D01*
X2361835Y228117D01*
G37*
D12*
G36*
X2322586Y167661D02*
X2321162Y172973D01*
X2326474Y174397D01*
X2327898Y169085D01*
X2322586Y167661D01*
G37*
G36*
X2331762Y170119D02*
X2330338Y175431D01*
X2335650Y176855D01*
X2337074Y171543D01*
X2331762Y170119D01*
G37*
G36*
X2329303Y179296D02*
X2327879Y184608D01*
X2333191Y186032D01*
X2334615Y180720D01*
X2329303Y179296D01*
G37*
G36*
X2320127Y176837D02*
X2318703Y182149D01*
X2324015Y183573D01*
X2325439Y178261D01*
X2320127Y176837D01*
G37*
G36*
X2513922Y786766D02*
X2519234Y785342D01*
X2517810Y780030D01*
X2512498Y781454D01*
X2513922Y786766D01*
G37*
G36*
X2511464Y777590D02*
X2516776Y776166D01*
X2515352Y770854D01*
X2510040Y772278D01*
X2511464Y777590D01*
G37*
G36*
X2520640Y775131D02*
X2525952Y773707D01*
X2524528Y768395D01*
X2519216Y769819D01*
X2520640Y775131D01*
G37*
G36*
X2523099Y784308D02*
X2528411Y782884D01*
X2526987Y777572D01*
X2521675Y778996D01*
X2523099Y784308D01*
G37*
D14*
X1820000Y140000D03*
X1845400Y140000D03*
X1870800Y140000D03*
D15*
X3610000Y78888D03*
X60000Y78888D03*
X60000Y1652646D03*
X3610000Y1652646D03*
D16*
X2514457Y917546D03*
X2514457Y908046D03*
X2523957Y908046D03*
X2523957Y917546D03*
D12*
G36*
X2431721Y912836D02*
X2435610Y916725D01*
X2439499Y912836D01*
X2435610Y908947D01*
X2431721Y912836D01*
G37*
G36*
X2438438Y906118D02*
X2442327Y910007D01*
X2446216Y906118D01*
X2442327Y902229D01*
X2438438Y906118D01*
G37*
G36*
X2445156Y912836D02*
X2449045Y916725D01*
X2452934Y912836D01*
X2449045Y908947D01*
X2445156Y912836D01*
G37*
G36*
X2438438Y919553D02*
X2442327Y923442D01*
X2446216Y919553D01*
X2442327Y915664D01*
X2438438Y919553D01*
G37*
G36*
X2354790Y912788D02*
X2358679Y916677D01*
X2362568Y912788D01*
X2358679Y908899D01*
X2354790Y912788D01*
G37*
G36*
X2361508Y906071D02*
X2365397Y909960D01*
X2369286Y906071D01*
X2365397Y902182D01*
X2361508Y906071D01*
G37*
G36*
X2368225Y912788D02*
X2372114Y916677D01*
X2376003Y912788D01*
X2372114Y908899D01*
X2368225Y912788D01*
G37*
G36*
X2361508Y919506D02*
X2365397Y923395D01*
X2369286Y919506D01*
X2365397Y915617D01*
X2361508Y919506D01*
G37*
D16*
X2238020Y1032636D03*
X2238020Y1023136D03*
X2247520Y1023136D03*
X2247520Y1032636D03*
X2147528Y1121793D03*
X2147528Y1112293D03*
X2157028Y1112293D03*
X2157028Y1121793D03*
X2236812Y793630D03*
X2246312Y793630D03*
X2246312Y803130D03*
X2236812Y803130D03*
D17*
X2248075Y919742D03*
X2248075Y905742D03*
D16*
X2147748Y703846D03*
X2157248Y703846D03*
X2157248Y713346D03*
X2147748Y713346D03*
D12*
G36*
X2277898Y912808D02*
X2281787Y916697D01*
X2285676Y912808D01*
X2281787Y908919D01*
X2277898Y912808D01*
G37*
G36*
X2284616Y906090D02*
X2288505Y909979D01*
X2292394Y906090D01*
X2288505Y902201D01*
X2284616Y906090D01*
G37*
G36*
X2291333Y912808D02*
X2295222Y916697D01*
X2299111Y912808D01*
X2295222Y908919D01*
X2291333Y912808D01*
G37*
G36*
X2284616Y919525D02*
X2288505Y923414D01*
X2292394Y919525D01*
X2288505Y915636D01*
X2284616Y919525D01*
G37*
G36*
X2200931Y912897D02*
X2204820Y916786D01*
X2208709Y912897D01*
X2204820Y909008D01*
X2200931Y912897D01*
G37*
G36*
X2207649Y906180D02*
X2211538Y910069D01*
X2215427Y906180D01*
X2211538Y902291D01*
X2207649Y906180D01*
G37*
G36*
X2214366Y912897D02*
X2218255Y916786D01*
X2222144Y912897D01*
X2218255Y909008D01*
X2214366Y912897D01*
G37*
G36*
X2207649Y919615D02*
X2211538Y923504D01*
X2215427Y919615D01*
X2211538Y915726D01*
X2207649Y919615D01*
G37*
G36*
X2123951Y912763D02*
X2127840Y916652D01*
X2131729Y912763D01*
X2127840Y908874D01*
X2123951Y912763D01*
G37*
G36*
X2130669Y906046D02*
X2134558Y909935D01*
X2138447Y906046D01*
X2134558Y902157D01*
X2130669Y906046D01*
G37*
G36*
X2137386Y912763D02*
X2141275Y916652D01*
X2145164Y912763D01*
X2141275Y908874D01*
X2137386Y912763D01*
G37*
G36*
X2130669Y919481D02*
X2134558Y923370D01*
X2138447Y919481D01*
X2134558Y915592D01*
X2130669Y919481D01*
G37*
G36*
X2047121Y912889D02*
X2051010Y916778D01*
X2054899Y912889D01*
X2051010Y909000D01*
X2047121Y912889D01*
G37*
G36*
X2053838Y906172D02*
X2057727Y910061D01*
X2061616Y906172D01*
X2057727Y902283D01*
X2053838Y906172D01*
G37*
G36*
X2060556Y912889D02*
X2064445Y916778D01*
X2068334Y912889D01*
X2064445Y909000D01*
X2060556Y912889D01*
G37*
G36*
X2053838Y919607D02*
X2057727Y923496D01*
X2061616Y919607D01*
X2057727Y915718D01*
X2053838Y919607D01*
G37*
D16*
X1957599Y1025201D03*
X1957599Y1015701D03*
X1967099Y1015701D03*
X1967099Y1025201D03*
X1953281Y801740D03*
X1962781Y801740D03*
X1962781Y811240D03*
X1953281Y811240D03*
D12*
G36*
X1970271Y912782D02*
X1974160Y916671D01*
X1978049Y912782D01*
X1974160Y908893D01*
X1970271Y912782D01*
G37*
G36*
X1976989Y906065D02*
X1980878Y909954D01*
X1984767Y906065D01*
X1980878Y902176D01*
X1976989Y906065D01*
G37*
G36*
X1983706Y912782D02*
X1987595Y916671D01*
X1991484Y912782D01*
X1987595Y908893D01*
X1983706Y912782D01*
G37*
G36*
X1976989Y919500D02*
X1980878Y923389D01*
X1984767Y919500D01*
X1980878Y915611D01*
X1976989Y919500D01*
G37*
D17*
X1959669Y920253D03*
X1959669Y906253D03*
D12*
G36*
X1892688Y913516D02*
X1896577Y917405D01*
X1900466Y913516D01*
X1896577Y909627D01*
X1892688Y913516D01*
G37*
G36*
X1899405Y906798D02*
X1903294Y910687D01*
X1907183Y906798D01*
X1903294Y902909D01*
X1899405Y906798D01*
G37*
G36*
X1906123Y913516D02*
X1910012Y917405D01*
X1913901Y913516D01*
X1910012Y909627D01*
X1906123Y913516D01*
G37*
G36*
X1899405Y920233D02*
X1903294Y924122D01*
X1907183Y920233D01*
X1903294Y916344D01*
X1899405Y920233D01*
G37*
G36*
X2524517Y1057366D02*
X2525941Y1052054D01*
X2520629Y1050630D01*
X2519205Y1055942D01*
X2524517Y1057366D01*
G37*
G36*
X2515340Y1054908D02*
X2516764Y1049596D01*
X2511452Y1048172D01*
X2510028Y1053484D01*
X2515340Y1054908D01*
G37*
G36*
X2517799Y1045731D02*
X2519223Y1040419D01*
X2513911Y1038995D01*
X2512487Y1044307D01*
X2517799Y1045731D01*
G37*
G36*
X2526976Y1048190D02*
X2528400Y1042878D01*
X2523088Y1041454D01*
X2521664Y1046766D01*
X2526976Y1048190D01*
G37*
G36*
X2639049Y1126049D02*
X2641799Y1121287D01*
X2637037Y1118537D01*
X2634287Y1123299D01*
X2639049Y1126049D01*
G37*
G36*
X2630822Y1121299D02*
X2633572Y1116537D01*
X2628810Y1113787D01*
X2626060Y1118549D01*
X2630822Y1121299D01*
G37*
G36*
X2635572Y1113071D02*
X2638322Y1108309D01*
X2633560Y1105559D01*
X2630810Y1110321D01*
X2635572Y1113071D01*
G37*
G36*
X2643799Y1117821D02*
X2646549Y1113059D01*
X2641787Y1110309D01*
X2639037Y1115071D01*
X2643799Y1117821D01*
G37*
G36*
X2592596Y1191589D02*
X2597908Y1190165D01*
X2596484Y1184853D01*
X2591172Y1186277D01*
X2592596Y1191589D01*
G37*
G36*
X2590137Y1182413D02*
X2595449Y1180989D01*
X2594025Y1175677D01*
X2588713Y1177101D01*
X2590137Y1182413D01*
G37*
G36*
X2599314Y1179954D02*
X2604626Y1178530D01*
X2603202Y1173218D01*
X2597890Y1174642D01*
X2599314Y1179954D01*
G37*
G36*
X2601772Y1189131D02*
X2607084Y1187707D01*
X2605660Y1182395D01*
X2600348Y1183819D01*
X2601772Y1189131D01*
G37*
G36*
X2554090Y1258189D02*
X2559402Y1256765D01*
X2557978Y1251453D01*
X2552666Y1252877D01*
X2554090Y1258189D01*
G37*
G36*
X2551631Y1249013D02*
X2556943Y1247589D01*
X2555519Y1242277D01*
X2550207Y1243701D01*
X2551631Y1249013D01*
G37*
G36*
X2560808Y1246554D02*
X2566120Y1245130D01*
X2564696Y1239818D01*
X2559384Y1241242D01*
X2560808Y1246554D01*
G37*
G36*
X2563267Y1255731D02*
X2568579Y1254307D01*
X2567155Y1248995D01*
X2561843Y1250419D01*
X2563267Y1255731D01*
G37*
G36*
X2600502Y1422995D02*
X2603252Y1418233D01*
X2598490Y1415483D01*
X2595740Y1420245D01*
X2600502Y1422995D01*
G37*
G36*
X2592274Y1418245D02*
X2595024Y1413483D01*
X2590262Y1410733D01*
X2587512Y1415495D01*
X2592274Y1418245D01*
G37*
G36*
X2597024Y1410018D02*
X2599774Y1405256D01*
X2595012Y1402506D01*
X2592262Y1407268D01*
X2597024Y1410018D01*
G37*
G36*
X2605252Y1414768D02*
X2608002Y1410006D01*
X2603240Y1407256D01*
X2600490Y1412018D01*
X2605252Y1414768D01*
G37*
G36*
X2632468Y1545942D02*
X2635218Y1541180D01*
X2630456Y1538430D01*
X2627706Y1543192D01*
X2632468Y1545942D01*
G37*
G36*
X2624240Y1541192D02*
X2626990Y1536430D01*
X2622228Y1533680D01*
X2619478Y1538442D01*
X2624240Y1541192D01*
G37*
G36*
X2628990Y1532965D02*
X2631740Y1528203D01*
X2626978Y1525453D01*
X2624228Y1530215D01*
X2628990Y1532965D01*
G37*
G36*
X2637218Y1537715D02*
X2639968Y1532953D01*
X2635206Y1530203D01*
X2632456Y1534965D01*
X2637218Y1537715D01*
G37*
G36*
X2388150Y1301788D02*
X2392912Y1304538D01*
X2395662Y1299776D01*
X2390900Y1297026D01*
X2388150Y1301788D01*
G37*
G36*
X2392900Y1293561D02*
X2397662Y1296311D01*
X2400412Y1291549D01*
X2395650Y1288799D01*
X2392900Y1293561D01*
G37*
G36*
X2401127Y1298311D02*
X2405889Y1301061D01*
X2408639Y1296299D01*
X2403877Y1293549D01*
X2401127Y1298311D01*
G37*
G36*
X2396377Y1306538D02*
X2401139Y1309288D01*
X2403889Y1304526D01*
X2399127Y1301776D01*
X2396377Y1306538D01*
G37*
D13*
G36*
X2512284Y1351505D02*
X2506222Y1348005D01*
X2501222Y1356665D01*
X2507284Y1360165D01*
X2512284Y1351505D01*
G37*
G36*
X2500160Y1344505D02*
X2494098Y1341005D01*
X2489098Y1349665D01*
X2495160Y1353165D01*
X2500160Y1344505D01*
G37*
D12*
G36*
X2265863Y1334028D02*
X2270625Y1336778D01*
X2273375Y1332016D01*
X2268613Y1329266D01*
X2265863Y1334028D01*
G37*
G36*
X2270613Y1325801D02*
X2275375Y1328551D01*
X2278125Y1323789D01*
X2273363Y1321039D01*
X2270613Y1325801D01*
G37*
G36*
X2278840Y1330551D02*
X2283602Y1333301D01*
X2286352Y1328539D01*
X2281590Y1325789D01*
X2278840Y1330551D01*
G37*
G36*
X2274090Y1338778D02*
X2278852Y1341528D01*
X2281602Y1336766D01*
X2276840Y1334016D01*
X2274090Y1338778D01*
G37*
G36*
X2515661Y1324789D02*
X2520973Y1323365D01*
X2519549Y1318053D01*
X2514237Y1319477D01*
X2515661Y1324789D01*
G37*
G36*
X2513202Y1315613D02*
X2518514Y1314189D01*
X2517090Y1308877D01*
X2511778Y1310301D01*
X2513202Y1315613D01*
G37*
G36*
X2522378Y1313154D02*
X2527690Y1311730D01*
X2526266Y1306418D01*
X2520954Y1307842D01*
X2522378Y1313154D01*
G37*
G36*
X2524837Y1322331D02*
X2530149Y1320907D01*
X2528725Y1315595D01*
X2523413Y1317019D01*
X2524837Y1322331D01*
G37*
G36*
X2477255Y1391489D02*
X2482567Y1390065D01*
X2481143Y1384753D01*
X2475831Y1386177D01*
X2477255Y1391489D01*
G37*
G36*
X2474796Y1382313D02*
X2480108Y1380889D01*
X2478684Y1375577D01*
X2473372Y1377001D01*
X2474796Y1382313D01*
G37*
G36*
X2483972Y1379854D02*
X2489284Y1378430D01*
X2487860Y1373118D01*
X2482548Y1374542D01*
X2483972Y1379854D01*
G37*
G36*
X2486431Y1389031D02*
X2491743Y1387607D01*
X2490319Y1382295D01*
X2485007Y1383719D01*
X2486431Y1389031D01*
G37*
G36*
X2438649Y1458089D02*
X2443961Y1456665D01*
X2442537Y1451353D01*
X2437225Y1452777D01*
X2438649Y1458089D01*
G37*
G36*
X2436190Y1448913D02*
X2441502Y1447489D01*
X2440078Y1442177D01*
X2434766Y1443601D01*
X2436190Y1448913D01*
G37*
G36*
X2445366Y1446454D02*
X2450678Y1445030D01*
X2449254Y1439718D01*
X2443942Y1441142D01*
X2445366Y1446454D01*
G37*
G36*
X2447825Y1455631D02*
X2453137Y1454207D01*
X2451713Y1448895D01*
X2446401Y1450319D01*
X2447825Y1455631D01*
G37*
G36*
X2400343Y1524689D02*
X2405655Y1523265D01*
X2404231Y1517953D01*
X2398919Y1519377D01*
X2400343Y1524689D01*
G37*
G36*
X2397884Y1515513D02*
X2403196Y1514089D01*
X2401772Y1508777D01*
X2396460Y1510201D01*
X2397884Y1515513D01*
G37*
G36*
X2407061Y1513054D02*
X2412373Y1511630D01*
X2410949Y1506318D01*
X2405637Y1507742D01*
X2407061Y1513054D01*
G37*
G36*
X2409519Y1522231D02*
X2414831Y1520807D01*
X2413407Y1515495D01*
X2408095Y1516919D01*
X2409519Y1522231D01*
G37*
G36*
X2453852Y1662129D02*
X2456602Y1657367D01*
X2451840Y1654617D01*
X2449090Y1659379D01*
X2453852Y1662129D01*
G37*
G36*
X2445625Y1657379D02*
X2448375Y1652617D01*
X2443613Y1649867D01*
X2440863Y1654629D01*
X2445625Y1657379D01*
G37*
G36*
X2450375Y1649152D02*
X2453125Y1644390D01*
X2448363Y1641640D01*
X2445613Y1646402D01*
X2450375Y1649152D01*
G37*
G36*
X2458602Y1653902D02*
X2461352Y1649140D01*
X2456590Y1646390D01*
X2453840Y1651152D01*
X2458602Y1653902D01*
G37*
G36*
X2253409Y1551388D02*
X2258171Y1554138D01*
X2260921Y1549376D01*
X2256159Y1546626D01*
X2253409Y1551388D01*
G37*
G36*
X2258159Y1543161D02*
X2262921Y1545911D01*
X2265671Y1541149D01*
X2260909Y1538399D01*
X2258159Y1543161D01*
G37*
G36*
X2266386Y1547911D02*
X2271148Y1550661D01*
X2273898Y1545899D01*
X2269136Y1543149D01*
X2266386Y1547911D01*
G37*
G36*
X2261636Y1556138D02*
X2266398Y1558888D01*
X2269148Y1554126D01*
X2264386Y1551376D01*
X2261636Y1556138D01*
G37*
G36*
X2361825Y1591189D02*
X2367137Y1589765D01*
X2365713Y1584453D01*
X2360401Y1585877D01*
X2361825Y1591189D01*
G37*
G36*
X2359366Y1582013D02*
X2364678Y1580589D01*
X2363254Y1575277D01*
X2357942Y1576701D01*
X2359366Y1582013D01*
G37*
G36*
X2368543Y1579554D02*
X2373855Y1578130D01*
X2372431Y1572818D01*
X2367119Y1574242D01*
X2368543Y1579554D01*
G37*
G36*
X2371002Y1588731D02*
X2376314Y1587307D01*
X2374890Y1581995D01*
X2369578Y1583419D01*
X2371002Y1588731D01*
G37*
D13*
G36*
X2368525Y1601526D02*
X2362463Y1598026D01*
X2357463Y1606686D01*
X2363525Y1610186D01*
X2368525Y1601526D01*
G37*
G36*
X2356400Y1594526D02*
X2350338Y1591026D01*
X2345338Y1599686D01*
X2351400Y1603186D01*
X2356400Y1594526D01*
G37*
D12*
G36*
X2323669Y1658746D02*
X2328981Y1657322D01*
X2327557Y1652010D01*
X2322245Y1653434D01*
X2323669Y1658746D01*
G37*
G36*
X2321210Y1649569D02*
X2326522Y1648145D01*
X2325098Y1642833D01*
X2319786Y1644257D01*
X2321210Y1649569D01*
G37*
G36*
X2330386Y1647111D02*
X2335698Y1645687D01*
X2334274Y1640375D01*
X2328962Y1641799D01*
X2330386Y1647111D01*
G37*
G36*
X2332845Y1656287D02*
X2338157Y1654863D01*
X2336733Y1649551D01*
X2331421Y1650975D01*
X2332845Y1656287D01*
G37*
G36*
X2764161Y1183491D02*
X2760272Y1179602D01*
X2756383Y1183491D01*
X2760272Y1187380D01*
X2764161Y1183491D01*
G37*
G36*
X2757444Y1190208D02*
X2753555Y1186319D01*
X2749666Y1190208D01*
X2753555Y1194097D01*
X2757444Y1190208D01*
G37*
G36*
X2750726Y1183491D02*
X2746837Y1179602D01*
X2742948Y1183491D01*
X2746837Y1187380D01*
X2750726Y1183491D01*
G37*
G36*
X2757444Y1176773D02*
X2753555Y1172884D01*
X2749666Y1176773D01*
X2753555Y1180662D01*
X2757444Y1176773D01*
G37*
G36*
X2880908Y1118643D02*
X2878158Y1113881D01*
X2873396Y1116631D01*
X2876146Y1121393D01*
X2880908Y1118643D01*
G37*
G36*
X2872681Y1123393D02*
X2869931Y1118631D01*
X2865169Y1121381D01*
X2867919Y1126143D01*
X2872681Y1123393D01*
G37*
G36*
X2867931Y1115166D02*
X2865181Y1110404D01*
X2860419Y1113154D01*
X2863169Y1117916D01*
X2867931Y1115166D01*
G37*
G36*
X2876158Y1110416D02*
X2873408Y1105654D01*
X2868646Y1108404D01*
X2871396Y1113166D01*
X2876158Y1110416D01*
G37*
G36*
X2914441Y1191644D02*
X2915865Y1186332D01*
X2910553Y1184908D01*
X2909129Y1190220D01*
X2914441Y1191644D01*
G37*
G36*
X2905264Y1189186D02*
X2906688Y1183874D01*
X2901376Y1182450D01*
X2899952Y1187762D01*
X2905264Y1189186D01*
G37*
G36*
X2907723Y1180009D02*
X2909147Y1174697D01*
X2903835Y1173273D01*
X2902411Y1178585D01*
X2907723Y1180009D01*
G37*
G36*
X2916899Y1182468D02*
X2918323Y1177156D01*
X2913011Y1175732D01*
X2911587Y1181044D01*
X2916899Y1182468D01*
G37*
G36*
X2952865Y1258292D02*
X2954289Y1252980D01*
X2948977Y1251556D01*
X2947553Y1256868D01*
X2952865Y1258292D01*
G37*
G36*
X2943689Y1255833D02*
X2945113Y1250521D01*
X2939801Y1249097D01*
X2938377Y1254409D01*
X2943689Y1255833D01*
G37*
G36*
X2946147Y1246656D02*
X2947571Y1241344D01*
X2942259Y1239920D01*
X2940835Y1245232D01*
X2946147Y1246656D01*
G37*
G36*
X2955324Y1249115D02*
X2956748Y1243803D01*
X2951436Y1242379D01*
X2950012Y1247691D01*
X2955324Y1249115D01*
G37*
G36*
X3118798Y1300500D02*
X3116048Y1295738D01*
X3111286Y1298488D01*
X3114036Y1303250D01*
X3118798Y1300500D01*
G37*
G36*
X3110570Y1305250D02*
X3107820Y1300488D01*
X3103058Y1303238D01*
X3105808Y1308000D01*
X3110570Y1305250D01*
G37*
G36*
X3105820Y1297023D02*
X3103070Y1292261D01*
X3098308Y1295011D01*
X3101058Y1299773D01*
X3105820Y1297023D01*
G37*
G36*
X3114048Y1292273D02*
X3111298Y1287511D01*
X3106536Y1290261D01*
X3109286Y1295023D01*
X3114048Y1292273D01*
G37*
G36*
X3241256Y1334290D02*
X3238506Y1329528D01*
X3233744Y1332278D01*
X3236494Y1337040D01*
X3241256Y1334290D01*
G37*
G36*
X3233028Y1339040D02*
X3230278Y1334278D01*
X3225516Y1337028D01*
X3228266Y1341790D01*
X3233028Y1339040D01*
G37*
G36*
X3228278Y1330813D02*
X3225528Y1326051D01*
X3220766Y1328801D01*
X3223516Y1333563D01*
X3228278Y1330813D01*
G37*
G36*
X3236506Y1326063D02*
X3233756Y1321301D01*
X3228994Y1324051D01*
X3231744Y1328813D01*
X3236506Y1326063D01*
G37*
G36*
X2907654Y1423799D02*
X2912416Y1421049D01*
X2909666Y1416287D01*
X2904904Y1419037D01*
X2907654Y1423799D01*
G37*
G36*
X2902904Y1415572D02*
X2907666Y1412822D01*
X2904916Y1408060D01*
X2900154Y1410810D01*
X2902904Y1415572D01*
G37*
G36*
X2911131Y1410822D02*
X2915893Y1408072D01*
X2913143Y1403310D01*
X2908381Y1406060D01*
X2911131Y1410822D01*
G37*
G36*
X2915881Y1419049D02*
X2920643Y1416299D01*
X2917893Y1411537D01*
X2913131Y1414287D01*
X2915881Y1419049D01*
G37*
D13*
G36*
X3012776Y1341154D02*
X3006714Y1344654D01*
X3011714Y1353314D01*
X3017776Y1349814D01*
X3012776Y1341154D01*
G37*
G36*
X3000652Y1348154D02*
X2994590Y1351654D01*
X2999590Y1360314D01*
X3005652Y1356814D01*
X3000652Y1348154D01*
G37*
D12*
G36*
X2874431Y1545822D02*
X2879193Y1543072D01*
X2876443Y1538310D01*
X2871681Y1541060D01*
X2874431Y1545822D01*
G37*
G36*
X2869681Y1537595D02*
X2874443Y1534845D01*
X2871693Y1530083D01*
X2866931Y1532833D01*
X2869681Y1537595D01*
G37*
G36*
X2877908Y1532845D02*
X2882670Y1530095D01*
X2879920Y1525333D01*
X2875158Y1528083D01*
X2877908Y1532845D01*
G37*
G36*
X2882658Y1541072D02*
X2887420Y1538322D01*
X2884670Y1533560D01*
X2879908Y1536310D01*
X2882658Y1541072D01*
G37*
G36*
X2991328Y1324872D02*
X2992752Y1319560D01*
X2987440Y1318136D01*
X2986016Y1323448D01*
X2991328Y1324872D01*
G37*
G36*
X2982151Y1322414D02*
X2983575Y1317102D01*
X2978263Y1315678D01*
X2976839Y1320990D01*
X2982151Y1322414D01*
G37*
G36*
X2984610Y1313237D02*
X2986034Y1307925D01*
X2980722Y1306501D01*
X2979298Y1311813D01*
X2984610Y1313237D01*
G37*
G36*
X2993786Y1315696D02*
X2995210Y1310384D01*
X2989898Y1308960D01*
X2988474Y1314272D01*
X2993786Y1315696D01*
G37*
G36*
X3029888Y1391483D02*
X3031312Y1386171D01*
X3026000Y1384747D01*
X3024576Y1390059D01*
X3029888Y1391483D01*
G37*
G36*
X3020712Y1389024D02*
X3022136Y1383712D01*
X3016824Y1382288D01*
X3015400Y1387600D01*
X3020712Y1389024D01*
G37*
G36*
X3023171Y1379848D02*
X3024595Y1374536D01*
X3019283Y1373112D01*
X3017859Y1378424D01*
X3023171Y1379848D01*
G37*
G36*
X3032347Y1382307D02*
X3033771Y1376995D01*
X3028459Y1375571D01*
X3027035Y1380883D01*
X3032347Y1382307D01*
G37*
G36*
X3068263Y1458217D02*
X3069687Y1452905D01*
X3064375Y1451481D01*
X3062951Y1456793D01*
X3068263Y1458217D01*
G37*
G36*
X3059086Y1455758D02*
X3060510Y1450446D01*
X3055198Y1449022D01*
X3053774Y1454334D01*
X3059086Y1455758D01*
G37*
G36*
X3061545Y1446582D02*
X3062969Y1441270D01*
X3057657Y1439846D01*
X3056233Y1445158D01*
X3061545Y1446582D01*
G37*
G36*
X3070722Y1449040D02*
X3072146Y1443728D01*
X3066834Y1442304D01*
X3065410Y1447616D01*
X3070722Y1449040D01*
G37*
G36*
X3106787Y1524691D02*
X3108211Y1519379D01*
X3102899Y1517955D01*
X3101475Y1523267D01*
X3106787Y1524691D01*
G37*
G36*
X3097611Y1522232D02*
X3099035Y1516920D01*
X3093723Y1515496D01*
X3092299Y1520808D01*
X3097611Y1522232D01*
G37*
G36*
X3100070Y1513055D02*
X3101494Y1507743D01*
X3096182Y1506319D01*
X3094758Y1511631D01*
X3100070Y1513055D01*
G37*
G36*
X3109246Y1515514D02*
X3110670Y1510202D01*
X3105358Y1508778D01*
X3103934Y1514090D01*
X3109246Y1515514D01*
G37*
G36*
X3252569Y1547069D02*
X3249819Y1542307D01*
X3245057Y1545057D01*
X3247807Y1549819D01*
X3252569Y1547069D01*
G37*
G36*
X3244342Y1551819D02*
X3241592Y1547057D01*
X3236830Y1549807D01*
X3239580Y1554569D01*
X3244342Y1551819D01*
G37*
G36*
X3239592Y1543591D02*
X3236842Y1538829D01*
X3232080Y1541579D01*
X3234830Y1546341D01*
X3239592Y1543591D01*
G37*
G36*
X3247819Y1538841D02*
X3245069Y1534079D01*
X3240307Y1536829D01*
X3243057Y1541591D01*
X3247819Y1538841D01*
G37*
G36*
X3056443Y1665289D02*
X3061205Y1662539D01*
X3058455Y1657777D01*
X3053693Y1660527D01*
X3056443Y1665289D01*
G37*
G36*
X3051693Y1657061D02*
X3056455Y1654311D01*
X3053705Y1649549D01*
X3048943Y1652299D01*
X3051693Y1657061D01*
G37*
G36*
X3059921Y1652311D02*
X3064683Y1649561D01*
X3061933Y1644799D01*
X3057171Y1647549D01*
X3059921Y1652311D01*
G37*
G36*
X3064671Y1660539D02*
X3069433Y1657789D01*
X3066683Y1653027D01*
X3061921Y1655777D01*
X3064671Y1660539D01*
G37*
G36*
X3145119Y1591298D02*
X3146543Y1585986D01*
X3141231Y1584562D01*
X3139807Y1589874D01*
X3145119Y1591298D01*
G37*
G36*
X3135943Y1588839D02*
X3137367Y1583527D01*
X3132055Y1582103D01*
X3130631Y1587415D01*
X3135943Y1588839D01*
G37*
G36*
X3138401Y1579663D02*
X3139825Y1574351D01*
X3134513Y1572927D01*
X3133089Y1578239D01*
X3138401Y1579663D01*
G37*
G36*
X3147578Y1582122D02*
X3149002Y1576810D01*
X3143690Y1575386D01*
X3142266Y1580698D01*
X3147578Y1582122D01*
G37*
D13*
G36*
X3157421Y1590664D02*
X3151359Y1594164D01*
X3156359Y1602824D01*
X3162421Y1599324D01*
X3157421Y1590664D01*
G37*
G36*
X3145297Y1597664D02*
X3139235Y1601164D01*
X3144235Y1609824D01*
X3150297Y1606324D01*
X3145297Y1597664D01*
G37*
D12*
G36*
X3184546Y1658121D02*
X3185970Y1652809D01*
X3180658Y1651385D01*
X3179234Y1656697D01*
X3184546Y1658121D01*
G37*
G36*
X3175370Y1655662D02*
X3176794Y1650350D01*
X3171482Y1648926D01*
X3170058Y1654238D01*
X3175370Y1655662D01*
G37*
G36*
X3177829Y1646486D02*
X3179253Y1641174D01*
X3173941Y1639750D01*
X3172517Y1645062D01*
X3177829Y1646486D01*
G37*
G36*
X3187005Y1648944D02*
X3188429Y1643632D01*
X3183117Y1642208D01*
X3181693Y1647520D01*
X3187005Y1648944D01*
G37*
G36*
X2993210Y1039015D02*
X2987898Y1040439D01*
X2989322Y1045751D01*
X2994634Y1044327D01*
X2993210Y1039015D01*
G37*
G36*
X2995668Y1048191D02*
X2990356Y1049615D01*
X2991780Y1054927D01*
X2997092Y1053503D01*
X2995668Y1048191D01*
G37*
G36*
X2986492Y1050650D02*
X2981180Y1052074D01*
X2982604Y1057386D01*
X2987916Y1055962D01*
X2986492Y1050650D01*
G37*
G36*
X2984033Y1041473D02*
X2978721Y1042897D01*
X2980145Y1048209D01*
X2985457Y1046785D01*
X2984033Y1041473D01*
G37*
D16*
X2992675Y908235D03*
X2992675Y917735D03*
X2983175Y917735D03*
X2983175Y908235D03*
D12*
G36*
X3075411Y912946D02*
X3071522Y909057D01*
X3067633Y912946D01*
X3071522Y916835D01*
X3075411Y912946D01*
G37*
G36*
X3068694Y919663D02*
X3064805Y915774D01*
X3060916Y919663D01*
X3064805Y923552D01*
X3068694Y919663D01*
G37*
G36*
X3061976Y912946D02*
X3058087Y909057D01*
X3054198Y912946D01*
X3058087Y916835D01*
X3061976Y912946D01*
G37*
G36*
X3068694Y906228D02*
X3064805Y902339D01*
X3060916Y906228D01*
X3064805Y910117D01*
X3068694Y906228D01*
G37*
G36*
X3152342Y912993D02*
X3148453Y909104D01*
X3144564Y912993D01*
X3148453Y916882D01*
X3152342Y912993D01*
G37*
G36*
X3145624Y919710D02*
X3141735Y915821D01*
X3137846Y919710D01*
X3141735Y923599D01*
X3145624Y919710D01*
G37*
G36*
X3138907Y912993D02*
X3135018Y909104D01*
X3131129Y912993D01*
X3135018Y916882D01*
X3138907Y912993D01*
G37*
G36*
X3145624Y906275D02*
X3141735Y902386D01*
X3137846Y906275D01*
X3141735Y910164D01*
X3145624Y906275D01*
G37*
D16*
X3269112Y793145D03*
X3269112Y802645D03*
X3259612Y802645D03*
X3259612Y793145D03*
X3359604Y703988D03*
X3359604Y713488D03*
X3350104Y713488D03*
X3350104Y703988D03*
X3270320Y1032152D03*
X3260820Y1032152D03*
X3260820Y1022652D03*
X3270320Y1022652D03*
D17*
X3259057Y906040D03*
X3259057Y920040D03*
D16*
X3359384Y1121935D03*
X3349884Y1121935D03*
X3349884Y1112435D03*
X3359384Y1112435D03*
D12*
G36*
X3229234Y912974D02*
X3225345Y909085D01*
X3221456Y912974D01*
X3225345Y916863D01*
X3229234Y912974D01*
G37*
G36*
X3222516Y919691D02*
X3218627Y915802D01*
X3214738Y919691D01*
X3218627Y923580D01*
X3222516Y919691D01*
G37*
G36*
X3215799Y912974D02*
X3211910Y909085D01*
X3208021Y912974D01*
X3211910Y916863D01*
X3215799Y912974D01*
G37*
G36*
X3222516Y906256D02*
X3218627Y902367D01*
X3214738Y906256D01*
X3218627Y910145D01*
X3222516Y906256D01*
G37*
G36*
X3306201Y912884D02*
X3302312Y908995D01*
X3298423Y912884D01*
X3302312Y916773D01*
X3306201Y912884D01*
G37*
G36*
X3299483Y919602D02*
X3295594Y915713D01*
X3291705Y919602D01*
X3295594Y923491D01*
X3299483Y919602D01*
G37*
G36*
X3292766Y912884D02*
X3288877Y908995D01*
X3284988Y912884D01*
X3288877Y916773D01*
X3292766Y912884D01*
G37*
G36*
X3299483Y906167D02*
X3295594Y902278D01*
X3291705Y906167D01*
X3295594Y910056D01*
X3299483Y906167D01*
G37*
G36*
X3383181Y913018D02*
X3379292Y909129D01*
X3375403Y913018D01*
X3379292Y916907D01*
X3383181Y913018D01*
G37*
G36*
X3376463Y919735D02*
X3372574Y915846D01*
X3368685Y919735D01*
X3372574Y923624D01*
X3376463Y919735D01*
G37*
G36*
X3369746Y913018D02*
X3365857Y909129D01*
X3361968Y913018D01*
X3365857Y916907D01*
X3369746Y913018D01*
G37*
G36*
X3376463Y906300D02*
X3372574Y902411D01*
X3368685Y906300D01*
X3372574Y910189D01*
X3376463Y906300D01*
G37*
G36*
X3460011Y912892D02*
X3456122Y909003D01*
X3452233Y912892D01*
X3456122Y916781D01*
X3460011Y912892D01*
G37*
G36*
X3453294Y919609D02*
X3449405Y915720D01*
X3445516Y919609D01*
X3449405Y923498D01*
X3453294Y919609D01*
G37*
G36*
X3446576Y912892D02*
X3442687Y909003D01*
X3438798Y912892D01*
X3442687Y916781D01*
X3446576Y912892D01*
G37*
G36*
X3453294Y906174D02*
X3449405Y902285D01*
X3445516Y906174D01*
X3449405Y910063D01*
X3453294Y906174D01*
G37*
D16*
X3549533Y800580D03*
X3549533Y810080D03*
X3540033Y810080D03*
X3540033Y800580D03*
X3553851Y1024041D03*
X3544351Y1024041D03*
X3544351Y1014541D03*
X3553851Y1014541D03*
D12*
G36*
X3536861Y912999D02*
X3532972Y909110D01*
X3529083Y912999D01*
X3532972Y916888D01*
X3536861Y912999D01*
G37*
G36*
X3530143Y919717D02*
X3526254Y915828D01*
X3522365Y919717D01*
X3526254Y923606D01*
X3530143Y919717D01*
G37*
G36*
X3523426Y912999D02*
X3519537Y909110D01*
X3515648Y912999D01*
X3519537Y916888D01*
X3523426Y912999D01*
G37*
G36*
X3530143Y906282D02*
X3526254Y902393D01*
X3522365Y906282D01*
X3526254Y910171D01*
X3530143Y906282D01*
G37*
D17*
X3547463Y905528D03*
X3547463Y919528D03*
D12*
G36*
X3614444Y912265D02*
X3610555Y908376D01*
X3606666Y912265D01*
X3610555Y916154D01*
X3614444Y912265D01*
G37*
G36*
X3607727Y918983D02*
X3603838Y915094D01*
X3599949Y918983D01*
X3603838Y922872D01*
X3607727Y918983D01*
G37*
G36*
X3601009Y912265D02*
X3597120Y908376D01*
X3593231Y912265D01*
X3597120Y916154D01*
X3601009Y912265D01*
G37*
G36*
X3607727Y905548D02*
X3603838Y901659D01*
X3599949Y905548D01*
X3603838Y909437D01*
X3607727Y905548D01*
G37*
G36*
X2982615Y768415D02*
X2981191Y773727D01*
X2986503Y775151D01*
X2987927Y769839D01*
X2982615Y768415D01*
G37*
G36*
X2991792Y770873D02*
X2990368Y776185D01*
X2995680Y777609D01*
X2997104Y772297D01*
X2991792Y770873D01*
G37*
G36*
X2989333Y780050D02*
X2987909Y785362D01*
X2993221Y786786D01*
X2994645Y781474D01*
X2989333Y780050D01*
G37*
G36*
X2980157Y777591D02*
X2978733Y782903D01*
X2984045Y784327D01*
X2985469Y779015D01*
X2980157Y777591D01*
G37*
G36*
X2868083Y699733D02*
X2865333Y704495D01*
X2870095Y707245D01*
X2872845Y702483D01*
X2868083Y699733D01*
G37*
G36*
X2876310Y704483D02*
X2873560Y709245D01*
X2878322Y711995D01*
X2881072Y707233D01*
X2876310Y704483D01*
G37*
G36*
X2871560Y712710D02*
X2868810Y717472D01*
X2873572Y720222D01*
X2876322Y715460D01*
X2871560Y712710D01*
G37*
G36*
X2863333Y707960D02*
X2860583Y712722D01*
X2865345Y715472D01*
X2868095Y710710D01*
X2863333Y707960D01*
G37*
G36*
X2914536Y634192D02*
X2909224Y635616D01*
X2910648Y640928D01*
X2915960Y639504D01*
X2914536Y634192D01*
G37*
G36*
X2916995Y643368D02*
X2911683Y644792D01*
X2913107Y650104D01*
X2918419Y648680D01*
X2916995Y643368D01*
G37*
G36*
X2907818Y645827D02*
X2902506Y647251D01*
X2903930Y652563D01*
X2909242Y651139D01*
X2907818Y645827D01*
G37*
G36*
X2905360Y636651D02*
X2900048Y638075D01*
X2901472Y643387D01*
X2906784Y641963D01*
X2905360Y636651D01*
G37*
G36*
X2953042Y567592D02*
X2947730Y569016D01*
X2949154Y574328D01*
X2954466Y572904D01*
X2953042Y567592D01*
G37*
G36*
X2955501Y576768D02*
X2950189Y578192D01*
X2951613Y583504D01*
X2956925Y582080D01*
X2955501Y576768D01*
G37*
G36*
X2946324Y579227D02*
X2941012Y580651D01*
X2942436Y585963D01*
X2947748Y584539D01*
X2946324Y579227D01*
G37*
G36*
X2943866Y570050D02*
X2938554Y571474D01*
X2939978Y576786D01*
X2945290Y575362D01*
X2943866Y570050D01*
G37*
G36*
X2906630Y402786D02*
X2903880Y407548D01*
X2908642Y410298D01*
X2911392Y405536D01*
X2906630Y402786D01*
G37*
G36*
X2914858Y407536D02*
X2912108Y412298D01*
X2916870Y415048D01*
X2919620Y410286D01*
X2914858Y407536D01*
G37*
G36*
X2910108Y415763D02*
X2907358Y420525D01*
X2912120Y423275D01*
X2914870Y418513D01*
X2910108Y415763D01*
G37*
G36*
X2901880Y411013D02*
X2899130Y415775D01*
X2903892Y418525D01*
X2906642Y413763D01*
X2901880Y411013D01*
G37*
G36*
X2874665Y279839D02*
X2871915Y284601D01*
X2876677Y287351D01*
X2879427Y282589D01*
X2874665Y279839D01*
G37*
G36*
X2882892Y284589D02*
X2880142Y289351D01*
X2884904Y292101D01*
X2887654Y287339D01*
X2882892Y284589D01*
G37*
G36*
X2878142Y292816D02*
X2875392Y297578D01*
X2880154Y300328D01*
X2882904Y295566D01*
X2878142Y292816D01*
G37*
G36*
X2869915Y288066D02*
X2867165Y292828D01*
X2871927Y295578D01*
X2874677Y290816D01*
X2869915Y288066D01*
G37*
G36*
X3118982Y523993D02*
X3114220Y521243D01*
X3111470Y526005D01*
X3116232Y528755D01*
X3118982Y523993D01*
G37*
G36*
X3114232Y532220D02*
X3109470Y529470D01*
X3106720Y534232D01*
X3111482Y536982D01*
X3114232Y532220D01*
G37*
G36*
X3106005Y527470D02*
X3101243Y524720D01*
X3098493Y529482D01*
X3103255Y532232D01*
X3106005Y527470D01*
G37*
G36*
X3110755Y519243D02*
X3105993Y516493D01*
X3103243Y521255D01*
X3108005Y524005D01*
X3110755Y519243D01*
G37*
D13*
G36*
X2994848Y474277D02*
X3000910Y477777D01*
X3005910Y469117D01*
X2999848Y465617D01*
X2994848Y474277D01*
G37*
G36*
X3006972Y481277D02*
X3013034Y484777D01*
X3018034Y476117D01*
X3011972Y472617D01*
X3006972Y481277D01*
G37*
D12*
G36*
X3241269Y491753D02*
X3236507Y489003D01*
X3233757Y493765D01*
X3238519Y496515D01*
X3241269Y491753D01*
G37*
G36*
X3236519Y499980D02*
X3231757Y497230D01*
X3229007Y501992D01*
X3233769Y504742D01*
X3236519Y499980D01*
G37*
G36*
X3228292Y495230D02*
X3223530Y492480D01*
X3220780Y497242D01*
X3225542Y499992D01*
X3228292Y495230D01*
G37*
G36*
X3233042Y487003D02*
X3228280Y484253D01*
X3225530Y489015D01*
X3230292Y491765D01*
X3233042Y487003D01*
G37*
G36*
X2991471Y500992D02*
X2986159Y502416D01*
X2987583Y507728D01*
X2992895Y506304D01*
X2991471Y500992D01*
G37*
G36*
X2993930Y510168D02*
X2988618Y511592D01*
X2990042Y516904D01*
X2995354Y515480D01*
X2993930Y510168D01*
G37*
G36*
X2984754Y512627D02*
X2979442Y514051D01*
X2980866Y519363D01*
X2986178Y517939D01*
X2984754Y512627D01*
G37*
G36*
X2982295Y503450D02*
X2976983Y504874D01*
X2978407Y510186D01*
X2983719Y508762D01*
X2982295Y503450D01*
G37*
G36*
X3029877Y434292D02*
X3024565Y435716D01*
X3025989Y441028D01*
X3031301Y439604D01*
X3029877Y434292D01*
G37*
G36*
X3032336Y443468D02*
X3027024Y444892D01*
X3028448Y450204D01*
X3033760Y448780D01*
X3032336Y443468D01*
G37*
G36*
X3023160Y445927D02*
X3017848Y447351D01*
X3019272Y452663D01*
X3024584Y451239D01*
X3023160Y445927D01*
G37*
G36*
X3020701Y436750D02*
X3015389Y438174D01*
X3016813Y443486D01*
X3022125Y442062D01*
X3020701Y436750D01*
G37*
G36*
X3068483Y367692D02*
X3063171Y369116D01*
X3064595Y374428D01*
X3069907Y373004D01*
X3068483Y367692D01*
G37*
G36*
X3070942Y376868D02*
X3065630Y378292D01*
X3067054Y383604D01*
X3072366Y382180D01*
X3070942Y376868D01*
G37*
G36*
X3061766Y379327D02*
X3056454Y380751D01*
X3057878Y386063D01*
X3063190Y384639D01*
X3061766Y379327D01*
G37*
G36*
X3059307Y370150D02*
X3053995Y371574D01*
X3055419Y376886D01*
X3060731Y375462D01*
X3059307Y370150D01*
G37*
G36*
X3106789Y301092D02*
X3101477Y302516D01*
X3102901Y307828D01*
X3108213Y306404D01*
X3106789Y301092D01*
G37*
G36*
X3109248Y310268D02*
X3103936Y311692D01*
X3105360Y317004D01*
X3110672Y315580D01*
X3109248Y310268D01*
G37*
G36*
X3100072Y312727D02*
X3094760Y314151D01*
X3096184Y319463D01*
X3101496Y318039D01*
X3100072Y312727D01*
G37*
G36*
X3097613Y303551D02*
X3092301Y304975D01*
X3093725Y310287D01*
X3099037Y308863D01*
X3097613Y303551D01*
G37*
G36*
X3053280Y163652D02*
X3050530Y168414D01*
X3055292Y171164D01*
X3058042Y166402D01*
X3053280Y163652D01*
G37*
G36*
X3061507Y168402D02*
X3058757Y173164D01*
X3063519Y175914D01*
X3066269Y171152D01*
X3061507Y168402D01*
G37*
G36*
X3056757Y176629D02*
X3054007Y181391D01*
X3058769Y184141D01*
X3061519Y179379D01*
X3056757Y176629D01*
G37*
G36*
X3048530Y171879D02*
X3045780Y176641D01*
X3050542Y179391D01*
X3053292Y174629D01*
X3048530Y171879D01*
G37*
G36*
X3253724Y274393D02*
X3248962Y271643D01*
X3246212Y276405D01*
X3250974Y279155D01*
X3253724Y274393D01*
G37*
G36*
X3248974Y282620D02*
X3244212Y279870D01*
X3241462Y284632D01*
X3246224Y287382D01*
X3248974Y282620D01*
G37*
G36*
X3240746Y277870D02*
X3235984Y275120D01*
X3233234Y279882D01*
X3237996Y282632D01*
X3240746Y277870D01*
G37*
G36*
X3245496Y269643D02*
X3240734Y266893D01*
X3237984Y271655D01*
X3242746Y274405D01*
X3245496Y269643D01*
G37*
G36*
X3145307Y234592D02*
X3139995Y236016D01*
X3141419Y241328D01*
X3146731Y239904D01*
X3145307Y234592D01*
G37*
G36*
X3147766Y243768D02*
X3142454Y245192D01*
X3143878Y250504D01*
X3149190Y249080D01*
X3147766Y243768D01*
G37*
G36*
X3138589Y246227D02*
X3133277Y247651D01*
X3134701Y252963D01*
X3140013Y251539D01*
X3138589Y246227D01*
G37*
G36*
X3136130Y237050D02*
X3130818Y238474D01*
X3132242Y243786D01*
X3137554Y242362D01*
X3136130Y237050D01*
G37*
D13*
G36*
X3138607Y224255D02*
X3144669Y227755D01*
X3149669Y219095D01*
X3143607Y215595D01*
X3138607Y224255D01*
G37*
G36*
X3150732Y231255D02*
X3156794Y234755D01*
X3161794Y226095D01*
X3155732Y222595D01*
X3150732Y231255D01*
G37*
D12*
G36*
X3183463Y167035D02*
X3178151Y168459D01*
X3179575Y173771D01*
X3184887Y172347D01*
X3183463Y167035D01*
G37*
G36*
X3185922Y176212D02*
X3180610Y177636D01*
X3182034Y182948D01*
X3187346Y181524D01*
X3185922Y176212D01*
G37*
G36*
X3176746Y178670D02*
X3171434Y180094D01*
X3172858Y185406D01*
X3178170Y183982D01*
X3176746Y178670D01*
G37*
G36*
X3174287Y169494D02*
X3168975Y170918D01*
X3170399Y176230D01*
X3175711Y174806D01*
X3174287Y169494D01*
G37*
G36*
X2742971Y642291D02*
X2746860Y646180D01*
X2750749Y642291D01*
X2746860Y638402D01*
X2742971Y642291D01*
G37*
G36*
X2749688Y635573D02*
X2753577Y639462D01*
X2757466Y635573D01*
X2753577Y631684D01*
X2749688Y635573D01*
G37*
G36*
X2756406Y642291D02*
X2760295Y646180D01*
X2764184Y642291D01*
X2760295Y638402D01*
X2756406Y642291D01*
G37*
G36*
X2749688Y649008D02*
X2753577Y652897D01*
X2757466Y649008D01*
X2753577Y645119D01*
X2749688Y649008D01*
G37*
D11*
X1410294Y87091D02*
X1397794Y108741D01*
X1365318Y89991D02*
X1377818Y68341D01*
D12*
G36*
X1026932Y699646D02*
X1024182Y704408D01*
X1028944Y707158D01*
X1031694Y702396D01*
X1026932Y699646D01*
G37*
G36*
X1035159Y704396D02*
X1032409Y709158D01*
X1037171Y711908D01*
X1039921Y707146D01*
X1035159Y704396D01*
G37*
G36*
X1030409Y712623D02*
X1027659Y717385D01*
X1032421Y720135D01*
X1035171Y715373D01*
X1030409Y712623D01*
G37*
G36*
X1022182Y707873D02*
X1019432Y712635D01*
X1024194Y715385D01*
X1026944Y710623D01*
X1022182Y707873D01*
G37*
G36*
X1073385Y634105D02*
X1068073Y635529D01*
X1069497Y640841D01*
X1074809Y639417D01*
X1073385Y634105D01*
G37*
G36*
X1075844Y643281D02*
X1070532Y644705D01*
X1071956Y650017D01*
X1077268Y648593D01*
X1075844Y643281D01*
G37*
G36*
X1066667Y645740D02*
X1061355Y647164D01*
X1062779Y652476D01*
X1068091Y651052D01*
X1066667Y645740D01*
G37*
G36*
X1064209Y636564D02*
X1058897Y637988D01*
X1060321Y643300D01*
X1065633Y641876D01*
X1064209Y636564D01*
G37*
G36*
X1111891Y567505D02*
X1106579Y568929D01*
X1108003Y574241D01*
X1113315Y572817D01*
X1111891Y567505D01*
G37*
G36*
X1114350Y576681D02*
X1109038Y578105D01*
X1110462Y583417D01*
X1115774Y581993D01*
X1114350Y576681D01*
G37*
G36*
X1105173Y579140D02*
X1099861Y580564D01*
X1101285Y585876D01*
X1106597Y584452D01*
X1105173Y579140D01*
G37*
G36*
X1102715Y569964D02*
X1097403Y571388D01*
X1098827Y576700D01*
X1104139Y575276D01*
X1102715Y569964D01*
G37*
G36*
X1065480Y402699D02*
X1062730Y407461D01*
X1067492Y410211D01*
X1070242Y405449D01*
X1065480Y402699D01*
G37*
G36*
X1073707Y407449D02*
X1070957Y412211D01*
X1075719Y414961D01*
X1078469Y410199D01*
X1073707Y407449D01*
G37*
G36*
X1068957Y415676D02*
X1066207Y420438D01*
X1070969Y423188D01*
X1073719Y418426D01*
X1068957Y415676D01*
G37*
G36*
X1060730Y410926D02*
X1057980Y415688D01*
X1062742Y418438D01*
X1065492Y413676D01*
X1060730Y410926D01*
G37*
G36*
X1033514Y279752D02*
X1030764Y284514D01*
X1035526Y287264D01*
X1038276Y282502D01*
X1033514Y279752D01*
G37*
G36*
X1041741Y284502D02*
X1038991Y289264D01*
X1043753Y292014D01*
X1046503Y287252D01*
X1041741Y284502D01*
G37*
G36*
X1036991Y292730D02*
X1034241Y297492D01*
X1039003Y300242D01*
X1041753Y295480D01*
X1036991Y292730D01*
G37*
G36*
X1028764Y287980D02*
X1026014Y292742D01*
X1030776Y295492D01*
X1033526Y290730D01*
X1028764Y287980D01*
G37*
G36*
X1277831Y523906D02*
X1273069Y521156D01*
X1270319Y525918D01*
X1275081Y528668D01*
X1277831Y523906D01*
G37*
G36*
X1273081Y532134D02*
X1268319Y529384D01*
X1265569Y534146D01*
X1270331Y536896D01*
X1273081Y532134D01*
G37*
G36*
X1264854Y527384D02*
X1260092Y524634D01*
X1257342Y529396D01*
X1262104Y532146D01*
X1264854Y527384D01*
G37*
G36*
X1269604Y519156D02*
X1264842Y516406D01*
X1262092Y521168D01*
X1266854Y523918D01*
X1269604Y519156D01*
G37*
D13*
G36*
X1153697Y474190D02*
X1159759Y477690D01*
X1164759Y469030D01*
X1158697Y465530D01*
X1153697Y474190D01*
G37*
G36*
X1165821Y481190D02*
X1171883Y484690D01*
X1176883Y476030D01*
X1170821Y472530D01*
X1165821Y481190D01*
G37*
D12*
G36*
X1400118Y491667D02*
X1395356Y488917D01*
X1392606Y493679D01*
X1397368Y496429D01*
X1400118Y491667D01*
G37*
G36*
X1395368Y499894D02*
X1390606Y497144D01*
X1387856Y501906D01*
X1392618Y504656D01*
X1395368Y499894D01*
G37*
G36*
X1387141Y495144D02*
X1382379Y492394D01*
X1379629Y497156D01*
X1384391Y499906D01*
X1387141Y495144D01*
G37*
G36*
X1391891Y486917D02*
X1387129Y484167D01*
X1384379Y488929D01*
X1389141Y491679D01*
X1391891Y486917D01*
G37*
G36*
X1150320Y500905D02*
X1145008Y502329D01*
X1146432Y507641D01*
X1151744Y506217D01*
X1150320Y500905D01*
G37*
G36*
X1152779Y510081D02*
X1147467Y511505D01*
X1148891Y516817D01*
X1154203Y515393D01*
X1152779Y510081D01*
G37*
G36*
X1143603Y512540D02*
X1138291Y513964D01*
X1139715Y519276D01*
X1145027Y517852D01*
X1143603Y512540D01*
G37*
G36*
X1141144Y503364D02*
X1135832Y504788D01*
X1137256Y510100D01*
X1142568Y508676D01*
X1141144Y503364D01*
G37*
G36*
X1188726Y434205D02*
X1183414Y435629D01*
X1184838Y440941D01*
X1190150Y439517D01*
X1188726Y434205D01*
G37*
G36*
X1191185Y443381D02*
X1185873Y444805D01*
X1187297Y450117D01*
X1192609Y448693D01*
X1191185Y443381D01*
G37*
G36*
X1182009Y445840D02*
X1176697Y447264D01*
X1178121Y452576D01*
X1183433Y451152D01*
X1182009Y445840D01*
G37*
G36*
X1179550Y436664D02*
X1174238Y438088D01*
X1175662Y443400D01*
X1180974Y441976D01*
X1179550Y436664D01*
G37*
G36*
X1227332Y367605D02*
X1222020Y369029D01*
X1223444Y374341D01*
X1228756Y372917D01*
X1227332Y367605D01*
G37*
G36*
X1229791Y376781D02*
X1224479Y378205D01*
X1225903Y383517D01*
X1231215Y382093D01*
X1229791Y376781D01*
G37*
G36*
X1220615Y379240D02*
X1215303Y380664D01*
X1216727Y385976D01*
X1222039Y384552D01*
X1220615Y379240D01*
G37*
G36*
X1218156Y370064D02*
X1212844Y371488D01*
X1214268Y376800D01*
X1219580Y375376D01*
X1218156Y370064D01*
G37*
G36*
X1265638Y301005D02*
X1260326Y302429D01*
X1261750Y307741D01*
X1267062Y306317D01*
X1265638Y301005D01*
G37*
G36*
X1268097Y310181D02*
X1262785Y311605D01*
X1264209Y316917D01*
X1269521Y315493D01*
X1268097Y310181D01*
G37*
G36*
X1258921Y312640D02*
X1253609Y314064D01*
X1255033Y319376D01*
X1260345Y317952D01*
X1258921Y312640D01*
G37*
G36*
X1256462Y303464D02*
X1251150Y304888D01*
X1252574Y310200D01*
X1257886Y308776D01*
X1256462Y303464D01*
G37*
G36*
X1212129Y163565D02*
X1209379Y168327D01*
X1214141Y171077D01*
X1216891Y166315D01*
X1212129Y163565D01*
G37*
G36*
X1220356Y168315D02*
X1217606Y173077D01*
X1222368Y175827D01*
X1225118Y171065D01*
X1220356Y168315D01*
G37*
G36*
X1215606Y176543D02*
X1212856Y181305D01*
X1217618Y184055D01*
X1220368Y179293D01*
X1215606Y176543D01*
G37*
G36*
X1207379Y171793D02*
X1204629Y176555D01*
X1209391Y179305D01*
X1212141Y174543D01*
X1207379Y171793D01*
G37*
G36*
X1412573Y274306D02*
X1407811Y271556D01*
X1405061Y276318D01*
X1409823Y279068D01*
X1412573Y274306D01*
G37*
G36*
X1407823Y282534D02*
X1403061Y279784D01*
X1400311Y284546D01*
X1405073Y287296D01*
X1407823Y282534D01*
G37*
G36*
X1399595Y277784D02*
X1394833Y275034D01*
X1392083Y279796D01*
X1396845Y282546D01*
X1399595Y277784D01*
G37*
G36*
X1404345Y269556D02*
X1399583Y266806D01*
X1396833Y271568D01*
X1401595Y274318D01*
X1404345Y269556D01*
G37*
G36*
X1304156Y234505D02*
X1298844Y235929D01*
X1300268Y241241D01*
X1305580Y239817D01*
X1304156Y234505D01*
G37*
G36*
X1306615Y243681D02*
X1301303Y245105D01*
X1302727Y250417D01*
X1308039Y248993D01*
X1306615Y243681D01*
G37*
G36*
X1297438Y246140D02*
X1292126Y247564D01*
X1293550Y252876D01*
X1298862Y251452D01*
X1297438Y246140D01*
G37*
G36*
X1294980Y236964D02*
X1289668Y238388D01*
X1291092Y243700D01*
X1296404Y242276D01*
X1294980Y236964D01*
G37*
D13*
G36*
X1297456Y224168D02*
X1303518Y227668D01*
X1308518Y219008D01*
X1302456Y215508D01*
X1297456Y224168D01*
G37*
G36*
X1309581Y231168D02*
X1315643Y234668D01*
X1320643Y226008D01*
X1314581Y222508D01*
X1309581Y231168D01*
G37*
D12*
G36*
X1342312Y166949D02*
X1337000Y168373D01*
X1338424Y173685D01*
X1343736Y172261D01*
X1342312Y166949D01*
G37*
G36*
X1344771Y176125D02*
X1339459Y177549D01*
X1340883Y182861D01*
X1346195Y181437D01*
X1344771Y176125D01*
G37*
G36*
X1335595Y178584D02*
X1330283Y180008D01*
X1331707Y185320D01*
X1337019Y183896D01*
X1335595Y178584D01*
G37*
G36*
X1333136Y169408D02*
X1327824Y170832D01*
X1329248Y176144D01*
X1334560Y174720D01*
X1333136Y169408D01*
G37*
G36*
X901820Y642204D02*
X905709Y646093D01*
X909598Y642204D01*
X905709Y638315D01*
X901820Y642204D01*
G37*
G36*
X908537Y635486D02*
X912426Y639375D01*
X916315Y635486D01*
X912426Y631597D01*
X908537Y635486D01*
G37*
G36*
X915255Y642204D02*
X919144Y646093D01*
X923033Y642204D01*
X919144Y638315D01*
X915255Y642204D01*
G37*
G36*
X908537Y648921D02*
X912426Y652810D01*
X916315Y648921D01*
X912426Y645032D01*
X908537Y648921D01*
G37*
G36*
X785073Y707052D02*
X787823Y711814D01*
X792585Y709064D01*
X789835Y704302D01*
X785073Y707052D01*
G37*
G36*
X793300Y702302D02*
X796050Y707064D01*
X800812Y704314D01*
X798062Y699552D01*
X793300Y702302D01*
G37*
G36*
X798050Y710529D02*
X800800Y715291D01*
X805562Y712541D01*
X802812Y707779D01*
X798050Y710529D01*
G37*
G36*
X789823Y715279D02*
X792573Y720041D01*
X797335Y717291D01*
X794585Y712529D01*
X789823Y715279D01*
G37*
G36*
X751540Y634050D02*
X750116Y639362D01*
X755428Y640786D01*
X756852Y635474D01*
X751540Y634050D01*
G37*
G36*
X760717Y636509D02*
X759293Y641821D01*
X764605Y643245D01*
X766029Y637933D01*
X760717Y636509D01*
G37*
G36*
X758258Y645685D02*
X756834Y650997D01*
X762146Y652421D01*
X763570Y647109D01*
X758258Y645685D01*
G37*
G36*
X749082Y643226D02*
X747658Y648538D01*
X752970Y649962D01*
X754394Y644650D01*
X749082Y643226D01*
G37*
G36*
X713116Y567403D02*
X711692Y572715D01*
X717004Y574139D01*
X718428Y568827D01*
X713116Y567403D01*
G37*
G36*
X722292Y569862D02*
X720868Y575174D01*
X726180Y576598D01*
X727604Y571286D01*
X722292Y569862D01*
G37*
G36*
X719834Y579038D02*
X718410Y584350D01*
X723722Y585774D01*
X725146Y580462D01*
X719834Y579038D01*
G37*
G36*
X710657Y576579D02*
X709233Y581891D01*
X714545Y583315D01*
X715969Y578003D01*
X710657Y576579D01*
G37*
G36*
X547183Y525195D02*
X549933Y529957D01*
X554695Y527207D01*
X551945Y522445D01*
X547183Y525195D01*
G37*
G36*
X555411Y520445D02*
X558161Y525207D01*
X562923Y522457D01*
X560173Y517695D01*
X555411Y520445D01*
G37*
G36*
X560161Y528672D02*
X562911Y533434D01*
X567673Y530684D01*
X564923Y525922D01*
X560161Y528672D01*
G37*
G36*
X551933Y533422D02*
X554683Y538184D01*
X559445Y535434D01*
X556695Y530672D01*
X551933Y533422D01*
G37*
G36*
X424725Y491405D02*
X427475Y496167D01*
X432237Y493417D01*
X429487Y488655D01*
X424725Y491405D01*
G37*
G36*
X432953Y486655D02*
X435703Y491417D01*
X440465Y488667D01*
X437715Y483905D01*
X432953Y486655D01*
G37*
G36*
X437703Y494882D02*
X440453Y499644D01*
X445215Y496894D01*
X442465Y492132D01*
X437703Y494882D01*
G37*
G36*
X429475Y499632D02*
X432225Y504394D01*
X436987Y501644D01*
X434237Y496882D01*
X429475Y499632D01*
G37*
G36*
X758327Y401895D02*
X753565Y404645D01*
X756315Y409407D01*
X761077Y406657D01*
X758327Y401895D01*
G37*
G36*
X763077Y410123D02*
X758315Y412873D01*
X761065Y417635D01*
X765827Y414885D01*
X763077Y410123D01*
G37*
G36*
X754850Y414873D02*
X750088Y417623D01*
X752838Y422385D01*
X757600Y419635D01*
X754850Y414873D01*
G37*
G36*
X750100Y406645D02*
X745338Y409395D01*
X748088Y414157D01*
X752850Y411407D01*
X750100Y406645D01*
G37*
D13*
G36*
X653205Y484541D02*
X659267Y481041D01*
X654267Y472381D01*
X648205Y475881D01*
X653205Y484541D01*
G37*
G36*
X665330Y477541D02*
X671392Y474041D01*
X666392Y465381D01*
X660330Y468881D01*
X665330Y477541D01*
G37*
D12*
G36*
X791550Y279872D02*
X786788Y282622D01*
X789538Y287384D01*
X794300Y284634D01*
X791550Y279872D01*
G37*
G36*
X796300Y288099D02*
X791538Y290849D01*
X794288Y295611D01*
X799050Y292861D01*
X796300Y288099D01*
G37*
G36*
X788073Y292849D02*
X783311Y295599D01*
X786061Y300361D01*
X790823Y297611D01*
X788073Y292849D01*
G37*
G36*
X783323Y284622D02*
X778561Y287372D01*
X781311Y292134D01*
X786073Y289384D01*
X783323Y284622D01*
G37*
G36*
X674654Y500822D02*
X673230Y506134D01*
X678542Y507558D01*
X679966Y502246D01*
X674654Y500822D01*
G37*
G36*
X683830Y503281D02*
X682406Y508593D01*
X687718Y510017D01*
X689142Y504705D01*
X683830Y503281D01*
G37*
G36*
X681371Y512457D02*
X679947Y517769D01*
X685259Y519193D01*
X686683Y513881D01*
X681371Y512457D01*
G37*
G36*
X672195Y509998D02*
X670771Y515310D01*
X676083Y516734D01*
X677507Y511422D01*
X672195Y509998D01*
G37*
G36*
X636093Y434212D02*
X634669Y439524D01*
X639981Y440948D01*
X641405Y435636D01*
X636093Y434212D01*
G37*
G36*
X645269Y436670D02*
X643845Y441982D01*
X649157Y443406D01*
X650581Y438094D01*
X645269Y436670D01*
G37*
G36*
X642810Y445847D02*
X641386Y451159D01*
X646698Y452583D01*
X648122Y447271D01*
X642810Y445847D01*
G37*
G36*
X633634Y443388D02*
X632210Y448700D01*
X637522Y450124D01*
X638946Y444812D01*
X633634Y443388D01*
G37*
G36*
X597718Y367478D02*
X596294Y372790D01*
X601606Y374214D01*
X603030Y368902D01*
X597718Y367478D01*
G37*
G36*
X606895Y369937D02*
X605471Y375249D01*
X610783Y376673D01*
X612207Y371361D01*
X606895Y369937D01*
G37*
G36*
X604436Y379113D02*
X603012Y384425D01*
X608324Y385849D01*
X609748Y380537D01*
X604436Y379113D01*
G37*
G36*
X595260Y376654D02*
X593836Y381966D01*
X599148Y383390D01*
X600572Y378078D01*
X595260Y376654D01*
G37*
G36*
X559194Y301004D02*
X557770Y306316D01*
X563082Y307740D01*
X564506Y302428D01*
X559194Y301004D01*
G37*
G36*
X568370Y303463D02*
X566946Y308775D01*
X572258Y310199D01*
X573682Y304887D01*
X568370Y303463D01*
G37*
G36*
X565912Y312639D02*
X564488Y317951D01*
X569800Y319375D01*
X571224Y314063D01*
X565912Y312639D01*
G37*
G36*
X556735Y310180D02*
X555311Y315492D01*
X560623Y316916D01*
X562047Y311604D01*
X556735Y310180D01*
G37*
G36*
X413412Y278626D02*
X416162Y283388D01*
X420924Y280638D01*
X418174Y275876D01*
X413412Y278626D01*
G37*
G36*
X421639Y273876D02*
X424389Y278638D01*
X429151Y275888D01*
X426401Y271126D01*
X421639Y273876D01*
G37*
G36*
X426389Y282103D02*
X429139Y286865D01*
X433901Y284115D01*
X431151Y279353D01*
X426389Y282103D01*
G37*
G36*
X418162Y286853D02*
X420912Y291615D01*
X425674Y288865D01*
X422924Y284103D01*
X418162Y286853D01*
G37*
G36*
X609538Y160406D02*
X604776Y163156D01*
X607526Y167918D01*
X612288Y165168D01*
X609538Y160406D01*
G37*
G36*
X614288Y168633D02*
X609526Y171383D01*
X612276Y176145D01*
X617038Y173395D01*
X614288Y168633D01*
G37*
G36*
X606061Y173383D02*
X601299Y176133D01*
X604049Y180895D01*
X608811Y178145D01*
X606061Y173383D01*
G37*
G36*
X601311Y165156D02*
X596549Y167906D01*
X599299Y172668D01*
X604061Y169918D01*
X601311Y165156D01*
G37*
G36*
X520862Y234397D02*
X519438Y239709D01*
X524750Y241133D01*
X526174Y235821D01*
X520862Y234397D01*
G37*
G36*
X530038Y236855D02*
X528614Y242167D01*
X533926Y243591D01*
X535350Y238279D01*
X530038Y236855D01*
G37*
G36*
X527580Y246032D02*
X526156Y251344D01*
X531468Y252768D01*
X532892Y247456D01*
X527580Y246032D01*
G37*
G36*
X518403Y243573D02*
X516979Y248885D01*
X522291Y250309D01*
X523715Y244997D01*
X518403Y243573D01*
G37*
D13*
G36*
X508560Y235031D02*
X514622Y231531D01*
X509622Y222871D01*
X503560Y226371D01*
X508560Y235031D01*
G37*
G36*
X520684Y228031D02*
X526746Y224531D01*
X521746Y215871D01*
X515684Y219371D01*
X520684Y228031D01*
G37*
D12*
G36*
X481435Y167574D02*
X480011Y172886D01*
X485323Y174310D01*
X486747Y168998D01*
X481435Y167574D01*
G37*
G36*
X490611Y170033D02*
X489187Y175345D01*
X494499Y176769D01*
X495923Y171457D01*
X490611Y170033D01*
G37*
G36*
X488152Y179209D02*
X486728Y184521D01*
X492040Y185945D01*
X493464Y180633D01*
X488152Y179209D01*
G37*
G36*
X478976Y176750D02*
X477552Y182062D01*
X482864Y183486D01*
X484288Y178174D01*
X478976Y176750D01*
G37*
G36*
X672771Y786680D02*
X678083Y785256D01*
X676659Y779944D01*
X671347Y781368D01*
X672771Y786680D01*
G37*
G36*
X670313Y777504D02*
X675625Y776080D01*
X674201Y770768D01*
X668889Y772192D01*
X670313Y777504D01*
G37*
G36*
X679489Y775045D02*
X684801Y773621D01*
X683377Y768309D01*
X678065Y769733D01*
X679489Y775045D01*
G37*
G36*
X681948Y784221D02*
X687260Y782797D01*
X685836Y777485D01*
X680524Y778909D01*
X681948Y784221D01*
G37*
D16*
X673306Y917460D03*
X673306Y907960D03*
X682806Y907960D03*
X682806Y917460D03*
D12*
G36*
X590570Y912749D02*
X594459Y916638D01*
X598348Y912749D01*
X594459Y908860D01*
X590570Y912749D01*
G37*
G36*
X597287Y906031D02*
X601176Y909920D01*
X605065Y906031D01*
X601176Y902142D01*
X597287Y906031D01*
G37*
G36*
X604005Y912749D02*
X607894Y916638D01*
X611783Y912749D01*
X607894Y908860D01*
X604005Y912749D01*
G37*
G36*
X597287Y919466D02*
X601176Y923355D01*
X605065Y919466D01*
X601176Y915577D01*
X597287Y919466D01*
G37*
G36*
X513639Y912702D02*
X517528Y916591D01*
X521417Y912702D01*
X517528Y908813D01*
X513639Y912702D01*
G37*
G36*
X520357Y905984D02*
X524246Y909873D01*
X528135Y905984D01*
X524246Y902095D01*
X520357Y905984D01*
G37*
G36*
X527074Y912702D02*
X530963Y916591D01*
X534852Y912702D01*
X530963Y908813D01*
X527074Y912702D01*
G37*
G36*
X520357Y919419D02*
X524246Y923308D01*
X528135Y919419D01*
X524246Y915530D01*
X520357Y919419D01*
G37*
D16*
X396869Y1032549D03*
X396869Y1023049D03*
X406369Y1023049D03*
X406369Y1032549D03*
X306377Y1121706D03*
X306377Y1112206D03*
X315877Y1112206D03*
X315877Y1121706D03*
X395661Y793543D03*
X405161Y793543D03*
X405161Y803043D03*
X395661Y803043D03*
D17*
X406924Y919655D03*
X406924Y905655D03*
D16*
X306597Y703760D03*
X316097Y703760D03*
X316097Y713260D03*
X306597Y713260D03*
D12*
G36*
X436747Y912721D02*
X440636Y916610D01*
X444525Y912721D01*
X440636Y908832D01*
X436747Y912721D01*
G37*
G36*
X443465Y906003D02*
X447354Y909892D01*
X451243Y906003D01*
X447354Y902114D01*
X443465Y906003D01*
G37*
G36*
X450182Y912721D02*
X454071Y916610D01*
X457960Y912721D01*
X454071Y908832D01*
X450182Y912721D01*
G37*
G36*
X443465Y919438D02*
X447354Y923327D01*
X451243Y919438D01*
X447354Y915549D01*
X443465Y919438D01*
G37*
G36*
X359780Y912810D02*
X363669Y916699D01*
X367558Y912810D01*
X363669Y908921D01*
X359780Y912810D01*
G37*
G36*
X366498Y906093D02*
X370387Y909982D01*
X374276Y906093D01*
X370387Y902204D01*
X366498Y906093D01*
G37*
G36*
X373215Y912810D02*
X377104Y916699D01*
X380993Y912810D01*
X377104Y908921D01*
X373215Y912810D01*
G37*
G36*
X366498Y919528D02*
X370387Y923417D01*
X374276Y919528D01*
X370387Y915639D01*
X366498Y919528D01*
G37*
G36*
X282800Y912677D02*
X286689Y916566D01*
X290578Y912677D01*
X286689Y908788D01*
X282800Y912677D01*
G37*
G36*
X289518Y905959D02*
X293407Y909848D01*
X297296Y905959D01*
X293407Y902070D01*
X289518Y905959D01*
G37*
G36*
X296235Y912677D02*
X300124Y916566D01*
X304013Y912677D01*
X300124Y908788D01*
X296235Y912677D01*
G37*
G36*
X289518Y919394D02*
X293407Y923283D01*
X297296Y919394D01*
X293407Y915505D01*
X289518Y919394D01*
G37*
G36*
X205970Y912803D02*
X209859Y916692D01*
X213748Y912803D01*
X209859Y908914D01*
X205970Y912803D01*
G37*
G36*
X212688Y906085D02*
X216577Y909974D01*
X220466Y906085D01*
X216577Y902196D01*
X212688Y906085D01*
G37*
G36*
X219405Y912803D02*
X223294Y916692D01*
X227183Y912803D01*
X223294Y908914D01*
X219405Y912803D01*
G37*
G36*
X212688Y919520D02*
X216577Y923409D01*
X220466Y919520D01*
X216577Y915631D01*
X212688Y919520D01*
G37*
D16*
X116448Y1025115D03*
X116448Y1015615D03*
X125948Y1015615D03*
X125948Y1025115D03*
X112130Y801654D03*
X121630Y801654D03*
X121630Y811154D03*
X112130Y811154D03*
D12*
G36*
X129120Y912696D02*
X133009Y916585D01*
X136898Y912696D01*
X133009Y908807D01*
X129120Y912696D01*
G37*
G36*
X135838Y905978D02*
X139727Y909867D01*
X143616Y905978D01*
X139727Y902089D01*
X135838Y905978D01*
G37*
G36*
X142555Y912696D02*
X146444Y916585D01*
X150333Y912696D01*
X146444Y908807D01*
X142555Y912696D01*
G37*
G36*
X135838Y919413D02*
X139727Y923302D01*
X143616Y919413D01*
X139727Y915524D01*
X135838Y919413D01*
G37*
D17*
X118518Y920166D03*
X118518Y906166D03*
D12*
G36*
X51537Y913429D02*
X55426Y917318D01*
X59315Y913429D01*
X55426Y909540D01*
X51537Y913429D01*
G37*
G36*
X58254Y906712D02*
X62143Y910601D01*
X66032Y906712D01*
X62143Y902823D01*
X58254Y906712D01*
G37*
G36*
X64972Y913429D02*
X68861Y917318D01*
X72750Y913429D01*
X68861Y909540D01*
X64972Y913429D01*
G37*
G36*
X58254Y920147D02*
X62143Y924036D01*
X66032Y920147D01*
X62143Y916258D01*
X58254Y920147D01*
G37*
G36*
X683366Y1057280D02*
X684790Y1051968D01*
X679478Y1050544D01*
X678054Y1055856D01*
X683366Y1057280D01*
G37*
G36*
X674189Y1054821D02*
X675613Y1049509D01*
X670301Y1048085D01*
X668877Y1053397D01*
X674189Y1054821D01*
G37*
G36*
X676648Y1045645D02*
X678072Y1040333D01*
X672760Y1038909D01*
X671336Y1044221D01*
X676648Y1045645D01*
G37*
G36*
X685825Y1048104D02*
X687249Y1042792D01*
X681937Y1041368D01*
X680513Y1046680D01*
X685825Y1048104D01*
G37*
G36*
X797899Y1125962D02*
X800649Y1121200D01*
X795887Y1118450D01*
X793137Y1123212D01*
X797899Y1125962D01*
G37*
G36*
X789671Y1121212D02*
X792421Y1116450D01*
X787659Y1113700D01*
X784909Y1118462D01*
X789671Y1121212D01*
G37*
G36*
X794421Y1112985D02*
X797171Y1108223D01*
X792409Y1105473D01*
X789659Y1110235D01*
X794421Y1112985D01*
G37*
G36*
X802649Y1117735D02*
X805399Y1112973D01*
X800637Y1110223D01*
X797887Y1114985D01*
X802649Y1117735D01*
G37*
G36*
X751445Y1191503D02*
X756757Y1190079D01*
X755333Y1184767D01*
X750021Y1186191D01*
X751445Y1191503D01*
G37*
G36*
X748986Y1182327D02*
X754298Y1180903D01*
X752874Y1175591D01*
X747562Y1177015D01*
X748986Y1182327D01*
G37*
G36*
X758163Y1179868D02*
X763475Y1178444D01*
X762051Y1173132D01*
X756739Y1174556D01*
X758163Y1179868D01*
G37*
G36*
X760622Y1189044D02*
X765934Y1187620D01*
X764510Y1182308D01*
X759198Y1183732D01*
X760622Y1189044D01*
G37*
G36*
X712939Y1258103D02*
X718251Y1256679D01*
X716827Y1251367D01*
X711515Y1252791D01*
X712939Y1258103D01*
G37*
G36*
X710480Y1248927D02*
X715792Y1247503D01*
X714368Y1242191D01*
X709056Y1243615D01*
X710480Y1248927D01*
G37*
G36*
X719657Y1246468D02*
X724969Y1245044D01*
X723545Y1239732D01*
X718233Y1241156D01*
X719657Y1246468D01*
G37*
G36*
X722116Y1255644D02*
X727428Y1254220D01*
X726004Y1248908D01*
X720692Y1250332D01*
X722116Y1255644D01*
G37*
G36*
X759351Y1422909D02*
X762101Y1418147D01*
X757339Y1415397D01*
X754589Y1420159D01*
X759351Y1422909D01*
G37*
G36*
X751123Y1418159D02*
X753873Y1413397D01*
X749111Y1410647D01*
X746361Y1415409D01*
X751123Y1418159D01*
G37*
G36*
X755873Y1409931D02*
X758623Y1405169D01*
X753861Y1402419D01*
X751111Y1407181D01*
X755873Y1409931D01*
G37*
G36*
X764101Y1414681D02*
X766851Y1409919D01*
X762089Y1407169D01*
X759339Y1411931D01*
X764101Y1414681D01*
G37*
G36*
X791317Y1545855D02*
X794067Y1541093D01*
X789305Y1538343D01*
X786555Y1543105D01*
X791317Y1545855D01*
G37*
G36*
X783089Y1541105D02*
X785839Y1536343D01*
X781077Y1533593D01*
X778327Y1538355D01*
X783089Y1541105D01*
G37*
G36*
X787839Y1532878D02*
X790589Y1528116D01*
X785827Y1525366D01*
X783077Y1530128D01*
X787839Y1532878D01*
G37*
G36*
X796067Y1537628D02*
X798817Y1532866D01*
X794055Y1530116D01*
X791305Y1534878D01*
X796067Y1537628D01*
G37*
G36*
X546999Y1301702D02*
X551761Y1304452D01*
X554511Y1299690D01*
X549749Y1296940D01*
X546999Y1301702D01*
G37*
G36*
X551749Y1293474D02*
X556511Y1296224D01*
X559261Y1291462D01*
X554499Y1288712D01*
X551749Y1293474D01*
G37*
G36*
X559976Y1298224D02*
X564738Y1300974D01*
X567488Y1296212D01*
X562726Y1293462D01*
X559976Y1298224D01*
G37*
G36*
X555226Y1306452D02*
X559988Y1309202D01*
X562738Y1304440D01*
X557976Y1301690D01*
X555226Y1306452D01*
G37*
D13*
G36*
X671133Y1351418D02*
X665071Y1347918D01*
X660071Y1356578D01*
X666133Y1360078D01*
X671133Y1351418D01*
G37*
G36*
X659009Y1344418D02*
X652947Y1340918D01*
X647947Y1349578D01*
X654009Y1353078D01*
X659009Y1344418D01*
G37*
D12*
G36*
X424712Y1333941D02*
X429474Y1336691D01*
X432224Y1331929D01*
X427462Y1329179D01*
X424712Y1333941D01*
G37*
G36*
X429462Y1325714D02*
X434224Y1328464D01*
X436974Y1323702D01*
X432212Y1320952D01*
X429462Y1325714D01*
G37*
G36*
X437690Y1330464D02*
X442452Y1333214D01*
X445202Y1328452D01*
X440440Y1325702D01*
X437690Y1330464D01*
G37*
G36*
X432940Y1338691D02*
X437702Y1341441D01*
X440452Y1336679D01*
X435690Y1333929D01*
X432940Y1338691D01*
G37*
G36*
X674510Y1324703D02*
X679822Y1323279D01*
X678398Y1317967D01*
X673086Y1319391D01*
X674510Y1324703D01*
G37*
G36*
X672051Y1315527D02*
X677363Y1314103D01*
X675939Y1308791D01*
X670627Y1310215D01*
X672051Y1315527D01*
G37*
G36*
X681227Y1313068D02*
X686539Y1311644D01*
X685115Y1306332D01*
X679803Y1307756D01*
X681227Y1313068D01*
G37*
G36*
X683686Y1322244D02*
X688998Y1320820D01*
X687574Y1315508D01*
X682262Y1316932D01*
X683686Y1322244D01*
G37*
G36*
X636104Y1391403D02*
X641416Y1389979D01*
X639992Y1384667D01*
X634680Y1386091D01*
X636104Y1391403D01*
G37*
G36*
X633645Y1382227D02*
X638957Y1380803D01*
X637533Y1375491D01*
X632221Y1376915D01*
X633645Y1382227D01*
G37*
G36*
X642821Y1379768D02*
X648133Y1378344D01*
X646709Y1373032D01*
X641397Y1374456D01*
X642821Y1379768D01*
G37*
G36*
X645280Y1388944D02*
X650592Y1387520D01*
X649168Y1382208D01*
X643856Y1383632D01*
X645280Y1388944D01*
G37*
G36*
X597498Y1458003D02*
X602810Y1456579D01*
X601386Y1451267D01*
X596074Y1452691D01*
X597498Y1458003D01*
G37*
G36*
X595039Y1448827D02*
X600351Y1447403D01*
X598927Y1442091D01*
X593615Y1443515D01*
X595039Y1448827D01*
G37*
G36*
X604215Y1446368D02*
X609527Y1444944D01*
X608103Y1439632D01*
X602791Y1441056D01*
X604215Y1446368D01*
G37*
G36*
X606674Y1455544D02*
X611986Y1454120D01*
X610562Y1448808D01*
X605250Y1450232D01*
X606674Y1455544D01*
G37*
G36*
X559192Y1524603D02*
X564504Y1523179D01*
X563080Y1517867D01*
X557768Y1519291D01*
X559192Y1524603D01*
G37*
G36*
X556733Y1515427D02*
X562045Y1514003D01*
X560621Y1508691D01*
X555309Y1510115D01*
X556733Y1515427D01*
G37*
G36*
X565910Y1512968D02*
X571222Y1511544D01*
X569798Y1506232D01*
X564486Y1507656D01*
X565910Y1512968D01*
G37*
G36*
X568368Y1522144D02*
X573680Y1520720D01*
X572256Y1515408D01*
X566944Y1516832D01*
X568368Y1522144D01*
G37*
G36*
X612701Y1662043D02*
X615451Y1657281D01*
X610689Y1654531D01*
X607939Y1659293D01*
X612701Y1662043D01*
G37*
G36*
X604474Y1657293D02*
X607224Y1652531D01*
X602462Y1649781D01*
X599712Y1654543D01*
X604474Y1657293D01*
G37*
G36*
X609224Y1649065D02*
X611974Y1644303D01*
X607212Y1641553D01*
X604462Y1646315D01*
X609224Y1649065D01*
G37*
G36*
X617451Y1653815D02*
X620201Y1649053D01*
X615439Y1646303D01*
X612689Y1651065D01*
X617451Y1653815D01*
G37*
G36*
X412258Y1551302D02*
X417020Y1554052D01*
X419770Y1549290D01*
X415008Y1546540D01*
X412258Y1551302D01*
G37*
G36*
X417008Y1543074D02*
X421770Y1545824D01*
X424520Y1541062D01*
X419758Y1538312D01*
X417008Y1543074D01*
G37*
G36*
X425235Y1547824D02*
X429997Y1550574D01*
X432747Y1545812D01*
X427985Y1543062D01*
X425235Y1547824D01*
G37*
G36*
X420485Y1556052D02*
X425247Y1558802D01*
X427997Y1554040D01*
X423235Y1551290D01*
X420485Y1556052D01*
G37*
G36*
X520674Y1591103D02*
X525986Y1589679D01*
X524562Y1584367D01*
X519250Y1585791D01*
X520674Y1591103D01*
G37*
G36*
X518216Y1581927D02*
X523528Y1580503D01*
X522104Y1575191D01*
X516792Y1576615D01*
X518216Y1581927D01*
G37*
G36*
X527392Y1579468D02*
X532704Y1578044D01*
X531280Y1572732D01*
X525968Y1574156D01*
X527392Y1579468D01*
G37*
G36*
X529851Y1588644D02*
X535163Y1587220D01*
X533739Y1581908D01*
X528427Y1583332D01*
X529851Y1588644D01*
G37*
D13*
G36*
X527374Y1601440D02*
X521312Y1597940D01*
X516312Y1606600D01*
X522374Y1610100D01*
X527374Y1601440D01*
G37*
G36*
X515249Y1594440D02*
X509187Y1590940D01*
X504187Y1599600D01*
X510249Y1603100D01*
X515249Y1594440D01*
G37*
D12*
G36*
X482518Y1658659D02*
X487830Y1657235D01*
X486406Y1651923D01*
X481094Y1653347D01*
X482518Y1658659D01*
G37*
G36*
X480059Y1649483D02*
X485371Y1648059D01*
X483947Y1642747D01*
X478635Y1644171D01*
X480059Y1649483D01*
G37*
G36*
X489235Y1647024D02*
X494547Y1645600D01*
X493123Y1640288D01*
X487811Y1641712D01*
X489235Y1647024D01*
G37*
G36*
X491694Y1656200D02*
X497006Y1654776D01*
X495582Y1649464D01*
X490270Y1650888D01*
X491694Y1656200D01*
G37*
G36*
X923010Y1183404D02*
X919121Y1179515D01*
X915232Y1183404D01*
X919121Y1187293D01*
X923010Y1183404D01*
G37*
G36*
X916293Y1190121D02*
X912404Y1186232D01*
X908515Y1190121D01*
X912404Y1194010D01*
X916293Y1190121D01*
G37*
G36*
X909575Y1183404D02*
X905686Y1179515D01*
X901797Y1183404D01*
X905686Y1187293D01*
X909575Y1183404D01*
G37*
G36*
X916293Y1176686D02*
X912404Y1172797D01*
X908515Y1176686D01*
X912404Y1180575D01*
X916293Y1176686D01*
G37*
G36*
X1039757Y1118556D02*
X1037007Y1113794D01*
X1032245Y1116544D01*
X1034995Y1121306D01*
X1039757Y1118556D01*
G37*
G36*
X1031530Y1123306D02*
X1028780Y1118544D01*
X1024018Y1121294D01*
X1026768Y1126056D01*
X1031530Y1123306D01*
G37*
G36*
X1026780Y1115079D02*
X1024030Y1110317D01*
X1019268Y1113067D01*
X1022018Y1117829D01*
X1026780Y1115079D01*
G37*
G36*
X1035007Y1110329D02*
X1032257Y1105567D01*
X1027495Y1108317D01*
X1030245Y1113079D01*
X1035007Y1110329D01*
G37*
G36*
X1073290Y1191558D02*
X1074714Y1186246D01*
X1069402Y1184822D01*
X1067978Y1190134D01*
X1073290Y1191558D01*
G37*
G36*
X1064113Y1189099D02*
X1065537Y1183787D01*
X1060225Y1182363D01*
X1058801Y1187675D01*
X1064113Y1189099D01*
G37*
G36*
X1066572Y1179923D02*
X1067996Y1174611D01*
X1062684Y1173187D01*
X1061260Y1178499D01*
X1066572Y1179923D01*
G37*
G36*
X1075748Y1182382D02*
X1077172Y1177070D01*
X1071860Y1175646D01*
X1070436Y1180958D01*
X1075748Y1182382D01*
G37*
G36*
X1111714Y1258205D02*
X1113138Y1252893D01*
X1107826Y1251469D01*
X1106402Y1256781D01*
X1111714Y1258205D01*
G37*
G36*
X1102538Y1255746D02*
X1103962Y1250434D01*
X1098650Y1249010D01*
X1097226Y1254322D01*
X1102538Y1255746D01*
G37*
G36*
X1104996Y1246570D02*
X1106420Y1241258D01*
X1101108Y1239834D01*
X1099684Y1245146D01*
X1104996Y1246570D01*
G37*
G36*
X1114173Y1249029D02*
X1115597Y1243717D01*
X1110285Y1242293D01*
X1108861Y1247605D01*
X1114173Y1249029D01*
G37*
G36*
X1277647Y1300413D02*
X1274897Y1295651D01*
X1270135Y1298401D01*
X1272885Y1303163D01*
X1277647Y1300413D01*
G37*
G36*
X1269419Y1305163D02*
X1266669Y1300401D01*
X1261907Y1303151D01*
X1264657Y1307913D01*
X1269419Y1305163D01*
G37*
G36*
X1264669Y1296936D02*
X1261919Y1292174D01*
X1257157Y1294924D01*
X1259907Y1299686D01*
X1264669Y1296936D01*
G37*
G36*
X1272897Y1292186D02*
X1270147Y1287424D01*
X1265385Y1290174D01*
X1268135Y1294936D01*
X1272897Y1292186D01*
G37*
G36*
X1400105Y1334203D02*
X1397355Y1329441D01*
X1392593Y1332191D01*
X1395343Y1336953D01*
X1400105Y1334203D01*
G37*
G36*
X1391877Y1338953D02*
X1389127Y1334191D01*
X1384365Y1336941D01*
X1387115Y1341703D01*
X1391877Y1338953D01*
G37*
G36*
X1387127Y1330726D02*
X1384377Y1325964D01*
X1379615Y1328714D01*
X1382365Y1333476D01*
X1387127Y1330726D01*
G37*
G36*
X1395355Y1325976D02*
X1392605Y1321214D01*
X1387843Y1323964D01*
X1390593Y1328726D01*
X1395355Y1325976D01*
G37*
G36*
X1066503Y1423713D02*
X1071265Y1420963D01*
X1068515Y1416201D01*
X1063753Y1418951D01*
X1066503Y1423713D01*
G37*
G36*
X1061753Y1415485D02*
X1066515Y1412735D01*
X1063765Y1407973D01*
X1059003Y1410723D01*
X1061753Y1415485D01*
G37*
G36*
X1069980Y1410735D02*
X1074742Y1407985D01*
X1071992Y1403223D01*
X1067230Y1405973D01*
X1069980Y1410735D01*
G37*
G36*
X1074730Y1418963D02*
X1079492Y1416213D01*
X1076742Y1411451D01*
X1071980Y1414201D01*
X1074730Y1418963D01*
G37*
D13*
G36*
X1171625Y1341067D02*
X1165563Y1344567D01*
X1170563Y1353227D01*
X1176625Y1349727D01*
X1171625Y1341067D01*
G37*
G36*
X1159501Y1348067D02*
X1153439Y1351567D01*
X1158439Y1360227D01*
X1164501Y1356727D01*
X1159501Y1348067D01*
G37*
D12*
G36*
X1033280Y1545736D02*
X1038042Y1542986D01*
X1035292Y1538224D01*
X1030530Y1540974D01*
X1033280Y1545736D01*
G37*
G36*
X1028530Y1537509D02*
X1033292Y1534759D01*
X1030542Y1529997D01*
X1025780Y1532747D01*
X1028530Y1537509D01*
G37*
G36*
X1036757Y1532759D02*
X1041519Y1530009D01*
X1038769Y1525247D01*
X1034007Y1527997D01*
X1036757Y1532759D01*
G37*
G36*
X1041507Y1540986D02*
X1046269Y1538236D01*
X1043519Y1533474D01*
X1038757Y1536224D01*
X1041507Y1540986D01*
G37*
G36*
X1150177Y1324786D02*
X1151601Y1319474D01*
X1146289Y1318050D01*
X1144865Y1323362D01*
X1150177Y1324786D01*
G37*
G36*
X1141000Y1322327D02*
X1142424Y1317015D01*
X1137112Y1315591D01*
X1135688Y1320903D01*
X1141000Y1322327D01*
G37*
G36*
X1143459Y1313151D02*
X1144883Y1307839D01*
X1139571Y1306415D01*
X1138147Y1311727D01*
X1143459Y1313151D01*
G37*
G36*
X1152635Y1315610D02*
X1154059Y1310298D01*
X1148747Y1308874D01*
X1147323Y1314186D01*
X1152635Y1315610D01*
G37*
G36*
X1188737Y1391396D02*
X1190161Y1386084D01*
X1184849Y1384660D01*
X1183425Y1389972D01*
X1188737Y1391396D01*
G37*
G36*
X1179561Y1388938D02*
X1180985Y1383626D01*
X1175673Y1382202D01*
X1174249Y1387514D01*
X1179561Y1388938D01*
G37*
G36*
X1182020Y1379761D02*
X1183444Y1374449D01*
X1178132Y1373025D01*
X1176708Y1378337D01*
X1182020Y1379761D01*
G37*
G36*
X1191196Y1382220D02*
X1192620Y1376908D01*
X1187308Y1375484D01*
X1185884Y1380796D01*
X1191196Y1382220D01*
G37*
G36*
X1227112Y1458130D02*
X1228536Y1452818D01*
X1223224Y1451394D01*
X1221800Y1456706D01*
X1227112Y1458130D01*
G37*
G36*
X1217936Y1455671D02*
X1219360Y1450359D01*
X1214048Y1448935D01*
X1212624Y1454247D01*
X1217936Y1455671D01*
G37*
G36*
X1220394Y1446495D02*
X1221818Y1441183D01*
X1216506Y1439759D01*
X1215082Y1445071D01*
X1220394Y1446495D01*
G37*
G36*
X1229571Y1448954D02*
X1230995Y1443642D01*
X1225683Y1442218D01*
X1224259Y1447530D01*
X1229571Y1448954D01*
G37*
G36*
X1265636Y1524604D02*
X1267060Y1519292D01*
X1261748Y1517868D01*
X1260324Y1523180D01*
X1265636Y1524604D01*
G37*
G36*
X1256460Y1522145D02*
X1257884Y1516833D01*
X1252572Y1515409D01*
X1251148Y1520721D01*
X1256460Y1522145D01*
G37*
G36*
X1258919Y1512969D02*
X1260343Y1507657D01*
X1255031Y1506233D01*
X1253607Y1511545D01*
X1258919Y1512969D01*
G37*
G36*
X1268095Y1515428D02*
X1269519Y1510116D01*
X1264207Y1508692D01*
X1262783Y1514004D01*
X1268095Y1515428D01*
G37*
G36*
X1411418Y1546982D02*
X1408668Y1542220D01*
X1403906Y1544970D01*
X1406656Y1549732D01*
X1411418Y1546982D01*
G37*
G36*
X1403191Y1551732D02*
X1400441Y1546970D01*
X1395679Y1549720D01*
X1398429Y1554482D01*
X1403191Y1551732D01*
G37*
G36*
X1398441Y1543505D02*
X1395691Y1538743D01*
X1390929Y1541493D01*
X1393679Y1546255D01*
X1398441Y1543505D01*
G37*
G36*
X1406668Y1538755D02*
X1403918Y1533993D01*
X1399156Y1536743D01*
X1401906Y1541505D01*
X1406668Y1538755D01*
G37*
G36*
X1215292Y1665202D02*
X1220054Y1662452D01*
X1217304Y1657690D01*
X1212542Y1660440D01*
X1215292Y1665202D01*
G37*
G36*
X1210542Y1656975D02*
X1215304Y1654225D01*
X1212554Y1649463D01*
X1207792Y1652213D01*
X1210542Y1656975D01*
G37*
G36*
X1218770Y1652225D02*
X1223532Y1649475D01*
X1220782Y1644713D01*
X1216020Y1647463D01*
X1218770Y1652225D01*
G37*
G36*
X1223520Y1660452D02*
X1228282Y1657702D01*
X1225532Y1652940D01*
X1220770Y1655690D01*
X1223520Y1660452D01*
G37*
G36*
X1303968Y1591211D02*
X1305392Y1585899D01*
X1300080Y1584475D01*
X1298656Y1589787D01*
X1303968Y1591211D01*
G37*
G36*
X1294792Y1588753D02*
X1296216Y1583441D01*
X1290904Y1582017D01*
X1289480Y1587329D01*
X1294792Y1588753D01*
G37*
G36*
X1297250Y1579576D02*
X1298674Y1574264D01*
X1293362Y1572840D01*
X1291938Y1578152D01*
X1297250Y1579576D01*
G37*
G36*
X1306427Y1582035D02*
X1307851Y1576723D01*
X1302539Y1575299D01*
X1301115Y1580611D01*
X1306427Y1582035D01*
G37*
D13*
G36*
X1316270Y1590577D02*
X1310208Y1594077D01*
X1315208Y1602737D01*
X1321270Y1599237D01*
X1316270Y1590577D01*
G37*
G36*
X1304146Y1597577D02*
X1298084Y1601077D01*
X1303084Y1609737D01*
X1309146Y1606237D01*
X1304146Y1597577D01*
G37*
D12*
G36*
X1343395Y1658034D02*
X1344819Y1652722D01*
X1339507Y1651298D01*
X1338083Y1656610D01*
X1343395Y1658034D01*
G37*
G36*
X1334219Y1655575D02*
X1335643Y1650263D01*
X1330331Y1648839D01*
X1328907Y1654151D01*
X1334219Y1655575D01*
G37*
G36*
X1336678Y1646399D02*
X1338102Y1641087D01*
X1332790Y1639663D01*
X1331366Y1644975D01*
X1336678Y1646399D01*
G37*
G36*
X1345854Y1648858D02*
X1347278Y1643546D01*
X1341966Y1642122D01*
X1340542Y1647434D01*
X1345854Y1648858D01*
G37*
G36*
X1152059Y1038928D02*
X1146747Y1040352D01*
X1148171Y1045664D01*
X1153483Y1044240D01*
X1152059Y1038928D01*
G37*
G36*
X1154518Y1048104D02*
X1149206Y1049528D01*
X1150630Y1054840D01*
X1155942Y1053416D01*
X1154518Y1048104D01*
G37*
G36*
X1145341Y1050563D02*
X1140029Y1051987D01*
X1141453Y1057299D01*
X1146765Y1055875D01*
X1145341Y1050563D01*
G37*
G36*
X1142882Y1041387D02*
X1137570Y1042811D01*
X1138994Y1048123D01*
X1144306Y1046699D01*
X1142882Y1041387D01*
G37*
D16*
X1151524Y908148D03*
X1151524Y917648D03*
X1142024Y917648D03*
X1142024Y908148D03*
D12*
G36*
X1234260Y912859D02*
X1230371Y908970D01*
X1226482Y912859D01*
X1230371Y916748D01*
X1234260Y912859D01*
G37*
G36*
X1227543Y919577D02*
X1223654Y915688D01*
X1219765Y919577D01*
X1223654Y923466D01*
X1227543Y919577D01*
G37*
G36*
X1220825Y912859D02*
X1216936Y908970D01*
X1213047Y912859D01*
X1216936Y916748D01*
X1220825Y912859D01*
G37*
G36*
X1227543Y906141D02*
X1223654Y902252D01*
X1219765Y906141D01*
X1223654Y910030D01*
X1227543Y906141D01*
G37*
G36*
X1311191Y912906D02*
X1307302Y909017D01*
X1303413Y912906D01*
X1307302Y916795D01*
X1311191Y912906D01*
G37*
G36*
X1304473Y919624D02*
X1300584Y915735D01*
X1296695Y919624D01*
X1300584Y923513D01*
X1304473Y919624D01*
G37*
G36*
X1297756Y912906D02*
X1293867Y909017D01*
X1289978Y912906D01*
X1293867Y916795D01*
X1297756Y912906D01*
G37*
G36*
X1304473Y906189D02*
X1300584Y902300D01*
X1296695Y906189D01*
X1300584Y910078D01*
X1304473Y906189D01*
G37*
D16*
X1427961Y793059D03*
X1427961Y802559D03*
X1418461Y802559D03*
X1418461Y793059D03*
X1518453Y703902D03*
X1518453Y713402D03*
X1508953Y713402D03*
X1508953Y703902D03*
X1429169Y1032065D03*
X1419669Y1032065D03*
X1419669Y1022565D03*
X1429169Y1022565D03*
D17*
X1417907Y905953D03*
X1417907Y919953D03*
D16*
X1518233Y1121848D03*
X1508733Y1121848D03*
X1508733Y1112348D03*
X1518233Y1112348D03*
D12*
G36*
X1388083Y912887D02*
X1384194Y908998D01*
X1380305Y912887D01*
X1384194Y916776D01*
X1388083Y912887D01*
G37*
G36*
X1381365Y919605D02*
X1377476Y915716D01*
X1373587Y919605D01*
X1377476Y923494D01*
X1381365Y919605D01*
G37*
G36*
X1374648Y912887D02*
X1370759Y908998D01*
X1366870Y912887D01*
X1370759Y916776D01*
X1374648Y912887D01*
G37*
G36*
X1381365Y906170D02*
X1377476Y902281D01*
X1373587Y906170D01*
X1377476Y910059D01*
X1381365Y906170D01*
G37*
G36*
X1465050Y912798D02*
X1461161Y908909D01*
X1457272Y912798D01*
X1461161Y916687D01*
X1465050Y912798D01*
G37*
G36*
X1458332Y919515D02*
X1454443Y915626D01*
X1450554Y919515D01*
X1454443Y923404D01*
X1458332Y919515D01*
G37*
G36*
X1451615Y912798D02*
X1447726Y908909D01*
X1443837Y912798D01*
X1447726Y916687D01*
X1451615Y912798D01*
G37*
G36*
X1458332Y906080D02*
X1454443Y902191D01*
X1450554Y906080D01*
X1454443Y909969D01*
X1458332Y906080D01*
G37*
G36*
X1542030Y912931D02*
X1538141Y909042D01*
X1534252Y912931D01*
X1538141Y916820D01*
X1542030Y912931D01*
G37*
G36*
X1535312Y919649D02*
X1531423Y915760D01*
X1527534Y919649D01*
X1531423Y923538D01*
X1535312Y919649D01*
G37*
G36*
X1528595Y912931D02*
X1524706Y909042D01*
X1520817Y912931D01*
X1524706Y916820D01*
X1528595Y912931D01*
G37*
G36*
X1535312Y906214D02*
X1531423Y902325D01*
X1527534Y906214D01*
X1531423Y910103D01*
X1535312Y906214D01*
G37*
G36*
X1618860Y912805D02*
X1614971Y908916D01*
X1611082Y912805D01*
X1614971Y916694D01*
X1618860Y912805D01*
G37*
G36*
X1612143Y919523D02*
X1608254Y915634D01*
X1604365Y919523D01*
X1608254Y923412D01*
X1612143Y919523D01*
G37*
G36*
X1605425Y912805D02*
X1601536Y908916D01*
X1597647Y912805D01*
X1601536Y916694D01*
X1605425Y912805D01*
G37*
G36*
X1612143Y906088D02*
X1608254Y902199D01*
X1604365Y906088D01*
X1608254Y909977D01*
X1612143Y906088D01*
G37*
D16*
X1708382Y800493D03*
X1708382Y809993D03*
X1698882Y809993D03*
X1698882Y800493D03*
X1712700Y1023954D03*
X1703200Y1023954D03*
X1703200Y1014454D03*
X1712700Y1014454D03*
D12*
G36*
X1695710Y912912D02*
X1691821Y909023D01*
X1687932Y912912D01*
X1691821Y916801D01*
X1695710Y912912D01*
G37*
G36*
X1688992Y919630D02*
X1685103Y915741D01*
X1681214Y919630D01*
X1685103Y923519D01*
X1688992Y919630D01*
G37*
G36*
X1682275Y912912D02*
X1678386Y909023D01*
X1674497Y912912D01*
X1678386Y916801D01*
X1682275Y912912D01*
G37*
G36*
X1688992Y906195D02*
X1685103Y902306D01*
X1681214Y906195D01*
X1685103Y910084D01*
X1688992Y906195D01*
G37*
D17*
X1706312Y905442D03*
X1706312Y919442D03*
D12*
G36*
X1773294Y912179D02*
X1769405Y908290D01*
X1765516Y912179D01*
X1769405Y916068D01*
X1773294Y912179D01*
G37*
G36*
X1766576Y918896D02*
X1762687Y915007D01*
X1758798Y918896D01*
X1762687Y922785D01*
X1766576Y918896D01*
G37*
G36*
X1759858Y912179D02*
X1755969Y908290D01*
X1752080Y912179D01*
X1755969Y916068D01*
X1759858Y912179D01*
G37*
G36*
X1766576Y905461D02*
X1762687Y901572D01*
X1758798Y905461D01*
X1762687Y909350D01*
X1766576Y905461D01*
G37*
G36*
X1141464Y768328D02*
X1140040Y773640D01*
X1145352Y775064D01*
X1146776Y769752D01*
X1141464Y768328D01*
G37*
G36*
X1150641Y770787D02*
X1149217Y776099D01*
X1154529Y777523D01*
X1155953Y772211D01*
X1150641Y770787D01*
G37*
G36*
X1148182Y779963D02*
X1146758Y785275D01*
X1152070Y786699D01*
X1153494Y781387D01*
X1148182Y779963D01*
G37*
G36*
X1139006Y777504D02*
X1137582Y782816D01*
X1142894Y784240D01*
X1144318Y778928D01*
X1139006Y777504D01*
G37*
D14*
X1870800Y89200D03*
X1820000Y89200D03*
D18*
X2504000Y768646D02*
X2513408Y774222D01*
D19*
X2504000Y768646D03*
D18*
X2632000Y693646D02*
X2638207Y703394D01*
D19*
X2632000Y693646D03*
X2612000Y634646D03*
D18*
X2611507Y634966D01*
X2603812Y639963D01*
D19*
X2575000Y567646D03*
D18*
X2565387Y573316D01*
D19*
X2404000Y511646D03*
D18*
X2400318Y521537D01*
D19*
X2287000Y482646D03*
D18*
X2277860Y487747D01*
D19*
X2533000Y499646D03*
D18*
X2532611Y501050D01*
X2526925Y506735D01*
X2603222Y413965D02*
X2613297Y416471D01*
D19*
X2614000Y416646D03*
D18*
X2613297Y416471D01*
X2636445Y291942D02*
X2648000Y294646D01*
D19*
X2648000Y294646D03*
X2498000Y434646D03*
D18*
X2488364Y440125D01*
X2449990Y373391D02*
X2450990Y372391D01*
X2459000Y366646D01*
D19*
X2459000Y366646D03*
D18*
X2422000Y301646D02*
X2411465Y306917D01*
D19*
X2422000Y301646D03*
X2278000Y268646D03*
D18*
X2266546Y274968D01*
D19*
X2382000Y234646D03*
D18*
X2373133Y240310D01*
D19*
X2342000Y167646D03*
D18*
X2333706Y173487D01*
X2454433Y172476D02*
X2466000Y174646D01*
D19*
X2466000Y174646D03*
D20*
X2515000Y466646D02*
X2507012Y471548D01*
D19*
X2515000Y466646D03*
X2596000Y605646D03*
X2441000Y335646D03*
D20*
X2362366Y222037D02*
X2372000Y215646D01*
D19*
X2372000Y215646D03*
D21*
X2575000Y567646D02*
X2596000Y605646D01*
X2611507Y634966D01*
D19*
X2642000Y688646D03*
D22*
X2638000Y681646D01*
D19*
X2638000Y681646D03*
D22*
X2634000Y674646D01*
D19*
X2634000Y674646D03*
D21*
X2611507Y634966D01*
D22*
X2575000Y567646D02*
X2566000Y559646D01*
X2555000Y556646D01*
X2404000Y511646D02*
X2287000Y482646D01*
X2574000Y555646D02*
X2575000Y567646D01*
X2574000Y555646D02*
X2576000Y523646D01*
X2584000Y498646D01*
X2613297Y416471D01*
X2614000Y416646D02*
X2648000Y294646D01*
X2534294Y497490D02*
X2533000Y499646D01*
X2516929Y468574D01*
X2515000Y466646D01*
X2498000Y434646D01*
X2459000Y366646D01*
X2441000Y335646D01*
X2422000Y301646D01*
X2420000Y271646D01*
X2427000Y250646D01*
X2439000Y230646D01*
X2451000Y205646D01*
X2463000Y188646D01*
X2466000Y174646D01*
X2410000Y290646D02*
X2422000Y301646D01*
X2410000Y290646D02*
X2393000Y286646D01*
X2359385Y288415D01*
X2303193Y280387D01*
X2281182Y271828D01*
X2278000Y268646D01*
X2372000Y215646D02*
X2342000Y167646D01*
X2372000Y215646D02*
X2382000Y234646D01*
X2464000Y158646D02*
X2455000Y149646D01*
X2464000Y158646D02*
X2466000Y174646D01*
D18*
X2513396Y1051540D02*
X2503863Y1056899D01*
D19*
X2503863Y1056899D03*
D18*
X2502911Y908547D02*
X2514457Y908046D01*
D19*
X2502911Y908547D03*
X2441816Y896368D03*
D18*
X2441847Y896955D01*
X2442327Y906118D01*
D19*
X2365292Y894911D03*
D18*
X2365397Y906071D01*
D19*
X2231295Y1015001D03*
D18*
X2238020Y1023136D01*
D19*
X2147680Y1101826D03*
D18*
X2147528Y1112293D01*
D19*
X2285402Y897284D03*
D18*
X2286424Y898323D01*
X2288505Y906090D01*
X2246312Y793630D02*
X2253520Y786157D01*
D19*
X2254022Y785636D03*
D18*
X2253520Y786157D01*
X2157248Y703846D02*
X2165367Y695191D01*
D19*
X2165367Y695191D03*
X2211611Y895095D03*
D18*
X2211538Y906180D01*
X2134558Y906046D02*
X2134192Y904680D01*
X2133221Y894870D01*
D19*
X2133221Y894870D03*
D18*
X2058429Y894413D02*
X2057727Y906172D01*
D19*
X2058429Y894413D03*
X1957850Y1002620D03*
D18*
X1957599Y1015701D01*
D19*
X1980406Y895554D03*
D18*
X1980878Y906065D01*
D19*
X1902382Y896695D03*
D18*
X1903294Y906798D01*
X1962781Y801740D02*
X1970444Y792808D01*
D19*
X1970444Y792808D03*
D20*
X2247824Y896372D02*
X2248075Y905742D01*
D19*
X2247824Y896372D03*
X2408701Y895724D03*
X2097374Y894958D03*
D20*
X1959669Y906253D02*
X1958951Y894714D01*
D19*
X1958951Y894714D03*
D22*
X2365292Y894911D02*
X2408701Y895724D01*
X2441847Y896955D01*
D19*
X2503581Y897387D03*
D22*
X2495519Y897351D01*
D19*
X2495519Y897351D03*
D22*
X2487457Y897315D01*
D19*
X2487457Y897315D03*
D22*
X2441847Y896955D01*
X2365292Y894911D02*
X2353864Y898705D01*
X2345766Y906731D01*
X2328302Y928980D01*
X2308240Y949729D01*
X2276749Y974272D01*
X2231295Y1015001D01*
X2147680Y1101826D01*
X2354400Y889777D02*
X2365292Y894911D01*
X2354400Y889777D02*
X2327687Y872045D01*
X2310036Y852617D01*
X2253520Y786157D01*
X2254022Y785636D02*
X2165367Y695191D01*
X2153743Y687325D01*
X2138484Y687753D01*
X2125422Y696377D01*
X2117922Y709368D01*
X2116752Y721394D01*
X2123779Y731224D01*
X2284182Y895086D01*
X2285402Y897284D01*
X2250458Y895666D01*
X2247824Y896372D01*
X2211611Y895095D01*
X2133221Y894870D01*
X2097374Y894958D01*
X2058429Y894413D01*
X2031449Y881145D01*
X2016762Y864583D01*
X2005442Y844190D01*
X1989791Y821298D01*
X1981068Y802406D01*
X1970444Y792808D01*
X2042903Y899305D02*
X2058429Y894413D01*
X2042903Y899305D02*
X2030939Y912027D01*
X2022305Y928982D01*
X2000475Y956793D01*
X1985413Y968881D01*
X1957850Y1002620D01*
X1958951Y894714D02*
X1902382Y896695D01*
X1958951Y894714D02*
X1980406Y895554D01*
X1978477Y882893D01*
X1966157Y864233D01*
X1930490Y824011D01*
X1929427Y811851D01*
X1933695Y800458D01*
X1943294Y789834D01*
X1955588Y786540D01*
X1970444Y792808D01*
D18*
X2753555Y1190208D02*
X2753429Y1201144D01*
D19*
X2753429Y1201144D03*
D18*
X2624477Y1127792D02*
X2629816Y1117543D01*
D19*
X2624477Y1127792D03*
X2583382Y1174613D03*
D18*
X2583906Y1174880D01*
X2592081Y1179045D01*
D19*
X2543858Y1240156D03*
D18*
X2553575Y1245645D01*
D19*
X2580861Y1416246D03*
D18*
X2591268Y1414489D01*
D19*
X2614246Y1532071D03*
D18*
X2623234Y1537436D01*
D19*
X2505968Y1310529D03*
D18*
X2507379Y1310164D01*
X2515146Y1312245D01*
X2396656Y1292555D02*
X2393788Y1282577D01*
D19*
X2393588Y1281881D03*
D18*
X2393788Y1282577D01*
X2274369Y1324795D02*
X2270933Y1313436D01*
D19*
X2270933Y1313436D03*
X2467177Y1373340D03*
D18*
X2476740Y1378945D01*
X2438134Y1445545D02*
X2436768Y1445179D01*
X2427787Y1441115D01*
D19*
X2427787Y1441115D03*
D18*
X2389995Y1505658D02*
X2399828Y1512145D01*
D19*
X2389995Y1505658D03*
X2433416Y1646865D03*
D18*
X2444619Y1653623D01*
D19*
X2351972Y1573799D03*
D18*
X2361310Y1578645D01*
D19*
X2313948Y1641940D03*
D18*
X2323154Y1646201D01*
X2261915Y1542155D02*
X2258010Y1531053D01*
D19*
X2258010Y1531053D03*
D20*
X2486390Y1342617D02*
X2494629Y1347085D01*
D19*
X2486390Y1342617D03*
X2566267Y1202969D03*
X2409940Y1472203D03*
D20*
X2350869Y1597106D02*
X2340517Y1591959D01*
D19*
X2340517Y1591959D03*
D22*
X2543858Y1240156D02*
X2566267Y1202969D01*
X2583906Y1174880D01*
D19*
X2615147Y1121632D03*
D22*
X2611085Y1128596D01*
D19*
X2611085Y1128596D03*
D22*
X2607023Y1135560D01*
D19*
X2607023Y1135560D03*
D22*
X2583906Y1174880D01*
X2543858Y1240156D02*
X2541430Y1251950D01*
X2544332Y1262976D01*
X2554868Y1289225D01*
X2562806Y1316974D01*
X2568315Y1356517D01*
X2580861Y1416246D01*
X2614246Y1532071D01*
X2533966Y1247022D02*
X2543858Y1240156D01*
X2533966Y1247022D02*
X2505253Y1261290D01*
X2479602Y1266862D01*
X2393788Y1282577D01*
X2393588Y1281881D02*
X2270933Y1313436D01*
X2258309Y1319570D01*
X2251050Y1332998D01*
X2251988Y1348622D01*
X2259488Y1361613D01*
X2269318Y1368639D01*
X2281345Y1367469D01*
X2503454Y1310487D01*
X2505968Y1310529D01*
X2487095Y1339983D01*
X2486390Y1342617D01*
X2467177Y1373340D01*
X2427787Y1441115D01*
X2409940Y1472203D01*
X2389995Y1505658D01*
X2365015Y1522390D01*
X2343328Y1526828D01*
X2320008Y1526435D01*
X2292357Y1528543D01*
X2271634Y1526651D01*
X2258010Y1531053D01*
X2386469Y1521550D02*
X2389995Y1505658D01*
X2386469Y1521550D02*
X2391505Y1538272D01*
X2401871Y1554227D01*
X2415041Y1587038D01*
X2417979Y1606126D01*
X2433416Y1646865D01*
X2340517Y1591959D02*
X2313948Y1641940D01*
X2340517Y1591959D02*
X2351972Y1573799D01*
X2340043Y1569138D01*
X2317723Y1570478D01*
X2265056Y1581256D01*
X2253993Y1576095D01*
X2246261Y1566703D01*
X2241859Y1553079D01*
X2245154Y1540785D01*
X2258010Y1531053D01*
D18*
X2993724Y1051559D02*
X3003132Y1057136D01*
D19*
X3003132Y1057136D03*
D18*
X2875132Y1132136D02*
X2868925Y1122387D01*
D19*
X2875132Y1132136D03*
X2895132Y1191136D03*
D18*
X2895625Y1190815D01*
X2903320Y1185818D01*
D19*
X2932132Y1258136D03*
D18*
X2941745Y1252465D01*
D19*
X3103132Y1314136D03*
D18*
X3106814Y1304244D01*
D19*
X3220132Y1343136D03*
D18*
X3229272Y1338034D01*
D19*
X2974132Y1326136D03*
D18*
X2974521Y1324732D01*
X2980207Y1319046D01*
X2903910Y1411816D02*
X2893835Y1409310D01*
D19*
X2893132Y1409136D03*
D18*
X2893835Y1409310D01*
X2870687Y1533839D02*
X2859132Y1531136D01*
D19*
X2859132Y1531136D03*
X3009132Y1391136D03*
D18*
X3018768Y1385656D01*
X3057142Y1452390D02*
X3056142Y1453390D01*
X3048132Y1459136D01*
D19*
X3048132Y1459136D03*
D18*
X3085132Y1524136D02*
X3095667Y1518864D01*
D19*
X3085132Y1524136D03*
X3229132Y1557136D03*
D18*
X3240586Y1550813D01*
D19*
X3125132Y1591136D03*
D18*
X3133999Y1585471D01*
D19*
X3165132Y1658136D03*
D18*
X3173426Y1652294D01*
X3052699Y1653305D02*
X3041132Y1651136D01*
D19*
X3041132Y1651136D03*
D20*
X2992132Y1359136D02*
X3000121Y1354234D01*
D19*
X2992132Y1359136D03*
X2911132Y1220136D03*
X3066132Y1490136D03*
D20*
X3144766Y1603744D02*
X3135132Y1610136D01*
D19*
X3135132Y1610136D03*
D22*
X2932132Y1258136D02*
X2911132Y1220136D01*
X2895625Y1190815D01*
D19*
X2865132Y1137136D03*
D22*
X2869132Y1144136D01*
D19*
X2869132Y1144136D03*
D22*
X2873132Y1151136D01*
D19*
X2873132Y1151136D03*
D22*
X2895625Y1190815D01*
X2932132Y1258136D02*
X2941132Y1266136D01*
X2952132Y1269136D01*
X2980132Y1273136D01*
X3008132Y1280136D01*
X3045132Y1295136D01*
X3103132Y1314136D01*
X3220132Y1343136D01*
X2933132Y1270136D02*
X2932132Y1258136D01*
X2933132Y1270136D02*
X2931132Y1302136D01*
X2923132Y1327136D01*
X2893835Y1409310D01*
X2893132Y1409136D02*
X2859132Y1531136D01*
X2858132Y1545136D01*
X2866132Y1558136D01*
X2880132Y1565136D01*
X2895132Y1565136D01*
X2906132Y1560136D01*
X2911132Y1549136D01*
X2972838Y1328292D01*
X2974132Y1326136D01*
X2990203Y1357207D01*
X2992132Y1359136D01*
X3009132Y1391136D01*
X3048132Y1459136D01*
X3066132Y1490136D01*
X3085132Y1524136D01*
X3087132Y1554136D01*
X3080132Y1575136D01*
X3068132Y1595136D01*
X3056132Y1620136D01*
X3044132Y1637136D01*
X3041132Y1651136D01*
X3097132Y1535136D02*
X3085132Y1524136D01*
X3097132Y1535136D02*
X3114132Y1539136D01*
X3133132Y1538136D01*
X3168132Y1543136D01*
X3186132Y1550136D01*
X3229132Y1557136D01*
X3135132Y1610136D02*
X3165132Y1658136D01*
X3135132Y1610136D02*
X3125132Y1591136D01*
X3115132Y1599136D01*
X3105132Y1619136D01*
X3088132Y1670136D01*
X3078132Y1677136D01*
X3066132Y1679136D01*
X3052132Y1676136D01*
X3043132Y1667136D01*
X3041132Y1651136D01*
D18*
X2993736Y774241D02*
X3003269Y768883D01*
D19*
X3003269Y768883D03*
D18*
X3004221Y917234D02*
X2992675Y917735D01*
D19*
X3004221Y917234D03*
X3065316Y929413D03*
D18*
X3065285Y928826D01*
X3064805Y919663D01*
D19*
X3141840Y930870D03*
D18*
X3141735Y919710D01*
D19*
X3275837Y810780D03*
D18*
X3269112Y802645D01*
D19*
X3359452Y723955D03*
D18*
X3359604Y713488D01*
D19*
X3221730Y928497D03*
D18*
X3220708Y927458D01*
X3218627Y919691D01*
X3260820Y1032152D02*
X3253612Y1039624D01*
D19*
X3253110Y1040145D03*
D18*
X3253612Y1039624D01*
X3349884Y1121935D02*
X3341765Y1130590D01*
D19*
X3341765Y1130590D03*
X3295521Y930686D03*
D18*
X3295594Y919602D01*
X3372574Y919735D02*
X3372940Y921101D01*
X3373911Y930911D01*
D19*
X3373911Y930911D03*
D18*
X3448703Y931368D02*
X3449405Y919609D01*
D19*
X3448703Y931368D03*
X3549282Y823161D03*
D18*
X3549533Y810080D01*
D19*
X3526726Y930227D03*
D18*
X3526254Y919717D01*
D19*
X3604750Y929086D03*
D18*
X3603838Y918983D01*
X3544351Y1024041D02*
X3536688Y1032974D01*
D19*
X3536688Y1032974D03*
D20*
X3259309Y929409D02*
X3259057Y920040D01*
D19*
X3259309Y929409D03*
X3098431Y930057D03*
X3409758Y930823D03*
D20*
X3547463Y919528D02*
X3548181Y931067D01*
D19*
X3548181Y931067D03*
D22*
X3141840Y930870D02*
X3098431Y930057D01*
X3065285Y928826D01*
D19*
X3003551Y928394D03*
D22*
X3011613Y928430D01*
D19*
X3011613Y928430D03*
D22*
X3019675Y928466D01*
D19*
X3019675Y928466D03*
D22*
X3065285Y928826D01*
X3141840Y930870D02*
X3153268Y927076D01*
X3161366Y919050D01*
X3178830Y896801D01*
X3198892Y876052D01*
X3230383Y851510D01*
X3275837Y810780D01*
X3359452Y723955D01*
X3152732Y936004D02*
X3141840Y930870D01*
X3152732Y936004D02*
X3179445Y953736D01*
X3197096Y973165D01*
X3253612Y1039624D01*
X3253110Y1040145D02*
X3341765Y1130590D01*
X3353389Y1138456D01*
X3368648Y1138028D01*
X3381710Y1129404D01*
X3389210Y1116413D01*
X3390380Y1104387D01*
X3383353Y1094557D01*
X3222950Y930696D01*
X3221730Y928497D01*
X3256674Y930115D01*
X3259309Y929409D01*
X3295521Y930686D01*
X3373911Y930911D01*
X3409758Y930823D01*
X3448703Y931368D01*
X3475683Y944636D01*
X3490370Y961199D01*
X3501691Y981591D01*
X3517341Y1004483D01*
X3526064Y1023376D01*
X3536688Y1032974D01*
X3464229Y926476D02*
X3448703Y931368D01*
X3464229Y926476D02*
X3476193Y913754D01*
X3484827Y896799D01*
X3506657Y868988D01*
X3521719Y856900D01*
X3549282Y823161D01*
X3548181Y931067D02*
X3604750Y929086D01*
X3548181Y931067D02*
X3526726Y930227D01*
X3528655Y942888D01*
X3540975Y961548D01*
X3576642Y1001770D01*
X3577705Y1013931D01*
X3573437Y1025323D01*
X3563839Y1035947D01*
X3551544Y1039242D01*
X3536688Y1032974D01*
D18*
X2753577Y635573D02*
X2753703Y624638D01*
D19*
X2753703Y624638D03*
D18*
X2882655Y697989D02*
X2877316Y708239D01*
D19*
X2882655Y697989D03*
X2923750Y651168D03*
D18*
X2923226Y650901D01*
X2915051Y646736D01*
D19*
X2963274Y585625D03*
D18*
X2953557Y580136D01*
D19*
X2926271Y409535D03*
D18*
X2915864Y411292D01*
D19*
X2892886Y293710D03*
D18*
X2883898Y288345D01*
D19*
X3001164Y515252D03*
D18*
X2999753Y515617D01*
X2991986Y513536D01*
X3110476Y533226D02*
X3113344Y543205D01*
D19*
X3113544Y543900D03*
D18*
X3113344Y543205D01*
X3232763Y500986D02*
X3236199Y512345D01*
D19*
X3236199Y512345D03*
X3039955Y452441D03*
D18*
X3030392Y446836D01*
X3068998Y380236D02*
X3070364Y380602D01*
X3079345Y384666D01*
D19*
X3079345Y384666D03*
D18*
X3117137Y320124D02*
X3107304Y313636D01*
D19*
X3117137Y320124D03*
X3073716Y178916D03*
D18*
X3062513Y172158D01*
D19*
X3155160Y251982D03*
D18*
X3145822Y247136D01*
D19*
X3193184Y183841D03*
D18*
X3183978Y179580D01*
X3245218Y283626D02*
X3249122Y294729D01*
D19*
X3249122Y294729D03*
D20*
X3020743Y483164D02*
X3012503Y478697D01*
D19*
X3020743Y483164D03*
X2940865Y622812D03*
X3097192Y353578D03*
D20*
X3156263Y228675D02*
X3166615Y233822D01*
D19*
X3166615Y233822D03*
D22*
X2963274Y585625D02*
X2940865Y622812D01*
X2923226Y650901D01*
D19*
X2891985Y704149D03*
D22*
X2896047Y697185D01*
D19*
X2896047Y697185D03*
D22*
X2900109Y690221D01*
D19*
X2900109Y690221D03*
D22*
X2923226Y650901D01*
X2963274Y585625D02*
X2965702Y573831D01*
X2962800Y562805D01*
X2952264Y536556D01*
X2944326Y508807D01*
X2938817Y469265D01*
X2926271Y409535D01*
X2892886Y293710D01*
X2973166Y578759D02*
X2963274Y585625D01*
X2973166Y578759D02*
X3001879Y564491D01*
X3027530Y558920D01*
X3113344Y543205D01*
X3113544Y543900D02*
X3236199Y512345D01*
X3248823Y506211D01*
X3256082Y492783D01*
X3255144Y477159D01*
X3247644Y464168D01*
X3237814Y457142D01*
X3225787Y458312D01*
X3003678Y515295D01*
X3001164Y515252D01*
X3020037Y485798D01*
X3020743Y483164D01*
X3039955Y452441D01*
X3079345Y384666D01*
X3097192Y353578D01*
X3117137Y320124D01*
X3142117Y303391D01*
X3163804Y298954D01*
X3187125Y299346D01*
X3214775Y297238D01*
X3235498Y299131D01*
X3249122Y294729D01*
X3120663Y304231D02*
X3117137Y320124D01*
X3120663Y304231D02*
X3115627Y287509D01*
X3105261Y271554D01*
X3092091Y238743D01*
X3089153Y219655D01*
X3073716Y178916D01*
X3166615Y233822D02*
X3193184Y183841D01*
X3166615Y233822D02*
X3155160Y251982D01*
X3167089Y256643D01*
X3189409Y255303D01*
X3242076Y244525D01*
X3253139Y249686D01*
X3260871Y259078D01*
X3265273Y272702D01*
X3261978Y284997D01*
X3249122Y294729D01*
X2391566Y234891D02*
X2382000Y234646D01*
X2391566Y234891D02*
X2410566Y212891D01*
X2417566Y199891D01*
X2417566Y168891D01*
X2423566Y156891D01*
X2432566Y152891D01*
X2445566Y148891D01*
X2455000Y149646D01*
X2404000Y511646D02*
X2431566Y529891D01*
X2531566Y556891D01*
X2555000Y556646D01*
X2648000Y294646D02*
X2645566Y276891D01*
X2633566Y266891D01*
X2618566Y266891D01*
X2606566Y272891D01*
X2599566Y283891D01*
X2565566Y403891D01*
X2563566Y415891D01*
X2565566Y435891D01*
X2549566Y492891D01*
X2534294Y497490D01*
D19*
X2983517Y743178D03*
D23*
X3015106Y761891D01*
X3015517Y798603D01*
D19*
X3015517Y798603D03*
X3007723Y803103D03*
X3020017Y806398D03*
X2975723Y747678D03*
X2979017Y735384D03*
X3015517Y1027178D03*
D23*
X3015106Y1063891D01*
X2983517Y1082603D01*
D19*
X2983517Y1082603D03*
X2975723Y1078103D03*
X2979017Y1090398D03*
X3007723Y1022678D03*
X3020017Y1019384D03*
X2523615Y1082603D03*
D23*
X2492026Y1063891D01*
X2491615Y1027178D01*
D19*
X2491615Y1027178D03*
X2499409Y1022678D03*
X2487115Y1019384D03*
X2531409Y1078103D03*
X2528115Y1090398D03*
X2785566Y1196891D03*
D23*
X2753566Y1214891D01*
X2721566Y1196891D01*
D19*
X2721566Y1196891D03*
X2721566Y1187891D03*
X2712566Y1196891D03*
X2785566Y1187891D03*
X2794566Y1196891D03*
X2491615Y798603D03*
D23*
X2492026Y761891D01*
D19*
X2499409Y803103D03*
X2487115Y806398D03*
X2721566Y628891D03*
D23*
X2753566Y610891D01*
X2785566Y628891D01*
D19*
X2785566Y628891D03*
X2785566Y637891D03*
X2794566Y628891D03*
X2721566Y637891D03*
X2712566Y628891D03*
D24*
X2312566Y107891D02*
X2293667Y79684D01*
D19*
X2312566Y107891D03*
D25*
X2319372Y81638D02*
X2293667Y79684D01*
D19*
X2319372Y81638D03*
D25*
X2311559Y66012D02*
X2293667Y79684D01*
D19*
X2311559Y66012D03*
D25*
X2303746Y50386D02*
X2293667Y79684D01*
D19*
X2303746Y50386D03*
D25*
X2273566Y48891D02*
X2293667Y79684D01*
D19*
X2273566Y48891D03*
D25*
X2287583Y41548D02*
X2293667Y79684D01*
D19*
X2287583Y41548D03*
D21*
X2322279Y97264D02*
X2327185Y97264D01*
X2322279Y97264D02*
X2299079Y85096D01*
X2293667Y79684D01*
D19*
X2327185Y97264D03*
D24*
X2312566Y107891D01*
D21*
X2327185Y97264D02*
X2319372Y81638D01*
X2311559Y66012D01*
X2303746Y50386D01*
X2287583Y41548D01*
X2273566Y48891D01*
D22*
X2327185Y151956D02*
X2342000Y167646D01*
D19*
X2327185Y151956D03*
D18*
X912552Y624551D02*
X912426Y635486D01*
D19*
X912552Y624551D03*
D18*
X1041504Y697902D02*
X1036165Y708152D01*
D19*
X1041504Y697902D03*
X1082599Y651082D03*
D18*
X1082075Y650815D01*
X1073900Y646649D01*
D19*
X1122123Y585539D03*
D18*
X1112406Y580049D01*
D19*
X1085120Y409448D03*
D18*
X1074713Y411205D01*
D19*
X1051735Y293624D03*
D18*
X1042747Y288258D01*
D19*
X1160013Y515166D03*
D18*
X1158602Y515531D01*
X1150835Y513449D01*
X1269325Y533140D02*
X1272193Y543118D01*
D19*
X1272393Y543814D03*
D18*
X1272193Y543118D01*
X1391612Y500900D02*
X1395048Y512259D01*
D19*
X1395048Y512259D03*
X1198804Y452355D03*
D18*
X1189241Y446749D01*
X1227847Y380149D02*
X1229213Y380515D01*
X1238194Y384580D01*
D19*
X1238194Y384580D03*
D18*
X1275986Y320037D02*
X1266153Y313549D01*
D19*
X1275986Y320037D03*
X1232565Y178829D03*
D18*
X1221362Y172071D01*
D19*
X1314009Y251896D03*
D18*
X1304671Y247049D01*
D19*
X1352033Y183755D03*
D18*
X1342827Y179493D01*
X1404067Y283540D02*
X1407971Y294642D01*
D19*
X1407971Y294642D03*
D20*
X1179592Y483077D02*
X1171352Y478610D01*
D19*
X1179592Y483077D03*
X1099714Y622725D03*
X1256041Y353491D03*
D20*
X1315112Y228588D02*
X1325464Y233736D01*
D19*
X1325464Y233736D03*
D21*
X1122123Y585539D02*
X1099714Y622725D01*
X1082075Y650815D01*
D19*
X1050834Y704063D03*
D22*
X1054896Y697098D01*
D19*
X1054896Y697098D03*
D22*
X1058958Y690134D01*
D19*
X1058958Y690134D03*
D21*
X1082075Y650815D01*
D22*
X1122123Y585539D02*
X1124551Y573745D01*
X1121649Y562718D01*
X1085120Y409448D02*
X1051735Y293624D01*
X1132015Y578673D02*
X1122123Y585539D01*
X1132015Y578673D02*
X1160728Y564405D01*
X1186379Y558833D01*
X1272193Y543118D01*
X1272393Y543814D02*
X1395048Y512259D01*
X1162527Y515208D02*
X1160013Y515166D01*
X1178886Y485712D01*
X1179592Y483077D01*
X1198804Y452355D01*
X1238194Y384580D01*
X1256041Y353491D01*
X1275986Y320037D01*
X1300966Y303305D01*
X1322653Y298867D01*
X1345974Y299259D01*
X1373624Y297152D01*
X1394347Y299044D01*
X1407971Y294642D01*
X1279512Y304145D02*
X1275986Y320037D01*
X1279512Y304145D02*
X1274476Y287422D01*
X1256136Y259195D01*
X1234992Y206518D01*
X1231400Y183176D01*
X1232565Y178829D01*
X1325464Y233736D02*
X1352033Y183755D01*
X1325464Y233736D02*
X1314009Y251896D01*
X1420827Y284910D02*
X1424122Y272616D01*
X1420827Y284910D02*
X1407971Y294642D01*
D18*
X672257Y774136D02*
X662849Y768559D01*
D19*
X662849Y768559D03*
D18*
X790849Y693559D02*
X797056Y703308D01*
D19*
X790849Y693559D03*
X770849Y634559D03*
D18*
X770356Y634879D01*
X762661Y639877D01*
D19*
X733849Y567559D03*
D18*
X724236Y573230D01*
D19*
X562849Y511559D03*
D18*
X559167Y521451D01*
D19*
X445849Y482559D03*
D18*
X436709Y487661D01*
D19*
X691849Y499559D03*
D18*
X691460Y500963D01*
X685774Y506649D01*
X762071Y413879D02*
X772146Y416384D01*
D19*
X772849Y416559D03*
D18*
X772146Y416384D01*
X795294Y291855D02*
X806849Y294559D01*
D19*
X806849Y294559D03*
X656849Y434559D03*
D18*
X647213Y440038D01*
X608839Y373305D02*
X609839Y372305D01*
X617849Y366559D01*
D19*
X617849Y366559D03*
D18*
X580849Y301559D02*
X570314Y306831D01*
D19*
X580849Y301559D03*
X436849Y268559D03*
D18*
X425395Y274882D01*
D19*
X540849Y234559D03*
D18*
X531982Y240223D01*
D19*
X500849Y167559D03*
D18*
X492555Y173401D01*
X613282Y172389D02*
X624849Y174559D01*
D19*
X624849Y174559D03*
D20*
X673849Y466559D02*
X665861Y471461D01*
D19*
X673849Y466559D03*
X754849Y605559D03*
X599849Y335559D03*
D20*
X521215Y221951D02*
X530849Y215559D01*
D19*
X530849Y215559D03*
D22*
X733849Y567559D02*
X754849Y605559D01*
X770356Y634879D01*
D19*
X800849Y688559D03*
D22*
X796849Y681559D01*
D19*
X796849Y681559D03*
D22*
X792849Y674559D01*
D19*
X792849Y674559D03*
D22*
X770356Y634879D01*
X733849Y567559D02*
X724849Y559559D01*
X713849Y556559D01*
X685849Y552559D01*
X657849Y545559D01*
X620849Y530559D01*
X562849Y511559D01*
X445849Y482559D01*
X732849Y555559D02*
X733849Y567559D01*
X732849Y555559D02*
X734849Y523559D01*
X742849Y498559D01*
X772146Y416384D01*
X772849Y416559D02*
X806849Y294559D01*
X807849Y280559D01*
X799849Y267559D01*
X785849Y260559D01*
X770849Y260559D01*
X759849Y265559D01*
X754849Y276559D01*
X693143Y497403D01*
X691849Y499559D01*
X675778Y468488D01*
X673849Y466559D01*
X656849Y434559D01*
X617849Y366559D01*
X599849Y335559D01*
X580849Y301559D01*
X578849Y271559D01*
X585849Y250559D01*
X597849Y230559D01*
X609849Y205559D01*
X621849Y188559D01*
X624849Y174559D01*
X568849Y290559D02*
X580849Y301559D01*
X568849Y290559D02*
X551849Y286559D01*
X532849Y287559D01*
X497849Y282559D01*
X479849Y275559D01*
X436849Y268559D01*
X530849Y215559D02*
X500849Y167559D01*
X530849Y215559D02*
X540849Y234559D01*
X550849Y226559D01*
X560849Y206559D01*
X577849Y155559D01*
X587849Y148559D01*
X599849Y146559D01*
X613849Y149559D01*
X622849Y158559D01*
X624849Y174559D01*
D18*
X672245Y1051453D02*
X662712Y1056812D01*
D19*
X662712Y1056812D03*
D18*
X661760Y908461D02*
X673306Y907960D01*
D19*
X661760Y908461D03*
X600665Y896281D03*
D18*
X600696Y896868D01*
X601176Y906031D01*
D19*
X524141Y894824D03*
D18*
X524246Y905984D01*
D19*
X390144Y1014915D03*
D18*
X396869Y1023049D01*
D19*
X306529Y1101739D03*
D18*
X306377Y1112206D01*
D19*
X444251Y897197D03*
D18*
X445273Y898236D01*
X447354Y906003D01*
X405161Y793543D02*
X412369Y786070D01*
D19*
X412871Y785549D03*
D18*
X412369Y786070D01*
X316097Y703760D02*
X324216Y695104D01*
D19*
X324216Y695104D03*
X370460Y895008D03*
D18*
X370387Y906093D01*
X293407Y905959D02*
X293041Y904593D01*
X292070Y894783D01*
D19*
X292070Y894783D03*
D18*
X217278Y894326D02*
X216577Y906085D01*
D19*
X217278Y894326D03*
X116700Y1002534D03*
D18*
X116448Y1015615D01*
D19*
X139255Y895467D03*
D18*
X139727Y905978D01*
D19*
X61231Y896608D03*
D18*
X62143Y906712D01*
X121630Y801654D02*
X129293Y792721D01*
D19*
X129293Y792721D03*
D20*
X406673Y896286D02*
X406924Y905655D01*
D19*
X406673Y896286D03*
X567550Y895638D03*
X256223Y894872D03*
D20*
X118518Y906166D02*
X117800Y894627D01*
D19*
X117800Y894627D03*
D22*
X524141Y894824D02*
X567550Y895638D01*
X600696Y896868D01*
D19*
X662430Y897300D03*
D22*
X654368Y897265D01*
D19*
X654368Y897265D03*
D22*
X646306Y897229D01*
D19*
X646306Y897229D03*
D22*
X600696Y896868D01*
X524141Y894824D02*
X512713Y898618D01*
X504615Y906645D01*
X487151Y928893D01*
X467089Y949642D01*
X435598Y974185D01*
X390144Y1014915D01*
X306529Y1101739D01*
X513249Y889690D02*
X524141Y894824D01*
X513249Y889690D02*
X486536Y871958D01*
X468885Y852530D01*
X412369Y786070D01*
X412871Y785549D02*
X324216Y695104D01*
X312592Y687238D01*
X297334Y687667D01*
X284271Y696291D01*
X276771Y709281D01*
X275601Y721308D01*
X282628Y731138D01*
X443031Y894999D01*
X444251Y897197D01*
X409307Y895580D01*
X406673Y896286D01*
X370460Y895008D01*
X292070Y894783D01*
X256223Y894872D01*
X217278Y894326D01*
X190298Y881058D01*
X175611Y864496D01*
X164291Y844104D01*
X148640Y821211D01*
X139917Y802319D01*
X129293Y792721D01*
X201752Y899218D02*
X217278Y894326D01*
X201752Y899218D02*
X189788Y911941D01*
X181154Y928895D01*
X159324Y956706D01*
X144262Y968795D01*
X116700Y1002534D01*
X117800Y894627D02*
X61231Y896608D01*
X117800Y894627D02*
X139255Y895467D01*
X137326Y882807D01*
X125006Y864147D01*
X89339Y823924D01*
X88277Y811764D01*
X92544Y800372D01*
X102143Y789747D01*
X114437Y786453D01*
X129293Y792721D01*
D18*
X912404Y1190121D02*
X912278Y1201057D01*
D19*
X912278Y1201057D03*
D18*
X783326Y1127706D02*
X788665Y1117456D01*
D19*
X783326Y1127706D03*
X742231Y1174526D03*
D18*
X742755Y1174793D01*
X750930Y1178959D01*
D19*
X702707Y1240069D03*
D18*
X712424Y1245559D01*
D19*
X739710Y1416160D03*
D18*
X750117Y1414403D01*
D19*
X773095Y1531984D03*
D18*
X782083Y1537349D01*
D19*
X664817Y1310442D03*
D18*
X666228Y1310077D01*
X673995Y1312159D01*
X555505Y1292468D02*
X552637Y1282490D01*
D19*
X552437Y1281794D03*
D18*
X552637Y1282490D01*
X433218Y1324708D02*
X429782Y1313349D01*
D19*
X429782Y1313349D03*
X626026Y1373253D03*
D18*
X635589Y1378859D01*
X596983Y1445459D02*
X595617Y1445093D01*
X586636Y1441028D01*
D19*
X586636Y1441028D03*
D18*
X548844Y1505571D02*
X558677Y1512059D01*
D19*
X548844Y1505571D03*
X592266Y1646779D03*
D18*
X603468Y1653537D01*
D19*
X510821Y1573712D03*
D18*
X520160Y1578559D01*
D19*
X472797Y1641853D03*
D18*
X482003Y1646115D01*
X420764Y1542068D02*
X416859Y1530966D01*
D19*
X416859Y1530966D03*
D20*
X645239Y1342531D02*
X653478Y1346998D01*
D19*
X645239Y1342531D03*
X725116Y1202883D03*
X568789Y1472117D03*
D20*
X509718Y1597020D02*
X499366Y1591872D01*
D19*
X499366Y1591872D03*
D22*
X702707Y1240069D02*
X725116Y1202883D01*
X742755Y1174793D01*
D19*
X773996Y1121545D03*
D22*
X769934Y1128510D01*
D19*
X769934Y1128510D03*
D22*
X765872Y1135474D01*
D19*
X765872Y1135474D03*
D22*
X742755Y1174793D01*
X702707Y1240069D02*
X700279Y1251863D01*
X703181Y1262890D01*
X713717Y1289138D01*
X721655Y1316887D01*
X727164Y1356430D01*
X739710Y1416160D01*
X773095Y1531984D01*
X692815Y1246935D02*
X702707Y1240069D01*
X692815Y1246935D02*
X664102Y1261203D01*
X638451Y1266775D01*
X552637Y1282490D01*
X552437Y1281794D02*
X429782Y1313349D01*
X417158Y1319483D01*
X409900Y1332911D01*
X410837Y1348536D01*
X418337Y1361526D01*
X428167Y1368553D01*
X440194Y1367383D01*
X662304Y1310400D01*
X664817Y1310442D01*
X645944Y1339896D01*
X645239Y1342531D01*
X626026Y1373253D01*
X586636Y1441028D01*
X568789Y1472117D01*
X548844Y1505571D01*
X523864Y1522303D01*
X502177Y1526741D01*
X478857Y1526349D01*
X451206Y1528456D01*
X430483Y1526564D01*
X416859Y1530966D01*
X545318Y1521463D02*
X548844Y1505571D01*
X545318Y1521463D02*
X550354Y1538186D01*
X560720Y1554140D01*
X573890Y1586951D01*
X576828Y1606040D01*
X592266Y1646779D01*
X499366Y1591872D02*
X472797Y1641853D01*
X499366Y1591872D02*
X510821Y1573712D01*
X498892Y1569052D01*
X476572Y1570392D01*
X423905Y1581169D01*
X412842Y1576009D01*
X405110Y1566617D01*
X400709Y1552992D01*
X404003Y1540698D01*
X416859Y1530966D01*
D18*
X1152574Y1051472D02*
X1161981Y1057049D01*
D19*
X1161981Y1057049D03*
D18*
X1033981Y1132049D02*
X1027774Y1122300D01*
D19*
X1033981Y1132049D03*
X1053981Y1191049D03*
D18*
X1054474Y1190729D01*
X1062169Y1185731D01*
D19*
X1090981Y1258049D03*
D18*
X1100594Y1252378D01*
D19*
X1261981Y1314049D03*
D18*
X1265663Y1304157D01*
D19*
X1378981Y1343049D03*
D18*
X1388121Y1337947D01*
D19*
X1132981Y1326049D03*
D18*
X1133370Y1324645D01*
X1139056Y1318959D01*
X1062759Y1411729D02*
X1052684Y1409224D01*
D19*
X1051981Y1409049D03*
D18*
X1052684Y1409224D01*
X1029536Y1533753D02*
X1017981Y1531049D01*
D19*
X1017981Y1531049D03*
X1167981Y1391049D03*
D18*
X1177617Y1385570D01*
X1215992Y1452303D02*
X1214991Y1453303D01*
X1206981Y1459049D01*
D19*
X1206981Y1459049D03*
D18*
X1243981Y1524049D02*
X1254516Y1518777D01*
D19*
X1243981Y1524049D03*
X1387981Y1557049D03*
D18*
X1399435Y1550726D01*
D19*
X1283981Y1591049D03*
D18*
X1292848Y1585385D01*
D19*
X1323981Y1658049D03*
D18*
X1332275Y1652207D01*
X1211548Y1653219D02*
X1199981Y1651049D01*
D19*
X1199981Y1651049D03*
D20*
X1150981Y1359049D02*
X1158970Y1354147D01*
D19*
X1150981Y1359049D03*
X1069981Y1220049D03*
X1224981Y1490049D03*
D20*
X1303615Y1603657D02*
X1293981Y1610049D01*
D19*
X1293981Y1610049D03*
D22*
X1090981Y1258049D02*
X1069981Y1220049D01*
X1054474Y1190729D01*
D19*
X1023981Y1137049D03*
D22*
X1027981Y1144049D01*
D19*
X1027981Y1144049D03*
D22*
X1031981Y1151049D01*
D19*
X1031981Y1151049D03*
D22*
X1054474Y1190729D01*
X1090981Y1258049D02*
X1099981Y1266049D01*
X1110981Y1269049D01*
X1138981Y1273049D01*
X1166981Y1280049D01*
X1203981Y1295049D01*
X1261981Y1314049D01*
X1378981Y1343049D01*
X1091981Y1270049D02*
X1090981Y1258049D01*
X1091981Y1270049D02*
X1089981Y1302049D01*
X1081981Y1327049D01*
X1052684Y1409224D01*
X1051981Y1409049D02*
X1017981Y1531049D01*
X1016981Y1545049D01*
X1024981Y1558049D01*
X1038981Y1565049D01*
X1053981Y1565049D01*
X1064981Y1560049D01*
X1069981Y1549049D01*
X1131687Y1328205D01*
X1132981Y1326049D01*
X1149052Y1357120D01*
X1150981Y1359049D01*
X1167981Y1391049D01*
X1206981Y1459049D01*
X1224981Y1490049D01*
X1243981Y1524049D01*
X1245981Y1554049D01*
X1238981Y1575049D01*
X1226981Y1595049D01*
X1214981Y1620049D01*
X1202981Y1637049D01*
X1199981Y1651049D01*
X1255981Y1535049D02*
X1243981Y1524049D01*
X1255981Y1535049D02*
X1272981Y1539049D01*
X1291981Y1538049D01*
X1326981Y1543049D01*
X1344981Y1550049D01*
X1387981Y1557049D01*
X1293981Y1610049D02*
X1323981Y1658049D01*
X1293981Y1610049D02*
X1283981Y1591049D01*
X1273981Y1599049D01*
X1263981Y1619049D01*
X1246981Y1670049D01*
X1236981Y1677049D01*
X1224981Y1679049D01*
X1210981Y1676049D01*
X1201981Y1667049D01*
X1199981Y1651049D01*
D18*
X1152585Y774155D02*
X1162118Y768796D01*
D19*
X1162118Y768796D03*
D18*
X1163070Y917147D02*
X1151524Y917648D01*
D19*
X1163070Y917147D03*
X1224165Y929327D03*
D18*
X1224134Y928740D01*
X1223654Y919577D01*
D19*
X1300689Y930784D03*
D18*
X1300584Y919624D01*
D19*
X1434686Y810693D03*
D18*
X1427961Y802559D01*
D19*
X1518301Y723868D03*
D18*
X1518453Y713402D01*
D19*
X1380579Y928411D03*
D18*
X1379557Y927372D01*
X1377476Y919605D01*
X1419669Y1032065D02*
X1412461Y1039538D01*
D19*
X1411959Y1040059D03*
D18*
X1412461Y1039538D01*
X1508733Y1121848D02*
X1500614Y1130504D01*
D19*
X1500614Y1130504D03*
X1454370Y930600D03*
D18*
X1454443Y919515D01*
X1531423Y919649D02*
X1531789Y921015D01*
X1532760Y930825D01*
D19*
X1532760Y930825D03*
D18*
X1607552Y931282D02*
X1608254Y919523D01*
D19*
X1607552Y931282D03*
X1708131Y823074D03*
D18*
X1708382Y809993D01*
D19*
X1685575Y930141D03*
D18*
X1685103Y919630D01*
D19*
X1763599Y929000D03*
D18*
X1762687Y918896D01*
X1703200Y1023954D02*
X1695537Y1032887D01*
D19*
X1695537Y1032887D03*
D20*
X1418158Y929322D02*
X1417907Y919953D01*
D19*
X1418158Y929322D03*
X1257280Y929970D03*
X1568607Y930736D03*
D20*
X1706312Y919442D02*
X1707030Y930981D01*
D19*
X1707030Y930981D03*
D22*
X1300689Y930784D02*
X1257280Y929970D01*
X1224134Y928740D01*
D19*
X1162400Y928307D03*
D22*
X1170462Y928343D01*
D19*
X1170462Y928343D03*
D22*
X1178524Y928379D01*
D19*
X1178524Y928379D03*
D22*
X1224134Y928740D01*
X1300689Y930784D02*
X1312117Y926990D01*
X1320215Y918963D01*
X1337679Y896715D01*
X1357742Y875966D01*
X1389232Y851423D01*
X1434686Y810693D01*
X1518301Y723868D01*
X1311581Y935918D02*
X1300689Y930784D01*
X1311581Y935918D02*
X1338294Y953650D01*
X1355945Y973078D01*
X1412461Y1039538D01*
X1411959Y1040059D02*
X1500614Y1130504D01*
X1512238Y1138370D01*
X1527497Y1137941D01*
X1540559Y1129317D01*
X1548059Y1116327D01*
X1549229Y1104300D01*
X1542202Y1094470D01*
X1381799Y930609D01*
X1380579Y928411D01*
X1415523Y930028D01*
X1418158Y929322D01*
X1454370Y930600D01*
X1532760Y930825D01*
X1568607Y930736D01*
X1607552Y931282D01*
X1634532Y944550D01*
X1649219Y961112D01*
X1660540Y981504D01*
X1676190Y1004397D01*
X1684913Y1023289D01*
X1695537Y1032887D01*
X1623078Y926390D02*
X1607552Y931282D01*
X1623078Y926390D02*
X1635042Y913667D01*
X1643676Y896713D01*
X1665506Y868902D01*
X1680568Y856813D01*
X1708131Y823074D01*
X1707030Y930981D02*
X1763599Y929000D01*
X1707030Y930981D02*
X1685575Y930141D01*
X1687504Y942801D01*
X1699824Y961461D01*
X1735491Y1001684D01*
X1736554Y1013844D01*
X1732286Y1025236D01*
X1722688Y1035861D01*
X1710393Y1039155D01*
X1695537Y1032887D01*
X1318580Y260303D02*
X1314009Y251896D01*
X1318580Y260303D02*
X1347133Y265757D01*
X1361891Y265319D01*
X1388738Y249819D01*
X1402130Y249016D01*
X1410094Y254810D01*
X1420058Y264068D01*
X1424122Y272616D01*
X1085120Y409448D02*
X1083103Y442444D01*
X1109720Y542546D01*
X1121649Y562718D01*
X1395048Y512259D02*
X1409207Y501273D01*
X1411867Y485881D01*
X1404367Y472891D01*
X1393171Y465498D01*
X1380145Y464936D01*
X1259222Y495491D01*
X1247830Y499759D01*
X1231509Y511491D01*
X1174146Y526135D01*
X1162527Y515208D01*
D19*
X1174366Y1027091D03*
D23*
X1173955Y1063804D01*
X1142366Y1082517D01*
D19*
X1142366Y1082517D03*
X1134572Y1078017D03*
X1137866Y1090311D03*
X1166572Y1022591D03*
X1178866Y1019297D03*
X944415Y1196804D03*
D23*
X912415Y1214804D01*
X880415Y1196804D01*
D19*
X880415Y1196804D03*
X880415Y1187804D03*
X871415Y1196804D03*
X944415Y1187804D03*
X953415Y1196804D03*
X650464Y798517D03*
D23*
X650875Y761804D01*
X682464Y743091D01*
D19*
X682464Y743091D03*
X690258Y747591D03*
X686964Y735297D03*
X658258Y803017D03*
X645964Y806311D03*
X682464Y1082517D03*
D23*
X650875Y1063804D01*
X650464Y1027091D01*
D19*
X650464Y1027091D03*
X658258Y1022591D03*
X645964Y1019297D03*
X690258Y1078017D03*
X686964Y1090311D03*
X880415Y628804D03*
D23*
X912415Y610804D01*
D19*
X880415Y637804D03*
X871415Y628804D03*
X1142366Y743091D03*
D23*
X1173955Y761804D01*
X1174366Y798517D01*
D19*
X1174366Y798517D03*
X1166572Y803017D03*
X1178866Y806311D03*
X1134572Y747591D03*
X1137866Y735297D03*
D24*
X1389065Y128387D02*
X1404044Y97916D01*
D19*
X1389065Y128387D03*
D25*
X1415204Y121155D02*
X1404044Y97916D01*
D19*
X1415204Y121155D03*
D25*
X1424830Y106575D02*
X1404044Y97916D01*
D19*
X1424830Y106575D03*
D25*
X1434456Y91996D02*
X1404044Y97916D01*
D19*
X1434456Y91996D03*
D25*
X1420661Y65112D02*
X1404044Y97916D01*
D19*
X1420661Y65112D03*
D25*
X1434028Y73580D02*
X1404044Y97916D01*
D19*
X1434028Y73580D03*
D21*
X1403124Y131485D02*
X1405578Y135734D01*
X1403124Y131485D02*
X1402063Y105309D01*
X1404044Y97916D01*
D19*
X1405578Y135734D03*
D24*
X1389065Y128387D01*
D21*
X1405578Y135734D02*
X1415204Y121155D01*
X1424830Y106575D01*
X1434456Y91996D01*
X1434028Y73580D01*
X1420661Y65112D01*
D22*
X1358213Y163080D02*
X1352033Y183755D01*
D19*
X1358213Y163080D03*
D25*
X1407971Y294642D02*
X1427000Y291000D01*
X1440000Y265000D01*
X1763800Y247000D02*
X1870800Y140000D01*
X1448479Y260662D02*
X1445000Y262000D01*
X1455836Y260662D02*
X1469498Y247000D01*
X1455836Y260662D02*
X1448479Y260662D01*
X1445000Y262000D02*
X1440000Y265000D01*
X1469498Y247000D02*
X1763800Y247000D01*
D19*
X2534000Y785646D03*
D18*
X2525043Y780940D01*
D19*
X2644000Y721646D03*
D18*
X2592177Y646681D02*
X2583000Y651646D01*
D19*
X2583000Y651646D03*
D18*
X2545000Y585646D02*
X2553752Y580034D01*
D19*
X2545000Y585646D03*
D18*
X2394000Y545646D02*
X2396840Y534515D01*
D19*
X2394000Y545646D03*
D18*
X2271000Y511646D02*
X2274382Y500724D01*
D19*
X2271000Y511646D03*
D18*
X2512000Y525646D02*
X2515290Y513453D01*
D19*
X2512000Y525646D03*
X2580000Y407646D03*
D18*
X2590245Y410488D01*
D19*
X2613000Y294646D03*
D18*
X2623468Y288465D01*
X2476729Y446842D02*
X2468000Y451646D01*
D19*
X2468000Y451646D03*
X2429000Y385646D03*
D18*
X2438354Y380109D01*
D19*
X2391000Y318646D03*
D18*
X2399830Y313635D01*
X2263069Y287946D02*
X2261000Y299646D01*
D19*
X2261000Y299646D03*
D18*
X2359000Y257646D02*
X2361498Y247028D01*
D19*
X2359000Y257646D03*
D18*
X2315000Y186646D02*
X2322071Y180205D01*
D19*
X2315000Y186646D03*
X2433000Y175646D03*
D18*
X2441456Y168998D01*
D20*
X2494887Y478548D02*
X2485000Y484646D01*
D19*
X2485000Y484646D03*
X2566000Y622646D03*
X2409000Y353646D03*
D20*
X2341000Y234646D02*
X2350242Y229037D01*
D19*
X2341000Y234646D03*
D22*
X2315000Y186646D01*
X2341000Y234646D02*
X2352000Y252646D01*
X2359000Y257646D01*
X2372000Y261646D01*
X2384000Y260646D01*
X2395000Y253646D01*
X2423846Y220953D01*
X2433000Y202646D01*
X2433000Y175646D01*
X2275000Y247646D02*
X2259000Y251646D01*
X2250000Y261646D01*
X2247000Y277646D01*
X2250000Y288646D01*
X2261000Y299646D01*
X2391000Y318646D01*
X2409000Y353646D01*
X2429000Y385646D01*
X2468000Y451646D01*
X2485000Y484646D01*
X2505000Y520646D01*
X2512000Y525646D01*
X2528000Y529646D01*
X2540000Y528646D01*
X2549000Y522646D01*
X2580000Y407646D02*
X2613000Y294646D01*
X2285000Y459646D02*
X2265000Y466646D01*
X2257000Y476646D01*
X2255000Y489646D01*
X2260000Y502646D01*
X2271000Y511646D01*
X2394000Y545646D01*
X2545000Y585646D01*
X2566000Y622646D01*
X2583000Y651646D01*
X2629000Y731646D01*
D19*
X2629000Y731646D03*
D22*
X2633000Y738646D01*
D19*
X2633000Y738646D03*
D22*
X2637000Y745646D01*
D19*
X2637000Y745646D03*
D18*
X2644000Y721646D02*
X2634730Y716371D01*
D19*
X2533586Y1039418D03*
D18*
X2525032Y1044822D01*
D19*
X2533160Y912155D03*
D18*
X2442327Y919553D02*
X2442038Y929983D01*
D19*
X2442038Y929983D03*
D18*
X2365881Y929892D02*
X2365397Y919506D01*
D19*
X2365881Y929892D03*
D18*
X2255740Y1040661D02*
X2247520Y1032636D01*
D19*
X2255740Y1040661D03*
D18*
X2164795Y1130183D02*
X2157028Y1121793D01*
D19*
X2164795Y1130183D03*
D18*
X2297419Y928470D02*
X2288505Y919525D01*
D19*
X2297419Y928470D03*
X2229228Y810581D03*
D18*
X2236812Y803130D01*
D19*
X2147867Y725502D03*
D18*
X2147748Y713346D01*
X2211538Y919615D02*
X2211333Y929575D01*
D19*
X2211333Y929575D03*
X2134675Y930350D03*
D18*
X2134558Y919481D01*
D19*
X2057652Y929759D03*
D18*
X2057727Y919607D01*
X1967099Y1025201D02*
X1976197Y1032843D01*
D19*
X1976197Y1032843D03*
D18*
X1988824Y926972D02*
X1980878Y919500D01*
D19*
X1988824Y926972D03*
D18*
X1905336Y929577D02*
X1903294Y920233D01*
D19*
X1905336Y929577D03*
X1954810Y821886D03*
D18*
X1953281Y811240D01*
D20*
X2248075Y919742D02*
X2248412Y931353D01*
D19*
X2248412Y931353D03*
X2408423Y930205D03*
X2096963Y931671D03*
D20*
X1959906Y931061D02*
X1959669Y920253D01*
D19*
X1959906Y931061D03*
D22*
X1905336Y929577D01*
X1959906Y931061D02*
X1980994Y930534D01*
X1988824Y926972D01*
X1998788Y917714D01*
X2003922Y906822D01*
X2003360Y893795D01*
X1996138Y872305D01*
X1978889Y846181D01*
X1954810Y821886D01*
X1988824Y926972D02*
X1971958Y954185D01*
X1952628Y977666D01*
X1938164Y994718D01*
X1933628Y1010575D01*
X1937788Y1023369D01*
X1950145Y1033967D01*
X1961171Y1036869D01*
X1976197Y1032843D01*
X2057652Y929759D01*
X2096963Y931671D01*
X2134675Y930350D01*
X2211333Y929575D01*
X2248412Y931353D01*
X2289589Y932033D01*
X2297419Y928470D01*
X2308883Y916614D01*
X2314017Y905722D01*
X2313321Y894927D01*
X2305697Y880133D01*
X2292474Y869035D01*
X2251843Y829411D01*
X2229228Y810581D01*
X2147867Y725502D01*
X2297419Y928470D02*
X2267295Y952647D01*
X2126761Y1092058D01*
X2122824Y1112879D01*
X2127484Y1124807D01*
X2137742Y1133039D01*
X2151500Y1135209D01*
X2164795Y1130183D01*
X2255740Y1040661D01*
X2365881Y929892D01*
X2408423Y930205D01*
X2442038Y929983D01*
X2534320Y930145D01*
D19*
X2534320Y930145D03*
D22*
X2542382Y930181D01*
D19*
X2542382Y930181D03*
D22*
X2550445Y930217D01*
D19*
X2550445Y930217D03*
D18*
X2533160Y912155D02*
X2533141Y912166D01*
X2523957Y917546D01*
D19*
X2753152Y1166663D03*
D18*
X2753555Y1176773D01*
D19*
X2642726Y1103400D03*
D18*
X2603716Y1185763D02*
X2612604Y1191228D01*
D19*
X2612604Y1191228D03*
D18*
X2574447Y1257137D02*
X2565211Y1252363D01*
D19*
X2574447Y1257137D03*
D18*
X2615306Y1407906D02*
X2604246Y1411012D01*
D19*
X2615306Y1407906D03*
D18*
X2647361Y1531428D02*
X2636212Y1533959D01*
D19*
X2647361Y1531428D03*
D18*
X2538985Y1315715D02*
X2526781Y1318963D01*
D19*
X2538985Y1315715D03*
X2402794Y1315826D03*
D18*
X2400133Y1305532D01*
D19*
X2288433Y1343747D03*
D18*
X2277846Y1337772D01*
X2488375Y1385663D02*
X2496899Y1390820D01*
D19*
X2496899Y1390820D03*
X2459241Y1457595D03*
D18*
X2449769Y1452263D01*
D19*
X2420218Y1524004D03*
D18*
X2411463Y1518863D01*
X2457596Y1650146D02*
X2468763Y1646088D01*
D19*
X2468763Y1646088D03*
D18*
X2383390Y1582217D02*
X2372946Y1585363D01*
D19*
X2383390Y1582217D03*
D18*
X2343902Y1655822D02*
X2334789Y1652919D01*
D19*
X2343902Y1655822D03*
X2275376Y1559131D03*
D18*
X2265392Y1555132D01*
D20*
X2506753Y1354085D02*
X2516978Y1359598D01*
D19*
X2516978Y1359598D03*
X2595990Y1220450D03*
X2441529Y1490916D03*
D20*
X2372472Y1609306D02*
X2362994Y1604106D01*
D19*
X2372472Y1609306D03*
D22*
X2343902Y1655822D01*
X2372472Y1609306D02*
X2382560Y1590779D01*
X2383390Y1582217D01*
X2380354Y1568959D01*
X2373488Y1559067D01*
X2361926Y1553040D01*
X2339704Y1548550D01*
X2308455Y1550426D01*
X2275376Y1559131D01*
X2383390Y1582217D02*
X2398524Y1610430D01*
X2409194Y1638911D01*
X2416730Y1659963D01*
X2428194Y1671820D01*
X2441354Y1674614D01*
X2456711Y1669212D01*
X2464737Y1661114D01*
X2468763Y1646088D01*
X2420218Y1524004D01*
X2441529Y1490916D01*
X2459241Y1457595D01*
X2496899Y1390820D01*
X2516978Y1359598D01*
X2538155Y1324278D01*
X2538985Y1315715D01*
X2534449Y1299859D01*
X2527583Y1289967D01*
X2517887Y1285172D01*
X2501263Y1284378D01*
X2485040Y1290280D01*
X2430409Y1305656D01*
X2402794Y1315826D01*
X2288433Y1343747D01*
X2538985Y1315715D02*
X2544861Y1353892D01*
X2595327Y1545303D01*
X2611390Y1559124D01*
X2624050Y1561052D01*
X2636308Y1556284D01*
X2645066Y1545454D01*
X2647361Y1531428D01*
X2615306Y1407906D01*
X2574447Y1257137D01*
X2595990Y1220450D01*
X2612604Y1191228D01*
X2658886Y1111390D01*
D19*
X2658886Y1111390D03*
D22*
X2662948Y1104426D01*
D19*
X2662948Y1104426D03*
D22*
X2667011Y1097462D01*
D19*
X2667011Y1097462D03*
D18*
X2642726Y1103400D02*
X2642793Y1114065D01*
D19*
X2973132Y1040136D03*
D18*
X2982089Y1044841D01*
D19*
X2863132Y1104136D03*
D18*
X2914955Y1179100D02*
X2924132Y1174136D01*
D19*
X2924132Y1174136D03*
D18*
X2962132Y1240136D02*
X2953380Y1245747D01*
D19*
X2962132Y1240136D03*
D18*
X3113132Y1280136D02*
X3110292Y1291267D01*
D19*
X3113132Y1280136D03*
D18*
X3236132Y1314136D02*
X3232750Y1325057D01*
D19*
X3236132Y1314136D03*
D18*
X2995132Y1300136D02*
X2991842Y1312328D01*
D19*
X2995132Y1300136D03*
X2927132Y1418136D03*
D18*
X2916887Y1415293D01*
D19*
X2894132Y1531136D03*
D18*
X2883664Y1537316D01*
X3030403Y1378939D02*
X3039132Y1374136D01*
D19*
X3039132Y1374136D03*
X3078132Y1440136D03*
D18*
X3068778Y1445672D01*
D19*
X3116132Y1507136D03*
D18*
X3107302Y1512146D01*
X3244063Y1537835D02*
X3246132Y1526136D01*
D19*
X3246132Y1526136D03*
D18*
X3148132Y1568136D02*
X3145634Y1578754D01*
D19*
X3148132Y1568136D03*
D18*
X3192132Y1639136D02*
X3185061Y1645576D01*
D19*
X3192132Y1639136D03*
X3074132Y1650136D03*
D18*
X3065677Y1656783D01*
D20*
X3012245Y1347234D02*
X3022132Y1341136D01*
D19*
X3022132Y1341136D03*
X2941132Y1203136D03*
X3098132Y1472136D03*
D20*
X3166132Y1591136D02*
X3156890Y1596744D01*
D19*
X3166132Y1591136D03*
D22*
X3192132Y1639136D01*
X3166132Y1591136D02*
X3155132Y1573136D01*
X3148132Y1568136D01*
X3135132Y1564136D01*
X3123132Y1565136D01*
X3112132Y1572136D01*
X3097132Y1589136D01*
X3083132Y1617136D01*
X3074132Y1650136D01*
X3148132Y1568136D02*
X3180132Y1569136D01*
X3210132Y1574136D01*
X3232132Y1578136D01*
X3248132Y1574136D01*
X3257132Y1564136D01*
X3260132Y1548136D01*
X3257132Y1537136D01*
X3246132Y1526136D01*
X3116132Y1507136D01*
X3098132Y1472136D01*
X3078132Y1440136D01*
X3039132Y1374136D01*
X3022132Y1341136D01*
X3002132Y1305136D01*
X2995132Y1300136D01*
X2979132Y1296136D01*
X2967132Y1297136D01*
X2958132Y1303136D01*
X2949132Y1317136D01*
X2946132Y1334136D01*
X2932132Y1389136D01*
X2927132Y1418136D01*
X2894132Y1531136D01*
X2995132Y1300136D02*
X3031132Y1314136D01*
X3222132Y1366136D01*
X3242132Y1359136D01*
X3250132Y1349136D01*
X3252132Y1336136D01*
X3247132Y1323136D01*
X3236132Y1314136D01*
X3113132Y1280136D01*
X2962132Y1240136D01*
X2941132Y1203136D01*
X2924132Y1174136D01*
X2878132Y1094136D01*
D19*
X2878132Y1094136D03*
D22*
X2874132Y1087136D01*
D19*
X2874132Y1087136D03*
D22*
X2870132Y1080136D01*
D19*
X2870132Y1080136D03*
D18*
X2863132Y1104136D02*
X2872402Y1109410D01*
D19*
X2973546Y786363D03*
D18*
X2982101Y780959D01*
D19*
X2973972Y913626D03*
D18*
X3064805Y906228D02*
X3065094Y895799D01*
D19*
X3065094Y895799D03*
D18*
X3141251Y895890D02*
X3141735Y906275D01*
D19*
X3141251Y895890D03*
D18*
X3251393Y785120D02*
X3259612Y793145D01*
D19*
X3251393Y785120D03*
D18*
X3342337Y695599D02*
X3350104Y703988D01*
D19*
X3342337Y695599D03*
D18*
X3209713Y897311D02*
X3218627Y906256D01*
D19*
X3209713Y897311D03*
X3277904Y1015201D03*
D18*
X3270320Y1022652D01*
D19*
X3359265Y1100279D03*
D18*
X3359384Y1112435D01*
X3295594Y906167D02*
X3295799Y896206D01*
D19*
X3295799Y896206D03*
X3372457Y895431D03*
D18*
X3372574Y906300D01*
D19*
X3449480Y896022D03*
D18*
X3449405Y906174D01*
X3540033Y800580D02*
X3530935Y792938D01*
D19*
X3530935Y792938D03*
D18*
X3518308Y898809D02*
X3526254Y906282D01*
D19*
X3518308Y898809D03*
D18*
X3601796Y896204D02*
X3603838Y905548D01*
D19*
X3601796Y896204D03*
X3552322Y1003895D03*
D18*
X3553851Y1014541D01*
D20*
X3259057Y906040D02*
X3258720Y894428D01*
D19*
X3258720Y894428D03*
X3098709Y895576D03*
X3410169Y894110D03*
D20*
X3547226Y894720D02*
X3547463Y905528D01*
D19*
X3547226Y894720D03*
D22*
X3601796Y896204D01*
X3547226Y894720D02*
X3526138Y895247D01*
X3518308Y898809D01*
X3508344Y908067D01*
X3503210Y918960D01*
X3503772Y931986D01*
X3510994Y953476D01*
X3528243Y979601D01*
X3552322Y1003895D01*
X3518308Y898809D02*
X3535174Y871596D01*
X3554504Y848115D01*
X3568968Y831063D01*
X3573504Y815206D01*
X3569344Y802412D01*
X3556987Y791814D01*
X3545961Y788912D01*
X3530935Y792938D01*
X3449480Y896022D01*
X3410169Y894110D01*
X3372457Y895431D01*
X3295799Y896206D01*
X3258720Y894428D01*
X3217543Y893749D01*
X3209713Y897311D01*
X3198249Y909167D01*
X3193115Y920059D01*
X3193811Y930854D01*
X3201435Y945648D01*
X3214658Y956746D01*
X3255289Y996370D01*
X3277904Y1015201D01*
X3359265Y1100279D01*
X3209713Y897311D02*
X3239837Y873134D01*
X3380371Y733723D01*
X3384309Y712903D01*
X3379648Y700974D01*
X3369390Y692742D01*
X3355632Y690572D01*
X3342337Y695599D01*
X3251393Y785120D01*
X3141251Y895890D01*
X3098709Y895576D01*
X3065094Y895799D01*
X2972812Y895636D01*
D19*
X2972812Y895636D03*
D22*
X2964750Y895600D01*
D19*
X2964750Y895600D03*
D22*
X2956687Y895564D01*
D19*
X2956687Y895564D03*
D18*
X2973972Y913626D02*
X2983175Y908235D01*
D19*
X2753980Y659118D03*
D18*
X2753577Y649008D01*
D19*
X2864406Y722381D03*
D18*
X2903416Y640019D02*
X2894528Y634554D01*
D19*
X2894528Y634554D03*
D18*
X2932685Y568645D02*
X2941922Y573418D01*
D19*
X2932685Y568645D03*
D18*
X2891826Y417875D02*
X2902886Y414769D01*
D19*
X2891826Y417875D03*
D18*
X2859771Y294354D02*
X2870921Y291822D01*
D19*
X2859771Y294354D03*
D18*
X2968147Y510066D02*
X2980351Y506818D01*
D19*
X2968147Y510066D03*
X3104338Y509956D03*
D18*
X3106999Y520249D01*
D19*
X3218699Y482034D03*
D18*
X3229286Y488009D01*
X3018757Y440118D02*
X3010233Y434961D01*
D19*
X3010233Y434961D03*
X3047891Y368186D03*
D18*
X3057363Y373518D01*
D19*
X3086914Y301777D03*
D18*
X3095669Y306919D01*
X3049536Y175635D02*
X3038369Y179693D01*
D19*
X3038369Y179693D03*
D18*
X3123742Y243564D02*
X3134186Y240418D01*
D19*
X3123742Y243564D03*
D18*
X3163230Y169959D02*
X3172343Y172862D01*
D19*
X3163230Y169959D03*
X3231756Y266650D03*
D18*
X3241740Y270649D01*
D20*
X3000379Y471697D02*
X2990154Y466183D01*
D19*
X2990154Y466183D03*
X2911143Y605331D03*
X3065603Y334865D03*
D20*
X3134660Y216475D02*
X3144138Y221675D01*
D19*
X3134660Y216475D03*
D22*
X3163230Y169959D01*
X3134660Y216475D02*
X3124572Y235002D01*
X3123742Y243564D01*
X3126778Y256822D01*
X3133644Y266715D01*
X3145206Y272741D01*
X3167428Y277231D01*
X3198677Y275356D01*
X3231756Y266650D01*
X3123742Y243564D02*
X3108608Y215351D01*
X3097938Y186870D01*
X3090402Y165818D01*
X3078938Y153961D01*
X3065778Y151167D01*
X3050421Y156569D01*
X3042395Y164667D01*
X3038369Y179693D01*
X3086914Y301777D01*
X3065603Y334865D01*
X3047891Y368186D01*
X3010233Y434961D01*
X2990154Y466183D01*
X2968977Y501504D01*
X2968147Y510066D01*
X2972683Y525922D01*
X2979549Y535815D01*
X2989245Y540609D01*
X3005869Y541403D01*
X3022092Y535501D01*
X3076723Y520125D01*
X3104338Y509956D01*
X3218699Y482034D01*
X2968147Y510066D02*
X2962271Y471889D01*
X2911805Y280478D01*
X2895743Y266658D01*
X2883082Y264729D01*
X2870824Y269497D01*
X2862066Y280327D01*
X2859771Y294354D01*
X2891826Y417875D01*
X2932685Y568645D01*
X2911143Y605331D01*
X2894528Y634554D01*
X2848246Y714391D01*
D19*
X2848246Y714391D03*
D22*
X2844184Y721355D01*
D19*
X2844184Y721355D03*
D22*
X2840121Y728319D01*
D19*
X2840121Y728319D03*
D18*
X2864406Y722381D02*
X2864339Y711716D01*
D26*
X2840121Y728319D02*
X2754566Y677891D01*
X2637000Y745646D01*
X2554566Y792891D01*
X2550566Y798891D02*
X2550445Y930217D01*
D27*
X2550566Y798891D02*
X2554566Y792891D01*
D26*
X2840121Y728319D02*
X2957566Y794891D01*
X2956566Y804891D02*
X2956687Y895564D01*
D27*
X2956566Y804891D02*
X2957566Y794891D01*
D26*
X2956687Y895564D02*
X2956565Y1030891D01*
X2871852Y1080136D01*
X2870132Y1080136D01*
X2752566Y1147891D01*
X2548566Y1030891D01*
X2549566Y1023891D02*
X2550445Y930217D01*
D27*
X2549566Y1023891D02*
X2548566Y1030891D01*
D22*
X2354566Y266891D02*
X2359000Y257646D01*
X2354566Y266891D02*
X2348566Y270891D01*
X2304566Y262891D01*
X2287809Y254250D01*
X2275000Y247646D01*
X2580000Y407646D02*
X2579566Y418891D01*
X2581566Y435891D01*
X2563566Y502891D01*
X2549000Y522646D01*
X2512000Y525646D02*
X2483566Y527891D01*
X2441566Y516891D01*
X2410566Y495891D01*
X2285000Y459646D01*
X2629000Y731646D02*
X2753980Y659118D01*
X2864406Y722381D01*
X2973546Y786363D01*
X2973972Y913626D01*
X2973132Y1040136D01*
X2863132Y1104136D01*
X2753152Y1166663D01*
X2642726Y1103400D01*
X2533586Y1039418D01*
X2533141Y912166D01*
X2533160Y912155D02*
X2534000Y785646D01*
X2629000Y731646D01*
D19*
X912829Y659032D03*
D18*
X912426Y648921D01*
D19*
X1023255Y722295D03*
D18*
X1062265Y639932D02*
X1053377Y634467D01*
D19*
X1053377Y634467D03*
D18*
X1091534Y568558D02*
X1100771Y573332D01*
D19*
X1091534Y568558D03*
D18*
X1050676Y417788D02*
X1061736Y414682D01*
D19*
X1050676Y417788D03*
D18*
X1018620Y294267D02*
X1029770Y291736D01*
D19*
X1018620Y294267D03*
D18*
X1126996Y509979D02*
X1139200Y506732D01*
D19*
X1126996Y509979D03*
X1263187Y509869D03*
D18*
X1265848Y520162D01*
D19*
X1377548Y481948D03*
D18*
X1388135Y487923D01*
X1177606Y440032D02*
X1169082Y434874D01*
D19*
X1169082Y434874D03*
X1206740Y368099D03*
D18*
X1216212Y373432D01*
D19*
X1245763Y301690D03*
D18*
X1254518Y306832D01*
X1208385Y175549D02*
X1197218Y179607D01*
D19*
X1197218Y179607D03*
D18*
X1282591Y243477D02*
X1293036Y240332D01*
D19*
X1282591Y243477D03*
D18*
X1322079Y169872D02*
X1331192Y172776D01*
D19*
X1322079Y169872D03*
X1390605Y266563D03*
D18*
X1400589Y270562D01*
D20*
X1159228Y471610D02*
X1149003Y466096D01*
D19*
X1149003Y466096D03*
X1069992Y605245D03*
X1224452Y334779D03*
D20*
X1293509Y216389D02*
X1302987Y221588D01*
D19*
X1293509Y216389D03*
D22*
X1322079Y169872D01*
X1293509Y216389D02*
X1283421Y234915D01*
X1282591Y243477D01*
X1285627Y256736D01*
X1292493Y266628D01*
X1304055Y272654D01*
X1346790Y281290D01*
X1367222Y280063D01*
X1390605Y266563D01*
X1249251Y165731D02*
X1237787Y153875D01*
X1224627Y151081D01*
X1209270Y156483D01*
X1201244Y164581D01*
X1197218Y179607D01*
X1245763Y301690D01*
X1224452Y334779D01*
X1206740Y368099D01*
X1169082Y434874D01*
X1149003Y466096D01*
X1127826Y501417D01*
X1126996Y509979D01*
X1131532Y525836D01*
X1138398Y535728D01*
X1148094Y540522D01*
X1263187Y509869D02*
X1377548Y481948D01*
X1070654Y280391D02*
X1054592Y266571D01*
X1041931Y264643D01*
X1029673Y269411D01*
X1020915Y280241D01*
X1018620Y294267D01*
X1050676Y417788D01*
X1091534Y568558D01*
X1069992Y605245D01*
X1053377Y634467D01*
X1007095Y714304D01*
D19*
X1007095Y714304D03*
D22*
X1003033Y721268D01*
D19*
X1003033Y721268D03*
D22*
X998970Y728232D01*
D19*
X998970Y728232D03*
D18*
X1023255Y722295D02*
X1023188Y711629D01*
D19*
X692849Y785559D03*
D18*
X683892Y780853D01*
D19*
X802849Y721559D03*
D18*
X751026Y646594D02*
X741849Y651559D01*
D19*
X741849Y651559D03*
D18*
X703849Y585559D02*
X712601Y579947D01*
D19*
X703849Y585559D03*
D18*
X552849Y545559D02*
X555689Y534428D01*
D19*
X552849Y545559D03*
D18*
X429849Y511559D02*
X433231Y500638D01*
D19*
X429849Y511559D03*
D18*
X670849Y525559D02*
X674139Y513366D01*
D19*
X670849Y525559D03*
X738849Y407559D03*
D18*
X749094Y410401D01*
D19*
X771849Y294559D03*
D18*
X782317Y288378D01*
X635578Y446756D02*
X626849Y451559D01*
D19*
X626849Y451559D03*
X587849Y385559D03*
D18*
X597204Y380022D01*
D19*
X549849Y318559D03*
D18*
X558679Y313548D01*
X421918Y287859D02*
X419849Y299559D01*
D19*
X419849Y299559D03*
D18*
X517849Y257559D02*
X520347Y246941D01*
D19*
X517849Y257559D03*
D18*
X473849Y186559D02*
X480920Y180118D01*
D19*
X473849Y186559D03*
X591849Y175559D03*
D18*
X600305Y168912D01*
D20*
X653736Y478461D02*
X643849Y484559D01*
D19*
X643849Y484559D03*
X724849Y622559D03*
X567849Y353559D03*
D20*
X499849Y234559D02*
X509091Y228951D01*
D19*
X499849Y234559D03*
D22*
X473849Y186559D01*
X499849Y234559D02*
X510849Y252559D01*
X517849Y257559D01*
X530849Y261559D01*
X542849Y260559D01*
X553849Y253559D01*
X568849Y236559D01*
X582849Y208559D01*
X591849Y175559D01*
X517849Y257559D02*
X485849Y256559D01*
X455849Y251559D01*
X433849Y247559D01*
X417849Y251559D01*
X408849Y261559D01*
X405849Y277559D01*
X408849Y288559D01*
X419849Y299559D01*
X549849Y318559D01*
X567849Y353559D01*
X587849Y385559D01*
X626849Y451559D01*
X643849Y484559D01*
X663849Y520559D01*
X670849Y525559D01*
X686849Y529559D01*
X698849Y528559D01*
X707849Y522559D01*
X716849Y508559D01*
X719849Y491559D01*
X733849Y436559D01*
X738849Y407559D01*
X771849Y294559D01*
X670849Y525559D02*
X634849Y511559D01*
X443849Y459559D01*
X423849Y466559D01*
X415849Y476559D01*
X413849Y489559D01*
X418849Y502559D01*
X429849Y511559D01*
X552849Y545559D01*
X703849Y585559D01*
X724849Y622559D01*
X741849Y651559D01*
X787849Y731559D01*
D19*
X787849Y731559D03*
D22*
X791849Y738559D01*
D19*
X791849Y738559D03*
D22*
X795849Y745559D01*
D19*
X795849Y745559D03*
D18*
X802849Y721559D02*
X802830Y721548D01*
X793579Y716285D01*
D19*
X692435Y1039331D03*
D18*
X683881Y1044736D01*
D19*
X692009Y912068D03*
D18*
X601176Y919466D02*
X600887Y929896D01*
D19*
X600887Y929896D03*
D18*
X524730Y929805D02*
X524246Y919419D01*
D19*
X524730Y929805D03*
D18*
X414589Y1040575D02*
X406369Y1032549D01*
D19*
X414589Y1040575D03*
D18*
X323644Y1130096D02*
X315877Y1121706D01*
D19*
X323644Y1130096D03*
D18*
X456268Y928384D02*
X447354Y919438D01*
D19*
X456268Y928384D03*
X388077Y810494D03*
D18*
X395661Y803043D01*
D19*
X306716Y725415D03*
D18*
X306597Y713260D01*
X370387Y919528D02*
X370182Y929489D01*
D19*
X370182Y929489D03*
X293524Y930264D03*
D18*
X293407Y919394D01*
D19*
X216501Y929673D03*
D18*
X216577Y919520D01*
X125948Y1025115D02*
X135046Y1032756D01*
D19*
X135046Y1032756D03*
D18*
X147673Y926886D02*
X139727Y919413D01*
D19*
X147673Y926886D03*
D18*
X64185Y929491D02*
X62143Y920147D01*
D19*
X64185Y929491D03*
X113659Y821800D03*
D18*
X112130Y811154D01*
D20*
X406924Y919655D02*
X407261Y931267D01*
D19*
X407261Y931267D03*
X567273Y930118D03*
X255812Y931584D03*
D20*
X118755Y930974D02*
X118518Y920166D01*
D19*
X118755Y930974D03*
D22*
X64185Y929491D01*
X118755Y930974D02*
X139843Y930448D01*
X147673Y926886D01*
X157637Y917627D01*
X162771Y906735D01*
X162209Y893709D01*
X154987Y872218D01*
X137738Y846094D01*
X113659Y821800D01*
X147673Y926886D02*
X130807Y954098D01*
X111477Y977579D01*
X97013Y994632D01*
X92477Y1010488D01*
X96637Y1023282D01*
X108994Y1033881D01*
X120020Y1036782D01*
X135046Y1032756D01*
X216501Y929673D01*
X255812Y931584D01*
X293524Y930264D01*
X370182Y929489D01*
X407261Y931267D01*
X448438Y931946D01*
X456268Y928384D01*
X467732Y916527D01*
X472866Y905635D01*
X472170Y894841D01*
X464546Y880047D01*
X451323Y868949D01*
X410692Y829324D01*
X388077Y810494D01*
X306716Y725415D01*
X456268Y928384D02*
X426144Y952561D01*
X285610Y1091972D01*
X281673Y1112792D01*
X286333Y1124720D01*
X296591Y1132952D01*
X310349Y1135122D01*
X323644Y1130096D01*
X414589Y1040575D01*
X524730Y929805D01*
X567273Y930118D01*
X600887Y929896D01*
X693169Y930059D01*
D19*
X693169Y930059D03*
D22*
X701231Y930095D01*
D19*
X701231Y930095D03*
D22*
X709294Y930131D01*
D19*
X709294Y930131D03*
D18*
X692009Y912068D02*
X682806Y917460D01*
D19*
X912001Y1166576D03*
D18*
X912404Y1176686D01*
D19*
X801575Y1103313D03*
D18*
X762566Y1185676D02*
X771453Y1191141D01*
D19*
X771453Y1191141D03*
D18*
X733296Y1257050D02*
X724060Y1252276D01*
D19*
X733296Y1257050D03*
D18*
X774155Y1407820D02*
X763095Y1410925D01*
D19*
X774155Y1407820D03*
D18*
X806210Y1531341D02*
X795061Y1533872D01*
D19*
X806210Y1531341D03*
D18*
X697834Y1315629D02*
X685630Y1318876D01*
D19*
X697834Y1315629D03*
X561643Y1315739D03*
D18*
X558982Y1305446D01*
D19*
X447282Y1343660D03*
D18*
X436696Y1337685D01*
X647224Y1385576D02*
X655748Y1390734D01*
D19*
X655748Y1390734D03*
X618090Y1457509D03*
D18*
X608618Y1452176D01*
D19*
X579067Y1523918D03*
D18*
X570312Y1518776D01*
X616445Y1650059D02*
X627612Y1646001D01*
D19*
X627612Y1646001D03*
D18*
X542239Y1582131D02*
X531795Y1585276D01*
D19*
X542239Y1582131D03*
D18*
X502751Y1655736D02*
X493638Y1652832D01*
D19*
X502751Y1655736D03*
X434225Y1559045D03*
D18*
X424241Y1555046D01*
D20*
X665602Y1353998D02*
X675827Y1359511D01*
D19*
X675827Y1359511D03*
X754839Y1220363D03*
X600378Y1490829D03*
D20*
X531321Y1609219D02*
X521843Y1604020D01*
D19*
X531321Y1609219D03*
D22*
X502751Y1655736D01*
X531321Y1609219D02*
X541409Y1590693D01*
X542239Y1582131D01*
X539203Y1568872D01*
X532337Y1558980D01*
X520775Y1552954D01*
X498553Y1548463D01*
X467304Y1550339D01*
X434225Y1559045D01*
X542239Y1582131D02*
X557373Y1610343D01*
X568043Y1638824D01*
X575579Y1659877D01*
X587043Y1671733D01*
X600203Y1674527D01*
X615560Y1669125D01*
X623586Y1661027D01*
X627612Y1646001D01*
X579067Y1523918D01*
X600378Y1490829D01*
X618090Y1457509D01*
X655748Y1390734D01*
X675827Y1359511D01*
X697004Y1324191D01*
X697834Y1315629D01*
X693298Y1299772D01*
X686432Y1289880D01*
X676736Y1285086D01*
X660112Y1284292D01*
X643889Y1290194D01*
X589258Y1305569D01*
X561643Y1315739D01*
X447282Y1343660D01*
X697834Y1315629D02*
X703710Y1353806D01*
X754176Y1545217D01*
X770239Y1559037D01*
X782899Y1560965D01*
X795157Y1556197D01*
X803915Y1545367D01*
X806210Y1531341D01*
X774155Y1407820D01*
X733296Y1257050D01*
X754839Y1220363D01*
X771453Y1191141D01*
X817735Y1111304D01*
D19*
X817735Y1111304D03*
D22*
X821797Y1104340D01*
D19*
X821797Y1104340D03*
D22*
X825860Y1097376D01*
D19*
X825860Y1097376D03*
D18*
X801575Y1103313D02*
X801643Y1113979D01*
D19*
X1131981Y1040049D03*
D18*
X1140938Y1044755D01*
D19*
X1021981Y1104049D03*
D18*
X1073804Y1179014D02*
X1082981Y1174049D01*
D19*
X1082981Y1174049D03*
D18*
X1120981Y1240049D02*
X1112229Y1245661D01*
D19*
X1120981Y1240049D03*
D18*
X1271981Y1280049D02*
X1269141Y1291180D01*
D19*
X1271981Y1280049D03*
D18*
X1394981Y1314049D02*
X1391599Y1324970D01*
D19*
X1394981Y1314049D03*
D18*
X1153981Y1300049D02*
X1150691Y1312242D01*
D19*
X1153981Y1300049D03*
X1085981Y1418049D03*
D18*
X1075736Y1415207D01*
D19*
X1052981Y1531049D03*
D18*
X1042513Y1537230D01*
X1189252Y1378852D02*
X1197981Y1374049D01*
D19*
X1197981Y1374049D03*
X1236981Y1440049D03*
D18*
X1227627Y1445586D01*
D19*
X1274981Y1507049D03*
D18*
X1266151Y1512060D01*
X1402912Y1537749D02*
X1404981Y1526049D01*
D19*
X1404981Y1526049D03*
D18*
X1306981Y1568049D02*
X1304483Y1578667D01*
D19*
X1306981Y1568049D03*
D18*
X1350981Y1639049D02*
X1343910Y1645490D01*
D19*
X1350981Y1639049D03*
X1232981Y1650049D03*
D18*
X1224526Y1656696D01*
D20*
X1171094Y1347147D02*
X1180981Y1341049D01*
D19*
X1180981Y1341049D03*
X1099981Y1203049D03*
X1256981Y1472049D03*
D20*
X1324981Y1591049D02*
X1315739Y1596657D01*
D19*
X1324981Y1591049D03*
D22*
X1350981Y1639049D01*
X1324981Y1591049D02*
X1313981Y1573049D01*
X1306981Y1568049D01*
X1293981Y1564049D01*
X1281981Y1565049D01*
X1270981Y1572049D01*
X1255981Y1589049D01*
X1241981Y1617049D01*
X1232981Y1650049D01*
X1306981Y1568049D02*
X1338981Y1569049D01*
X1368981Y1574049D01*
X1390981Y1578049D01*
X1406981Y1574049D01*
X1415981Y1564049D01*
X1418981Y1548049D01*
X1415981Y1537049D01*
X1404981Y1526049D01*
X1274981Y1507049D01*
X1256981Y1472049D01*
X1236981Y1440049D01*
X1197981Y1374049D01*
X1180981Y1341049D01*
X1160981Y1305049D01*
X1153981Y1300049D01*
X1137981Y1296049D01*
X1125981Y1297049D01*
X1116981Y1303049D01*
X1107981Y1317049D01*
X1104981Y1334049D01*
X1090981Y1389049D01*
X1085981Y1418049D01*
X1052981Y1531049D01*
X1153981Y1300049D02*
X1189981Y1314049D01*
X1380981Y1366049D01*
X1400981Y1359049D01*
X1408981Y1349049D01*
X1410981Y1336049D01*
X1405981Y1323049D01*
X1394981Y1314049D01*
X1271981Y1280049D01*
X1120981Y1240049D01*
X1099981Y1203049D01*
X1082981Y1174049D01*
X1036981Y1094049D01*
D19*
X1036981Y1094049D03*
D22*
X1032981Y1087049D01*
D19*
X1032981Y1087049D03*
D22*
X1028981Y1080049D01*
D19*
X1028981Y1080049D03*
D18*
X1021981Y1104049D02*
X1031251Y1109323D01*
D19*
X1132395Y786277D03*
D18*
X1140950Y780872D01*
D19*
X1132821Y913540D03*
D18*
X1223654Y906141D02*
X1223943Y895712D01*
D19*
X1223943Y895712D03*
D18*
X1300101Y895803D02*
X1300584Y906189D01*
D19*
X1300101Y895803D03*
D18*
X1410242Y785033D02*
X1418461Y793059D01*
D19*
X1410242Y785033D03*
D18*
X1501186Y695512D02*
X1508953Y703902D01*
D19*
X1501186Y695512D03*
D18*
X1368562Y897224D02*
X1377476Y906170D01*
D19*
X1368562Y897224D03*
X1436753Y1015114D03*
D18*
X1429169Y1022565D01*
D19*
X1518114Y1100193D03*
D18*
X1518233Y1112348D01*
X1454443Y906080D02*
X1454648Y896119D01*
D19*
X1454648Y896119D03*
X1531306Y895344D03*
D18*
X1531423Y906214D01*
D19*
X1608329Y895935D03*
D18*
X1608254Y906088D01*
X1698882Y800493D02*
X1689784Y792852D01*
D19*
X1689784Y792852D03*
D18*
X1677157Y898722D02*
X1685103Y906195D01*
D19*
X1677157Y898722D03*
D18*
X1760645Y896117D02*
X1762687Y905461D01*
D19*
X1760645Y896117D03*
X1711171Y1003808D03*
D18*
X1712700Y1014454D01*
D20*
X1417907Y905953D02*
X1417569Y894342D01*
D19*
X1417569Y894342D03*
X1257558Y895490D03*
X1569018Y894024D03*
D20*
X1706075Y894634D02*
X1706312Y905442D01*
D19*
X1706075Y894634D03*
D22*
X1760645Y896117D01*
X1706075Y894634D02*
X1684987Y895160D01*
X1677157Y898722D01*
X1667193Y907981D01*
X1662059Y918873D01*
X1662621Y931899D01*
X1669843Y953390D01*
X1687092Y979514D01*
X1711171Y1003808D01*
X1677157Y898722D02*
X1694023Y871509D01*
X1713353Y848029D01*
X1727817Y830976D01*
X1732353Y815120D01*
X1728193Y802326D01*
X1715836Y791727D01*
X1704810Y788826D01*
X1689784Y792852D01*
X1608329Y895935D01*
X1569018Y894024D01*
X1531306Y895344D01*
X1454648Y896119D01*
X1417569Y894342D01*
X1376392Y893662D01*
X1368562Y897224D01*
X1357098Y909081D01*
X1351964Y919973D01*
X1352660Y930767D01*
X1360284Y945561D01*
X1373507Y956659D01*
X1414138Y996284D01*
X1436753Y1015114D01*
X1518114Y1100193D01*
X1368562Y897224D02*
X1398686Y873047D01*
X1539220Y733636D01*
X1543158Y712816D01*
X1538497Y700888D01*
X1528239Y692656D01*
X1514481Y690486D01*
X1501186Y695512D01*
X1410242Y785033D01*
X1300101Y895803D01*
X1257558Y895490D01*
X1223943Y895712D01*
X1131661Y895549D01*
D19*
X1131661Y895549D03*
D22*
X1123599Y895513D01*
D19*
X1123599Y895513D03*
D22*
X1115536Y895477D01*
D19*
X1115536Y895477D03*
D18*
X1132821Y913540D02*
X1142024Y908148D01*
D26*
X1115536Y895477D02*
X1116431Y796170D01*
X998970Y728232D01*
X916838Y680465D01*
X909642Y680001D02*
X795849Y745559D01*
D27*
X909642Y680001D02*
X916838Y680465D01*
D26*
X1115536Y895477D02*
X1116606Y1030473D01*
X1107446Y1034607D02*
X1028981Y1080049D01*
D27*
X1107446Y1034607D02*
X1116606Y1030473D01*
D26*
X1028981Y1080049D02*
X911720Y1147608D01*
X828204Y1099720D01*
X825860Y1097376D01*
X823402Y1097376D01*
X708403Y1030862D01*
X707724Y794269D01*
X714286Y791635D02*
X795849Y745559D01*
D27*
X714286Y791635D02*
X707724Y794269D01*
D22*
X1272367Y244260D02*
X1282591Y243477D01*
X1272367Y244260D02*
X1265903Y241064D01*
X1250832Y198959D01*
X1249251Y165731D01*
X1263187Y509869D02*
X1253232Y515116D01*
X1239509Y525348D01*
X1172485Y543259D01*
X1148094Y540522D01*
X1126996Y509979D02*
X1110835Y486477D01*
X1099361Y444604D01*
X1102048Y407257D01*
X1070654Y280391D01*
X1007095Y714304D02*
X1132395Y786277D01*
X1132821Y913540D01*
X1131981Y1040049D01*
X1021981Y1104049D01*
X912001Y1166576D01*
X801575Y1103313D01*
X692435Y1039331D01*
X692009Y912068D01*
X692849Y785559D01*
X802830Y721548D01*
X802849Y721559D02*
X912829Y659032D01*
X1007095Y714304D01*
D28*
X1900000Y240000D03*
D25*
X1904000Y244000D01*
X2195000Y244000D01*
X2208000Y259000D01*
X2222000Y265000D01*
X2247000Y249000D01*
X2269000Y243000D01*
D22*
X2287809Y254250D01*
D18*
X2650000Y701646D02*
X2642957Y710194D01*
X2642957Y711621D01*
D19*
X2650000Y701646D03*
D18*
X2655566Y674891D01*
X2652566Y661891D01*
X2593566Y561891D01*
X2593566Y508891D01*
D19*
X2593566Y508891D03*
X2551566Y448891D03*
D18*
X2545566Y459891D01*
X2531566Y459891D01*
X2442566Y310891D01*
X2448566Y252891D01*
D19*
X2448566Y252891D03*
X2406566Y196891D03*
D18*
X2371666Y193491D01*
X2346466Y157791D01*
X2298166Y119191D01*
D19*
X2298166Y119191D03*
D18*
X2261191Y98434D01*
X2222566Y37891D01*
X2182566Y17891D01*
X1043576Y717491D02*
X1032651Y715666D01*
X1031415Y716379D01*
D19*
X1043576Y717491D03*
D18*
X1069529Y708934D01*
X1079287Y699835D01*
X1136390Y598740D01*
X1182289Y572240D01*
D19*
X1182289Y572240D03*
X1213251Y505867D03*
D18*
X1200725Y506171D01*
X1193725Y494046D01*
X1278262Y342470D01*
X1331492Y318666D01*
D19*
X1331492Y318666D03*
X1358989Y254293D03*
D18*
X1344484Y222369D01*
X1362801Y182695D01*
X1372079Y121566D01*
D19*
X1372079Y121566D03*
D18*
X1371568Y79166D01*
X1408570Y44210D01*
X1443260Y35070D01*
X1477590Y20460D01*
X1781840Y21570D01*
X1843250Y83000D02*
X1845400Y140000D01*
X1843250Y83000D02*
X1843250Y82980D01*
X1781840Y21570D01*
X1908359Y17891D02*
X2182566Y17891D01*
X1908359Y17891D02*
X1843250Y83000D01*
X2629538Y280280D02*
X2631695Y283715D01*
X2534000Y517646D02*
X2524466Y515912D01*
D19*
X2534000Y517646D03*
D18*
X2544566Y515891D01*
X2555566Y499891D01*
X2573566Y435891D01*
X2571566Y412891D01*
X2573566Y402891D01*
X2606566Y287891D01*
X2612566Y282891D01*
X2619566Y279891D01*
X2629538Y280280D01*
X2625283Y307450D02*
X2598472Y405738D01*
X2625283Y307450D02*
X2628218Y296692D01*
D19*
X2625283Y307450D03*
D18*
X2392090Y526287D02*
X2292690Y498765D01*
X2282610Y495974D01*
D19*
X2292690Y498765D03*
D18*
X2269632Y492497D02*
X2266000Y484646D01*
X2270000Y473646D01*
X2285421Y468827D01*
X2592218Y428706D02*
X2594995Y418715D01*
D19*
X2592218Y428706D03*
D18*
X2581566Y482891D01*
X2569566Y516891D01*
X2553566Y543891D01*
X2544566Y547891D01*
X2531566Y548891D01*
X2437566Y523891D01*
X2406566Y502891D01*
X2285421Y468827D01*
X2415724Y532662D02*
X2556211Y570858D01*
X2415724Y532662D02*
X2405068Y529765D01*
D19*
X2415724Y532662D03*
D18*
X2567970Y591239D02*
X2594635Y637505D01*
X2567970Y591239D02*
X2562929Y582493D01*
D19*
X2567970Y591239D03*
D18*
X2607090Y657585D02*
X2629980Y708144D01*
X2607090Y657585D02*
X2601353Y649140D01*
D19*
X2607090Y657585D03*
X2301000Y249646D03*
D18*
X2522584Y771763D02*
X2535000Y768646D01*
D19*
X2535000Y768646D03*
X2341000Y336646D03*
X2446000Y507646D03*
X2490000Y591646D03*
D18*
X2589000Y710646D02*
X2592000Y723646D01*
X2589000Y733646D01*
X2579000Y743646D01*
X2535000Y768646D01*
X2526566Y605891D02*
X2490000Y591646D01*
X2526566Y605891D02*
X2589000Y710646D01*
X2455566Y501891D02*
X2446000Y507646D01*
X2455566Y501891D02*
X2462566Y498891D01*
X2464566Y494891D01*
X2462566Y486891D01*
X2384566Y351891D01*
X2341000Y336646D01*
X2313566Y248891D02*
X2301000Y249646D01*
X2313566Y248891D02*
X2317566Y243891D01*
X2314566Y233891D01*
X2300566Y205891D01*
X2298566Y185891D01*
X2306566Y177891D01*
X2324530Y171029D01*
X2331247Y182664D02*
X2336683Y191834D01*
D19*
X2336683Y191834D03*
D18*
X2363957Y237851D01*
X2258319Y279718D02*
X2256000Y273646D01*
X2257000Y266646D01*
X2264000Y258646D01*
X2271282Y256660D01*
X2301400Y270046D01*
X2359000Y279646D01*
X2383000Y273646D01*
X2398000Y263646D01*
X2421000Y240646D01*
X2443069Y199904D01*
X2443069Y187357D01*
X2446206Y177226D01*
D19*
X2443069Y187357D03*
D18*
X2382289Y248420D02*
X2381962Y248514D01*
X2378000Y249646D01*
X2370675Y249486D01*
X2381962Y248514D01*
D19*
X2381962Y248514D03*
D18*
X2442566Y159891D02*
X2449683Y164248D01*
X2442566Y159891D02*
X2435566Y161891D01*
X2429566Y164891D01*
X2425566Y171891D01*
X2425566Y200891D01*
X2417566Y216891D01*
X2390566Y246891D01*
X2382289Y248420D01*
X2402289Y304459D02*
X2281955Y284926D01*
X2271296Y283196D01*
D19*
X2281955Y284926D03*
D18*
X2414227Y325094D02*
X2440813Y370932D01*
X2414227Y325094D02*
X2409006Y316094D01*
D19*
X2414227Y325094D03*
D18*
X2452626Y391435D02*
X2479188Y437666D01*
X2452626Y391435D02*
X2447531Y382568D01*
D19*
X2452626Y391435D03*
D18*
X2491055Y458193D02*
X2517749Y504277D01*
X2491055Y458193D02*
X2485905Y449301D01*
D19*
X2491055Y458193D03*
D18*
X2691566Y673891D02*
X2746860Y642291D01*
X2691566Y673891D02*
X2674123Y676382D01*
D19*
X2407000Y185646D03*
X2460000Y255646D03*
X2554000Y433646D03*
X2603000Y511646D03*
D18*
X2450566Y296891D02*
X2460000Y255646D01*
X2450566Y296891D02*
X2450566Y311891D01*
X2535566Y455891D01*
X2541566Y455891D01*
X2544566Y450891D01*
X2603000Y511646D02*
X2599566Y561891D01*
X2662566Y668891D01*
X2674123Y676382D01*
X2545566Y443891D02*
X2554000Y433646D01*
X2545566Y443891D02*
X2544566Y450891D01*
D19*
X2295466Y109691D03*
D18*
X2305466Y114991D01*
X2351266Y152491D01*
X2374566Y187191D01*
X2399366Y190591D01*
X2407000Y185646D01*
X2518839Y896959D02*
X2522721Y907332D01*
X2523957Y908046D01*
D19*
X2518839Y896959D03*
D18*
X2515866Y783398D01*
X2147748Y703846D02*
X2137047Y704243D01*
X2129083Y710038D01*
X2126681Y720198D01*
X2265091Y862463D01*
X2280278Y878159D01*
X2292536Y882927D01*
X2299331Y889159D01*
X2303259Y898356D01*
X2301491Y905418D01*
X2295222Y912808D01*
D19*
X2301491Y905418D03*
D18*
X2236812Y793630D02*
X2165098Y721267D01*
X2157248Y713346D01*
D19*
X2165098Y721267D03*
D18*
X2238020Y1032636D02*
X2164485Y1104958D01*
X2157028Y1112293D01*
D19*
X2164485Y1104958D03*
D18*
X2147528Y1121793D02*
X2138912Y1121013D01*
X2131386Y1112049D01*
X2135056Y1095692D01*
X2270857Y960477D01*
X2301579Y941265D01*
X2314909Y928176D01*
X2323409Y913454D01*
X2324481Y895597D01*
X2311697Y869741D01*
X2246312Y803130D01*
X2253576Y810530D01*
D19*
X2253576Y810530D03*
D18*
X2358679Y912788D02*
X2255357Y1015356D01*
X2247520Y1023136D01*
D19*
X2255357Y1015356D03*
D18*
X2382210Y912796D02*
X2435610Y912836D01*
X2382210Y912796D02*
X2372114Y912788D01*
D19*
X2382210Y912796D03*
D18*
X2459226Y912090D02*
X2514457Y917546D01*
X2459226Y912090D02*
X2449045Y912836D01*
D19*
X2459226Y912090D03*
D18*
X1896577Y913516D02*
X1891114Y920211D01*
X1890444Y931372D01*
X1901301Y944568D01*
X1919853Y956434D01*
X1958432Y955613D01*
D19*
X1958432Y955613D03*
D18*
X2515855Y1042363D02*
X2519363Y1030052D01*
D19*
X2519363Y1030052D03*
X2078999Y954786D03*
D18*
X2248304Y955540D01*
D19*
X2248304Y955540D03*
X2366639Y954578D03*
D18*
X2496134Y954286D01*
X2508892Y958188D01*
X2516052Y965786D01*
X2519713Y979447D01*
X2519363Y1030052D01*
X1974160Y912782D02*
X1920671Y913394D01*
X1910012Y913516D01*
D19*
X1920671Y913394D03*
D18*
X1951181Y1024173D02*
X1957599Y1025201D01*
X1951181Y1024173D02*
X1945618Y1019807D01*
X1942190Y1009745D01*
X1945092Y998718D01*
X1979886Y956453D01*
X1995815Y944865D01*
X2011279Y926080D01*
X2014681Y914188D01*
X2013520Y896197D01*
X2005102Y864779D01*
X1990817Y841520D01*
X1969987Y819023D01*
X1962781Y811240D01*
D19*
X1969987Y819023D03*
D18*
X1953281Y801740D02*
X1945222Y802494D01*
X1940356Y808922D01*
X1938954Y817350D01*
X1941650Y824681D01*
X1971389Y859171D01*
X1986442Y877099D01*
X1991102Y889027D01*
X1993164Y899456D01*
X1992397Y902520D01*
X1991396Y906518D01*
X1987595Y912782D01*
X1992397Y902520D01*
D19*
X1992397Y902520D03*
D18*
X2051010Y912889D02*
X1973927Y1007336D01*
X1967099Y1015701D01*
D19*
X1973927Y1007336D03*
D18*
X2074850Y912869D02*
X2127840Y912763D01*
X2074850Y912869D02*
X2064445Y912889D01*
D19*
X2074850Y912869D03*
D18*
X2151502Y912785D02*
X2204820Y912897D01*
X2151502Y912785D02*
X2141275Y912763D01*
D19*
X2151502Y912785D03*
D18*
X2228531Y912883D02*
X2281787Y912808D01*
X2228531Y912883D02*
X2218255Y912897D01*
D19*
X2228531Y912883D03*
D18*
X2622405Y1108204D02*
X2633330Y1110029D01*
X2634566Y1109315D01*
D19*
X2622405Y1108204D03*
D18*
X2522573Y1053998D01*
X2269619Y1333022D02*
X2264613Y1342488D01*
X2265649Y1352283D01*
X2273247Y1359443D01*
X2465657Y1310708D01*
X2486844Y1305404D01*
X2497102Y1297172D01*
X2505897Y1294404D01*
X2515825Y1295601D01*
X2521057Y1300663D01*
X2524322Y1309786D01*
D19*
X2521057Y1300663D03*
D18*
X2391906Y1300782D02*
X2293381Y1326707D01*
X2282596Y1329545D01*
D19*
X2293381Y1326707D03*
D18*
X2599496Y1419239D02*
X2625361Y1519084D01*
X2627984Y1529209D01*
D19*
X2625361Y1519084D03*
D18*
X2631462Y1542186D02*
X2626478Y1549258D01*
X2614952Y1551294D01*
X2602622Y1539937D01*
X2553423Y1354722D01*
X2552145Y1318510D01*
X2547475Y1300421D01*
X2538975Y1285699D01*
X2524047Y1275842D01*
X2495263Y1273986D01*
X2404883Y1297305D01*
X2414924Y1294714D01*
D19*
X2414924Y1294714D03*
D18*
X2556034Y1254821D02*
X2593199Y1395585D01*
X2596018Y1406262D01*
D19*
X2593199Y1395585D03*
D18*
X2567806Y1234447D02*
X2594540Y1188221D01*
X2567806Y1234447D02*
X2562752Y1243186D01*
D19*
X2567806Y1234447D03*
D18*
X2605703Y1167396D02*
X2638043Y1122293D01*
X2605703Y1167396D02*
X2601258Y1176586D01*
D19*
X2605703Y1167396D03*
D18*
X2325613Y1655378D02*
X2328680Y1663456D01*
X2338010Y1669617D01*
X2354867Y1666813D01*
X2369949Y1658996D01*
X2385903Y1629953D02*
X2392998Y1622858D01*
X2385903Y1629953D02*
X2369949Y1658996D01*
D19*
X2392998Y1622858D03*
D18*
X2746837Y1183491D02*
X2737929Y1174297D01*
D19*
X2737929Y1174297D03*
X2452565Y1518031D03*
D18*
X2537870Y1371785D01*
D19*
X2537870Y1371785D03*
X2596205Y1268823D03*
D18*
X2660700Y1156531D01*
X2670458Y1147433D01*
X2680618Y1145031D01*
X2694279Y1148692D01*
X2737929Y1174297D01*
X2363769Y1587821D02*
X2337554Y1634451D01*
X2332330Y1643743D01*
D19*
X2337554Y1634451D03*
D18*
X2448747Y1663418D02*
X2452846Y1658373D01*
X2448747Y1663418D02*
X2442184Y1666052D01*
X2431756Y1663990D01*
X2423658Y1655963D01*
X2404452Y1604698D01*
X2402381Y1585110D01*
X2393845Y1562325D01*
X2385247Y1553433D01*
X2369086Y1545442D01*
X2337668Y1537024D01*
X2310383Y1537765D01*
X2280484Y1544556D01*
X2270142Y1546905D01*
D19*
X2280484Y1544556D03*
D18*
X2257165Y1550382D02*
X2253788Y1557739D01*
X2256922Y1565167D01*
X2263520Y1570595D01*
X2271216Y1571926D01*
X2315955Y1563416D01*
X2339008Y1559344D01*
X2351668Y1561272D01*
X2361730Y1564701D01*
X2364000Y1566897D01*
X2366962Y1569763D01*
X2370487Y1576186D01*
X2364000Y1566897D01*
D19*
X2364000Y1566897D03*
D18*
X2402287Y1521321D02*
X2445538Y1635300D01*
X2449369Y1645396D01*
D19*
X2445538Y1635300D03*
D18*
X2414189Y1500665D02*
X2440593Y1454721D01*
X2414189Y1500665D02*
X2409005Y1509686D01*
D19*
X2414189Y1500665D03*
D18*
X2452443Y1434240D02*
X2479199Y1388121D01*
X2452443Y1434240D02*
X2447310Y1443086D01*
D19*
X2452443Y1434240D03*
D18*
X2491041Y1367580D02*
X2517605Y1321421D01*
X2491041Y1367580D02*
X2485916Y1376486D01*
D19*
X2491041Y1367580D03*
D18*
X2857132Y1124136D02*
X2864175Y1115587D01*
X2864175Y1114160D01*
D19*
X2857132Y1124136D03*
D18*
X2760272Y1183491D01*
X2875437Y1542066D02*
X2881132Y1551136D01*
X2890132Y1555136D01*
X2900132Y1552136D01*
X2954132Y1361136D01*
X2960132Y1340136D01*
X2958132Y1327136D01*
X2960132Y1318136D01*
X2966132Y1310136D01*
X2973132Y1308136D01*
X2982666Y1309869D01*
D19*
X2973132Y1308136D03*
D18*
X2908660Y1420043D02*
X2881849Y1518331D01*
X2878914Y1529089D01*
D19*
X2881849Y1518331D03*
D18*
X3115042Y1299494D02*
X3214442Y1327016D01*
X3224522Y1329807D01*
D19*
X3214442Y1327016D03*
D18*
X3237500Y1333284D02*
X3241132Y1341136D01*
X3237132Y1352136D01*
X3221132Y1357136D01*
X3036132Y1307136D01*
X3004132Y1290136D01*
X2986132Y1285136D01*
X2969132Y1285136D01*
X2953132Y1293136D01*
X2937132Y1317136D01*
X2912137Y1407066D01*
X2914914Y1397075D01*
D19*
X2914914Y1397075D03*
D18*
X2950921Y1254924D02*
X3091408Y1293119D01*
X3102064Y1296017D01*
D19*
X3091408Y1293119D03*
D18*
X2939162Y1234542D02*
X2912497Y1188276D01*
X2939162Y1234542D02*
X2944203Y1243288D01*
D19*
X2939162Y1234542D03*
D18*
X2900043Y1168196D02*
X2877152Y1117637D01*
X2900043Y1168196D02*
X2905779Y1176641D01*
D19*
X2900043Y1168196D03*
D18*
X3182602Y1654753D02*
X3191132Y1656136D01*
X3201132Y1651136D01*
X3207132Y1635136D01*
X3208132Y1613136D01*
X3188132Y1580136D01*
D19*
X3188132Y1580136D03*
D18*
X2984548Y1054018D02*
X2972132Y1057136D01*
D19*
X2972132Y1057136D03*
X3127132Y1476136D03*
D18*
X3043132Y1329136D01*
D19*
X3043132Y1329136D03*
X2983132Y1227136D03*
D18*
X2918132Y1115136D01*
X2915132Y1102136D01*
X2918132Y1092136D01*
X2928132Y1082136D01*
X2972132Y1057136D01*
X3143175Y1587930D02*
X3170450Y1633947D01*
X3175885Y1643118D01*
D19*
X3170450Y1633947D03*
D18*
X3251132Y1552136D02*
X3248813Y1546063D01*
X3251132Y1552136D02*
X3250132Y1559136D01*
X3243132Y1567136D01*
X3232132Y1570136D01*
X3178132Y1561136D01*
X3160132Y1553136D01*
X3136132Y1549136D01*
X3124132Y1552136D01*
X3109132Y1562136D01*
X3086132Y1585136D01*
X3073132Y1609136D01*
X3064063Y1638424D01*
X3060927Y1648555D01*
D19*
X3064063Y1638424D03*
D18*
X3057449Y1661533D02*
X3062132Y1668136D01*
X3070132Y1669136D01*
X3078132Y1666136D01*
X3083132Y1660136D01*
X3098132Y1617136D01*
X3106132Y1595136D01*
X3114132Y1585136D01*
X3122132Y1578136D01*
X3125170Y1577268D01*
X3129132Y1576136D01*
X3136457Y1576295D01*
X3125170Y1577268D01*
D19*
X3125170Y1577268D03*
D18*
X3104843Y1521323D02*
X3225177Y1540855D01*
X3235836Y1542585D01*
D19*
X3225177Y1540855D03*
D18*
X3092905Y1500687D02*
X3066319Y1454849D01*
X3092905Y1500687D02*
X3098126Y1509687D01*
D19*
X3092905Y1500687D03*
D18*
X3054506Y1434346D02*
X3027944Y1388115D01*
X3054506Y1434346D02*
X3059601Y1443214D01*
D19*
X3054506Y1434346D03*
D18*
X3016077Y1367588D02*
X2989384Y1321504D01*
X3016077Y1367588D02*
X3021227Y1376480D01*
D19*
X3016077Y1367588D03*
D18*
X2988293Y928822D02*
X2984411Y918449D01*
X2983175Y917735D01*
D19*
X2988293Y928822D03*
D18*
X2991266Y1042383D01*
X3359384Y1121935D02*
X3370085Y1121538D01*
X3378050Y1115743D01*
X3380451Y1105583D01*
X3242041Y963318D01*
X3226854Y947622D01*
X3214596Y942854D01*
X3207801Y936622D01*
X3203873Y927426D01*
X3205641Y920363D01*
X3211910Y912974D01*
D19*
X3205641Y920363D03*
D18*
X3270320Y1032152D02*
X3342034Y1104515D01*
X3349884Y1112435D01*
D19*
X3342034Y1104515D03*
D18*
X3269112Y793145D02*
X3342647Y720823D01*
X3350104Y713488D01*
D19*
X3342647Y720823D03*
D18*
X3359604Y703988D02*
X3368220Y704769D01*
X3375746Y713733D01*
X3372076Y730089D01*
X3236275Y865304D01*
X3205553Y884517D01*
X3192223Y897605D01*
X3183723Y912327D01*
X3182651Y930184D01*
X3195435Y956040D01*
X3260820Y1022652D01*
X3253556Y1015251D01*
D19*
X3253556Y1015251D03*
D18*
X3148453Y912993D02*
X3251775Y810425D01*
X3259612Y802645D01*
D19*
X3251775Y810425D03*
D18*
X3124922Y912985D02*
X3071522Y912946D01*
X3124922Y912985D02*
X3135018Y912993D01*
D19*
X3124922Y912985D03*
D18*
X3047906Y913691D02*
X2992675Y908235D01*
X3047906Y913691D02*
X3058087Y912946D01*
D19*
X3047906Y913691D03*
D18*
X3610555Y912265D02*
X3616018Y905570D01*
X3616688Y894410D01*
X3605832Y881213D01*
X3587279Y869347D01*
X3548700Y870168D01*
D19*
X3548700Y870168D03*
D18*
X2991277Y783418D02*
X2987769Y795729D01*
D19*
X2987769Y795729D03*
X3428133Y870995D03*
D18*
X3258828Y870242D01*
D19*
X3258828Y870242D03*
X3140493Y871203D03*
D18*
X3010998Y871495D01*
X2998240Y867593D01*
X2991080Y859995D01*
X2987419Y846335D01*
X2987769Y795729D01*
X3532972Y912999D02*
X3586461Y912387D01*
X3597120Y912265D01*
D19*
X3586461Y912387D03*
D18*
X3555951Y801608D02*
X3549533Y800580D01*
X3555951Y801608D02*
X3561514Y805974D01*
X3564942Y816036D01*
X3562040Y827063D01*
X3527246Y869328D01*
X3511317Y880917D01*
X3495853Y899701D01*
X3492451Y911594D01*
X3493612Y929584D01*
X3502030Y961002D01*
X3516315Y984261D01*
X3537145Y1006759D01*
X3544351Y1014541D01*
D19*
X3537145Y1006759D03*
D18*
X3553851Y1024041D02*
X3561910Y1023287D01*
X3566776Y1016859D01*
X3568178Y1008431D01*
X3565482Y1001101D01*
X3535743Y966610D01*
X3520691Y948682D01*
X3516030Y936754D01*
X3513968Y926326D01*
X3514735Y923261D01*
X3515736Y919263D01*
X3519537Y912999D01*
X3514735Y923261D01*
D19*
X3514735Y923261D03*
D18*
X3456122Y912892D02*
X3533205Y818445D01*
X3540033Y810080D01*
D19*
X3533205Y818445D03*
D18*
X3432282Y912912D02*
X3379292Y913018D01*
X3432282Y912912D02*
X3442687Y912892D01*
D19*
X3432282Y912912D03*
D18*
X3355630Y912996D02*
X3302312Y912884D01*
X3355630Y912996D02*
X3365857Y913018D01*
D19*
X3355630Y912996D03*
D18*
X3278601Y912899D02*
X3225345Y912974D01*
X3278601Y912899D02*
X3288877Y912884D01*
D19*
X3278601Y912899D03*
D18*
X2884727Y717577D02*
X2882836Y717261D01*
X2873802Y715752D01*
X2872566Y716466D01*
D19*
X2884727Y717577D03*
D18*
X2882836Y717261D02*
X2984559Y771783D01*
X3237513Y492759D02*
X3242519Y483293D01*
X3241483Y473498D01*
X3233885Y466338D01*
X3041475Y515073D01*
X3020288Y520377D01*
X3010030Y528609D01*
X3001235Y531377D01*
X2991307Y530181D01*
X2986075Y525118D01*
X2982810Y515995D01*
D19*
X2986075Y525118D03*
D18*
X3115226Y524999D02*
X3213751Y499074D01*
X3224536Y496236D01*
D19*
X3213751Y499074D03*
D18*
X2907636Y406542D02*
X2881771Y306698D01*
X2879148Y296572D01*
D19*
X2881771Y306698D03*
D18*
X2875671Y283595D02*
X2880654Y276524D01*
X2892180Y274488D01*
X2904510Y285844D01*
X2953709Y471059D01*
X2954987Y507272D01*
X2959657Y525360D01*
X2968157Y540082D01*
X2983085Y549939D01*
X3011869Y551795D01*
X3102249Y528476D01*
X3092208Y531067D01*
D19*
X3092208Y531067D03*
D18*
X2951098Y570960D02*
X2913933Y430196D01*
X2911114Y419519D01*
D19*
X2913933Y430196D03*
D18*
X2939326Y591334D02*
X2912592Y637560D01*
X2939326Y591334D02*
X2944380Y582595D01*
D19*
X2939326Y591334D03*
D18*
X2901429Y658385D02*
X2869089Y703489D01*
X2901429Y658385D02*
X2905874Y649195D01*
D19*
X2901429Y658385D03*
D18*
X3181519Y170403D02*
X3178452Y162325D01*
X3169122Y156165D01*
X3152266Y158968D01*
X3132713Y169102D01*
X3114134Y202923D01*
D19*
X3114134Y202923D03*
D18*
X2760295Y642291D02*
X2769203Y651484D01*
D19*
X2769203Y651484D03*
X3054567Y307750D03*
D18*
X2969262Y453997D01*
D19*
X2969262Y453997D03*
X2910927Y556958D03*
D18*
X2846432Y669250D01*
X2836674Y678348D01*
X2826514Y680750D01*
X2812853Y677090D01*
X2769203Y651484D01*
X3143363Y237960D02*
X3169578Y191330D01*
X3174802Y182038D01*
D19*
X3169578Y191330D03*
D18*
X3058385Y162363D02*
X3054286Y167408D01*
X3058385Y162363D02*
X3064948Y159729D01*
X3075376Y161792D01*
X3083474Y169818D01*
X3102680Y221083D01*
X3104751Y240672D01*
X3113287Y263456D01*
X3121885Y272349D01*
X3138046Y280339D01*
X3169464Y288757D01*
X3196749Y288016D01*
X3226648Y281225D01*
X3236990Y278876D01*
D19*
X3226648Y281225D03*
D18*
X3249968Y275399D02*
X3253344Y268042D01*
X3250210Y260614D01*
X3243612Y255186D01*
X3235916Y253856D01*
X3191177Y262365D01*
X3168125Y266437D01*
X3155464Y264509D01*
X3145402Y261081D01*
X3143132Y258884D01*
X3140170Y256018D01*
X3136645Y249595D01*
X3143132Y258884D01*
D19*
X3143132Y258884D03*
D18*
X3104845Y304460D02*
X3061594Y190481D01*
X3057763Y180385D01*
D19*
X3061594Y190481D03*
D18*
X3092943Y325116D02*
X3066539Y371060D01*
X3092943Y325116D02*
X3098128Y316095D01*
D19*
X3092943Y325116D03*
D18*
X3054689Y391541D02*
X3027933Y437660D01*
X3054689Y391541D02*
X3059822Y382695D01*
D19*
X3054689Y391541D03*
D18*
X3016091Y458201D02*
X2989527Y504360D01*
X3016091Y458201D02*
X3021216Y449295D01*
D19*
X3016091Y458201D03*
D18*
X1398258Y489088D02*
X1396362Y492673D01*
X1144924Y525032D02*
X1141659Y515908D01*
D19*
X1144924Y525032D03*
D18*
X1151727Y533305D01*
X1171084Y534831D01*
X1235509Y518419D01*
X1254428Y505187D01*
X1264088Y501919D01*
X1380181Y472998D01*
X1387511Y475694D01*
X1393609Y480257D01*
X1398258Y489088D01*
X1372600Y498987D02*
X1274075Y524912D01*
X1372600Y498987D02*
X1383385Y496150D01*
D19*
X1372600Y498987D03*
D18*
X1066486Y406455D02*
X1040620Y306611D01*
X1037997Y296486D01*
D19*
X1040620Y306611D03*
D18*
X1034520Y283508D02*
X1039503Y276437D01*
X1051029Y274401D01*
X1062913Y285346D01*
X1251057Y530980D02*
X1261098Y528390D01*
D19*
X1251057Y530980D03*
D18*
X1198806Y548848D01*
X1163361Y555455D01*
X1131978Y555099D01*
X1124014Y549305D01*
X1116648Y538546D01*
X1091299Y444640D01*
X1093985Y407293D01*
X1062913Y285346D01*
X1072782Y430110D02*
X1109947Y570873D01*
X1072782Y430110D02*
X1069963Y419432D01*
D19*
X1072782Y430110D03*
D18*
X1098175Y591247D02*
X1071441Y637473D01*
X1098175Y591247D02*
X1103229Y582508D01*
D19*
X1098175Y591247D03*
D18*
X1060278Y658299D02*
X1027938Y703402D01*
X1060278Y658299D02*
X1064723Y649108D01*
D19*
X1060278Y658299D03*
X1260519Y189248D03*
D18*
X919144Y642204D02*
X928052Y651398D01*
D19*
X928052Y651398D03*
X1205175Y267389D03*
X1109584Y443822D03*
X1058838Y523927D03*
D18*
X1005281Y669163D02*
X995523Y678261D01*
X985363Y680663D01*
X971703Y677003D01*
X928052Y651398D01*
X1064785Y562716D02*
X1058838Y523927D01*
X1064785Y562716D02*
X1005281Y669163D01*
X1119351Y449228D02*
X1109584Y443822D01*
X1119351Y449228D02*
X1125450Y453791D01*
X1129914Y453523D01*
X1135842Y447791D01*
X1213755Y312741D01*
X1205175Y267389D01*
X1267456Y199753D02*
X1260519Y189248D01*
X1267456Y199753D02*
X1273786Y200717D01*
X1280946Y193119D01*
X1298195Y166994D01*
X1314515Y155262D01*
X1325444Y158191D01*
X1340368Y170317D01*
X1333651Y181952D02*
X1328427Y191244D01*
D19*
X1328427Y191244D03*
D18*
X1302212Y237873D01*
X1213135Y167321D02*
X1217234Y162277D01*
X1223797Y159643D01*
X1234225Y161705D01*
X1239586Y167018D01*
X1243052Y199794D01*
X1263538Y254477D01*
X1280734Y272262D01*
X1296895Y280252D01*
X1328313Y288671D01*
X1374631Y287412D01*
X1385497Y281139D01*
X1395839Y278790D01*
D19*
X1385497Y281139D03*
D18*
X1302225Y259033D02*
X1301981Y258797D01*
X1299019Y255932D01*
X1295494Y249508D01*
X1301981Y258797D01*
D19*
X1301981Y258797D03*
D18*
X1409032Y266970D02*
X1408817Y275312D01*
X1409032Y266970D02*
X1403800Y261908D01*
X1398202Y258212D01*
X1390140Y258248D01*
X1365025Y272748D01*
X1347169Y273819D01*
X1307688Y265437D01*
X1302225Y259033D01*
X1263694Y304373D02*
X1220443Y190394D01*
X1216612Y180299D01*
D19*
X1220443Y190394D03*
D18*
X1251792Y325029D02*
X1225388Y370973D01*
X1251792Y325029D02*
X1256977Y316008D01*
D19*
X1251792Y325029D03*
D18*
X1213539Y391454D02*
X1186782Y437573D01*
X1213539Y391454D02*
X1218671Y382608D01*
D19*
X1213539Y391454D03*
D18*
X1174940Y458114D02*
X1148376Y504273D01*
X1174940Y458114D02*
X1180065Y449208D01*
D19*
X1174940Y458114D03*
D18*
X1088395Y739610D02*
X1143408Y771696D01*
X1088395Y739610D02*
X1077516Y725751D01*
D19*
X1368945Y249047D03*
X1334823Y329946D03*
X1227670Y500352D03*
X1184620Y581788D03*
D18*
X1294387Y342398D02*
X1334823Y329946D01*
X1294387Y342398D02*
X1281396Y349898D01*
X1199189Y495510D01*
X1202189Y500707D01*
X1208019Y500805D01*
X1184620Y581788D02*
X1139390Y603936D01*
X1078225Y711996D01*
X1077516Y725751D01*
X1214581Y498171D02*
X1227670Y500352D01*
X1214581Y498171D02*
X1208019Y500805D01*
D19*
X1378957Y114478D03*
D18*
X1379367Y125788D01*
X1369791Y184202D01*
X1351390Y221730D01*
X1360845Y244908D01*
X1368945Y249047D01*
X808849Y701559D02*
X801806Y710107D01*
X801806Y711535D01*
D19*
X808849Y701559D03*
D18*
X905709Y642204D01*
X790544Y283628D02*
X784849Y274559D01*
X775849Y270559D01*
X765849Y273559D01*
X711849Y464559D01*
X705849Y485559D01*
X707849Y498559D01*
X705849Y507559D01*
X699849Y515559D01*
X692849Y517559D01*
X683315Y515825D01*
D19*
X692849Y517559D03*
D18*
X757321Y405651D02*
X784132Y307363D01*
X787067Y296605D01*
D19*
X784132Y307363D03*
D18*
X550939Y526201D02*
X451539Y498679D01*
X441459Y495888D01*
D19*
X451539Y498679D03*
D18*
X428481Y492411D02*
X424849Y484559D01*
X428849Y473559D01*
X444849Y468559D01*
X629849Y518559D01*
X661849Y535559D01*
X679849Y540559D01*
X696849Y540559D01*
X712849Y532559D01*
X728849Y508559D01*
X753844Y418629D01*
X751067Y428620D01*
D19*
X751067Y428620D03*
D18*
X715060Y570771D02*
X574573Y532575D01*
X563917Y529678D01*
D19*
X574573Y532575D03*
D18*
X726819Y591153D02*
X753484Y637418D01*
X726819Y591153D02*
X721778Y582406D01*
D19*
X726819Y591153D03*
D18*
X765939Y657498D02*
X788829Y708058D01*
X765939Y657498D02*
X760202Y649053D01*
D19*
X765939Y657498D03*
D18*
X483379Y170942D02*
X474849Y169559D01*
X464849Y174559D01*
X458849Y190559D01*
X457849Y212559D01*
X477849Y245559D01*
D19*
X477849Y245559D03*
D18*
X681433Y771677D02*
X693849Y768559D01*
D19*
X693849Y768559D03*
X538849Y349559D03*
D18*
X622849Y496559D01*
D19*
X622849Y496559D03*
X682849Y598559D03*
D18*
X747849Y710559D01*
X750849Y723559D01*
X747849Y733559D01*
X737849Y743559D01*
X693849Y768559D01*
X522806Y237765D02*
X495532Y191747D01*
X490096Y182577D01*
D19*
X495532Y191747D03*
D18*
X414849Y273559D02*
X417168Y279632D01*
X414849Y273559D02*
X415849Y266559D01*
X422849Y258559D01*
X433849Y255559D01*
X487849Y264559D01*
X505849Y272559D01*
X529849Y276559D01*
X541849Y273559D01*
X556849Y263559D01*
X579849Y240559D01*
X592849Y216559D01*
X601918Y187271D01*
X605055Y177139D01*
D19*
X601918Y187271D03*
D18*
X608532Y164162D02*
X603849Y157559D01*
X595849Y156559D01*
X587849Y159559D01*
X582849Y165559D01*
X567849Y208559D01*
X559849Y230559D01*
X551849Y240559D01*
X543849Y247559D01*
X540811Y248427D01*
X536849Y249559D01*
X529524Y249400D01*
X540811Y248427D01*
D19*
X540811Y248427D03*
D18*
X561138Y304372D02*
X440804Y284839D01*
X430145Y283109D01*
D19*
X440804Y284839D03*
D18*
X573076Y325008D02*
X599662Y370846D01*
X573076Y325008D02*
X567856Y316007D01*
D19*
X573076Y325008D03*
D18*
X611475Y391349D02*
X638037Y437580D01*
X611475Y391349D02*
X606380Y382481D01*
D19*
X611475Y391349D03*
D18*
X649904Y458106D02*
X676598Y504190D01*
X649904Y458106D02*
X644754Y449215D01*
D19*
X649904Y458106D03*
D18*
X677689Y896872D02*
X681570Y907246D01*
X682806Y907960D01*
D19*
X677689Y896872D03*
D18*
X674715Y783312D01*
X306597Y703760D02*
X295896Y704157D01*
X287932Y709951D01*
X285530Y720111D01*
X423940Y862377D01*
X439127Y878073D01*
X451385Y882841D01*
X458180Y889073D01*
X462108Y898269D01*
X460340Y905331D01*
X454071Y912721D01*
D19*
X460340Y905331D03*
D18*
X395661Y793543D02*
X323947Y721180D01*
X316097Y713260D01*
D19*
X323947Y721180D03*
D18*
X396869Y1032549D02*
X323334Y1104872D01*
X315877Y1112206D01*
D19*
X323334Y1104872D03*
D18*
X306377Y1121706D02*
X297761Y1120926D01*
X290235Y1111962D01*
X293905Y1095606D01*
X429706Y960391D01*
X460428Y941178D01*
X473758Y928090D01*
X482258Y913367D01*
X483330Y895511D01*
X470546Y869654D01*
X405161Y803043D01*
X412425Y810443D01*
D19*
X412425Y810443D03*
D18*
X517528Y912702D02*
X414206Y1015270D01*
X406369Y1023049D01*
D19*
X414206Y1015270D03*
D18*
X541059Y912709D02*
X594459Y912749D01*
X541059Y912709D02*
X530963Y912702D01*
D19*
X541059Y912709D03*
D18*
X618075Y912003D02*
X673306Y917460D01*
X618075Y912003D02*
X607894Y912749D01*
D19*
X618075Y912003D03*
D18*
X55426Y913429D02*
X49963Y920125D01*
X49293Y931285D01*
X60150Y944481D01*
X78702Y956347D01*
X117281Y955527D01*
D19*
X117281Y955527D03*
D18*
X674704Y1042277D02*
X678212Y1029965D01*
D19*
X678212Y1029965D03*
X237848Y954699D03*
D18*
X407153Y955453D01*
D19*
X407153Y955453D03*
X525488Y954491D03*
D18*
X654983Y954200D01*
X667741Y958102D01*
X674901Y965700D01*
X678562Y979360D01*
X678212Y1029965D01*
X133009Y912696D02*
X79520Y913307D01*
X68861Y913429D01*
D19*
X79520Y913307D03*
D18*
X110030Y1024086D02*
X116448Y1025115D01*
X110030Y1024086D02*
X104467Y1019720D01*
X101039Y1009658D01*
X103941Y998632D01*
X138735Y956366D01*
X154664Y944778D01*
X170128Y925993D01*
X173530Y914101D01*
X172369Y896111D01*
X163951Y864692D01*
X149666Y841434D01*
X128836Y818936D01*
X121630Y811154D01*
D19*
X128836Y818936D03*
D18*
X112130Y801654D02*
X104071Y802407D01*
X99205Y808836D01*
X97803Y817264D01*
X100499Y824594D01*
X130238Y859084D01*
X145291Y877013D01*
X149951Y888941D01*
X152013Y899369D01*
X151246Y902434D01*
X150245Y906431D01*
X146444Y912696D01*
X151246Y902434D01*
D19*
X151246Y902434D03*
D18*
X209859Y912803D02*
X132776Y1007249D01*
X125948Y1015615D01*
D19*
X132776Y1007249D03*
D18*
X233699Y912782D02*
X286689Y912677D01*
X233699Y912782D02*
X223294Y912803D01*
D19*
X233699Y912782D03*
D18*
X310351Y912698D02*
X363669Y912810D01*
X310351Y912698D02*
X300124Y912677D01*
D19*
X310351Y912698D03*
D18*
X387380Y912796D02*
X440636Y912721D01*
X387380Y912796D02*
X377104Y912810D01*
D19*
X387380Y912796D03*
D18*
X781255Y1108117D02*
X792179Y1109942D01*
X793415Y1109229D01*
D19*
X781255Y1108117D03*
D18*
X681422Y1053912D01*
X428468Y1332935D02*
X423462Y1342402D01*
X424498Y1352196D01*
X432096Y1359356D01*
X624507Y1310622D01*
X645693Y1305318D01*
X655951Y1297086D01*
X664746Y1294318D01*
X674674Y1295514D01*
X679906Y1300576D01*
X683171Y1309700D01*
D19*
X679906Y1300576D03*
D18*
X550755Y1300696D02*
X452230Y1326621D01*
X441446Y1329458D01*
D19*
X452230Y1326621D03*
D18*
X758345Y1419153D02*
X784210Y1518997D01*
X786833Y1529122D01*
D19*
X784210Y1518997D03*
D18*
X790311Y1542099D02*
X785327Y1549171D01*
X773801Y1551207D01*
X761471Y1539851D01*
X712272Y1354636D01*
X710994Y1318423D01*
X706324Y1300335D01*
X697824Y1285612D01*
X682896Y1275756D01*
X654112Y1273899D01*
X563732Y1297218D01*
X573773Y1294628D01*
D19*
X573773Y1294628D03*
D18*
X714883Y1254735D02*
X752048Y1395498D01*
X754867Y1406175D01*
D19*
X752048Y1395498D03*
D18*
X726655Y1234361D02*
X753389Y1188135D01*
X726655Y1234361D02*
X721601Y1243100D01*
D19*
X726655Y1234361D03*
D18*
X764552Y1167309D02*
X796893Y1122206D01*
X764552Y1167309D02*
X760107Y1176500D01*
D19*
X764552Y1167309D03*
D18*
X484462Y1655291D02*
X487529Y1663370D01*
X496859Y1669530D01*
X513716Y1666726D01*
X533268Y1656592D01*
X551847Y1622772D01*
D19*
X551847Y1622772D03*
D18*
X905686Y1183404D02*
X896778Y1174210D01*
D19*
X896778Y1174210D03*
X611414Y1517944D03*
D18*
X696719Y1371698D01*
D19*
X696719Y1371698D03*
X755054Y1268736D03*
D18*
X819549Y1156445D01*
X829307Y1147347D01*
X839467Y1144945D01*
X853128Y1148605D01*
X896778Y1174210D01*
X522618Y1587735D02*
X496403Y1634364D01*
X491179Y1643656D01*
D19*
X496403Y1634364D03*
D18*
X607596Y1663331D02*
X611695Y1658287D01*
X607596Y1663331D02*
X601033Y1665965D01*
X590605Y1663903D01*
X582507Y1655877D01*
X563301Y1604611D01*
X561230Y1585023D01*
X552694Y1562238D01*
X544096Y1553346D01*
X527935Y1545356D01*
X496517Y1536937D01*
X469232Y1537679D01*
X439333Y1544469D01*
X428991Y1546818D01*
D19*
X439333Y1544469D03*
D18*
X416014Y1550296D02*
X412637Y1557652D01*
X415771Y1565081D01*
X422369Y1570509D01*
X430065Y1571839D01*
X474804Y1563329D01*
X497857Y1559258D01*
X510517Y1561186D01*
X520579Y1564614D01*
X522850Y1566811D01*
X525811Y1569676D01*
X529336Y1576100D01*
X522850Y1566811D01*
D19*
X522850Y1566811D03*
D18*
X561136Y1521235D02*
X604387Y1635214D01*
X608218Y1645309D01*
D19*
X604387Y1635214D03*
D18*
X573038Y1500579D02*
X599442Y1454635D01*
X573038Y1500579D02*
X567854Y1509600D01*
D19*
X573038Y1500579D03*
D18*
X611292Y1434154D02*
X638048Y1388035D01*
X611292Y1434154D02*
X606159Y1443000D01*
D19*
X611292Y1434154D03*
D18*
X649890Y1367494D02*
X676454Y1321335D01*
X649890Y1367494D02*
X644765Y1376400D01*
D19*
X649890Y1367494D03*
D18*
X1015981Y1124049D02*
X1023024Y1115501D01*
X1023024Y1114073D01*
D19*
X1015981Y1124049D03*
D18*
X919121Y1183404D01*
X1034286Y1541980D02*
X1039981Y1551049D01*
X1048981Y1555049D01*
X1058981Y1552049D01*
X1112981Y1361049D01*
X1118981Y1340049D01*
X1116981Y1327049D01*
X1118981Y1318049D01*
X1124981Y1310049D01*
X1131981Y1308049D01*
X1141515Y1309783D01*
D19*
X1131981Y1308049D03*
D18*
X1067509Y1419957D02*
X1040698Y1518245D01*
X1037763Y1529003D01*
D19*
X1040698Y1518245D03*
D18*
X1273891Y1299407D02*
X1373291Y1326929D01*
X1383371Y1329720D01*
D19*
X1373291Y1326929D03*
D18*
X1396349Y1333197D02*
X1399981Y1341049D01*
X1395981Y1352049D01*
X1379981Y1357049D01*
X1194981Y1307049D01*
X1162981Y1290049D01*
X1144981Y1285049D01*
X1127981Y1285049D01*
X1111981Y1293049D01*
X1095981Y1317049D01*
X1070986Y1406979D01*
X1073763Y1396988D01*
D19*
X1073763Y1396988D03*
D18*
X1109770Y1254837D02*
X1250257Y1293033D01*
X1260913Y1295930D01*
D19*
X1250257Y1293033D03*
D18*
X1098011Y1234455D02*
X1071346Y1188190D01*
X1098011Y1234455D02*
X1103052Y1243202D01*
D19*
X1098011Y1234455D03*
D18*
X1058892Y1168110D02*
X1036001Y1117550D01*
X1058892Y1168110D02*
X1064628Y1176555D01*
D19*
X1058892Y1168110D03*
D18*
X1341451Y1654666D02*
X1349981Y1656049D01*
X1359981Y1651049D01*
X1365981Y1635049D01*
X1366981Y1613049D01*
X1346981Y1580049D01*
D19*
X1346981Y1580049D03*
D18*
X1143397Y1053931D02*
X1130981Y1057049D01*
D19*
X1130981Y1057049D03*
X1285981Y1476049D03*
D18*
X1201981Y1329049D01*
D19*
X1201981Y1329049D03*
X1141981Y1227049D03*
D18*
X1076981Y1115049D01*
X1073981Y1102049D01*
X1076981Y1092049D01*
X1086981Y1082049D01*
X1130981Y1057049D01*
X1302024Y1587843D02*
X1329299Y1633861D01*
X1334734Y1643031D01*
D19*
X1329299Y1633861D03*
D18*
X1409981Y1552049D02*
X1407662Y1545976D01*
X1409981Y1552049D02*
X1408981Y1559049D01*
X1401981Y1567049D01*
X1390981Y1570049D01*
X1336981Y1561049D01*
X1318981Y1553049D01*
X1294981Y1549049D01*
X1282981Y1552049D01*
X1267981Y1562049D01*
X1244981Y1585049D01*
X1231981Y1609049D01*
X1222912Y1638337D01*
X1219776Y1648469D01*
D19*
X1222912Y1638337D03*
D18*
X1216298Y1661446D02*
X1220981Y1668049D01*
X1228981Y1669049D01*
X1236981Y1666049D01*
X1241981Y1660049D01*
X1256981Y1617049D01*
X1264981Y1595049D01*
X1272981Y1585049D01*
X1280981Y1578049D01*
X1284019Y1577181D01*
X1287981Y1576049D01*
X1295306Y1576208D01*
X1284019Y1577181D01*
D19*
X1284019Y1577181D03*
D18*
X1263692Y1521236D02*
X1384027Y1540769D01*
X1394685Y1542499D01*
D19*
X1384027Y1540769D03*
D18*
X1251754Y1500600D02*
X1225168Y1454762D01*
X1251754Y1500600D02*
X1256975Y1509601D01*
D19*
X1251754Y1500600D03*
D18*
X1213355Y1434259D02*
X1186793Y1388028D01*
X1213355Y1434259D02*
X1218450Y1443127D01*
D19*
X1213355Y1434259D03*
D18*
X1174926Y1367502D02*
X1148233Y1321418D01*
X1174926Y1367502D02*
X1180076Y1376393D01*
D19*
X1174926Y1367502D03*
D18*
X1147142Y928736D02*
X1146470Y926940D01*
X1143260Y918362D01*
X1142024Y917648D01*
D19*
X1147142Y928736D03*
D18*
X1146470Y926940D02*
X1150115Y1042296D01*
X1518233Y1121848D02*
X1528934Y1121451D01*
X1536899Y1115657D01*
X1539300Y1105497D01*
X1400890Y963231D01*
X1385703Y947535D01*
X1373445Y942767D01*
X1366650Y936535D01*
X1362722Y927339D01*
X1364490Y920277D01*
X1370759Y912887D01*
D19*
X1364490Y920277D03*
D18*
X1429169Y1032065D02*
X1500883Y1104428D01*
X1508733Y1112348D01*
D19*
X1500883Y1104428D03*
D18*
X1427961Y793059D02*
X1501496Y720736D01*
X1508953Y713402D01*
D19*
X1501496Y720736D03*
D18*
X1518453Y703902D02*
X1527069Y704682D01*
X1534595Y713646D01*
X1530925Y730002D01*
X1395124Y865217D01*
X1364402Y884430D01*
X1351072Y897518D01*
X1342572Y912241D01*
X1341500Y930097D01*
X1354284Y955954D01*
X1419669Y1022565D01*
X1412405Y1015165D01*
D19*
X1412405Y1015165D03*
D18*
X1307302Y912906D02*
X1410624Y810338D01*
X1418461Y802559D01*
D19*
X1410624Y810338D03*
D18*
X1283771Y912899D02*
X1230371Y912859D01*
X1283771Y912899D02*
X1293867Y912906D01*
D19*
X1283771Y912899D03*
D18*
X1206755Y913605D02*
X1151524Y908148D01*
X1206755Y913605D02*
X1216936Y912859D01*
D19*
X1206755Y913605D03*
D18*
X1769405Y912179D02*
X1774867Y905483D01*
X1775537Y894323D01*
X1764681Y881127D01*
X1747673Y870249D01*
X1708549Y871081D01*
X1707549Y870081D01*
D19*
X1707549Y870081D03*
D18*
X1150126Y783331D02*
X1146618Y795643D01*
D19*
X1146618Y795643D03*
X1586983Y870909D03*
D18*
X1417677Y870155D01*
D19*
X1417677Y870155D03*
X1299342Y871116D03*
D18*
X1169847Y871408D01*
X1157089Y867506D01*
X1149929Y859908D01*
X1146268Y846248D01*
X1146618Y795643D01*
X1691821Y912912D02*
X1745310Y912301D01*
X1755969Y912179D01*
D19*
X1745310Y912301D03*
D18*
X1714800Y801522D02*
X1708382Y800493D01*
X1714800Y801522D02*
X1720363Y805888D01*
X1723791Y815950D01*
X1720889Y826976D01*
X1686095Y869242D01*
X1670166Y880830D01*
X1654702Y899615D01*
X1651300Y911507D01*
X1652461Y929497D01*
X1660879Y960916D01*
X1675164Y984174D01*
X1695994Y1006672D01*
X1703200Y1014454D01*
D19*
X1695994Y1006672D03*
D18*
X1712700Y1023954D02*
X1720759Y1023200D01*
X1725625Y1016772D01*
X1727027Y1008344D01*
X1724331Y1001014D01*
X1694592Y966524D01*
X1679540Y948595D01*
X1674879Y936667D01*
X1672817Y926239D01*
X1673584Y923174D01*
X1674585Y919177D01*
X1678386Y912912D01*
X1673584Y923174D01*
D19*
X1673584Y923174D03*
D18*
X1614971Y912805D02*
X1692054Y818359D01*
X1698882Y809993D01*
D19*
X1692054Y818359D03*
D18*
X1591131Y912826D02*
X1538141Y912931D01*
X1591131Y912826D02*
X1601536Y912805D01*
D19*
X1591131Y912826D03*
D18*
X1514479Y912910D02*
X1461161Y912798D01*
X1514479Y912910D02*
X1524706Y912931D01*
D19*
X1514479Y912910D03*
D18*
X1437450Y912812D02*
X1384194Y912887D01*
X1437450Y912812D02*
X1447726Y912798D01*
D19*
X1437450Y912812D03*
M02*
