G04 EAGLE Gerber RS-274X export*
G75*
%MOMM*%
%FSLAX34Y34*%
%LPD*%
%INSolderpaste Bottom*%
%IPPOS*%
%AMOC8*
5,1,8,0,0,1.08239X$1,22.5*%
G01*
%ADD10R,0.550000X0.550000*%
%ADD11R,0.700000X1.000000*%
%ADD12R,0.550000X0.550000*%
%ADD13R,1.000000X0.700000*%


D10*
G36*
X2626224Y707138D02*
X2628974Y711900D01*
X2633736Y709150D01*
X2630986Y704388D01*
X2626224Y707138D01*
G37*
G36*
X2634451Y702388D02*
X2637201Y707150D01*
X2641963Y704400D01*
X2639213Y699638D01*
X2634451Y702388D01*
G37*
G36*
X2639201Y710615D02*
X2641951Y715377D01*
X2646713Y712627D01*
X2643963Y707865D01*
X2639201Y710615D01*
G37*
G36*
X2630974Y715365D02*
X2633724Y720127D01*
X2638486Y717377D01*
X2635736Y712615D01*
X2630974Y715365D01*
G37*
G36*
X2592691Y634137D02*
X2591267Y639449D01*
X2596579Y640873D01*
X2598003Y635561D01*
X2592691Y634137D01*
G37*
G36*
X2601868Y636595D02*
X2600444Y641907D01*
X2605756Y643331D01*
X2607180Y638019D01*
X2601868Y636595D01*
G37*
G36*
X2599409Y645772D02*
X2597985Y651084D01*
X2603297Y652508D01*
X2604721Y647196D01*
X2599409Y645772D01*
G37*
G36*
X2590233Y643313D02*
X2588809Y648625D01*
X2594121Y650049D01*
X2595545Y644737D01*
X2590233Y643313D01*
G37*
G36*
X2554267Y567490D02*
X2552843Y572802D01*
X2558155Y574226D01*
X2559579Y568914D01*
X2554267Y567490D01*
G37*
G36*
X2563443Y569948D02*
X2562019Y575260D01*
X2567331Y576684D01*
X2568755Y571372D01*
X2563443Y569948D01*
G37*
G36*
X2560985Y579125D02*
X2559561Y584437D01*
X2564873Y585861D01*
X2566297Y580549D01*
X2560985Y579125D01*
G37*
G36*
X2551808Y576666D02*
X2550384Y581978D01*
X2555696Y583402D01*
X2557120Y578090D01*
X2551808Y576666D01*
G37*
G36*
X2388334Y525281D02*
X2391084Y530043D01*
X2395846Y527293D01*
X2393096Y522531D01*
X2388334Y525281D01*
G37*
G36*
X2396562Y520531D02*
X2399312Y525293D01*
X2404074Y522543D01*
X2401324Y517781D01*
X2396562Y520531D01*
G37*
G36*
X2401312Y528759D02*
X2404062Y533521D01*
X2408824Y530771D01*
X2406074Y526009D01*
X2401312Y528759D01*
G37*
G36*
X2393084Y533509D02*
X2395834Y538271D01*
X2400596Y535521D01*
X2397846Y530759D01*
X2393084Y533509D01*
G37*
G36*
X2265876Y491491D02*
X2268626Y496253D01*
X2273388Y493503D01*
X2270638Y488741D01*
X2265876Y491491D01*
G37*
G36*
X2274104Y486741D02*
X2276854Y491503D01*
X2281616Y488753D01*
X2278866Y483991D01*
X2274104Y486741D01*
G37*
G36*
X2278854Y494968D02*
X2281604Y499730D01*
X2286366Y496980D01*
X2283616Y492218D01*
X2278854Y494968D01*
G37*
G36*
X2270626Y499718D02*
X2273376Y504480D01*
X2278138Y501730D01*
X2275388Y496968D01*
X2270626Y499718D01*
G37*
G36*
X2599478Y401982D02*
X2594716Y404732D01*
X2597466Y409494D01*
X2602228Y406744D01*
X2599478Y401982D01*
G37*
G36*
X2604228Y410209D02*
X2599466Y412959D01*
X2602216Y417721D01*
X2606978Y414971D01*
X2604228Y410209D01*
G37*
G36*
X2596001Y414959D02*
X2591239Y417709D01*
X2593989Y422471D01*
X2598751Y419721D01*
X2596001Y414959D01*
G37*
G36*
X2591251Y406732D02*
X2586489Y409482D01*
X2589239Y414244D01*
X2594001Y411494D01*
X2591251Y406732D01*
G37*
D11*
G36*
X2494356Y484628D02*
X2500418Y481128D01*
X2495418Y472468D01*
X2489356Y475968D01*
X2494356Y484628D01*
G37*
G36*
X2506481Y477628D02*
X2512543Y474128D01*
X2507543Y465468D01*
X2501481Y468968D01*
X2506481Y477628D01*
G37*
D10*
G36*
X2632701Y279959D02*
X2627939Y282709D01*
X2630689Y287471D01*
X2635451Y284721D01*
X2632701Y279959D01*
G37*
G36*
X2637451Y288186D02*
X2632689Y290936D01*
X2635439Y295698D01*
X2640201Y292948D01*
X2637451Y288186D01*
G37*
G36*
X2629224Y292936D02*
X2624462Y295686D01*
X2627212Y300448D01*
X2631974Y297698D01*
X2629224Y292936D01*
G37*
G36*
X2624474Y284709D02*
X2619712Y287459D01*
X2622462Y292221D01*
X2627224Y289471D01*
X2624474Y284709D01*
G37*
G36*
X2515805Y500909D02*
X2514381Y506221D01*
X2519693Y507645D01*
X2521117Y502333D01*
X2515805Y500909D01*
G37*
G36*
X2524981Y503367D02*
X2523557Y508679D01*
X2528869Y510103D01*
X2530293Y504791D01*
X2524981Y503367D01*
G37*
G36*
X2522522Y512544D02*
X2521098Y517856D01*
X2526410Y519280D01*
X2527834Y513968D01*
X2522522Y512544D01*
G37*
G36*
X2513346Y510085D02*
X2511922Y515397D01*
X2517234Y516821D01*
X2518658Y511509D01*
X2513346Y510085D01*
G37*
G36*
X2477244Y434298D02*
X2475820Y439610D01*
X2481132Y441034D01*
X2482556Y435722D01*
X2477244Y434298D01*
G37*
G36*
X2486420Y436757D02*
X2484996Y442069D01*
X2490308Y443493D01*
X2491732Y438181D01*
X2486420Y436757D01*
G37*
G36*
X2483961Y445933D02*
X2482537Y451245D01*
X2487849Y452669D01*
X2489273Y447357D01*
X2483961Y445933D01*
G37*
G36*
X2474785Y443474D02*
X2473361Y448786D01*
X2478673Y450210D01*
X2480097Y444898D01*
X2474785Y443474D01*
G37*
G36*
X2438869Y367564D02*
X2437445Y372876D01*
X2442757Y374300D01*
X2444181Y368988D01*
X2438869Y367564D01*
G37*
G36*
X2448046Y370023D02*
X2446622Y375335D01*
X2451934Y376759D01*
X2453358Y371447D01*
X2448046Y370023D01*
G37*
G36*
X2445587Y379200D02*
X2444163Y384512D01*
X2449475Y385936D01*
X2450899Y380624D01*
X2445587Y379200D01*
G37*
G36*
X2436410Y376741D02*
X2434986Y382053D01*
X2440298Y383477D01*
X2441722Y378165D01*
X2436410Y376741D01*
G37*
G36*
X2400345Y301091D02*
X2398921Y306403D01*
X2404233Y307827D01*
X2405657Y302515D01*
X2400345Y301091D01*
G37*
G36*
X2409521Y303549D02*
X2408097Y308861D01*
X2413409Y310285D01*
X2414833Y304973D01*
X2409521Y303549D01*
G37*
G36*
X2407062Y312726D02*
X2405638Y318038D01*
X2410950Y319462D01*
X2412374Y314150D01*
X2407062Y312726D01*
G37*
G36*
X2397886Y310267D02*
X2396462Y315579D01*
X2401774Y317003D01*
X2403198Y311691D01*
X2397886Y310267D01*
G37*
G36*
X2254563Y278712D02*
X2257313Y283474D01*
X2262075Y280724D01*
X2259325Y275962D01*
X2254563Y278712D01*
G37*
G36*
X2262790Y273962D02*
X2265540Y278724D01*
X2270302Y275974D01*
X2267552Y271212D01*
X2262790Y273962D01*
G37*
G36*
X2267540Y282190D02*
X2270290Y286952D01*
X2275052Y284202D01*
X2272302Y279440D01*
X2267540Y282190D01*
G37*
G36*
X2259313Y286940D02*
X2262063Y291702D01*
X2266825Y288952D01*
X2264075Y284190D01*
X2259313Y286940D01*
G37*
G36*
X2450689Y160492D02*
X2445927Y163242D01*
X2448677Y168004D01*
X2453439Y165254D01*
X2450689Y160492D01*
G37*
G36*
X2455439Y168720D02*
X2450677Y171470D01*
X2453427Y176232D01*
X2458189Y173482D01*
X2455439Y168720D01*
G37*
G36*
X2447212Y173470D02*
X2442450Y176220D01*
X2445200Y180982D01*
X2449962Y178232D01*
X2447212Y173470D01*
G37*
G36*
X2442462Y165242D02*
X2437700Y167992D01*
X2440450Y172754D01*
X2445212Y170004D01*
X2442462Y165242D01*
G37*
G36*
X2362013Y234483D02*
X2360589Y239795D01*
X2365901Y241219D01*
X2367325Y235907D01*
X2362013Y234483D01*
G37*
G36*
X2371189Y236942D02*
X2369765Y242254D01*
X2375077Y243678D01*
X2376501Y238366D01*
X2371189Y236942D01*
G37*
G36*
X2368731Y246118D02*
X2367307Y251430D01*
X2372619Y252854D01*
X2374043Y247542D01*
X2368731Y246118D01*
G37*
G36*
X2359554Y243660D02*
X2358130Y248972D01*
X2363442Y250396D01*
X2364866Y245084D01*
X2359554Y243660D01*
G37*
D11*
G36*
X2349711Y235117D02*
X2355773Y231617D01*
X2350773Y222957D01*
X2344711Y226457D01*
X2349711Y235117D01*
G37*
G36*
X2361835Y228117D02*
X2367897Y224617D01*
X2362897Y215957D01*
X2356835Y219457D01*
X2361835Y228117D01*
G37*
D10*
G36*
X2322586Y167661D02*
X2321162Y172973D01*
X2326474Y174397D01*
X2327898Y169085D01*
X2322586Y167661D01*
G37*
G36*
X2331762Y170119D02*
X2330338Y175431D01*
X2335650Y176855D01*
X2337074Y171543D01*
X2331762Y170119D01*
G37*
G36*
X2329303Y179296D02*
X2327879Y184608D01*
X2333191Y186032D01*
X2334615Y180720D01*
X2329303Y179296D01*
G37*
G36*
X2320127Y176837D02*
X2318703Y182149D01*
X2324015Y183573D01*
X2325439Y178261D01*
X2320127Y176837D01*
G37*
G36*
X2513922Y786766D02*
X2519234Y785342D01*
X2517810Y780030D01*
X2512498Y781454D01*
X2513922Y786766D01*
G37*
G36*
X2511464Y777590D02*
X2516776Y776166D01*
X2515352Y770854D01*
X2510040Y772278D01*
X2511464Y777590D01*
G37*
G36*
X2520640Y775131D02*
X2525952Y773707D01*
X2524528Y768395D01*
X2519216Y769819D01*
X2520640Y775131D01*
G37*
G36*
X2523099Y784308D02*
X2528411Y782884D01*
X2526987Y777572D01*
X2521675Y778996D01*
X2523099Y784308D01*
G37*
D12*
X2514457Y917546D03*
X2514457Y908046D03*
X2523957Y908046D03*
X2523957Y917546D03*
D10*
G36*
X2431721Y912836D02*
X2435610Y916725D01*
X2439499Y912836D01*
X2435610Y908947D01*
X2431721Y912836D01*
G37*
G36*
X2438438Y906118D02*
X2442327Y910007D01*
X2446216Y906118D01*
X2442327Y902229D01*
X2438438Y906118D01*
G37*
G36*
X2445156Y912836D02*
X2449045Y916725D01*
X2452934Y912836D01*
X2449045Y908947D01*
X2445156Y912836D01*
G37*
G36*
X2438438Y919553D02*
X2442327Y923442D01*
X2446216Y919553D01*
X2442327Y915664D01*
X2438438Y919553D01*
G37*
G36*
X2354790Y912788D02*
X2358679Y916677D01*
X2362568Y912788D01*
X2358679Y908899D01*
X2354790Y912788D01*
G37*
G36*
X2361508Y906071D02*
X2365397Y909960D01*
X2369286Y906071D01*
X2365397Y902182D01*
X2361508Y906071D01*
G37*
G36*
X2368225Y912788D02*
X2372114Y916677D01*
X2376003Y912788D01*
X2372114Y908899D01*
X2368225Y912788D01*
G37*
G36*
X2361508Y919506D02*
X2365397Y923395D01*
X2369286Y919506D01*
X2365397Y915617D01*
X2361508Y919506D01*
G37*
D12*
X2238020Y1032636D03*
X2238020Y1023136D03*
X2247520Y1023136D03*
X2247520Y1032636D03*
X2147528Y1121793D03*
X2147528Y1112293D03*
X2157028Y1112293D03*
X2157028Y1121793D03*
X2236812Y793630D03*
X2246312Y793630D03*
X2246312Y803130D03*
X2236812Y803130D03*
D13*
X2248075Y919742D03*
X2248075Y905742D03*
D12*
X2147748Y703846D03*
X2157248Y703846D03*
X2157248Y713346D03*
X2147748Y713346D03*
D10*
G36*
X2277898Y912808D02*
X2281787Y916697D01*
X2285676Y912808D01*
X2281787Y908919D01*
X2277898Y912808D01*
G37*
G36*
X2284616Y906090D02*
X2288505Y909979D01*
X2292394Y906090D01*
X2288505Y902201D01*
X2284616Y906090D01*
G37*
G36*
X2291333Y912808D02*
X2295222Y916697D01*
X2299111Y912808D01*
X2295222Y908919D01*
X2291333Y912808D01*
G37*
G36*
X2284616Y919525D02*
X2288505Y923414D01*
X2292394Y919525D01*
X2288505Y915636D01*
X2284616Y919525D01*
G37*
G36*
X2200931Y912897D02*
X2204820Y916786D01*
X2208709Y912897D01*
X2204820Y909008D01*
X2200931Y912897D01*
G37*
G36*
X2207649Y906180D02*
X2211538Y910069D01*
X2215427Y906180D01*
X2211538Y902291D01*
X2207649Y906180D01*
G37*
G36*
X2214366Y912897D02*
X2218255Y916786D01*
X2222144Y912897D01*
X2218255Y909008D01*
X2214366Y912897D01*
G37*
G36*
X2207649Y919615D02*
X2211538Y923504D01*
X2215427Y919615D01*
X2211538Y915726D01*
X2207649Y919615D01*
G37*
G36*
X2123951Y912763D02*
X2127840Y916652D01*
X2131729Y912763D01*
X2127840Y908874D01*
X2123951Y912763D01*
G37*
G36*
X2130669Y906046D02*
X2134558Y909935D01*
X2138447Y906046D01*
X2134558Y902157D01*
X2130669Y906046D01*
G37*
G36*
X2137386Y912763D02*
X2141275Y916652D01*
X2145164Y912763D01*
X2141275Y908874D01*
X2137386Y912763D01*
G37*
G36*
X2130669Y919481D02*
X2134558Y923370D01*
X2138447Y919481D01*
X2134558Y915592D01*
X2130669Y919481D01*
G37*
G36*
X2047121Y912889D02*
X2051010Y916778D01*
X2054899Y912889D01*
X2051010Y909000D01*
X2047121Y912889D01*
G37*
G36*
X2053838Y906172D02*
X2057727Y910061D01*
X2061616Y906172D01*
X2057727Y902283D01*
X2053838Y906172D01*
G37*
G36*
X2060556Y912889D02*
X2064445Y916778D01*
X2068334Y912889D01*
X2064445Y909000D01*
X2060556Y912889D01*
G37*
G36*
X2053838Y919607D02*
X2057727Y923496D01*
X2061616Y919607D01*
X2057727Y915718D01*
X2053838Y919607D01*
G37*
D12*
X1957599Y1025201D03*
X1957599Y1015701D03*
X1967099Y1015701D03*
X1967099Y1025201D03*
X1953281Y801740D03*
X1962781Y801740D03*
X1962781Y811240D03*
X1953281Y811240D03*
D10*
G36*
X1970271Y912782D02*
X1974160Y916671D01*
X1978049Y912782D01*
X1974160Y908893D01*
X1970271Y912782D01*
G37*
G36*
X1976989Y906065D02*
X1980878Y909954D01*
X1984767Y906065D01*
X1980878Y902176D01*
X1976989Y906065D01*
G37*
G36*
X1983706Y912782D02*
X1987595Y916671D01*
X1991484Y912782D01*
X1987595Y908893D01*
X1983706Y912782D01*
G37*
G36*
X1976989Y919500D02*
X1980878Y923389D01*
X1984767Y919500D01*
X1980878Y915611D01*
X1976989Y919500D01*
G37*
D13*
X1959669Y920253D03*
X1959669Y906253D03*
D10*
G36*
X1892688Y913516D02*
X1896577Y917405D01*
X1900466Y913516D01*
X1896577Y909627D01*
X1892688Y913516D01*
G37*
G36*
X1899405Y906798D02*
X1903294Y910687D01*
X1907183Y906798D01*
X1903294Y902909D01*
X1899405Y906798D01*
G37*
G36*
X1906123Y913516D02*
X1910012Y917405D01*
X1913901Y913516D01*
X1910012Y909627D01*
X1906123Y913516D01*
G37*
G36*
X1899405Y920233D02*
X1903294Y924122D01*
X1907183Y920233D01*
X1903294Y916344D01*
X1899405Y920233D01*
G37*
G36*
X2524517Y1057366D02*
X2525941Y1052054D01*
X2520629Y1050630D01*
X2519205Y1055942D01*
X2524517Y1057366D01*
G37*
G36*
X2515340Y1054908D02*
X2516764Y1049596D01*
X2511452Y1048172D01*
X2510028Y1053484D01*
X2515340Y1054908D01*
G37*
G36*
X2517799Y1045731D02*
X2519223Y1040419D01*
X2513911Y1038995D01*
X2512487Y1044307D01*
X2517799Y1045731D01*
G37*
G36*
X2526976Y1048190D02*
X2528400Y1042878D01*
X2523088Y1041454D01*
X2521664Y1046766D01*
X2526976Y1048190D01*
G37*
G36*
X2639049Y1126049D02*
X2641799Y1121287D01*
X2637037Y1118537D01*
X2634287Y1123299D01*
X2639049Y1126049D01*
G37*
G36*
X2630822Y1121299D02*
X2633572Y1116537D01*
X2628810Y1113787D01*
X2626060Y1118549D01*
X2630822Y1121299D01*
G37*
G36*
X2635572Y1113071D02*
X2638322Y1108309D01*
X2633560Y1105559D01*
X2630810Y1110321D01*
X2635572Y1113071D01*
G37*
G36*
X2643799Y1117821D02*
X2646549Y1113059D01*
X2641787Y1110309D01*
X2639037Y1115071D01*
X2643799Y1117821D01*
G37*
G36*
X2592596Y1191589D02*
X2597908Y1190165D01*
X2596484Y1184853D01*
X2591172Y1186277D01*
X2592596Y1191589D01*
G37*
G36*
X2590137Y1182413D02*
X2595449Y1180989D01*
X2594025Y1175677D01*
X2588713Y1177101D01*
X2590137Y1182413D01*
G37*
G36*
X2599314Y1179954D02*
X2604626Y1178530D01*
X2603202Y1173218D01*
X2597890Y1174642D01*
X2599314Y1179954D01*
G37*
G36*
X2601772Y1189131D02*
X2607084Y1187707D01*
X2605660Y1182395D01*
X2600348Y1183819D01*
X2601772Y1189131D01*
G37*
G36*
X2554090Y1258189D02*
X2559402Y1256765D01*
X2557978Y1251453D01*
X2552666Y1252877D01*
X2554090Y1258189D01*
G37*
G36*
X2551631Y1249013D02*
X2556943Y1247589D01*
X2555519Y1242277D01*
X2550207Y1243701D01*
X2551631Y1249013D01*
G37*
G36*
X2560808Y1246554D02*
X2566120Y1245130D01*
X2564696Y1239818D01*
X2559384Y1241242D01*
X2560808Y1246554D01*
G37*
G36*
X2563267Y1255731D02*
X2568579Y1254307D01*
X2567155Y1248995D01*
X2561843Y1250419D01*
X2563267Y1255731D01*
G37*
G36*
X2600502Y1422995D02*
X2603252Y1418233D01*
X2598490Y1415483D01*
X2595740Y1420245D01*
X2600502Y1422995D01*
G37*
G36*
X2592274Y1418245D02*
X2595024Y1413483D01*
X2590262Y1410733D01*
X2587512Y1415495D01*
X2592274Y1418245D01*
G37*
G36*
X2597024Y1410018D02*
X2599774Y1405256D01*
X2595012Y1402506D01*
X2592262Y1407268D01*
X2597024Y1410018D01*
G37*
G36*
X2605252Y1414768D02*
X2608002Y1410006D01*
X2603240Y1407256D01*
X2600490Y1412018D01*
X2605252Y1414768D01*
G37*
G36*
X2632468Y1545942D02*
X2635218Y1541180D01*
X2630456Y1538430D01*
X2627706Y1543192D01*
X2632468Y1545942D01*
G37*
G36*
X2624240Y1541192D02*
X2626990Y1536430D01*
X2622228Y1533680D01*
X2619478Y1538442D01*
X2624240Y1541192D01*
G37*
G36*
X2628990Y1532965D02*
X2631740Y1528203D01*
X2626978Y1525453D01*
X2624228Y1530215D01*
X2628990Y1532965D01*
G37*
G36*
X2637218Y1537715D02*
X2639968Y1532953D01*
X2635206Y1530203D01*
X2632456Y1534965D01*
X2637218Y1537715D01*
G37*
G36*
X2388150Y1301788D02*
X2392912Y1304538D01*
X2395662Y1299776D01*
X2390900Y1297026D01*
X2388150Y1301788D01*
G37*
G36*
X2392900Y1293561D02*
X2397662Y1296311D01*
X2400412Y1291549D01*
X2395650Y1288799D01*
X2392900Y1293561D01*
G37*
G36*
X2401127Y1298311D02*
X2405889Y1301061D01*
X2408639Y1296299D01*
X2403877Y1293549D01*
X2401127Y1298311D01*
G37*
G36*
X2396377Y1306538D02*
X2401139Y1309288D01*
X2403889Y1304526D01*
X2399127Y1301776D01*
X2396377Y1306538D01*
G37*
D11*
G36*
X2512284Y1351505D02*
X2506222Y1348005D01*
X2501222Y1356665D01*
X2507284Y1360165D01*
X2512284Y1351505D01*
G37*
G36*
X2500160Y1344505D02*
X2494098Y1341005D01*
X2489098Y1349665D01*
X2495160Y1353165D01*
X2500160Y1344505D01*
G37*
D10*
G36*
X2265863Y1334028D02*
X2270625Y1336778D01*
X2273375Y1332016D01*
X2268613Y1329266D01*
X2265863Y1334028D01*
G37*
G36*
X2270613Y1325801D02*
X2275375Y1328551D01*
X2278125Y1323789D01*
X2273363Y1321039D01*
X2270613Y1325801D01*
G37*
G36*
X2278840Y1330551D02*
X2283602Y1333301D01*
X2286352Y1328539D01*
X2281590Y1325789D01*
X2278840Y1330551D01*
G37*
G36*
X2274090Y1338778D02*
X2278852Y1341528D01*
X2281602Y1336766D01*
X2276840Y1334016D01*
X2274090Y1338778D01*
G37*
G36*
X2515661Y1324789D02*
X2520973Y1323365D01*
X2519549Y1318053D01*
X2514237Y1319477D01*
X2515661Y1324789D01*
G37*
G36*
X2513202Y1315613D02*
X2518514Y1314189D01*
X2517090Y1308877D01*
X2511778Y1310301D01*
X2513202Y1315613D01*
G37*
G36*
X2522378Y1313154D02*
X2527690Y1311730D01*
X2526266Y1306418D01*
X2520954Y1307842D01*
X2522378Y1313154D01*
G37*
G36*
X2524837Y1322331D02*
X2530149Y1320907D01*
X2528725Y1315595D01*
X2523413Y1317019D01*
X2524837Y1322331D01*
G37*
G36*
X2477255Y1391489D02*
X2482567Y1390065D01*
X2481143Y1384753D01*
X2475831Y1386177D01*
X2477255Y1391489D01*
G37*
G36*
X2474796Y1382313D02*
X2480108Y1380889D01*
X2478684Y1375577D01*
X2473372Y1377001D01*
X2474796Y1382313D01*
G37*
G36*
X2483972Y1379854D02*
X2489284Y1378430D01*
X2487860Y1373118D01*
X2482548Y1374542D01*
X2483972Y1379854D01*
G37*
G36*
X2486431Y1389031D02*
X2491743Y1387607D01*
X2490319Y1382295D01*
X2485007Y1383719D01*
X2486431Y1389031D01*
G37*
G36*
X2438649Y1458089D02*
X2443961Y1456665D01*
X2442537Y1451353D01*
X2437225Y1452777D01*
X2438649Y1458089D01*
G37*
G36*
X2436190Y1448913D02*
X2441502Y1447489D01*
X2440078Y1442177D01*
X2434766Y1443601D01*
X2436190Y1448913D01*
G37*
G36*
X2445366Y1446454D02*
X2450678Y1445030D01*
X2449254Y1439718D01*
X2443942Y1441142D01*
X2445366Y1446454D01*
G37*
G36*
X2447825Y1455631D02*
X2453137Y1454207D01*
X2451713Y1448895D01*
X2446401Y1450319D01*
X2447825Y1455631D01*
G37*
G36*
X2400343Y1524689D02*
X2405655Y1523265D01*
X2404231Y1517953D01*
X2398919Y1519377D01*
X2400343Y1524689D01*
G37*
G36*
X2397884Y1515513D02*
X2403196Y1514089D01*
X2401772Y1508777D01*
X2396460Y1510201D01*
X2397884Y1515513D01*
G37*
G36*
X2407061Y1513054D02*
X2412373Y1511630D01*
X2410949Y1506318D01*
X2405637Y1507742D01*
X2407061Y1513054D01*
G37*
G36*
X2409519Y1522231D02*
X2414831Y1520807D01*
X2413407Y1515495D01*
X2408095Y1516919D01*
X2409519Y1522231D01*
G37*
G36*
X2453852Y1662129D02*
X2456602Y1657367D01*
X2451840Y1654617D01*
X2449090Y1659379D01*
X2453852Y1662129D01*
G37*
G36*
X2445625Y1657379D02*
X2448375Y1652617D01*
X2443613Y1649867D01*
X2440863Y1654629D01*
X2445625Y1657379D01*
G37*
G36*
X2450375Y1649152D02*
X2453125Y1644390D01*
X2448363Y1641640D01*
X2445613Y1646402D01*
X2450375Y1649152D01*
G37*
G36*
X2458602Y1653902D02*
X2461352Y1649140D01*
X2456590Y1646390D01*
X2453840Y1651152D01*
X2458602Y1653902D01*
G37*
G36*
X2253409Y1551388D02*
X2258171Y1554138D01*
X2260921Y1549376D01*
X2256159Y1546626D01*
X2253409Y1551388D01*
G37*
G36*
X2258159Y1543161D02*
X2262921Y1545911D01*
X2265671Y1541149D01*
X2260909Y1538399D01*
X2258159Y1543161D01*
G37*
G36*
X2266386Y1547911D02*
X2271148Y1550661D01*
X2273898Y1545899D01*
X2269136Y1543149D01*
X2266386Y1547911D01*
G37*
G36*
X2261636Y1556138D02*
X2266398Y1558888D01*
X2269148Y1554126D01*
X2264386Y1551376D01*
X2261636Y1556138D01*
G37*
G36*
X2361825Y1591189D02*
X2367137Y1589765D01*
X2365713Y1584453D01*
X2360401Y1585877D01*
X2361825Y1591189D01*
G37*
G36*
X2359366Y1582013D02*
X2364678Y1580589D01*
X2363254Y1575277D01*
X2357942Y1576701D01*
X2359366Y1582013D01*
G37*
G36*
X2368543Y1579554D02*
X2373855Y1578130D01*
X2372431Y1572818D01*
X2367119Y1574242D01*
X2368543Y1579554D01*
G37*
G36*
X2371002Y1588731D02*
X2376314Y1587307D01*
X2374890Y1581995D01*
X2369578Y1583419D01*
X2371002Y1588731D01*
G37*
D11*
G36*
X2368525Y1601526D02*
X2362463Y1598026D01*
X2357463Y1606686D01*
X2363525Y1610186D01*
X2368525Y1601526D01*
G37*
G36*
X2356400Y1594526D02*
X2350338Y1591026D01*
X2345338Y1599686D01*
X2351400Y1603186D01*
X2356400Y1594526D01*
G37*
D10*
G36*
X2323669Y1658746D02*
X2328981Y1657322D01*
X2327557Y1652010D01*
X2322245Y1653434D01*
X2323669Y1658746D01*
G37*
G36*
X2321210Y1649569D02*
X2326522Y1648145D01*
X2325098Y1642833D01*
X2319786Y1644257D01*
X2321210Y1649569D01*
G37*
G36*
X2330386Y1647111D02*
X2335698Y1645687D01*
X2334274Y1640375D01*
X2328962Y1641799D01*
X2330386Y1647111D01*
G37*
G36*
X2332845Y1656287D02*
X2338157Y1654863D01*
X2336733Y1649551D01*
X2331421Y1650975D01*
X2332845Y1656287D01*
G37*
G36*
X2764161Y1183491D02*
X2760272Y1179602D01*
X2756383Y1183491D01*
X2760272Y1187380D01*
X2764161Y1183491D01*
G37*
G36*
X2757444Y1190208D02*
X2753555Y1186319D01*
X2749666Y1190208D01*
X2753555Y1194097D01*
X2757444Y1190208D01*
G37*
G36*
X2750726Y1183491D02*
X2746837Y1179602D01*
X2742948Y1183491D01*
X2746837Y1187380D01*
X2750726Y1183491D01*
G37*
G36*
X2757444Y1176773D02*
X2753555Y1172884D01*
X2749666Y1176773D01*
X2753555Y1180662D01*
X2757444Y1176773D01*
G37*
G36*
X2880908Y1118643D02*
X2878158Y1113881D01*
X2873396Y1116631D01*
X2876146Y1121393D01*
X2880908Y1118643D01*
G37*
G36*
X2872681Y1123393D02*
X2869931Y1118631D01*
X2865169Y1121381D01*
X2867919Y1126143D01*
X2872681Y1123393D01*
G37*
G36*
X2867931Y1115166D02*
X2865181Y1110404D01*
X2860419Y1113154D01*
X2863169Y1117916D01*
X2867931Y1115166D01*
G37*
G36*
X2876158Y1110416D02*
X2873408Y1105654D01*
X2868646Y1108404D01*
X2871396Y1113166D01*
X2876158Y1110416D01*
G37*
G36*
X2914441Y1191644D02*
X2915865Y1186332D01*
X2910553Y1184908D01*
X2909129Y1190220D01*
X2914441Y1191644D01*
G37*
G36*
X2905264Y1189186D02*
X2906688Y1183874D01*
X2901376Y1182450D01*
X2899952Y1187762D01*
X2905264Y1189186D01*
G37*
G36*
X2907723Y1180009D02*
X2909147Y1174697D01*
X2903835Y1173273D01*
X2902411Y1178585D01*
X2907723Y1180009D01*
G37*
G36*
X2916899Y1182468D02*
X2918323Y1177156D01*
X2913011Y1175732D01*
X2911587Y1181044D01*
X2916899Y1182468D01*
G37*
G36*
X2952865Y1258292D02*
X2954289Y1252980D01*
X2948977Y1251556D01*
X2947553Y1256868D01*
X2952865Y1258292D01*
G37*
G36*
X2943689Y1255833D02*
X2945113Y1250521D01*
X2939801Y1249097D01*
X2938377Y1254409D01*
X2943689Y1255833D01*
G37*
G36*
X2946147Y1246656D02*
X2947571Y1241344D01*
X2942259Y1239920D01*
X2940835Y1245232D01*
X2946147Y1246656D01*
G37*
G36*
X2955324Y1249115D02*
X2956748Y1243803D01*
X2951436Y1242379D01*
X2950012Y1247691D01*
X2955324Y1249115D01*
G37*
G36*
X3118798Y1300500D02*
X3116048Y1295738D01*
X3111286Y1298488D01*
X3114036Y1303250D01*
X3118798Y1300500D01*
G37*
G36*
X3110570Y1305250D02*
X3107820Y1300488D01*
X3103058Y1303238D01*
X3105808Y1308000D01*
X3110570Y1305250D01*
G37*
G36*
X3105820Y1297023D02*
X3103070Y1292261D01*
X3098308Y1295011D01*
X3101058Y1299773D01*
X3105820Y1297023D01*
G37*
G36*
X3114048Y1292273D02*
X3111298Y1287511D01*
X3106536Y1290261D01*
X3109286Y1295023D01*
X3114048Y1292273D01*
G37*
G36*
X3241256Y1334290D02*
X3238506Y1329528D01*
X3233744Y1332278D01*
X3236494Y1337040D01*
X3241256Y1334290D01*
G37*
G36*
X3233028Y1339040D02*
X3230278Y1334278D01*
X3225516Y1337028D01*
X3228266Y1341790D01*
X3233028Y1339040D01*
G37*
G36*
X3228278Y1330813D02*
X3225528Y1326051D01*
X3220766Y1328801D01*
X3223516Y1333563D01*
X3228278Y1330813D01*
G37*
G36*
X3236506Y1326063D02*
X3233756Y1321301D01*
X3228994Y1324051D01*
X3231744Y1328813D01*
X3236506Y1326063D01*
G37*
G36*
X2907654Y1423799D02*
X2912416Y1421049D01*
X2909666Y1416287D01*
X2904904Y1419037D01*
X2907654Y1423799D01*
G37*
G36*
X2902904Y1415572D02*
X2907666Y1412822D01*
X2904916Y1408060D01*
X2900154Y1410810D01*
X2902904Y1415572D01*
G37*
G36*
X2911131Y1410822D02*
X2915893Y1408072D01*
X2913143Y1403310D01*
X2908381Y1406060D01*
X2911131Y1410822D01*
G37*
G36*
X2915881Y1419049D02*
X2920643Y1416299D01*
X2917893Y1411537D01*
X2913131Y1414287D01*
X2915881Y1419049D01*
G37*
D11*
G36*
X3012776Y1341154D02*
X3006714Y1344654D01*
X3011714Y1353314D01*
X3017776Y1349814D01*
X3012776Y1341154D01*
G37*
G36*
X3000652Y1348154D02*
X2994590Y1351654D01*
X2999590Y1360314D01*
X3005652Y1356814D01*
X3000652Y1348154D01*
G37*
D10*
G36*
X2874431Y1545822D02*
X2879193Y1543072D01*
X2876443Y1538310D01*
X2871681Y1541060D01*
X2874431Y1545822D01*
G37*
G36*
X2869681Y1537595D02*
X2874443Y1534845D01*
X2871693Y1530083D01*
X2866931Y1532833D01*
X2869681Y1537595D01*
G37*
G36*
X2877908Y1532845D02*
X2882670Y1530095D01*
X2879920Y1525333D01*
X2875158Y1528083D01*
X2877908Y1532845D01*
G37*
G36*
X2882658Y1541072D02*
X2887420Y1538322D01*
X2884670Y1533560D01*
X2879908Y1536310D01*
X2882658Y1541072D01*
G37*
G36*
X2991328Y1324872D02*
X2992752Y1319560D01*
X2987440Y1318136D01*
X2986016Y1323448D01*
X2991328Y1324872D01*
G37*
G36*
X2982151Y1322414D02*
X2983575Y1317102D01*
X2978263Y1315678D01*
X2976839Y1320990D01*
X2982151Y1322414D01*
G37*
G36*
X2984610Y1313237D02*
X2986034Y1307925D01*
X2980722Y1306501D01*
X2979298Y1311813D01*
X2984610Y1313237D01*
G37*
G36*
X2993786Y1315696D02*
X2995210Y1310384D01*
X2989898Y1308960D01*
X2988474Y1314272D01*
X2993786Y1315696D01*
G37*
G36*
X3029888Y1391483D02*
X3031312Y1386171D01*
X3026000Y1384747D01*
X3024576Y1390059D01*
X3029888Y1391483D01*
G37*
G36*
X3020712Y1389024D02*
X3022136Y1383712D01*
X3016824Y1382288D01*
X3015400Y1387600D01*
X3020712Y1389024D01*
G37*
G36*
X3023171Y1379848D02*
X3024595Y1374536D01*
X3019283Y1373112D01*
X3017859Y1378424D01*
X3023171Y1379848D01*
G37*
G36*
X3032347Y1382307D02*
X3033771Y1376995D01*
X3028459Y1375571D01*
X3027035Y1380883D01*
X3032347Y1382307D01*
G37*
G36*
X3068263Y1458217D02*
X3069687Y1452905D01*
X3064375Y1451481D01*
X3062951Y1456793D01*
X3068263Y1458217D01*
G37*
G36*
X3059086Y1455758D02*
X3060510Y1450446D01*
X3055198Y1449022D01*
X3053774Y1454334D01*
X3059086Y1455758D01*
G37*
G36*
X3061545Y1446582D02*
X3062969Y1441270D01*
X3057657Y1439846D01*
X3056233Y1445158D01*
X3061545Y1446582D01*
G37*
G36*
X3070722Y1449040D02*
X3072146Y1443728D01*
X3066834Y1442304D01*
X3065410Y1447616D01*
X3070722Y1449040D01*
G37*
G36*
X3106787Y1524691D02*
X3108211Y1519379D01*
X3102899Y1517955D01*
X3101475Y1523267D01*
X3106787Y1524691D01*
G37*
G36*
X3097611Y1522232D02*
X3099035Y1516920D01*
X3093723Y1515496D01*
X3092299Y1520808D01*
X3097611Y1522232D01*
G37*
G36*
X3100070Y1513055D02*
X3101494Y1507743D01*
X3096182Y1506319D01*
X3094758Y1511631D01*
X3100070Y1513055D01*
G37*
G36*
X3109246Y1515514D02*
X3110670Y1510202D01*
X3105358Y1508778D01*
X3103934Y1514090D01*
X3109246Y1515514D01*
G37*
G36*
X3252569Y1547069D02*
X3249819Y1542307D01*
X3245057Y1545057D01*
X3247807Y1549819D01*
X3252569Y1547069D01*
G37*
G36*
X3244342Y1551819D02*
X3241592Y1547057D01*
X3236830Y1549807D01*
X3239580Y1554569D01*
X3244342Y1551819D01*
G37*
G36*
X3239592Y1543591D02*
X3236842Y1538829D01*
X3232080Y1541579D01*
X3234830Y1546341D01*
X3239592Y1543591D01*
G37*
G36*
X3247819Y1538841D02*
X3245069Y1534079D01*
X3240307Y1536829D01*
X3243057Y1541591D01*
X3247819Y1538841D01*
G37*
G36*
X3056443Y1665289D02*
X3061205Y1662539D01*
X3058455Y1657777D01*
X3053693Y1660527D01*
X3056443Y1665289D01*
G37*
G36*
X3051693Y1657061D02*
X3056455Y1654311D01*
X3053705Y1649549D01*
X3048943Y1652299D01*
X3051693Y1657061D01*
G37*
G36*
X3059921Y1652311D02*
X3064683Y1649561D01*
X3061933Y1644799D01*
X3057171Y1647549D01*
X3059921Y1652311D01*
G37*
G36*
X3064671Y1660539D02*
X3069433Y1657789D01*
X3066683Y1653027D01*
X3061921Y1655777D01*
X3064671Y1660539D01*
G37*
G36*
X3145119Y1591298D02*
X3146543Y1585986D01*
X3141231Y1584562D01*
X3139807Y1589874D01*
X3145119Y1591298D01*
G37*
G36*
X3135943Y1588839D02*
X3137367Y1583527D01*
X3132055Y1582103D01*
X3130631Y1587415D01*
X3135943Y1588839D01*
G37*
G36*
X3138401Y1579663D02*
X3139825Y1574351D01*
X3134513Y1572927D01*
X3133089Y1578239D01*
X3138401Y1579663D01*
G37*
G36*
X3147578Y1582122D02*
X3149002Y1576810D01*
X3143690Y1575386D01*
X3142266Y1580698D01*
X3147578Y1582122D01*
G37*
D11*
G36*
X3157421Y1590664D02*
X3151359Y1594164D01*
X3156359Y1602824D01*
X3162421Y1599324D01*
X3157421Y1590664D01*
G37*
G36*
X3145297Y1597664D02*
X3139235Y1601164D01*
X3144235Y1609824D01*
X3150297Y1606324D01*
X3145297Y1597664D01*
G37*
D10*
G36*
X3184546Y1658121D02*
X3185970Y1652809D01*
X3180658Y1651385D01*
X3179234Y1656697D01*
X3184546Y1658121D01*
G37*
G36*
X3175370Y1655662D02*
X3176794Y1650350D01*
X3171482Y1648926D01*
X3170058Y1654238D01*
X3175370Y1655662D01*
G37*
G36*
X3177829Y1646486D02*
X3179253Y1641174D01*
X3173941Y1639750D01*
X3172517Y1645062D01*
X3177829Y1646486D01*
G37*
G36*
X3187005Y1648944D02*
X3188429Y1643632D01*
X3183117Y1642208D01*
X3181693Y1647520D01*
X3187005Y1648944D01*
G37*
G36*
X2993210Y1039015D02*
X2987898Y1040439D01*
X2989322Y1045751D01*
X2994634Y1044327D01*
X2993210Y1039015D01*
G37*
G36*
X2995668Y1048191D02*
X2990356Y1049615D01*
X2991780Y1054927D01*
X2997092Y1053503D01*
X2995668Y1048191D01*
G37*
G36*
X2986492Y1050650D02*
X2981180Y1052074D01*
X2982604Y1057386D01*
X2987916Y1055962D01*
X2986492Y1050650D01*
G37*
G36*
X2984033Y1041473D02*
X2978721Y1042897D01*
X2980145Y1048209D01*
X2985457Y1046785D01*
X2984033Y1041473D01*
G37*
D12*
X2992675Y908235D03*
X2992675Y917735D03*
X2983175Y917735D03*
X2983175Y908235D03*
D10*
G36*
X3075411Y912946D02*
X3071522Y909057D01*
X3067633Y912946D01*
X3071522Y916835D01*
X3075411Y912946D01*
G37*
G36*
X3068694Y919663D02*
X3064805Y915774D01*
X3060916Y919663D01*
X3064805Y923552D01*
X3068694Y919663D01*
G37*
G36*
X3061976Y912946D02*
X3058087Y909057D01*
X3054198Y912946D01*
X3058087Y916835D01*
X3061976Y912946D01*
G37*
G36*
X3068694Y906228D02*
X3064805Y902339D01*
X3060916Y906228D01*
X3064805Y910117D01*
X3068694Y906228D01*
G37*
G36*
X3152342Y912993D02*
X3148453Y909104D01*
X3144564Y912993D01*
X3148453Y916882D01*
X3152342Y912993D01*
G37*
G36*
X3145624Y919710D02*
X3141735Y915821D01*
X3137846Y919710D01*
X3141735Y923599D01*
X3145624Y919710D01*
G37*
G36*
X3138907Y912993D02*
X3135018Y909104D01*
X3131129Y912993D01*
X3135018Y916882D01*
X3138907Y912993D01*
G37*
G36*
X3145624Y906275D02*
X3141735Y902386D01*
X3137846Y906275D01*
X3141735Y910164D01*
X3145624Y906275D01*
G37*
D12*
X3269112Y793145D03*
X3269112Y802645D03*
X3259612Y802645D03*
X3259612Y793145D03*
X3359604Y703988D03*
X3359604Y713488D03*
X3350104Y713488D03*
X3350104Y703988D03*
X3270320Y1032152D03*
X3260820Y1032152D03*
X3260820Y1022652D03*
X3270320Y1022652D03*
D13*
X3259057Y906040D03*
X3259057Y920040D03*
D12*
X3359384Y1121935D03*
X3349884Y1121935D03*
X3349884Y1112435D03*
X3359384Y1112435D03*
D10*
G36*
X3229234Y912974D02*
X3225345Y909085D01*
X3221456Y912974D01*
X3225345Y916863D01*
X3229234Y912974D01*
G37*
G36*
X3222516Y919691D02*
X3218627Y915802D01*
X3214738Y919691D01*
X3218627Y923580D01*
X3222516Y919691D01*
G37*
G36*
X3215799Y912974D02*
X3211910Y909085D01*
X3208021Y912974D01*
X3211910Y916863D01*
X3215799Y912974D01*
G37*
G36*
X3222516Y906256D02*
X3218627Y902367D01*
X3214738Y906256D01*
X3218627Y910145D01*
X3222516Y906256D01*
G37*
G36*
X3306201Y912884D02*
X3302312Y908995D01*
X3298423Y912884D01*
X3302312Y916773D01*
X3306201Y912884D01*
G37*
G36*
X3299483Y919602D02*
X3295594Y915713D01*
X3291705Y919602D01*
X3295594Y923491D01*
X3299483Y919602D01*
G37*
G36*
X3292766Y912884D02*
X3288877Y908995D01*
X3284988Y912884D01*
X3288877Y916773D01*
X3292766Y912884D01*
G37*
G36*
X3299483Y906167D02*
X3295594Y902278D01*
X3291705Y906167D01*
X3295594Y910056D01*
X3299483Y906167D01*
G37*
G36*
X3383181Y913018D02*
X3379292Y909129D01*
X3375403Y913018D01*
X3379292Y916907D01*
X3383181Y913018D01*
G37*
G36*
X3376463Y919735D02*
X3372574Y915846D01*
X3368685Y919735D01*
X3372574Y923624D01*
X3376463Y919735D01*
G37*
G36*
X3369746Y913018D02*
X3365857Y909129D01*
X3361968Y913018D01*
X3365857Y916907D01*
X3369746Y913018D01*
G37*
G36*
X3376463Y906300D02*
X3372574Y902411D01*
X3368685Y906300D01*
X3372574Y910189D01*
X3376463Y906300D01*
G37*
G36*
X3460011Y912892D02*
X3456122Y909003D01*
X3452233Y912892D01*
X3456122Y916781D01*
X3460011Y912892D01*
G37*
G36*
X3453294Y919609D02*
X3449405Y915720D01*
X3445516Y919609D01*
X3449405Y923498D01*
X3453294Y919609D01*
G37*
G36*
X3446576Y912892D02*
X3442687Y909003D01*
X3438798Y912892D01*
X3442687Y916781D01*
X3446576Y912892D01*
G37*
G36*
X3453294Y906174D02*
X3449405Y902285D01*
X3445516Y906174D01*
X3449405Y910063D01*
X3453294Y906174D01*
G37*
D12*
X3549533Y800580D03*
X3549533Y810080D03*
X3540033Y810080D03*
X3540033Y800580D03*
X3553851Y1024041D03*
X3544351Y1024041D03*
X3544351Y1014541D03*
X3553851Y1014541D03*
D10*
G36*
X3536861Y912999D02*
X3532972Y909110D01*
X3529083Y912999D01*
X3532972Y916888D01*
X3536861Y912999D01*
G37*
G36*
X3530143Y919717D02*
X3526254Y915828D01*
X3522365Y919717D01*
X3526254Y923606D01*
X3530143Y919717D01*
G37*
G36*
X3523426Y912999D02*
X3519537Y909110D01*
X3515648Y912999D01*
X3519537Y916888D01*
X3523426Y912999D01*
G37*
G36*
X3530143Y906282D02*
X3526254Y902393D01*
X3522365Y906282D01*
X3526254Y910171D01*
X3530143Y906282D01*
G37*
D13*
X3547463Y905528D03*
X3547463Y919528D03*
D10*
G36*
X3614444Y912265D02*
X3610555Y908376D01*
X3606666Y912265D01*
X3610555Y916154D01*
X3614444Y912265D01*
G37*
G36*
X3607727Y918983D02*
X3603838Y915094D01*
X3599949Y918983D01*
X3603838Y922872D01*
X3607727Y918983D01*
G37*
G36*
X3601009Y912265D02*
X3597120Y908376D01*
X3593231Y912265D01*
X3597120Y916154D01*
X3601009Y912265D01*
G37*
G36*
X3607727Y905548D02*
X3603838Y901659D01*
X3599949Y905548D01*
X3603838Y909437D01*
X3607727Y905548D01*
G37*
G36*
X2982615Y768415D02*
X2981191Y773727D01*
X2986503Y775151D01*
X2987927Y769839D01*
X2982615Y768415D01*
G37*
G36*
X2991792Y770873D02*
X2990368Y776185D01*
X2995680Y777609D01*
X2997104Y772297D01*
X2991792Y770873D01*
G37*
G36*
X2989333Y780050D02*
X2987909Y785362D01*
X2993221Y786786D01*
X2994645Y781474D01*
X2989333Y780050D01*
G37*
G36*
X2980157Y777591D02*
X2978733Y782903D01*
X2984045Y784327D01*
X2985469Y779015D01*
X2980157Y777591D01*
G37*
G36*
X2868083Y699733D02*
X2865333Y704495D01*
X2870095Y707245D01*
X2872845Y702483D01*
X2868083Y699733D01*
G37*
G36*
X2876310Y704483D02*
X2873560Y709245D01*
X2878322Y711995D01*
X2881072Y707233D01*
X2876310Y704483D01*
G37*
G36*
X2871560Y712710D02*
X2868810Y717472D01*
X2873572Y720222D01*
X2876322Y715460D01*
X2871560Y712710D01*
G37*
G36*
X2863333Y707960D02*
X2860583Y712722D01*
X2865345Y715472D01*
X2868095Y710710D01*
X2863333Y707960D01*
G37*
G36*
X2914536Y634192D02*
X2909224Y635616D01*
X2910648Y640928D01*
X2915960Y639504D01*
X2914536Y634192D01*
G37*
G36*
X2916995Y643368D02*
X2911683Y644792D01*
X2913107Y650104D01*
X2918419Y648680D01*
X2916995Y643368D01*
G37*
G36*
X2907818Y645827D02*
X2902506Y647251D01*
X2903930Y652563D01*
X2909242Y651139D01*
X2907818Y645827D01*
G37*
G36*
X2905360Y636651D02*
X2900048Y638075D01*
X2901472Y643387D01*
X2906784Y641963D01*
X2905360Y636651D01*
G37*
G36*
X2953042Y567592D02*
X2947730Y569016D01*
X2949154Y574328D01*
X2954466Y572904D01*
X2953042Y567592D01*
G37*
G36*
X2955501Y576768D02*
X2950189Y578192D01*
X2951613Y583504D01*
X2956925Y582080D01*
X2955501Y576768D01*
G37*
G36*
X2946324Y579227D02*
X2941012Y580651D01*
X2942436Y585963D01*
X2947748Y584539D01*
X2946324Y579227D01*
G37*
G36*
X2943866Y570050D02*
X2938554Y571474D01*
X2939978Y576786D01*
X2945290Y575362D01*
X2943866Y570050D01*
G37*
G36*
X2906630Y402786D02*
X2903880Y407548D01*
X2908642Y410298D01*
X2911392Y405536D01*
X2906630Y402786D01*
G37*
G36*
X2914858Y407536D02*
X2912108Y412298D01*
X2916870Y415048D01*
X2919620Y410286D01*
X2914858Y407536D01*
G37*
G36*
X2910108Y415763D02*
X2907358Y420525D01*
X2912120Y423275D01*
X2914870Y418513D01*
X2910108Y415763D01*
G37*
G36*
X2901880Y411013D02*
X2899130Y415775D01*
X2903892Y418525D01*
X2906642Y413763D01*
X2901880Y411013D01*
G37*
G36*
X2874665Y279839D02*
X2871915Y284601D01*
X2876677Y287351D01*
X2879427Y282589D01*
X2874665Y279839D01*
G37*
G36*
X2882892Y284589D02*
X2880142Y289351D01*
X2884904Y292101D01*
X2887654Y287339D01*
X2882892Y284589D01*
G37*
G36*
X2878142Y292816D02*
X2875392Y297578D01*
X2880154Y300328D01*
X2882904Y295566D01*
X2878142Y292816D01*
G37*
G36*
X2869915Y288066D02*
X2867165Y292828D01*
X2871927Y295578D01*
X2874677Y290816D01*
X2869915Y288066D01*
G37*
G36*
X3118982Y523993D02*
X3114220Y521243D01*
X3111470Y526005D01*
X3116232Y528755D01*
X3118982Y523993D01*
G37*
G36*
X3114232Y532220D02*
X3109470Y529470D01*
X3106720Y534232D01*
X3111482Y536982D01*
X3114232Y532220D01*
G37*
G36*
X3106005Y527470D02*
X3101243Y524720D01*
X3098493Y529482D01*
X3103255Y532232D01*
X3106005Y527470D01*
G37*
G36*
X3110755Y519243D02*
X3105993Y516493D01*
X3103243Y521255D01*
X3108005Y524005D01*
X3110755Y519243D01*
G37*
D11*
G36*
X2994848Y474277D02*
X3000910Y477777D01*
X3005910Y469117D01*
X2999848Y465617D01*
X2994848Y474277D01*
G37*
G36*
X3006972Y481277D02*
X3013034Y484777D01*
X3018034Y476117D01*
X3011972Y472617D01*
X3006972Y481277D01*
G37*
D10*
G36*
X3241269Y491753D02*
X3236507Y489003D01*
X3233757Y493765D01*
X3238519Y496515D01*
X3241269Y491753D01*
G37*
G36*
X3236519Y499980D02*
X3231757Y497230D01*
X3229007Y501992D01*
X3233769Y504742D01*
X3236519Y499980D01*
G37*
G36*
X3228292Y495230D02*
X3223530Y492480D01*
X3220780Y497242D01*
X3225542Y499992D01*
X3228292Y495230D01*
G37*
G36*
X3233042Y487003D02*
X3228280Y484253D01*
X3225530Y489015D01*
X3230292Y491765D01*
X3233042Y487003D01*
G37*
G36*
X2991471Y500992D02*
X2986159Y502416D01*
X2987583Y507728D01*
X2992895Y506304D01*
X2991471Y500992D01*
G37*
G36*
X2993930Y510168D02*
X2988618Y511592D01*
X2990042Y516904D01*
X2995354Y515480D01*
X2993930Y510168D01*
G37*
G36*
X2984754Y512627D02*
X2979442Y514051D01*
X2980866Y519363D01*
X2986178Y517939D01*
X2984754Y512627D01*
G37*
G36*
X2982295Y503450D02*
X2976983Y504874D01*
X2978407Y510186D01*
X2983719Y508762D01*
X2982295Y503450D01*
G37*
G36*
X3029877Y434292D02*
X3024565Y435716D01*
X3025989Y441028D01*
X3031301Y439604D01*
X3029877Y434292D01*
G37*
G36*
X3032336Y443468D02*
X3027024Y444892D01*
X3028448Y450204D01*
X3033760Y448780D01*
X3032336Y443468D01*
G37*
G36*
X3023160Y445927D02*
X3017848Y447351D01*
X3019272Y452663D01*
X3024584Y451239D01*
X3023160Y445927D01*
G37*
G36*
X3020701Y436750D02*
X3015389Y438174D01*
X3016813Y443486D01*
X3022125Y442062D01*
X3020701Y436750D01*
G37*
G36*
X3068483Y367692D02*
X3063171Y369116D01*
X3064595Y374428D01*
X3069907Y373004D01*
X3068483Y367692D01*
G37*
G36*
X3070942Y376868D02*
X3065630Y378292D01*
X3067054Y383604D01*
X3072366Y382180D01*
X3070942Y376868D01*
G37*
G36*
X3061766Y379327D02*
X3056454Y380751D01*
X3057878Y386063D01*
X3063190Y384639D01*
X3061766Y379327D01*
G37*
G36*
X3059307Y370150D02*
X3053995Y371574D01*
X3055419Y376886D01*
X3060731Y375462D01*
X3059307Y370150D01*
G37*
G36*
X3106789Y301092D02*
X3101477Y302516D01*
X3102901Y307828D01*
X3108213Y306404D01*
X3106789Y301092D01*
G37*
G36*
X3109248Y310268D02*
X3103936Y311692D01*
X3105360Y317004D01*
X3110672Y315580D01*
X3109248Y310268D01*
G37*
G36*
X3100072Y312727D02*
X3094760Y314151D01*
X3096184Y319463D01*
X3101496Y318039D01*
X3100072Y312727D01*
G37*
G36*
X3097613Y303551D02*
X3092301Y304975D01*
X3093725Y310287D01*
X3099037Y308863D01*
X3097613Y303551D01*
G37*
G36*
X3053280Y163652D02*
X3050530Y168414D01*
X3055292Y171164D01*
X3058042Y166402D01*
X3053280Y163652D01*
G37*
G36*
X3061507Y168402D02*
X3058757Y173164D01*
X3063519Y175914D01*
X3066269Y171152D01*
X3061507Y168402D01*
G37*
G36*
X3056757Y176629D02*
X3054007Y181391D01*
X3058769Y184141D01*
X3061519Y179379D01*
X3056757Y176629D01*
G37*
G36*
X3048530Y171879D02*
X3045780Y176641D01*
X3050542Y179391D01*
X3053292Y174629D01*
X3048530Y171879D01*
G37*
G36*
X3253724Y274393D02*
X3248962Y271643D01*
X3246212Y276405D01*
X3250974Y279155D01*
X3253724Y274393D01*
G37*
G36*
X3248974Y282620D02*
X3244212Y279870D01*
X3241462Y284632D01*
X3246224Y287382D01*
X3248974Y282620D01*
G37*
G36*
X3240746Y277870D02*
X3235984Y275120D01*
X3233234Y279882D01*
X3237996Y282632D01*
X3240746Y277870D01*
G37*
G36*
X3245496Y269643D02*
X3240734Y266893D01*
X3237984Y271655D01*
X3242746Y274405D01*
X3245496Y269643D01*
G37*
G36*
X3145307Y234592D02*
X3139995Y236016D01*
X3141419Y241328D01*
X3146731Y239904D01*
X3145307Y234592D01*
G37*
G36*
X3147766Y243768D02*
X3142454Y245192D01*
X3143878Y250504D01*
X3149190Y249080D01*
X3147766Y243768D01*
G37*
G36*
X3138589Y246227D02*
X3133277Y247651D01*
X3134701Y252963D01*
X3140013Y251539D01*
X3138589Y246227D01*
G37*
G36*
X3136130Y237050D02*
X3130818Y238474D01*
X3132242Y243786D01*
X3137554Y242362D01*
X3136130Y237050D01*
G37*
D11*
G36*
X3138607Y224255D02*
X3144669Y227755D01*
X3149669Y219095D01*
X3143607Y215595D01*
X3138607Y224255D01*
G37*
G36*
X3150732Y231255D02*
X3156794Y234755D01*
X3161794Y226095D01*
X3155732Y222595D01*
X3150732Y231255D01*
G37*
D10*
G36*
X3183463Y167035D02*
X3178151Y168459D01*
X3179575Y173771D01*
X3184887Y172347D01*
X3183463Y167035D01*
G37*
G36*
X3185922Y176212D02*
X3180610Y177636D01*
X3182034Y182948D01*
X3187346Y181524D01*
X3185922Y176212D01*
G37*
G36*
X3176746Y178670D02*
X3171434Y180094D01*
X3172858Y185406D01*
X3178170Y183982D01*
X3176746Y178670D01*
G37*
G36*
X3174287Y169494D02*
X3168975Y170918D01*
X3170399Y176230D01*
X3175711Y174806D01*
X3174287Y169494D01*
G37*
G36*
X2742971Y642291D02*
X2746860Y646180D01*
X2750749Y642291D01*
X2746860Y638402D01*
X2742971Y642291D01*
G37*
G36*
X2749688Y635573D02*
X2753577Y639462D01*
X2757466Y635573D01*
X2753577Y631684D01*
X2749688Y635573D01*
G37*
G36*
X2756406Y642291D02*
X2760295Y646180D01*
X2764184Y642291D01*
X2760295Y638402D01*
X2756406Y642291D01*
G37*
G36*
X2749688Y649008D02*
X2753577Y652897D01*
X2757466Y649008D01*
X2753577Y645119D01*
X2749688Y649008D01*
G37*
G36*
X1026932Y699646D02*
X1024182Y704408D01*
X1028944Y707158D01*
X1031694Y702396D01*
X1026932Y699646D01*
G37*
G36*
X1035159Y704396D02*
X1032409Y709158D01*
X1037171Y711908D01*
X1039921Y707146D01*
X1035159Y704396D01*
G37*
G36*
X1030409Y712623D02*
X1027659Y717385D01*
X1032421Y720135D01*
X1035171Y715373D01*
X1030409Y712623D01*
G37*
G36*
X1022182Y707873D02*
X1019432Y712635D01*
X1024194Y715385D01*
X1026944Y710623D01*
X1022182Y707873D01*
G37*
G36*
X1073385Y634105D02*
X1068073Y635529D01*
X1069497Y640841D01*
X1074809Y639417D01*
X1073385Y634105D01*
G37*
G36*
X1075844Y643281D02*
X1070532Y644705D01*
X1071956Y650017D01*
X1077268Y648593D01*
X1075844Y643281D01*
G37*
G36*
X1066667Y645740D02*
X1061355Y647164D01*
X1062779Y652476D01*
X1068091Y651052D01*
X1066667Y645740D01*
G37*
G36*
X1064209Y636564D02*
X1058897Y637988D01*
X1060321Y643300D01*
X1065633Y641876D01*
X1064209Y636564D01*
G37*
G36*
X1111891Y567505D02*
X1106579Y568929D01*
X1108003Y574241D01*
X1113315Y572817D01*
X1111891Y567505D01*
G37*
G36*
X1114350Y576681D02*
X1109038Y578105D01*
X1110462Y583417D01*
X1115774Y581993D01*
X1114350Y576681D01*
G37*
G36*
X1105173Y579140D02*
X1099861Y580564D01*
X1101285Y585876D01*
X1106597Y584452D01*
X1105173Y579140D01*
G37*
G36*
X1102715Y569964D02*
X1097403Y571388D01*
X1098827Y576700D01*
X1104139Y575276D01*
X1102715Y569964D01*
G37*
G36*
X1065480Y402699D02*
X1062730Y407461D01*
X1067492Y410211D01*
X1070242Y405449D01*
X1065480Y402699D01*
G37*
G36*
X1073707Y407449D02*
X1070957Y412211D01*
X1075719Y414961D01*
X1078469Y410199D01*
X1073707Y407449D01*
G37*
G36*
X1068957Y415676D02*
X1066207Y420438D01*
X1070969Y423188D01*
X1073719Y418426D01*
X1068957Y415676D01*
G37*
G36*
X1060730Y410926D02*
X1057980Y415688D01*
X1062742Y418438D01*
X1065492Y413676D01*
X1060730Y410926D01*
G37*
G36*
X1033514Y279752D02*
X1030764Y284514D01*
X1035526Y287264D01*
X1038276Y282502D01*
X1033514Y279752D01*
G37*
G36*
X1041741Y284502D02*
X1038991Y289264D01*
X1043753Y292014D01*
X1046503Y287252D01*
X1041741Y284502D01*
G37*
G36*
X1036991Y292730D02*
X1034241Y297492D01*
X1039003Y300242D01*
X1041753Y295480D01*
X1036991Y292730D01*
G37*
G36*
X1028764Y287980D02*
X1026014Y292742D01*
X1030776Y295492D01*
X1033526Y290730D01*
X1028764Y287980D01*
G37*
G36*
X1277831Y523906D02*
X1273069Y521156D01*
X1270319Y525918D01*
X1275081Y528668D01*
X1277831Y523906D01*
G37*
G36*
X1273081Y532134D02*
X1268319Y529384D01*
X1265569Y534146D01*
X1270331Y536896D01*
X1273081Y532134D01*
G37*
G36*
X1264854Y527384D02*
X1260092Y524634D01*
X1257342Y529396D01*
X1262104Y532146D01*
X1264854Y527384D01*
G37*
G36*
X1269604Y519156D02*
X1264842Y516406D01*
X1262092Y521168D01*
X1266854Y523918D01*
X1269604Y519156D01*
G37*
D11*
G36*
X1153697Y474190D02*
X1159759Y477690D01*
X1164759Y469030D01*
X1158697Y465530D01*
X1153697Y474190D01*
G37*
G36*
X1165821Y481190D02*
X1171883Y484690D01*
X1176883Y476030D01*
X1170821Y472530D01*
X1165821Y481190D01*
G37*
D10*
G36*
X1400118Y491667D02*
X1395356Y488917D01*
X1392606Y493679D01*
X1397368Y496429D01*
X1400118Y491667D01*
G37*
G36*
X1395368Y499894D02*
X1390606Y497144D01*
X1387856Y501906D01*
X1392618Y504656D01*
X1395368Y499894D01*
G37*
G36*
X1387141Y495144D02*
X1382379Y492394D01*
X1379629Y497156D01*
X1384391Y499906D01*
X1387141Y495144D01*
G37*
G36*
X1391891Y486917D02*
X1387129Y484167D01*
X1384379Y488929D01*
X1389141Y491679D01*
X1391891Y486917D01*
G37*
G36*
X1150320Y500905D02*
X1145008Y502329D01*
X1146432Y507641D01*
X1151744Y506217D01*
X1150320Y500905D01*
G37*
G36*
X1152779Y510081D02*
X1147467Y511505D01*
X1148891Y516817D01*
X1154203Y515393D01*
X1152779Y510081D01*
G37*
G36*
X1143603Y512540D02*
X1138291Y513964D01*
X1139715Y519276D01*
X1145027Y517852D01*
X1143603Y512540D01*
G37*
G36*
X1141144Y503364D02*
X1135832Y504788D01*
X1137256Y510100D01*
X1142568Y508676D01*
X1141144Y503364D01*
G37*
G36*
X1188726Y434205D02*
X1183414Y435629D01*
X1184838Y440941D01*
X1190150Y439517D01*
X1188726Y434205D01*
G37*
G36*
X1191185Y443381D02*
X1185873Y444805D01*
X1187297Y450117D01*
X1192609Y448693D01*
X1191185Y443381D01*
G37*
G36*
X1182009Y445840D02*
X1176697Y447264D01*
X1178121Y452576D01*
X1183433Y451152D01*
X1182009Y445840D01*
G37*
G36*
X1179550Y436664D02*
X1174238Y438088D01*
X1175662Y443400D01*
X1180974Y441976D01*
X1179550Y436664D01*
G37*
G36*
X1227332Y367605D02*
X1222020Y369029D01*
X1223444Y374341D01*
X1228756Y372917D01*
X1227332Y367605D01*
G37*
G36*
X1229791Y376781D02*
X1224479Y378205D01*
X1225903Y383517D01*
X1231215Y382093D01*
X1229791Y376781D01*
G37*
G36*
X1220615Y379240D02*
X1215303Y380664D01*
X1216727Y385976D01*
X1222039Y384552D01*
X1220615Y379240D01*
G37*
G36*
X1218156Y370064D02*
X1212844Y371488D01*
X1214268Y376800D01*
X1219580Y375376D01*
X1218156Y370064D01*
G37*
G36*
X1265638Y301005D02*
X1260326Y302429D01*
X1261750Y307741D01*
X1267062Y306317D01*
X1265638Y301005D01*
G37*
G36*
X1268097Y310181D02*
X1262785Y311605D01*
X1264209Y316917D01*
X1269521Y315493D01*
X1268097Y310181D01*
G37*
G36*
X1258921Y312640D02*
X1253609Y314064D01*
X1255033Y319376D01*
X1260345Y317952D01*
X1258921Y312640D01*
G37*
G36*
X1256462Y303464D02*
X1251150Y304888D01*
X1252574Y310200D01*
X1257886Y308776D01*
X1256462Y303464D01*
G37*
G36*
X1212129Y163565D02*
X1209379Y168327D01*
X1214141Y171077D01*
X1216891Y166315D01*
X1212129Y163565D01*
G37*
G36*
X1220356Y168315D02*
X1217606Y173077D01*
X1222368Y175827D01*
X1225118Y171065D01*
X1220356Y168315D01*
G37*
G36*
X1215606Y176543D02*
X1212856Y181305D01*
X1217618Y184055D01*
X1220368Y179293D01*
X1215606Y176543D01*
G37*
G36*
X1207379Y171793D02*
X1204629Y176555D01*
X1209391Y179305D01*
X1212141Y174543D01*
X1207379Y171793D01*
G37*
G36*
X1412573Y274306D02*
X1407811Y271556D01*
X1405061Y276318D01*
X1409823Y279068D01*
X1412573Y274306D01*
G37*
G36*
X1407823Y282534D02*
X1403061Y279784D01*
X1400311Y284546D01*
X1405073Y287296D01*
X1407823Y282534D01*
G37*
G36*
X1399595Y277784D02*
X1394833Y275034D01*
X1392083Y279796D01*
X1396845Y282546D01*
X1399595Y277784D01*
G37*
G36*
X1404345Y269556D02*
X1399583Y266806D01*
X1396833Y271568D01*
X1401595Y274318D01*
X1404345Y269556D01*
G37*
G36*
X1304156Y234505D02*
X1298844Y235929D01*
X1300268Y241241D01*
X1305580Y239817D01*
X1304156Y234505D01*
G37*
G36*
X1306615Y243681D02*
X1301303Y245105D01*
X1302727Y250417D01*
X1308039Y248993D01*
X1306615Y243681D01*
G37*
G36*
X1297438Y246140D02*
X1292126Y247564D01*
X1293550Y252876D01*
X1298862Y251452D01*
X1297438Y246140D01*
G37*
G36*
X1294980Y236964D02*
X1289668Y238388D01*
X1291092Y243700D01*
X1296404Y242276D01*
X1294980Y236964D01*
G37*
D11*
G36*
X1297456Y224168D02*
X1303518Y227668D01*
X1308518Y219008D01*
X1302456Y215508D01*
X1297456Y224168D01*
G37*
G36*
X1309581Y231168D02*
X1315643Y234668D01*
X1320643Y226008D01*
X1314581Y222508D01*
X1309581Y231168D01*
G37*
D10*
G36*
X1342312Y166949D02*
X1337000Y168373D01*
X1338424Y173685D01*
X1343736Y172261D01*
X1342312Y166949D01*
G37*
G36*
X1344771Y176125D02*
X1339459Y177549D01*
X1340883Y182861D01*
X1346195Y181437D01*
X1344771Y176125D01*
G37*
G36*
X1335595Y178584D02*
X1330283Y180008D01*
X1331707Y185320D01*
X1337019Y183896D01*
X1335595Y178584D01*
G37*
G36*
X1333136Y169408D02*
X1327824Y170832D01*
X1329248Y176144D01*
X1334560Y174720D01*
X1333136Y169408D01*
G37*
G36*
X901820Y642204D02*
X905709Y646093D01*
X909598Y642204D01*
X905709Y638315D01*
X901820Y642204D01*
G37*
G36*
X908537Y635486D02*
X912426Y639375D01*
X916315Y635486D01*
X912426Y631597D01*
X908537Y635486D01*
G37*
G36*
X915255Y642204D02*
X919144Y646093D01*
X923033Y642204D01*
X919144Y638315D01*
X915255Y642204D01*
G37*
G36*
X908537Y648921D02*
X912426Y652810D01*
X916315Y648921D01*
X912426Y645032D01*
X908537Y648921D01*
G37*
G36*
X785073Y707052D02*
X787823Y711814D01*
X792585Y709064D01*
X789835Y704302D01*
X785073Y707052D01*
G37*
G36*
X793300Y702302D02*
X796050Y707064D01*
X800812Y704314D01*
X798062Y699552D01*
X793300Y702302D01*
G37*
G36*
X798050Y710529D02*
X800800Y715291D01*
X805562Y712541D01*
X802812Y707779D01*
X798050Y710529D01*
G37*
G36*
X789823Y715279D02*
X792573Y720041D01*
X797335Y717291D01*
X794585Y712529D01*
X789823Y715279D01*
G37*
G36*
X751540Y634050D02*
X750116Y639362D01*
X755428Y640786D01*
X756852Y635474D01*
X751540Y634050D01*
G37*
G36*
X760717Y636509D02*
X759293Y641821D01*
X764605Y643245D01*
X766029Y637933D01*
X760717Y636509D01*
G37*
G36*
X758258Y645685D02*
X756834Y650997D01*
X762146Y652421D01*
X763570Y647109D01*
X758258Y645685D01*
G37*
G36*
X749082Y643226D02*
X747658Y648538D01*
X752970Y649962D01*
X754394Y644650D01*
X749082Y643226D01*
G37*
G36*
X713116Y567403D02*
X711692Y572715D01*
X717004Y574139D01*
X718428Y568827D01*
X713116Y567403D01*
G37*
G36*
X722292Y569862D02*
X720868Y575174D01*
X726180Y576598D01*
X727604Y571286D01*
X722292Y569862D01*
G37*
G36*
X719834Y579038D02*
X718410Y584350D01*
X723722Y585774D01*
X725146Y580462D01*
X719834Y579038D01*
G37*
G36*
X710657Y576579D02*
X709233Y581891D01*
X714545Y583315D01*
X715969Y578003D01*
X710657Y576579D01*
G37*
G36*
X547183Y525195D02*
X549933Y529957D01*
X554695Y527207D01*
X551945Y522445D01*
X547183Y525195D01*
G37*
G36*
X555411Y520445D02*
X558161Y525207D01*
X562923Y522457D01*
X560173Y517695D01*
X555411Y520445D01*
G37*
G36*
X560161Y528672D02*
X562911Y533434D01*
X567673Y530684D01*
X564923Y525922D01*
X560161Y528672D01*
G37*
G36*
X551933Y533422D02*
X554683Y538184D01*
X559445Y535434D01*
X556695Y530672D01*
X551933Y533422D01*
G37*
G36*
X424725Y491405D02*
X427475Y496167D01*
X432237Y493417D01*
X429487Y488655D01*
X424725Y491405D01*
G37*
G36*
X432953Y486655D02*
X435703Y491417D01*
X440465Y488667D01*
X437715Y483905D01*
X432953Y486655D01*
G37*
G36*
X437703Y494882D02*
X440453Y499644D01*
X445215Y496894D01*
X442465Y492132D01*
X437703Y494882D01*
G37*
G36*
X429475Y499632D02*
X432225Y504394D01*
X436987Y501644D01*
X434237Y496882D01*
X429475Y499632D01*
G37*
G36*
X758327Y401895D02*
X753565Y404645D01*
X756315Y409407D01*
X761077Y406657D01*
X758327Y401895D01*
G37*
G36*
X763077Y410123D02*
X758315Y412873D01*
X761065Y417635D01*
X765827Y414885D01*
X763077Y410123D01*
G37*
G36*
X754850Y414873D02*
X750088Y417623D01*
X752838Y422385D01*
X757600Y419635D01*
X754850Y414873D01*
G37*
G36*
X750100Y406645D02*
X745338Y409395D01*
X748088Y414157D01*
X752850Y411407D01*
X750100Y406645D01*
G37*
D11*
G36*
X653205Y484541D02*
X659267Y481041D01*
X654267Y472381D01*
X648205Y475881D01*
X653205Y484541D01*
G37*
G36*
X665330Y477541D02*
X671392Y474041D01*
X666392Y465381D01*
X660330Y468881D01*
X665330Y477541D01*
G37*
D10*
G36*
X791550Y279872D02*
X786788Y282622D01*
X789538Y287384D01*
X794300Y284634D01*
X791550Y279872D01*
G37*
G36*
X796300Y288099D02*
X791538Y290849D01*
X794288Y295611D01*
X799050Y292861D01*
X796300Y288099D01*
G37*
G36*
X788073Y292849D02*
X783311Y295599D01*
X786061Y300361D01*
X790823Y297611D01*
X788073Y292849D01*
G37*
G36*
X783323Y284622D02*
X778561Y287372D01*
X781311Y292134D01*
X786073Y289384D01*
X783323Y284622D01*
G37*
G36*
X674654Y500822D02*
X673230Y506134D01*
X678542Y507558D01*
X679966Y502246D01*
X674654Y500822D01*
G37*
G36*
X683830Y503281D02*
X682406Y508593D01*
X687718Y510017D01*
X689142Y504705D01*
X683830Y503281D01*
G37*
G36*
X681371Y512457D02*
X679947Y517769D01*
X685259Y519193D01*
X686683Y513881D01*
X681371Y512457D01*
G37*
G36*
X672195Y509998D02*
X670771Y515310D01*
X676083Y516734D01*
X677507Y511422D01*
X672195Y509998D01*
G37*
G36*
X636093Y434212D02*
X634669Y439524D01*
X639981Y440948D01*
X641405Y435636D01*
X636093Y434212D01*
G37*
G36*
X645269Y436670D02*
X643845Y441982D01*
X649157Y443406D01*
X650581Y438094D01*
X645269Y436670D01*
G37*
G36*
X642810Y445847D02*
X641386Y451159D01*
X646698Y452583D01*
X648122Y447271D01*
X642810Y445847D01*
G37*
G36*
X633634Y443388D02*
X632210Y448700D01*
X637522Y450124D01*
X638946Y444812D01*
X633634Y443388D01*
G37*
G36*
X597718Y367478D02*
X596294Y372790D01*
X601606Y374214D01*
X603030Y368902D01*
X597718Y367478D01*
G37*
G36*
X606895Y369937D02*
X605471Y375249D01*
X610783Y376673D01*
X612207Y371361D01*
X606895Y369937D01*
G37*
G36*
X604436Y379113D02*
X603012Y384425D01*
X608324Y385849D01*
X609748Y380537D01*
X604436Y379113D01*
G37*
G36*
X595260Y376654D02*
X593836Y381966D01*
X599148Y383390D01*
X600572Y378078D01*
X595260Y376654D01*
G37*
G36*
X559194Y301004D02*
X557770Y306316D01*
X563082Y307740D01*
X564506Y302428D01*
X559194Y301004D01*
G37*
G36*
X568370Y303463D02*
X566946Y308775D01*
X572258Y310199D01*
X573682Y304887D01*
X568370Y303463D01*
G37*
G36*
X565912Y312639D02*
X564488Y317951D01*
X569800Y319375D01*
X571224Y314063D01*
X565912Y312639D01*
G37*
G36*
X556735Y310180D02*
X555311Y315492D01*
X560623Y316916D01*
X562047Y311604D01*
X556735Y310180D01*
G37*
G36*
X413412Y278626D02*
X416162Y283388D01*
X420924Y280638D01*
X418174Y275876D01*
X413412Y278626D01*
G37*
G36*
X421639Y273876D02*
X424389Y278638D01*
X429151Y275888D01*
X426401Y271126D01*
X421639Y273876D01*
G37*
G36*
X426389Y282103D02*
X429139Y286865D01*
X433901Y284115D01*
X431151Y279353D01*
X426389Y282103D01*
G37*
G36*
X418162Y286853D02*
X420912Y291615D01*
X425674Y288865D01*
X422924Y284103D01*
X418162Y286853D01*
G37*
G36*
X609538Y160406D02*
X604776Y163156D01*
X607526Y167918D01*
X612288Y165168D01*
X609538Y160406D01*
G37*
G36*
X614288Y168633D02*
X609526Y171383D01*
X612276Y176145D01*
X617038Y173395D01*
X614288Y168633D01*
G37*
G36*
X606061Y173383D02*
X601299Y176133D01*
X604049Y180895D01*
X608811Y178145D01*
X606061Y173383D01*
G37*
G36*
X601311Y165156D02*
X596549Y167906D01*
X599299Y172668D01*
X604061Y169918D01*
X601311Y165156D01*
G37*
G36*
X520862Y234397D02*
X519438Y239709D01*
X524750Y241133D01*
X526174Y235821D01*
X520862Y234397D01*
G37*
G36*
X530038Y236855D02*
X528614Y242167D01*
X533926Y243591D01*
X535350Y238279D01*
X530038Y236855D01*
G37*
G36*
X527580Y246032D02*
X526156Y251344D01*
X531468Y252768D01*
X532892Y247456D01*
X527580Y246032D01*
G37*
G36*
X518403Y243573D02*
X516979Y248885D01*
X522291Y250309D01*
X523715Y244997D01*
X518403Y243573D01*
G37*
D11*
G36*
X508560Y235031D02*
X514622Y231531D01*
X509622Y222871D01*
X503560Y226371D01*
X508560Y235031D01*
G37*
G36*
X520684Y228031D02*
X526746Y224531D01*
X521746Y215871D01*
X515684Y219371D01*
X520684Y228031D01*
G37*
D10*
G36*
X481435Y167574D02*
X480011Y172886D01*
X485323Y174310D01*
X486747Y168998D01*
X481435Y167574D01*
G37*
G36*
X490611Y170033D02*
X489187Y175345D01*
X494499Y176769D01*
X495923Y171457D01*
X490611Y170033D01*
G37*
G36*
X488152Y179209D02*
X486728Y184521D01*
X492040Y185945D01*
X493464Y180633D01*
X488152Y179209D01*
G37*
G36*
X478976Y176750D02*
X477552Y182062D01*
X482864Y183486D01*
X484288Y178174D01*
X478976Y176750D01*
G37*
G36*
X672771Y786680D02*
X678083Y785256D01*
X676659Y779944D01*
X671347Y781368D01*
X672771Y786680D01*
G37*
G36*
X670313Y777504D02*
X675625Y776080D01*
X674201Y770768D01*
X668889Y772192D01*
X670313Y777504D01*
G37*
G36*
X679489Y775045D02*
X684801Y773621D01*
X683377Y768309D01*
X678065Y769733D01*
X679489Y775045D01*
G37*
G36*
X681948Y784221D02*
X687260Y782797D01*
X685836Y777485D01*
X680524Y778909D01*
X681948Y784221D01*
G37*
D12*
X673306Y917460D03*
X673306Y907960D03*
X682806Y907960D03*
X682806Y917460D03*
D10*
G36*
X590570Y912749D02*
X594459Y916638D01*
X598348Y912749D01*
X594459Y908860D01*
X590570Y912749D01*
G37*
G36*
X597287Y906031D02*
X601176Y909920D01*
X605065Y906031D01*
X601176Y902142D01*
X597287Y906031D01*
G37*
G36*
X604005Y912749D02*
X607894Y916638D01*
X611783Y912749D01*
X607894Y908860D01*
X604005Y912749D01*
G37*
G36*
X597287Y919466D02*
X601176Y923355D01*
X605065Y919466D01*
X601176Y915577D01*
X597287Y919466D01*
G37*
G36*
X513639Y912702D02*
X517528Y916591D01*
X521417Y912702D01*
X517528Y908813D01*
X513639Y912702D01*
G37*
G36*
X520357Y905984D02*
X524246Y909873D01*
X528135Y905984D01*
X524246Y902095D01*
X520357Y905984D01*
G37*
G36*
X527074Y912702D02*
X530963Y916591D01*
X534852Y912702D01*
X530963Y908813D01*
X527074Y912702D01*
G37*
G36*
X520357Y919419D02*
X524246Y923308D01*
X528135Y919419D01*
X524246Y915530D01*
X520357Y919419D01*
G37*
D12*
X396869Y1032549D03*
X396869Y1023049D03*
X406369Y1023049D03*
X406369Y1032549D03*
X306377Y1121706D03*
X306377Y1112206D03*
X315877Y1112206D03*
X315877Y1121706D03*
X395661Y793543D03*
X405161Y793543D03*
X405161Y803043D03*
X395661Y803043D03*
D13*
X406924Y919655D03*
X406924Y905655D03*
D12*
X306597Y703760D03*
X316097Y703760D03*
X316097Y713260D03*
X306597Y713260D03*
D10*
G36*
X436747Y912721D02*
X440636Y916610D01*
X444525Y912721D01*
X440636Y908832D01*
X436747Y912721D01*
G37*
G36*
X443465Y906003D02*
X447354Y909892D01*
X451243Y906003D01*
X447354Y902114D01*
X443465Y906003D01*
G37*
G36*
X450182Y912721D02*
X454071Y916610D01*
X457960Y912721D01*
X454071Y908832D01*
X450182Y912721D01*
G37*
G36*
X443465Y919438D02*
X447354Y923327D01*
X451243Y919438D01*
X447354Y915549D01*
X443465Y919438D01*
G37*
G36*
X359780Y912810D02*
X363669Y916699D01*
X367558Y912810D01*
X363669Y908921D01*
X359780Y912810D01*
G37*
G36*
X366498Y906093D02*
X370387Y909982D01*
X374276Y906093D01*
X370387Y902204D01*
X366498Y906093D01*
G37*
G36*
X373215Y912810D02*
X377104Y916699D01*
X380993Y912810D01*
X377104Y908921D01*
X373215Y912810D01*
G37*
G36*
X366498Y919528D02*
X370387Y923417D01*
X374276Y919528D01*
X370387Y915639D01*
X366498Y919528D01*
G37*
G36*
X282800Y912677D02*
X286689Y916566D01*
X290578Y912677D01*
X286689Y908788D01*
X282800Y912677D01*
G37*
G36*
X289518Y905959D02*
X293407Y909848D01*
X297296Y905959D01*
X293407Y902070D01*
X289518Y905959D01*
G37*
G36*
X296235Y912677D02*
X300124Y916566D01*
X304013Y912677D01*
X300124Y908788D01*
X296235Y912677D01*
G37*
G36*
X289518Y919394D02*
X293407Y923283D01*
X297296Y919394D01*
X293407Y915505D01*
X289518Y919394D01*
G37*
G36*
X205970Y912803D02*
X209859Y916692D01*
X213748Y912803D01*
X209859Y908914D01*
X205970Y912803D01*
G37*
G36*
X212688Y906085D02*
X216577Y909974D01*
X220466Y906085D01*
X216577Y902196D01*
X212688Y906085D01*
G37*
G36*
X219405Y912803D02*
X223294Y916692D01*
X227183Y912803D01*
X223294Y908914D01*
X219405Y912803D01*
G37*
G36*
X212688Y919520D02*
X216577Y923409D01*
X220466Y919520D01*
X216577Y915631D01*
X212688Y919520D01*
G37*
D12*
X116448Y1025115D03*
X116448Y1015615D03*
X125948Y1015615D03*
X125948Y1025115D03*
X112130Y801654D03*
X121630Y801654D03*
X121630Y811154D03*
X112130Y811154D03*
D10*
G36*
X129120Y912696D02*
X133009Y916585D01*
X136898Y912696D01*
X133009Y908807D01*
X129120Y912696D01*
G37*
G36*
X135838Y905978D02*
X139727Y909867D01*
X143616Y905978D01*
X139727Y902089D01*
X135838Y905978D01*
G37*
G36*
X142555Y912696D02*
X146444Y916585D01*
X150333Y912696D01*
X146444Y908807D01*
X142555Y912696D01*
G37*
G36*
X135838Y919413D02*
X139727Y923302D01*
X143616Y919413D01*
X139727Y915524D01*
X135838Y919413D01*
G37*
D13*
X118518Y920166D03*
X118518Y906166D03*
D10*
G36*
X51537Y913429D02*
X55426Y917318D01*
X59315Y913429D01*
X55426Y909540D01*
X51537Y913429D01*
G37*
G36*
X58254Y906712D02*
X62143Y910601D01*
X66032Y906712D01*
X62143Y902823D01*
X58254Y906712D01*
G37*
G36*
X64972Y913429D02*
X68861Y917318D01*
X72750Y913429D01*
X68861Y909540D01*
X64972Y913429D01*
G37*
G36*
X58254Y920147D02*
X62143Y924036D01*
X66032Y920147D01*
X62143Y916258D01*
X58254Y920147D01*
G37*
G36*
X683366Y1057280D02*
X684790Y1051968D01*
X679478Y1050544D01*
X678054Y1055856D01*
X683366Y1057280D01*
G37*
G36*
X674189Y1054821D02*
X675613Y1049509D01*
X670301Y1048085D01*
X668877Y1053397D01*
X674189Y1054821D01*
G37*
G36*
X676648Y1045645D02*
X678072Y1040333D01*
X672760Y1038909D01*
X671336Y1044221D01*
X676648Y1045645D01*
G37*
G36*
X685825Y1048104D02*
X687249Y1042792D01*
X681937Y1041368D01*
X680513Y1046680D01*
X685825Y1048104D01*
G37*
G36*
X797899Y1125962D02*
X800649Y1121200D01*
X795887Y1118450D01*
X793137Y1123212D01*
X797899Y1125962D01*
G37*
G36*
X789671Y1121212D02*
X792421Y1116450D01*
X787659Y1113700D01*
X784909Y1118462D01*
X789671Y1121212D01*
G37*
G36*
X794421Y1112985D02*
X797171Y1108223D01*
X792409Y1105473D01*
X789659Y1110235D01*
X794421Y1112985D01*
G37*
G36*
X802649Y1117735D02*
X805399Y1112973D01*
X800637Y1110223D01*
X797887Y1114985D01*
X802649Y1117735D01*
G37*
G36*
X751445Y1191503D02*
X756757Y1190079D01*
X755333Y1184767D01*
X750021Y1186191D01*
X751445Y1191503D01*
G37*
G36*
X748986Y1182327D02*
X754298Y1180903D01*
X752874Y1175591D01*
X747562Y1177015D01*
X748986Y1182327D01*
G37*
G36*
X758163Y1179868D02*
X763475Y1178444D01*
X762051Y1173132D01*
X756739Y1174556D01*
X758163Y1179868D01*
G37*
G36*
X760622Y1189044D02*
X765934Y1187620D01*
X764510Y1182308D01*
X759198Y1183732D01*
X760622Y1189044D01*
G37*
G36*
X712939Y1258103D02*
X718251Y1256679D01*
X716827Y1251367D01*
X711515Y1252791D01*
X712939Y1258103D01*
G37*
G36*
X710480Y1248927D02*
X715792Y1247503D01*
X714368Y1242191D01*
X709056Y1243615D01*
X710480Y1248927D01*
G37*
G36*
X719657Y1246468D02*
X724969Y1245044D01*
X723545Y1239732D01*
X718233Y1241156D01*
X719657Y1246468D01*
G37*
G36*
X722116Y1255644D02*
X727428Y1254220D01*
X726004Y1248908D01*
X720692Y1250332D01*
X722116Y1255644D01*
G37*
G36*
X759351Y1422909D02*
X762101Y1418147D01*
X757339Y1415397D01*
X754589Y1420159D01*
X759351Y1422909D01*
G37*
G36*
X751123Y1418159D02*
X753873Y1413397D01*
X749111Y1410647D01*
X746361Y1415409D01*
X751123Y1418159D01*
G37*
G36*
X755873Y1409931D02*
X758623Y1405169D01*
X753861Y1402419D01*
X751111Y1407181D01*
X755873Y1409931D01*
G37*
G36*
X764101Y1414681D02*
X766851Y1409919D01*
X762089Y1407169D01*
X759339Y1411931D01*
X764101Y1414681D01*
G37*
G36*
X791317Y1545855D02*
X794067Y1541093D01*
X789305Y1538343D01*
X786555Y1543105D01*
X791317Y1545855D01*
G37*
G36*
X783089Y1541105D02*
X785839Y1536343D01*
X781077Y1533593D01*
X778327Y1538355D01*
X783089Y1541105D01*
G37*
G36*
X787839Y1532878D02*
X790589Y1528116D01*
X785827Y1525366D01*
X783077Y1530128D01*
X787839Y1532878D01*
G37*
G36*
X796067Y1537628D02*
X798817Y1532866D01*
X794055Y1530116D01*
X791305Y1534878D01*
X796067Y1537628D01*
G37*
G36*
X546999Y1301702D02*
X551761Y1304452D01*
X554511Y1299690D01*
X549749Y1296940D01*
X546999Y1301702D01*
G37*
G36*
X551749Y1293474D02*
X556511Y1296224D01*
X559261Y1291462D01*
X554499Y1288712D01*
X551749Y1293474D01*
G37*
G36*
X559976Y1298224D02*
X564738Y1300974D01*
X567488Y1296212D01*
X562726Y1293462D01*
X559976Y1298224D01*
G37*
G36*
X555226Y1306452D02*
X559988Y1309202D01*
X562738Y1304440D01*
X557976Y1301690D01*
X555226Y1306452D01*
G37*
D11*
G36*
X671133Y1351418D02*
X665071Y1347918D01*
X660071Y1356578D01*
X666133Y1360078D01*
X671133Y1351418D01*
G37*
G36*
X659009Y1344418D02*
X652947Y1340918D01*
X647947Y1349578D01*
X654009Y1353078D01*
X659009Y1344418D01*
G37*
D10*
G36*
X424712Y1333941D02*
X429474Y1336691D01*
X432224Y1331929D01*
X427462Y1329179D01*
X424712Y1333941D01*
G37*
G36*
X429462Y1325714D02*
X434224Y1328464D01*
X436974Y1323702D01*
X432212Y1320952D01*
X429462Y1325714D01*
G37*
G36*
X437690Y1330464D02*
X442452Y1333214D01*
X445202Y1328452D01*
X440440Y1325702D01*
X437690Y1330464D01*
G37*
G36*
X432940Y1338691D02*
X437702Y1341441D01*
X440452Y1336679D01*
X435690Y1333929D01*
X432940Y1338691D01*
G37*
G36*
X674510Y1324703D02*
X679822Y1323279D01*
X678398Y1317967D01*
X673086Y1319391D01*
X674510Y1324703D01*
G37*
G36*
X672051Y1315527D02*
X677363Y1314103D01*
X675939Y1308791D01*
X670627Y1310215D01*
X672051Y1315527D01*
G37*
G36*
X681227Y1313068D02*
X686539Y1311644D01*
X685115Y1306332D01*
X679803Y1307756D01*
X681227Y1313068D01*
G37*
G36*
X683686Y1322244D02*
X688998Y1320820D01*
X687574Y1315508D01*
X682262Y1316932D01*
X683686Y1322244D01*
G37*
G36*
X636104Y1391403D02*
X641416Y1389979D01*
X639992Y1384667D01*
X634680Y1386091D01*
X636104Y1391403D01*
G37*
G36*
X633645Y1382227D02*
X638957Y1380803D01*
X637533Y1375491D01*
X632221Y1376915D01*
X633645Y1382227D01*
G37*
G36*
X642821Y1379768D02*
X648133Y1378344D01*
X646709Y1373032D01*
X641397Y1374456D01*
X642821Y1379768D01*
G37*
G36*
X645280Y1388944D02*
X650592Y1387520D01*
X649168Y1382208D01*
X643856Y1383632D01*
X645280Y1388944D01*
G37*
G36*
X597498Y1458003D02*
X602810Y1456579D01*
X601386Y1451267D01*
X596074Y1452691D01*
X597498Y1458003D01*
G37*
G36*
X595039Y1448827D02*
X600351Y1447403D01*
X598927Y1442091D01*
X593615Y1443515D01*
X595039Y1448827D01*
G37*
G36*
X604215Y1446368D02*
X609527Y1444944D01*
X608103Y1439632D01*
X602791Y1441056D01*
X604215Y1446368D01*
G37*
G36*
X606674Y1455544D02*
X611986Y1454120D01*
X610562Y1448808D01*
X605250Y1450232D01*
X606674Y1455544D01*
G37*
G36*
X559192Y1524603D02*
X564504Y1523179D01*
X563080Y1517867D01*
X557768Y1519291D01*
X559192Y1524603D01*
G37*
G36*
X556733Y1515427D02*
X562045Y1514003D01*
X560621Y1508691D01*
X555309Y1510115D01*
X556733Y1515427D01*
G37*
G36*
X565910Y1512968D02*
X571222Y1511544D01*
X569798Y1506232D01*
X564486Y1507656D01*
X565910Y1512968D01*
G37*
G36*
X568368Y1522144D02*
X573680Y1520720D01*
X572256Y1515408D01*
X566944Y1516832D01*
X568368Y1522144D01*
G37*
G36*
X612701Y1662043D02*
X615451Y1657281D01*
X610689Y1654531D01*
X607939Y1659293D01*
X612701Y1662043D01*
G37*
G36*
X604474Y1657293D02*
X607224Y1652531D01*
X602462Y1649781D01*
X599712Y1654543D01*
X604474Y1657293D01*
G37*
G36*
X609224Y1649065D02*
X611974Y1644303D01*
X607212Y1641553D01*
X604462Y1646315D01*
X609224Y1649065D01*
G37*
G36*
X617451Y1653815D02*
X620201Y1649053D01*
X615439Y1646303D01*
X612689Y1651065D01*
X617451Y1653815D01*
G37*
G36*
X412258Y1551302D02*
X417020Y1554052D01*
X419770Y1549290D01*
X415008Y1546540D01*
X412258Y1551302D01*
G37*
G36*
X417008Y1543074D02*
X421770Y1545824D01*
X424520Y1541062D01*
X419758Y1538312D01*
X417008Y1543074D01*
G37*
G36*
X425235Y1547824D02*
X429997Y1550574D01*
X432747Y1545812D01*
X427985Y1543062D01*
X425235Y1547824D01*
G37*
G36*
X420485Y1556052D02*
X425247Y1558802D01*
X427997Y1554040D01*
X423235Y1551290D01*
X420485Y1556052D01*
G37*
G36*
X520674Y1591103D02*
X525986Y1589679D01*
X524562Y1584367D01*
X519250Y1585791D01*
X520674Y1591103D01*
G37*
G36*
X518216Y1581927D02*
X523528Y1580503D01*
X522104Y1575191D01*
X516792Y1576615D01*
X518216Y1581927D01*
G37*
G36*
X527392Y1579468D02*
X532704Y1578044D01*
X531280Y1572732D01*
X525968Y1574156D01*
X527392Y1579468D01*
G37*
G36*
X529851Y1588644D02*
X535163Y1587220D01*
X533739Y1581908D01*
X528427Y1583332D01*
X529851Y1588644D01*
G37*
D11*
G36*
X527374Y1601440D02*
X521312Y1597940D01*
X516312Y1606600D01*
X522374Y1610100D01*
X527374Y1601440D01*
G37*
G36*
X515249Y1594440D02*
X509187Y1590940D01*
X504187Y1599600D01*
X510249Y1603100D01*
X515249Y1594440D01*
G37*
D10*
G36*
X482518Y1658659D02*
X487830Y1657235D01*
X486406Y1651923D01*
X481094Y1653347D01*
X482518Y1658659D01*
G37*
G36*
X480059Y1649483D02*
X485371Y1648059D01*
X483947Y1642747D01*
X478635Y1644171D01*
X480059Y1649483D01*
G37*
G36*
X489235Y1647024D02*
X494547Y1645600D01*
X493123Y1640288D01*
X487811Y1641712D01*
X489235Y1647024D01*
G37*
G36*
X491694Y1656200D02*
X497006Y1654776D01*
X495582Y1649464D01*
X490270Y1650888D01*
X491694Y1656200D01*
G37*
G36*
X923010Y1183404D02*
X919121Y1179515D01*
X915232Y1183404D01*
X919121Y1187293D01*
X923010Y1183404D01*
G37*
G36*
X916293Y1190121D02*
X912404Y1186232D01*
X908515Y1190121D01*
X912404Y1194010D01*
X916293Y1190121D01*
G37*
G36*
X909575Y1183404D02*
X905686Y1179515D01*
X901797Y1183404D01*
X905686Y1187293D01*
X909575Y1183404D01*
G37*
G36*
X916293Y1176686D02*
X912404Y1172797D01*
X908515Y1176686D01*
X912404Y1180575D01*
X916293Y1176686D01*
G37*
G36*
X1039757Y1118556D02*
X1037007Y1113794D01*
X1032245Y1116544D01*
X1034995Y1121306D01*
X1039757Y1118556D01*
G37*
G36*
X1031530Y1123306D02*
X1028780Y1118544D01*
X1024018Y1121294D01*
X1026768Y1126056D01*
X1031530Y1123306D01*
G37*
G36*
X1026780Y1115079D02*
X1024030Y1110317D01*
X1019268Y1113067D01*
X1022018Y1117829D01*
X1026780Y1115079D01*
G37*
G36*
X1035007Y1110329D02*
X1032257Y1105567D01*
X1027495Y1108317D01*
X1030245Y1113079D01*
X1035007Y1110329D01*
G37*
G36*
X1073290Y1191558D02*
X1074714Y1186246D01*
X1069402Y1184822D01*
X1067978Y1190134D01*
X1073290Y1191558D01*
G37*
G36*
X1064113Y1189099D02*
X1065537Y1183787D01*
X1060225Y1182363D01*
X1058801Y1187675D01*
X1064113Y1189099D01*
G37*
G36*
X1066572Y1179923D02*
X1067996Y1174611D01*
X1062684Y1173187D01*
X1061260Y1178499D01*
X1066572Y1179923D01*
G37*
G36*
X1075748Y1182382D02*
X1077172Y1177070D01*
X1071860Y1175646D01*
X1070436Y1180958D01*
X1075748Y1182382D01*
G37*
G36*
X1111714Y1258205D02*
X1113138Y1252893D01*
X1107826Y1251469D01*
X1106402Y1256781D01*
X1111714Y1258205D01*
G37*
G36*
X1102538Y1255746D02*
X1103962Y1250434D01*
X1098650Y1249010D01*
X1097226Y1254322D01*
X1102538Y1255746D01*
G37*
G36*
X1104996Y1246570D02*
X1106420Y1241258D01*
X1101108Y1239834D01*
X1099684Y1245146D01*
X1104996Y1246570D01*
G37*
G36*
X1114173Y1249029D02*
X1115597Y1243717D01*
X1110285Y1242293D01*
X1108861Y1247605D01*
X1114173Y1249029D01*
G37*
G36*
X1277647Y1300413D02*
X1274897Y1295651D01*
X1270135Y1298401D01*
X1272885Y1303163D01*
X1277647Y1300413D01*
G37*
G36*
X1269419Y1305163D02*
X1266669Y1300401D01*
X1261907Y1303151D01*
X1264657Y1307913D01*
X1269419Y1305163D01*
G37*
G36*
X1264669Y1296936D02*
X1261919Y1292174D01*
X1257157Y1294924D01*
X1259907Y1299686D01*
X1264669Y1296936D01*
G37*
G36*
X1272897Y1292186D02*
X1270147Y1287424D01*
X1265385Y1290174D01*
X1268135Y1294936D01*
X1272897Y1292186D01*
G37*
G36*
X1400105Y1334203D02*
X1397355Y1329441D01*
X1392593Y1332191D01*
X1395343Y1336953D01*
X1400105Y1334203D01*
G37*
G36*
X1391877Y1338953D02*
X1389127Y1334191D01*
X1384365Y1336941D01*
X1387115Y1341703D01*
X1391877Y1338953D01*
G37*
G36*
X1387127Y1330726D02*
X1384377Y1325964D01*
X1379615Y1328714D01*
X1382365Y1333476D01*
X1387127Y1330726D01*
G37*
G36*
X1395355Y1325976D02*
X1392605Y1321214D01*
X1387843Y1323964D01*
X1390593Y1328726D01*
X1395355Y1325976D01*
G37*
G36*
X1066503Y1423713D02*
X1071265Y1420963D01*
X1068515Y1416201D01*
X1063753Y1418951D01*
X1066503Y1423713D01*
G37*
G36*
X1061753Y1415485D02*
X1066515Y1412735D01*
X1063765Y1407973D01*
X1059003Y1410723D01*
X1061753Y1415485D01*
G37*
G36*
X1069980Y1410735D02*
X1074742Y1407985D01*
X1071992Y1403223D01*
X1067230Y1405973D01*
X1069980Y1410735D01*
G37*
G36*
X1074730Y1418963D02*
X1079492Y1416213D01*
X1076742Y1411451D01*
X1071980Y1414201D01*
X1074730Y1418963D01*
G37*
D11*
G36*
X1171625Y1341067D02*
X1165563Y1344567D01*
X1170563Y1353227D01*
X1176625Y1349727D01*
X1171625Y1341067D01*
G37*
G36*
X1159501Y1348067D02*
X1153439Y1351567D01*
X1158439Y1360227D01*
X1164501Y1356727D01*
X1159501Y1348067D01*
G37*
D10*
G36*
X1033280Y1545736D02*
X1038042Y1542986D01*
X1035292Y1538224D01*
X1030530Y1540974D01*
X1033280Y1545736D01*
G37*
G36*
X1028530Y1537509D02*
X1033292Y1534759D01*
X1030542Y1529997D01*
X1025780Y1532747D01*
X1028530Y1537509D01*
G37*
G36*
X1036757Y1532759D02*
X1041519Y1530009D01*
X1038769Y1525247D01*
X1034007Y1527997D01*
X1036757Y1532759D01*
G37*
G36*
X1041507Y1540986D02*
X1046269Y1538236D01*
X1043519Y1533474D01*
X1038757Y1536224D01*
X1041507Y1540986D01*
G37*
G36*
X1150177Y1324786D02*
X1151601Y1319474D01*
X1146289Y1318050D01*
X1144865Y1323362D01*
X1150177Y1324786D01*
G37*
G36*
X1141000Y1322327D02*
X1142424Y1317015D01*
X1137112Y1315591D01*
X1135688Y1320903D01*
X1141000Y1322327D01*
G37*
G36*
X1143459Y1313151D02*
X1144883Y1307839D01*
X1139571Y1306415D01*
X1138147Y1311727D01*
X1143459Y1313151D01*
G37*
G36*
X1152635Y1315610D02*
X1154059Y1310298D01*
X1148747Y1308874D01*
X1147323Y1314186D01*
X1152635Y1315610D01*
G37*
G36*
X1188737Y1391396D02*
X1190161Y1386084D01*
X1184849Y1384660D01*
X1183425Y1389972D01*
X1188737Y1391396D01*
G37*
G36*
X1179561Y1388938D02*
X1180985Y1383626D01*
X1175673Y1382202D01*
X1174249Y1387514D01*
X1179561Y1388938D01*
G37*
G36*
X1182020Y1379761D02*
X1183444Y1374449D01*
X1178132Y1373025D01*
X1176708Y1378337D01*
X1182020Y1379761D01*
G37*
G36*
X1191196Y1382220D02*
X1192620Y1376908D01*
X1187308Y1375484D01*
X1185884Y1380796D01*
X1191196Y1382220D01*
G37*
G36*
X1227112Y1458130D02*
X1228536Y1452818D01*
X1223224Y1451394D01*
X1221800Y1456706D01*
X1227112Y1458130D01*
G37*
G36*
X1217936Y1455671D02*
X1219360Y1450359D01*
X1214048Y1448935D01*
X1212624Y1454247D01*
X1217936Y1455671D01*
G37*
G36*
X1220394Y1446495D02*
X1221818Y1441183D01*
X1216506Y1439759D01*
X1215082Y1445071D01*
X1220394Y1446495D01*
G37*
G36*
X1229571Y1448954D02*
X1230995Y1443642D01*
X1225683Y1442218D01*
X1224259Y1447530D01*
X1229571Y1448954D01*
G37*
G36*
X1265636Y1524604D02*
X1267060Y1519292D01*
X1261748Y1517868D01*
X1260324Y1523180D01*
X1265636Y1524604D01*
G37*
G36*
X1256460Y1522145D02*
X1257884Y1516833D01*
X1252572Y1515409D01*
X1251148Y1520721D01*
X1256460Y1522145D01*
G37*
G36*
X1258919Y1512969D02*
X1260343Y1507657D01*
X1255031Y1506233D01*
X1253607Y1511545D01*
X1258919Y1512969D01*
G37*
G36*
X1268095Y1515428D02*
X1269519Y1510116D01*
X1264207Y1508692D01*
X1262783Y1514004D01*
X1268095Y1515428D01*
G37*
G36*
X1411418Y1546982D02*
X1408668Y1542220D01*
X1403906Y1544970D01*
X1406656Y1549732D01*
X1411418Y1546982D01*
G37*
G36*
X1403191Y1551732D02*
X1400441Y1546970D01*
X1395679Y1549720D01*
X1398429Y1554482D01*
X1403191Y1551732D01*
G37*
G36*
X1398441Y1543505D02*
X1395691Y1538743D01*
X1390929Y1541493D01*
X1393679Y1546255D01*
X1398441Y1543505D01*
G37*
G36*
X1406668Y1538755D02*
X1403918Y1533993D01*
X1399156Y1536743D01*
X1401906Y1541505D01*
X1406668Y1538755D01*
G37*
G36*
X1215292Y1665202D02*
X1220054Y1662452D01*
X1217304Y1657690D01*
X1212542Y1660440D01*
X1215292Y1665202D01*
G37*
G36*
X1210542Y1656975D02*
X1215304Y1654225D01*
X1212554Y1649463D01*
X1207792Y1652213D01*
X1210542Y1656975D01*
G37*
G36*
X1218770Y1652225D02*
X1223532Y1649475D01*
X1220782Y1644713D01*
X1216020Y1647463D01*
X1218770Y1652225D01*
G37*
G36*
X1223520Y1660452D02*
X1228282Y1657702D01*
X1225532Y1652940D01*
X1220770Y1655690D01*
X1223520Y1660452D01*
G37*
G36*
X1303968Y1591211D02*
X1305392Y1585899D01*
X1300080Y1584475D01*
X1298656Y1589787D01*
X1303968Y1591211D01*
G37*
G36*
X1294792Y1588753D02*
X1296216Y1583441D01*
X1290904Y1582017D01*
X1289480Y1587329D01*
X1294792Y1588753D01*
G37*
G36*
X1297250Y1579576D02*
X1298674Y1574264D01*
X1293362Y1572840D01*
X1291938Y1578152D01*
X1297250Y1579576D01*
G37*
G36*
X1306427Y1582035D02*
X1307851Y1576723D01*
X1302539Y1575299D01*
X1301115Y1580611D01*
X1306427Y1582035D01*
G37*
D11*
G36*
X1316270Y1590577D02*
X1310208Y1594077D01*
X1315208Y1602737D01*
X1321270Y1599237D01*
X1316270Y1590577D01*
G37*
G36*
X1304146Y1597577D02*
X1298084Y1601077D01*
X1303084Y1609737D01*
X1309146Y1606237D01*
X1304146Y1597577D01*
G37*
D10*
G36*
X1343395Y1658034D02*
X1344819Y1652722D01*
X1339507Y1651298D01*
X1338083Y1656610D01*
X1343395Y1658034D01*
G37*
G36*
X1334219Y1655575D02*
X1335643Y1650263D01*
X1330331Y1648839D01*
X1328907Y1654151D01*
X1334219Y1655575D01*
G37*
G36*
X1336678Y1646399D02*
X1338102Y1641087D01*
X1332790Y1639663D01*
X1331366Y1644975D01*
X1336678Y1646399D01*
G37*
G36*
X1345854Y1648858D02*
X1347278Y1643546D01*
X1341966Y1642122D01*
X1340542Y1647434D01*
X1345854Y1648858D01*
G37*
G36*
X1152059Y1038928D02*
X1146747Y1040352D01*
X1148171Y1045664D01*
X1153483Y1044240D01*
X1152059Y1038928D01*
G37*
G36*
X1154518Y1048104D02*
X1149206Y1049528D01*
X1150630Y1054840D01*
X1155942Y1053416D01*
X1154518Y1048104D01*
G37*
G36*
X1145341Y1050563D02*
X1140029Y1051987D01*
X1141453Y1057299D01*
X1146765Y1055875D01*
X1145341Y1050563D01*
G37*
G36*
X1142882Y1041387D02*
X1137570Y1042811D01*
X1138994Y1048123D01*
X1144306Y1046699D01*
X1142882Y1041387D01*
G37*
D12*
X1151524Y908148D03*
X1151524Y917648D03*
X1142024Y917648D03*
X1142024Y908148D03*
D10*
G36*
X1234260Y912859D02*
X1230371Y908970D01*
X1226482Y912859D01*
X1230371Y916748D01*
X1234260Y912859D01*
G37*
G36*
X1227543Y919577D02*
X1223654Y915688D01*
X1219765Y919577D01*
X1223654Y923466D01*
X1227543Y919577D01*
G37*
G36*
X1220825Y912859D02*
X1216936Y908970D01*
X1213047Y912859D01*
X1216936Y916748D01*
X1220825Y912859D01*
G37*
G36*
X1227543Y906141D02*
X1223654Y902252D01*
X1219765Y906141D01*
X1223654Y910030D01*
X1227543Y906141D01*
G37*
G36*
X1311191Y912906D02*
X1307302Y909017D01*
X1303413Y912906D01*
X1307302Y916795D01*
X1311191Y912906D01*
G37*
G36*
X1304473Y919624D02*
X1300584Y915735D01*
X1296695Y919624D01*
X1300584Y923513D01*
X1304473Y919624D01*
G37*
G36*
X1297756Y912906D02*
X1293867Y909017D01*
X1289978Y912906D01*
X1293867Y916795D01*
X1297756Y912906D01*
G37*
G36*
X1304473Y906189D02*
X1300584Y902300D01*
X1296695Y906189D01*
X1300584Y910078D01*
X1304473Y906189D01*
G37*
D12*
X1427961Y793059D03*
X1427961Y802559D03*
X1418461Y802559D03*
X1418461Y793059D03*
X1518453Y703902D03*
X1518453Y713402D03*
X1508953Y713402D03*
X1508953Y703902D03*
X1429169Y1032065D03*
X1419669Y1032065D03*
X1419669Y1022565D03*
X1429169Y1022565D03*
D13*
X1417907Y905953D03*
X1417907Y919953D03*
D12*
X1518233Y1121848D03*
X1508733Y1121848D03*
X1508733Y1112348D03*
X1518233Y1112348D03*
D10*
G36*
X1388083Y912887D02*
X1384194Y908998D01*
X1380305Y912887D01*
X1384194Y916776D01*
X1388083Y912887D01*
G37*
G36*
X1381365Y919605D02*
X1377476Y915716D01*
X1373587Y919605D01*
X1377476Y923494D01*
X1381365Y919605D01*
G37*
G36*
X1374648Y912887D02*
X1370759Y908998D01*
X1366870Y912887D01*
X1370759Y916776D01*
X1374648Y912887D01*
G37*
G36*
X1381365Y906170D02*
X1377476Y902281D01*
X1373587Y906170D01*
X1377476Y910059D01*
X1381365Y906170D01*
G37*
G36*
X1465050Y912798D02*
X1461161Y908909D01*
X1457272Y912798D01*
X1461161Y916687D01*
X1465050Y912798D01*
G37*
G36*
X1458332Y919515D02*
X1454443Y915626D01*
X1450554Y919515D01*
X1454443Y923404D01*
X1458332Y919515D01*
G37*
G36*
X1451615Y912798D02*
X1447726Y908909D01*
X1443837Y912798D01*
X1447726Y916687D01*
X1451615Y912798D01*
G37*
G36*
X1458332Y906080D02*
X1454443Y902191D01*
X1450554Y906080D01*
X1454443Y909969D01*
X1458332Y906080D01*
G37*
G36*
X1542030Y912931D02*
X1538141Y909042D01*
X1534252Y912931D01*
X1538141Y916820D01*
X1542030Y912931D01*
G37*
G36*
X1535312Y919649D02*
X1531423Y915760D01*
X1527534Y919649D01*
X1531423Y923538D01*
X1535312Y919649D01*
G37*
G36*
X1528595Y912931D02*
X1524706Y909042D01*
X1520817Y912931D01*
X1524706Y916820D01*
X1528595Y912931D01*
G37*
G36*
X1535312Y906214D02*
X1531423Y902325D01*
X1527534Y906214D01*
X1531423Y910103D01*
X1535312Y906214D01*
G37*
G36*
X1618860Y912805D02*
X1614971Y908916D01*
X1611082Y912805D01*
X1614971Y916694D01*
X1618860Y912805D01*
G37*
G36*
X1612143Y919523D02*
X1608254Y915634D01*
X1604365Y919523D01*
X1608254Y923412D01*
X1612143Y919523D01*
G37*
G36*
X1605425Y912805D02*
X1601536Y908916D01*
X1597647Y912805D01*
X1601536Y916694D01*
X1605425Y912805D01*
G37*
G36*
X1612143Y906088D02*
X1608254Y902199D01*
X1604365Y906088D01*
X1608254Y909977D01*
X1612143Y906088D01*
G37*
D12*
X1708382Y800493D03*
X1708382Y809993D03*
X1698882Y809993D03*
X1698882Y800493D03*
X1712700Y1023954D03*
X1703200Y1023954D03*
X1703200Y1014454D03*
X1712700Y1014454D03*
D10*
G36*
X1695710Y912912D02*
X1691821Y909023D01*
X1687932Y912912D01*
X1691821Y916801D01*
X1695710Y912912D01*
G37*
G36*
X1688992Y919630D02*
X1685103Y915741D01*
X1681214Y919630D01*
X1685103Y923519D01*
X1688992Y919630D01*
G37*
G36*
X1682275Y912912D02*
X1678386Y909023D01*
X1674497Y912912D01*
X1678386Y916801D01*
X1682275Y912912D01*
G37*
G36*
X1688992Y906195D02*
X1685103Y902306D01*
X1681214Y906195D01*
X1685103Y910084D01*
X1688992Y906195D01*
G37*
D13*
X1706312Y905442D03*
X1706312Y919442D03*
D10*
G36*
X1773294Y912179D02*
X1769405Y908290D01*
X1765516Y912179D01*
X1769405Y916068D01*
X1773294Y912179D01*
G37*
G36*
X1766576Y918896D02*
X1762687Y915007D01*
X1758798Y918896D01*
X1762687Y922785D01*
X1766576Y918896D01*
G37*
G36*
X1759858Y912179D02*
X1755969Y908290D01*
X1752080Y912179D01*
X1755969Y916068D01*
X1759858Y912179D01*
G37*
G36*
X1766576Y905461D02*
X1762687Y901572D01*
X1758798Y905461D01*
X1762687Y909350D01*
X1766576Y905461D01*
G37*
G36*
X1141464Y768328D02*
X1140040Y773640D01*
X1145352Y775064D01*
X1146776Y769752D01*
X1141464Y768328D01*
G37*
G36*
X1150641Y770787D02*
X1149217Y776099D01*
X1154529Y777523D01*
X1155953Y772211D01*
X1150641Y770787D01*
G37*
G36*
X1148182Y779963D02*
X1146758Y785275D01*
X1152070Y786699D01*
X1153494Y781387D01*
X1148182Y779963D01*
G37*
G36*
X1139006Y777504D02*
X1137582Y782816D01*
X1142894Y784240D01*
X1144318Y778928D01*
X1139006Y777504D01*
G37*
M02*
