G04 EAGLE Gerber RS-274X export*
G75*
%MOMM*%
%FSLAX34Y34*%
%LPD*%
%INSolderpaste Top*%
%IPPOS*%
%AMOC8*
5,1,8,0,0,1.08239X$1,22.5*%
G01*
%ADD10R,0.550000X0.550000*%
%ADD11R,0.700000X1.000000*%
%ADD12R,0.550000X0.550000*%
%ADD13R,1.000000X0.700000*%


D10*
G36*
X2527824Y513931D02*
X2522512Y512507D01*
X2521088Y517819D01*
X2526400Y519243D01*
X2527824Y513931D01*
G37*
G36*
X2530283Y504755D02*
X2524971Y503331D01*
X2523547Y508643D01*
X2528859Y510067D01*
X2530283Y504755D01*
G37*
G36*
X2521106Y502296D02*
X2515794Y500872D01*
X2514370Y506184D01*
X2519682Y507608D01*
X2521106Y502296D01*
G37*
G36*
X2518648Y511472D02*
X2513336Y510048D01*
X2511912Y515360D01*
X2517224Y516784D01*
X2518648Y511472D01*
G37*
G36*
X2489350Y447371D02*
X2484038Y445947D01*
X2482614Y451259D01*
X2487926Y452683D01*
X2489350Y447371D01*
G37*
G36*
X2491808Y438194D02*
X2486496Y436770D01*
X2485072Y442082D01*
X2490384Y443506D01*
X2491808Y438194D01*
G37*
G36*
X2482632Y435736D02*
X2477320Y434312D01*
X2475896Y439624D01*
X2481208Y441048D01*
X2482632Y435736D01*
G37*
G36*
X2480173Y444912D02*
X2474861Y443488D01*
X2473437Y448800D01*
X2478749Y450224D01*
X2480173Y444912D01*
G37*
G36*
X2450839Y380674D02*
X2445527Y379250D01*
X2444103Y384562D01*
X2449415Y385986D01*
X2450839Y380674D01*
G37*
G36*
X2453297Y371497D02*
X2447985Y370073D01*
X2446561Y375385D01*
X2451873Y376809D01*
X2453297Y371497D01*
G37*
G36*
X2444121Y369038D02*
X2438809Y367614D01*
X2437385Y372926D01*
X2442697Y374350D01*
X2444121Y369038D01*
G37*
G36*
X2441662Y378215D02*
X2436350Y376791D01*
X2434926Y382103D01*
X2440238Y383527D01*
X2441662Y378215D01*
G37*
G36*
X2412364Y314113D02*
X2407052Y312689D01*
X2405628Y318001D01*
X2410940Y319425D01*
X2412364Y314113D01*
G37*
G36*
X2414823Y304937D02*
X2409511Y303513D01*
X2408087Y308825D01*
X2413399Y310249D01*
X2414823Y304937D01*
G37*
G36*
X2405647Y302478D02*
X2400335Y301054D01*
X2398911Y306366D01*
X2404223Y307790D01*
X2405647Y302478D01*
G37*
G36*
X2403188Y311654D02*
X2397876Y310230D01*
X2396452Y315542D01*
X2401764Y316966D01*
X2403188Y311654D01*
G37*
G36*
X2272292Y279403D02*
X2267530Y282153D01*
X2270280Y286915D01*
X2275042Y284165D01*
X2272292Y279403D01*
G37*
G36*
X2267542Y271176D02*
X2262780Y273926D01*
X2265530Y278688D01*
X2270292Y275938D01*
X2267542Y271176D01*
G37*
G36*
X2259315Y275926D02*
X2254553Y278676D01*
X2257303Y283438D01*
X2262065Y280688D01*
X2259315Y275926D01*
G37*
G36*
X2264065Y284153D02*
X2259303Y286903D01*
X2262053Y291665D01*
X2266815Y288915D01*
X2264065Y284153D01*
G37*
G36*
X2449951Y178195D02*
X2447201Y173433D01*
X2442439Y176183D01*
X2445189Y180945D01*
X2449951Y178195D01*
G37*
G36*
X2458179Y173445D02*
X2455429Y168683D01*
X2450667Y171433D01*
X2453417Y176195D01*
X2458179Y173445D01*
G37*
G36*
X2453429Y165218D02*
X2450679Y160456D01*
X2445917Y163206D01*
X2448667Y167968D01*
X2453429Y165218D01*
G37*
G36*
X2445201Y169968D02*
X2442451Y165206D01*
X2437689Y167956D01*
X2440439Y172718D01*
X2445201Y169968D01*
G37*
G36*
X2374032Y247506D02*
X2368720Y246082D01*
X2367296Y251394D01*
X2372608Y252818D01*
X2374032Y247506D01*
G37*
G36*
X2376491Y238329D02*
X2371179Y236905D01*
X2369755Y242217D01*
X2375067Y243641D01*
X2376491Y238329D01*
G37*
G36*
X2367315Y235871D02*
X2362003Y234447D01*
X2360579Y239759D01*
X2365891Y241183D01*
X2367315Y235871D01*
G37*
G36*
X2364856Y245047D02*
X2359544Y243623D01*
X2358120Y248935D01*
X2363432Y250359D01*
X2364856Y245047D01*
G37*
D11*
G36*
X2418695Y354101D02*
X2424757Y350601D01*
X2419757Y341941D01*
X2413695Y345441D01*
X2418695Y354101D01*
G37*
G36*
X2430819Y347101D02*
X2436881Y343601D01*
X2431881Y334941D01*
X2425819Y338441D01*
X2430819Y347101D01*
G37*
D10*
G36*
X2334605Y180683D02*
X2329293Y179259D01*
X2327869Y184571D01*
X2333181Y185995D01*
X2334605Y180683D01*
G37*
G36*
X2337064Y171507D02*
X2331752Y170083D01*
X2330328Y175395D01*
X2335640Y176819D01*
X2337064Y171507D01*
G37*
G36*
X2327888Y169048D02*
X2322576Y167624D01*
X2321152Y172936D01*
X2326464Y174360D01*
X2327888Y169048D01*
G37*
G36*
X2325429Y178224D02*
X2320117Y176800D01*
X2318693Y182112D01*
X2324005Y183536D01*
X2325429Y178224D01*
G37*
G36*
X2519164Y769829D02*
X2520588Y775141D01*
X2525900Y773717D01*
X2524476Y768405D01*
X2519164Y769829D01*
G37*
G36*
X2509987Y772288D02*
X2511411Y777600D01*
X2516723Y776176D01*
X2515299Y770864D01*
X2509987Y772288D01*
G37*
G36*
X2512446Y781464D02*
X2513870Y786776D01*
X2519182Y785352D01*
X2517758Y780040D01*
X2512446Y781464D01*
G37*
G36*
X2521622Y779006D02*
X2523046Y784318D01*
X2528358Y782894D01*
X2526934Y777582D01*
X2521622Y779006D01*
G37*
G36*
X2643928Y707872D02*
X2639166Y710622D01*
X2641916Y715384D01*
X2646678Y712634D01*
X2643928Y707872D01*
G37*
G36*
X2639178Y699645D02*
X2634416Y702395D01*
X2637166Y707157D01*
X2641928Y704407D01*
X2639178Y699645D01*
G37*
G36*
X2630951Y704395D02*
X2626189Y707145D01*
X2628939Y711907D01*
X2633701Y709157D01*
X2630951Y704395D01*
G37*
G36*
X2635701Y712622D02*
X2630939Y715372D01*
X2633689Y720134D01*
X2638451Y717384D01*
X2635701Y712622D01*
G37*
G36*
X2604711Y647159D02*
X2599399Y645735D01*
X2597975Y651047D01*
X2603287Y652471D01*
X2604711Y647159D01*
G37*
G36*
X2607170Y637983D02*
X2601858Y636559D01*
X2600434Y641871D01*
X2605746Y643295D01*
X2607170Y637983D01*
G37*
G36*
X2597993Y635524D02*
X2592681Y634100D01*
X2591257Y639412D01*
X2596569Y640836D01*
X2597993Y635524D01*
G37*
G36*
X2595535Y644701D02*
X2590223Y643277D01*
X2588799Y648589D01*
X2594111Y650013D01*
X2595535Y644701D01*
G37*
G36*
X2566286Y580512D02*
X2560974Y579088D01*
X2559550Y584400D01*
X2564862Y585824D01*
X2566286Y580512D01*
G37*
G36*
X2568745Y571336D02*
X2563433Y569912D01*
X2562009Y575224D01*
X2567321Y576648D01*
X2568745Y571336D01*
G37*
G36*
X2559569Y568877D02*
X2554257Y567453D01*
X2552833Y572765D01*
X2558145Y574189D01*
X2559569Y568877D01*
G37*
G36*
X2557110Y578053D02*
X2551798Y576629D01*
X2550374Y581941D01*
X2555686Y583365D01*
X2557110Y578053D01*
G37*
G36*
X2406063Y525972D02*
X2401301Y528722D01*
X2404051Y533484D01*
X2408813Y530734D01*
X2406063Y525972D01*
G37*
G36*
X2401313Y517745D02*
X2396551Y520495D01*
X2399301Y525257D01*
X2404063Y522507D01*
X2401313Y517745D01*
G37*
G36*
X2393086Y522495D02*
X2388324Y525245D01*
X2391074Y530007D01*
X2395836Y527257D01*
X2393086Y522495D01*
G37*
G36*
X2397836Y530722D02*
X2393074Y533472D01*
X2395824Y538234D01*
X2400586Y535484D01*
X2397836Y530722D01*
G37*
G36*
X2283605Y492182D02*
X2278843Y494932D01*
X2281593Y499694D01*
X2286355Y496944D01*
X2283605Y492182D01*
G37*
G36*
X2278855Y483955D02*
X2274093Y486705D01*
X2276843Y491467D01*
X2281605Y488717D01*
X2278855Y483955D01*
G37*
G36*
X2270628Y488705D02*
X2265866Y491455D01*
X2268616Y496217D01*
X2273378Y493467D01*
X2270628Y488705D01*
G37*
G36*
X2275378Y496932D02*
X2270616Y499682D01*
X2273366Y504444D01*
X2278128Y501694D01*
X2275378Y496932D01*
G37*
G36*
X2598741Y419685D02*
X2595991Y414923D01*
X2591229Y417673D01*
X2593979Y422435D01*
X2598741Y419685D01*
G37*
G36*
X2606968Y414935D02*
X2604218Y410173D01*
X2599456Y412923D01*
X2602206Y417685D01*
X2606968Y414935D01*
G37*
G36*
X2602218Y406707D02*
X2599468Y401945D01*
X2594706Y404695D01*
X2597456Y409457D01*
X2602218Y406707D01*
G37*
G36*
X2593991Y411457D02*
X2591241Y406695D01*
X2586479Y409445D01*
X2589229Y414207D01*
X2593991Y411457D01*
G37*
D11*
G36*
X2575340Y623611D02*
X2581402Y620111D01*
X2576402Y611451D01*
X2570340Y614951D01*
X2575340Y623611D01*
G37*
G36*
X2587464Y616611D02*
X2593526Y613111D01*
X2588526Y604451D01*
X2582464Y607951D01*
X2587464Y616611D01*
G37*
D10*
G36*
X2632050Y297711D02*
X2629300Y292949D01*
X2624538Y295699D01*
X2627288Y300461D01*
X2632050Y297711D01*
G37*
G36*
X2640277Y292961D02*
X2637527Y288199D01*
X2632765Y290949D01*
X2635515Y295711D01*
X2640277Y292961D01*
G37*
G36*
X2635527Y284734D02*
X2632777Y279972D01*
X2628015Y282722D01*
X2630765Y287484D01*
X2635527Y284734D01*
G37*
G36*
X2627300Y289484D02*
X2624550Y284722D01*
X2619788Y287472D01*
X2622538Y292234D01*
X2627300Y289484D01*
G37*
G36*
X2295186Y908909D02*
X2291297Y912798D01*
X2295186Y916687D01*
X2299075Y912798D01*
X2295186Y908909D01*
G37*
G36*
X2288468Y902191D02*
X2284579Y906080D01*
X2288468Y909969D01*
X2292357Y906080D01*
X2288468Y902191D01*
G37*
G36*
X2281751Y908909D02*
X2277862Y912798D01*
X2281751Y916687D01*
X2285640Y912798D01*
X2281751Y908909D01*
G37*
G36*
X2288468Y915627D02*
X2284579Y919516D01*
X2288468Y923405D01*
X2292357Y919516D01*
X2288468Y915627D01*
G37*
G36*
X2218305Y908949D02*
X2214416Y912838D01*
X2218305Y916727D01*
X2222194Y912838D01*
X2218305Y908949D01*
G37*
G36*
X2211588Y902231D02*
X2207699Y906120D01*
X2211588Y910009D01*
X2215477Y906120D01*
X2211588Y902231D01*
G37*
G36*
X2204870Y908949D02*
X2200981Y912838D01*
X2204870Y916727D01*
X2208759Y912838D01*
X2204870Y908949D01*
G37*
G36*
X2211588Y915666D02*
X2207699Y919555D01*
X2211588Y923444D01*
X2215477Y919555D01*
X2211588Y915666D01*
G37*
G36*
X2141288Y908951D02*
X2137399Y912840D01*
X2141288Y916729D01*
X2145177Y912840D01*
X2141288Y908951D01*
G37*
G36*
X2134571Y902234D02*
X2130682Y906123D01*
X2134571Y910012D01*
X2138460Y906123D01*
X2134571Y902234D01*
G37*
G36*
X2127853Y908951D02*
X2123964Y912840D01*
X2127853Y916729D01*
X2131742Y912840D01*
X2127853Y908951D01*
G37*
G36*
X2134571Y915669D02*
X2130682Y919558D01*
X2134571Y923447D01*
X2138460Y919558D01*
X2134571Y915669D01*
G37*
G36*
X2064408Y908991D02*
X2060519Y912880D01*
X2064408Y916769D01*
X2068297Y912880D01*
X2064408Y908991D01*
G37*
G36*
X2057691Y902273D02*
X2053802Y906162D01*
X2057691Y910051D01*
X2061580Y906162D01*
X2057691Y902273D01*
G37*
G36*
X2050973Y908991D02*
X2047084Y912880D01*
X2050973Y916769D01*
X2054862Y912880D01*
X2050973Y908991D01*
G37*
G36*
X2057691Y915708D02*
X2053802Y919597D01*
X2057691Y923486D01*
X2061580Y919597D01*
X2057691Y915708D01*
G37*
D12*
X1967063Y1015692D03*
X1957563Y1015692D03*
X1957563Y1025192D03*
X1967063Y1025192D03*
X1962745Y811231D03*
X1962745Y801731D03*
X1953245Y801731D03*
X1953245Y811231D03*
D10*
G36*
X1987559Y908884D02*
X1983670Y912773D01*
X1987559Y916662D01*
X1991448Y912773D01*
X1987559Y908884D01*
G37*
G36*
X1980841Y902166D02*
X1976952Y906055D01*
X1980841Y909944D01*
X1984730Y906055D01*
X1980841Y902166D01*
G37*
G36*
X1974124Y908884D02*
X1970235Y912773D01*
X1974124Y916662D01*
X1978013Y912773D01*
X1974124Y908884D01*
G37*
G36*
X1980841Y915601D02*
X1976952Y919490D01*
X1980841Y923379D01*
X1984730Y919490D01*
X1980841Y915601D01*
G37*
D13*
X2097204Y920003D03*
X2097204Y906003D03*
D10*
G36*
X1909975Y909617D02*
X1906086Y913506D01*
X1909975Y917395D01*
X1913864Y913506D01*
X1909975Y909617D01*
G37*
G36*
X1903257Y902900D02*
X1899368Y906789D01*
X1903257Y910678D01*
X1907146Y906789D01*
X1903257Y902900D01*
G37*
G36*
X1896540Y909617D02*
X1892651Y913506D01*
X1896540Y917395D01*
X1900429Y913506D01*
X1896540Y909617D01*
G37*
G36*
X1903257Y916335D02*
X1899368Y920224D01*
X1903257Y924113D01*
X1907146Y920224D01*
X1903257Y916335D01*
G37*
G36*
X2512470Y1044358D02*
X2517782Y1045782D01*
X2519206Y1040470D01*
X2513894Y1039046D01*
X2512470Y1044358D01*
G37*
G36*
X2510011Y1053534D02*
X2515323Y1054958D01*
X2516747Y1049646D01*
X2511435Y1048222D01*
X2510011Y1053534D01*
G37*
G36*
X2519187Y1055993D02*
X2524499Y1057417D01*
X2525923Y1052105D01*
X2520611Y1050681D01*
X2519187Y1055993D01*
G37*
G36*
X2521646Y1046816D02*
X2526958Y1048240D01*
X2528382Y1042928D01*
X2523070Y1041504D01*
X2521646Y1046816D01*
G37*
D12*
X2523946Y908080D03*
X2514446Y908080D03*
X2514446Y917580D03*
X2523946Y917580D03*
D10*
G36*
X2449008Y908937D02*
X2445119Y912826D01*
X2449008Y916715D01*
X2452897Y912826D01*
X2449008Y908937D01*
G37*
G36*
X2442290Y902220D02*
X2438401Y906109D01*
X2442290Y909998D01*
X2446179Y906109D01*
X2442290Y902220D01*
G37*
G36*
X2435573Y908937D02*
X2431684Y912826D01*
X2435573Y916715D01*
X2439462Y912826D01*
X2435573Y908937D01*
G37*
G36*
X2442290Y915655D02*
X2438401Y919544D01*
X2442290Y923433D01*
X2446179Y919544D01*
X2442290Y915655D01*
G37*
G36*
X2372078Y908890D02*
X2368189Y912779D01*
X2372078Y916668D01*
X2375967Y912779D01*
X2372078Y908890D01*
G37*
G36*
X2365360Y902172D02*
X2361471Y906061D01*
X2365360Y909950D01*
X2369249Y906061D01*
X2365360Y902172D01*
G37*
G36*
X2358643Y908890D02*
X2354754Y912779D01*
X2358643Y916668D01*
X2362532Y912779D01*
X2358643Y908890D01*
G37*
G36*
X2365360Y915608D02*
X2361471Y919497D01*
X2365360Y923386D01*
X2369249Y919497D01*
X2365360Y915608D01*
G37*
D12*
X2247483Y1023127D03*
X2237983Y1023127D03*
X2237983Y1032627D03*
X2247483Y1032627D03*
X2156991Y1112283D03*
X2147491Y1112283D03*
X2147491Y1121783D03*
X2156991Y1121783D03*
X2246275Y803120D03*
X2246275Y793620D03*
X2236775Y793620D03*
X2236775Y803120D03*
D13*
X2408930Y919099D03*
X2408930Y905099D03*
D12*
X2157298Y713287D03*
X2157298Y703787D03*
X2147798Y703787D03*
X2147798Y713287D03*
D10*
G36*
X2520928Y1307869D02*
X2522352Y1313181D01*
X2527664Y1311757D01*
X2526240Y1306445D01*
X2520928Y1307869D01*
G37*
G36*
X2511751Y1310328D02*
X2513175Y1315640D01*
X2518487Y1314216D01*
X2517063Y1308904D01*
X2511751Y1310328D01*
G37*
G36*
X2514210Y1319504D02*
X2515634Y1324816D01*
X2520946Y1323392D01*
X2519522Y1318080D01*
X2514210Y1319504D01*
G37*
G36*
X2523386Y1317046D02*
X2524810Y1322358D01*
X2530122Y1320934D01*
X2528698Y1315622D01*
X2523386Y1317046D01*
G37*
G36*
X2482522Y1374469D02*
X2483946Y1379781D01*
X2489258Y1378357D01*
X2487834Y1373045D01*
X2482522Y1374469D01*
G37*
G36*
X2473345Y1376928D02*
X2474769Y1382240D01*
X2480081Y1380816D01*
X2478657Y1375504D01*
X2473345Y1376928D01*
G37*
G36*
X2475804Y1386104D02*
X2477228Y1391416D01*
X2482540Y1389992D01*
X2481116Y1384680D01*
X2475804Y1386104D01*
G37*
G36*
X2484980Y1383646D02*
X2486404Y1388958D01*
X2491716Y1387534D01*
X2490292Y1382222D01*
X2484980Y1383646D01*
G37*
G36*
X2444016Y1441169D02*
X2445440Y1446481D01*
X2450752Y1445057D01*
X2449328Y1439745D01*
X2444016Y1441169D01*
G37*
G36*
X2434839Y1443628D02*
X2436263Y1448940D01*
X2441575Y1447516D01*
X2440151Y1442204D01*
X2434839Y1443628D01*
G37*
G36*
X2437298Y1452804D02*
X2438722Y1458116D01*
X2444034Y1456692D01*
X2442610Y1451380D01*
X2437298Y1452804D01*
G37*
G36*
X2446475Y1450346D02*
X2447899Y1455658D01*
X2453211Y1454234D01*
X2451787Y1448922D01*
X2446475Y1450346D01*
G37*
G36*
X2405610Y1507769D02*
X2407034Y1513081D01*
X2412346Y1511657D01*
X2410922Y1506345D01*
X2405610Y1507769D01*
G37*
G36*
X2396434Y1510228D02*
X2397858Y1515540D01*
X2403170Y1514116D01*
X2401746Y1508804D01*
X2396434Y1510228D01*
G37*
G36*
X2398892Y1519404D02*
X2400316Y1524716D01*
X2405628Y1523292D01*
X2404204Y1517980D01*
X2398892Y1519404D01*
G37*
G36*
X2408069Y1516946D02*
X2409493Y1522258D01*
X2414805Y1520834D01*
X2413381Y1515522D01*
X2408069Y1516946D01*
G37*
G36*
X2445587Y1646429D02*
X2450349Y1649179D01*
X2453099Y1644417D01*
X2448337Y1641667D01*
X2445587Y1646429D01*
G37*
G36*
X2440837Y1654656D02*
X2445599Y1657406D01*
X2448349Y1652644D01*
X2443587Y1649894D01*
X2440837Y1654656D01*
G37*
G36*
X2449064Y1659406D02*
X2453826Y1662156D01*
X2456576Y1657394D01*
X2451814Y1654644D01*
X2449064Y1659406D01*
G37*
G36*
X2453814Y1651179D02*
X2458576Y1653929D01*
X2461326Y1649167D01*
X2456564Y1646417D01*
X2453814Y1651179D01*
G37*
G36*
X2269109Y1543176D02*
X2266359Y1547938D01*
X2271121Y1550688D01*
X2273871Y1545926D01*
X2269109Y1543176D01*
G37*
G36*
X2260882Y1538426D02*
X2258132Y1543188D01*
X2262894Y1545938D01*
X2265644Y1541176D01*
X2260882Y1538426D01*
G37*
G36*
X2256132Y1546653D02*
X2253382Y1551415D01*
X2258144Y1554165D01*
X2260894Y1549403D01*
X2256132Y1546653D01*
G37*
G36*
X2264359Y1551403D02*
X2261609Y1556165D01*
X2266371Y1558915D01*
X2269121Y1554153D01*
X2264359Y1551403D01*
G37*
G36*
X2367092Y1574269D02*
X2368516Y1579581D01*
X2373828Y1578157D01*
X2372404Y1572845D01*
X2367092Y1574269D01*
G37*
G36*
X2357916Y1576728D02*
X2359340Y1582040D01*
X2364652Y1580616D01*
X2363228Y1575304D01*
X2357916Y1576728D01*
G37*
G36*
X2360375Y1585904D02*
X2361799Y1591216D01*
X2367111Y1589792D01*
X2365687Y1584480D01*
X2360375Y1585904D01*
G37*
G36*
X2369551Y1583446D02*
X2370975Y1588758D01*
X2376287Y1587334D01*
X2374863Y1582022D01*
X2369551Y1583446D01*
G37*
D11*
G36*
X2437076Y1482293D02*
X2431014Y1478793D01*
X2426014Y1487453D01*
X2432076Y1490953D01*
X2437076Y1482293D01*
G37*
G36*
X2424951Y1475293D02*
X2418889Y1471793D01*
X2413889Y1480453D01*
X2419951Y1483953D01*
X2424951Y1475293D01*
G37*
D10*
G36*
X2328936Y1641826D02*
X2330360Y1647138D01*
X2335672Y1645714D01*
X2334248Y1640402D01*
X2328936Y1641826D01*
G37*
G36*
X2319759Y1644285D02*
X2321183Y1649597D01*
X2326495Y1648173D01*
X2325071Y1642861D01*
X2319759Y1644285D01*
G37*
G36*
X2322218Y1653461D02*
X2323642Y1658773D01*
X2328954Y1657349D01*
X2327530Y1652037D01*
X2322218Y1653461D01*
G37*
G36*
X2331394Y1651002D02*
X2332818Y1656314D01*
X2338130Y1654890D01*
X2336706Y1649578D01*
X2331394Y1651002D01*
G37*
G36*
X2746872Y1187420D02*
X2750761Y1183531D01*
X2746872Y1179642D01*
X2742983Y1183531D01*
X2746872Y1187420D01*
G37*
G36*
X2753590Y1194137D02*
X2757479Y1190248D01*
X2753590Y1186359D01*
X2749701Y1190248D01*
X2753590Y1194137D01*
G37*
G36*
X2760307Y1187420D02*
X2764196Y1183531D01*
X2760307Y1179642D01*
X2756418Y1183531D01*
X2760307Y1187420D01*
G37*
G36*
X2753590Y1180702D02*
X2757479Y1176813D01*
X2753590Y1172924D01*
X2749701Y1176813D01*
X2753590Y1180702D01*
G37*
G36*
X2630834Y1110348D02*
X2635596Y1113098D01*
X2638346Y1108336D01*
X2633584Y1105586D01*
X2630834Y1110348D01*
G37*
G36*
X2626084Y1118576D02*
X2630846Y1121326D01*
X2633596Y1116564D01*
X2628834Y1113814D01*
X2626084Y1118576D01*
G37*
G36*
X2634311Y1123326D02*
X2639073Y1126076D01*
X2641823Y1121314D01*
X2637061Y1118564D01*
X2634311Y1123326D01*
G37*
G36*
X2639061Y1115098D02*
X2643823Y1117848D01*
X2646573Y1113086D01*
X2641811Y1110336D01*
X2639061Y1115098D01*
G37*
G36*
X2597863Y1174669D02*
X2599287Y1179981D01*
X2604599Y1178557D01*
X2603175Y1173245D01*
X2597863Y1174669D01*
G37*
G36*
X2588687Y1177128D02*
X2590111Y1182440D01*
X2595423Y1181016D01*
X2593999Y1175704D01*
X2588687Y1177128D01*
G37*
G36*
X2591146Y1186304D02*
X2592570Y1191616D01*
X2597882Y1190192D01*
X2596458Y1184880D01*
X2591146Y1186304D01*
G37*
G36*
X2600322Y1183846D02*
X2601746Y1189158D01*
X2607058Y1187734D01*
X2605634Y1182422D01*
X2600322Y1183846D01*
G37*
G36*
X2559357Y1241269D02*
X2560781Y1246581D01*
X2566093Y1245157D01*
X2564669Y1239845D01*
X2559357Y1241269D01*
G37*
G36*
X2550181Y1243728D02*
X2551605Y1249040D01*
X2556917Y1247616D01*
X2555493Y1242304D01*
X2550181Y1243728D01*
G37*
G36*
X2552640Y1252905D02*
X2554064Y1258217D01*
X2559376Y1256793D01*
X2557952Y1251481D01*
X2552640Y1252905D01*
G37*
G36*
X2561816Y1250446D02*
X2563240Y1255758D01*
X2568552Y1254334D01*
X2567128Y1249022D01*
X2561816Y1250446D01*
G37*
G36*
X2592236Y1407295D02*
X2596998Y1410045D01*
X2599748Y1405283D01*
X2594986Y1402533D01*
X2592236Y1407295D01*
G37*
G36*
X2587486Y1415522D02*
X2592248Y1418272D01*
X2594998Y1413510D01*
X2590236Y1410760D01*
X2587486Y1415522D01*
G37*
G36*
X2595713Y1420272D02*
X2600475Y1423022D01*
X2603225Y1418260D01*
X2598463Y1415510D01*
X2595713Y1420272D01*
G37*
G36*
X2600463Y1412045D02*
X2605225Y1414795D01*
X2607975Y1410033D01*
X2603213Y1407283D01*
X2600463Y1412045D01*
G37*
G36*
X2624202Y1530242D02*
X2628964Y1532992D01*
X2631714Y1528230D01*
X2626952Y1525480D01*
X2624202Y1530242D01*
G37*
G36*
X2619452Y1538469D02*
X2624214Y1541219D01*
X2626964Y1536457D01*
X2622202Y1533707D01*
X2619452Y1538469D01*
G37*
G36*
X2627679Y1543219D02*
X2632441Y1545969D01*
X2635191Y1541207D01*
X2630429Y1538457D01*
X2627679Y1543219D01*
G37*
G36*
X2632429Y1534992D02*
X2637191Y1537742D01*
X2639941Y1532980D01*
X2635179Y1530230D01*
X2632429Y1534992D01*
G37*
G36*
X2403851Y1293576D02*
X2401101Y1298338D01*
X2405863Y1301088D01*
X2408613Y1296326D01*
X2403851Y1293576D01*
G37*
G36*
X2395623Y1288826D02*
X2392873Y1293588D01*
X2397635Y1296338D01*
X2400385Y1291576D01*
X2395623Y1288826D01*
G37*
G36*
X2390873Y1297053D02*
X2388123Y1301815D01*
X2392885Y1304565D01*
X2395635Y1299803D01*
X2390873Y1297053D01*
G37*
G36*
X2399101Y1301803D02*
X2396351Y1306565D01*
X2401113Y1309315D01*
X2403863Y1304553D01*
X2399101Y1301803D01*
G37*
D11*
G36*
X2592156Y1211879D02*
X2586094Y1208379D01*
X2581094Y1217039D01*
X2587156Y1220539D01*
X2592156Y1211879D01*
G37*
G36*
X2580032Y1204879D02*
X2573970Y1201379D01*
X2568970Y1210039D01*
X2575032Y1213539D01*
X2580032Y1204879D01*
G37*
D10*
G36*
X2281564Y1325716D02*
X2278814Y1330478D01*
X2283576Y1333228D01*
X2286326Y1328466D01*
X2281564Y1325716D01*
G37*
G36*
X2273337Y1320966D02*
X2270587Y1325728D01*
X2275349Y1328478D01*
X2278099Y1323716D01*
X2273337Y1320966D01*
G37*
G36*
X2268587Y1329193D02*
X2265837Y1333955D01*
X2270599Y1336705D01*
X2273349Y1331943D01*
X2268587Y1329193D01*
G37*
G36*
X2276814Y1333943D02*
X2274064Y1338705D01*
X2278826Y1341455D01*
X2281576Y1336693D01*
X2276814Y1333943D01*
G37*
G36*
X2979308Y1311850D02*
X2984620Y1313274D01*
X2986044Y1307962D01*
X2980732Y1306538D01*
X2979308Y1311850D01*
G37*
G36*
X2976849Y1321026D02*
X2982161Y1322450D01*
X2983585Y1317138D01*
X2978273Y1315714D01*
X2976849Y1321026D01*
G37*
G36*
X2986026Y1323485D02*
X2991338Y1324909D01*
X2992762Y1319597D01*
X2987450Y1318173D01*
X2986026Y1323485D01*
G37*
G36*
X2988484Y1314309D02*
X2993796Y1315733D01*
X2995220Y1310421D01*
X2989908Y1308997D01*
X2988484Y1314309D01*
G37*
G36*
X3017782Y1378410D02*
X3023094Y1379834D01*
X3024518Y1374522D01*
X3019206Y1373098D01*
X3017782Y1378410D01*
G37*
G36*
X3015324Y1387587D02*
X3020636Y1389011D01*
X3022060Y1383699D01*
X3016748Y1382275D01*
X3015324Y1387587D01*
G37*
G36*
X3024500Y1390046D02*
X3029812Y1391470D01*
X3031236Y1386158D01*
X3025924Y1384734D01*
X3024500Y1390046D01*
G37*
G36*
X3026959Y1380869D02*
X3032271Y1382293D01*
X3033695Y1376981D01*
X3028383Y1375557D01*
X3026959Y1380869D01*
G37*
G36*
X3056293Y1445108D02*
X3061605Y1446532D01*
X3063029Y1441220D01*
X3057717Y1439796D01*
X3056293Y1445108D01*
G37*
G36*
X3053835Y1454284D02*
X3059147Y1455708D01*
X3060571Y1450396D01*
X3055259Y1448972D01*
X3053835Y1454284D01*
G37*
G36*
X3063011Y1456743D02*
X3068323Y1458167D01*
X3069747Y1452855D01*
X3064435Y1451431D01*
X3063011Y1456743D01*
G37*
G36*
X3065470Y1447566D02*
X3070782Y1448990D01*
X3072206Y1443678D01*
X3066894Y1442254D01*
X3065470Y1447566D01*
G37*
G36*
X3094768Y1511668D02*
X3100080Y1513092D01*
X3101504Y1507780D01*
X3096192Y1506356D01*
X3094768Y1511668D01*
G37*
G36*
X3092309Y1520844D02*
X3097621Y1522268D01*
X3099045Y1516956D01*
X3093733Y1515532D01*
X3092309Y1520844D01*
G37*
G36*
X3101485Y1523303D02*
X3106797Y1524727D01*
X3108221Y1519415D01*
X3102909Y1517991D01*
X3101485Y1523303D01*
G37*
G36*
X3103944Y1514127D02*
X3109256Y1515551D01*
X3110680Y1510239D01*
X3105368Y1508815D01*
X3103944Y1514127D01*
G37*
G36*
X3234840Y1546378D02*
X3239602Y1543628D01*
X3236852Y1538866D01*
X3232090Y1541616D01*
X3234840Y1546378D01*
G37*
G36*
X3239590Y1554605D02*
X3244352Y1551855D01*
X3241602Y1547093D01*
X3236840Y1549843D01*
X3239590Y1554605D01*
G37*
G36*
X3247817Y1549855D02*
X3252579Y1547105D01*
X3249829Y1542343D01*
X3245067Y1545093D01*
X3247817Y1549855D01*
G37*
G36*
X3243067Y1541628D02*
X3247829Y1538878D01*
X3245079Y1534116D01*
X3240317Y1536866D01*
X3243067Y1541628D01*
G37*
G36*
X3057181Y1647586D02*
X3059931Y1652348D01*
X3064693Y1649598D01*
X3061943Y1644836D01*
X3057181Y1647586D01*
G37*
G36*
X3048953Y1652336D02*
X3051703Y1657098D01*
X3056465Y1654348D01*
X3053715Y1649586D01*
X3048953Y1652336D01*
G37*
G36*
X3053703Y1660563D02*
X3056453Y1665325D01*
X3061215Y1662575D01*
X3058465Y1657813D01*
X3053703Y1660563D01*
G37*
G36*
X3061931Y1655813D02*
X3064681Y1660575D01*
X3069443Y1657825D01*
X3066693Y1653063D01*
X3061931Y1655813D01*
G37*
G36*
X3133100Y1578275D02*
X3138412Y1579699D01*
X3139836Y1574387D01*
X3134524Y1572963D01*
X3133100Y1578275D01*
G37*
G36*
X3130641Y1587452D02*
X3135953Y1588876D01*
X3137377Y1583564D01*
X3132065Y1582140D01*
X3130641Y1587452D01*
G37*
G36*
X3139817Y1589910D02*
X3145129Y1591334D01*
X3146553Y1586022D01*
X3141241Y1584598D01*
X3139817Y1589910D01*
G37*
G36*
X3142276Y1580734D02*
X3147588Y1582158D01*
X3149012Y1576846D01*
X3143700Y1575422D01*
X3142276Y1580734D01*
G37*
D11*
G36*
X3088437Y1471680D02*
X3082375Y1475180D01*
X3087375Y1483840D01*
X3093437Y1480340D01*
X3088437Y1471680D01*
G37*
G36*
X3076313Y1478680D02*
X3070251Y1482180D01*
X3075251Y1490840D01*
X3081313Y1487340D01*
X3076313Y1478680D01*
G37*
D10*
G36*
X3172527Y1645098D02*
X3177839Y1646522D01*
X3179263Y1641210D01*
X3173951Y1639786D01*
X3172527Y1645098D01*
G37*
G36*
X3170068Y1654274D02*
X3175380Y1655698D01*
X3176804Y1650386D01*
X3171492Y1648962D01*
X3170068Y1654274D01*
G37*
G36*
X3179244Y1656733D02*
X3184556Y1658157D01*
X3185980Y1652845D01*
X3180668Y1651421D01*
X3179244Y1656733D01*
G37*
G36*
X3181703Y1647557D02*
X3187015Y1648981D01*
X3188439Y1643669D01*
X3183127Y1642245D01*
X3181703Y1647557D01*
G37*
G36*
X2987968Y1055952D02*
X2986544Y1050640D01*
X2981232Y1052064D01*
X2982656Y1057376D01*
X2987968Y1055952D01*
G37*
G36*
X2997145Y1053493D02*
X2995721Y1048181D01*
X2990409Y1049605D01*
X2991833Y1054917D01*
X2997145Y1053493D01*
G37*
G36*
X2994686Y1044317D02*
X2993262Y1039005D01*
X2987950Y1040429D01*
X2989374Y1045741D01*
X2994686Y1044317D01*
G37*
G36*
X2985510Y1046776D02*
X2984086Y1041464D01*
X2978774Y1042888D01*
X2980198Y1048200D01*
X2985510Y1046776D01*
G37*
G36*
X2863204Y1117909D02*
X2867966Y1115159D01*
X2865216Y1110397D01*
X2860454Y1113147D01*
X2863204Y1117909D01*
G37*
G36*
X2867954Y1126136D02*
X2872716Y1123386D01*
X2869966Y1118624D01*
X2865204Y1121374D01*
X2867954Y1126136D01*
G37*
G36*
X2876181Y1121386D02*
X2880943Y1118636D01*
X2878193Y1113874D01*
X2873431Y1116624D01*
X2876181Y1121386D01*
G37*
G36*
X2871431Y1113159D02*
X2876193Y1110409D01*
X2873443Y1105647D01*
X2868681Y1108397D01*
X2871431Y1113159D01*
G37*
G36*
X2902421Y1178622D02*
X2907733Y1180046D01*
X2909157Y1174734D01*
X2903845Y1173310D01*
X2902421Y1178622D01*
G37*
G36*
X2899962Y1187798D02*
X2905274Y1189222D01*
X2906698Y1183910D01*
X2901386Y1182486D01*
X2899962Y1187798D01*
G37*
G36*
X2909139Y1190257D02*
X2914451Y1191681D01*
X2915875Y1186369D01*
X2910563Y1184945D01*
X2909139Y1190257D01*
G37*
G36*
X2911598Y1181081D02*
X2916910Y1182505D01*
X2918334Y1177193D01*
X2913022Y1175769D01*
X2911598Y1181081D01*
G37*
G36*
X2940846Y1245269D02*
X2946158Y1246693D01*
X2947582Y1241381D01*
X2942270Y1239957D01*
X2940846Y1245269D01*
G37*
G36*
X2938387Y1254445D02*
X2943699Y1255869D01*
X2945123Y1250557D01*
X2939811Y1249133D01*
X2938387Y1254445D01*
G37*
G36*
X2947563Y1256904D02*
X2952875Y1258328D01*
X2954299Y1253016D01*
X2948987Y1251592D01*
X2947563Y1256904D01*
G37*
G36*
X2950022Y1247728D02*
X2955334Y1249152D01*
X2956758Y1243840D01*
X2951446Y1242416D01*
X2950022Y1247728D01*
G37*
G36*
X3101069Y1299809D02*
X3105831Y1297059D01*
X3103081Y1292297D01*
X3098319Y1295047D01*
X3101069Y1299809D01*
G37*
G36*
X3105819Y1308036D02*
X3110581Y1305286D01*
X3107831Y1300524D01*
X3103069Y1303274D01*
X3105819Y1308036D01*
G37*
G36*
X3114046Y1303286D02*
X3118808Y1300536D01*
X3116058Y1295774D01*
X3111296Y1298524D01*
X3114046Y1303286D01*
G37*
G36*
X3109296Y1295059D02*
X3114058Y1292309D01*
X3111308Y1287547D01*
X3106546Y1290297D01*
X3109296Y1295059D01*
G37*
G36*
X3223527Y1333599D02*
X3228289Y1330849D01*
X3225539Y1326087D01*
X3220777Y1328837D01*
X3223527Y1333599D01*
G37*
G36*
X3228277Y1341827D02*
X3233039Y1339077D01*
X3230289Y1334315D01*
X3225527Y1337065D01*
X3228277Y1341827D01*
G37*
G36*
X3236504Y1337077D02*
X3241266Y1334327D01*
X3238516Y1329565D01*
X3233754Y1332315D01*
X3236504Y1337077D01*
G37*
G36*
X3231754Y1328849D02*
X3236516Y1326099D01*
X3233766Y1321337D01*
X3229004Y1324087D01*
X3231754Y1328849D01*
G37*
G36*
X2908391Y1406097D02*
X2911141Y1410859D01*
X2915903Y1408109D01*
X2913153Y1403347D01*
X2908391Y1406097D01*
G37*
G36*
X2900164Y1410847D02*
X2902914Y1415609D01*
X2907676Y1412859D01*
X2904926Y1408097D01*
X2900164Y1410847D01*
G37*
G36*
X2904914Y1419074D02*
X2907664Y1423836D01*
X2912426Y1421086D01*
X2909676Y1416324D01*
X2904914Y1419074D01*
G37*
G36*
X2913141Y1414324D02*
X2915891Y1419086D01*
X2920653Y1416336D01*
X2917903Y1411574D01*
X2913141Y1414324D01*
G37*
D11*
G36*
X2931792Y1202170D02*
X2925730Y1205670D01*
X2930730Y1214330D01*
X2936792Y1210830D01*
X2931792Y1202170D01*
G37*
G36*
X2919668Y1209170D02*
X2913606Y1212670D01*
X2918606Y1221330D01*
X2924668Y1217830D01*
X2919668Y1209170D01*
G37*
D10*
G36*
X2875082Y1528070D02*
X2877832Y1532832D01*
X2882594Y1530082D01*
X2879844Y1525320D01*
X2875082Y1528070D01*
G37*
G36*
X2866855Y1532820D02*
X2869605Y1537582D01*
X2874367Y1534832D01*
X2871617Y1530070D01*
X2866855Y1532820D01*
G37*
G36*
X2871605Y1541047D02*
X2874355Y1545809D01*
X2879117Y1543059D01*
X2876367Y1538297D01*
X2871605Y1541047D01*
G37*
G36*
X2879832Y1536297D02*
X2882582Y1541059D01*
X2887344Y1538309D01*
X2884594Y1533547D01*
X2879832Y1536297D01*
G37*
G36*
X3211946Y916872D02*
X3215835Y912983D01*
X3211946Y909094D01*
X3208057Y912983D01*
X3211946Y916872D01*
G37*
G36*
X3218664Y923590D02*
X3222553Y919701D01*
X3218664Y915812D01*
X3214775Y919701D01*
X3218664Y923590D01*
G37*
G36*
X3225381Y916872D02*
X3229270Y912983D01*
X3225381Y909094D01*
X3221492Y912983D01*
X3225381Y916872D01*
G37*
G36*
X3218664Y910155D02*
X3222553Y906266D01*
X3218664Y902377D01*
X3214775Y906266D01*
X3218664Y910155D01*
G37*
G36*
X3288827Y916833D02*
X3292716Y912944D01*
X3288827Y909055D01*
X3284938Y912944D01*
X3288827Y916833D01*
G37*
G36*
X3295544Y923550D02*
X3299433Y919661D01*
X3295544Y915772D01*
X3291655Y919661D01*
X3295544Y923550D01*
G37*
G36*
X3302262Y916833D02*
X3306151Y912944D01*
X3302262Y909055D01*
X3298373Y912944D01*
X3302262Y916833D01*
G37*
G36*
X3295544Y910115D02*
X3299433Y906226D01*
X3295544Y902337D01*
X3291655Y906226D01*
X3295544Y910115D01*
G37*
G36*
X3365844Y916830D02*
X3369733Y912941D01*
X3365844Y909052D01*
X3361955Y912941D01*
X3365844Y916830D01*
G37*
G36*
X3372561Y923547D02*
X3376450Y919658D01*
X3372561Y915769D01*
X3368672Y919658D01*
X3372561Y923547D01*
G37*
G36*
X3379279Y916830D02*
X3383168Y912941D01*
X3379279Y909052D01*
X3375390Y912941D01*
X3379279Y916830D01*
G37*
G36*
X3372561Y910112D02*
X3376450Y906223D01*
X3372561Y902334D01*
X3368672Y906223D01*
X3372561Y910112D01*
G37*
G36*
X3442724Y916790D02*
X3446613Y912901D01*
X3442724Y909012D01*
X3438835Y912901D01*
X3442724Y916790D01*
G37*
G36*
X3449441Y923508D02*
X3453330Y919619D01*
X3449441Y915730D01*
X3445552Y919619D01*
X3449441Y923508D01*
G37*
G36*
X3456159Y916790D02*
X3460048Y912901D01*
X3456159Y909012D01*
X3452270Y912901D01*
X3456159Y916790D01*
G37*
G36*
X3449441Y910073D02*
X3453330Y906184D01*
X3449441Y902295D01*
X3445552Y906184D01*
X3449441Y910073D01*
G37*
D12*
X3540069Y810090D03*
X3549569Y810090D03*
X3549569Y800590D03*
X3540069Y800590D03*
X3544387Y1014551D03*
X3544387Y1024051D03*
X3553887Y1024051D03*
X3553887Y1014551D03*
D10*
G36*
X3519573Y916898D02*
X3523462Y913009D01*
X3519573Y909120D01*
X3515684Y913009D01*
X3519573Y916898D01*
G37*
G36*
X3526291Y923615D02*
X3530180Y919726D01*
X3526291Y915837D01*
X3522402Y919726D01*
X3526291Y923615D01*
G37*
G36*
X3533008Y916898D02*
X3536897Y913009D01*
X3533008Y909120D01*
X3529119Y913009D01*
X3533008Y916898D01*
G37*
G36*
X3526291Y910180D02*
X3530180Y906291D01*
X3526291Y902402D01*
X3522402Y906291D01*
X3526291Y910180D01*
G37*
D13*
X3409928Y905778D03*
X3409928Y919778D03*
D10*
G36*
X3597157Y916164D02*
X3601046Y912275D01*
X3597157Y908386D01*
X3593268Y912275D01*
X3597157Y916164D01*
G37*
G36*
X3603875Y922881D02*
X3607764Y918992D01*
X3603875Y915103D01*
X3599986Y918992D01*
X3603875Y922881D01*
G37*
G36*
X3610592Y916164D02*
X3614481Y912275D01*
X3610592Y908386D01*
X3606703Y912275D01*
X3610592Y916164D01*
G37*
G36*
X3603875Y909446D02*
X3607764Y905557D01*
X3603875Y901668D01*
X3599986Y905557D01*
X3603875Y909446D01*
G37*
G36*
X2994662Y781424D02*
X2989350Y780000D01*
X2987926Y785312D01*
X2993238Y786736D01*
X2994662Y781424D01*
G37*
G36*
X2997121Y772247D02*
X2991809Y770823D01*
X2990385Y776135D01*
X2995697Y777559D01*
X2997121Y772247D01*
G37*
G36*
X2987945Y769788D02*
X2982633Y768364D01*
X2981209Y773676D01*
X2986521Y775100D01*
X2987945Y769788D01*
G37*
G36*
X2985486Y778965D02*
X2980174Y777541D01*
X2978750Y782853D01*
X2984062Y784277D01*
X2985486Y778965D01*
G37*
D12*
X2983186Y917701D03*
X2992686Y917701D03*
X2992686Y908201D03*
X2983186Y908201D03*
D10*
G36*
X3058124Y916844D02*
X3062013Y912955D01*
X3058124Y909066D01*
X3054235Y912955D01*
X3058124Y916844D01*
G37*
G36*
X3064842Y923562D02*
X3068731Y919673D01*
X3064842Y915784D01*
X3060953Y919673D01*
X3064842Y923562D01*
G37*
G36*
X3071559Y916844D02*
X3075448Y912955D01*
X3071559Y909066D01*
X3067670Y912955D01*
X3071559Y916844D01*
G37*
G36*
X3064842Y910127D02*
X3068731Y906238D01*
X3064842Y902349D01*
X3060953Y906238D01*
X3064842Y910127D01*
G37*
G36*
X3135054Y916891D02*
X3138943Y913002D01*
X3135054Y909113D01*
X3131165Y913002D01*
X3135054Y916891D01*
G37*
G36*
X3141772Y923609D02*
X3145661Y919720D01*
X3141772Y915831D01*
X3137883Y919720D01*
X3141772Y923609D01*
G37*
G36*
X3148489Y916891D02*
X3152378Y913002D01*
X3148489Y909113D01*
X3144600Y913002D01*
X3148489Y916891D01*
G37*
G36*
X3141772Y910174D02*
X3145661Y906285D01*
X3141772Y902396D01*
X3137883Y906285D01*
X3141772Y910174D01*
G37*
D12*
X3259649Y802655D03*
X3269149Y802655D03*
X3269149Y793155D03*
X3259649Y793155D03*
X3350141Y713498D03*
X3359641Y713498D03*
X3359641Y703998D03*
X3350141Y703998D03*
X3260857Y1022661D03*
X3260857Y1032161D03*
X3270357Y1032161D03*
X3270357Y1022661D03*
D13*
X3098202Y906682D03*
X3098202Y920682D03*
D12*
X3349834Y1112495D03*
X3349834Y1121995D03*
X3359334Y1121995D03*
X3359334Y1112495D03*
D10*
G36*
X2986204Y517912D02*
X2984780Y512600D01*
X2979468Y514024D01*
X2980892Y519336D01*
X2986204Y517912D01*
G37*
G36*
X2995381Y515453D02*
X2993957Y510141D01*
X2988645Y511565D01*
X2990069Y516877D01*
X2995381Y515453D01*
G37*
G36*
X2992922Y506277D02*
X2991498Y500965D01*
X2986186Y502389D01*
X2987610Y507701D01*
X2992922Y506277D01*
G37*
G36*
X2983746Y508735D02*
X2982322Y503423D01*
X2977010Y504847D01*
X2978434Y510159D01*
X2983746Y508735D01*
G37*
G36*
X3024610Y451312D02*
X3023186Y446000D01*
X3017874Y447424D01*
X3019298Y452736D01*
X3024610Y451312D01*
G37*
G36*
X3033787Y448853D02*
X3032363Y443541D01*
X3027051Y444965D01*
X3028475Y450277D01*
X3033787Y448853D01*
G37*
G36*
X3031328Y439677D02*
X3029904Y434365D01*
X3024592Y435789D01*
X3026016Y441101D01*
X3031328Y439677D01*
G37*
G36*
X3022152Y442135D02*
X3020728Y436823D01*
X3015416Y438247D01*
X3016840Y443559D01*
X3022152Y442135D01*
G37*
G36*
X3063116Y384612D02*
X3061692Y379300D01*
X3056380Y380724D01*
X3057804Y386036D01*
X3063116Y384612D01*
G37*
G36*
X3072293Y382153D02*
X3070869Y376841D01*
X3065557Y378265D01*
X3066981Y383577D01*
X3072293Y382153D01*
G37*
G36*
X3069834Y372977D02*
X3068410Y367665D01*
X3063098Y369089D01*
X3064522Y374401D01*
X3069834Y372977D01*
G37*
G36*
X3060657Y375435D02*
X3059233Y370123D01*
X3053921Y371547D01*
X3055345Y376859D01*
X3060657Y375435D01*
G37*
G36*
X3101522Y318012D02*
X3100098Y312700D01*
X3094786Y314124D01*
X3096210Y319436D01*
X3101522Y318012D01*
G37*
G36*
X3110698Y315553D02*
X3109274Y310241D01*
X3103962Y311665D01*
X3105386Y316977D01*
X3110698Y315553D01*
G37*
G36*
X3108240Y306377D02*
X3106816Y301065D01*
X3101504Y302489D01*
X3102928Y307801D01*
X3108240Y306377D01*
G37*
G36*
X3099063Y308835D02*
X3097639Y303523D01*
X3092327Y304947D01*
X3093751Y310259D01*
X3099063Y308835D01*
G37*
G36*
X3061545Y179352D02*
X3056783Y176602D01*
X3054033Y181364D01*
X3058795Y184114D01*
X3061545Y179352D01*
G37*
G36*
X3066295Y171125D02*
X3061533Y168375D01*
X3058783Y173137D01*
X3063545Y175887D01*
X3066295Y171125D01*
G37*
G36*
X3058068Y166375D02*
X3053306Y163625D01*
X3050556Y168387D01*
X3055318Y171137D01*
X3058068Y166375D01*
G37*
G36*
X3053318Y174602D02*
X3048556Y171852D01*
X3045806Y176614D01*
X3050568Y179364D01*
X3053318Y174602D01*
G37*
G36*
X3238023Y282605D02*
X3240773Y277843D01*
X3236011Y275093D01*
X3233261Y279855D01*
X3238023Y282605D01*
G37*
G36*
X3246250Y287355D02*
X3249000Y282593D01*
X3244238Y279843D01*
X3241488Y284605D01*
X3246250Y287355D01*
G37*
G36*
X3251000Y279128D02*
X3253750Y274366D01*
X3248988Y271616D01*
X3246238Y276378D01*
X3251000Y279128D01*
G37*
G36*
X3242773Y274378D02*
X3245523Y269616D01*
X3240761Y266866D01*
X3238011Y271628D01*
X3242773Y274378D01*
G37*
G36*
X3140040Y251512D02*
X3138616Y246200D01*
X3133304Y247624D01*
X3134728Y252936D01*
X3140040Y251512D01*
G37*
G36*
X3149216Y249053D02*
X3147792Y243741D01*
X3142480Y245165D01*
X3143904Y250477D01*
X3149216Y249053D01*
G37*
G36*
X3146757Y239877D02*
X3145333Y234565D01*
X3140021Y235989D01*
X3141445Y241301D01*
X3146757Y239877D01*
G37*
G36*
X3137581Y242335D02*
X3136157Y237023D01*
X3130845Y238447D01*
X3132269Y243759D01*
X3137581Y242335D01*
G37*
D11*
G36*
X3070056Y343488D02*
X3076118Y346988D01*
X3081118Y338328D01*
X3075056Y334828D01*
X3070056Y343488D01*
G37*
G36*
X3082181Y350488D02*
X3088243Y353988D01*
X3093243Y345328D01*
X3087181Y341828D01*
X3082181Y350488D01*
G37*
D10*
G36*
X3178196Y183955D02*
X3176772Y178643D01*
X3171460Y180067D01*
X3172884Y185379D01*
X3178196Y183955D01*
G37*
G36*
X3187373Y181497D02*
X3185949Y176185D01*
X3180637Y177609D01*
X3182061Y182921D01*
X3187373Y181497D01*
G37*
G36*
X3184914Y172320D02*
X3183490Y167008D01*
X3178178Y168432D01*
X3179602Y173744D01*
X3184914Y172320D01*
G37*
G36*
X3175738Y174779D02*
X3174314Y169467D01*
X3169002Y170891D01*
X3170426Y176203D01*
X3175738Y174779D01*
G37*
G36*
X2760260Y638361D02*
X2756371Y642250D01*
X2760260Y646139D01*
X2764149Y642250D01*
X2760260Y638361D01*
G37*
G36*
X2753542Y631644D02*
X2749653Y635533D01*
X2753542Y639422D01*
X2757431Y635533D01*
X2753542Y631644D01*
G37*
G36*
X2746825Y638361D02*
X2742936Y642250D01*
X2746825Y646139D01*
X2750714Y642250D01*
X2746825Y638361D01*
G37*
G36*
X2753542Y645079D02*
X2749653Y648968D01*
X2753542Y652857D01*
X2757431Y648968D01*
X2753542Y645079D01*
G37*
G36*
X2876298Y715433D02*
X2871536Y712683D01*
X2868786Y717445D01*
X2873548Y720195D01*
X2876298Y715433D01*
G37*
G36*
X2881048Y707206D02*
X2876286Y704456D01*
X2873536Y709218D01*
X2878298Y711968D01*
X2881048Y707206D01*
G37*
G36*
X2872821Y702456D02*
X2868059Y699706D01*
X2865309Y704468D01*
X2870071Y707218D01*
X2872821Y702456D01*
G37*
G36*
X2868071Y710683D02*
X2863309Y707933D01*
X2860559Y712695D01*
X2865321Y715445D01*
X2868071Y710683D01*
G37*
G36*
X2909269Y651112D02*
X2907845Y645800D01*
X2902533Y647224D01*
X2903957Y652536D01*
X2909269Y651112D01*
G37*
G36*
X2918445Y648653D02*
X2917021Y643341D01*
X2911709Y644765D01*
X2913133Y650077D01*
X2918445Y648653D01*
G37*
G36*
X2915986Y639477D02*
X2914562Y634165D01*
X2909250Y635589D01*
X2910674Y640901D01*
X2915986Y639477D01*
G37*
G36*
X2906810Y641935D02*
X2905386Y636623D01*
X2900074Y638047D01*
X2901498Y643359D01*
X2906810Y641935D01*
G37*
G36*
X2947775Y584512D02*
X2946351Y579200D01*
X2941039Y580624D01*
X2942463Y585936D01*
X2947775Y584512D01*
G37*
G36*
X2956951Y582053D02*
X2955527Y576741D01*
X2950215Y578165D01*
X2951639Y583477D01*
X2956951Y582053D01*
G37*
G36*
X2954492Y572877D02*
X2953068Y567565D01*
X2947756Y568989D01*
X2949180Y574301D01*
X2954492Y572877D01*
G37*
G36*
X2945316Y575335D02*
X2943892Y570023D01*
X2938580Y571447D01*
X2940004Y576759D01*
X2945316Y575335D01*
G37*
G36*
X2914896Y418486D02*
X2910134Y415736D01*
X2907384Y420498D01*
X2912146Y423248D01*
X2914896Y418486D01*
G37*
G36*
X2919646Y410259D02*
X2914884Y407509D01*
X2912134Y412271D01*
X2916896Y415021D01*
X2919646Y410259D01*
G37*
G36*
X2911419Y405509D02*
X2906657Y402759D01*
X2903907Y407521D01*
X2908669Y410271D01*
X2911419Y405509D01*
G37*
G36*
X2906669Y413736D02*
X2901907Y410986D01*
X2899157Y415748D01*
X2903919Y418498D01*
X2906669Y413736D01*
G37*
G36*
X2882930Y295539D02*
X2878168Y292789D01*
X2875418Y297551D01*
X2880180Y300301D01*
X2882930Y295539D01*
G37*
G36*
X2887680Y287312D02*
X2882918Y284562D01*
X2880168Y289324D01*
X2884930Y292074D01*
X2887680Y287312D01*
G37*
G36*
X2879453Y282562D02*
X2874691Y279812D01*
X2871941Y284574D01*
X2876703Y287324D01*
X2879453Y282562D01*
G37*
G36*
X2874703Y290789D02*
X2869941Y288039D01*
X2867191Y292801D01*
X2871953Y295551D01*
X2874703Y290789D01*
G37*
G36*
X3103281Y532205D02*
X3106031Y527443D01*
X3101269Y524693D01*
X3098519Y529455D01*
X3103281Y532205D01*
G37*
G36*
X3111509Y536955D02*
X3114259Y532193D01*
X3109497Y529443D01*
X3106747Y534205D01*
X3111509Y536955D01*
G37*
G36*
X3116259Y528728D02*
X3119009Y523966D01*
X3114247Y521216D01*
X3111497Y525978D01*
X3116259Y528728D01*
G37*
G36*
X3108031Y523978D02*
X3110781Y519216D01*
X3106019Y516466D01*
X3103269Y521228D01*
X3108031Y523978D01*
G37*
D11*
G36*
X2914976Y613903D02*
X2921038Y617403D01*
X2926038Y608743D01*
X2919976Y605243D01*
X2914976Y613903D01*
G37*
G36*
X2927100Y620903D02*
X2933162Y624403D01*
X2938162Y615743D01*
X2932100Y612243D01*
X2927100Y620903D01*
G37*
D10*
G36*
X3225568Y500065D02*
X3228318Y495303D01*
X3223556Y492553D01*
X3220806Y497315D01*
X3225568Y500065D01*
G37*
G36*
X3233795Y504815D02*
X3236545Y500053D01*
X3231783Y497303D01*
X3229033Y502065D01*
X3233795Y504815D01*
G37*
G36*
X3238545Y496588D02*
X3241295Y491826D01*
X3236533Y489076D01*
X3233783Y493838D01*
X3238545Y496588D01*
G37*
G36*
X3230318Y491838D02*
X3233068Y487076D01*
X3228306Y484326D01*
X3225556Y489088D01*
X3230318Y491838D01*
G37*
G36*
X1145053Y517825D02*
X1143629Y512513D01*
X1138317Y513937D01*
X1139741Y519249D01*
X1145053Y517825D01*
G37*
G36*
X1154230Y515366D02*
X1152806Y510054D01*
X1147494Y511478D01*
X1148918Y516790D01*
X1154230Y515366D01*
G37*
G36*
X1151771Y506190D02*
X1150347Y500878D01*
X1145035Y502302D01*
X1146459Y507614D01*
X1151771Y506190D01*
G37*
G36*
X1142595Y508649D02*
X1141171Y503337D01*
X1135859Y504761D01*
X1137283Y510073D01*
X1142595Y508649D01*
G37*
G36*
X1183459Y451225D02*
X1182035Y445913D01*
X1176723Y447337D01*
X1178147Y452649D01*
X1183459Y451225D01*
G37*
G36*
X1192636Y448766D02*
X1191212Y443454D01*
X1185900Y444878D01*
X1187324Y450190D01*
X1192636Y448766D01*
G37*
G36*
X1190177Y439590D02*
X1188753Y434278D01*
X1183441Y435702D01*
X1184865Y441014D01*
X1190177Y439590D01*
G37*
G36*
X1181001Y442049D02*
X1179577Y436737D01*
X1174265Y438161D01*
X1175689Y443473D01*
X1181001Y442049D01*
G37*
G36*
X1221965Y384525D02*
X1220541Y379213D01*
X1215229Y380637D01*
X1216653Y385949D01*
X1221965Y384525D01*
G37*
G36*
X1231142Y382066D02*
X1229718Y376754D01*
X1224406Y378178D01*
X1225830Y383490D01*
X1231142Y382066D01*
G37*
G36*
X1228683Y372890D02*
X1227259Y367578D01*
X1221947Y369002D01*
X1223371Y374314D01*
X1228683Y372890D01*
G37*
G36*
X1219506Y375349D02*
X1218082Y370037D01*
X1212770Y371461D01*
X1214194Y376773D01*
X1219506Y375349D01*
G37*
G36*
X1260371Y317925D02*
X1258947Y312613D01*
X1253635Y314037D01*
X1255059Y319349D01*
X1260371Y317925D01*
G37*
G36*
X1269547Y315466D02*
X1268123Y310154D01*
X1262811Y311578D01*
X1264235Y316890D01*
X1269547Y315466D01*
G37*
G36*
X1267089Y306290D02*
X1265665Y300978D01*
X1260353Y302402D01*
X1261777Y307714D01*
X1267089Y306290D01*
G37*
G36*
X1257912Y308749D02*
X1256488Y303437D01*
X1251176Y304861D01*
X1252600Y310173D01*
X1257912Y308749D01*
G37*
G36*
X1220394Y179265D02*
X1215632Y176515D01*
X1212882Y181277D01*
X1217644Y184027D01*
X1220394Y179265D01*
G37*
G36*
X1225144Y171038D02*
X1220382Y168288D01*
X1217632Y173050D01*
X1222394Y175800D01*
X1225144Y171038D01*
G37*
G36*
X1216917Y166288D02*
X1212155Y163538D01*
X1209405Y168300D01*
X1214167Y171050D01*
X1216917Y166288D01*
G37*
G36*
X1212167Y174515D02*
X1207405Y171765D01*
X1204655Y176527D01*
X1209417Y179277D01*
X1212167Y174515D01*
G37*
G36*
X1396872Y282518D02*
X1399622Y277756D01*
X1394860Y275006D01*
X1392110Y279768D01*
X1396872Y282518D01*
G37*
G36*
X1405099Y287268D02*
X1407849Y282506D01*
X1403087Y279756D01*
X1400337Y284518D01*
X1405099Y287268D01*
G37*
G36*
X1409849Y279041D02*
X1412599Y274279D01*
X1407837Y271529D01*
X1405087Y276291D01*
X1409849Y279041D01*
G37*
G36*
X1401622Y274291D02*
X1404372Y269529D01*
X1399610Y266779D01*
X1396860Y271541D01*
X1401622Y274291D01*
G37*
G36*
X1298889Y251425D02*
X1297465Y246113D01*
X1292153Y247537D01*
X1293577Y252849D01*
X1298889Y251425D01*
G37*
G36*
X1308065Y248966D02*
X1306641Y243654D01*
X1301329Y245078D01*
X1302753Y250390D01*
X1308065Y248966D01*
G37*
G36*
X1305606Y239790D02*
X1304182Y234478D01*
X1298870Y235902D01*
X1300294Y241214D01*
X1305606Y239790D01*
G37*
G36*
X1296430Y242249D02*
X1295006Y236937D01*
X1289694Y238361D01*
X1291118Y243673D01*
X1296430Y242249D01*
G37*
D11*
G36*
X1228905Y343402D02*
X1234967Y346902D01*
X1239967Y338242D01*
X1233905Y334742D01*
X1228905Y343402D01*
G37*
G36*
X1241030Y350402D02*
X1247092Y353902D01*
X1252092Y345242D01*
X1246030Y341742D01*
X1241030Y350402D01*
G37*
D10*
G36*
X1337045Y183869D02*
X1335621Y178557D01*
X1330309Y179981D01*
X1331733Y185293D01*
X1337045Y183869D01*
G37*
G36*
X1346222Y181410D02*
X1344798Y176098D01*
X1339486Y177522D01*
X1340910Y182834D01*
X1346222Y181410D01*
G37*
G36*
X1343763Y172234D02*
X1342339Y166922D01*
X1337027Y168346D01*
X1338451Y173658D01*
X1343763Y172234D01*
G37*
G36*
X1334587Y174692D02*
X1333163Y169380D01*
X1327851Y170804D01*
X1329275Y176116D01*
X1334587Y174692D01*
G37*
G36*
X919109Y638275D02*
X915220Y642164D01*
X919109Y646053D01*
X922998Y642164D01*
X919109Y638275D01*
G37*
G36*
X912391Y631557D02*
X908502Y635446D01*
X912391Y639335D01*
X916280Y635446D01*
X912391Y631557D01*
G37*
G36*
X905674Y638275D02*
X901785Y642164D01*
X905674Y646053D01*
X909563Y642164D01*
X905674Y638275D01*
G37*
G36*
X912391Y644992D02*
X908502Y648881D01*
X912391Y652770D01*
X916280Y648881D01*
X912391Y644992D01*
G37*
G36*
X1035147Y715346D02*
X1030385Y712596D01*
X1027635Y717358D01*
X1032397Y720108D01*
X1035147Y715346D01*
G37*
G36*
X1039897Y707119D02*
X1035135Y704369D01*
X1032385Y709131D01*
X1037147Y711881D01*
X1039897Y707119D01*
G37*
G36*
X1031670Y702369D02*
X1026908Y699619D01*
X1024158Y704381D01*
X1028920Y707131D01*
X1031670Y702369D01*
G37*
G36*
X1026920Y710596D02*
X1022158Y707846D01*
X1019408Y712608D01*
X1024170Y715358D01*
X1026920Y710596D01*
G37*
G36*
X1068118Y651025D02*
X1066694Y645713D01*
X1061382Y647137D01*
X1062806Y652449D01*
X1068118Y651025D01*
G37*
G36*
X1077294Y648566D02*
X1075870Y643254D01*
X1070558Y644678D01*
X1071982Y649990D01*
X1077294Y648566D01*
G37*
G36*
X1074835Y639390D02*
X1073411Y634078D01*
X1068099Y635502D01*
X1069523Y640814D01*
X1074835Y639390D01*
G37*
G36*
X1065659Y641849D02*
X1064235Y636537D01*
X1058923Y637961D01*
X1060347Y643273D01*
X1065659Y641849D01*
G37*
G36*
X1106624Y584425D02*
X1105200Y579113D01*
X1099888Y580537D01*
X1101312Y585849D01*
X1106624Y584425D01*
G37*
G36*
X1115800Y581966D02*
X1114376Y576654D01*
X1109064Y578078D01*
X1110488Y583390D01*
X1115800Y581966D01*
G37*
G36*
X1113341Y572790D02*
X1111917Y567478D01*
X1106605Y568902D01*
X1108029Y574214D01*
X1113341Y572790D01*
G37*
G36*
X1104165Y575249D02*
X1102741Y569937D01*
X1097429Y571361D01*
X1098853Y576673D01*
X1104165Y575249D01*
G37*
G36*
X1073745Y418399D02*
X1068983Y415649D01*
X1066233Y420411D01*
X1070995Y423161D01*
X1073745Y418399D01*
G37*
G36*
X1078495Y410172D02*
X1073733Y407422D01*
X1070983Y412184D01*
X1075745Y414934D01*
X1078495Y410172D01*
G37*
G36*
X1070268Y405422D02*
X1065506Y402672D01*
X1062756Y407434D01*
X1067518Y410184D01*
X1070268Y405422D01*
G37*
G36*
X1065518Y413649D02*
X1060756Y410899D01*
X1058006Y415661D01*
X1062768Y418411D01*
X1065518Y413649D01*
G37*
G36*
X1041779Y295453D02*
X1037017Y292703D01*
X1034267Y297465D01*
X1039029Y300215D01*
X1041779Y295453D01*
G37*
G36*
X1046529Y287225D02*
X1041767Y284475D01*
X1039017Y289237D01*
X1043779Y291987D01*
X1046529Y287225D01*
G37*
G36*
X1038302Y282475D02*
X1033540Y279725D01*
X1030790Y284487D01*
X1035552Y287237D01*
X1038302Y282475D01*
G37*
G36*
X1033552Y290703D02*
X1028790Y287953D01*
X1026040Y292715D01*
X1030802Y295465D01*
X1033552Y290703D01*
G37*
G36*
X1262130Y532119D02*
X1264880Y527357D01*
X1260118Y524607D01*
X1257368Y529369D01*
X1262130Y532119D01*
G37*
G36*
X1270358Y536869D02*
X1273108Y532107D01*
X1268346Y529357D01*
X1265596Y534119D01*
X1270358Y536869D01*
G37*
G36*
X1275108Y528641D02*
X1277858Y523879D01*
X1273096Y521129D01*
X1270346Y525891D01*
X1275108Y528641D01*
G37*
G36*
X1266880Y523891D02*
X1269630Y519129D01*
X1264868Y516379D01*
X1262118Y521141D01*
X1266880Y523891D01*
G37*
D11*
G36*
X1073825Y613816D02*
X1079887Y617316D01*
X1084887Y608656D01*
X1078825Y605156D01*
X1073825Y613816D01*
G37*
G36*
X1085949Y620816D02*
X1092011Y624316D01*
X1097011Y615656D01*
X1090949Y612156D01*
X1085949Y620816D01*
G37*
D10*
G36*
X1384417Y499979D02*
X1387167Y495217D01*
X1382405Y492467D01*
X1379655Y497229D01*
X1384417Y499979D01*
G37*
G36*
X1392644Y504729D02*
X1395394Y499967D01*
X1390632Y497217D01*
X1387882Y501979D01*
X1392644Y504729D01*
G37*
G36*
X1397394Y496502D02*
X1400144Y491740D01*
X1395382Y488990D01*
X1392632Y493752D01*
X1397394Y496502D01*
G37*
G36*
X1389167Y491752D02*
X1391917Y486990D01*
X1387155Y484240D01*
X1384405Y489002D01*
X1389167Y491752D01*
G37*
G36*
X686673Y513845D02*
X681361Y512421D01*
X679937Y517733D01*
X685249Y519157D01*
X686673Y513845D01*
G37*
G36*
X689132Y504668D02*
X683820Y503244D01*
X682396Y508556D01*
X687708Y509980D01*
X689132Y504668D01*
G37*
G36*
X679955Y502210D02*
X674643Y500786D01*
X673219Y506098D01*
X678531Y507522D01*
X679955Y502210D01*
G37*
G36*
X677497Y511386D02*
X672185Y509962D01*
X670761Y515274D01*
X676073Y516698D01*
X677497Y511386D01*
G37*
G36*
X648199Y447284D02*
X642887Y445860D01*
X641463Y451172D01*
X646775Y452596D01*
X648199Y447284D01*
G37*
G36*
X650657Y438108D02*
X645345Y436684D01*
X643921Y441996D01*
X649233Y443420D01*
X650657Y438108D01*
G37*
G36*
X641481Y435649D02*
X636169Y434225D01*
X634745Y439537D01*
X640057Y440961D01*
X641481Y435649D01*
G37*
G36*
X639022Y444825D02*
X633710Y443401D01*
X632286Y448713D01*
X637598Y450137D01*
X639022Y444825D01*
G37*
G36*
X609688Y380587D02*
X604376Y379163D01*
X602952Y384475D01*
X608264Y385899D01*
X609688Y380587D01*
G37*
G36*
X612146Y371411D02*
X606834Y369987D01*
X605410Y375299D01*
X610722Y376723D01*
X612146Y371411D01*
G37*
G36*
X602970Y368952D02*
X597658Y367528D01*
X596234Y372840D01*
X601546Y374264D01*
X602970Y368952D01*
G37*
G36*
X600511Y378128D02*
X595199Y376704D01*
X593775Y382016D01*
X599087Y383440D01*
X600511Y378128D01*
G37*
G36*
X571213Y314027D02*
X565901Y312603D01*
X564477Y317915D01*
X569789Y319339D01*
X571213Y314027D01*
G37*
G36*
X573672Y304850D02*
X568360Y303426D01*
X566936Y308738D01*
X572248Y310162D01*
X573672Y304850D01*
G37*
G36*
X564496Y302391D02*
X559184Y300967D01*
X557760Y306279D01*
X563072Y307703D01*
X564496Y302391D01*
G37*
G36*
X562037Y311568D02*
X556725Y310144D01*
X555301Y315456D01*
X560613Y316880D01*
X562037Y311568D01*
G37*
G36*
X431141Y279316D02*
X426379Y282066D01*
X429129Y286828D01*
X433891Y284078D01*
X431141Y279316D01*
G37*
G36*
X426391Y271089D02*
X421629Y273839D01*
X424379Y278601D01*
X429141Y275851D01*
X426391Y271089D01*
G37*
G36*
X418164Y275839D02*
X413402Y278589D01*
X416152Y283351D01*
X420914Y280601D01*
X418164Y275839D01*
G37*
G36*
X422914Y284066D02*
X418152Y286816D01*
X420902Y291578D01*
X425664Y288828D01*
X422914Y284066D01*
G37*
G36*
X608800Y178108D02*
X606050Y173346D01*
X601288Y176096D01*
X604038Y180858D01*
X608800Y178108D01*
G37*
G36*
X617028Y173358D02*
X614278Y168596D01*
X609516Y171346D01*
X612266Y176108D01*
X617028Y173358D01*
G37*
G36*
X612278Y165131D02*
X609528Y160369D01*
X604766Y163119D01*
X607516Y167881D01*
X612278Y165131D01*
G37*
G36*
X604050Y169881D02*
X601300Y165119D01*
X596538Y167869D01*
X599288Y172631D01*
X604050Y169881D01*
G37*
G36*
X532882Y247419D02*
X527570Y245995D01*
X526146Y251307D01*
X531458Y252731D01*
X532882Y247419D01*
G37*
G36*
X535340Y238243D02*
X530028Y236819D01*
X528604Y242131D01*
X533916Y243555D01*
X535340Y238243D01*
G37*
G36*
X526164Y235784D02*
X520852Y234360D01*
X519428Y239672D01*
X524740Y241096D01*
X526164Y235784D01*
G37*
G36*
X523705Y244960D02*
X518393Y243536D01*
X516969Y248848D01*
X522281Y250272D01*
X523705Y244960D01*
G37*
D11*
G36*
X577544Y354014D02*
X583606Y350514D01*
X578606Y341854D01*
X572544Y345354D01*
X577544Y354014D01*
G37*
G36*
X589668Y347014D02*
X595730Y343514D01*
X590730Y334854D01*
X584668Y338354D01*
X589668Y347014D01*
G37*
D10*
G36*
X493454Y180596D02*
X488142Y179172D01*
X486718Y184484D01*
X492030Y185908D01*
X493454Y180596D01*
G37*
G36*
X495913Y171420D02*
X490601Y169996D01*
X489177Y175308D01*
X494489Y176732D01*
X495913Y171420D01*
G37*
G36*
X486737Y168961D02*
X481425Y167537D01*
X480001Y172849D01*
X485313Y174273D01*
X486737Y168961D01*
G37*
G36*
X484278Y178138D02*
X478966Y176714D01*
X477542Y182026D01*
X482854Y183450D01*
X484278Y178138D01*
G37*
G36*
X678013Y769743D02*
X679437Y775055D01*
X684749Y773631D01*
X683325Y768319D01*
X678013Y769743D01*
G37*
G36*
X668836Y772201D02*
X670260Y777513D01*
X675572Y776089D01*
X674148Y770777D01*
X668836Y772201D01*
G37*
G36*
X671295Y781378D02*
X672719Y786690D01*
X678031Y785266D01*
X676607Y779954D01*
X671295Y781378D01*
G37*
G36*
X680471Y778919D02*
X681895Y784231D01*
X687207Y782807D01*
X685783Y777495D01*
X680471Y778919D01*
G37*
G36*
X802777Y707786D02*
X798015Y710536D01*
X800765Y715298D01*
X805527Y712548D01*
X802777Y707786D01*
G37*
G36*
X798027Y699558D02*
X793265Y702308D01*
X796015Y707070D01*
X800777Y704320D01*
X798027Y699558D01*
G37*
G36*
X789800Y704308D02*
X785038Y707058D01*
X787788Y711820D01*
X792550Y709070D01*
X789800Y704308D01*
G37*
G36*
X794550Y712536D02*
X789788Y715286D01*
X792538Y720048D01*
X797300Y717298D01*
X794550Y712536D01*
G37*
G36*
X763560Y647073D02*
X758248Y645649D01*
X756824Y650961D01*
X762136Y652385D01*
X763560Y647073D01*
G37*
G36*
X766019Y637896D02*
X760707Y636472D01*
X759283Y641784D01*
X764595Y643208D01*
X766019Y637896D01*
G37*
G36*
X756842Y635438D02*
X751530Y634014D01*
X750106Y639326D01*
X755418Y640750D01*
X756842Y635438D01*
G37*
G36*
X754384Y644614D02*
X749072Y643190D01*
X747648Y648502D01*
X752960Y649926D01*
X754384Y644614D01*
G37*
G36*
X725135Y580426D02*
X719823Y579002D01*
X718399Y584314D01*
X723711Y585738D01*
X725135Y580426D01*
G37*
G36*
X727594Y571249D02*
X722282Y569825D01*
X720858Y575137D01*
X726170Y576561D01*
X727594Y571249D01*
G37*
G36*
X718418Y568790D02*
X713106Y567366D01*
X711682Y572678D01*
X716994Y574102D01*
X718418Y568790D01*
G37*
G36*
X715959Y577967D02*
X710647Y576543D01*
X709223Y581855D01*
X714535Y583279D01*
X715959Y577967D01*
G37*
G36*
X564912Y525885D02*
X560150Y528635D01*
X562900Y533397D01*
X567662Y530647D01*
X564912Y525885D01*
G37*
G36*
X560162Y517658D02*
X555400Y520408D01*
X558150Y525170D01*
X562912Y522420D01*
X560162Y517658D01*
G37*
G36*
X551935Y522408D02*
X547173Y525158D01*
X549923Y529920D01*
X554685Y527170D01*
X551935Y522408D01*
G37*
G36*
X556685Y530635D02*
X551923Y533385D01*
X554673Y538147D01*
X559435Y535397D01*
X556685Y530635D01*
G37*
G36*
X442454Y492095D02*
X437692Y494845D01*
X440442Y499607D01*
X445204Y496857D01*
X442454Y492095D01*
G37*
G36*
X437704Y483868D02*
X432942Y486618D01*
X435692Y491380D01*
X440454Y488630D01*
X437704Y483868D01*
G37*
G36*
X429477Y488618D02*
X424715Y491368D01*
X427465Y496130D01*
X432227Y493380D01*
X429477Y488618D01*
G37*
G36*
X434227Y496845D02*
X429465Y499595D01*
X432215Y504357D01*
X436977Y501607D01*
X434227Y496845D01*
G37*
G36*
X757590Y419598D02*
X754840Y414836D01*
X750078Y417586D01*
X752828Y422348D01*
X757590Y419598D01*
G37*
G36*
X765817Y414848D02*
X763067Y410086D01*
X758305Y412836D01*
X761055Y417598D01*
X765817Y414848D01*
G37*
G36*
X761067Y406621D02*
X758317Y401859D01*
X753555Y404609D01*
X756305Y409371D01*
X761067Y406621D01*
G37*
G36*
X752840Y411371D02*
X750090Y406609D01*
X745328Y409359D01*
X748078Y414121D01*
X752840Y411371D01*
G37*
D11*
G36*
X734189Y623525D02*
X740251Y620025D01*
X735251Y611365D01*
X729189Y614865D01*
X734189Y623525D01*
G37*
G36*
X746313Y616525D02*
X752375Y613025D01*
X747375Y604365D01*
X741313Y607865D01*
X746313Y616525D01*
G37*
D10*
G36*
X790899Y297625D02*
X788149Y292863D01*
X783387Y295613D01*
X786137Y300375D01*
X790899Y297625D01*
G37*
G36*
X799126Y292875D02*
X796376Y288113D01*
X791614Y290863D01*
X794364Y295625D01*
X799126Y292875D01*
G37*
G36*
X794376Y284648D02*
X791626Y279886D01*
X786864Y282636D01*
X789614Y287398D01*
X794376Y284648D01*
G37*
G36*
X786149Y289398D02*
X783399Y284636D01*
X778637Y287386D01*
X781387Y292148D01*
X786149Y289398D01*
G37*
G36*
X454035Y908822D02*
X450146Y912711D01*
X454035Y916600D01*
X457924Y912711D01*
X454035Y908822D01*
G37*
G36*
X447317Y902105D02*
X443428Y905994D01*
X447317Y909883D01*
X451206Y905994D01*
X447317Y902105D01*
G37*
G36*
X440600Y908822D02*
X436711Y912711D01*
X440600Y916600D01*
X444489Y912711D01*
X440600Y908822D01*
G37*
G36*
X447317Y915540D02*
X443428Y919429D01*
X447317Y923318D01*
X451206Y919429D01*
X447317Y915540D01*
G37*
G36*
X377154Y908862D02*
X373265Y912751D01*
X377154Y916640D01*
X381043Y912751D01*
X377154Y908862D01*
G37*
G36*
X370437Y902144D02*
X366548Y906033D01*
X370437Y909922D01*
X374326Y906033D01*
X370437Y902144D01*
G37*
G36*
X363719Y908862D02*
X359830Y912751D01*
X363719Y916640D01*
X367608Y912751D01*
X363719Y908862D01*
G37*
G36*
X370437Y915579D02*
X366548Y919468D01*
X370437Y923357D01*
X374326Y919468D01*
X370437Y915579D01*
G37*
G36*
X300137Y908865D02*
X296248Y912754D01*
X300137Y916643D01*
X304026Y912754D01*
X300137Y908865D01*
G37*
G36*
X293420Y902147D02*
X289531Y906036D01*
X293420Y909925D01*
X297309Y906036D01*
X293420Y902147D01*
G37*
G36*
X286702Y908865D02*
X282813Y912754D01*
X286702Y916643D01*
X290591Y912754D01*
X286702Y908865D01*
G37*
G36*
X293420Y915582D02*
X289531Y919471D01*
X293420Y923360D01*
X297309Y919471D01*
X293420Y915582D01*
G37*
G36*
X223257Y908904D02*
X219368Y912793D01*
X223257Y916682D01*
X227146Y912793D01*
X223257Y908904D01*
G37*
G36*
X216540Y902187D02*
X212651Y906076D01*
X216540Y909965D01*
X220429Y906076D01*
X216540Y902187D01*
G37*
G36*
X209822Y908904D02*
X205933Y912793D01*
X209822Y916682D01*
X213711Y912793D01*
X209822Y908904D01*
G37*
G36*
X216540Y915622D02*
X212651Y919511D01*
X216540Y923400D01*
X220429Y919511D01*
X216540Y915622D01*
G37*
D12*
X125912Y1015605D03*
X116412Y1015605D03*
X116412Y1025105D03*
X125912Y1025105D03*
X121594Y811144D03*
X121594Y801644D03*
X112094Y801644D03*
X112094Y811144D03*
D10*
G36*
X146408Y908797D02*
X142519Y912686D01*
X146408Y916575D01*
X150297Y912686D01*
X146408Y908797D01*
G37*
G36*
X139690Y902080D02*
X135801Y905969D01*
X139690Y909858D01*
X143579Y905969D01*
X139690Y902080D01*
G37*
G36*
X132973Y908797D02*
X129084Y912686D01*
X132973Y916575D01*
X136862Y912686D01*
X132973Y908797D01*
G37*
G36*
X139690Y915515D02*
X135801Y919404D01*
X139690Y923293D01*
X143579Y919404D01*
X139690Y915515D01*
G37*
D13*
X256053Y919916D03*
X256053Y905916D03*
D10*
G36*
X68824Y909531D02*
X64935Y913420D01*
X68824Y917309D01*
X72713Y913420D01*
X68824Y909531D01*
G37*
G36*
X62106Y902813D02*
X58217Y906702D01*
X62106Y910591D01*
X65995Y906702D01*
X62106Y902813D01*
G37*
G36*
X55389Y909531D02*
X51500Y913420D01*
X55389Y917309D01*
X59278Y913420D01*
X55389Y909531D01*
G37*
G36*
X62106Y916248D02*
X58217Y920137D01*
X62106Y924026D01*
X65995Y920137D01*
X62106Y916248D01*
G37*
G36*
X671319Y1044271D02*
X676631Y1045695D01*
X678055Y1040383D01*
X672743Y1038959D01*
X671319Y1044271D01*
G37*
G36*
X668860Y1053447D02*
X674172Y1054871D01*
X675596Y1049559D01*
X670284Y1048135D01*
X668860Y1053447D01*
G37*
G36*
X678036Y1055906D02*
X683348Y1057330D01*
X684772Y1052018D01*
X679460Y1050594D01*
X678036Y1055906D01*
G37*
G36*
X680495Y1046730D02*
X685807Y1048154D01*
X687231Y1042842D01*
X681919Y1041418D01*
X680495Y1046730D01*
G37*
D12*
X682795Y907993D03*
X673295Y907993D03*
X673295Y917493D03*
X682795Y917493D03*
D10*
G36*
X607857Y908850D02*
X603968Y912739D01*
X607857Y916628D01*
X611746Y912739D01*
X607857Y908850D01*
G37*
G36*
X601139Y902133D02*
X597250Y906022D01*
X601139Y909911D01*
X605028Y906022D01*
X601139Y902133D01*
G37*
G36*
X594422Y908850D02*
X590533Y912739D01*
X594422Y916628D01*
X598311Y912739D01*
X594422Y908850D01*
G37*
G36*
X601139Y915568D02*
X597250Y919457D01*
X601139Y923346D01*
X605028Y919457D01*
X601139Y915568D01*
G37*
G36*
X530927Y908803D02*
X527038Y912692D01*
X530927Y916581D01*
X534816Y912692D01*
X530927Y908803D01*
G37*
G36*
X524209Y902086D02*
X520320Y905975D01*
X524209Y909864D01*
X528098Y905975D01*
X524209Y902086D01*
G37*
G36*
X517492Y908803D02*
X513603Y912692D01*
X517492Y916581D01*
X521381Y912692D01*
X517492Y908803D01*
G37*
G36*
X524209Y915521D02*
X520320Y919410D01*
X524209Y923299D01*
X528098Y919410D01*
X524209Y915521D01*
G37*
D12*
X406332Y1023040D03*
X396832Y1023040D03*
X396832Y1032540D03*
X406332Y1032540D03*
X315840Y1112197D03*
X306340Y1112197D03*
X306340Y1121697D03*
X315840Y1121697D03*
X405124Y803033D03*
X405124Y793533D03*
X395624Y793533D03*
X395624Y803033D03*
D13*
X567779Y919013D03*
X567779Y905013D03*
D12*
X316147Y713200D03*
X316147Y703700D03*
X306647Y703700D03*
X306647Y713200D03*
D10*
G36*
X679777Y1307783D02*
X681201Y1313095D01*
X686513Y1311671D01*
X685089Y1306359D01*
X679777Y1307783D01*
G37*
G36*
X670600Y1310242D02*
X672024Y1315554D01*
X677336Y1314130D01*
X675912Y1308818D01*
X670600Y1310242D01*
G37*
G36*
X673059Y1319418D02*
X674483Y1324730D01*
X679795Y1323306D01*
X678371Y1317994D01*
X673059Y1319418D01*
G37*
G36*
X682235Y1316959D02*
X683659Y1322271D01*
X688971Y1320847D01*
X687547Y1315535D01*
X682235Y1316959D01*
G37*
G36*
X641371Y1374383D02*
X642795Y1379695D01*
X648107Y1378271D01*
X646683Y1372959D01*
X641371Y1374383D01*
G37*
G36*
X632194Y1376842D02*
X633618Y1382154D01*
X638930Y1380730D01*
X637506Y1375418D01*
X632194Y1376842D01*
G37*
G36*
X634653Y1386018D02*
X636077Y1391330D01*
X641389Y1389906D01*
X639965Y1384594D01*
X634653Y1386018D01*
G37*
G36*
X643830Y1383559D02*
X645254Y1388871D01*
X650566Y1387447D01*
X649142Y1382135D01*
X643830Y1383559D01*
G37*
G36*
X602865Y1441083D02*
X604289Y1446395D01*
X609601Y1444971D01*
X608177Y1439659D01*
X602865Y1441083D01*
G37*
G36*
X593689Y1443542D02*
X595113Y1448854D01*
X600425Y1447430D01*
X599001Y1442118D01*
X593689Y1443542D01*
G37*
G36*
X596147Y1452718D02*
X597571Y1458030D01*
X602883Y1456606D01*
X601459Y1451294D01*
X596147Y1452718D01*
G37*
G36*
X605324Y1450259D02*
X606748Y1455571D01*
X612060Y1454147D01*
X610636Y1448835D01*
X605324Y1450259D01*
G37*
G36*
X564459Y1507683D02*
X565883Y1512995D01*
X571195Y1511571D01*
X569771Y1506259D01*
X564459Y1507683D01*
G37*
G36*
X555283Y1510142D02*
X556707Y1515454D01*
X562019Y1514030D01*
X560595Y1508718D01*
X555283Y1510142D01*
G37*
G36*
X557741Y1519318D02*
X559165Y1524630D01*
X564477Y1523206D01*
X563053Y1517894D01*
X557741Y1519318D01*
G37*
G36*
X566918Y1516859D02*
X568342Y1522171D01*
X573654Y1520747D01*
X572230Y1515435D01*
X566918Y1516859D01*
G37*
G36*
X604436Y1646342D02*
X609198Y1649092D01*
X611948Y1644330D01*
X607186Y1641580D01*
X604436Y1646342D01*
G37*
G36*
X599686Y1654570D02*
X604448Y1657320D01*
X607198Y1652558D01*
X602436Y1649808D01*
X599686Y1654570D01*
G37*
G36*
X607913Y1659320D02*
X612675Y1662070D01*
X615425Y1657308D01*
X610663Y1654558D01*
X607913Y1659320D01*
G37*
G36*
X612663Y1651092D02*
X617425Y1653842D01*
X620175Y1649080D01*
X615413Y1646330D01*
X612663Y1651092D01*
G37*
G36*
X427958Y1543089D02*
X425208Y1547851D01*
X429970Y1550601D01*
X432720Y1545839D01*
X427958Y1543089D01*
G37*
G36*
X419731Y1538339D02*
X416981Y1543101D01*
X421743Y1545851D01*
X424493Y1541089D01*
X419731Y1538339D01*
G37*
G36*
X414981Y1546567D02*
X412231Y1551329D01*
X416993Y1554079D01*
X419743Y1549317D01*
X414981Y1546567D01*
G37*
G36*
X423208Y1551317D02*
X420458Y1556079D01*
X425220Y1558829D01*
X427970Y1554067D01*
X423208Y1551317D01*
G37*
G36*
X525941Y1574183D02*
X527365Y1579495D01*
X532677Y1578071D01*
X531253Y1572759D01*
X525941Y1574183D01*
G37*
G36*
X516765Y1576642D02*
X518189Y1581954D01*
X523501Y1580530D01*
X522077Y1575218D01*
X516765Y1576642D01*
G37*
G36*
X519224Y1585818D02*
X520648Y1591130D01*
X525960Y1589706D01*
X524536Y1584394D01*
X519224Y1585818D01*
G37*
G36*
X528400Y1583359D02*
X529824Y1588671D01*
X535136Y1587247D01*
X533712Y1581935D01*
X528400Y1583359D01*
G37*
D11*
G36*
X595925Y1482206D02*
X589863Y1478706D01*
X584863Y1487366D01*
X590925Y1490866D01*
X595925Y1482206D01*
G37*
G36*
X583800Y1475206D02*
X577738Y1471706D01*
X572738Y1480366D01*
X578800Y1483866D01*
X583800Y1475206D01*
G37*
D10*
G36*
X487785Y1641739D02*
X489209Y1647051D01*
X494521Y1645627D01*
X493097Y1640315D01*
X487785Y1641739D01*
G37*
G36*
X478608Y1644198D02*
X480032Y1649510D01*
X485344Y1648086D01*
X483920Y1642774D01*
X478608Y1644198D01*
G37*
G36*
X481067Y1653374D02*
X482491Y1658686D01*
X487803Y1657262D01*
X486379Y1651950D01*
X481067Y1653374D01*
G37*
G36*
X490243Y1650916D02*
X491667Y1656228D01*
X496979Y1654804D01*
X495555Y1649492D01*
X490243Y1650916D01*
G37*
G36*
X905721Y1187333D02*
X909610Y1183444D01*
X905721Y1179555D01*
X901832Y1183444D01*
X905721Y1187333D01*
G37*
G36*
X912439Y1194051D02*
X916328Y1190162D01*
X912439Y1186273D01*
X908550Y1190162D01*
X912439Y1194051D01*
G37*
G36*
X919156Y1187333D02*
X923045Y1183444D01*
X919156Y1179555D01*
X915267Y1183444D01*
X919156Y1187333D01*
G37*
G36*
X912439Y1180616D02*
X916328Y1176727D01*
X912439Y1172838D01*
X908550Y1176727D01*
X912439Y1180616D01*
G37*
G36*
X789683Y1110262D02*
X794445Y1113012D01*
X797195Y1108250D01*
X792433Y1105500D01*
X789683Y1110262D01*
G37*
G36*
X784933Y1118489D02*
X789695Y1121239D01*
X792445Y1116477D01*
X787683Y1113727D01*
X784933Y1118489D01*
G37*
G36*
X793160Y1123239D02*
X797922Y1125989D01*
X800672Y1121227D01*
X795910Y1118477D01*
X793160Y1123239D01*
G37*
G36*
X797910Y1115012D02*
X802672Y1117762D01*
X805422Y1113000D01*
X800660Y1110250D01*
X797910Y1115012D01*
G37*
G36*
X756712Y1174583D02*
X758136Y1179895D01*
X763448Y1178471D01*
X762024Y1173159D01*
X756712Y1174583D01*
G37*
G36*
X747536Y1177042D02*
X748960Y1182354D01*
X754272Y1180930D01*
X752848Y1175618D01*
X747536Y1177042D01*
G37*
G36*
X749995Y1186218D02*
X751419Y1191530D01*
X756731Y1190106D01*
X755307Y1184794D01*
X749995Y1186218D01*
G37*
G36*
X759171Y1183759D02*
X760595Y1189071D01*
X765907Y1187647D01*
X764483Y1182335D01*
X759171Y1183759D01*
G37*
G36*
X718206Y1241183D02*
X719630Y1246495D01*
X724942Y1245071D01*
X723518Y1239759D01*
X718206Y1241183D01*
G37*
G36*
X709030Y1243642D02*
X710454Y1248954D01*
X715766Y1247530D01*
X714342Y1242218D01*
X709030Y1243642D01*
G37*
G36*
X711489Y1252818D02*
X712913Y1258130D01*
X718225Y1256706D01*
X716801Y1251394D01*
X711489Y1252818D01*
G37*
G36*
X720665Y1250359D02*
X722089Y1255671D01*
X727401Y1254247D01*
X725977Y1248935D01*
X720665Y1250359D01*
G37*
G36*
X751085Y1407209D02*
X755847Y1409959D01*
X758597Y1405197D01*
X753835Y1402447D01*
X751085Y1407209D01*
G37*
G36*
X746335Y1415436D02*
X751097Y1418186D01*
X753847Y1413424D01*
X749085Y1410674D01*
X746335Y1415436D01*
G37*
G36*
X754562Y1420186D02*
X759324Y1422936D01*
X762074Y1418174D01*
X757312Y1415424D01*
X754562Y1420186D01*
G37*
G36*
X759312Y1411959D02*
X764074Y1414709D01*
X766824Y1409947D01*
X762062Y1407197D01*
X759312Y1411959D01*
G37*
G36*
X783051Y1530155D02*
X787813Y1532905D01*
X790563Y1528143D01*
X785801Y1525393D01*
X783051Y1530155D01*
G37*
G36*
X778301Y1538383D02*
X783063Y1541133D01*
X785813Y1536371D01*
X781051Y1533621D01*
X778301Y1538383D01*
G37*
G36*
X786528Y1543133D02*
X791290Y1545883D01*
X794040Y1541121D01*
X789278Y1538371D01*
X786528Y1543133D01*
G37*
G36*
X791278Y1534905D02*
X796040Y1537655D01*
X798790Y1532893D01*
X794028Y1530143D01*
X791278Y1534905D01*
G37*
G36*
X562700Y1293489D02*
X559950Y1298251D01*
X564712Y1301001D01*
X567462Y1296239D01*
X562700Y1293489D01*
G37*
G36*
X554472Y1288739D02*
X551722Y1293501D01*
X556484Y1296251D01*
X559234Y1291489D01*
X554472Y1288739D01*
G37*
G36*
X549722Y1296967D02*
X546972Y1301729D01*
X551734Y1304479D01*
X554484Y1299717D01*
X549722Y1296967D01*
G37*
G36*
X557950Y1301717D02*
X555200Y1306479D01*
X559962Y1309229D01*
X562712Y1304467D01*
X557950Y1301717D01*
G37*
D11*
G36*
X751005Y1211792D02*
X744943Y1208292D01*
X739943Y1216952D01*
X746005Y1220452D01*
X751005Y1211792D01*
G37*
G36*
X738881Y1204792D02*
X732819Y1201292D01*
X727819Y1209952D01*
X733881Y1213452D01*
X738881Y1204792D01*
G37*
D10*
G36*
X440413Y1325629D02*
X437663Y1330391D01*
X442425Y1333141D01*
X445175Y1328379D01*
X440413Y1325629D01*
G37*
G36*
X432186Y1320879D02*
X429436Y1325641D01*
X434198Y1328391D01*
X436948Y1323629D01*
X432186Y1320879D01*
G37*
G36*
X427436Y1329106D02*
X424686Y1333868D01*
X429448Y1336618D01*
X432198Y1331856D01*
X427436Y1329106D01*
G37*
G36*
X435663Y1333856D02*
X432913Y1338618D01*
X437675Y1341368D01*
X440425Y1336606D01*
X435663Y1333856D01*
G37*
G36*
X1138157Y1311763D02*
X1143469Y1313187D01*
X1144893Y1307875D01*
X1139581Y1306451D01*
X1138157Y1311763D01*
G37*
G36*
X1135698Y1320940D02*
X1141010Y1322364D01*
X1142434Y1317052D01*
X1137122Y1315628D01*
X1135698Y1320940D01*
G37*
G36*
X1144875Y1323398D02*
X1150187Y1324822D01*
X1151611Y1319510D01*
X1146299Y1318086D01*
X1144875Y1323398D01*
G37*
G36*
X1147333Y1314222D02*
X1152645Y1315646D01*
X1154069Y1310334D01*
X1148757Y1308910D01*
X1147333Y1314222D01*
G37*
G36*
X1176631Y1378324D02*
X1181943Y1379748D01*
X1183367Y1374436D01*
X1178055Y1373012D01*
X1176631Y1378324D01*
G37*
G36*
X1174173Y1387500D02*
X1179485Y1388924D01*
X1180909Y1383612D01*
X1175597Y1382188D01*
X1174173Y1387500D01*
G37*
G36*
X1183349Y1389959D02*
X1188661Y1391383D01*
X1190085Y1386071D01*
X1184773Y1384647D01*
X1183349Y1389959D01*
G37*
G36*
X1185808Y1380783D02*
X1191120Y1382207D01*
X1192544Y1376895D01*
X1187232Y1375471D01*
X1185808Y1380783D01*
G37*
G36*
X1215142Y1445021D02*
X1220454Y1446445D01*
X1221878Y1441133D01*
X1216566Y1439709D01*
X1215142Y1445021D01*
G37*
G36*
X1212684Y1454197D02*
X1217996Y1455621D01*
X1219420Y1450309D01*
X1214108Y1448885D01*
X1212684Y1454197D01*
G37*
G36*
X1221860Y1456656D02*
X1227172Y1458080D01*
X1228596Y1452768D01*
X1223284Y1451344D01*
X1221860Y1456656D01*
G37*
G36*
X1224319Y1447480D02*
X1229631Y1448904D01*
X1231055Y1443592D01*
X1225743Y1442168D01*
X1224319Y1447480D01*
G37*
G36*
X1253617Y1511581D02*
X1258929Y1513005D01*
X1260353Y1507693D01*
X1255041Y1506269D01*
X1253617Y1511581D01*
G37*
G36*
X1251158Y1520758D02*
X1256470Y1522182D01*
X1257894Y1516870D01*
X1252582Y1515446D01*
X1251158Y1520758D01*
G37*
G36*
X1260334Y1523217D02*
X1265646Y1524641D01*
X1267070Y1519329D01*
X1261758Y1517905D01*
X1260334Y1523217D01*
G37*
G36*
X1262793Y1514040D02*
X1268105Y1515464D01*
X1269529Y1510152D01*
X1264217Y1508728D01*
X1262793Y1514040D01*
G37*
G36*
X1393689Y1546291D02*
X1398451Y1543541D01*
X1395701Y1538779D01*
X1390939Y1541529D01*
X1393689Y1546291D01*
G37*
G36*
X1398439Y1554519D02*
X1403201Y1551769D01*
X1400451Y1547007D01*
X1395689Y1549757D01*
X1398439Y1554519D01*
G37*
G36*
X1406666Y1549769D02*
X1411428Y1547019D01*
X1408678Y1542257D01*
X1403916Y1545007D01*
X1406666Y1549769D01*
G37*
G36*
X1401916Y1541541D02*
X1406678Y1538791D01*
X1403928Y1534029D01*
X1399166Y1536779D01*
X1401916Y1541541D01*
G37*
G36*
X1216030Y1647499D02*
X1218780Y1652261D01*
X1223542Y1649511D01*
X1220792Y1644749D01*
X1216030Y1647499D01*
G37*
G36*
X1207802Y1652249D02*
X1210552Y1657011D01*
X1215314Y1654261D01*
X1212564Y1649499D01*
X1207802Y1652249D01*
G37*
G36*
X1212552Y1660477D02*
X1215302Y1665239D01*
X1220064Y1662489D01*
X1217314Y1657727D01*
X1212552Y1660477D01*
G37*
G36*
X1220780Y1655727D02*
X1223530Y1660489D01*
X1228292Y1657739D01*
X1225542Y1652977D01*
X1220780Y1655727D01*
G37*
G36*
X1291949Y1578189D02*
X1297261Y1579613D01*
X1298685Y1574301D01*
X1293373Y1572877D01*
X1291949Y1578189D01*
G37*
G36*
X1289490Y1587365D02*
X1294802Y1588789D01*
X1296226Y1583477D01*
X1290914Y1582053D01*
X1289490Y1587365D01*
G37*
G36*
X1298666Y1589824D02*
X1303978Y1591248D01*
X1305402Y1585936D01*
X1300090Y1584512D01*
X1298666Y1589824D01*
G37*
G36*
X1301125Y1580648D02*
X1306437Y1582072D01*
X1307861Y1576760D01*
X1302549Y1575336D01*
X1301125Y1580648D01*
G37*
D11*
G36*
X1247286Y1471594D02*
X1241224Y1475094D01*
X1246224Y1483754D01*
X1252286Y1480254D01*
X1247286Y1471594D01*
G37*
G36*
X1235162Y1478594D02*
X1229100Y1482094D01*
X1234100Y1490754D01*
X1240162Y1487254D01*
X1235162Y1478594D01*
G37*
D10*
G36*
X1331376Y1645012D02*
X1336688Y1646436D01*
X1338112Y1641124D01*
X1332800Y1639700D01*
X1331376Y1645012D01*
G37*
G36*
X1328917Y1654188D02*
X1334229Y1655612D01*
X1335653Y1650300D01*
X1330341Y1648876D01*
X1328917Y1654188D01*
G37*
G36*
X1338093Y1656647D02*
X1343405Y1658071D01*
X1344829Y1652759D01*
X1339517Y1651335D01*
X1338093Y1656647D01*
G37*
G36*
X1340552Y1647470D02*
X1345864Y1648894D01*
X1347288Y1643582D01*
X1341976Y1642158D01*
X1340552Y1647470D01*
G37*
G36*
X1146817Y1055865D02*
X1145393Y1050553D01*
X1140081Y1051977D01*
X1141505Y1057289D01*
X1146817Y1055865D01*
G37*
G36*
X1155994Y1053407D02*
X1154570Y1048095D01*
X1149258Y1049519D01*
X1150682Y1054831D01*
X1155994Y1053407D01*
G37*
G36*
X1153535Y1044230D02*
X1152111Y1038918D01*
X1146799Y1040342D01*
X1148223Y1045654D01*
X1153535Y1044230D01*
G37*
G36*
X1144359Y1046689D02*
X1142935Y1041377D01*
X1137623Y1042801D01*
X1139047Y1048113D01*
X1144359Y1046689D01*
G37*
G36*
X1022053Y1117822D02*
X1026815Y1115072D01*
X1024065Y1110310D01*
X1019303Y1113060D01*
X1022053Y1117822D01*
G37*
G36*
X1026803Y1126050D02*
X1031565Y1123300D01*
X1028815Y1118538D01*
X1024053Y1121288D01*
X1026803Y1126050D01*
G37*
G36*
X1035030Y1121300D02*
X1039792Y1118550D01*
X1037042Y1113788D01*
X1032280Y1116538D01*
X1035030Y1121300D01*
G37*
G36*
X1030280Y1113072D02*
X1035042Y1110322D01*
X1032292Y1105560D01*
X1027530Y1108310D01*
X1030280Y1113072D01*
G37*
G36*
X1061270Y1178535D02*
X1066582Y1179959D01*
X1068006Y1174647D01*
X1062694Y1173223D01*
X1061270Y1178535D01*
G37*
G36*
X1058811Y1187712D02*
X1064123Y1189136D01*
X1065547Y1183824D01*
X1060235Y1182400D01*
X1058811Y1187712D01*
G37*
G36*
X1067988Y1190170D02*
X1073300Y1191594D01*
X1074724Y1186282D01*
X1069412Y1184858D01*
X1067988Y1190170D01*
G37*
G36*
X1070447Y1180994D02*
X1075759Y1182418D01*
X1077183Y1177106D01*
X1071871Y1175682D01*
X1070447Y1180994D01*
G37*
G36*
X1099695Y1245182D02*
X1105007Y1246606D01*
X1106431Y1241294D01*
X1101119Y1239870D01*
X1099695Y1245182D01*
G37*
G36*
X1097236Y1254359D02*
X1102548Y1255783D01*
X1103972Y1250471D01*
X1098660Y1249047D01*
X1097236Y1254359D01*
G37*
G36*
X1106412Y1256817D02*
X1111724Y1258241D01*
X1113148Y1252929D01*
X1107836Y1251505D01*
X1106412Y1256817D01*
G37*
G36*
X1108871Y1247641D02*
X1114183Y1249065D01*
X1115607Y1243753D01*
X1110295Y1242329D01*
X1108871Y1247641D01*
G37*
G36*
X1259918Y1299723D02*
X1264680Y1296973D01*
X1261930Y1292211D01*
X1257168Y1294961D01*
X1259918Y1299723D01*
G37*
G36*
X1264668Y1307950D02*
X1269430Y1305200D01*
X1266680Y1300438D01*
X1261918Y1303188D01*
X1264668Y1307950D01*
G37*
G36*
X1272895Y1303200D02*
X1277657Y1300450D01*
X1274907Y1295688D01*
X1270145Y1298438D01*
X1272895Y1303200D01*
G37*
G36*
X1268145Y1294973D02*
X1272907Y1292223D01*
X1270157Y1287461D01*
X1265395Y1290211D01*
X1268145Y1294973D01*
G37*
G36*
X1382376Y1333513D02*
X1387138Y1330763D01*
X1384388Y1326001D01*
X1379626Y1328751D01*
X1382376Y1333513D01*
G37*
G36*
X1387126Y1341740D02*
X1391888Y1338990D01*
X1389138Y1334228D01*
X1384376Y1336978D01*
X1387126Y1341740D01*
G37*
G36*
X1395353Y1336990D02*
X1400115Y1334240D01*
X1397365Y1329478D01*
X1392603Y1332228D01*
X1395353Y1336990D01*
G37*
G36*
X1390603Y1328763D02*
X1395365Y1326013D01*
X1392615Y1321251D01*
X1387853Y1324001D01*
X1390603Y1328763D01*
G37*
G36*
X1067240Y1406010D02*
X1069990Y1410772D01*
X1074752Y1408022D01*
X1072002Y1403260D01*
X1067240Y1406010D01*
G37*
G36*
X1059013Y1410760D02*
X1061763Y1415522D01*
X1066525Y1412772D01*
X1063775Y1408010D01*
X1059013Y1410760D01*
G37*
G36*
X1063763Y1418987D02*
X1066513Y1423749D01*
X1071275Y1420999D01*
X1068525Y1416237D01*
X1063763Y1418987D01*
G37*
G36*
X1071990Y1414237D02*
X1074740Y1418999D01*
X1079502Y1416249D01*
X1076752Y1411487D01*
X1071990Y1414237D01*
G37*
D11*
G36*
X1090641Y1202083D02*
X1084579Y1205583D01*
X1089579Y1214243D01*
X1095641Y1210743D01*
X1090641Y1202083D01*
G37*
G36*
X1078517Y1209083D02*
X1072455Y1212583D01*
X1077455Y1221243D01*
X1083517Y1217743D01*
X1078517Y1209083D01*
G37*
D10*
G36*
X1033931Y1527983D02*
X1036681Y1532745D01*
X1041443Y1529995D01*
X1038693Y1525233D01*
X1033931Y1527983D01*
G37*
G36*
X1025704Y1532733D02*
X1028454Y1537495D01*
X1033216Y1534745D01*
X1030466Y1529983D01*
X1025704Y1532733D01*
G37*
G36*
X1030454Y1540960D02*
X1033204Y1545722D01*
X1037966Y1542972D01*
X1035216Y1538210D01*
X1030454Y1540960D01*
G37*
G36*
X1038681Y1536210D02*
X1041431Y1540972D01*
X1046193Y1538222D01*
X1043443Y1533460D01*
X1038681Y1536210D01*
G37*
G36*
X1370795Y916786D02*
X1374684Y912897D01*
X1370795Y909008D01*
X1366906Y912897D01*
X1370795Y916786D01*
G37*
G36*
X1377513Y923503D02*
X1381402Y919614D01*
X1377513Y915725D01*
X1373624Y919614D01*
X1377513Y923503D01*
G37*
G36*
X1384230Y916786D02*
X1388119Y912897D01*
X1384230Y909008D01*
X1380341Y912897D01*
X1384230Y916786D01*
G37*
G36*
X1377513Y910068D02*
X1381402Y906179D01*
X1377513Y902290D01*
X1373624Y906179D01*
X1377513Y910068D01*
G37*
G36*
X1447676Y916746D02*
X1451565Y912857D01*
X1447676Y908968D01*
X1443787Y912857D01*
X1447676Y916746D01*
G37*
G36*
X1454393Y923464D02*
X1458282Y919575D01*
X1454393Y915686D01*
X1450504Y919575D01*
X1454393Y923464D01*
G37*
G36*
X1461111Y916746D02*
X1465000Y912857D01*
X1461111Y908968D01*
X1457222Y912857D01*
X1461111Y916746D01*
G37*
G36*
X1454393Y910029D02*
X1458282Y906140D01*
X1454393Y902251D01*
X1450504Y906140D01*
X1454393Y910029D01*
G37*
G36*
X1524693Y916743D02*
X1528582Y912854D01*
X1524693Y908965D01*
X1520804Y912854D01*
X1524693Y916743D01*
G37*
G36*
X1531410Y923461D02*
X1535299Y919572D01*
X1531410Y915683D01*
X1527521Y919572D01*
X1531410Y923461D01*
G37*
G36*
X1538128Y916743D02*
X1542017Y912854D01*
X1538128Y908965D01*
X1534239Y912854D01*
X1538128Y916743D01*
G37*
G36*
X1531410Y910026D02*
X1535299Y906137D01*
X1531410Y902248D01*
X1527521Y906137D01*
X1531410Y910026D01*
G37*
G36*
X1601573Y916704D02*
X1605462Y912815D01*
X1601573Y908926D01*
X1597684Y912815D01*
X1601573Y916704D01*
G37*
G36*
X1608290Y923421D02*
X1612179Y919532D01*
X1608290Y915643D01*
X1604401Y919532D01*
X1608290Y923421D01*
G37*
G36*
X1615008Y916704D02*
X1618897Y912815D01*
X1615008Y908926D01*
X1611119Y912815D01*
X1615008Y916704D01*
G37*
G36*
X1608290Y909986D02*
X1612179Y906097D01*
X1608290Y902208D01*
X1604401Y906097D01*
X1608290Y909986D01*
G37*
D12*
X1698918Y810003D03*
X1708418Y810003D03*
X1708418Y800503D03*
X1698918Y800503D03*
X1703236Y1014464D03*
X1703236Y1023964D03*
X1712736Y1023964D03*
X1712736Y1014464D03*
D10*
G36*
X1678422Y916811D02*
X1682311Y912922D01*
X1678422Y909033D01*
X1674533Y912922D01*
X1678422Y916811D01*
G37*
G36*
X1685140Y923528D02*
X1689029Y919639D01*
X1685140Y915750D01*
X1681251Y919639D01*
X1685140Y923528D01*
G37*
G36*
X1691857Y916811D02*
X1695746Y912922D01*
X1691857Y909033D01*
X1687968Y912922D01*
X1691857Y916811D01*
G37*
G36*
X1685140Y910093D02*
X1689029Y906204D01*
X1685140Y902315D01*
X1681251Y906204D01*
X1685140Y910093D01*
G37*
D13*
X1568777Y905692D03*
X1568777Y919692D03*
D10*
G36*
X1756006Y916077D02*
X1759895Y912188D01*
X1756006Y908299D01*
X1752117Y912188D01*
X1756006Y916077D01*
G37*
G36*
X1762724Y922795D02*
X1766613Y918906D01*
X1762724Y915017D01*
X1758835Y918906D01*
X1762724Y922795D01*
G37*
G36*
X1769441Y916077D02*
X1773330Y912188D01*
X1769441Y908299D01*
X1765552Y912188D01*
X1769441Y916077D01*
G37*
G36*
X1762724Y909360D02*
X1766613Y905471D01*
X1762724Y901582D01*
X1758835Y905471D01*
X1762724Y909360D01*
G37*
G36*
X1153511Y781337D02*
X1148199Y779913D01*
X1146775Y785225D01*
X1152087Y786649D01*
X1153511Y781337D01*
G37*
G36*
X1155970Y772161D02*
X1150658Y770737D01*
X1149234Y776049D01*
X1154546Y777473D01*
X1155970Y772161D01*
G37*
G36*
X1146794Y769702D02*
X1141482Y768278D01*
X1140058Y773590D01*
X1145370Y775014D01*
X1146794Y769702D01*
G37*
G36*
X1144335Y778878D02*
X1139023Y777454D01*
X1137599Y782766D01*
X1142911Y784190D01*
X1144335Y778878D01*
G37*
D12*
X1142035Y917615D03*
X1151535Y917615D03*
X1151535Y908115D03*
X1142035Y908115D03*
D10*
G36*
X1216973Y916757D02*
X1220862Y912868D01*
X1216973Y908979D01*
X1213084Y912868D01*
X1216973Y916757D01*
G37*
G36*
X1223691Y923475D02*
X1227580Y919586D01*
X1223691Y915697D01*
X1219802Y919586D01*
X1223691Y923475D01*
G37*
G36*
X1230408Y916757D02*
X1234297Y912868D01*
X1230408Y908979D01*
X1226519Y912868D01*
X1230408Y916757D01*
G37*
G36*
X1223691Y910040D02*
X1227580Y906151D01*
X1223691Y902262D01*
X1219802Y906151D01*
X1223691Y910040D01*
G37*
G36*
X1293903Y916805D02*
X1297792Y912916D01*
X1293903Y909027D01*
X1290014Y912916D01*
X1293903Y916805D01*
G37*
G36*
X1300621Y923522D02*
X1304510Y919633D01*
X1300621Y915744D01*
X1296732Y919633D01*
X1300621Y923522D01*
G37*
G36*
X1307338Y916805D02*
X1311227Y912916D01*
X1307338Y909027D01*
X1303449Y912916D01*
X1307338Y916805D01*
G37*
G36*
X1300621Y910087D02*
X1304510Y906198D01*
X1300621Y902309D01*
X1296732Y906198D01*
X1300621Y910087D01*
G37*
D12*
X1418498Y802568D03*
X1427998Y802568D03*
X1427998Y793068D03*
X1418498Y793068D03*
X1508990Y713411D03*
X1518490Y713411D03*
X1518490Y703911D03*
X1508990Y703911D03*
X1419706Y1022574D03*
X1419706Y1032074D03*
X1429206Y1032074D03*
X1429206Y1022574D03*
D13*
X1257051Y906595D03*
X1257051Y920595D03*
D12*
X1508683Y1112408D03*
X1508683Y1121908D03*
X1518183Y1121908D03*
X1518183Y1112408D03*
M02*
