M48
;GenerationSoftware,Autodesk,EAGLE,9.6.2*%
;CreationDate,2023-02-14T01:39:14Z*%
FMAT,2
ICI,OFF
METRIC,TZ,000.000
T2C0.300
T1C4.000
%
G90
M71
T1
X166500Y31000
X166500Y67000
X166500Y130000
X166500Y112000
X166500Y76000
X166500Y85000
X166500Y103000
X166500Y94000
X166500Y121000
X166500Y166000
X166500Y148000
X166500Y139000
X166500Y157000
X166500Y175000
X166500Y40000
X166500Y58000
X166500Y49000
X166500Y13000
X166500Y22000
T2
X230900Y14500
X224200Y15000
X257500Y15000
X222300Y15000
X239900Y15000
X215400Y15000
X213300Y14500
X206600Y15000
X197800Y15000
X195700Y14500
X189000Y15000
X180200Y15000
X178100Y14500
X171400Y15000
X204700Y15000
X169500Y15000
X187100Y15000
X162600Y15000
X160500Y14500
X153800Y15000
X145000Y15000
X142900Y14500
X136200Y15000
X127400Y15000
X125300Y14500
X118600Y15000
X151900Y15000
X116700Y15000
X134300Y15000
X109800Y15000
X107700Y14500
X101000Y15000
X92200Y15000
X90100Y14500
X83400Y15000
X74600Y15000
X72500Y14500
X65800Y15000
X99100Y15000
X63900Y15000
X81500Y15000
X57000Y15000
X54900Y14500
X48200Y15000
X39400Y15000
X37300Y14500
X30600Y15000
X21800Y15000
X19700Y14500
X13020Y14490
X46300Y15000
X28700Y15000
X14464Y12444
X168000Y15900
X165400Y15900
X321000Y24000
X318900Y23500
X312200Y24000
X303400Y24000
X301300Y23500
X294600Y24000
X285800Y24000
X283700Y23500
X277000Y24000
X310300Y24000
X275100Y24000
X292700Y24000
X268200Y24000
X266100Y23500
X259400Y24000
X250600Y24000
X248500Y23500
X241800Y24000
X233000Y24000
X230900Y23500
X224200Y24000
X257500Y24000
X222300Y24000
X239900Y24000
X215400Y24000
X213300Y23500
X206600Y24000
X197800Y24000
X195700Y23500
X189000Y24000
X180200Y24000
X178100Y23500
X171400Y24000
X204700Y24000
X169500Y24000
X187100Y24000
X162600Y24000
X160500Y23500
X153800Y24000
X145000Y24000
X142900Y23500
X136200Y24000
X127400Y24000
X125300Y23500
X118600Y24000
X151900Y24000
X116700Y24000
X134300Y24000
X109800Y24000
X107700Y23500
X101000Y24000
X92200Y24000
X90100Y23500
X83400Y24000
X74600Y24000
X72500Y23500
X65800Y24000
X99100Y24000
X63900Y24000
X81500Y24000
X57000Y24000
X54900Y23500
X48200Y24000
X39400Y24000
X37300Y23500
X30600Y24000
X21800Y24000
X19700Y23500
X13020Y23490
X46300Y24000
X28700Y24000
X14464Y21444
X168000Y24900
X165400Y24900
X321000Y33000
X318900Y32500
X312200Y33000
X303400Y33000
X301300Y32500
X294600Y33000
X285800Y33000
X283700Y32500
X277000Y33000
X310300Y33000
X275100Y33000
X292700Y33000
X268200Y33000
X266100Y32500
X259400Y33000
X250600Y33000
X248500Y32500
X241800Y33000
X233000Y33000
X230900Y32500
X224200Y33000
X257500Y33000
X222300Y33000
X239900Y33000
X215400Y33000
X213300Y32500
X206600Y33000
X197800Y33000
X195700Y32500
X189000Y33000
X180200Y33000
X178100Y32500
X171400Y33000
X204700Y33000
X169500Y33000
X187100Y33000
X162600Y33000
X160500Y32500
X153800Y33000
X145000Y33000
X142900Y32500
X136200Y33000
X127400Y33000
X125300Y32500
X118600Y33000
X151900Y33000
X116700Y33000
X134300Y33000
X109800Y33000
X107700Y32500
X101000Y33000
X92200Y33000
X90100Y32500
X83400Y33000
X74600Y33000
X72500Y32500
X65800Y33000
X99100Y33000
X63900Y33000
X81500Y33000
X57000Y33000
X54900Y32500
X48200Y33000
X39400Y33000
X37300Y32500
X30600Y33000
X21800Y33000
X19700Y32500
X13020Y32490
X46300Y33000
X28700Y33000
X14464Y30444
X168000Y33900
X165400Y33900
X321000Y42000
X318900Y41500
X312200Y42000
X303400Y42000
X301300Y41500
X294600Y42000
X285800Y42000
X283700Y41500
X277000Y42000
X310300Y42000
X275100Y42000
X292700Y42000
X268200Y42000
X266100Y41500
X259400Y42000
X250600Y42000
X248500Y41500
X241800Y42000
X233000Y42000
X230900Y41500
X224200Y42000
X257500Y42000
X222300Y42000
X239900Y42000
X215400Y42000
X213300Y41500
X206600Y42000
X197800Y42000
X195700Y41500
X189000Y42000
X180200Y42000
X178100Y41500
X171400Y42000
X204700Y42000
X169500Y42000
X187100Y42000
X162600Y42000
X160500Y41500
X153800Y42000
X145000Y42000
X142900Y41500
X136200Y42000
X127400Y42000
X125300Y41500
X118600Y42000
X151900Y42000
X116700Y42000
X134300Y42000
X109800Y42000
X107700Y41500
X101000Y42000
X92200Y42000
X90100Y41500
X83400Y42000
X74600Y42000
X72500Y41500
X65800Y42000
X99100Y42000
X63900Y42000
X81500Y42000
X57000Y42000
X54900Y41500
X48200Y42000
X39400Y42000
X37300Y41500
X30600Y42000
X21800Y42000
X19700Y41500
X13020Y41490
X46300Y42000
X28700Y42000
X14464Y39444
X168000Y42900
X165400Y42900
X321000Y51000
X318900Y50500
X312200Y51000
X303400Y51000
X301300Y50500
X294600Y51000
X285800Y51000
X283700Y50500
X277000Y51000
X310300Y51000
X275100Y51000
X292700Y51000
X268200Y51000
X266100Y50500
X259400Y51000
X250600Y51000
X248500Y50500
X241800Y51000
X233000Y51000
X230900Y50500
X224200Y51000
X257500Y51000
X222300Y51000
X239900Y51000
X215400Y51000
X213300Y50500
X206600Y51000
X197800Y51000
X195700Y50500
X189000Y51000
X180200Y51000
X178100Y50500
X171400Y51000
X204700Y51000
X169500Y51000
X187100Y51000
X162600Y51000
X160500Y50500
X153800Y51000
X145000Y51000
X142900Y50500
X136200Y51000
X127400Y51000
X125300Y50500
X118600Y51000
X151900Y51000
X116700Y51000
X134300Y51000
X109800Y51000
X107700Y50500
X101000Y51000
X92200Y51000
X90100Y50500
X83400Y51000
X74600Y51000
X72500Y50500
X65800Y51000
X99100Y51000
X63900Y51000
X81500Y51000
X57000Y51000
X54900Y50500
X48200Y51000
X39400Y51000
X37300Y50500
X30600Y51000
X21800Y51000
X19700Y50500
X13020Y50490
X46300Y51000
X28700Y51000
X14464Y48444
X168000Y51900
X165400Y51900
X321000Y60000
X318900Y59500
X312200Y60000
X303400Y60000
X301300Y59500
X294600Y60000
X285800Y60000
X283700Y59500
X277000Y60000
X310300Y60000
X275100Y60000
X292700Y60000
X268200Y60000
X266100Y59500
X259400Y60000
X250600Y60000
X248500Y59500
X241800Y60000
X233000Y60000
X230900Y59500
X224200Y60000
X257500Y60000
X222300Y60000
X239900Y60000
X215400Y60000
X213300Y59500
X206600Y60000
X197800Y60000
X195700Y59500
X189000Y60000
X180200Y60000
X178100Y59500
X171400Y60000
X204700Y60000
X169500Y60000
X187100Y60000
X162600Y60000
X160500Y59500
X153800Y60000
X145000Y60000
X142900Y59500
X136200Y60000
X127400Y60000
X125300Y59500
X118600Y60000
X151900Y60000
X116700Y60000
X134300Y60000
X109800Y60000
X107700Y59500
X101000Y60000
X92200Y60000
X90100Y59500
X83400Y60000
X74600Y60000
X72500Y59500
X65800Y60000
X99100Y60000
X63900Y60000
X81500Y60000
X57000Y60000
X54900Y59500
X48200Y60000
X39400Y60000
X37300Y59500
X30600Y60000
X21800Y60000
X19700Y59500
X13020Y59490
X46300Y60000
X28700Y60000
X14464Y57444
X168000Y60900
X165400Y60900
X321000Y69000
X318900Y68500
X312200Y69000
X303400Y69000
X301300Y68500
X294600Y69000
X285800Y69000
X283700Y68500
X277000Y69000
X310300Y69000
X275100Y69000
X292700Y69000
X268200Y69000
X266100Y68500
X259400Y69000
X250600Y69000
X248500Y68500
X241800Y69000
X233000Y69000
X230900Y68500
X224200Y69000
X257500Y69000
X222300Y69000
X239900Y69000
X215400Y69000
X213300Y68500
X206600Y69000
X197800Y69000
X195700Y68500
X189000Y69000
X180200Y69000
X178100Y68500
X171400Y69000
X204700Y69000
X169500Y69000
X187100Y69000
X162600Y69000
X160500Y68500
X153800Y69000
X145000Y69000
X142900Y68500
X136200Y69000
X127400Y69000
X125300Y68500
X118600Y69000
X151900Y69000
X116700Y69000
X134300Y69000
X109800Y69000
X107700Y68500
X101000Y69000
X92200Y69000
X90100Y68500
X83400Y69000
X74600Y69000
X72500Y68500
X65800Y69000
X99100Y69000
X63900Y69000
X81500Y69000
X57000Y69000
X54900Y68500
X48200Y69000
X39400Y69000
X37300Y68500
X30600Y69000
X21800Y69000
X19700Y68500
X13020Y68490
X46300Y69000
X28700Y69000
X14464Y66444
X168000Y69900
X165400Y69900
X321000Y78000
X318900Y77500
X312200Y78000
X303400Y78000
X301300Y77500
X294600Y78000
X285800Y78000
X283700Y77500
X277000Y78000
X310300Y78000
X275100Y78000
X292700Y78000
X268200Y78000
X266100Y77500
X259400Y78000
X250600Y78000
X248500Y77500
X241800Y78000
X233000Y78000
X230900Y77500
X224200Y78000
X257500Y78000
X222300Y78000
X239900Y78000
X215400Y78000
X213300Y77500
X206600Y78000
X197800Y78000
X195700Y77500
X189000Y78000
X180200Y78000
X178100Y77500
X171400Y78000
X204700Y78000
X169500Y78000
X187100Y78000
X162600Y78000
X160500Y77500
X153800Y78000
X145000Y78000
X142900Y77500
X136200Y78000
X127400Y78000
X125300Y77500
X118600Y78000
X151900Y78000
X116700Y78000
X134300Y78000
X109800Y78000
X107700Y77500
X101000Y78000
X92200Y78000
X90100Y77500
X83400Y78000
X74600Y78000
X72500Y77500
X65800Y78000
X99100Y78000
X63900Y78000
X81500Y78000
X57000Y78000
X54900Y77500
X48200Y78000
X39400Y78000
X37300Y77500
X30600Y78000
X21800Y78000
X19700Y77500
X13020Y77490
X46300Y78000
X28700Y78000
X14464Y75444
X168000Y78900
X165400Y78900
X321000Y87000
X318900Y86500
X312200Y87000
X303400Y87000
X301300Y86500
X294600Y87000
X285800Y87000
X283700Y86500
X277000Y87000
X310300Y87000
X275100Y87000
X292700Y87000
X268200Y87000
X266100Y86500
X259400Y87000
X250600Y87000
X248500Y86500
X241800Y87000
X233000Y87000
X230900Y86500
X224200Y87000
X257500Y87000
X222300Y87000
X239900Y87000
X215400Y87000
X213300Y86500
X206600Y87000
X197800Y87000
X195700Y86500
X189000Y87000
X180200Y87000
X178100Y86500
X171400Y87000
X204700Y87000
X169500Y87000
X187100Y87000
X162600Y87000
X160500Y86500
X153800Y87000
X145000Y87000
X142900Y86500
X136200Y87000
X127400Y87000
X125300Y86500
X118600Y87000
X151900Y87000
X116700Y87000
X134300Y87000
X109800Y87000
X107700Y86500
X101000Y87000
X92200Y87000
X90100Y86500
X83400Y87000
X74600Y87000
X72500Y86500
X65800Y87000
X99100Y87000
X63900Y87000
X81500Y87000
X57000Y87000
X54900Y86500
X48200Y87000
X39400Y87000
X37300Y86500
X30600Y87000
X21800Y87000
X19700Y86500
X13020Y86490
X46300Y87000
X28700Y87000
X14464Y84444
X168000Y87900
X165400Y87900
X321000Y96000
X318900Y95500
X312200Y96000
X303400Y96000
X301300Y95500
X294600Y96000
X285800Y96000
X283700Y95500
X277000Y96000
X310300Y96000
X275100Y96000
X292700Y96000
X268200Y96000
X266100Y95500
X259400Y96000
X250600Y96000
X248500Y95500
X241800Y96000
X233000Y96000
X230900Y95500
X224200Y96000
X257500Y96000
X222300Y96000
X239900Y96000
X215400Y96000
X213300Y95500
X206600Y96000
X197800Y96000
X195700Y95500
X189000Y96000
X180200Y96000
X178100Y95500
X171400Y96000
X204700Y96000
X169500Y96000
X187100Y96000
X162600Y96000
X160500Y95500
X153800Y96000
X145000Y96000
X142900Y95500
X136200Y96000
X127400Y96000
X125300Y95500
X118600Y96000
X151900Y96000
X116700Y96000
X134300Y96000
X109800Y96000
X107700Y95500
X101000Y96000
X92200Y96000
X90100Y95500
X83400Y96000
X74600Y96000
X72500Y95500
X65800Y96000
X99100Y96000
X63900Y96000
X81500Y96000
X57000Y96000
X54900Y95500
X48200Y96000
X39400Y96000
X37300Y95500
X30600Y96000
X21800Y96000
X19700Y95500
X13020Y95490
X46300Y96000
X28700Y96000
X14464Y93444
X168000Y96900
X165400Y96900
X321000Y105000
X318900Y104500
X312200Y105000
X303400Y105000
X301300Y104500
X294600Y105000
X285800Y105000
X283700Y104500
X277000Y105000
X310300Y105000
X275100Y105000
X292700Y105000
X268200Y105000
X266100Y104500
X259400Y105000
X250600Y105000
X248500Y104500
X241800Y105000
X233000Y105000
X230900Y104500
X224200Y105000
X257500Y105000
X222300Y105000
X239900Y105000
X215400Y105000
X213300Y104500
X206600Y105000
X197800Y105000
X195700Y104500
X189000Y105000
X180200Y105000
X178100Y104500
X171400Y105000
X204700Y105000
X169500Y105000
X187100Y105000
X162600Y105000
X160500Y104500
X153800Y105000
X145000Y105000
X142900Y104500
X136200Y105000
X127400Y105000
X125300Y104500
X118600Y105000
X151900Y105000
X116700Y105000
X134300Y105000
X109800Y105000
X107700Y104500
X101000Y105000
X92200Y105000
X90100Y104500
X83400Y105000
X74600Y105000
X72500Y104500
X65800Y105000
X99100Y105000
X63900Y105000
X81500Y105000
X57000Y105000
X54900Y104500
X48200Y105000
X39400Y105000
X37300Y104500
X30600Y105000
X21800Y105000
X19700Y104500
X13020Y104490
X46300Y105000
X28700Y105000
X14464Y102444
X168000Y105900
X165400Y105900
X321000Y114000
X318900Y113500
X312200Y114000
X303400Y114000
X301300Y113500
X294600Y114000
X285800Y114000
X283700Y113500
X277000Y114000
X310300Y114000
X275100Y114000
X292700Y114000
X268200Y114000
X266100Y113500
X259400Y114000
X250600Y114000
X248500Y113500
X241800Y114000
X233000Y114000
X230900Y113500
X224200Y114000
X257500Y114000
X222300Y114000
X239900Y114000
X215400Y114000
X213300Y113500
X206600Y114000
X197800Y114000
X195700Y113500
X189000Y114000
X180200Y114000
X178100Y113500
X171400Y114000
X204700Y114000
X169500Y114000
X187100Y114000
X162600Y114000
X160500Y113500
X153800Y114000
X145000Y114000
X142900Y113500
X136200Y114000
X127400Y114000
X125300Y113500
X118600Y114000
X151900Y114000
X116700Y114000
X134300Y114000
X109800Y114000
X107700Y113500
X101000Y114000
X92200Y114000
X90100Y113500
X83400Y114000
X74600Y114000
X72500Y113500
X65800Y114000
X99100Y114000
X63900Y114000
X81500Y114000
X57000Y114000
X54900Y113500
X48200Y114000
X39400Y114000
X37300Y113500
X30600Y114000
X21800Y114000
X19700Y113500
X13020Y113490
X46300Y114000
X28700Y114000
X14464Y111444
X168000Y114900
X165400Y114900
X321000Y123000
X318900Y122500
X312200Y123000
X303400Y123000
X301300Y122500
X294600Y123000
X285800Y123000
X283700Y122500
X277000Y123000
X310300Y123000
X275100Y123000
X292700Y123000
X268200Y123000
X266100Y122500
X259400Y123000
X250600Y123000
X248500Y122500
X241800Y123000
X233000Y123000
X230900Y122500
X224200Y123000
X257500Y123000
X222300Y123000
X239900Y123000
X215400Y123000
X213300Y122500
X206600Y123000
X197800Y123000
X195700Y122500
X189000Y123000
X180200Y123000
X178100Y122500
X171400Y123000
X204700Y123000
X169500Y123000
X187100Y123000
X162600Y123000
X160500Y122500
X153800Y123000
X145000Y123000
X142900Y122500
X136200Y123000
X127400Y123000
X125300Y122500
X118600Y123000
X151900Y123000
X116700Y123000
X134300Y123000
X109800Y123000
X107700Y122500
X101000Y123000
X92200Y123000
X90100Y122500
X83400Y123000
X74600Y123000
X72500Y122500
X65800Y123000
X99100Y123000
X63900Y123000
X81500Y123000
X57000Y123000
X54900Y122500
X48200Y123000
X39400Y123000
X37300Y122500
X30600Y123000
X21800Y123000
X19700Y122500
X13020Y122490
X46300Y123000
X28700Y123000
X14464Y120444
X168000Y123900
X165400Y123900
X321000Y132000
X318900Y131500
X312200Y132000
X303400Y132000
X301300Y131500
X294600Y132000
X285800Y132000
X283700Y131500
X277000Y132000
X310300Y132000
X275100Y132000
X292700Y132000
X268200Y132000
X266100Y131500
X259400Y132000
X250600Y132000
X248500Y131500
X241800Y132000
X233000Y132000
X230900Y131500
X224200Y132000
X257500Y132000
X222300Y132000
X239900Y132000
X215400Y132000
X213300Y131500
X206600Y132000
X197800Y132000
X195700Y131500
X189000Y132000
X180200Y132000
X178100Y131500
X171400Y132000
X204700Y132000
X169500Y132000
X187100Y132000
X162600Y132000
X160500Y131500
X153800Y132000
X145000Y132000
X142900Y131500
X136200Y132000
X127400Y132000
X125300Y131500
X118600Y132000
X151900Y132000
X116700Y132000
X134300Y132000
X109800Y132000
X107700Y131500
X101000Y132000
X92200Y132000
X90100Y131500
X83400Y132000
X74600Y132000
X72500Y131500
X65800Y132000
X99100Y132000
X63900Y132000
X81500Y132000
X57000Y132000
X54900Y131500
X48200Y132000
X39400Y132000
X37300Y131500
X30600Y132000
X21800Y132000
X19700Y131500
X13020Y131490
X46300Y132000
X28700Y132000
X14464Y129444
X168000Y132900
X165400Y132900
X321000Y141000
X318900Y140500
X312200Y141000
X303400Y141000
X301300Y140500
X294600Y141000
X285800Y141000
X283700Y140500
X277000Y141000
X310300Y141000
X275100Y141000
X292700Y141000
X268200Y141000
X266100Y140500
X259400Y141000
X250600Y141000
X248500Y140500
X241800Y141000
X233000Y141000
X230900Y140500
X224200Y141000
X257500Y141000
X222300Y141000
X239900Y141000
X215400Y141000
X213300Y140500
X206600Y141000
X197800Y141000
X195700Y140500
X189000Y141000
X180200Y141000
X178100Y140500
X171400Y141000
X204700Y141000
X169500Y141000
X187100Y141000
X162600Y141000
X160500Y140500
X153800Y141000
X145000Y141000
X142900Y140500
X136200Y141000
X127400Y141000
X125300Y140500
X118600Y141000
X151900Y141000
X116700Y141000
X134300Y141000
X109800Y141000
X107700Y140500
X101000Y141000
X92200Y141000
X90100Y140500
X83400Y141000
X74600Y141000
X72500Y140500
X65800Y141000
X99100Y141000
X63900Y141000
X81500Y141000
X57000Y141000
X54900Y140500
X48200Y141000
X39400Y141000
X37300Y140500
X30600Y141000
X21800Y141000
X19700Y140500
X13020Y140490
X46300Y141000
X28700Y141000
X14464Y138444
X168000Y141900
X165400Y141900
X321000Y150000
X318900Y149500
X312200Y150000
X303400Y150000
X301300Y149500
X294600Y150000
X285800Y150000
X283700Y149500
X277000Y150000
X310300Y150000
X275100Y150000
X292700Y150000
X268200Y150000
X266100Y149500
X259400Y150000
X250600Y150000
X248500Y149500
X241800Y150000
X233000Y150000
X230900Y149500
X224200Y150000
X257500Y150000
X222300Y150000
X239900Y150000
X215400Y150000
X213300Y149500
X206600Y150000
X197800Y150000
X195700Y149500
X189000Y150000
X180200Y150000
X178100Y149500
X171400Y150000
X204700Y150000
X169500Y150000
X187100Y150000
X162600Y150000
X160500Y149500
X153800Y150000
X145000Y150000
X142900Y149500
X136200Y150000
X127400Y150000
X125300Y149500
X118600Y150000
X151900Y150000
X116700Y150000
X134300Y150000
X109800Y150000
X107700Y149500
X101000Y150000
X92200Y150000
X90100Y149500
X83400Y150000
X74600Y150000
X72500Y149500
X65800Y150000
X99100Y150000
X63900Y150000
X81500Y150000
X57000Y150000
X54900Y149500
X48200Y150000
X39400Y150000
X37300Y149500
X30600Y150000
X21800Y150000
X19700Y149500
X13020Y149490
X46300Y150000
X28700Y150000
X14464Y147444
X168000Y150900
X165400Y150900
X321000Y159000
X318900Y158500
X312200Y159000
X303400Y159000
X301300Y158500
X294600Y159000
X285800Y159000
X283700Y158500
X277000Y159000
X310300Y159000
X275100Y159000
X292700Y159000
X268200Y159000
X266100Y158500
X259400Y159000
X250600Y159000
X248500Y158500
X241800Y159000
X233000Y159000
X230900Y158500
X224200Y159000
X257500Y159000
X222300Y159000
X239900Y159000
X215400Y159000
X213300Y158500
X206600Y159000
X197800Y159000
X195700Y158500
X189000Y159000
X180200Y159000
X178100Y158500
X171400Y159000
X204700Y159000
X169500Y159000
X187100Y159000
X162600Y159000
X160500Y158500
X153800Y159000
X145000Y159000
X142900Y158500
X136200Y159000
X127400Y159000
X125300Y158500
X118600Y159000
X151900Y159000
X116700Y159000
X134300Y159000
X109800Y159000
X107700Y158500
X101000Y159000
X92200Y159000
X90100Y158500
X83400Y159000
X74600Y159000
X72500Y158500
X65800Y159000
X99100Y159000
X63900Y159000
X81500Y159000
X57000Y159000
X54900Y158500
X48200Y159000
X39400Y159000
X37300Y158500
X30600Y159000
X21800Y159000
X19700Y158500
X13020Y158490
X46300Y159000
X28700Y159000
X14464Y156444
X168000Y159900
X165400Y159900
X321000Y168000
X318900Y167500
X312200Y168000
X303400Y168000
X301300Y167500
X294600Y168000
X285800Y168000
X283700Y167500
X277000Y168000
X310300Y168000
X275100Y168000
X292700Y168000
X268200Y168000
X266100Y167500
X259400Y168000
X250600Y168000
X248500Y167500
X241800Y168000
X233000Y168000
X230900Y167500
X224200Y168000
X257500Y168000
X222300Y168000
X239900Y168000
X215400Y168000
X213300Y167500
X206600Y168000
X197800Y168000
X195700Y167500
X189000Y168000
X180200Y168000
X178100Y167500
X171400Y168000
X204700Y168000
X169500Y168000
X187100Y168000
X162600Y168000
X160500Y167500
X153800Y168000
X145000Y168000
X142900Y167500
X136200Y168000
X127400Y168000
X125300Y167500
X118600Y168000
X151900Y168000
X116700Y168000
X134300Y168000
X109800Y168000
X107700Y167500
X101000Y168000
X92200Y168000
X90100Y167500
X83400Y168000
X74600Y168000
X72500Y167500
X65800Y168000
X99100Y168000
X63900Y168000
X81500Y168000
X57000Y168000
X54900Y167500
X48200Y168000
X39400Y168000
X37300Y167500
X30600Y168000
X21800Y168000
X19700Y167500
X13020Y167490
X46300Y168000
X28700Y168000
X14464Y165444
X168000Y168900
X165400Y168900
X321000Y177000
X318900Y176500
X312200Y177000
X303400Y177000
X301300Y176500
X294600Y177000
X285800Y177000
X283700Y176500
X277000Y177000
X310300Y177000
X275100Y177000
X292700Y177000
X268200Y177000
X266100Y176500
X259400Y177000
X250600Y177000
X248500Y176500
X241800Y177000
X233000Y177000
X230900Y176500
X224200Y177000
X257500Y177000
X222300Y177000
X239900Y177000
X215400Y177000
X213300Y176500
X206600Y177000
X197800Y177000
X195700Y176500
X189000Y177000
X180200Y177000
X178100Y176500
X171400Y177000
X204700Y177000
X169500Y177000
X187100Y177000
X162600Y177000
X160500Y176500
X153800Y177000
X145000Y177000
X142900Y176500
X136200Y177000
X127400Y177000
X125300Y176500
X118600Y177000
X151900Y177000
X116700Y177000
X134300Y177000
X109800Y177000
X107700Y176500
X101000Y177000
X92200Y177000
X90100Y176500
X83400Y177000
X74600Y177000
X72500Y176500
X65800Y177000
X99100Y177000
X63900Y177000
X81500Y177000
X57000Y177000
X54900Y176500
X48200Y177000
X39400Y177000
X37300Y176500
X30600Y177000
X21800Y177000
X19700Y176500
X13020Y176490
X46300Y177000
X28700Y177000
X14464Y174444
X168000Y177900
X165400Y177900
X322068Y11400
X318970Y11500
X310170Y11500
X304468Y11400
X301370Y11500
X292570Y11500
X286868Y11400
X283770Y11500
X274970Y11500
X269268Y11400
X266170Y11500
X257370Y11500
X251668Y11400
X248570Y11500
X239770Y11500
X234068Y11400
X230970Y11500
X222170Y11500
X216468Y11400
X213370Y11500
X204570Y11500
X198868Y11400
X195770Y11500
X186970Y11500
X181268Y11400
X178170Y11500
X169370Y11500
X163668Y11400
X160570Y11500
X151770Y11500
X146068Y11400
X142970Y11500
X134170Y11500
X128468Y11400
X125370Y11500
X116570Y11500
X110868Y11400
X107770Y11500
X98970Y11500
X93268Y11400
X90170Y11500
X81370Y11500
X75668Y11400
X72570Y11500
X63770Y11500
X58068Y11400
X54970Y11500
X46170Y11500
X40468Y11400
X37370Y11500
X28570Y11500
X22868Y11400
X19770Y11500
X12070Y11400
X13270Y11170
X48470Y11170
X30870Y11170
X277270Y11170
X312470Y11170
X294870Y11170
X224470Y11170
X259670Y11170
X242070Y11170
X171670Y11170
X206870Y11170
X189270Y11170
X118870Y11170
X154070Y11170
X136470Y11170
X66070Y11170
X101270Y11170
X83670Y11170
X323400Y10900
X164968Y10100
X168068Y10100
X323700Y11900
X324300Y10500
X322068Y20400
X318970Y20500
X310170Y20500
X304468Y20400
X301370Y20500
X292570Y20500
X286868Y20400
X283770Y20500
X274970Y20500
X269268Y20400
X266170Y20500
X257370Y20500
X251668Y20400
X248570Y20500
X239770Y20500
X234068Y20400
X230970Y20500
X222170Y20500
X216468Y20400
X213370Y20500
X204570Y20500
X198868Y20400
X195770Y20500
X186970Y20500
X181268Y20400
X178170Y20500
X169370Y20500
X163668Y20400
X160570Y20500
X151770Y20500
X146068Y20400
X142970Y20500
X134170Y20500
X128468Y20400
X125370Y20500
X116570Y20500
X110868Y20400
X107770Y20500
X98970Y20500
X93268Y20400
X90170Y20500
X81370Y20500
X75668Y20400
X72570Y20500
X63770Y20500
X58068Y20400
X54970Y20500
X46170Y20500
X40468Y20400
X37370Y20500
X28570Y20500
X22868Y20400
X19770Y20500
X12070Y20400
X13270Y20170
X48470Y20170
X30870Y20170
X277270Y20170
X312470Y20170
X294870Y20170
X224470Y20170
X259670Y20170
X242070Y20170
X171670Y20170
X206870Y20170
X189270Y20170
X118870Y20170
X154070Y20170
X136470Y20170
X66070Y20170
X101270Y20170
X83670Y20170
X323400Y19900
X164968Y19100
X168068Y19100
X323700Y20900
X324300Y19500
X322068Y29400
X318970Y29500
X310170Y29500
X304468Y29400
X301370Y29500
X292570Y29500
X286868Y29400
X283770Y29500
X274970Y29500
X269268Y29400
X266170Y29500
X257370Y29500
X251668Y29400
X248570Y29500
X239770Y29500
X234068Y29400
X230970Y29500
X222170Y29500
X216468Y29400
X213370Y29500
X204570Y29500
X198868Y29400
X195770Y29500
X186970Y29500
X181268Y29400
X178170Y29500
X169370Y29500
X163668Y29400
X160570Y29500
X151770Y29500
X146068Y29400
X142970Y29500
X134170Y29500
X128468Y29400
X125370Y29500
X116570Y29500
X110868Y29400
X107770Y29500
X98970Y29500
X93268Y29400
X90170Y29500
X81370Y29500
X75668Y29400
X72570Y29500
X63770Y29500
X58068Y29400
X54970Y29500
X46170Y29500
X40468Y29400
X37370Y29500
X28570Y29500
X22868Y29400
X19770Y29500
X12070Y29400
X13270Y29170
X48470Y29170
X30870Y29170
X277270Y29170
X312470Y29170
X294870Y29170
X224470Y29170
X259670Y29170
X242070Y29170
X171670Y29170
X206870Y29170
X189270Y29170
X118870Y29170
X154070Y29170
X136470Y29170
X66070Y29170
X101270Y29170
X83670Y29170
X323400Y28900
X164968Y28100
X168068Y28100
X323700Y29900
X324300Y28500
X322068Y38400
X318970Y38500
X310170Y38500
X304468Y38400
X301370Y38500
X292570Y38500
X286868Y38400
X283770Y38500
X274970Y38500
X269268Y38400
X266170Y38500
X257370Y38500
X251668Y38400
X248570Y38500
X239770Y38500
X234068Y38400
X230970Y38500
X222170Y38500
X216468Y38400
X213370Y38500
X204570Y38500
X198868Y38400
X195770Y38500
X186970Y38500
X181268Y38400
X178170Y38500
X169370Y38500
X163668Y38400
X160570Y38500
X151770Y38500
X146068Y38400
X142970Y38500
X134170Y38500
X128468Y38400
X125370Y38500
X116570Y38500
X110868Y38400
X107770Y38500
X98970Y38500
X93268Y38400
X90170Y38500
X81370Y38500
X75668Y38400
X72570Y38500
X63770Y38500
X58068Y38400
X54970Y38500
X46170Y38500
X40468Y38400
X37370Y38500
X28570Y38500
X22868Y38400
X19770Y38500
X12070Y38400
X13270Y38170
X48470Y38170
X30870Y38170
X277270Y38170
X312470Y38170
X294870Y38170
X224470Y38170
X259670Y38170
X242070Y38170
X171670Y38170
X206870Y38170
X189270Y38170
X118870Y38170
X154070Y38170
X136470Y38170
X66070Y38170
X101270Y38170
X83670Y38170
X323400Y37900
X164968Y37100
X168068Y37100
X323700Y38900
X324300Y37500
X322068Y47400
X318970Y47500
X310170Y47500
X304468Y47400
X301370Y47500
X292570Y47500
X286868Y47400
X283770Y47500
X274970Y47500
X269268Y47400
X266170Y47500
X257370Y47500
X251668Y47400
X248570Y47500
X239770Y47500
X234068Y47400
X230970Y47500
X222170Y47500
X216468Y47400
X213370Y47500
X204570Y47500
X198868Y47400
X195770Y47500
X186970Y47500
X181268Y47400
X178170Y47500
X169370Y47500
X163668Y47400
X160570Y47500
X151770Y47500
X146068Y47400
X142970Y47500
X134170Y47500
X128468Y47400
X125370Y47500
X116570Y47500
X110868Y47400
X107770Y47500
X98970Y47500
X93268Y47400
X90170Y47500
X81370Y47500
X75668Y47400
X72570Y47500
X63770Y47500
X58068Y47400
X54970Y47500
X46170Y47500
X40468Y47400
X37370Y47500
X28570Y47500
X22868Y47400
X19770Y47500
X12070Y47400
X13270Y47170
X48470Y47170
X30870Y47170
X277270Y47170
X312470Y47170
X294870Y47170
X224470Y47170
X259670Y47170
X242070Y47170
X171670Y47170
X206870Y47170
X189270Y47170
X118870Y47170
X154070Y47170
X136470Y47170
X66070Y47170
X101270Y47170
X83670Y47170
X323400Y46900
X164968Y46100
X168068Y46100
X323700Y47900
X324300Y46500
X322068Y56400
X318970Y56500
X310170Y56500
X304468Y56400
X301370Y56500
X292570Y56500
X286868Y56400
X283770Y56500
X274970Y56500
X269268Y56400
X266170Y56500
X257370Y56500
X251668Y56400
X248570Y56500
X239770Y56500
X234068Y56400
X230970Y56500
X222170Y56500
X216468Y56400
X213370Y56500
X204570Y56500
X198868Y56400
X195770Y56500
X186970Y56500
X181268Y56400
X178170Y56500
X169370Y56500
X163668Y56400
X160570Y56500
X151770Y56500
X146068Y56400
X142970Y56500
X134170Y56500
X128468Y56400
X125370Y56500
X116570Y56500
X110868Y56400
X107770Y56500
X98970Y56500
X93268Y56400
X90170Y56500
X81370Y56500
X75668Y56400
X72570Y56500
X63770Y56500
X58068Y56400
X54970Y56500
X46170Y56500
X40468Y56400
X37370Y56500
X28570Y56500
X22868Y56400
X19770Y56500
X12070Y56400
X13270Y56170
X48470Y56170
X30870Y56170
X277270Y56170
X312470Y56170
X294870Y56170
X224470Y56170
X259670Y56170
X242070Y56170
X171670Y56170
X206870Y56170
X189270Y56170
X118870Y56170
X154070Y56170
X136470Y56170
X66070Y56170
X101270Y56170
X83670Y56170
X323400Y55900
X164968Y55100
X168068Y55100
X323700Y56900
X324300Y55500
X322068Y65400
X318970Y65500
X310170Y65500
X304468Y65400
X301370Y65500
X292570Y65500
X286868Y65400
X283770Y65500
X274970Y65500
X269268Y65400
X266170Y65500
X257370Y65500
X251668Y65400
X248570Y65500
X239770Y65500
X234068Y65400
X230970Y65500
X222170Y65500
X216468Y65400
X213370Y65500
X204570Y65500
X198868Y65400
X195770Y65500
X186970Y65500
X181268Y65400
X178170Y65500
X169370Y65500
X163668Y65400
X160570Y65500
X151770Y65500
X146068Y65400
X142970Y65500
X134170Y65500
X128468Y65400
X125370Y65500
X116570Y65500
X110868Y65400
X107770Y65500
X98970Y65500
X93268Y65400
X90170Y65500
X81370Y65500
X75668Y65400
X72570Y65500
X63770Y65500
X58068Y65400
X54970Y65500
X46170Y65500
X40468Y65400
X37370Y65500
X28570Y65500
X22868Y65400
X19770Y65500
X12070Y65400
X13270Y65170
X48470Y65170
X30870Y65170
X277270Y65170
X312470Y65170
X294870Y65170
X224470Y65170
X259670Y65170
X242070Y65170
X171670Y65170
X206870Y65170
X189270Y65170
X118870Y65170
X154070Y65170
X136470Y65170
X66070Y65170
X101270Y65170
X83670Y65170
X323400Y64900
X164968Y64100
X168068Y64100
X323700Y65900
X324300Y64500
X322068Y74400
X318970Y74500
X310170Y74500
X304468Y74400
X301370Y74500
X292570Y74500
X286868Y74400
X283770Y74500
X274970Y74500
X269268Y74400
X266170Y74500
X257370Y74500
X251668Y74400
X248570Y74500
X239770Y74500
X234068Y74400
X230970Y74500
X222170Y74500
X216468Y74400
X213370Y74500
X204570Y74500
X198868Y74400
X195770Y74500
X186970Y74500
X181268Y74400
X178170Y74500
X169370Y74500
X163668Y74400
X160570Y74500
X151770Y74500
X146068Y74400
X142970Y74500
X134170Y74500
X128468Y74400
X125370Y74500
X116570Y74500
X110868Y74400
X107770Y74500
X98970Y74500
X93268Y74400
X90170Y74500
X81370Y74500
X75668Y74400
X72570Y74500
X63770Y74500
X58068Y74400
X54970Y74500
X46170Y74500
X40468Y74400
X37370Y74500
X28570Y74500
X22868Y74400
X19770Y74500
X12070Y74400
X13270Y74170
X48470Y74170
X30870Y74170
X277270Y74170
X312470Y74170
X294870Y74170
X224470Y74170
X259670Y74170
X242070Y74170
X171670Y74170
X206870Y74170
X189270Y74170
X118870Y74170
X154070Y74170
X136470Y74170
X66070Y74170
X101270Y74170
X83670Y74170
X323400Y73900
X164968Y73100
X168068Y73100
X323700Y74900
X324300Y73500
X322068Y83400
X318970Y83500
X310170Y83500
X304468Y83400
X301370Y83500
X292570Y83500
X286868Y83400
X283770Y83500
X274970Y83500
X269268Y83400
X266170Y83500
X257370Y83500
X251668Y83400
X248570Y83500
X239770Y83500
X234068Y83400
X230970Y83500
X222170Y83500
X216468Y83400
X213370Y83500
X204570Y83500
X198868Y83400
X195770Y83500
X186970Y83500
X181268Y83400
X178170Y83500
X169370Y83500
X163668Y83400
X160570Y83500
X151770Y83500
X146068Y83400
X142970Y83500
X134170Y83500
X128468Y83400
X125370Y83500
X116570Y83500
X110868Y83400
X107770Y83500
X98970Y83500
X93268Y83400
X90170Y83500
X81370Y83500
X75668Y83400
X72570Y83500
X63770Y83500
X58068Y83400
X54970Y83500
X46170Y83500
X40468Y83400
X37370Y83500
X28570Y83500
X22868Y83400
X19770Y83500
X12070Y83400
X13270Y83170
X48470Y83170
X30870Y83170
X277270Y83170
X312470Y83170
X294870Y83170
X224470Y83170
X259670Y83170
X242070Y83170
X171670Y83170
X206870Y83170
X189270Y83170
X118870Y83170
X154070Y83170
X136470Y83170
X66070Y83170
X101270Y83170
X83670Y83170
X323400Y82900
X164968Y82100
X168068Y82100
X323700Y83900
X324300Y82500
X322068Y92400
X318970Y92500
X310170Y92500
X304468Y92400
X301370Y92500
X292570Y92500
X286868Y92400
X283770Y92500
X274970Y92500
X269268Y92400
X266170Y92500
X257370Y92500
X251668Y92400
X248570Y92500
X239770Y92500
X234068Y92400
X230970Y92500
X222170Y92500
X216468Y92400
X213370Y92500
X204570Y92500
X198868Y92400
X195770Y92500
X186970Y92500
X181268Y92400
X178170Y92500
X169370Y92500
X163668Y92400
X160570Y92500
X151770Y92500
X146068Y92400
X142970Y92500
X134170Y92500
X128468Y92400
X125370Y92500
X116570Y92500
X110868Y92400
X107770Y92500
X98970Y92500
X93268Y92400
X90170Y92500
X81370Y92500
X75668Y92400
X72570Y92500
X63770Y92500
X58068Y92400
X54970Y92500
X46170Y92500
X40468Y92400
X37370Y92500
X28570Y92500
X22868Y92400
X19770Y92500
X12070Y92400
X13270Y92170
X48470Y92170
X30870Y92170
X277270Y92170
X312470Y92170
X294870Y92170
X224470Y92170
X259670Y92170
X242070Y92170
X171670Y92170
X206870Y92170
X189270Y92170
X118870Y92170
X154070Y92170
X136470Y92170
X66070Y92170
X101270Y92170
X83670Y92170
X323400Y91900
X164968Y91100
X168068Y91100
X323700Y92900
X324300Y91500
X322068Y101400
X318970Y101500
X310170Y101500
X304468Y101400
X301370Y101500
X292570Y101500
X286868Y101400
X283770Y101500
X274970Y101500
X269268Y101400
X266170Y101500
X257370Y101500
X251668Y101400
X248570Y101500
X239770Y101500
X234068Y101400
X230970Y101500
X222170Y101500
X216468Y101400
X213370Y101500
X204570Y101500
X198868Y101400
X195770Y101500
X186970Y101500
X181268Y101400
X178170Y101500
X169370Y101500
X163668Y101400
X160570Y101500
X151770Y101500
X146068Y101400
X142970Y101500
X134170Y101500
X128468Y101400
X125370Y101500
X116570Y101500
X110868Y101400
X107770Y101500
X98970Y101500
X93268Y101400
X90170Y101500
X81370Y101500
X75668Y101400
X72570Y101500
X63770Y101500
X58068Y101400
X54970Y101500
X46170Y101500
X40468Y101400
X37370Y101500
X28570Y101500
X22868Y101400
X19770Y101500
X12070Y101400
X13270Y101170
X48470Y101170
X30870Y101170
X277270Y101170
X312470Y101170
X294870Y101170
X224470Y101170
X259670Y101170
X242070Y101170
X171670Y101170
X206870Y101170
X189270Y101170
X118870Y101170
X154070Y101170
X136470Y101170
X66070Y101170
X101270Y101170
X83670Y101170
X323400Y100900
X164968Y100100
X168068Y100100
X323700Y101900
X324300Y100500
X322068Y110400
X318970Y110500
X310170Y110500
X304468Y110400
X301370Y110500
X292570Y110500
X286868Y110400
X283770Y110500
X274970Y110500
X269268Y110400
X266170Y110500
X257370Y110500
X251668Y110400
X248570Y110500
X239770Y110500
X234068Y110400
X230970Y110500
X222170Y110500
X216468Y110400
X213370Y110500
X204570Y110500
X198868Y110400
X195770Y110500
X186970Y110500
X181268Y110400
X178170Y110500
X169370Y110500
X163668Y110400
X160570Y110500
X151770Y110500
X146068Y110400
X142970Y110500
X134170Y110500
X128468Y110400
X125370Y110500
X116570Y110500
X110868Y110400
X107770Y110500
X98970Y110500
X93268Y110400
X90170Y110500
X81370Y110500
X75668Y110400
X72570Y110500
X63770Y110500
X58068Y110400
X54970Y110500
X46170Y110500
X40468Y110400
X37370Y110500
X28570Y110500
X22868Y110400
X19770Y110500
X12070Y110400
X13270Y110170
X48470Y110170
X30870Y110170
X277270Y110170
X312470Y110170
X294870Y110170
X224470Y110170
X259670Y110170
X242070Y110170
X171670Y110170
X206870Y110170
X189270Y110170
X118870Y110170
X154070Y110170
X136470Y110170
X66070Y110170
X101270Y110170
X83670Y110170
X323400Y109900
X164968Y109100
X168068Y109100
X323700Y110900
X324300Y109500
X322068Y119400
X318970Y119500
X310170Y119500
X304468Y119400
X301370Y119500
X292570Y119500
X286868Y119400
X283770Y119500
X274970Y119500
X269268Y119400
X266170Y119500
X257370Y119500
X251668Y119400
X248570Y119500
X239770Y119500
X234068Y119400
X230970Y119500
X222170Y119500
X216468Y119400
X213370Y119500
X204570Y119500
X198868Y119400
X195770Y119500
X186970Y119500
X181268Y119400
X178170Y119500
X169370Y119500
X163668Y119400
X160570Y119500
X151770Y119500
X146068Y119400
X142970Y119500
X134170Y119500
X128468Y119400
X125370Y119500
X116570Y119500
X110868Y119400
X107770Y119500
X98970Y119500
X93268Y119400
X90170Y119500
X81370Y119500
X75668Y119400
X72570Y119500
X63770Y119500
X58068Y119400
X54970Y119500
X46170Y119500
X40468Y119400
X37370Y119500
X28570Y119500
X22868Y119400
X19770Y119500
X12070Y119400
X13270Y119170
X48470Y119170
X30870Y119170
X277270Y119170
X312470Y119170
X294870Y119170
X224470Y119170
X259670Y119170
X242070Y119170
X171670Y119170
X206870Y119170
X189270Y119170
X118870Y119170
X154070Y119170
X136470Y119170
X66070Y119170
X101270Y119170
X83670Y119170
X323400Y118900
X164968Y118100
X168068Y118100
X323700Y119900
X324300Y118500
X322068Y128400
X318970Y128500
X310170Y128500
X304468Y128400
X301370Y128500
X292570Y128500
X286868Y128400
X283770Y128500
X274970Y128500
X269268Y128400
X266170Y128500
X257370Y128500
X251668Y128400
X248570Y128500
X239770Y128500
X234068Y128400
X230970Y128500
X222170Y128500
X216468Y128400
X213370Y128500
X204570Y128500
X198868Y128400
X195770Y128500
X186970Y128500
X181268Y128400
X178170Y128500
X169370Y128500
X163668Y128400
X160570Y128500
X151770Y128500
X146068Y128400
X142970Y128500
X134170Y128500
X128468Y128400
X125370Y128500
X116570Y128500
X110868Y128400
X107770Y128500
X98970Y128500
X93268Y128400
X90170Y128500
X81370Y128500
X75668Y128400
X72570Y128500
X63770Y128500
X58068Y128400
X54970Y128500
X46170Y128500
X40468Y128400
X37370Y128500
X28570Y128500
X22868Y128400
X19770Y128500
X12070Y128400
X13270Y128170
X48470Y128170
X30870Y128170
X277270Y128170
X312470Y128170
X294870Y128170
X224470Y128170
X259670Y128170
X242070Y128170
X171670Y128170
X206870Y128170
X189270Y128170
X118870Y128170
X154070Y128170
X136470Y128170
X66070Y128170
X101270Y128170
X83670Y128170
X323400Y127900
X164968Y127100
X168068Y127100
X323700Y128900
X324300Y127500
X322068Y137400
X318970Y137500
X310170Y137500
X304468Y137400
X301370Y137500
X292570Y137500
X286868Y137400
X283770Y137500
X274970Y137500
X269268Y137400
X266170Y137500
X257370Y137500
X251668Y137400
X248570Y137500
X239770Y137500
X234068Y137400
X230970Y137500
X222170Y137500
X216468Y137400
X213370Y137500
X204570Y137500
X198868Y137400
X195770Y137500
X186970Y137500
X181268Y137400
X178170Y137500
X169370Y137500
X163668Y137400
X160570Y137500
X151770Y137500
X146068Y137400
X142970Y137500
X134170Y137500
X128468Y137400
X125370Y137500
X116570Y137500
X110868Y137400
X107770Y137500
X98970Y137500
X93268Y137400
X90170Y137500
X81370Y137500
X75668Y137400
X72570Y137500
X63770Y137500
X58068Y137400
X54970Y137500
X46170Y137500
X40468Y137400
X37370Y137500
X28570Y137500
X22868Y137400
X19770Y137500
X12070Y137400
X13270Y137170
X48470Y137170
X30870Y137170
X277270Y137170
X312470Y137170
X294870Y137170
X224470Y137170
X259670Y137170
X242070Y137170
X171670Y137170
X206870Y137170
X189270Y137170
X118870Y137170
X154070Y137170
X136470Y137170
X66070Y137170
X101270Y137170
X83670Y137170
X323400Y136900
X164968Y136100
X168068Y136100
X323700Y137900
X324300Y136500
X322068Y146400
X318970Y146500
X310170Y146500
X304468Y146400
X301370Y146500
X292570Y146500
X286868Y146400
X283770Y146500
X274970Y146500
X269268Y146400
X266170Y146500
X257370Y146500
X251668Y146400
X248570Y146500
X239770Y146500
X234068Y146400
X230970Y146500
X222170Y146500
X216468Y146400
X213370Y146500
X204570Y146500
X198868Y146400
X195770Y146500
X186970Y146500
X181268Y146400
X178170Y146500
X169370Y146500
X163668Y146400
X160570Y146500
X151770Y146500
X146068Y146400
X142970Y146500
X134170Y146500
X128468Y146400
X125370Y146500
X116570Y146500
X110868Y146400
X107770Y146500
X98970Y146500
X93268Y146400
X90170Y146500
X81370Y146500
X75668Y146400
X72570Y146500
X63770Y146500
X58068Y146400
X54970Y146500
X46170Y146500
X40468Y146400
X37370Y146500
X28570Y146500
X22868Y146400
X19770Y146500
X12070Y146400
X13270Y146170
X48470Y146170
X30870Y146170
X277270Y146170
X312470Y146170
X294870Y146170
X224470Y146170
X259670Y146170
X242070Y146170
X171670Y146170
X206870Y146170
X189270Y146170
X118870Y146170
X154070Y146170
X136470Y146170
X66070Y146170
X101270Y146170
X83670Y146170
X323400Y145900
X164968Y145100
X168068Y145100
X323700Y146900
X324300Y145500
X322068Y155400
X318970Y155500
X310170Y155500
X304468Y155400
X301370Y155500
X292570Y155500
X286868Y155400
X283770Y155500
X274970Y155500
X269268Y155400
X266170Y155500
X257370Y155500
X251668Y155400
X248570Y155500
X239770Y155500
X234068Y155400
X230970Y155500
X222170Y155500
X216468Y155400
X213370Y155500
X204570Y155500
X198868Y155400
X195770Y155500
X186970Y155500
X181268Y155400
X178170Y155500
X169370Y155500
X163668Y155400
X160570Y155500
X151770Y155500
X146068Y155400
X142970Y155500
X134170Y155500
X128468Y155400
X125370Y155500
X116570Y155500
X110868Y155400
X107770Y155500
X98970Y155500
X93268Y155400
X90170Y155500
X81370Y155500
X75668Y155400
X72570Y155500
X63770Y155500
X58068Y155400
X54970Y155500
X46170Y155500
X40468Y155400
X37370Y155500
X28570Y155500
X22868Y155400
X19770Y155500
X12070Y155400
X13270Y155170
X48470Y155170
X30870Y155170
X277270Y155170
X312470Y155170
X294870Y155170
X224470Y155170
X259670Y155170
X242070Y155170
X171670Y155170
X206870Y155170
X189270Y155170
X118870Y155170
X154070Y155170
X136470Y155170
X66070Y155170
X101270Y155170
X83670Y155170
X323400Y154900
X164968Y154100
X168068Y154100
X323700Y155900
X324300Y154500
X322068Y164400
X318970Y164500
X310170Y164500
X304468Y164400
X301370Y164500
X292570Y164500
X286868Y164400
X283770Y164500
X274970Y164500
X269268Y164400
X266170Y164500
X257370Y164500
X251668Y164400
X248570Y164500
X239770Y164500
X234068Y164400
X230970Y164500
X222170Y164500
X216468Y164400
X213370Y164500
X204570Y164500
X198868Y164400
X195770Y164500
X186970Y164500
X181268Y164400
X178170Y164500
X169370Y164500
X163668Y164400
X160570Y164500
X151770Y164500
X146068Y164400
X142970Y164500
X134170Y164500
X128468Y164400
X125370Y164500
X116570Y164500
X110868Y164400
X107770Y164500
X98970Y164500
X93268Y164400
X90170Y164500
X81370Y164500
X75668Y164400
X72570Y164500
X63770Y164500
X58068Y164400
X54970Y164500
X46170Y164500
X40468Y164400
X37370Y164500
X28570Y164500
X22868Y164400
X19770Y164500
X12070Y164400
X13270Y164170
X48470Y164170
X30870Y164170
X277270Y164170
X312470Y164170
X294870Y164170
X224470Y164170
X259670Y164170
X242070Y164170
X171670Y164170
X206870Y164170
X189270Y164170
X118870Y164170
X154070Y164170
X136470Y164170
X66070Y164170
X101270Y164170
X83670Y164170
X323400Y163900
X164968Y163100
X168068Y163100
X323700Y164900
X324300Y163500
X322068Y173400
X318970Y173500
X310170Y173500
X304468Y173400
X301370Y173500
X292570Y173500
X286868Y173400
X283770Y173500
X274970Y173500
X269268Y173400
X266170Y173500
X257370Y173500
X251668Y173400
X248570Y173500
X239770Y173500
X234068Y173400
X230970Y173500
X222170Y173500
X216468Y173400
X213370Y173500
X204570Y173500
X198868Y173400
X195770Y173500
X186970Y173500
X181268Y173400
X178170Y173500
X169370Y173500
X163668Y173400
X160570Y173500
X151770Y173500
X146068Y173400
X142970Y173500
X134170Y173500
X128468Y173400
X125370Y173500
X116570Y173500
X110868Y173400
X107770Y173500
X98970Y173500
X93268Y173400
X90170Y173500
X81370Y173500
X75668Y173400
X72570Y173500
X63770Y173500
X58068Y173400
X54970Y173500
X46170Y173500
X40468Y173400
X37370Y173500
X28570Y173500
X22868Y173400
X19770Y173500
X12070Y173400
X13270Y173170
X48470Y173170
X30870Y173170
X277270Y173170
X312470Y173170
X294870Y173170
X224470Y173170
X259670Y173170
X242070Y173170
X171670Y173170
X206870Y173170
X189270Y173170
X118870Y173170
X154070Y173170
X136470Y173170
X66070Y173170
X101270Y173170
X83670Y173170
X323400Y172900
X164968Y172100
X168068Y172100
X323700Y173900
X324300Y172500
X321800Y13000
X319271Y13000
X313000Y13000
X310471Y13000
X304200Y13000
X301671Y13000
X295400Y13000
X292871Y13000
X286600Y13000
X284071Y13000
X277800Y13000
X275271Y13000
X269000Y13000
X266471Y13000
X260200Y13000
X257671Y13000
X251400Y13000
X248871Y13000
X242600Y13000
X240071Y13000
X233800Y13000
X231271Y13000
X225000Y13000
X222471Y13000
X216200Y13000
X213671Y13000
X207400Y13000
X204871Y13000
X198600Y13000
X196071Y13000
X189800Y13000
X187271Y13000
X181000Y13000
X178471Y13000
X172200Y13000
X169671Y13000
X163400Y13000
X160871Y13000
X154600Y13000
X152071Y13000
X145800Y13000
X143271Y13000
X137000Y13000
X134471Y13000
X128200Y13000
X125671Y13000
X119400Y13000
X116871Y13000
X110600Y13000
X108071Y13000
X101800Y13000
X99271Y13000
X93000Y13000
X90471Y13000
X84200Y13000
X81671Y13000
X75400Y13000
X72871Y13000
X66600Y13000
X64071Y13000
X57800Y13000
X55271Y13000
X49000Y13000
X46471Y13000
X40200Y13000
X37671Y13000
X31400Y13000
X28871Y13000
X22600Y13000
X20071Y13000
X13800Y13000
X325000Y9600
X321800Y22000
X319271Y22000
X313000Y22000
X310471Y22000
X304200Y22000
X301671Y22000
X295400Y22000
X292871Y22000
X286600Y22000
X284071Y22000
X277800Y22000
X275271Y22000
X269000Y22000
X266471Y22000
X260200Y22000
X257671Y22000
X251400Y22000
X248871Y22000
X242600Y22000
X240071Y22000
X233800Y22000
X231271Y22000
X225000Y22000
X222471Y22000
X216200Y22000
X213671Y22000
X207400Y22000
X204871Y22000
X198600Y22000
X196071Y22000
X189800Y22000
X187271Y22000
X181000Y22000
X178471Y22000
X172200Y22000
X169671Y22000
X163400Y22000
X160871Y22000
X154600Y22000
X152071Y22000
X145800Y22000
X143271Y22000
X137000Y22000
X134471Y22000
X128200Y22000
X125671Y22000
X119400Y22000
X116871Y22000
X110600Y22000
X108071Y22000
X101800Y22000
X99271Y22000
X93000Y22000
X90471Y22000
X84200Y22000
X81671Y22000
X75400Y22000
X72871Y22000
X66600Y22000
X64071Y22000
X57800Y22000
X55271Y22000
X49000Y22000
X46471Y22000
X40200Y22000
X37671Y22000
X31400Y22000
X28871Y22000
X22600Y22000
X20071Y22000
X13800Y22000
X325000Y18600
X321800Y31000
X319271Y31000
X313000Y31000
X310471Y31000
X304200Y31000
X301671Y31000
X295400Y31000
X292871Y31000
X286600Y31000
X284071Y31000
X277800Y31000
X275271Y31000
X269000Y31000
X266471Y31000
X260200Y31000
X257671Y31000
X251400Y31000
X248871Y31000
X242600Y31000
X240071Y31000
X233800Y31000
X231271Y31000
X225000Y31000
X222471Y31000
X216200Y31000
X213671Y31000
X207400Y31000
X204871Y31000
X198600Y31000
X196071Y31000
X189800Y31000
X187271Y31000
X181000Y31000
X178471Y31000
X172200Y31000
X169671Y31000
X163400Y31000
X160871Y31000
X154600Y31000
X152071Y31000
X145800Y31000
X143271Y31000
X137000Y31000
X134471Y31000
X128200Y31000
X125671Y31000
X119400Y31000
X116871Y31000
X110600Y31000
X108071Y31000
X101800Y31000
X99271Y31000
X93000Y31000
X90471Y31000
X84200Y31000
X81671Y31000
X75400Y31000
X72871Y31000
X66600Y31000
X64071Y31000
X57800Y31000
X55271Y31000
X49000Y31000
X46471Y31000
X40200Y31000
X37671Y31000
X31400Y31000
X28871Y31000
X22600Y31000
X20071Y31000
X13800Y31000
X325000Y27600
X321800Y40000
X319271Y40000
X313000Y40000
X310471Y40000
X304200Y40000
X301671Y40000
X295400Y40000
X292871Y40000
X286600Y40000
X284071Y40000
X277800Y40000
X275271Y40000
X269000Y40000
X266471Y40000
X260200Y40000
X257671Y40000
X251400Y40000
X248871Y40000
X242600Y40000
X240071Y40000
X233800Y40000
X231271Y40000
X225000Y40000
X222471Y40000
X216200Y40000
X213671Y40000
X207400Y40000
X204871Y40000
X198600Y40000
X196071Y40000
X189800Y40000
X187271Y40000
X181000Y40000
X178471Y40000
X172200Y40000
X169671Y40000
X163400Y40000
X160871Y40000
X154600Y40000
X152071Y40000
X145800Y40000
X143271Y40000
X137000Y40000
X134471Y40000
X128200Y40000
X125671Y40000
X119400Y40000
X116871Y40000
X110600Y40000
X108071Y40000
X101800Y40000
X99271Y40000
X93000Y40000
X90471Y40000
X84200Y40000
X81671Y40000
X75400Y40000
X72871Y40000
X66600Y40000
X64071Y40000
X57800Y40000
X55271Y40000
X49000Y40000
X46471Y40000
X40200Y40000
X37671Y40000
X31400Y40000
X28871Y40000
X22600Y40000
X20071Y40000
X13800Y40000
X325000Y36600
X321800Y49000
X319271Y49000
X313000Y49000
X310471Y49000
X304200Y49000
X301671Y49000
X295400Y49000
X292871Y49000
X286600Y49000
X284071Y49000
X277800Y49000
X275271Y49000
X269000Y49000
X266471Y49000
X260200Y49000
X257671Y49000
X251400Y49000
X248871Y49000
X242600Y49000
X240071Y49000
X233800Y49000
X231271Y49000
X225000Y49000
X222471Y49000
X216200Y49000
X213671Y49000
X207400Y49000
X204871Y49000
X198600Y49000
X196071Y49000
X189800Y49000
X187271Y49000
X181000Y49000
X178471Y49000
X321000Y15000
X169671Y49000
X163400Y49000
X160871Y49000
X154600Y49000
X152071Y49000
X145800Y49000
X143271Y49000
X137000Y49000
X134471Y49000
X128200Y49000
X125671Y49000
X119400Y49000
X116871Y49000
X110600Y49000
X108071Y49000
X101800Y49000
X99271Y49000
X93000Y49000
X90471Y49000
X84200Y49000
X81671Y49000
X75400Y49000
X72871Y49000
X66600Y49000
X64071Y49000
X57800Y49000
X55271Y49000
X49000Y49000
X46471Y49000
X40200Y49000
X37671Y49000
X31400Y49000
X28871Y49000
X22600Y49000
X20071Y49000
X13800Y49000
X325000Y45600
X321800Y58000
X319271Y58000
X313000Y58000
X310471Y58000
X304200Y58000
X301671Y58000
X295400Y58000
X292871Y58000
X286600Y58000
X284071Y58000
X277800Y58000
X275271Y58000
X269000Y58000
X266471Y58000
X260200Y58000
X257671Y58000
X251400Y58000
X248871Y58000
X242600Y58000
X240071Y58000
X233800Y58000
X231271Y58000
X225000Y58000
X222471Y58000
X216200Y58000
X213671Y58000
X207400Y58000
X204871Y58000
X198600Y58000
X196071Y58000
X189800Y58000
X187271Y58000
X181000Y58000
X178471Y58000
X172200Y58000
X169671Y58000
X163400Y58000
X160871Y58000
X154600Y58000
X152071Y58000
X145800Y58000
X143271Y58000
X137000Y58000
X134471Y58000
X128200Y58000
X125671Y58000
X119400Y58000
X116871Y58000
X110600Y58000
X108071Y58000
X101800Y58000
X99271Y58000
X93000Y58000
X90471Y58000
X84200Y58000
X81671Y58000
X75400Y58000
X72871Y58000
X66600Y58000
X64071Y58000
X57800Y58000
X55271Y58000
X49000Y58000
X46471Y58000
X40200Y58000
X37671Y58000
X31400Y58000
X28871Y58000
X22600Y58000
X20071Y58000
X13800Y58000
X325000Y54600
X321800Y67000
X319271Y67000
X313000Y67000
X310471Y67000
X304200Y67000
X301671Y67000
X295400Y67000
X292871Y67000
X286600Y67000
X284071Y67000
X277800Y67000
X275271Y67000
X269000Y67000
X266471Y67000
X260200Y67000
X257671Y67000
X251400Y67000
X248871Y67000
X242600Y67000
X240071Y67000
X233800Y67000
X231271Y67000
X225000Y67000
X222471Y67000
X216200Y67000
X213671Y67000
X207400Y67000
X204871Y67000
X198600Y67000
X196071Y67000
X189800Y67000
X187271Y67000
X181000Y67000
X178471Y67000
X172200Y67000
X169671Y67000
X163400Y67000
X160871Y67000
X154600Y67000
X152071Y67000
X145800Y67000
X143271Y67000
X137000Y67000
X134471Y67000
X128200Y67000
X125671Y67000
X119400Y67000
X116871Y67000
X110600Y67000
X108071Y67000
X101800Y67000
X99271Y67000
X93000Y67000
X90471Y67000
X84200Y67000
X81671Y67000
X75400Y67000
X72871Y67000
X66600Y67000
X64071Y67000
X57800Y67000
X55271Y67000
X49000Y67000
X46471Y67000
X40200Y67000
X37671Y67000
X31400Y67000
X28871Y67000
X22600Y67000
X20071Y67000
X13800Y67000
X325000Y63600
X321800Y76000
X319271Y76000
X313000Y76000
X310471Y76000
X304200Y76000
X301671Y76000
X295400Y76000
X292871Y76000
X286600Y76000
X284071Y76000
X277800Y76000
X275271Y76000
X269000Y76000
X266471Y76000
X260200Y76000
X257671Y76000
X251400Y76000
X248871Y76000
X242600Y76000
X240071Y76000
X233800Y76000
X231271Y76000
X225000Y76000
X222471Y76000
X216200Y76000
X213671Y76000
X207400Y76000
X204871Y76000
X198600Y76000
X196071Y76000
X189800Y76000
X187271Y76000
X181000Y76000
X178471Y76000
X172200Y76000
X169671Y76000
X163400Y76000
X160871Y76000
X154600Y76000
X152071Y76000
X145800Y76000
X143271Y76000
X137000Y76000
X134471Y76000
X128200Y76000
X125671Y76000
X119400Y76000
X116871Y76000
X110600Y76000
X108071Y76000
X101800Y76000
X99271Y76000
X93000Y76000
X90471Y76000
X84200Y76000
X81671Y76000
X75400Y76000
X72871Y76000
X66600Y76000
X64071Y76000
X57800Y76000
X55271Y76000
X49000Y76000
X46471Y76000
X40200Y76000
X37671Y76000
X31400Y76000
X28871Y76000
X22600Y76000
X20071Y76000
X13800Y76000
X325000Y72600
X321800Y85000
X319271Y85000
X313000Y85000
X310471Y85000
X304200Y85000
X301671Y85000
X295400Y85000
X292871Y85000
X286600Y85000
X284071Y85000
X277800Y85000
X275271Y85000
X269000Y85000
X266471Y85000
X260200Y85000
X257671Y85000
X251400Y85000
X248871Y85000
X242600Y85000
X240071Y85000
X233800Y85000
X231271Y85000
X225000Y85000
X222471Y85000
X216200Y85000
X213671Y85000
X207400Y85000
X204871Y85000
X198600Y85000
X196071Y85000
X189800Y85000
X187271Y85000
X181000Y85000
X178471Y85000
X172200Y85000
X169671Y85000
X163400Y85000
X160871Y85000
X154600Y85000
X152071Y85000
X145800Y85000
X143271Y85000
X137000Y85000
X134471Y85000
X128200Y85000
X125671Y85000
X119400Y85000
X116871Y85000
X110600Y85000
X108071Y85000
X101800Y85000
X99271Y85000
X93000Y85000
X90471Y85000
X84200Y85000
X81671Y85000
X75400Y85000
X72871Y85000
X66600Y85000
X64071Y85000
X57800Y85000
X55271Y85000
X49000Y85000
X46471Y85000
X40200Y85000
X37671Y85000
X31400Y85000
X28871Y85000
X22600Y85000
X20071Y85000
X13800Y85000
X325000Y81600
X321800Y94000
X319271Y94000
X313000Y94000
X310471Y94000
X304200Y94000
X301671Y94000
X295400Y94000
X292871Y94000
X286600Y94000
X284071Y94000
X277800Y94000
X275271Y94000
X269000Y94000
X266471Y94000
X260200Y94000
X257671Y94000
X251400Y94000
X248871Y94000
X242600Y94000
X240071Y94000
X233800Y94000
X231271Y94000
X225000Y94000
X222471Y94000
X216200Y94000
X213671Y94000
X207400Y94000
X204871Y94000
X198600Y94000
X196071Y94000
X189800Y94000
X187271Y94000
X181000Y94000
X178471Y94000
X172200Y94000
X169671Y94000
X163400Y94000
X160871Y94000
X154600Y94000
X152071Y94000
X145800Y94000
X143271Y94000
X137000Y94000
X134471Y94000
X128200Y94000
X125671Y94000
X119400Y94000
X116871Y94000
X110600Y94000
X108071Y94000
X101800Y94000
X99271Y94000
X93000Y94000
X90471Y94000
X84200Y94000
X81671Y94000
X75400Y94000
X72871Y94000
X66600Y94000
X64071Y94000
X57800Y94000
X55271Y94000
X49000Y94000
X46471Y94000
X40200Y94000
X37671Y94000
X31400Y94000
X28871Y94000
X22600Y94000
X20071Y94000
X13800Y94000
X325000Y90600
X321800Y103000
X319271Y103000
X313000Y103000
X310471Y103000
X304200Y103000
X301671Y103000
X295400Y103000
X292871Y103000
X286600Y103000
X284071Y103000
X277800Y103000
X275271Y103000
X269000Y103000
X266471Y103000
X260200Y103000
X257671Y103000
X251400Y103000
X248871Y103000
X242600Y103000
X240071Y103000
X233800Y103000
X231271Y103000
X225000Y103000
X222471Y103000
X216200Y103000
X213671Y103000
X207400Y103000
X204871Y103000
X198600Y103000
X196071Y103000
X189800Y103000
X187271Y103000
X181000Y103000
X178471Y103000
X172200Y103000
X169671Y103000
X163400Y103000
X160871Y103000
X154600Y103000
X152071Y103000
X145800Y103000
X143271Y103000
X137000Y103000
X134471Y103000
X128200Y103000
X125671Y103000
X119400Y103000
X116871Y103000
X110600Y103000
X108071Y103000
X101800Y103000
X99271Y103000
X93000Y103000
X90471Y103000
X84200Y103000
X81671Y103000
X75400Y103000
X72871Y103000
X66600Y103000
X64071Y103000
X57800Y103000
X55271Y103000
X49000Y103000
X46471Y103000
X40200Y103000
X37671Y103000
X31400Y103000
X28871Y103000
X22600Y103000
X20071Y103000
X13800Y103000
X325000Y99600
X321800Y112000
X319271Y112000
X313000Y112000
X310471Y112000
X304200Y112000
X301671Y112000
X295400Y112000
X292871Y112000
X286600Y112000
X284071Y112000
X277800Y112000
X275271Y112000
X269000Y112000
X266471Y112000
X260200Y112000
X257671Y112000
X251400Y112000
X248871Y112000
X242600Y112000
X240071Y112000
X233800Y112000
X231271Y112000
X225000Y112000
X222471Y112000
X216200Y112000
X213671Y112000
X207400Y112000
X204871Y112000
X198600Y112000
X196071Y112000
X189800Y112000
X187271Y112000
X181000Y112000
X178471Y112000
X172200Y112000
X169671Y112000
X163400Y112000
X160871Y112000
X154600Y112000
X152071Y112000
X145800Y112000
X143271Y112000
X137000Y112000
X134471Y112000
X128200Y112000
X125671Y112000
X119400Y112000
X116871Y112000
X110600Y112000
X108071Y112000
X101800Y112000
X99271Y112000
X93000Y112000
X90471Y112000
X84200Y112000
X81671Y112000
X75400Y112000
X72871Y112000
X66600Y112000
X64071Y112000
X57800Y112000
X55271Y112000
X172200Y49000
X46471Y112000
X40200Y112000
X37671Y112000
X31400Y112000
X28871Y112000
X22600Y112000
X20071Y112000
X13800Y112000
X325000Y108600
X321800Y121000
X319271Y121000
X313000Y121000
X310471Y121000
X304200Y121000
X301671Y121000
X295400Y121000
X292871Y121000
X286600Y121000
X284071Y121000
X277800Y121000
X275271Y121000
X269000Y121000
X266471Y121000
X260200Y121000
X257671Y121000
X251400Y121000
X248871Y121000
X242600Y121000
X240071Y121000
X233800Y121000
X231271Y121000
X225000Y121000
X222471Y121000
X216200Y121000
X213671Y121000
X207400Y121000
X204871Y121000
X198600Y121000
X196071Y121000
X189800Y121000
X187271Y121000
X181000Y121000
X178471Y121000
X172200Y121000
X169671Y121000
X163400Y121000
X160871Y121000
X154600Y121000
X152071Y121000
X145800Y121000
X143271Y121000
X137000Y121000
X134471Y121000
X128200Y121000
X125671Y121000
X119400Y121000
X116871Y121000
X110600Y121000
X108071Y121000
X101800Y121000
X99271Y121000
X93000Y121000
X90471Y121000
X84200Y121000
X81671Y121000
X75400Y121000
X72871Y121000
X66600Y121000
X64071Y121000
X57800Y121000
X55271Y121000
X49000Y121000
X46471Y121000
X40200Y121000
X37671Y121000
X31400Y121000
X28871Y121000
X22600Y121000
X20071Y121000
X13800Y121000
X325000Y117600
X321800Y130000
X319271Y130000
X313000Y130000
X310471Y130000
X304200Y130000
X301671Y130000
X295400Y130000
X292871Y130000
X286600Y130000
X284071Y130000
X277800Y130000
X275271Y130000
X269000Y130000
X266471Y130000
X260200Y130000
X257671Y130000
X251400Y130000
X248871Y130000
X242600Y130000
X240071Y130000
X233800Y130000
X231271Y130000
X225000Y130000
X222471Y130000
X216200Y130000
X213671Y130000
X207400Y130000
X204871Y130000
X198600Y130000
X196071Y130000
X189800Y130000
X187271Y130000
X181000Y130000
X178471Y130000
X172200Y130000
X169671Y130000
X163400Y130000
X160871Y130000
X154600Y130000
X152071Y130000
X145800Y130000
X143271Y130000
X137000Y130000
X134471Y130000
X128200Y130000
X125671Y130000
X119400Y130000
X116871Y130000
X110600Y130000
X108071Y130000
X101800Y130000
X99271Y130000
X93000Y130000
X90471Y130000
X84200Y130000
X81671Y130000
X75400Y130000
X72871Y130000
X66600Y130000
X64071Y130000
X57800Y130000
X55271Y130000
X49000Y130000
X46471Y130000
X40200Y130000
X37671Y130000
X31400Y130000
X28871Y130000
X22600Y130000
X20071Y130000
X13800Y130000
X325000Y126600
X321800Y139000
X319271Y139000
X313000Y139000
X310471Y139000
X304200Y139000
X301671Y139000
X295400Y139000
X292871Y139000
X286600Y139000
X284071Y139000
X277800Y139000
X275271Y139000
X269000Y139000
X266471Y139000
X260200Y139000
X257671Y139000
X251400Y139000
X248871Y139000
X242600Y139000
X240071Y139000
X233800Y139000
X231271Y139000
X225000Y139000
X222471Y139000
X216200Y139000
X213671Y139000
X207400Y139000
X204871Y139000
X198600Y139000
X196071Y139000
X189800Y139000
X187271Y139000
X181000Y139000
X178471Y139000
X172200Y139000
X169671Y139000
X163400Y139000
X160871Y139000
X154600Y139000
X152071Y139000
X145800Y139000
X143271Y139000
X137000Y139000
X134471Y139000
X128200Y139000
X125671Y139000
X119400Y139000
X116871Y139000
X110600Y139000
X108071Y139000
X101800Y139000
X99271Y139000
X93000Y139000
X90471Y139000
X84200Y139000
X81671Y139000
X75400Y139000
X72871Y139000
X66600Y139000
X64071Y139000
X57800Y139000
X55271Y139000
X49000Y139000
X46471Y139000
X40200Y139000
X37671Y139000
X31400Y139000
X28871Y139000
X22600Y139000
X20071Y139000
X13800Y139000
X325000Y135600
X321800Y148000
X319271Y148000
X313000Y148000
X310471Y148000
X304200Y148000
X301671Y148000
X295400Y148000
X292871Y148000
X286600Y148000
X284071Y148000
X277800Y148000
X275271Y148000
X269000Y148000
X266471Y148000
X260200Y148000
X257671Y148000
X251400Y148000
X248871Y148000
X242600Y148000
X240071Y148000
X233800Y148000
X231271Y148000
X225000Y148000
X222471Y148000
X216200Y148000
X213671Y148000
X207400Y148000
X204871Y148000
X198600Y148000
X196071Y148000
X189800Y148000
X187271Y148000
X181000Y148000
X178471Y148000
X172200Y148000
X169671Y148000
X163400Y148000
X160871Y148000
X154600Y148000
X152071Y148000
X145800Y148000
X143271Y148000
X137000Y148000
X134471Y148000
X128200Y148000
X125671Y148000
X119400Y148000
X116871Y148000
X110600Y148000
X108071Y148000
X101800Y148000
X99271Y148000
X93000Y148000
X90471Y148000
X84200Y148000
X81671Y148000
X75400Y148000
X72871Y148000
X66600Y148000
X64071Y148000
X57800Y148000
X55271Y148000
X49000Y148000
X46471Y148000
X40200Y148000
X37671Y148000
X31400Y148000
X28871Y148000
X22600Y148000
X20071Y148000
X13800Y148000
X325000Y144600
X321800Y157000
X319271Y157000
X313000Y157000
X310471Y157000
X304200Y157000
X301671Y157000
X295400Y157000
X292871Y157000
X286600Y157000
X284071Y157000
X277800Y157000
X275271Y157000
X269000Y157000
X266471Y157000
X260200Y157000
X257671Y157000
X251400Y157000
X248871Y157000
X242600Y157000
X240071Y157000
X233800Y157000
X231271Y157000
X225000Y157000
X222471Y157000
X216200Y157000
X213671Y157000
X207400Y157000
X204871Y157000
X198600Y157000
X196071Y157000
X189800Y157000
X187271Y157000
X181000Y157000
X178471Y157000
X172200Y157000
X169671Y157000
X163400Y157000
X160871Y157000
X154600Y157000
X152071Y157000
X145800Y157000
X143271Y157000
X137000Y157000
X134471Y157000
X128200Y157000
X125671Y157000
X119400Y157000
X116871Y157000
X110600Y157000
X108071Y157000
X101800Y157000
X99271Y157000
X93000Y157000
X90471Y157000
X84200Y157000
X81671Y157000
X75400Y157000
X72871Y157000
X66600Y157000
X64071Y157000
X57800Y157000
X55271Y157000
X49000Y157000
X46471Y157000
X40200Y157000
X37671Y157000
X31400Y157000
X28871Y157000
X22600Y157000
X20071Y157000
X13800Y157000
X325000Y153600
X321800Y166000
X319271Y166000
X313000Y166000
X310471Y166000
X304200Y166000
X301671Y166000
X295400Y166000
X292871Y166000
X286600Y166000
X284071Y166000
X277800Y166000
X275271Y166000
X269000Y166000
X266471Y166000
X260200Y166000
X257671Y166000
X251400Y166000
X248871Y166000
X242600Y166000
X240071Y166000
X233800Y166000
X231271Y166000
X225000Y166000
X222471Y166000
X216200Y166000
X213671Y166000
X207400Y166000
X204871Y166000
X198600Y166000
X196071Y166000
X189800Y166000
X187271Y166000
X181000Y166000
X178471Y166000
X172200Y166000
X169671Y166000
X163400Y166000
X160871Y166000
X154600Y166000
X152071Y166000
X145800Y166000
X143271Y166000
X137000Y166000
X134471Y166000
X128200Y166000
X125671Y166000
X119400Y166000
X116871Y166000
X110600Y166000
X108071Y166000
X101800Y166000
X99271Y166000
X93000Y166000
X90471Y166000
X84200Y166000
X81671Y166000
X75400Y166000
X72871Y166000
X66600Y166000
X64071Y166000
X57800Y166000
X55271Y166000
X49000Y166000
X46471Y166000
X40200Y166000
X37671Y166000
X31400Y166000
X28871Y166000
X22600Y166000
X20071Y166000
X13800Y166000
X325000Y162600
X321800Y175000
X319271Y175000
X313000Y175000
X310471Y175000
X304200Y175000
X301671Y175000
X295400Y175000
X292871Y175000
X286600Y175000
X284071Y175000
X277800Y175000
X275271Y175000
X269000Y175000
X266471Y175000
X260200Y175000
X257671Y175000
X251400Y175000
X248871Y175000
X242600Y175000
X240071Y175000
X233800Y175000
X231271Y175000
X225000Y175000
X222471Y175000
X216200Y175000
X213671Y175000
X207400Y175000
X204871Y175000
X198600Y175000
X196071Y175000
X189800Y175000
X187271Y175000
X181000Y175000
X178471Y175000
X172200Y175000
X169671Y175000
X163400Y175000
X160871Y175000
X154600Y175000
X152071Y175000
X145800Y175000
X143271Y175000
X137000Y175000
X134471Y175000
X128200Y175000
X125671Y175000
X119400Y175000
X116871Y175000
X110600Y175000
X108071Y175000
X101800Y175000
X99271Y175000
X93000Y175000
X90471Y175000
X84200Y175000
X81671Y175000
X75400Y175000
X72871Y175000
X66600Y175000
X64071Y175000
X57800Y175000
X55271Y175000
X49000Y175000
X46471Y175000
X40200Y175000
X37671Y175000
X31400Y175000
X28871Y175000
X22600Y175000
X20071Y175000
X13800Y175000
X325000Y171600
X318900Y14500
X312200Y15000
X303400Y15000
X301300Y14500
X294600Y15000
X285800Y15000
X283700Y14500
X277000Y15000
X310300Y15000
X275100Y15000
X292700Y15000
X268200Y15000
X266100Y14500
X259400Y15000
X250600Y15000
X248500Y14500
X241800Y15000
X233000Y15000
X49000Y112000
M30