M48
;GenerationSoftware,Autodesk,EAGLE,9.6.2*%
;CreationDate,2023-04-14T19:46:58Z*%
FMAT,2
ICI,OFF
METRIC,TZ,000.000
T4C0.300
T3C0.350
T2C0.500
T1C1.016
%
G90
M71
T1
X321635Y5705
X80901Y10810
X78361Y10810
X75821Y10810
X78300Y5705
X197488Y10810
X200028Y10810
X202568Y10810
X199968Y5705
X319156Y10810
X321696Y10810
X324236Y10810
T2
X56284Y2567
X77658Y20682
X76709Y18433
X78408Y19383
X75959Y19732
X77483Y41732
X78133Y42107
X77584Y40058
X78233Y40433
X78883Y40808
X76834Y41357
X86733Y46982
X87383Y47357
X86834Y45308
X87483Y45683
X88133Y46058
X86084Y46607
X105858Y36857
X106508Y37232
X105959Y35183
X106608Y35558
X107258Y35933
X105209Y36482
X118983Y44482
X119633Y44857
X119733Y43183
X120383Y43558
X15108Y126982
X15758Y127357
X15209Y125308
X15858Y125683
X16508Y126058
X14459Y126607
X34108Y116732
X34758Y117107
X34209Y115058
X34858Y115433
X35508Y115808
X33459Y116357
X43358Y121982
X44008Y122357
X43459Y120308
X44108Y120683
X44758Y121058
X42709Y121607
X44108Y143732
X44758Y144107
X44209Y142058
X44858Y142433
X45508Y142808
X43459Y143357
X57233Y151482
X57883Y151857
X57983Y150183
X58633Y150558
X45077Y20107
X44427Y20482
X44976Y18433
X44327Y18808
X43677Y19183
X45726Y19732
X44202Y41732
X43552Y42107
X44101Y40058
X43452Y40433
X42802Y40808
X44851Y41357
X34952Y46982
X34302Y47357
X34851Y45308
X34202Y45683
X33552Y46058
X35601Y46607
X15827Y36857
X15177Y37232
X15726Y35183
X14427Y35933
X16476Y36482
X2702Y44482
X2052Y44857
X1952Y43183
X1302Y43558
X106577Y126982
X105927Y127357
X106476Y125308
X105827Y125683
X105177Y126058
X107226Y126607
X87577Y116732
X86927Y117107
X87476Y115058
X86827Y115433
X86177Y115808
X88226Y116357
X78327Y121982
X77677Y122357
X78226Y120308
X77577Y120683
X76927Y121058
X78976Y121607
X77577Y143732
X76927Y144107
X77476Y142058
X76827Y142433
X76177Y142808
X78226Y143357
X64452Y151482
X63802Y151857
X63702Y150183
X63052Y150558
X120327Y118982
X119677Y119357
X119577Y117683
X118927Y118058
X1358Y118982
X2008Y119357
X2108Y117683
X2758Y118058
X104892Y76050
X104892Y75300
X103392Y76800
X103392Y76050
X103392Y75300
X104892Y76800
X104892Y86675
X104892Y85925
X103392Y87425
X103392Y86675
X103392Y85925
X104892Y87425
X16793Y76050
X16793Y75300
X18293Y76800
X18293Y76050
X18293Y75300
X16793Y76800
X16793Y86675
X16793Y85925
X18293Y87425
X18293Y86675
X18293Y85925
X16793Y87425
X187169Y893
X185769Y1817
X186419Y2192
X177852Y893
X177202Y1268
X179251Y1817
X178602Y2192
X177952Y2567
X199326Y20632
X198377Y18433
X200076Y19333
X197627Y19732
X199151Y41732
X199801Y42107
X199252Y40058
X199901Y40433
X200551Y40808
X198502Y41357
X208401Y46982
X209051Y47357
X208502Y45308
X209151Y45683
X209801Y46058
X207752Y46607
X227526Y36857
X228176Y37232
X227627Y35183
X228276Y35558
X228926Y35933
X226877Y36482
X240651Y44482
X241301Y44857
X241401Y43183
X242051Y43558
X136776Y126982
X137426Y127357
X136877Y125308
X137526Y125683
X138176Y126058
X136127Y126607
X155776Y116732
X156426Y117107
X155877Y115058
X156526Y115433
X157176Y115808
X155127Y116357
X165026Y121982
X165676Y122357
X165127Y120308
X165776Y120683
X166426Y121058
X164377Y121607
X165776Y143732
X166426Y144107
X165877Y142058
X166526Y142433
X167176Y142808
X165127Y143357
X178901Y151482
X179551Y151857
X179651Y150183
X180301Y150558
X166745Y20107
X166095Y20482
X166644Y18433
X165995Y18808
X165345Y19183
X167394Y19732
X165870Y41732
X165220Y42107
X165769Y40058
X165120Y40433
X164470Y40808
X166519Y41357
X156620Y46982
X155970Y47357
X156519Y45308
X155870Y45683
X155220Y46058
X157269Y46607
X137495Y36857
X136845Y37232
X137394Y35183
X136745Y35558
X136095Y35933
X138144Y36482
X124370Y44482
X123720Y44857
X123620Y43183
X122970Y43558
X228245Y126982
X227595Y127357
X228144Y125308
X227495Y125683
X226845Y126058
X228894Y126607
X209245Y116732
X208595Y117107
X209144Y115058
X208495Y115433
X207845Y115808
X209894Y116357
X199995Y121982
X199345Y122357
X199894Y120308
X199245Y120683
X198595Y121058
X200644Y121607
X199245Y143732
X198595Y144107
X199144Y142058
X198495Y142433
X197845Y142808
X199894Y143357
X186120Y151482
X185470Y151857
X185370Y150183
X184720Y150558
X241995Y118982
X241345Y119357
X241245Y117683
X240595Y118058
X123676Y119357
X123776Y117683
X124426Y118058
X226560Y76050
X226560Y75300
X225060Y76800
X225060Y76050
X225060Y75300
X226560Y76800
X226560Y86675
X226560Y85925
X225060Y87425
X225060Y86675
X225060Y85925
X226560Y87425
X138461Y76050
X138461Y75300
X139961Y76800
X139961Y76050
X139961Y75300
X138461Y76800
X138461Y86675
X138461Y85925
X139961Y87425
X139961Y86675
X139961Y85925
X138461Y87425
X308837Y893
X307437Y1817
X308087Y2192
X299520Y893
X298870Y1268
X300919Y1817
X300270Y2192
X299620Y2567
X320944Y20532
X320045Y18433
X321694Y19233
X319295Y19732
X320819Y41732
X321469Y42107
X320920Y40058
X321569Y40433
X322219Y40808
X320170Y41357
X330069Y46982
X330719Y47357
X330170Y45308
X330819Y45683
X331469Y46058
X329420Y46607
X349194Y36857
X349844Y37232
X349295Y35183
X349944Y35558
X350594Y35933
X348545Y36482
X362319Y44482
X362969Y44857
X363069Y43183
X363719Y43558
X258444Y126982
X259094Y127357
X258545Y125308
X259194Y125683
X259844Y126058
X257795Y126607
X277444Y116732
X278094Y117107
X277545Y115058
X278194Y115433
X278844Y115808
X276795Y116357
X286694Y121982
X287344Y122357
X286795Y120308
X287444Y120683
X288094Y121058
X286045Y121607
X287444Y143732
X288094Y144107
X287545Y142058
X288194Y142433
X288844Y142808
X286795Y143357
X300569Y151482
X301219Y151857
X301319Y150183
X301969Y150558
X288412Y20107
X287763Y20482
X288312Y18433
X287662Y18808
X287013Y19183
X289062Y19732
X287537Y41732
X286888Y42107
X287437Y40058
X286787Y40433
X286138Y40808
X288187Y41357
X278287Y46982
X277638Y47357
X278187Y45308
X277537Y45683
X276888Y46058
X278937Y46607
X259162Y36857
X258513Y37232
X259062Y35183
X258412Y35558
X257763Y35933
X259812Y36482
X246037Y44482
X245388Y44857
X245287Y43183
X244638Y43558
X349912Y126982
X349263Y127357
X349812Y125308
X349162Y125683
X348513Y126058
X350562Y126607
X330912Y116732
X330263Y117107
X330812Y115058
X330162Y115433
X329513Y115808
X331562Y116357
X321662Y121982
X321013Y122357
X321562Y120308
X320912Y120683
X320263Y121058
X322312Y121607
X320912Y143732
X320263Y144107
X320812Y142058
X320162Y142433
X319513Y142808
X321562Y143357
X307787Y151482
X307138Y151857
X307037Y150183
X306388Y150558
X363662Y118982
X363013Y119357
X362912Y117683
X362263Y118058
X244694Y118982
X245344Y119357
X245444Y117683
X246094Y118058
X348227Y76050
X348227Y75300
X346727Y76800
X346727Y76050
X346727Y75300
X348227Y76800
X348227Y86675
X348227Y85925
X346727Y87425
X346727Y86675
X346727Y85925
X348227Y87425
X260129Y76050
X260129Y75300
X261629Y76800
X261629Y76050
X261629Y75300
X260129Y76800
X260129Y86675
X260129Y85925
X261629Y87425
X261629Y86675
X261629Y85925
X260129Y87425
X15077Y35558
X65501Y893
X64102Y1817
X64751Y2192
X56184Y893
X55534Y1268
X57584Y1817
X56934Y2192
X123026Y118982
T3
X304670Y15733
X183002Y15733
X61335Y15733
T4
X94924Y73086
X90980Y72029
X82577Y59401
X58143Y75695
X57243Y76295
X59193Y69545
X58593Y60095
X59193Y45995
X57543Y27995
X181985Y54650
X181810Y30500
X181810Y71975
X181810Y64100
X181810Y60250
X168860Y45375
X181810Y48350
X181810Y40475
X181810Y36450
X181810Y24550
X181810Y20700
X192310Y24725
X174635Y28575
X171660Y25600
X189598Y27438
X192485Y47650
X189598Y50538
X174460Y51500
X159216Y68402
X138214Y56479
X174132Y77216
X167312Y73279
X163978Y71354
X144621Y75131
X153673Y65404
X146853Y61466
X143367Y59454
X133061Y53504
X129727Y51579
X138463Y44498
X132959Y61730
X128895Y62819
X139456Y48203
X158404Y55809
X159461Y59753
X152726Y73344
X159741Y94997
X138914Y107224
X174832Y86486
X168012Y90424
X164678Y92349
X158271Y111001
X154373Y98299
X147553Y102236
X144067Y104249
X133761Y110199
X130427Y112124
X128663Y101018
X140834Y114400
X139745Y118464
X132368Y102011
X148429Y89404
X152373Y90461
X160776Y103089
X183035Y107840
X183210Y131990
X183210Y90515
X183210Y98390
X183210Y102240
X196160Y117115
X183210Y114140
X183210Y122015
X183210Y126040
X183210Y137940
X183210Y141790
X172710Y137765
X190385Y133915
X193360Y136890
X175423Y135052
X172535Y114840
X175423Y111952
X190560Y110990
X205805Y94088
X226807Y106011
X190888Y85274
X197708Y89211
X201043Y91136
X220400Y87359
X211348Y97086
X218168Y101024
X221654Y103036
X231960Y108986
X235294Y110911
X226558Y117992
X232061Y100760
X236125Y99671
X225565Y114287
X206617Y106681
X205560Y102737
X212295Y89146
X205280Y67493
X226107Y55266
X190188Y76004
X197008Y72066
X200343Y70141
X206750Y51489
X210648Y64191
X217468Y60254
X220954Y58241
X231260Y52291
X234594Y50366
X236358Y61472
X224186Y48090
X225275Y44026
X232653Y60479
X216592Y73086
X212648Y72029
X204245Y59401
X179810Y75695
X178910Y76295
X180860Y69545
X180260Y60095
X180860Y45995
X179210Y27995
X303653Y54650
X303478Y30500
X303478Y71975
X303478Y64100
X303478Y60250
X290528Y45375
X303478Y48350
X303478Y40475
X303478Y36450
X303478Y24550
X303478Y20700
X313978Y24725
X296303Y28575
X293328Y25600
X311266Y27438
X314153Y47650
X311266Y50538
X296128Y51500
X280884Y68402
X259882Y56479
X295800Y77216
X288980Y73279
X285646Y71354
X266289Y75131
X275340Y65404
X268520Y61466
X265035Y59454
X254729Y53504
X251395Y51579
X260130Y44498
X254627Y61730
X250563Y62819
X261123Y48203
X280072Y55809
X281129Y59753
X274393Y73344
X281409Y94997
X260582Y107224
X296500Y86486
X289680Y90424
X286346Y92349
X279939Y111001
X276040Y98299
X269220Y102236
X265735Y104249
X255429Y110199
X252095Y112124
X250330Y101018
X262502Y114400
X261413Y118464
X254036Y102011
X270097Y89404
X274041Y90461
X282443Y103089
X304703Y107840
X304878Y131990
X304878Y90515
X304878Y98390
X304878Y102240
X317828Y117115
X304878Y114140
X304878Y122015
X304878Y126040
X304878Y137940
X304878Y141790
X294378Y137765
X312053Y133915
X315028Y136890
X297091Y135052
X294203Y114840
X297091Y111952
X312228Y110990
X327473Y94088
X348475Y106011
X312556Y85274
X319376Y89211
X322710Y91136
X342067Y87359
X333016Y97086
X339836Y101024
X343322Y103036
X353627Y108986
X356962Y110911
X348226Y117992
X353729Y100760
X357793Y99671
X347233Y114287
X328285Y106681
X327228Y102737
X333963Y89146
X326948Y67493
X347775Y55266
X311856Y76004
X318676Y72066
X322010Y70141
X328417Y51489
X332316Y64191
X339136Y60254
X342622Y58241
X352927Y52291
X356262Y50366
X358026Y61472
X345854Y48090
X346943Y44026
X354321Y60479
X338260Y73086
X334315Y72029
X325913Y59401
X301478Y75695
X300578Y76295
X302528Y69545
X301928Y60095
X302528Y45995
X300878Y27995
X60843Y51500
X71889Y47497
X49843Y47407
X66114Y53272
X55843Y53407
X60843Y59407
X60843Y67157
X60843Y19907
X60843Y27875
X66070Y30303
X71843Y24407
X49843Y24407
X55843Y30157
X60843Y35657
X60843Y43657
X69143Y52745
X67643Y48445
X66243Y32145
X68143Y25345
X61943Y75445
X35083Y66372
X37139Y54804
X26038Y73852
X39253Y62693
X34235Y71656
X41931Y70326
X48642Y74201
X7723Y50576
X14623Y54560
X19339Y51246
X17120Y43300
X6120Y62352
X14099Y60031
X21363Y58451
X28291Y62451
X59448Y17381
X59193Y75525
X55543Y78185
X35083Y96117
X26092Y88553
X37038Y107690
X33981Y90666
X39235Y99494
X41931Y92164
X48642Y88289
X7723Y111914
X14623Y107930
X14112Y102189
X6120Y100137
X17120Y119190
X19099Y111119
X21363Y104039
X28291Y100039
X55543Y84305
X5081Y50199
X171573Y113877
X60843Y110990
X49796Y114993
X71843Y115082
X55571Y109218
X65843Y109082
X60843Y103082
X60843Y95332
X60843Y142582
X60843Y134615
X55615Y132187
X49843Y138082
X71843Y138082
X65843Y132332
X60843Y126832
X60843Y118832
X60843Y87365
X6075Y114013
X56768Y85514
X86602Y96117
X84546Y107686
X95647Y88637
X82433Y99797
X87451Y90834
X79754Y92164
X73043Y88289
X113962Y111914
X107062Y107930
X102346Y111243
X104565Y119190
X115565Y100137
X107586Y102459
X100323Y104039
X93394Y100039
X66143Y84305
X61837Y145059
X62593Y86865
X86602Y66372
X95593Y73937
X84647Y54800
X87704Y71823
X82451Y62996
X79754Y70326
X73043Y74201
X113962Y50576
X107062Y54560
X107574Y60301
X115565Y62352
X104565Y43300
X102586Y51371
X100323Y58451
X93394Y62451
X115610Y48477
X64918Y76876
X68707Y24623
X67293Y31496
X68443Y47745
X68649Y53538
X61543Y53893
X66143Y78185
X116604Y112291
X66568Y82696
X182510Y51500
X193557Y47497
X171510Y47407
X187782Y53272
X177510Y53407
X182510Y59407
X182510Y67157
X182510Y19907
X182510Y27875
X187738Y30303
X193510Y24407
X171510Y24407
X177510Y30157
X182510Y35657
X182510Y43657
X190810Y52745
X189310Y48445
X187910Y32145
X189810Y25345
X183610Y75445
X156751Y66372
X158807Y54804
X147706Y73852
X160920Y62693
X155902Y71656
X163599Y70326
X170310Y74201
X129391Y50576
X136291Y54560
X141007Y51246
X138788Y43300
X127788Y62352
X135767Y60031
X143030Y58451
X149959Y62451
X181116Y17381
X180860Y75525
X177210Y78185
X156751Y96117
X147760Y88553
X158706Y107690
X155649Y90666
X160902Y99494
X163599Y92164
X170310Y88289
X129391Y111914
X136291Y107930
X135779Y102189
X127788Y100137
X138788Y119190
X140767Y111119
X143030Y104039
X149959Y100039
X177210Y84305
X126749Y50199
X176785Y79894
X182510Y110990
X171464Y114993
X193510Y115082
X177239Y109218
X187510Y109082
X182510Y103082
X182510Y95332
X182510Y142582
X182510Y134615
X177283Y132187
X171510Y138082
X193510Y138082
X187510Y132332
X182510Y126832
X182510Y118832
X182510Y87365
X127743Y114013
X178435Y85514
X208270Y96117
X206214Y107686
X217315Y88637
X204100Y99797
X209118Y90834
X201422Y92164
X194711Y88289
X235630Y111914
X228730Y107930
X224014Y111243
X226233Y119190
X237233Y100137
X229254Y102459
X221990Y104039
X215062Y100039
X187810Y84305
X183505Y145059
X184260Y86865
X208270Y66372
X217261Y73937
X206315Y54800
X209372Y71823
X204118Y62996
X201422Y70326
X194711Y74201
X235630Y50576
X228730Y54560
X229241Y60301
X237233Y62352
X226233Y43300
X224254Y51371
X221990Y58451
X215062Y62451
X237278Y48477
X186585Y76876
X190375Y24623
X188961Y31496
X190110Y47745
X190317Y53538
X62593Y29918
X187810Y78185
X238272Y112291
X188235Y82696
X304178Y51500
X315225Y47497
X293178Y47407
X309450Y53272
X299178Y53407
X304178Y59407
X304178Y67157
X304178Y19907
X304178Y27875
X309406Y30303
X315178Y24407
X293178Y24407
X299178Y30157
X304178Y35657
X304178Y43657
X312478Y52745
X310978Y48445
X309578Y32145
X311478Y25345
X305278Y75445
X278418Y66372
X280474Y54804
X269374Y73852
X282588Y62693
X277570Y71656
X285266Y70326
X291978Y74201
X251058Y50576
X257958Y54560
X262675Y51246
X260455Y43300
X249455Y62352
X257435Y60031
X264698Y58451
X271626Y62451
X302784Y17381
X302528Y75525
X298878Y78185
X278418Y96117
X269428Y88553
X280374Y107690
X277317Y90666
X282570Y99494
X285266Y92164
X291978Y88289
X251058Y111914
X257958Y107930
X257447Y102189
X249455Y100137
X260455Y119190
X262435Y111119
X264698Y104039
X271626Y100039
X248416Y50199
X298453Y79894
X298878Y84305
X304178Y110990
X293132Y114993
X315178Y115082
X298907Y109218
X309178Y109082
X304178Y103082
X304178Y95332
X304178Y142582
X304178Y134615
X298950Y132187
X293178Y138082
X315178Y138082
X309178Y132332
X304178Y126832
X304178Y118832
X249411Y114013
X300103Y85514
X304178Y87365
X329938Y96117
X327882Y107686
X338982Y88637
X325768Y99797
X330786Y90834
X323090Y92164
X316378Y88289
X357298Y111914
X350398Y107930
X345681Y111243
X347901Y119190
X358901Y100137
X350921Y102459
X343658Y104039
X336730Y100039
X309478Y84305
X305172Y145059
X305928Y86865
X329938Y66372
X338928Y73937
X327982Y54800
X331040Y71823
X325786Y62996
X323090Y70326
X316378Y74201
X357298Y50576
X350398Y54560
X350909Y60301
X358901Y62352
X347901Y43300
X345921Y51371
X343658Y58451
X336730Y62451
X358946Y48477
X308253Y76876
X312043Y24623
X310629Y31496
X311778Y47745
X311985Y53538
X61543Y71975
X309478Y78185
X359940Y112291
X309903Y82696
X61543Y64100
X50868Y47300
X61729Y56739
X61543Y48350
X61543Y40475
X61455Y32688
X61543Y24550
X61543Y20700
X71693Y25600
X53843Y27525
X50955Y24638
X68893Y28400
X71780Y48613
X68893Y51500
X54018Y50450
X37505Y66963
X17267Y54066
X53165Y76004
X46345Y72066
X26458Y72911
X40063Y68225
X32705Y64191
X25885Y60254
X19097Y56436
X12093Y52291
X8759Y50366
X18078Y44026
X10820Y60447
X6875Y61504
X19103Y47851
X38051Y55457
X39108Y59401
X30761Y71758
X36805Y94315
X15517Y105393
X52465Y85274
X45645Y89211
X36433Y106856
X39177Y92731
X32005Y97086
X25185Y101024
X18484Y104993
X11393Y108986
X8059Y110911
X7228Y99671
X17820Y114167
X16763Y118111
X11053Y100696
X27113Y88089
X31058Y89146
X37586Y102553
X60143Y108597
X59093Y132572
X60143Y90515
X60143Y98390
X70818Y115190
X59957Y105751
X60143Y114140
X60143Y122015
X60230Y129802
X60143Y137940
X60143Y141790
X49993Y136890
X67843Y134965
X70730Y137852
X52793Y134090
X49905Y113877
X52793Y110990
X67668Y112040
X84180Y95527
X104418Y108424
X68521Y86486
X75341Y90424
X95227Y89579
X81622Y94265
X88980Y98299
X95800Y102236
X102588Y106054
X109592Y110199
X112926Y112124
X103608Y118464
X110865Y102043
X114810Y100986
X102583Y114639
X83634Y107033
X82577Y103089
X90924Y90732
X84880Y68175
X106168Y57097
X69221Y77216
X76041Y73279
X85252Y55634
X82508Y69759
X89680Y65404
X96500Y61466
X103201Y57497
X110292Y53504
X113626Y51579
X114458Y62819
X103865Y48323
X104922Y44378
X110633Y61794
X94572Y74401
X90627Y73344
X84099Y59937
X55943Y77045
X54743Y83345
X59643Y87545
X65743Y85445
X66943Y79145
X62718Y13870
X63718Y13870
X64718Y13870
X65718Y13870
X65718Y12870
X65718Y11870
X65718Y10870
X183210Y53893
X184260Y29918
X183210Y71975
X183210Y64100
X172535Y47300
X183396Y56739
X183210Y48350
X183210Y40475
X183123Y32688
X183210Y24550
X183210Y20700
X193360Y25600
X175510Y27525
X172623Y24638
X190560Y28400
X193448Y48613
X190560Y51500
X175685Y50450
X159173Y66963
X138935Y54066
X174832Y76004
X168012Y72066
X148126Y72911
X161731Y68225
X154373Y64191
X147553Y60254
X140765Y56436
X133761Y52291
X130427Y50366
X139745Y44026
X132488Y60447
X128543Y61504
X140770Y47851
X159719Y55457
X160776Y59401
X152429Y71758
X158473Y94315
X137185Y105393
X174132Y85274
X167312Y89211
X158101Y106856
X160845Y92731
X153673Y97086
X146853Y101024
X140152Y104993
X133061Y108986
X129727Y110911
X128895Y99671
X139488Y114167
X138431Y118111
X132720Y100696
X148781Y88089
X152726Y89146
X159254Y102553
X181810Y108597
X180760Y132572
X181810Y90515
X181810Y98390
X192485Y115190
X181624Y105751
X181810Y114140
X181810Y122015
X181898Y129802
X181810Y137940
X181810Y141790
X171660Y136890
X189510Y134965
X192398Y137852
X174460Y134090
X174460Y110990
X189335Y112040
X205848Y95527
X226086Y108424
X190188Y86486
X197008Y90424
X216895Y89579
X203290Y94265
X210648Y98299
X217468Y102236
X224256Y106054
X231260Y110199
X234594Y112124
X225275Y118464
X232533Y102043
X236478Y100986
X224250Y114639
X205302Y107033
X204245Y103089
X212592Y90732
X206548Y68175
X227836Y57097
X190888Y77216
X197708Y73279
X206920Y55634
X204176Y69759
X211348Y65404
X218168Y61466
X224869Y57497
X231960Y53504
X235294Y51579
X236125Y62819
X225533Y48323
X226590Y44378
X232300Y61794
X216240Y74401
X212295Y73344
X205767Y59937
X177610Y77045
X176410Y83345
X181310Y87545
X187410Y85445
X188610Y79145
X184385Y13870
X185385Y13870
X186385Y13870
X187385Y13870
X187385Y12870
X187385Y11870
X187385Y10870
X304878Y53893
X305928Y29918
X304878Y71975
X304878Y64100
X294203Y47300
X305064Y56739
X304878Y48350
X304878Y40475
X304791Y32688
X304878Y24550
X304878Y20700
X315028Y25600
X297178Y27525
X294291Y24638
X312228Y28400
X315116Y48613
X312228Y51500
X297353Y50450
X280841Y66963
X260603Y54066
X296500Y76004
X289680Y72066
X269794Y72911
X283398Y68225
X276040Y64191
X269220Y60254
X262432Y56436
X255429Y52291
X252095Y50366
X261413Y44026
X254155Y60447
X250211Y61504
X262438Y47851
X281386Y55457
X282443Y59401
X274097Y71758
X55118Y79894
X280141Y94315
X258853Y105393
X295800Y85274
X288980Y89211
X279769Y106856
X282512Y92731
X275340Y97086
X268520Y101024
X261820Y104993
X254729Y108986
X251395Y110911
X250563Y99671
X261155Y114167
X260098Y118111
X254388Y100696
X270449Y88089
X274393Y89146
X280921Y102553
X303478Y108597
X302428Y132572
X303478Y90515
X303478Y98390
X314153Y115190
X303292Y105751
X303478Y114140
X303478Y122015
X303566Y129802
X303478Y137940
X303478Y141790
X293328Y136890
X311178Y134965
X314066Y137852
X296128Y134090
X293241Y113877
X296128Y110990
X311003Y112040
X327516Y95527
X347753Y108424
X311856Y86486
X318676Y90424
X338563Y89579
X324958Y94265
X332316Y98299
X339136Y102236
X345924Y106054
X352927Y110199
X356262Y112124
X346943Y118464
X354201Y102043
X358145Y100986
X345918Y114639
X326970Y107033
X325913Y103089
X334260Y90732
X328216Y68175
X349503Y57097
X312556Y77216
X319376Y73279
X328588Y55634
X325844Y69759
X333016Y65404
X339836Y61466
X346536Y57497
X353627Y53504
X356962Y51579
X357793Y62819
X347201Y48323
X348258Y44378
X353968Y61794
X337907Y74401
X333963Y73344
X327435Y59937
X299278Y77045
X298078Y83345
X302978Y87545
X309078Y85445
X310278Y79145
X306053Y13870
X307053Y13870
X308053Y13870
X309053Y13870
X309053Y12870
X309053Y11870
X309053Y10870
X60318Y54650
X60143Y30500
X60143Y71975
X60143Y64100
X60143Y60250
X47193Y45375
X60143Y48350
X60143Y40475
X60143Y36450
X60143Y24550
X60143Y20700
X70643Y24725
X52968Y28575
X49993Y25600
X67930Y27438
X70818Y47650
X67930Y50538
X52793Y51500
X37548Y68402
X16546Y56479
X52465Y77216
X45645Y73279
X42310Y71354
X22953Y75131
X32005Y65404
X25185Y61466
X21699Y59454
X11393Y53504
X8059Y51579
X16795Y44498
X11292Y61730
X7228Y62819
X17788Y48203
X36736Y55809
X37793Y59753
X31058Y73344
X38073Y94997
X17246Y107224
X53165Y86486
X46345Y90424
X43010Y92349
X36603Y111001
X32705Y98299
X25885Y102236
X22399Y104249
X12093Y110199
X8759Y112124
X6995Y101018
X19167Y114400
X18078Y118464
X10700Y102011
X26761Y89404
X30705Y90461
X39108Y103089
X61368Y107840
X61543Y131990
X61543Y90515
X61543Y98390
X61543Y102240
X74493Y117115
X61543Y114140
X61543Y122015
X61543Y126040
X61543Y137940
X61543Y141790
X51043Y137765
X68718Y133915
X71693Y136890
X53755Y135052
X50868Y114840
X53755Y111952
X68893Y110990
X84137Y94088
X105139Y106011
X69221Y85274
X76041Y89211
X79375Y91136
X98732Y87359
X89680Y97086
X96500Y101024
X99986Y103036
X110292Y108986
X113626Y110911
X104890Y117992
X110394Y100760
X114458Y99671
X103897Y114287
X84949Y106681
X83892Y102737
X90627Y89146
X83612Y67493
X104439Y55266
X68521Y76004
X75341Y72066
X78675Y70141
X85082Y51489
X88980Y64191
X95800Y60254
X99286Y58241
X109592Y52291
X112926Y50366
X114690Y61472
X102519Y48090
X103608Y44026
X110985Y60479
M30