M48
;GenerationSoftware,Autodesk,EAGLE,9.6.2*%
;CreationDate,2023-04-13T17:58:20Z*%
FMAT,2
ICI,OFF
METRIC,TZ,000.000
T4C0.300
T3C0.350
T2C0.500
T1C1.016
%
G90
M71
T1
X182000Y8920
X182000Y14000
X184540Y14000
X187080Y14000
X187080Y8920
T2
X220324Y3890
X219949Y4540
X232907Y3140
X233282Y3790
X231233Y3241
X231608Y3890
X231983Y4540
X247112Y12134
X246362Y12134
X247112Y10634
X246362Y10634
X245581Y12134
X245581Y10634
X265124Y23915
X265124Y22415
X264374Y22415
X263593Y23915
X263593Y22415
X287124Y23915
X286374Y23915
X287124Y22415
X286374Y22415
X285593Y23915
X285593Y22415
X304874Y12165
X304124Y12165
X304874Y10665
X304124Y10665
X303343Y12165
X303343Y10665
X318999Y12165
X318249Y12165
X318999Y10665
X318249Y10665
X317468Y12165
X317468Y10665
X265249Y160165
X264499Y160165
X265249Y158665
X264499Y158665
X263718Y160165
X263718Y158665
X287124Y160165
X286374Y160165
X287124Y158665
X286374Y158665
X285593Y160165
X285593Y158665
X329707Y27285
X329332Y26635
X331006Y26535
X330631Y25885
X328941Y25959
X330240Y25209
X328775Y48877
X328400Y48228
X330074Y48127
X329699Y47478
X328009Y47551
X329308Y46801
X339650Y67752
X339275Y67103
X340949Y67002
X340574Y66353
X338884Y66426
X340183Y65676
X358775Y77627
X358400Y76978
X360074Y76877
X359699Y76228
X358009Y76301
X359308Y75551
X191400Y107002
X191025Y106353
X192699Y106252
X192324Y105603
X190634Y105676
X191933Y104926
X210650Y116877
X210275Y116228
X211949Y116127
X211574Y115478
X209884Y115551
X211183Y114801
X221525Y135752
X221150Y135103
X222824Y135002
X222449Y134353
X220759Y134426
X222058Y133676
X364746Y87871
X364371Y87222
X365670Y86472
X185073Y96002
X186372Y95252
X184682Y95325
X185981Y94575
X220539Y157398
X220164Y156749
X221838Y156648
X221463Y155999
X219773Y156072
X221072Y155322
X220793Y27585
X219494Y26835
X221825Y48877
X222200Y48228
X220526Y48127
X220901Y47478
X222591Y47551
X221292Y46801
X210950Y67752
X211325Y67103
X209651Y67002
X210026Y66353
X211716Y66426
X210417Y65676
X191825Y77627
X192200Y76978
X190526Y76877
X190901Y76228
X192591Y76301
X191292Y75551
X359200Y107002
X359575Y106353
X357901Y106252
X358276Y105603
X359966Y105676
X358667Y104926
X339950Y116877
X340325Y116228
X338651Y116127
X339026Y115478
X340716Y115551
X339417Y114801
X329075Y135752
X329450Y135103
X327776Y135002
X328151Y134353
X329841Y134426
X328542Y133676
X185854Y87871
X186229Y87222
X184930Y86472
X365528Y96002
X364229Y95252
X364619Y94575
X330062Y157398
X330437Y156749
X328763Y156648
X329138Y155999
X330827Y156072
X329528Y155322
X184478Y87216
X147575Y3140
X147950Y3790
X146276Y3890
X146651Y4540
X133693Y3140
X133318Y3790
X135367Y3241
X134992Y3890
X134617Y4540
X119488Y12134
X119488Y10634
X120238Y10634
X121019Y12134
X121019Y10634
X101476Y23915
X102226Y23915
X101476Y22415
X102226Y22415
X103007Y23915
X103007Y22415
X79476Y23915
X80226Y23915
X79476Y22415
X80226Y22415
X81007Y23915
X81007Y22415
X61726Y12165
X62476Y12165
X61726Y10665
X62476Y10665
X63257Y12165
X63257Y10665
X47601Y12165
X48351Y12165
X47601Y10665
X48351Y10665
X49132Y12165
X49132Y10665
X101351Y160165
X102101Y160165
X101351Y158665
X102101Y158665
X102882Y160165
X102882Y158665
X79476Y160165
X80226Y160165
X79476Y158665
X80226Y158665
X81007Y160165
X81007Y158665
X36893Y27285
X37268Y26635
X35594Y26535
X35969Y25885
X37659Y25959
X36360Y25209
X37825Y48877
X38200Y48228
X36526Y48127
X36901Y47478
X38591Y47551
X37292Y46801
X26950Y67752
X27325Y67103
X25651Y67002
X26026Y66353
X27716Y66426
X26417Y65676
X7825Y77627
X8200Y76978
X6526Y76877
X6901Y76228
X8591Y76301
X7292Y75551
X175200Y107002
X175575Y106353
X173901Y106252
X174276Y105603
X175966Y105676
X174667Y104926
X155950Y116877
X156325Y116228
X154651Y116127
X155026Y115478
X156716Y115551
X155417Y114801
X145075Y135752
X145450Y135103
X143776Y135002
X144151Y134353
X145841Y134426
X144542Y133676
X1854Y87871
X2229Y87222
X930Y86472
X181527Y96002
X180228Y95252
X181918Y95325
X180619Y94575
X146061Y157398
X146436Y156749
X144762Y156648
X145137Y155999
X146827Y156072
X145528Y155322
X145907Y27685
X147206Y26935
X144775Y48877
X144400Y48228
X146074Y48127
X145699Y47478
X144009Y47551
X145308Y46801
X155650Y67752
X155275Y67103
X156949Y67002
X156574Y66353
X154884Y66426
X156183Y65676
X174775Y77627
X174400Y76978
X176074Y76877
X175699Y76228
X174009Y76301
X175308Y75551
X7400Y107002
X7025Y106353
X8699Y106252
X8324Y105603
X6634Y105676
X7933Y104926
X26650Y116877
X26275Y116228
X27949Y116127
X27574Y115478
X25884Y115551
X27183Y114801
X37525Y135752
X37150Y135103
X38824Y135002
X38449Y134353
X36759Y134426
X38058Y133676
X180746Y87871
X180371Y87222
X181670Y86472
X1072Y96002
X2371Y95252
X1981Y94575
X36538Y157398
X36163Y156749
X37837Y156648
X37462Y155999
X35773Y156072
X37072Y155322
X182122Y87216
X264374Y23915
X219025Y3140
X218650Y3790
X120238Y12134
T3
X190000Y24000
T4
X113787Y109031
X116657Y102259
X117887Y101930
X94442Y119680
X88041Y119680
X88041Y118780
X87142Y119680
X94442Y118780
X95341Y119680
X65046Y79852
X68246Y74309
X69026Y74759
X68696Y73530
X65826Y80302
X64596Y80631
X68246Y108252
X65046Y102709
X65826Y102259
X64596Y101930
X69026Y107802
X68696Y109031
X88041Y62880
X88041Y63780
X87142Y62880
X114237Y74309
X117437Y79852
X116657Y80302
X117887Y80631
X113457Y74759
X113787Y73530
X138907Y12839
X141520Y12115
X142483Y10658
X143446Y9200
X142066Y6511
X143403Y7358
X140558Y13573
X135821Y16308
X253400Y78565
X264400Y72165
X258300Y65165
X254500Y58565
X239400Y54565
X227100Y51165
X251200Y52565
X258000Y40765
X261300Y29465
X246800Y45165
X242900Y38565
X239100Y31865
X226100Y29965
X235900Y25765
X231500Y18665
X243300Y17565
X248500Y48465
X256600Y62265
X240900Y35365
X234100Y23465
X262900Y73165
X263300Y73865
X263700Y74565
X253359Y103942
X253316Y91216
X244204Y92998
X236588Y92989
X225574Y104066
X216479Y113018
X229742Y92847
X222923Y81058
X214787Y72550
X221133Y92958
X213468Y93035
X205765Y92976
X197620Y103284
X198882Y92697
X190534Y92958
X195481Y82189
X224841Y93135
X240842Y93021
X209696Y93167
X195991Y93106
X253432Y93015
X254238Y93018
X255044Y93022
X275315Y116666
X264273Y110340
X261260Y119123
X257445Y125714
X261531Y140791
X264736Y153143
X253898Y131572
X240279Y131583
X228843Y134375
X249690Y139082
X245924Y145760
X242022Y152400
X246876Y164609
X238339Y158222
X234390Y165582
X227538Y155913
X251698Y135960
X259599Y122045
X244153Y149092
X237247Y160931
X265889Y111139
X266295Y110443
X266701Y109746
X297313Y104014
X286313Y110414
X292413Y117414
X296213Y124014
X311313Y128014
X323613Y131414
X299513Y130014
X292713Y141814
X289413Y153114
X303913Y137414
X307813Y144014
X311613Y150714
X324613Y152614
X314813Y156814
X319213Y163914
X307413Y165014
X302213Y134114
X294113Y120314
X309813Y147214
X316613Y159114
X287813Y109414
X287413Y108714
X287013Y108014
X297355Y78636
X297397Y91363
X306509Y89580
X314125Y89589
X325139Y78512
X334234Y69560
X320971Y89731
X327790Y101520
X335926Y110028
X329580Y89621
X337246Y89543
X344948Y89602
X353093Y79294
X351831Y89881
X360180Y89620
X355232Y100389
X325872Y89443
X309871Y89558
X341017Y89411
X354723Y89472
X297281Y89564
X296475Y89560
X295669Y89556
X275398Y65912
X286441Y72238
X289453Y63455
X293269Y56864
X289183Y41787
X285977Y29435
X296815Y51007
X310434Y50996
X321870Y48203
X301023Y43496
X304789Y36819
X308691Y30178
X303837Y17969
X312374Y24356
X316323Y16996
X323176Y26665
X299015Y46618
X291114Y60533
X306560Y33487
X313466Y21648
X284825Y71439
X284418Y72135
X284012Y72832
X91283Y65903
X102326Y72229
X105338Y63447
X109153Y56856
X105068Y41779
X101862Y29427
X112700Y50998
X126319Y50987
X137755Y48195
X116908Y43487
X120674Y36810
X124576Y30169
X119722Y17961
X128259Y24348
X132208Y16987
X139060Y26656
X114900Y46610
X106999Y60524
X122445Y33478
X129351Y21639
X100709Y71430
X100303Y72127
X99897Y72823
X69285Y78556
X80285Y72156
X74185Y65156
X70385Y58556
X55285Y54556
X42985Y51156
X67085Y52556
X73885Y40756
X77185Y29456
X62685Y45156
X58785Y38556
X54985Y31856
X41985Y29956
X51785Y25756
X47385Y18656
X59185Y17556
X64385Y48456
X72485Y62256
X56785Y35356
X49985Y23456
X78785Y73156
X79185Y73856
X79585Y74556
X69243Y103933
X69201Y91207
X60089Y92990
X52473Y92980
X41459Y104057
X32364Y113010
X45627Y92838
X38808Y81049
X30672Y72542
X37018Y92949
X29352Y93026
X21650Y92967
X13505Y103276
X14767Y92689
X6419Y92949
X11366Y82180
X40726Y93127
X56727Y93012
X25581Y93158
X11875Y93097
X69317Y93006
X70123Y93009
X70929Y93013
X91200Y116658
X80158Y110331
X77145Y119114
X73330Y125705
X77415Y140782
X80621Y153134
X69783Y131563
X56164Y131574
X44728Y134366
X65575Y139073
X61809Y145751
X57907Y152392
X62761Y164600
X54224Y158213
X50275Y165574
X43423Y155904
X67583Y135951
X75484Y122036
X60038Y149083
X53132Y160922
X81774Y111130
X82180Y110434
X82586Y109738
X113198Y104005
X102198Y110405
X108298Y117405
X112098Y124005
X127198Y128005
X139498Y131405
X115398Y130005
X108598Y141805
X105298Y153105
X119798Y137405
X123698Y144005
X127498Y150705
X140498Y152605
X130698Y156805
X135098Y163905
X123298Y165005
X118098Y134105
X109998Y120305
X125698Y147205
X249161Y102718
X103698Y109405
X103298Y108705
X102898Y108005
X113240Y78628
X113282Y91354
X122394Y89571
X130010Y89580
X141024Y78503
X150119Y69551
X136856Y89722
X143675Y101511
X151811Y110019
X145465Y89612
X153131Y89534
X160833Y89594
X168978Y79285
X167716Y89872
X176064Y89612
X171117Y100381
X141757Y89434
X125756Y89549
X156902Y89402
X170608Y89463
X113166Y89555
X112360Y89551
X111554Y89548
X250400Y76865
X265000Y70165
X259357Y50889
X255157Y44889
X244857Y25289
X240657Y19689
X229817Y11919
X104358Y71749
X118229Y57224
X121325Y50587
X133149Y31867
X135899Y25429
X137208Y12157
X253400Y51765
X262528Y30745
X229269Y49877
X259222Y42871
X241572Y53266
X256797Y59124
X260709Y65758
X230100Y24965
X253500Y76865
X234100Y33665
X244600Y50765
X249000Y59165
X233668Y19183
X244307Y18736
X238196Y24851
X228195Y28493
X241423Y32509
X245263Y39144
X249106Y45819
X240700Y18565
X246000Y25565
X255400Y43365
X260300Y51165
X229547Y10969
X251884Y89696
X230149Y90542
X216510Y72127
X216449Y110496
X225358Y81053
X225536Y101536
X238221Y91280
X245923Y91209
X195843Y95561
X251936Y103005
X207900Y95479
X224830Y95554
X236664Y95458
X192067Y91339
X196999Y81902
X199240Y90252
X197393Y100734
X207485Y91287
X215150Y91278
X222853Y91288
X262241Y110820
X252106Y130066
X229338Y132671
X262536Y151908
X241492Y129471
X259320Y139559
X256781Y123445
X260570Y116740
X239300Y162286
X273793Y117430
X245256Y151803
X253787Y137178
X259620Y126882
X233755Y163445
X228048Y154456
X236400Y156690
X244554Y163530
X241419Y150067
X245244Y143424
X249104Y136758
X285713Y112414
X297313Y130814
X288185Y151833
X321444Y132702
X291491Y139707
X309141Y129312
X293916Y123454
X290004Y116820
X318813Y158014
X297213Y105714
X312713Y147614
X304313Y132914
X298313Y122714
X317045Y163395
X306406Y163842
X312517Y157727
X322518Y154086
X309291Y150069
X305451Y143435
X301608Y136759
X298829Y92882
X320564Y92036
X334203Y110451
X334265Y72082
X325356Y101525
X325178Y81043
X312492Y91299
X304791Y91369
X354870Y87017
X298777Y79573
X342813Y87100
X325883Y87024
X314049Y87120
X358646Y91239
X353715Y100676
X351474Y92326
X353321Y81845
X343228Y91291
X335563Y91300
X327860Y91290
X288473Y71758
X298608Y52512
X321375Y49907
X288177Y30670
X309221Y53107
X291393Y43020
X293933Y59133
X290143Y65839
X311413Y20292
X276920Y65148
X305457Y30775
X296926Y45400
X291093Y55696
X316958Y19133
X322665Y28123
X314313Y25888
X306159Y19048
X309294Y32512
X305469Y39154
X301609Y45820
X114492Y52503
X137260Y49899
X104062Y30661
X125106Y53098
X107278Y43011
X109818Y59125
X106028Y65830
X126052Y18925
X92805Y65140
X120517Y26739
X110958Y44382
X105884Y52393
X132843Y19124
X138550Y28114
X130198Y25880
X122044Y19039
X125179Y32503
X121354Y39145
X117494Y45811
X136894Y24905
X133482Y32995
X122767Y50035
X118462Y58179
X137896Y11448
X80885Y70156
X69285Y51756
X78413Y30736
X45154Y49868
X75107Y42862
X57457Y53258
X72682Y59115
X76594Y65750
X47785Y24556
X69385Y76856
X53885Y34956
X62285Y49656
X68285Y59856
X49553Y19175
X60192Y18727
X54081Y24843
X44080Y28484
X57308Y32501
X61147Y39135
X64990Y45811
X67769Y89687
X46034Y90533
X32395Y72118
X32333Y110487
X41243Y81044
X41421Y101527
X54106Y91271
X61808Y91200
X11728Y95553
X67821Y102997
X23785Y95470
X40715Y95545
X52549Y95449
X7952Y91331
X12884Y81894
X15125Y90243
X13278Y100725
X23370Y91278
X31035Y91270
X38738Y91280
X78125Y110812
X67991Y130058
X45223Y132662
X78421Y151900
X57377Y129463
X75205Y139550
X72666Y123436
X76455Y116731
X55185Y162277
X89678Y117421
X61141Y151794
X69672Y137170
X75505Y126874
X49640Y163436
X43933Y154447
X52285Y156681
X60439Y163521
X57304Y150058
X61129Y143415
X64989Y136749
X101598Y112405
X113198Y130805
X104070Y151824
X137329Y132693
X107376Y139699
X125026Y129303
X109801Y123446
X105889Y116811
X134698Y158005
X113098Y105705
X128598Y147605
X120198Y132905
X114198Y122705
X132930Y163386
X122291Y163834
X128402Y157718
X138403Y154077
X125175Y150060
X121336Y143426
X117493Y136750
X114714Y92874
X136449Y92028
X150088Y110443
X150150Y72074
X141241Y101516
X141062Y81034
X128377Y91290
X120675Y91360
X170755Y87008
X114662Y79564
X158698Y87091
X141768Y87015
X129934Y87112
X174531Y91230
X169599Y100667
X167358Y92317
X169205Y81836
X159113Y91283
X151448Y91291
X143745Y91281
X263200Y69365
X261200Y63465
X257500Y56765
X240400Y51165
X228700Y48265
X253300Y49965
X261400Y41665
X264800Y29465
X249800Y43465
X245900Y36665
X242200Y30165
X227800Y26865
X238200Y23465
X234200Y16765
X246600Y17465
X251500Y46665
X259600Y60565
X244100Y33565
X237200Y21565
X264200Y68865
X263800Y68165
X263400Y67465
X250386Y105690
X250291Y90855
X244182Y89637
X236529Y89491
X223129Y101500
X214768Y110183
X228540Y89728
X225402Y78564
X216537Y69519
X221161Y89509
X213322Y89487
X205843Y89441
X195785Y100262
X198041Y89555
X190238Y89669
X197044Y79281
X224782Y89637
X240870Y89572
X209737Y89496
X195895Y89471
X250358Y89739
X249552Y89735
X248746Y89732
X275343Y120114
X262448Y112779
X258338Y117461
X254386Y124016
X258086Y141625
X261425Y153207
X250597Y131053
X239359Y128188
X227093Y131344
X246718Y137334
X242779Y144111
X239000Y150566
X243342Y164687
X235197Y157380
X231395Y164194
X225801Y153105
X248639Y134262
X256627Y120297
X240994Y147220
X234052Y159196
X261515Y112163
X261108Y112860
X260702Y113556
X300313Y105714
X287513Y113214
X289513Y119114
X293213Y125814
X310313Y131414
X322013Y134314
X297413Y132614
X289313Y140914
X285913Y153114
X300913Y139114
X304813Y145914
X308513Y152414
X322913Y155714
X312513Y159114
X316513Y165814
X304113Y165114
X299213Y135914
X291113Y122014
X306613Y149014
X313513Y161014
X286513Y113714
X286913Y114414
X287313Y115114
X300327Y76888
X300422Y91723
X306532Y92941
X314184Y93087
X327584Y81078
X335945Y72396
X322173Y92850
X325311Y104015
X334176Y113059
X329552Y93069
X337391Y93091
X344870Y93137
X354928Y82316
X352673Y93023
X360475Y92909
X353669Y103297
X325931Y92941
X309843Y93006
X340976Y93082
X354818Y93107
X300355Y92839
X301161Y92843
X301968Y92847
X275370Y62464
X288265Y69799
X292375Y65117
X296327Y58563
X292627Y40954
X289289Y29371
X300116Y51525
X311354Y54390
X323620Y51235
X303996Y45244
X307935Y38467
X311714Y32012
X307372Y17892
X315516Y25198
X319318Y18384
X324912Y29473
X302074Y48316
X294086Y62281
X309719Y35358
X316661Y23382
X289198Y70415
X289605Y69719
X290011Y69022
X298352Y74318
X301552Y79860
X300772Y80310
X302002Y80640
X297572Y74768
X297902Y73538
X301552Y102718
X298352Y108260
X297572Y107810
X297902Y109040
X300772Y102268
X302002Y101938
X252361Y108260
X249941Y102268
X248711Y101938
X253141Y107810
X252811Y109040
X278557Y119689
X272157Y119689
X272157Y118789
X271257Y119689
X278557Y118789
X279457Y119689
X249161Y79860
X249941Y80310
X248711Y80640
X272157Y62889
X278557Y62889
X278557Y63789
X279457Y62889
X132498Y159105
X272157Y63789
X271257Y62889
X231257Y10789
X231937Y8164
X231156Y6601
X230375Y5039
X227357Y4889
X228758Y4155
X232719Y9726
X232719Y15196
X91255Y62455
X104150Y69790
X108260Y65108
X112212Y58554
X108512Y40945
X105174Y29362
X116001Y51517
X127239Y54381
X139505Y51226
X119880Y45235
X123819Y38458
X127599Y32004
X123256Y17883
X131401Y25190
X135203Y18375
X140797Y29464
X117959Y48308
X109971Y62273
X125604Y35349
X132546Y23374
X105083Y70406
X105490Y69710
X105896Y69013
X66285Y76856
X79085Y69356
X77085Y63456
X73385Y56756
X56285Y51156
X44585Y48256
X69185Y49956
X77285Y41656
X80685Y29456
X65685Y43456
X61785Y36656
X58085Y30156
X43685Y26856
X54085Y23456
X50085Y16756
X62485Y17456
X67385Y46656
X75485Y60556
X59985Y33556
X53085Y21556
X80085Y68856
X79685Y68156
X79285Y67456
X66271Y105681
X66176Y90846
X60066Y89628
X52414Y89482
X39014Y101491
X30653Y110174
X44425Y89720
X41287Y78555
X32422Y69510
X37046Y89501
X29207Y89478
X21728Y89433
X11670Y100253
X13925Y89547
X6123Y89661
X12929Y79272
X40667Y89629
X56755Y89564
X25622Y89487
X11780Y89463
X66243Y89730
X65437Y89726
X64631Y89723
X91228Y120106
X78333Y112771
X74223Y117453
X70271Y124007
X73971Y141616
X77309Y153198
X66482Y131044
X55244Y128179
X42978Y131335
X62603Y137325
X58664Y144103
X54884Y150557
X59227Y164678
X51082Y157371
X47280Y164185
X41686Y153097
X64524Y134253
X72512Y120288
X56879Y147212
X49937Y159187
X77400Y112155
X76993Y112851
X76587Y113547
X116198Y105705
X103398Y113205
X105398Y119105
X109098Y125805
X126198Y131405
X137898Y134305
X113298Y132605
X105198Y140905
X101798Y153105
X116798Y139105
X120698Y145905
X124398Y152405
X138798Y155705
X128398Y159105
X132398Y165805
X119998Y165105
X115098Y135905
X106998Y122005
X122498Y149005
X129398Y161005
X102398Y113705
X102798Y114405
X103198Y115105
X116212Y76880
X116307Y91715
X122417Y92933
X130069Y93078
X143469Y81069
X151830Y72387
X138058Y92841
X141196Y104006
X150061Y113050
X145437Y93060
X153276Y93082
X160755Y93128
X170813Y82307
X168558Y93014
X176360Y92900
X169554Y103289
X141816Y92932
X125728Y92997
X156861Y93074
X170703Y93098
X116240Y92831
X117046Y92834
X117852Y92838
X117437Y102709
X114237Y108252
X113457Y107802
M30