  0
SECTION
  2
HEADER
  9
$ACADVER
  1
AC1015
  9
$ACADMAINTVER
 70
     6
  9
$DWGCODEPAGE
  3
ANSI_1252
  9
$INSBASE
 10
0.0
 20
0.0
 30
0.0
  9
$EXTMIN
 10
25.4692944239
 20
-4.1473688582
 30
0.0
  9
$EXTMAX
 10
53.2314929777
 20
19.8954003543
 30
0.0
  9
$LIMMIN
 10
0.0
 20
0.0
  9
$LIMMAX
 10
12.0
 20
9.0
  9
$ORTHOMODE
 70
     0
  9
$REGENMODE
 70
     1
  9
$FILLMODE
 70
     1
  9
$QTEXTMODE
 70
     0
  9
$MIRRTEXT
 70
     1
  9
$LTSCALE
 40
1.0
  9
$ATTMODE
 70
     1
  9
$TEXTSIZE
 40
0.1377952756
  9
$TRACEWID
 40
0.05
  9
$TEXTSTYLE
  7
Standard
  9
$CLAYER
  8
0
  9
$CELTYPE
  6
ByLayer
  9
$CECOLOR
 62
   256
  9
$CELTSCALE
 40
1.0
  9
$DISPSILH
 70
     0
  9
$DIMSCALE
 40
1.0
  9
$DIMASZ
 40
0.13
  9
$DIMEXO
 40
0.0393700787
  9
$DIMDLI
 40
0.38
  9
$DIMRND
 40
0.0
  9
$DIMDLE
 40
0.0
  9
$DIMEXE
 40
0.0393700787
  9
$DIMTP
 40
0.0
  9
$DIMTM
 40
0.0
  9
$DIMTXT
 40
0.1377952756
  9
$DIMCEN
 40
0.09
  9
$DIMTSZ
 40
0.0
  9
$DIMTOL
 70
     0
  9
$DIMLIM
 70
     0
  9
$DIMTIH
 70
     1
  9
$DIMTOH
 70
     1
  9
$DIMSE1
 70
     0
  9
$DIMSE2
 70
     0
  9
$DIMTAD
 70
     1
  9
$DIMZIN
 70
     1
  9
$DIMBLK
  1

  9
$DIMASO
 70
     1
  9
$DIMSHO
 70
     1
  9
$DIMPOST
  1

  9
$DIMAPOST
  1

  9
$DIMALT
 70
     0
  9
$DIMALTD
 70
     2
  9
$DIMALTF
 40
25.4
  9
$DIMLFAC
 40
1.0
  9
$DIMTOFL
 70
     0
  9
$DIMTVP
 40
0.0
  9
$DIMTIX
 70
     0
  9
$DIMSOXD
 70
     0
  9
$DIMSAH
 70
     0
  9
$DIMBLK1
  1

  9
$DIMBLK2
  1

  9
$DIMSTYLE
  2
Standard
  9
$DIMCLRD
 70
     0
  9
$DIMCLRE
 70
     0
  9
$DIMCLRT
 70
     0
  9
$DIMTFAC
 40
1.0
  9
$DIMGAP
 40
0.06
  9
$DIMJUST
 70
     0
  9
$DIMSD1
 70
     0
  9
$DIMSD2
 70
     0
  9
$DIMTOLJ
 70
     1
  9
$DIMTZIN
 70
     1
  9
$DIMALTZ
 70
     0
  9
$DIMALTTZ
 70
     0
  9
$DIMUPT
 70
     0
  9
$DIMDEC
 70
     2
  9
$DIMTDEC
 70
     2
  9
$DIMALTU
 70
     2
  9
$DIMALTTD
 70
     2
  9
$DIMTXSTY
  7
Standard
  9
$DIMAUNIT
 70
     0
  9
$DIMADEC
 70
     2
  9
$DIMALTRND
 40
0.0
  9
$DIMAZIN
 70
     0
  9
$DIMDSEP
 70
    46
  9
$DIMATFIT
 70
     3
  9
$DIMFRAC
 70
     0
  9
$DIMLDRBLK
  1

  9
$DIMLUNIT
 70
     2
  9
$DIMLWD
 70
    -2
  9
$DIMLWE
 70
    -2
  9
$DIMTMOVE
 70
     0
  9
$LUNITS
 70
     2
  9
$LUPREC
 70
     2
  9
$SKETCHINC
 40
0.1
  9
$FILLETRAD
 40
0.5
  9
$AUNITS
 70
     0
  9
$AUPREC
 70
     2
  9
$MENU
  1
.
  9
$ELEVATION
 40
0.0
  9
$PELEVATION
 40
0.0
  9
$THICKNESS
 40
0.0
  9
$LIMCHECK
 70
     0
  9
$CHAMFERA
 40
0.0
  9
$CHAMFERB
 40
0.0
  9
$CHAMFERC
 40
0.0
  9
$CHAMFERD
 40
0.0
  9
$SKPOLY
 70
     0
  9
$TDCREATE
 40
2460094.807019479
  9
$TDUCREATE
 40
2460095.057019479
  9
$TDUPDATE
 40
2460094.807302616
  9
$TDUUPDATE
 40
2460095.057302616
  9
$TDINDWG
 40
0.0000000116
  9
$TDUSRTIMER
 40
0.0000000116
  9
$USRTIMER
 70
     1
  9
$ANGBASE
 50
0.0
  9
$ANGDIR
 70
     0
  9
$PDMODE
 70
     0
  9
$PDSIZE
 40
-1.0
  9
$PLINEWID
 40
0.0
  9
$SPLFRAME
 70
     0
  9
$SPLINETYPE
 70
     6
  9
$SPLINESEGS
 70
     8
  9
$HANDSEED
  5
1EE
  9
$SURFTAB1
 70
     6
  9
$SURFTAB2
 70
     6
  9
$SURFTYPE
 70
     6
  9
$SURFU
 70
     6
  9
$SURFV
 70
     6
  9
$UCSBASE
  2

  9
$UCSNAME
  2

  9
$UCSORG
 10
0.0
 20
0.0
 30
0.0
  9
$UCSXDIR
 10
1.0
 20
0.0
 30
0.0
  9
$UCSYDIR
 10
0.0
 20
1.0
 30
0.0
  9
$UCSORTHOREF
  2

  9
$UCSORTHOVIEW
 70
     0
  9
$UCSORGTOP
 10
0.0
 20
0.0
 30
0.0
  9
$UCSORGBOTTOM
 10
0.0
 20
0.0
 30
0.0
  9
$UCSORGLEFT
 10
0.0
 20
0.0
 30
0.0
  9
$UCSORGRIGHT
 10
0.0
 20
0.0
 30
0.0
  9
$UCSORGFRONT
 10
0.0
 20
0.0
 30
0.0
  9
$UCSORGBACK
 10
0.0
 20
0.0
 30
0.0
  9
$PUCSBASE
  2

  9
$PUCSNAME
  2

  9
$PUCSORG
 10
0.0
 20
0.0
 30
0.0
  9
$PUCSXDIR
 10
1.0
 20
0.0
 30
0.0
  9
$PUCSYDIR
 10
0.0
 20
1.0
 30
0.0
  9
$PUCSORTHOREF
  2

  9
$PUCSORTHOVIEW
 70
     0
  9
$PUCSORGTOP
 10
0.0
 20
0.0
 30
0.0
  9
$PUCSORGBOTTOM
 10
0.0
 20
0.0
 30
0.0
  9
$PUCSORGLEFT
 10
0.0
 20
0.0
 30
0.0
  9
$PUCSORGRIGHT
 10
0.0
 20
0.0
 30
0.0
  9
$PUCSORGFRONT
 10
0.0
 20
0.0
 30
0.0
  9
$PUCSORGBACK
 10
0.0
 20
0.0
 30
0.0
  9
$USERI1
 70
     0
  9
$USERI2
 70
     0
  9
$USERI3
 70
     0
  9
$USERI4
 70
     0
  9
$USERI5
 70
     0
  9
$USERR1
 40
0.0
  9
$USERR2
 40
0.0
  9
$USERR3
 40
0.0
  9
$USERR4
 40
0.0
  9
$USERR5
 40
0.0
  9
$WORLDVIEW
 70
     1
  9
$SHADEDGE
 70
     3
  9
$SHADEDIF
 70
    70
  9
$TILEMODE
 70
     1
  9
$MAXACTVP
 70
    64
  9
$PINSBASE
 10
0.0
 20
0.0
 30
0.0
  9
$PLIMCHECK
 70
     0
  9
$PEXTMIN
 10
1.0000000000E+20
 20
1.0000000000E+20
 30
1.0000000000E+20
  9
$PEXTMAX
 10
-1.0000000000E+20
 20
-1.0000000000E+20
 30
-1.0000000000E+20
  9
$PLIMMIN
 10
0.0
 20
0.0
  9
$PLIMMAX
 10
12.0
 20
9.0
  9
$UNITMODE
 70
     0
  9
$VISRETAIN
 70
     1
  9
$PLINEGEN
 70
     0
  9
$PSLTSCALE
 70
     1
  9
$TREEDEPTH
 70
  3020
  9
$CMLSTYLE
  2
Standard
  9
$CMLJUST
 70
     0
  9
$CMLSCALE
 40
1.0
  9
$PROXYGRAPHICS
 70
     1
  9
$MEASUREMENT
 70
     0
  9
$CELWEIGHT
370
    -1
  9
$ENDCAPS
280
     0
  9
$JOINSTYLE
280
     0
  9
$LWDISPLAY
290
     1
  9
$INSUNITS
 70
     1
  9
$HYPERLINKBASE
  1

  9
$STYLESHEET
  1

  9
$XEDIT
290
     1
  9
$CEPSNTYPE
380
     0
  9
$PSTYLEMODE
290
     1
  9
$FINGERPRINTGUID
  2
{810e9a70-29e4-4bc9-9edf-e3e905570699}
  9
$VERSIONGUID
  2
{FAEB1C32-E019-11D5-929B-00C0DF256EC4}
  9
$EXTNAMES
290
     1
  9
$PSVPSCALE
 40
0.0
  9
$OLESTARTUP
290
     0
  0
ENDSEC
  0
SECTION
  2
CLASSES
  0
CLASS
  1
ACDBDICTIONARYWDFLT
  2
AcDbDictionaryWithDefault
  3
ObjectDBX Classes
 90
        0
280
     0
281
     0
  0
CLASS
  1
VISUALSTYLE
  2
AcDbVisualStyle
  3
ObjectDBX Classes
 90
     4095
280
     0
281
     0
  0
CLASS
  1
MATERIAL
  2
AcDbMaterial
  3
ObjectDBX Classes
 90
     1153
280
     0
281
     0
  0
CLASS
  1
SCALE
  2
AcDbScale
  3
ObjectDBX Classes
 90
     1153
280
     0
281
     0
  0
CLASS
  1
TABLESTYLE
  2
AcDbTableStyle
  3
ObjectDBX Classes
 90
     4095
280
     0
281
     0
  0
CLASS
  1
MLEADERSTYLE
  2
AcDbMLeaderStyle
  3
ACDB_MLEADERSTYLE_CLASS
 90
     4095
280
     0
281
     0
  0
CLASS
  1
SUN
  2
AcDbSun
  3
SCENEOE
 90
     1153
280
     0
281
     0
  0
CLASS
  1
ACDBPLACEHOLDER
  2
AcDbPlaceHolder
  3
ObjectDBX Classes
 90
        0
280
     0
281
     0
  0
CLASS
  1
LAYOUT
  2
AcDbLayout
  3
ObjectDBX Classes
 90
        0
280
     0
281
     0
  0
ENDSEC
  0
SECTION
  2
TABLES
  0
TABLE
  2
VPORT
  5
8
330
0
100
AcDbSymbolTable
 70
     1
  0
VPORT
  5
29
330
8
100
AcDbSymbolTableRecord
100
AcDbViewportTableRecord
  2
*Active
 70
     0
 10
0.0
 20
0.0
 11
1.0
 21
1.0
 12
39.3503937008
 22
7.874015748
 13
0.0
 23
0.0
 14
0.5
 24
0.5
 15
0.5
 25
0.5
 16
0.0
 26
0.0
 36
1.0
 17
0.0
 27
0.0
 37
0.0
 40
24.5236245968
 41
1.1547005384
 42
50.0
 43
0.0
 44
0.0
 50
0.0
 51
0.0
 71
     0
 72
   100
 73
     1
 74
     3
 75
     0
 76
     0
 77
     0
 78
     0
281
     0
 65
     1
110
0.0
120
0.0
130
0.0
111
1.0
121
0.0
131
0.0
112
0.0
122
1.0
132
0.0
 79
     0
146
0.0
  0
ENDTAB
  0
TABLE
  2
LTYPE
  5
5
330
0
100
AcDbSymbolTable
 70
     6
  0
LTYPE
  5
14
330
5
100
AcDbSymbolTableRecord
100
AcDbLinetypeTableRecord
  2
ByBlock
 70
     0
  3

 72
    65
 73
     0
 40
0.0
  0
LTYPE
  5
15
330
5
100
AcDbSymbolTableRecord
100
AcDbLinetypeTableRecord
  2
ByLayer
 70
     0
  3

 72
    65
 73
     0
 40
0.0
  0
LTYPE
  5
16
330
5
100
AcDbSymbolTableRecord
100
AcDbLinetypeTableRecord
  2
Continuous
 70
     0
  3
Solid line
 72
    65
 73
     0
 40
0.0
  0
LTYPE
  5
6E
330
5
100
AcDbSymbolTableRecord
100
AcDbLinetypeTableRecord
  2
HIDDEN
 70
     0
  3
Hidden __ __ __ __ __ __ __ __ __ __ __ __ __ __
 72
    65
 73
     2
 40
0.075
 49
0.05
 74
     0
 49
-0.025
 74
     0
  0
LTYPE
  5
6F
330
5
100
AcDbSymbolTableRecord
100
AcDbLinetypeTableRecord
  2
PHANTOM
 70
     0
  3
Phantom ______  __  __  ______  __  __  ______
 72
    65
 73
     6
 40
0.5
 49
0.25
 74
     0
 49
-0.05
 74
     0
 49
0.05
 74
     0
 49
-0.05
 74
     0
 49
0.05
 74
     0
 49
-0.05
 74
     0
  0
LTYPE
  5
70
330
5
100
AcDbSymbolTableRecord
100
AcDbLinetypeTableRecord
  2
CENTER
 70
     0
  3
Center ____ _ ____ _ ____ _ ____ _ ____ _ ____
 72
    65
 73
     4
 40
0.4
 49
0.25
 74
     0
 49
-0.05
 74
     0
 49
0.05
 74
     0
 49
-0.05
 74
     0
  0
LTYPE
  5
71
330
5
100
AcDbSymbolTableRecord
100
AcDbLinetypeTableRecord
  2
CENTERX2
 70
     0
  3
Center (2x) ________  __  ________  __  _____
 72
    65
 73
     4
 40
0.8
 49
0.5
 74
     0
 49
-0.1
 74
     0
 49
0.1
 74
     0
 49
-0.1
 74
     0
  0
LTYPE
  5
72
330
5
100
AcDbSymbolTableRecord
100
AcDbLinetypeTableRecord
  2
DOT2
 70
     0
  3
Dot (.5x) ........................................
 72
    65
 73
     2
 40
0.025
 49
0.0
 74
     0
 49
-0.025
 74
     0
  0
ENDTAB
  0
TABLE
  2
LAYER
  5
2
330
0
100
AcDbSymbolTable
 70
     1
  0
LAYER
  5
10
330
2
100
AcDbSymbolTableRecord
100
AcDbLayerTableRecord
  2
0
 70
     0
 62
     7
  6
Continuous
370
    -3
390
F
  0
ENDTAB
  0
TABLE
  2
STYLE
  5
3
330
0
100
AcDbSymbolTable
 70
     1
  0
STYLE
  5
11
330
3
100
AcDbSymbolTableRecord
100
AcDbTextStyleTableRecord
  2
Standard
 70
     0
 40
0.0
 41
1.0
 50
0.0
 71
     0
 42
0.1377952756
  3
txt
  4

  0
ENDTAB
  0
TABLE
  2
VIEW
  5
6
330
0
100
AcDbSymbolTable
 70
     0
  0
ENDTAB
  0
TABLE
  2
UCS
  5
7
330
0
100
AcDbSymbolTable
 70
     0
  0
ENDTAB
  0
TABLE
  2
APPID
  5
9
330
0
100
AcDbSymbolTable
 70
     1
  0
APPID
  5
12
330
9
100
AcDbSymbolTableRecord
100
AcDbRegAppTableRecord
  2
ACAD
 70
     0
  0
ENDTAB
  0
TABLE
  2
DIMSTYLE
  5
A
330
0
100
AcDbSymbolTable
 70
     1
100
AcDbDimStyleTable
  0
DIMSTYLE
105
27
330
A
100
AcDbSymbolTableRecord
100
AcDbDimStyleTableRecord
  2
Standard
 70
     0
178
     0
340
11
  0
ENDTAB
  0
TABLE
  2
BLOCK_RECORD
  5
1
330
0
100
AcDbSymbolTable
 70
     1
  0
BLOCK_RECORD
  5
1F
330
1
100
AcDbSymbolTableRecord
100
AcDbBlockTableRecord
  2
*Model_Space
340
22
  0
BLOCK_RECORD
  5
1B
330
1
100
AcDbSymbolTableRecord
100
AcDbBlockTableRecord
  2
*Paper_Space
340
1E
  0
BLOCK_RECORD
  5
23
330
1
100
AcDbSymbolTableRecord
100
AcDbBlockTableRecord
  2
*Paper_Space0
340
26
  0
ENDTAB
  0
ENDSEC
  0
SECTION
  2
BLOCKS
  0
BLOCK
  5
20
330
1F
100
AcDbEntity
  8
0
100
AcDbBlockBegin
  2
*Model_Space
 70
     0
 10
0.0
 20
0.0
 30
0.0
  3
*Model_Space
  1

  0
ENDBLK
  5
21
330
1F
100
AcDbEntity
  8
0
100
AcDbBlockEnd
  0
BLOCK
  5
1C
330
1B
100
AcDbEntity
 67
     1
  8
0
100
AcDbBlockBegin
  2
*Paper_Space
 70
     0
 10
0.0
 20
0.0
 30
0.0
  3
*Paper_Space
  1

  0
ENDBLK
  5
1D
330
1B
100
AcDbEntity
 67
     1
  8
0
100
AcDbBlockEnd
  0
BLOCK
  5
24
330
23
100
AcDbEntity
  8
0
100
AcDbBlockBegin
  2
*Paper_Space0
 70
     0
 10
0.0
 20
0.0
 30
0.0
  3
*Paper_Space0
  1

  0
ENDBLK
  5
25
330
23
100
AcDbEntity
  8
0
100
AcDbBlockEnd
  0
ENDSEC
  0
SECTION
  2
ENTITIES
  0
ARC
  5
73
330
1F
100
AcDbEntity
  8
0
  6
Continuous
 62
     7
370
    25
100
AcDbCircle
 10
41.4412443625
 20
4.0980999946
 30
0.0
 40
0.0700000000000049
100
AcDbArc
 50
300.0
 51
30.0
  0
LINE
  5
74
330
1F
100
AcDbEntity
  8
0
  6
Continuous
 62
     7
370
    25
100
AcDbLine
 10
41.3376802979
 20
3.9574782164
 30
0.0
 11
41.4762443625
 21
4.0374782164
 31
0.0
  0
ARC
  5
75
330
1F
100
AcDbEntity
  8
0
  6
Continuous
 62
     7
370
    25
100
AcDbCircle
 10
41.3026802979
 20
4.0180999946
 30
0.0
 40
0.0699999999999943
100
AcDbArc
 50
210.0
 51
300.0
  0
LINE
  5
76
330
1F
100
AcDbEntity
  8
0
  6
Continuous
 62
     7
370
    25
100
AcDbLine
 10
41.2370585196
 20
3.9917602487
 30
0.0
 11
41.2420585196
 21
3.9830999946
 31
0.0
  0
ARC
  5
77
330
1F
100
AcDbEntity
  8
0
  6
Continuous
 62
     7
370
    25
100
AcDbCircle
 10
41.2976802979
 20
4.0267602487
 30
0.0
 40
0.0700000000000015
100
AcDbArc
 50
120.0
 51
210.0
  0
LINE
  5
78
330
1F
100
AcDbEntity
  8
0
  6
Continuous
 62
     7
370
    25
100
AcDbLine
 10
41.4012443625
 20
4.1673820269
 30
0.0
 11
41.2626802979
 21
4.0873820269
 31
0.0
  0
ARC
  5
79
330
1F
100
AcDbEntity
  8
0
  6
Continuous
 62
     7
370
    25
100
AcDbCircle
 10
41.4362443625
 20
4.1067602487
 30
0.0
 40
0.0699999999999957
100
AcDbArc
 50
30.0
 51
120.0
  0
LINE
  5
7A
330
1F
100
AcDbEntity
  8
0
  6
Continuous
 62
     7
370
    25
100
AcDbLine
 10
41.5018661408
 20
4.1330999946
 30
0.0
 11
41.4968661408
 21
4.1417602487
 31
0.0
  0
ARC
  5
7B
330
1F
100
AcDbEntity
  8
0
  6
Continuous
 62
     7
370
    25
100
AcDbCircle
 10
41.8054175908
 20
3.4673334604
 30
0.0
 40
0.0700000000000052
100
AcDbArc
 50
300.0
 51
30.0
  0
LINE
  5
7C
330
1F
100
AcDbEntity
  8
0
  6
Continuous
 62
     7
370
    25
100
AcDbLine
 10
41.7018535262
 20
3.3267116821
 30
0.0
 11
41.8404175908
 21
3.4067116821
 31
0.0
  0
ARC
  5
7D
330
1F
100
AcDbEntity
  8
0
  6
Continuous
 62
     7
370
    25
100
AcDbCircle
 10
41.6668535262
 20
3.3873334604
 30
0.0
 40
0.0699999999999984
100
AcDbArc
 50
210.0
 51
300.0
  0
LINE
  5
7E
330
1F
100
AcDbEntity
  8
0
  6
Continuous
 62
     7
370
    25
100
AcDbLine
 10
41.601231748
 20
3.3609937144
 30
0.0
 11
41.606231748
 21
3.3523334604
 31
0.0
  0
ARC
  5
7F
330
1F
100
AcDbEntity
  8
0
  6
Continuous
 62
     7
370
    25
100
AcDbCircle
 10
41.6618535262
 20
3.3959937144
 30
0.0
 40
0.0700000000000018
100
AcDbArc
 50
120.0
 51
210.0
  0
LINE
  5
80
330
1F
100
AcDbEntity
  8
0
  6
Continuous
 62
     7
370
    25
100
AcDbLine
 10
41.7654175908
 20
3.5366154927
 30
0.0
 11
41.6268535262
 21
3.4566154927
 31
0.0
  0
ARC
  5
81
330
1F
100
AcDbEntity
  8
0
  6
Continuous
 62
     7
370
    25
100
AcDbCircle
 10
41.8004175908
 20
3.4759937144
 30
0.0
 40
0.0699999999999957
100
AcDbArc
 50
30.0
 51
120.0
  0
LINE
  5
82
330
1F
100
AcDbEntity
  8
0
  6
Continuous
 62
     7
370
    25
100
AcDbLine
 10
41.8660393691
 20
3.5023334604
 30
0.0
 11
41.8610393691
 21
3.5109937144
 31
0.0
  0
CIRCLE
  5
83
330
1F
100
AcDbEntity
  8
0
  6
Continuous
 62
     7
370
    25
100
AcDbCircle
 10
45.9850685732
 20
3.8798352945
 30
0.0
 40
0.0314960629921233
  0
CIRCLE
  5
84
330
1F
100
AcDbEntity
  8
0
  6
Continuous
 62
     7
370
    25
100
AcDbCircle
 10
44.1307378645
 20
7.0916302959
 30
0.0
 40
0.0314960629921233
  0
CIRCLE
  5
85
330
1F
100
AcDbEntity
  8
0
  6
Continuous
 62
     7
370
    25
100
AcDbCircle
 10
41.0280484258
 20
5.3002917133
 30
0.0
 40
0.0314960629921233
  0
CIRCLE
  5
86
330
1F
100
AcDbEntity
  8
0
  6
Continuous
 62
     7
370
    25
100
AcDbCircle
 10
42.132278391
 20
1.6554258457
 30
0.0
 40
0.0314960629921239
  0
ARC
  5
87
330
1F
100
AcDbEntity
  8
0
  6
Continuous
 62
     7
370
    25
100
AcDbCircle
 10
42.1686910307
 20
2.7329135432
 30
0.0
 40
0.0699999999999957
100
AcDbArc
 50
30.0
 51
120.0
  0
LINE
  5
88
330
1F
100
AcDbEntity
  8
0
  6
Continuous
 62
     7
370
    25
100
AcDbLine
 10
42.2343128089
 20
2.7592532891
 30
0.0
 11
42.2293128089
 21
2.7679135432
 31
0.0
  0
ARC
  5
89
330
1F
100
AcDbEntity
  8
0
  6
Continuous
 62
     7
370
    25
100
AcDbCircle
 10
42.1736910307
 20
2.7242532891
 30
0.0
 40
0.0700000000000018
100
AcDbArc
 50
300.0
 51
30.0
  0
LINE
  5
8A
330
1F
100
AcDbEntity
  8
0
  6
Continuous
 62
     7
370
    25
100
AcDbLine
 10
42.070126966
 20
2.5836315109
 30
0.0
 11
42.2086910307
 21
2.6636315109
 31
0.0
  0
ARC
  5
8B
330
1F
100
AcDbEntity
  8
0
  6
Continuous
 62
     7
370
    25
100
AcDbCircle
 10
42.035126966
 20
2.6442532891
 30
0.0
 40
0.0699999999999886
100
AcDbArc
 50
210.0
 51
300.0
  0
LINE
  5
8C
330
1F
100
AcDbEntity
  8
0
  6
Continuous
 62
     7
370
    25
100
AcDbLine
 10
41.9695051878
 20
2.6179135432
 30
0.0
 11
41.9745051878
 21
2.6092532891
 31
0.0
  0
ARC
  5
8D
330
1F
100
AcDbEntity
  8
0
  6
Continuous
 62
     7
370
    25
100
AcDbCircle
 10
42.030126966
 20
2.6529135432
 30
0.0
 40
0.0700000000000169
100
AcDbArc
 50
120.0000000011
 51
210.0
  0
LINE
  5
8E
330
1F
100
AcDbEntity
  8
0
  6
Continuous
 62
     7
370
    25
100
AcDbLine
 10
42.1336910307
 20
2.7935353214
 30
0.0
 11
41.995126966
 21
2.7135353214
 31
0.0
  0
ARC
  5
8F
330
1F
100
AcDbEntity
  8
0
  6
Continuous
 62
     7
370
    25
100
AcDbCircle
 10
41.8911283138
 20
3.2127686407
 30
0.0
 40
0.0700000000000018
100
AcDbArc
 50
30.0
 51
120.0
  0
LINE
  5
90
330
1F
100
AcDbEntity
  8
0
  6
Continuous
 62
     7
370
    25
100
AcDbLine
 10
41.9567500921
 20
3.2391083867
 30
0.0
 11
41.9517500921
 21
3.2477686407
 31
0.0
  0
ARC
  5
91
330
1F
100
AcDbEntity
  8
0
  6
Continuous
 62
     7
370
    25
100
AcDbCircle
 10
41.8961283138
 20
3.2041083867
 30
0.0
 40
0.0700000000000001
100
AcDbArc
 50
300.0
 51
30.0
  0
LINE
  5
92
330
1F
100
AcDbEntity
  8
0
  6
Continuous
 62
     7
370
    25
100
AcDbLine
 10
41.7925642492
 20
3.0634866084
 30
0.0
 11
41.9311283138
 21
3.1434866084
 31
0.0
  0
ARC
  5
93
330
1F
100
AcDbEntity
  8
0
  6
Continuous
 62
     7
370
    25
100
AcDbCircle
 10
41.7575642492
 20
3.1241083867
 30
0.0
 40
0.0699999999999984
100
AcDbArc
 50
210.0
 51
300.0
  0
LINE
  5
94
330
1F
100
AcDbEntity
  8
0
  6
Continuous
 62
     7
370
    25
100
AcDbLine
 10
41.6919424709
 20
3.0977686407
 30
0.0
 11
41.6969424709
 21
3.0891083867
 31
0.0
  0
ARC
  5
95
330
1F
100
AcDbEntity
  8
0
  6
Continuous
 62
     7
370
    25
100
AcDbCircle
 10
41.7525642492
 20
3.1327686407
 30
0.0
 40
0.0700000000000024
100
AcDbArc
 50
120.0
 51
210.0
  0
LINE
  5
96
330
1F
100
AcDbEntity
  8
0
  6
Continuous
 62
     7
370
    25
100
AcDbLine
 10
41.8561283138
 20
3.273390419
 30
0.0
 11
41.7175642492
 21
3.193390419
 31
0.0
  0
CIRCLE
  5
97
330
1F
100
AcDbEntity
  8
0
  6
Continuous
 62
     7
370
    25
100
AcDbCircle
 10
45.8311722998
 20
1.1542654748
 30
0.0
 40
0.0629921259842572
  0
CIRCLE
  5
98
330
1F
100
AcDbEntity
  8
0
  6
Continuous
 62
     7
370
    25
100
AcDbCircle
 10
44.7060211846
 20
0.5046591756
 30
0.0
 40
0.0629921259842571
  0
ARC
  5
99
330
1F
100
AcDbEntity
  8
0
  6
Continuous
 62
     7
370
    25
100
AcDbCircle
 10
39.6803937008
 20
8.594015748
 30
0.0
 40
0.0700000000000074
100
AcDbArc
 50
270.0
 51
0.0
  0
LINE
  5
9A
330
1F
100
AcDbEntity
  8
0
  6
Continuous
 62
     7
370
    25
100
AcDbLine
 10
39.6803937008
 20
8.524015748
 30
0.0
 11
39.6703937008
 21
8.524015748
 31
0.0
  0
ARC
  5
9B
330
1F
100
AcDbEntity
  8
0
  6
Continuous
 62
     7
370
    25
100
AcDbCircle
 10
39.6703937008
 20
8.594015748
 30
0.0
 40
0.0700000000000003
100
AcDbArc
 50
180.0
 51
270.0
  0
LINE
  5
9C
330
1F
100
AcDbEntity
  8
0
  6
Continuous
 62
     7
370
    25
100
AcDbLine
 10
39.6003937008
 20
8.754015748
 30
0.0
 11
39.6003937008
 21
8.594015748
 31
0.0
  0
ARC
  5
9D
330
1F
100
AcDbEntity
  8
0
  6
Continuous
 62
     7
370
    25
100
AcDbCircle
 10
39.6703937008
 20
8.754015748
 30
0.0
 40
0.0700000000000003
100
AcDbArc
 50
90.0
 51
180.0
  0
LINE
  5
9E
330
1F
100
AcDbEntity
  8
0
  6
Continuous
 62
     7
370
    25
100
AcDbLine
 10
39.6803937008
 20
8.824015748
 30
0.0
 11
39.6703937008
 21
8.824015748
 31
0.0
  0
ARC
  5
9F
330
1F
100
AcDbEntity
  8
0
  6
Continuous
 62
     7
370
    25
100
AcDbCircle
 10
39.6803937008
 20
8.754015748
 30
0.0
 40
0.0700000000000074
100
AcDbArc
 50
0.0
 51
90.0
  0
LINE
  5
A0
330
1F
100
AcDbEntity
  8
0
  6
Continuous
 62
     7
370
    25
100
AcDbLine
 10
39.7503937008
 20
8.594015748
 30
0.0
 11
39.7503937008
 21
8.754015748
 31
0.0
  0
ARC
  5
A1
330
1F
100
AcDbEntity
  8
0
  6
Continuous
 62
     7
370
    25
100
AcDbCircle
 10
39.0303937008
 20
7.154015748
 30
0.0
 40
0.0700000000000003
100
AcDbArc
 50
0.0
 51
90.0
  0
LINE
  5
A2
330
1F
100
AcDbEntity
  8
0
  6
Continuous
 62
     7
370
    25
100
AcDbLine
 10
39.1003937008
 20
6.994015748
 30
0.0
 11
39.1003937008
 21
7.154015748
 31
0.0
  0
ARC
  5
A3
330
1F
100
AcDbEntity
  8
0
  6
Continuous
 62
     7
370
    25
100
AcDbCircle
 10
39.0303937008
 20
6.994015748
 30
0.0
 40
0.0700000000000003
100
AcDbArc
 50
270.0
 51
0.0
  0
LINE
  5
A4
330
1F
100
AcDbEntity
  8
0
  6
Continuous
 62
     7
370
    25
100
AcDbLine
 10
39.0203937008
 20
6.924015748
 30
0.0
 11
39.0303937008
 21
6.924015748
 31
0.0
  0
ARC
  5
A5
330
1F
100
AcDbEntity
  8
0
  6
Continuous
 62
     7
370
    25
100
AcDbCircle
 10
39.0203937008
 20
6.994015748
 30
0.0
 40
0.0700000000000074
100
AcDbArc
 50
180.0000000006
 51
270.0
  0
LINE
  5
A6
330
1F
100
AcDbEntity
  8
0
  6
Continuous
 62
     7
370
    25
100
AcDbLine
 10
38.9503937008
 20
7.154015748
 30
0.0
 11
38.9503937008
 21
6.994015748
 31
0.0
  0
ARC
  5
A7
330
1F
100
AcDbEntity
  8
0
  6
Continuous
 62
     7
370
    25
100
AcDbCircle
 10
39.0203937008
 20
7.154015748
 30
0.0
 40
0.0700000000000003
100
AcDbArc
 50
90.0
 51
180.0
  0
LINE
  5
A8
330
1F
100
AcDbEntity
  8
0
  6
Continuous
 62
     7
370
    25
100
AcDbLine
 10
39.0203937008
 20
7.224015748
 30
0.0
 11
39.0303937008
 21
7.224015748
 31
0.0
  0
CIRCLE
  5
A9
330
1F
100
AcDbEntity
  8
0
  6
Continuous
 62
     7
370
    25
100
AcDbCircle
 10
39.3503937008
 20
7.874015748
 30
0.0
 40
0.3500000000000005
  0
ARC
  5
AA
330
1F
100
AcDbEntity
  8
0
  6
Continuous
 62
     7
370
    25
100
AcDbCircle
 10
44.8918554101
 20
18.9121089767
 30
0.0
 40
0.07
100
AcDbArc
 50
330.0
 51
60.0000000003
  0
LINE
  5
AB
330
1F
100
AcDbEntity
  8
0
  6
Continuous
 62
     7
370
    25
100
AcDbLine
 10
44.9524771883
 20
18.8771089767
 30
0.0
 11
44.9474771883
 21
18.8684487227
 31
0.0
  0
ARC
  5
AC
330
1F
100
AcDbEntity
  8
0
  6
Continuous
 62
     7
370
    25
100
AcDbCircle
 10
44.8868554101
 20
18.9034487227
 30
0.0
 40
0.0700000000000098
100
AcDbArc
 50
239.9999999998
 51
330.0
  0
LINE
  5
AD
330
1F
100
AcDbEntity
  8
0
  6
Continuous
 62
     7
370
    25
100
AcDbLine
 10
44.7132913455
 20
18.9228269444
 30
0.0
 11
44.8518554101
 21
18.8428269444
 31
0.0
  0
ARC
  5
AE
330
1F
100
AcDbEntity
  8
0
  6
Continuous
 62
     7
370
    25
100
AcDbCircle
 10
44.7482913455
 20
18.9834487227
 30
0.0
 40
0.0700000000000102
100
AcDbArc
 50
150.0
 51
240.0
  0
LINE
  5
AF
330
1F
100
AcDbEntity
  8
0
  6
Continuous
 62
     7
370
    25
100
AcDbLine
 10
44.6926695672
 20
19.0271089767
 30
0.0
 11
44.6876695672
 21
19.0184487227
 31
0.0
  0
ARC
  5
B0
330
1F
100
AcDbEntity
  8
0
  6
Continuous
 62
     7
370
    25
100
AcDbCircle
 10
44.7532913455
 20
18.9921089767
 30
0.0
 40
0.0700000000000076
100
AcDbArc
 50
60.0
 51
150.0
  0
LINE
  5
B1
330
1F
100
AcDbEntity
  8
0
  6
Continuous
 62
     7
370
    25
100
AcDbLine
 10
44.9268554101
 20
18.972730755
 30
0.0
 11
44.7882913455
 21
19.052730755
 31
0.0
  0
CIRCLE
  5
B2
330
1F
100
AcDbEntity
  8
0
  6
Continuous
 62
     7
370
    25
100
AcDbCircle
 10
45.3503937008
 20
18.2663205934
 30
0.0
 40
0.3499999999999979
  0
ARC
  5
B3
330
1F
100
AcDbEntity
  8
0
  6
Continuous
 62
     7
370
    25
100
AcDbCircle
 10
45.8089319915
 20
17.6205322102
 30
0.0
 40
0.070000000000001
100
AcDbArc
 50
150.0
 51
240.0
  0
LINE
  5
B4
330
1F
100
AcDbEntity
  8
0
  6
Continuous
 62
     7
370
    25
100
AcDbLine
 10
45.7483102132
 20
17.6555322102
 30
0.0
 11
45.7533102132
 21
17.6641924642
 31
0.0
  0
ARC
  5
B5
330
1F
100
AcDbEntity
  8
0
  6
Continuous
 62
     7
370
    25
100
AcDbCircle
 10
45.8139319915
 20
17.6291924642
 30
0.0
 40
0.0700000000000027
100
AcDbArc
 50
60.0
 51
150.0
  0
LINE
  5
B6
330
1F
100
AcDbEntity
  8
0
  6
Continuous
 62
     7
370
    25
100
AcDbLine
 10
45.9874960561
 20
17.6098142425
 30
0.0
 11
45.8489319915
 21
17.6898142425
 31
0.0
  0
ARC
  5
B7
330
1F
100
AcDbEntity
  8
0
  6
Continuous
 62
     7
370
    25
100
AcDbCircle
 10
45.9524960561
 20
17.5491924642
 30
0.0
 40
0.0700000000000018
100
AcDbArc
 50
330.0
 51
60.0
  0
LINE
  5
B8
330
1F
100
AcDbEntity
  8
0
  6
Continuous
 62
     7
370
    25
100
AcDbLine
 10
46.0081178344
 20
17.5055322102
 30
0.0
 11
46.0131178344
 21
17.5141924642
 31
0.0
  0
ARC
  5
B9
330
1F
100
AcDbEntity
  8
0
  6
Continuous
 62
     7
370
    25
100
AcDbCircle
 10
45.9474960561
 20
17.5405322102
 30
0.0
 40
0.070000000000001
100
AcDbArc
 50
240.000000001
 51
330.0
  0
LINE
  5
BA
330
1F
100
AcDbEntity
  8
0
  6
Continuous
 62
     7
370
    25
100
AcDbLine
 10
45.7739319915
 20
17.5599104319
 30
0.0
 11
45.9124960561
 21
17.4799104319
 31
0.0
  0
ARC
  5
BB
330
1F
100
AcDbEntity
  8
0
  6
Continuous
 62
     7
370
    25
100
AcDbCircle
 10
32.5618554101
 20
18.1921089767
 30
0.0
 40
0.0700000000000132
100
AcDbArc
 50
30.0
 51
120.0000000003
  0
LINE
  5
BC
330
1F
100
AcDbEntity
  8
0
  6
Continuous
 62
     7
370
    25
100
AcDbLine
 10
32.6224771883
 20
18.2271089767
 30
0.0
 11
32.6274771883
 21
18.2184487227
 31
0.0
  0
ARC
  5
BD
330
1F
100
AcDbEntity
  8
0
  6
Continuous
 62
     7
370
    25
100
AcDbCircle
 10
32.5668554101
 20
18.1834487227
 30
0.0
 40
0.0700000000000123
100
AcDbArc
 50
299.9999999998
 51
30.0
  0
LINE
  5
BE
330
1F
100
AcDbEntity
  8
0
  6
Continuous
 62
     7
370
    25
100
AcDbLine
 10
32.4632913455
 20
18.0428269444
 30
0.0
 11
32.6018554101
 21
18.1228269444
 31
0.0
  0
ARC
  5
BF
330
1F
100
AcDbEntity
  8
0
  6
Continuous
 62
     7
370
    25
100
AcDbCircle
 10
32.4282913455
 20
18.1034487227
 30
0.0
 40
0.0700000000000071
100
AcDbArc
 50
210.0
 51
300.0
  0
LINE
  5
C0
330
1F
100
AcDbEntity
  8
0
  6
Continuous
 62
     7
370
    25
100
AcDbLine
 10
32.3626695672
 20
18.0771089767
 30
0.0
 11
32.3676695672
 21
18.0684487227
 31
0.0
  0
ARC
  5
C1
330
1F
100
AcDbEntity
  8
0
  6
Continuous
 62
     7
370
    25
100
AcDbCircle
 10
32.4232913455
 20
18.1121089767
 30
0.0
 40
0.0700000000000071
100
AcDbArc
 50
120.0
 51
210.0
  0
LINE
  5
C2
330
1F
100
AcDbEntity
  8
0
  6
Continuous
 62
     7
370
    25
100
AcDbLine
 10
32.5268554101
 20
18.252730755
 30
0.0
 11
32.3882913455
 21
18.172730755
 31
0.0
  0
CIRCLE
  5
C3
330
1F
100
AcDbEntity
  8
0
  6
Continuous
 62
     7
370
    25
100
AcDbCircle
 10
33.3503937008
 20
18.2663205934
 30
0.0
 40
0.3499999999999979
  0
ARC
  5
C4
330
1F
100
AcDbEntity
  8
0
  6
Continuous
 62
     7
370
    25
100
AcDbCircle
 10
34.1389319915
 20
18.3405322102
 30
0.0
 40
0.0700000000000027
100
AcDbArc
 50
210.0
 51
300.0
  0
LINE
  5
C5
330
1F
100
AcDbEntity
  8
0
  6
Continuous
 62
     7
370
    25
100
AcDbLine
 10
34.0783102132
 20
18.3055322102
 30
0.0
 11
34.0733102132
 21
18.3141924642
 31
0.0
  0
ARC
  5
C6
330
1F
100
AcDbEntity
  8
0
  6
Continuous
 62
     7
370
    25
100
AcDbCircle
 10
34.1339319915
 20
18.3491924642
 30
0.0
 40
0.0700000000000027
100
AcDbArc
 50
120.0
 51
210.0
  0
LINE
  5
C7
330
1F
100
AcDbEntity
  8
0
  6
Continuous
 62
     7
370
    25
100
AcDbLine
 10
34.2374960561
 20
18.4898142425
 30
0.0
 11
34.0989319915
 21
18.4098142425
 31
0.0
  0
ARC
  5
C8
330
1F
100
AcDbEntity
  8
0
  6
Continuous
 62
     7
370
    25
100
AcDbCircle
 10
34.2724960561
 20
18.4291924642
 30
0.0
 40
0.0700000000000027
100
AcDbArc
 50
30.0
 51
120.0
  0
LINE
  5
C9
330
1F
100
AcDbEntity
  8
0
  6
Continuous
 62
     7
370
    25
100
AcDbLine
 10
34.3381178344
 20
18.4555322102
 30
0.0
 11
34.3331178344
 21
18.4641924642
 31
0.0
  0
ARC
  5
CA
330
1F
100
AcDbEntity
  8
0
  6
Continuous
 62
     7
370
    25
100
AcDbCircle
 10
34.2774960561
 20
18.4205322102
 30
0.0
 40
0.070000000000001
100
AcDbArc
 50
300.000000001
 51
30.0
  0
LINE
  5
CB
330
1F
100
AcDbEntity
  8
0
  6
Continuous
 62
     7
370
    25
100
AcDbLine
 10
34.1739319915
 20
18.2799104319
 30
0.0
 11
34.3124960561
 21
18.3599104319
 31
0.0
  0
ARC
  5
CC
330
1F
100
AcDbEntity
  8
0
  6
Continuous
 62
     7
370
    25
100
AcDbCircle
 10
27.0203937008
 20
7.154015748
 30
0.0
 40
0.0700000000000038
100
AcDbArc
 50
90.0
 51
180.0000000003
  0
LINE
  5
CD
330
1F
100
AcDbEntity
  8
0
  6
Continuous
 62
     7
370
    25
100
AcDbLine
 10
27.0203937008
 20
7.224015748
 30
0.0
 11
27.0303937008
 21
7.224015748
 31
0.0
  0
ARC
  5
CE
330
1F
100
AcDbEntity
  8
0
  6
Continuous
 62
     7
370
    25
100
AcDbCircle
 10
27.0303937008
 20
7.154015748
 30
0.0
 40
0.0700000000000012
100
AcDbArc
 50
359.9999999998
 51
90.0
  0
LINE
  5
CF
330
1F
100
AcDbEntity
  8
0
  6
Continuous
 62
     7
370
    25
100
AcDbLine
 10
27.1003937008
 20
6.994015748
 30
0.0
 11
27.1003937008
 21
7.154015748
 31
0.0
  0
ARC
  5
D0
330
1F
100
AcDbEntity
  8
0
  6
Continuous
 62
     7
370
    25
100
AcDbCircle
 10
27.0303937008
 20
6.994015748
 30
0.0
 40
0.0700000000000038
100
AcDbArc
 50
270.0
 51
0.0
  0
LINE
  5
D1
330
1F
100
AcDbEntity
  8
0
  6
Continuous
 62
     7
370
    25
100
AcDbLine
 10
27.0203937008
 20
6.924015748
 30
0.0
 11
27.0303937008
 21
6.924015748
 31
0.0
  0
ARC
  5
D2
330
1F
100
AcDbEntity
  8
0
  6
Continuous
 62
     7
370
    25
100
AcDbCircle
 10
27.0203937008
 20
6.994015748
 30
0.0
 40
0.0700000000000038
100
AcDbArc
 50
180.0
 51
270.0
  0
LINE
  5
D3
330
1F
100
AcDbEntity
  8
0
  6
Continuous
 62
     7
370
    25
100
AcDbLine
 10
26.9503937008
 20
7.154015748
 30
0.0
 11
26.9503937008
 21
6.994015748
 31
0.0
  0
CIRCLE
  5
D4
330
1F
100
AcDbEntity
  8
0
  6
Continuous
 62
     7
370
    25
100
AcDbCircle
 10
27.3503937008
 20
7.874015748
 30
0.0
 40
0.3500000000000005
  0
ARC
  5
D5
330
1F
100
AcDbEntity
  8
0
  6
Continuous
 62
     7
370
    25
100
AcDbCircle
 10
27.6803937008
 20
8.594015748
 30
0.0
 40
0.0700000000000038
100
AcDbArc
 50
270.0
 51
0.0
  0
LINE
  5
D6
330
1F
100
AcDbEntity
  8
0
  6
Continuous
 62
     7
370
    25
100
AcDbLine
 10
27.6803937008
 20
8.524015748
 30
0.0
 11
27.6703937008
 21
8.524015748
 31
0.0
  0
ARC
  5
D7
330
1F
100
AcDbEntity
  8
0
  6
Continuous
 62
     7
370
    25
100
AcDbCircle
 10
27.6703937008
 20
8.594015748
 30
0.0
 40
0.0700000000000038
100
AcDbArc
 50
180.0
 51
270.0
  0
LINE
  5
D8
330
1F
100
AcDbEntity
  8
0
  6
Continuous
 62
     7
370
    25
100
AcDbLine
 10
27.6003937008
 20
8.754015748
 30
0.0
 11
27.6003937008
 21
8.594015748
 31
0.0
  0
ARC
  5
D9
330
1F
100
AcDbEntity
  8
0
  6
Continuous
 62
     7
370
    25
100
AcDbCircle
 10
27.6703937008
 20
8.754015748
 30
0.0
 40
0.0700000000000038
100
AcDbArc
 50
90.0
 51
180.0
  0
LINE
  5
DA
330
1F
100
AcDbEntity
  8
0
  6
Continuous
 62
     7
370
    25
100
AcDbLine
 10
27.6803937008
 20
8.824015748
 30
0.0
 11
27.6703937008
 21
8.824015748
 31
0.0
  0
ARC
  5
DB
330
1F
100
AcDbEntity
  8
0
  6
Continuous
 62
     7
370
    25
100
AcDbCircle
 10
27.6803937008
 20
8.754015748
 30
0.0
 40
0.0700000000000038
100
AcDbArc
 50
0.000000001
 51
90.0
  0
LINE
  5
DC
330
1F
100
AcDbEntity
  8
0
  6
Continuous
 62
     7
370
    25
100
AcDbLine
 10
27.7503937008
 20
8.594015748
 30
0.0
 11
27.7503937008
 21
8.754015748
 31
0.0
  0
ARC
  5
DD
330
1F
100
AcDbEntity
  8
0
  6
Continuous
 62
     7
370
    25
100
AcDbCircle
 10
33.8089319915
 20
-3.1640774806
 30
0.0
 40
0.0700000000000074
100
AcDbArc
 50
150.0
 51
240.0000000003
  0
LINE
  5
DE
330
1F
100
AcDbEntity
  8
0
  6
Continuous
 62
     7
370
    25
100
AcDbLine
 10
33.7483102132
 20
-3.1290774806
 30
0.0
 11
33.7533102132
 21
-3.1204172266
 31
0.0
  0
ARC
  5
DF
330
1F
100
AcDbEntity
  8
0
  6
Continuous
 62
     7
370
    25
100
AcDbCircle
 10
33.8139319915
 20
-3.1554172266
 30
0.0
 40
0.0700000000000036
100
AcDbArc
 50
59.9999999998
 51
150.0
  0
LINE
  5
E0
330
1F
100
AcDbEntity
  8
0
  6
Continuous
 62
     7
370
    25
100
AcDbLine
 10
33.9874960561
 20
-3.1747954483
 30
0.0
 11
33.8489319915
 21
-3.0947954483
 31
0.0
  0
ARC
  5
E1
330
1F
100
AcDbEntity
  8
0
  6
Continuous
 62
     7
370
    25
100
AcDbCircle
 10
33.9524960561
 20
-3.2354172266
 30
0.0
 40
0.0700000000000076
100
AcDbArc
 50
330.0
 51
60.0
  0
LINE
  5
E2
330
1F
100
AcDbEntity
  8
0
  6
Continuous
 62
     7
370
    25
100
AcDbLine
 10
34.0081178344
 20
-3.2790774806
 30
0.0
 11
34.0131178344
 21
-3.2704172266
 31
0.0
  0
ARC
  5
E3
330
1F
100
AcDbEntity
  8
0
  6
Continuous
 62
     7
370
    25
100
AcDbCircle
 10
33.9474960561
 20
-3.2440774806
 30
0.0
 40
0.0700000000000024
100
AcDbArc
 50
240.0
 51
330.0
  0
LINE
  5
E4
330
1F
100
AcDbEntity
  8
0
  6
Continuous
 62
     7
370
    25
100
AcDbLine
 10
33.7739319915
 20
-3.2246992589
 30
0.0
 11
33.9124960561
 21
-3.3046992589
 31
0.0
  0
CIRCLE
  5
E5
330
1F
100
AcDbEntity
  8
0
  6
Continuous
 62
     7
370
    25
100
AcDbCircle
 10
33.3503937008
 20
-2.5182890974
 30
0.0
 40
0.3500000000000085
  0
ARC
  5
E6
330
1F
100
AcDbEntity
  8
0
  6
Continuous
 62
     7
370
    25
100
AcDbCircle
 10
32.8918554101
 20
-1.8725007141
 30
0.0
 40
0.0700000000000041
100
AcDbArc
 50
330.0
 51
60.0
  0
LINE
  5
E7
330
1F
100
AcDbEntity
  8
0
  6
Continuous
 62
     7
370
    25
100
AcDbLine
 10
32.9524771883
 20
-1.9075007141
 30
0.0
 11
32.9474771883
 21
-1.9161609682
 31
0.0
  0
ARC
  5
E8
330
1F
100
AcDbEntity
  8
0
  6
Continuous
 62
     7
370
    25
100
AcDbCircle
 10
32.8868554101
 20
-1.8811609682
 30
0.0
 40
0.070000000000004
100
AcDbArc
 50
240.0
 51
330.0
  0
LINE
  5
E9
330
1F
100
AcDbEntity
  8
0
  6
Continuous
 62
     7
370
    25
100
AcDbLine
 10
32.7132913455
 20
-1.8617827464
 30
0.0
 11
32.8518554101
 21
-1.9417827464
 31
0.0
  0
ARC
  5
EA
330
1F
100
AcDbEntity
  8
0
  6
Continuous
 62
     7
370
    25
100
AcDbCircle
 10
32.7482913455
 20
-1.8011609682
 30
0.0
 40
0.0700000000000003
100
AcDbArc
 50
150.0
 51
240.0
  0
LINE
  5
EB
330
1F
100
AcDbEntity
  8
0
  6
Continuous
 62
     7
370
    25
100
AcDbLine
 10
32.6926695672
 20
-1.7575007141
 30
0.0
 11
32.6876695672
 21
-1.7661609682
 31
0.0
  0
ARC
  5
EC
330
1F
100
AcDbEntity
  8
0
  6
Continuous
 62
     7
370
    25
100
AcDbCircle
 10
32.7532913455
 20
-1.7925007141
 30
0.0
 40
0.0699999999999902
100
AcDbArc
 50
60.000000001
 51
150.0
  0
LINE
  5
ED
330
1F
100
AcDbEntity
  8
0
  6
Continuous
 62
     7
370
    25
100
AcDbLine
 10
32.9268554101
 20
-1.8118789359
 30
0.0
 11
32.7882913455
 21
-1.7318789359
 31
0.0
  0
ARC
  5
EE
330
1F
100
AcDbEntity
  8
0
  6
Continuous
 62
     7
370
    25
100
AcDbCircle
 10
46.1389319915
 20
-2.4440774806
 30
0.0
 40
0.0700000000000052
100
AcDbArc
 50
210.0
 51
300.0000000003
  0
LINE
  5
EF
330
1F
100
AcDbEntity
  8
0
  6
Continuous
 62
     7
370
    25
100
AcDbLine
 10
46.0783102132
 20
-2.4790774806
 30
0.0
 11
46.0733102132
 21
-2.4704172266
 31
0.0
  0
ARC
  5
F0
330
1F
100
AcDbEntity
  8
0
  6
Continuous
 62
     7
370
    25
100
AcDbCircle
 10
46.1339319915
 20
-2.4354172266
 30
0.0
 40
0.0700000000000153
100
AcDbArc
 50
119.9999999998
 51
210.0
  0
LINE
  5
F1
330
1F
100
AcDbEntity
  8
0
  6
Continuous
 62
     7
370
    25
100
AcDbLine
 10
46.2374960561
 20
-2.2947954483
 30
0.0
 11
46.0989319915
 21
-2.3747954483
 31
0.0
  0
ARC
  5
F2
330
1F
100
AcDbEntity
  8
0
  6
Continuous
 62
     7
370
    25
100
AcDbCircle
 10
46.2724960561
 20
-2.3554172266
 30
0.0
 40
0.0700000000000164
100
AcDbArc
 50
30.0
 51
120.0
  0
LINE
  5
F3
330
1F
100
AcDbEntity
  8
0
  6
Continuous
 62
     7
370
    25
100
AcDbLine
 10
46.3381178344
 20
-2.3290774806
 30
0.0
 11
46.3331178344
 21
-2.3204172266
 31
0.0
  0
ARC
  5
F4
330
1F
100
AcDbEntity
  8
0
  6
Continuous
 62
     7
370
    25
100
AcDbCircle
 10
46.2774960561
 20
-2.3640774806
 30
0.0
 40
0.0700000000000144
100
AcDbArc
 50
300.0
 51
30.0
  0
LINE
  5
F5
330
1F
100
AcDbEntity
  8
0
  6
Continuous
 62
     7
370
    25
100
AcDbLine
 10
46.1739319915
 20
-2.5046992589
 30
0.0
 11
46.3124960561
 21
-2.4246992589
 31
0.0
  0
CIRCLE
  5
F6
330
1F
100
AcDbEntity
  8
0
  6
Continuous
 62
     7
370
    25
100
AcDbCircle
 10
45.3503937008
 20
-2.5182890974
 30
0.0
 40
0.3499999999999974
  0
ARC
  5
F7
330
1F
100
AcDbEntity
  8
0
  6
Continuous
 62
     7
370
    25
100
AcDbCircle
 10
44.5618554101
 20
-2.5925007141
 30
0.0
 40
0.0700000000000037
100
AcDbArc
 50
30.0
 51
120.0
  0
LINE
  5
F8
330
1F
100
AcDbEntity
  8
0
  6
Continuous
 62
     7
370
    25
100
AcDbLine
 10
44.6224771883
 20
-2.5575007141
 30
0.0
 11
44.6274771883
 21
-2.5661609682
 31
0.0
  0
ARC
  5
F9
330
1F
100
AcDbEntity
  8
0
  6
Continuous
 62
     7
370
    25
100
AcDbCircle
 10
44.5668554101
 20
-2.6011609682
 30
0.0
 40
0.0700000000000021
100
AcDbArc
 50
300.0
 51
30.0
  0
LINE
  5
FA
330
1F
100
AcDbEntity
  8
0
  6
Continuous
 62
     7
370
    25
100
AcDbLine
 10
44.4632913455
 20
-2.7417827464
 30
0.0
 11
44.6018554101
 21
-2.6617827464
 31
0.0
  0
ARC
  5
FB
330
1F
100
AcDbEntity
  8
0
  6
Continuous
 62
     7
370
    25
100
AcDbCircle
 10
44.4282913455
 20
-2.6811609682
 30
0.0
 40
0.0700000000000027
100
AcDbArc
 50
210.0
 51
300.0
  0
LINE
  5
FC
330
1F
100
AcDbEntity
  8
0
  6
Continuous
 62
     7
370
    25
100
AcDbLine
 10
44.3626695672
 20
-2.7075007141
 30
0.0
 11
44.3676695672
 21
-2.7161609682
 31
0.0
  0
ARC
  5
FD
330
1F
100
AcDbEntity
  8
0
  6
Continuous
 62
     7
370
    25
100
AcDbCircle
 10
44.4232913455
 20
-2.6725007141
 30
0.0
 40
0.0700000000000312
100
AcDbArc
 50
120.0000000011
 51
210.0
  0
LINE
  5
FE
330
1F
100
AcDbEntity
  8
0
  6
Continuous
 62
     7
370
    25
100
AcDbLine
 10
44.5268554101
 20
-2.5318789359
 30
0.0
 11
44.3882913455
 21
-2.6118789359
 31
0.0
  0
ARC
  5
FF
330
1F
100
AcDbEntity
  8
0
  6
Continuous
 62
     7
370
    25
100
AcDbCircle
 10
51.6803937008
 20
8.594015748
 30
0.0
 40
0.0700000000000074
100
AcDbArc
 50
270.0
 51
0.0000000003
  0
LINE
  5
100
330
1F
100
AcDbEntity
  8
0
  6
Continuous
 62
     7
370
    25
100
AcDbLine
 10
51.6803937008
 20
8.524015748
 30
0.0
 11
51.6703937008
 21
8.524015748
 31
0.0
  0
ARC
  5
101
330
1F
100
AcDbEntity
  8
0
  6
Continuous
 62
     7
370
    25
100
AcDbCircle
 10
51.6703937008
 20
8.594015748
 30
0.0
 40
0.0700000000000021
100
AcDbArc
 50
179.9999999998
 51
270.0
  0
LINE
  5
102
330
1F
100
AcDbEntity
  8
0
  6
Continuous
 62
     7
370
    25
100
AcDbLine
 10
51.6003937008
 20
8.754015748
 30
0.0
 11
51.6003937008
 21
8.594015748
 31
0.0
  0
ARC
  5
103
330
1F
100
AcDbEntity
  8
0
  6
Continuous
 62
     7
370
    25
100
AcDbCircle
 10
51.6703937008
 20
8.754015748
 30
0.0
 40
0.0700000000000003
100
AcDbArc
 50
90.0
 51
180.0
  0
LINE
  5
104
330
1F
100
AcDbEntity
  8
0
  6
Continuous
 62
     7
370
    25
100
AcDbLine
 10
51.6803937008
 20
8.824015748
 30
0.0
 11
51.6703937008
 21
8.824015748
 31
0.0
  0
ARC
  5
105
330
1F
100
AcDbEntity
  8
0
  6
Continuous
 62
     7
370
    25
100
AcDbCircle
 10
51.6803937008
 20
8.754015748
 30
0.0
 40
0.0700000000000003
100
AcDbArc
 50
0.0
 51
90.0
  0
LINE
  5
106
330
1F
100
AcDbEntity
  8
0
  6
Continuous
 62
     7
370
    25
100
AcDbLine
 10
51.7503937008
 20
8.594015748
 30
0.0
 11
51.7503937008
 21
8.754015748
 31
0.0
  0
ARC
  5
107
330
1F
100
AcDbEntity
  8
0
  6
Continuous
 62
     7
370
    25
100
AcDbCircle
 10
51.0203937008
 20
7.154015748
 30
0.0
 40
0.0700000000000003
100
AcDbArc
 50
90.0
 51
180.0
  0
LINE
  5
108
330
1F
100
AcDbEntity
  8
0
  6
Continuous
 62
     7
370
    25
100
AcDbLine
 10
51.0203937008
 20
7.224015748
 30
0.0
 11
51.0303937008
 21
7.224015748
 31
0.0
  0
ARC
  5
109
330
1F
100
AcDbEntity
  8
0
  6
Continuous
 62
     7
370
    25
100
AcDbCircle
 10
51.0303937008
 20
7.154015748
 30
0.0
 40
0.0700000000000003
100
AcDbArc
 50
0.0
 51
90.0
  0
LINE
  5
10A
330
1F
100
AcDbEntity
  8
0
  6
Continuous
 62
     7
370
    25
100
AcDbLine
 10
51.1003937008
 20
6.994015748
 30
0.0
 11
51.1003937008
 21
7.154015748
 31
0.0
  0
ARC
  5
10B
330
1F
100
AcDbEntity
  8
0
  6
Continuous
 62
     7
370
    25
100
AcDbCircle
 10
51.0303937008
 20
6.994015748
 30
0.0
 40
0.0700000000000003
100
AcDbArc
 50
270.0
 51
359.9999999995
  0
LINE
  5
10C
330
1F
100
AcDbEntity
  8
0
  6
Continuous
 62
     7
370
    25
100
AcDbLine
 10
51.0203937008
 20
6.924015748
 30
0.0
 11
51.0303937008
 21
6.924015748
 31
0.0
  0
ARC
  5
10D
330
1F
100
AcDbEntity
  8
0
  6
Continuous
 62
     7
370
    25
100
AcDbCircle
 10
51.0203937008
 20
6.994015748
 30
0.0
 40
0.0700000000000003
100
AcDbArc
 50
180.0000000011
 51
270.0
  0
LINE
  5
10E
330
1F
100
AcDbEntity
  8
0
  6
Continuous
 62
     7
370
    25
100
AcDbLine
 10
50.9503937008
 20
7.154015748
 30
0.0
 11
50.9503937008
 21
6.994015748
 31
0.0
  0
CIRCLE
  5
10F
330
1F
100
AcDbEntity
  8
0
  6
Continuous
 62
     7
370
    25
100
AcDbCircle
 10
51.3503937008
 20
7.874015748
 30
0.0
 40
0.3500000000000005
  0
LINE
  5
110
330
1F
100
AcDbEntity
  8
0
  6
Continuous
 62
     7
370
    25
100
AcDbLine
 10
32.4098440623
 20
-4.1473688582
 30
0.0
 11
46.2909433392
 21
-4.1473688582
 31
0.0
  0
LINE
  5
111
330
1F
100
AcDbEntity
  8
0
  6
Continuous
 62
     7
370
    25
100
AcDbLine
 10
46.2909433392
 20
-4.1473688582
 30
0.0
 11
53.2314929777
 21
7.874015748
 31
0.0
  0
LINE
  5
112
330
1F
100
AcDbEntity
  8
0
  6
Continuous
 62
     7
370
    25
100
AcDbLine
 10
53.2314929777
 20
7.874015748
 30
0.0
 11
46.2909433392
 21
19.8954003543
 31
0.0
  0
LINE
  5
113
330
1F
100
AcDbEntity
  8
0
  6
Continuous
 62
     7
370
    25
100
AcDbLine
 10
46.2909433392
 20
19.8954003543
 30
0.0
 11
32.4098440623
 21
19.8954003543
 31
0.0
  0
LINE
  5
114
330
1F
100
AcDbEntity
  8
0
  6
Continuous
 62
     7
370
    25
100
AcDbLine
 10
32.4098440623
 20
19.8954003543
 30
0.0
 11
25.4692944239
 21
7.874015748
 31
0.0
  0
LINE
  5
115
330
1F
100
AcDbEntity
  8
0
  6
Continuous
 62
     7
370
    25
100
AcDbLine
 10
25.4692944239
 20
7.874015748
 30
0.0
 11
32.4098440623
 21
-4.1473688582
 31
0.0
  0
LINE
  5
116
330
1F
100
AcDbEntity
  8
0
  6
Continuous
 62
     7
370
    25
100
AcDbLine
 10
51.6803937008
 20
6.924015748
 30
0.0
 11
51.6703937008
 21
6.924015748
 31
0.0
  0
ARC
  5
117
330
1F
100
AcDbEntity
  8
0
  6
Continuous
 62
     7
370
    25
100
AcDbCircle
 10
51.6703937008
 20
6.994015748
 30
0.0
 40
0.0700000000000003
100
AcDbArc
 50
180.0
 51
270.0
  0
LINE
  5
118
330
1F
100
AcDbEntity
  8
0
  6
Continuous
 62
     7
370
    25
100
AcDbLine
 10
51.6003937008
 20
6.994015748
 30
0.0
 11
51.6003937008
 21
7.154015748
 31
0.0
  0
ARC
  5
119
330
1F
100
AcDbEntity
  8
0
  6
Continuous
 62
     7
370
    25
100
AcDbCircle
 10
51.6703937008
 20
7.154015748
 30
0.0
 40
0.0700000000000003
100
AcDbArc
 50
90.0
 51
180.0
  0
LINE
  5
11A
330
1F
100
AcDbEntity
  8
0
  6
Continuous
 62
     7
370
    25
100
AcDbLine
 10
51.6803937008
 20
7.224015748
 30
0.0
 11
51.6703937008
 21
7.224015748
 31
0.0
  0
ARC
  5
11B
330
1F
100
AcDbEntity
  8
0
  6
Continuous
 62
     7
370
    25
100
AcDbCircle
 10
51.6803937008
 20
7.154015748
 30
0.0
 40
0.0700000000000003
100
AcDbArc
 50
0.0
 51
90.0
  0
LINE
  5
11C
330
1F
100
AcDbEntity
  8
0
  6
Continuous
 62
     7
370
    25
100
AcDbLine
 10
51.7503937008
 20
7.154015748
 30
0.0
 11
51.7503937008
 21
6.994015748
 31
0.0
  0
ARC
  5
11D
330
1F
100
AcDbEntity
  8
0
  6
Continuous
 62
     7
370
    25
100
AcDbCircle
 10
51.6803937008
 20
6.994015748
 30
0.0
 40
0.0700000000000003
100
AcDbArc
 50
270.0
 51
0.0
  0
LINE
  5
11E
330
1F
100
AcDbEntity
  8
0
  6
Continuous
 62
     7
370
    25
100
AcDbLine
 10
50.9503937008
 20
8.594015748
 30
0.0
 11
50.9503937008
 21
8.754015748
 31
0.0
  0
ARC
  5
11F
330
1F
100
AcDbEntity
  8
0
  6
Continuous
 62
     7
370
    25
100
AcDbCircle
 10
51.0203937008
 20
8.754015748
 30
0.0
 40
0.0700000000000003
100
AcDbArc
 50
90.0
 51
180.0
  0
LINE
  5
120
330
1F
100
AcDbEntity
  8
0
  6
Continuous
 62
     7
370
    25
100
AcDbLine
 10
51.0203937008
 20
8.824015748
 30
0.0
 11
51.0303937008
 21
8.824015748
 31
0.0
  0
ARC
  5
121
330
1F
100
AcDbEntity
  8
0
  6
Continuous
 62
     7
370
    25
100
AcDbCircle
 10
51.0303937008
 20
8.754015748
 30
0.0
 40
0.0700000000000003
100
AcDbArc
 50
0.0
 51
90.0
  0
LINE
  5
122
330
1F
100
AcDbEntity
  8
0
  6
Continuous
 62
     7
370
    25
100
AcDbLine
 10
51.1003937008
 20
8.754015748
 30
0.0
 11
51.1003937008
 21
8.594015748
 31
0.0
  0
ARC
  5
123
330
1F
100
AcDbEntity
  8
0
  6
Continuous
 62
     7
370
    25
100
AcDbCircle
 10
51.0303937008
 20
8.594015748
 30
0.0
 40
0.0700000000000021
100
AcDbArc
 50
270.0
 51
0.0000000006
  0
LINE
  5
124
330
1F
100
AcDbEntity
  8
0
  6
Continuous
 62
     7
370
    25
100
AcDbLine
 10
51.0203937008
 20
8.524015748
 30
0.0
 11
51.0303937008
 21
8.524015748
 31
0.0
  0
ARC
  5
125
330
1F
100
AcDbEntity
  8
0
  6
Continuous
 62
     7
370
    25
100
AcDbCircle
 10
51.0203937008
 20
8.594015748
 30
0.0
 40
0.0700000000000021
100
AcDbArc
 50
179.9999999997
 51
270.0
  0
LINE
  5
126
330
1F
100
AcDbEntity
  8
0
  6
Continuous
 62
     7
370
    25
100
AcDbLine
 10
49.0762860919
 20
2.4319742387
 30
0.0
 11
49.0849463459
 21
2.4269742387
 31
0.0
  0
ARC
  5
127
330
1F
100
AcDbEntity
  8
0
  6
Continuous
 62
     7
370
    25
100
AcDbCircle
 10
49.0499463459
 20
2.3663524604
 30
0.0
 40
0.0700000000000001
100
AcDbArc
 50
330.0
 51
60.0
  0
LINE
  5
128
330
1F
100
AcDbEntity
  8
0
  6
Continuous
 62
     7
370
    25
100
AcDbLine
 10
49.1105681242
 20
2.3313524604
 30
0.0
 11
49.0305681242
 21
2.1927883958
 31
0.0
  0
ARC
  5
129
330
1F
100
AcDbEntity
  8
0
  6
Continuous
 62
     7
370
    25
100
AcDbCircle
 10
48.9699463459
 20
2.2277883958
 30
0.0
 40
0.0700000000000037
100
AcDbArc
 50
240.0
 51
330.0
  0
LINE
  5
12A
330
1F
100
AcDbEntity
  8
0
  6
Continuous
 62
     7
370
    25
100
AcDbLine
 10
48.9349463459
 20
2.1671666175
 30
0.0
 11
48.9262860919
 21
2.1721666175
 31
0.0
  0
ARC
  5
12B
330
1F
100
AcDbEntity
  8
0
  6
Continuous
 62
     7
370
    25
100
AcDbCircle
 10
48.9612860919
 20
2.2327883958
 30
0.0
 40
0.0700000000000115
100
AcDbArc
 50
150.0
 51
240.0
  0
LINE
  5
12C
330
1F
100
AcDbEntity
  8
0
  6
Continuous
 62
     7
370
    25
100
AcDbLine
 10
48.9006643136
 20
2.2677883958
 30
0.0
 11
48.9806643136
 21
2.4063524604
 31
0.0
  0
ARC
  5
12D
330
1F
100
AcDbEntity
  8
0
  6
Continuous
 62
     7
370
    25
100
AcDbCircle
 10
49.0412860919
 20
2.3713524604
 30
0.0
 40
0.0700000000000046
100
AcDbArc
 50
60.0
 51
150.0
  0
LINE
  5
12E
330
1F
100
AcDbEntity
  8
0
  6
Continuous
 62
     7
370
    25
100
AcDbLine
 10
48.2631653409
 20
2.6358485993
 30
0.0
 11
48.3431653409
 21
2.7744126639
 31
0.0
  0
ARC
  5
12F
330
1F
100
AcDbEntity
  8
0
  6
Continuous
 62
     7
370
    25
100
AcDbCircle
 10
48.4037871191
 20
2.7394126639
 30
0.0
 40
0.0699999999999993
100
AcDbArc
 50
60.0
 51
149.9999999988
  0
LINE
  5
130
330
1F
100
AcDbEntity
  8
0
  6
Continuous
 62
     7
370
    25
100
AcDbLine
 10
48.4387871191
 20
2.8000344422
 30
0.0
 11
48.4474473732
 21
2.7950344422
 31
0.0
  0
ARC
  5
131
330
1F
100
AcDbEntity
  8
0
  6
Continuous
 62
     7
370
    25
100
AcDbCircle
 10
48.4124473732
 20
2.7344126639
 30
0.0
 40
0.0700000000000164
100
AcDbArc
 50
330.0
 51
60.0
  0
LINE
  5
132
330
1F
100
AcDbEntity
  8
0
  6
Continuous
 62
     7
370
    25
100
AcDbLine
 10
48.4730691514
 20
2.6994126639
 30
0.0
 11
48.3930691514
 21
2.5608485993
 31
0.0
  0
ARC
  5
133
330
1F
100
AcDbEntity
  8
0
  6
Continuous
 62
     7
370
    25
100
AcDbCircle
 10
48.3324473732
 20
2.5958485993
 30
0.0
 40
0.0700000000000057
100
AcDbArc
 50
240.0
 51
330.0
  0
LINE
  5
134
330
1F
100
AcDbEntity
  8
0
  6
Continuous
 62
     7
370
    25
100
AcDbLine
 10
48.2974473732
 20
2.5352268211
 30
0.0
 11
48.2887871191
 21
2.5402268211
 31
0.0
  0
ARC
  5
135
330
1F
100
AcDbEntity
  8
0
  6
Continuous
 62
     7
370
    25
100
AcDbCircle
 10
48.3237871191
 20
2.6008485993
 30
0.0
 40
0.0700000000000048
100
AcDbArc
 50
150.0
 51
240.0
  0
LINE
  5
136
330
1F
100
AcDbEntity
  8
0
  6
Continuous
 62
     7
370
    25
100
AcDbLine
 10
44.9268554101
 20
-3.2246992589
 30
0.0
 11
44.7882913455
 21
-3.3046992589
 31
0.0
  0
ARC
  5
137
330
1F
100
AcDbEntity
  8
0
  6
Continuous
 62
     7
370
    25
100
AcDbCircle
 10
44.7532913455
 20
-3.2440774806
 30
0.0
 40
0.070000000000004
100
AcDbArc
 50
210.0
 51
300.0
  0
LINE
  5
138
330
1F
100
AcDbEntity
  8
0
  6
Continuous
 62
     7
370
    25
100
AcDbLine
 10
44.6926695672
 20
-3.2790774806
 30
0.0
 11
44.6876695672
 21
-3.2704172266
 31
0.0
  0
ARC
  5
139
330
1F
100
AcDbEntity
  8
0
  6
Continuous
 62
     7
370
    25
100
AcDbCircle
 10
44.7482913455
 20
-3.2354172266
 30
0.0
 40
0.0700000000000058
100
AcDbArc
 50
120.0
 51
210.0
  0
LINE
  5
13A
330
1F
100
AcDbEntity
  8
0
  6
Continuous
 62
     7
370
    25
100
AcDbLine
 10
44.7132913455
 20
-3.1747954483
 30
0.0
 11
44.8518554101
 21
-3.0947954483
 31
0.0
  0
ARC
  5
13B
330
1F
100
AcDbEntity
  8
0
  6
Continuous
 62
     7
370
    25
100
AcDbCircle
 10
44.8868554101
 20
-3.1554172266
 30
0.0
 40
0.0700000000000114
100
AcDbArc
 50
30.0
 51
120.0
  0
LINE
  5
13C
330
1F
100
AcDbEntity
  8
0
  6
Continuous
 62
     7
370
    25
100
AcDbLine
 10
44.9524771883
 20
-3.1290774806
 30
0.0
 11
44.9474771883
 21
-3.1204172266
 31
0.0
  0
ARC
  5
13D
330
1F
100
AcDbEntity
  8
0
  6
Continuous
 62
     7
370
    25
100
AcDbCircle
 10
44.8918554101
 20
-3.1640774806
 30
0.0
 40
0.070000000000006
100
AcDbArc
 50
300.0
 51
30.0
  0
LINE
  5
13E
330
1F
100
AcDbEntity
  8
0
  6
Continuous
 62
     7
370
    25
100
AcDbLine
 10
45.9874960561
 20
-1.8617827464
 30
0.0
 11
45.8489319915
 21
-1.9417827464
 31
0.0
  0
ARC
  5
13F
330
1F
100
AcDbEntity
  8
0
  6
Continuous
 62
     7
370
    25
100
AcDbCircle
 10
45.8139319915
 20
-1.8811609682
 30
0.0
 40
0.0700000000000099
100
AcDbArc
 50
210.0
 51
300.0000000005
  0
LINE
  5
140
330
1F
100
AcDbEntity
  8
0
  6
Continuous
 62
     7
370
    25
100
AcDbLine
 10
45.7483102132
 20
-1.9075007141
 30
0.0
 11
45.7533102132
 21
-1.9161609682
 31
0.0
  0
ARC
  5
141
330
1F
100
AcDbEntity
  8
0
  6
Continuous
 62
     7
370
    25
100
AcDbCircle
 10
45.8089319915
 20
-1.8725007141
 30
0.0
 40
0.0700000000000075
100
AcDbArc
 50
119.9999999997
 51
210.0
  0
LINE
  5
142
330
1F
100
AcDbEntity
  8
0
  6
Continuous
 62
     7
370
    25
100
AcDbLine
 10
45.7739319915
 20
-1.8118789359
 30
0.0
 11
45.9124960561
 21
-1.7318789359
 31
0.0
  0
ARC
  5
143
330
1F
100
AcDbEntity
  8
0
  6
Continuous
 62
     7
370
    25
100
AcDbCircle
 10
45.9474960561
 20
-1.7925007141
 30
0.0
 40
0.0699999999999968
100
AcDbArc
 50
30.0
 51
120.0
  0
LINE
  5
144
330
1F
100
AcDbEntity
  8
0
  6
Continuous
 62
     7
370
    25
100
AcDbLine
 10
46.0081178344
 20
-1.7575007141
 30
0.0
 11
46.0131178344
 21
-1.7661609682
 31
0.0
  0
ARC
  5
145
330
1F
100
AcDbEntity
  8
0
  6
Continuous
 62
     7
370
    25
100
AcDbCircle
 10
45.9524960561
 20
-1.8011609682
 30
0.0
 40
0.0699999999999946
100
AcDbArc
 50
300.0
 51
30.0
  0
LINE
  5
146
330
1F
100
AcDbEntity
  8
0
  6
Continuous
 62
     7
370
    25
100
AcDbLine
 10
30.3077182502
 20
2.5608485993
 30
0.0
 11
30.2277182502
 21
2.6994126639
 31
0.0
  0
ARC
  5
147
330
1F
100
AcDbEntity
  8
0
  6
Continuous
 62
     7
370
    25
100
AcDbCircle
 10
30.2883400284
 20
2.7344126639
 30
0.0
 40
0.0700000000000099
100
AcDbArc
 50
120.0
 51
210.0
  0
LINE
  5
148
330
1F
100
AcDbEntity
  8
0
  6
Continuous
 62
     7
370
    25
100
AcDbLine
 10
30.2533400284
 20
2.7950344422
 30
0.0
 11
30.2620002825
 21
2.8000344422
 31
0.0
  0
ARC
  5
149
330
1F
100
AcDbEntity
  8
0
  6
Continuous
 62
     7
370
    25
100
AcDbCircle
 10
30.2970002825
 20
2.7394126639
 30
0.0
 40
0.070000000000008
100
AcDbArc
 50
30.0
 51
120.0
  0
LINE
  5
14A
330
1F
100
AcDbEntity
  8
0
  6
Continuous
 62
     7
370
    25
100
AcDbLine
 10
30.3576220607
 20
2.7744126639
 30
0.0
 11
30.4376220607
 21
2.6358485993
 31
0.0
  0
ARC
  5
14B
330
1F
100
AcDbEntity
  8
0
  6
Continuous
 62
     7
370
    25
100
AcDbCircle
 10
30.3770002825
 20
2.6008485993
 30
0.0
 40
0.0699999999999978
100
AcDbArc
 50
300.0
 51
29.9999999988
  0
LINE
  5
14C
330
1F
100
AcDbEntity
  8
0
  6
Continuous
 62
     7
370
    25
100
AcDbLine
 10
30.4120002825
 20
2.5402268211
 30
0.0
 11
30.4033400284
 21
2.5352268211
 31
0.0
  0
ARC
  5
14D
330
1F
100
AcDbEntity
  8
0
  6
Continuous
 62
     7
370
    25
100
AcDbCircle
 10
30.3683400284
 20
2.5958485993
 30
0.0
 40
0.0700000000000044
100
AcDbArc
 50
210.0
 51
300.0
  0
LINE
  5
14E
330
1F
100
AcDbEntity
  8
0
  6
Continuous
 62
     7
370
    25
100
AcDbLine
 10
29.6702192774
 20
2.1927883958
 30
0.0
 11
29.5902192774
 21
2.3313524604
 31
0.0
  0
ARC
  5
14F
330
1F
100
AcDbEntity
  8
0
  6
Continuous
 62
     7
370
    25
100
AcDbCircle
 10
29.6508410556
 20
2.3663524604
 30
0.0
 40
0.0700000000000038
100
AcDbArc
 50
120.0
 51
210.0
  0
LINE
  5
150
330
1F
100
AcDbEntity
  8
0
  6
Continuous
 62
     7
370
    25
100
AcDbLine
 10
29.6158410556
 20
2.4269742387
 30
0.0
 11
29.6245013097
 21
2.4319742387
 31
0.0
  0
ARC
  5
151
330
1F
100
AcDbEntity
  8
0
  6
Continuous
 62
     7
370
    25
100
AcDbCircle
 10
29.6595013097
 20
2.3713524604
 30
0.0
 40
0.0700000000000025
100
AcDbArc
 50
30.0
 51
120.0
  0
LINE
  5
152
330
1F
100
AcDbEntity
  8
0
  6
Continuous
 62
     7
370
    25
100
AcDbLine
 10
29.7201230879
 20
2.4063524604
 30
0.0
 11
29.8001230879
 21
2.2677883958
 31
0.0
  0
ARC
  5
153
330
1F
100
AcDbEntity
  8
0
  6
Continuous
 62
     7
370
    25
100
AcDbCircle
 10
29.7395013097
 20
2.2327883958
 30
0.0
 40
0.0700000000000042
100
AcDbArc
 50
300.0
 51
30.0
  0
LINE
  5
154
330
1F
100
AcDbEntity
  8
0
  6
Continuous
 62
     7
370
    25
100
AcDbLine
 10
29.7745013097
 20
2.1721666175
 30
0.0
 11
29.7658410556
 21
2.1671666175
 31
0.0
  0
ARC
  5
155
330
1F
100
AcDbEntity
  8
0
  6
Continuous
 62
     7
370
    25
100
AcDbCircle
 10
29.7308410556
 20
2.2277883958
 30
0.0
 40
0.0700000000000038
100
AcDbArc
 50
210.0
 51
300.0
  0
LINE
  5
156
330
1F
100
AcDbEntity
  8
0
  6
Continuous
 62
     7
370
    25
100
AcDbLine
 10
32.5268554101
 20
-2.5046992589
 30
0.0
 11
32.3882913455
 21
-2.4246992589
 31
0.0
  0
ARC
  5
157
330
1F
100
AcDbEntity
  8
0
  6
Continuous
 62
     7
370
    25
100
AcDbCircle
 10
32.4232913455
 20
-2.3640774806
 30
0.0
 40
0.0700000000000076
100
AcDbArc
 50
150.0
 51
240.0
  0
LINE
  5
158
330
1F
100
AcDbEntity
  8
0
  6
Continuous
 62
     7
370
    25
100
AcDbLine
 10
32.3626695672
 20
-2.3290774806
 30
0.0
 11
32.3676695672
 21
-2.3204172266
 31
0.0
  0
ARC
  5
159
330
1F
100
AcDbEntity
  8
0
  6
Continuous
 62
     7
370
    25
100
AcDbCircle
 10
32.4282913455
 20
-2.3554172266
 30
0.0
 40
0.0700000000000075
100
AcDbArc
 50
60.0
 51
150.0
  0
LINE
  5
15A
330
1F
100
AcDbEntity
  8
0
  6
Continuous
 62
     7
370
    25
100
AcDbLine
 10
32.4632913455
 20
-2.2947954483
 30
0.0
 11
32.6018554101
 21
-2.3747954483
 31
0.0
  0
ARC
  5
15B
330
1F
100
AcDbEntity
  8
0
  6
Continuous
 62
     7
370
    25
100
AcDbCircle
 10
32.5668554101
 20
-2.4354172266
 30
0.0
 40
0.0700000000000141
100
AcDbArc
 50
330.0
 51
60.0
  0
LINE
  5
15C
330
1F
100
AcDbEntity
  8
0
  6
Continuous
 62
     7
370
    25
100
AcDbLine
 10
32.6224771883
 20
-2.4790774806
 30
0.0
 11
32.6274771883
 21
-2.4704172266
 31
0.0
  0
ARC
  5
15D
330
1F
100
AcDbEntity
  8
0
  6
Continuous
 62
     7
370
    25
100
AcDbCircle
 10
32.5618554101
 20
-2.4440774806
 30
0.0
 40
0.070000000000008
100
AcDbArc
 50
240.0
 51
330.0
  0
LINE
  5
15E
330
1F
100
AcDbEntity
  8
0
  6
Continuous
 62
     7
370
    25
100
AcDbLine
 10
34.2374960561
 20
-2.7417827464
 30
0.0
 11
34.0989319915
 21
-2.6617827464
 31
0.0
  0
ARC
  5
15F
330
1F
100
AcDbEntity
  8
0
  6
Continuous
 62
     7
370
    25
100
AcDbCircle
 10
34.1339319915
 20
-2.6011609682
 30
0.0
 40
0.0700000000000028
100
AcDbArc
 50
150.0
 51
240.0000000005
  0
LINE
  5
160
330
1F
100
AcDbEntity
  8
0
  6
Continuous
 62
     7
370
    25
100
AcDbLine
 10
34.0783102132
 20
-2.5575007141
 30
0.0
 11
34.0733102132
 21
-2.5661609682
 31
0.0
  0
ARC
  5
161
330
1F
100
AcDbEntity
  8
0
  6
Continuous
 62
     7
370
    25
100
AcDbCircle
 10
34.1389319915
 20
-2.5925007141
 30
0.0
 40
0.0700000000000042
100
AcDbArc
 50
59.9999999997
 51
150.0
  0
LINE
  5
162
330
1F
100
AcDbEntity
  8
0
  6
Continuous
 62
     7
370
    25
100
AcDbLine
 10
34.1739319915
 20
-2.5318789359
 30
0.0
 11
34.3124960561
 21
-2.6118789359
 31
0.0
  0
ARC
  5
163
330
1F
100
AcDbEntity
  8
0
  6
Continuous
 62
     7
370
    25
100
AcDbCircle
 10
34.2774960561
 20
-2.6725007141
 30
0.0
 40
0.0700000000000059
100
AcDbArc
 50
330.0
 51
60.0
  0
LINE
  5
164
330
1F
100
AcDbEntity
  8
0
  6
Continuous
 62
     7
370
    25
100
AcDbLine
 10
34.3381178344
 20
-2.7075007141
 30
0.0
 11
34.3331178344
 21
-2.7161609682
 31
0.0
  0
ARC
  5
165
330
1F
100
AcDbEntity
  8
0
  6
Continuous
 62
     7
370
    25
100
AcDbCircle
 10
34.2724960561
 20
-2.6811609682
 30
0.0
 40
0.0700000000000036
100
AcDbArc
 50
240.0
 51
330.0
  0
LINE
  5
166
330
1F
100
AcDbEntity
  8
0
  6
Continuous
 62
     7
370
    25
100
AcDbLine
 10
30.2277182502
 20
13.0486188321
 30
0.0
 11
30.3077182502
 21
13.1871828967
 31
0.0
  0
ARC
  5
167
330
1F
100
AcDbEntity
  8
0
  6
Continuous
 62
     7
370
    25
100
AcDbCircle
 10
30.3683400284
 20
13.1521828967
 30
0.0
 40
0.0700000000000058
100
AcDbArc
 50
60.0
 51
150.0
  0
LINE
  5
168
330
1F
100
AcDbEntity
  8
0
  6
Continuous
 62
     7
370
    25
100
AcDbLine
 10
30.4033400284
 20
13.212804675
 30
0.0
 11
30.4120002825
 21
13.207804675
 31
0.0
  0
ARC
  5
169
330
1F
100
AcDbEntity
  8
0
  6
Continuous
 62
     7
370
    25
100
AcDbCircle
 10
30.3770002825
 20
13.1471828967
 30
0.0
 40
0.070000000000004
100
AcDbArc
 50
330.0
 51
60.0
  0
LINE
  5
16A
330
1F
100
AcDbEntity
  8
0
  6
Continuous
 62
     7
370
    25
100
AcDbLine
 10
30.4376220607
 20
13.1121828967
 30
0.0
 11
30.3576220607
 21
12.9736188321
 31
0.0
  0
ARC
  5
16B
330
1F
100
AcDbEntity
  8
0
  6
Continuous
 62
     7
370
    25
100
AcDbCircle
 10
30.2970002825
 20
13.0086188321
 30
0.0
 40
0.0700000000000039
100
AcDbArc
 50
240.0
 51
329.9999999988
  0
LINE
  5
16C
330
1F
100
AcDbEntity
  8
0
  6
Continuous
 62
     7
370
    25
100
AcDbLine
 10
30.2620002825
 20
12.9479970539
 30
0.0
 11
30.2533400284
 21
12.9529970539
 31
0.0
  0
ARC
  5
16D
330
1F
100
AcDbEntity
  8
0
  6
Continuous
 62
     7
370
    25
100
AcDbCircle
 10
30.2883400284
 20
13.0136188321
 30
0.0
 40
0.0700000000000056
100
AcDbArc
 50
150.0
 51
240.0
  0
LINE
  5
16E
330
1F
100
AcDbEntity
  8
0
  6
Continuous
 62
     7
370
    25
100
AcDbLine
 10
29.5902192774
 20
13.4166790357
 30
0.0
 11
29.6702192774
 21
13.5552431003
 31
0.0
  0
ARC
  5
16F
330
1F
100
AcDbEntity
  8
0
  6
Continuous
 62
     7
370
    25
100
AcDbCircle
 10
29.7308410556
 20
13.5202431003
 30
0.0
 40
0.0700000000000056
100
AcDbArc
 50
60.0
 51
150.0
  0
LINE
  5
170
330
1F
100
AcDbEntity
  8
0
  6
Continuous
 62
     7
370
    25
100
AcDbLine
 10
29.7658410556
 20
13.5808648785
 30
0.0
 11
29.7745013097
 21
13.5758648785
 31
0.0
  0
ARC
  5
171
330
1F
100
AcDbEntity
  8
0
  6
Continuous
 62
     7
370
    25
100
AcDbCircle
 10
29.7395013097
 20
13.5152431003
 30
0.0
 40
0.070000000000004
100
AcDbArc
 50
330.0
 51
60.0
  0
LINE
  5
172
330
1F
100
AcDbEntity
  8
0
  6
Continuous
 62
     7
370
    25
100
AcDbLine
 10
29.8001230879
 20
13.4802431003
 30
0.0
 11
29.7201230879
 21
13.3416790357
 31
0.0
  0
ARC
  5
173
330
1F
100
AcDbEntity
  8
0
  6
Continuous
 62
     7
370
    25
100
AcDbCircle
 10
29.6595013097
 20
13.3766790357
 30
0.0
 40
0.0700000000000012
100
AcDbArc
 50
240.0
 51
330.0
  0
LINE
  5
174
330
1F
100
AcDbEntity
  8
0
  6
Continuous
 62
     7
370
    25
100
AcDbLine
 10
29.6245013097
 20
13.3160572574
 30
0.0
 11
29.6158410556
 21
13.3210572574
 31
0.0
  0
ARC
  5
175
330
1F
100
AcDbEntity
  8
0
  6
Continuous
 62
     7
370
    25
100
AcDbCircle
 10
29.6508410556
 20
13.3816790357
 30
0.0
 40
0.0700000000000025
100
AcDbArc
 50
150.0
 51
240.0
  0
LINE
  5
176
330
1F
100
AcDbEntity
  8
0
  6
Continuous
 62
     7
370
    25
100
AcDbLine
 10
26.9503937008
 20
8.594015748
 30
0.0
 11
26.9503937008
 21
8.754015748
 31
0.0
  0
ARC
  5
177
330
1F
100
AcDbEntity
  8
0
  6
Continuous
 62
     7
370
    25
100
AcDbCircle
 10
27.0203937008
 20
8.754015748
 30
0.0
 40
0.0700000000000003
100
AcDbArc
 50
90.0
 51
180.0
  0
LINE
  5
178
330
1F
100
AcDbEntity
  8
0
  6
Continuous
 62
     7
370
    25
100
AcDbLine
 10
27.0203937008
 20
8.824015748
 30
0.0
 11
27.0303937008
 21
8.824015748
 31
0.0
  0
ARC
  5
179
330
1F
100
AcDbEntity
  8
0
  6
Continuous
 62
     7
370
    25
100
AcDbCircle
 10
27.0303937008
 20
8.754015748
 30
0.0
 40
0.0700000000000003
100
AcDbArc
 50
0.0
 51
90.0
  0
LINE
  5
17A
330
1F
100
AcDbEntity
  8
0
  6
Continuous
 62
     7
370
    25
100
AcDbLine
 10
27.1003937008
 20
8.754015748
 30
0.0
 11
27.1003937008
 21
8.594015748
 31
0.0
  0
ARC
  5
17B
330
1F
100
AcDbEntity
  8
0
  6
Continuous
 62
     7
370
    25
100
AcDbCircle
 10
27.0303937008
 20
8.594015748
 30
0.0
 40
0.0700000000000003
100
AcDbArc
 50
270.0
 51
0.0
  0
LINE
  5
17C
330
1F
100
AcDbEntity
  8
0
  6
Continuous
 62
     7
370
    25
100
AcDbLine
 10
27.0203937008
 20
8.524015748
 30
0.0
 11
27.0303937008
 21
8.524015748
 31
0.0
  0
ARC
  5
17D
330
1F
100
AcDbEntity
  8
0
  6
Continuous
 62
     7
370
    25
100
AcDbCircle
 10
27.0203937008
 20
8.594015748
 30
0.0
 40
0.0700000000000003
100
AcDbArc
 50
180.0
 51
270.0
  0
LINE
  5
17E
330
1F
100
AcDbEntity
  8
0
  6
Continuous
 62
     7
370
    25
100
AcDbLine
 10
27.6003937008
 20
6.994015748
 30
0.0
 11
27.6003937008
 21
7.154015748
 31
0.0
  0
ARC
  5
17F
330
1F
100
AcDbEntity
  8
0
  6
Continuous
 62
     7
370
    25
100
AcDbCircle
 10
27.6703937008
 20
7.154015748
 30
0.0
 40
0.0700000000000003
100
AcDbArc
 50
90.0
 51
180.0000000005
  0
LINE
  5
180
330
1F
100
AcDbEntity
  8
0
  6
Continuous
 62
     7
370
    25
100
AcDbLine
 10
27.6803937008
 20
7.224015748
 30
0.0
 11
27.6703937008
 21
7.224015748
 31
0.0
  0
ARC
  5
181
330
1F
100
AcDbEntity
  8
0
  6
Continuous
 62
     7
370
    25
100
AcDbCircle
 10
27.6803937008
 20
7.154015748
 30
0.0
 40
0.0700000000000038
100
AcDbArc
 50
359.9999999997
 51
90.0
  0
LINE
  5
182
330
1F
100
AcDbEntity
  8
0
  6
Continuous
 62
     7
370
    25
100
AcDbLine
 10
27.7503937008
 20
7.154015748
 30
0.0
 11
27.7503937008
 21
6.994015748
 31
0.0
  0
ARC
  5
183
330
1F
100
AcDbEntity
  8
0
  6
Continuous
 62
     7
370
    25
100
AcDbCircle
 10
27.6803937008
 20
6.994015748
 30
0.0
 40
0.0700000000000038
100
AcDbArc
 50
270.0
 51
0.0
  0
LINE
  5
184
330
1F
100
AcDbEntity
  8
0
  6
Continuous
 62
     7
370
    25
100
AcDbLine
 10
27.6803937008
 20
6.924015748
 30
0.0
 11
27.6703937008
 21
6.924015748
 31
0.0
  0
ARC
  5
185
330
1F
100
AcDbEntity
  8
0
  6
Continuous
 62
     7
370
    25
100
AcDbCircle
 10
27.6703937008
 20
6.994015748
 30
0.0
 40
0.0700000000000003
100
AcDbArc
 50
180.0
 51
270.0
  0
LINE
  5
186
330
1F
100
AcDbEntity
  8
0
  6
Continuous
 62
     7
370
    25
100
AcDbLine
 10
39.2703937008
 20
18.3617859808
 30
0.0
 11
39.4303937008
 21
18.3617859808
 31
0.0
  0
ARC
  5
187
330
1F
100
AcDbEntity
  8
0
  6
Continuous
 62
     7
370
    25
100
AcDbCircle
 10
39.4303937008
 20
18.2917859808
 30
0.0
 40
0.0699999999999932
100
AcDbArc
 50
360.0
 51
90.0
  0
LINE
  5
188
330
1F
100
AcDbEntity
  8
0
  6
Continuous
 62
     7
370
    25
100
AcDbLine
 10
39.5003937008
 20
18.2917859808
 30
0.0
 11
39.5003937008
 21
18.2817859808
 31
0.0
  0
ARC
  5
189
330
1F
100
AcDbEntity
  8
0
  6
Continuous
 62
     7
370
    25
100
AcDbCircle
 10
39.4303937008
 20
18.2817859808
 30
0.0
 40
0.0700000000000038
100
AcDbArc
 50
270.0
 51
360.0
  0
LINE
  5
18A
330
1F
100
AcDbEntity
  8
0
  6
Continuous
 62
     7
370
    25
100
AcDbLine
 10
39.4303937008
 20
18.2117859808
 30
0.0
 11
39.2703937008
 21
18.2117859808
 31
0.0
  0
ARC
  5
18B
330
1F
100
AcDbEntity
  8
0
  6
Continuous
 62
     7
370
    25
100
AcDbCircle
 10
39.2703937008
 20
18.2817859808
 30
0.0
 40
0.0700000000000003
100
AcDbArc
 50
180.0
 51
269.9999999988
  0
LINE
  5
18C
330
1F
100
AcDbEntity
  8
0
  6
Continuous
 62
     7
370
    25
100
AcDbLine
 10
39.2003937008
 20
18.2817859808
 30
0.0
 11
39.2003937008
 21
18.2917859808
 31
0.0
  0
ARC
  5
18D
330
1F
100
AcDbEntity
  8
0
  6
Continuous
 62
     7
370
    25
100
AcDbCircle
 10
39.2703937008
 20
18.2917859808
 30
0.0
 40
0.0700000000000074
100
AcDbArc
 50
90.0
 51
180.0
  0
LINE
  5
18E
330
1F
100
AcDbEntity
  8
0
  6
Continuous
 62
     7
370
    25
100
AcDbLine
 10
39.2703937008
 20
19.0979063879
 30
0.0
 11
39.4303937008
 21
19.0979063879
 31
0.0
  0
ARC
  5
18F
330
1F
100
AcDbEntity
  8
0
  6
Continuous
 62
     7
370
    25
100
AcDbCircle
 10
39.4303937008
 20
19.0279063879
 30
0.0
 40
0.0700000000000003
100
AcDbArc
 50
0.0
 51
90.0
  0
LINE
  5
190
330
1F
100
AcDbEntity
  8
0
  6
Continuous
 62
     7
370
    25
100
AcDbLine
 10
39.5003937008
 20
19.0279063879
 30
0.0
 11
39.5003937008
 21
19.0179063879
 31
0.0
  0
ARC
  5
191
330
1F
100
AcDbEntity
  8
0
  6
Continuous
 62
     7
370
    25
100
AcDbCircle
 10
39.4303937008
 20
19.0179063879
 30
0.0
 40
0.0700000000000003
100
AcDbArc
 50
270.0
 51
360.0
  0
LINE
  5
192
330
1F
100
AcDbEntity
  8
0
  6
Continuous
 62
     7
370
    25
100
AcDbLine
 10
39.4303937008
 20
18.9479063879
 30
0.0
 11
39.2703937008
 21
18.9479063879
 31
0.0
  0
ARC
  5
193
330
1F
100
AcDbEntity
  8
0
  6
Continuous
 62
     7
370
    25
100
AcDbCircle
 10
39.2703937008
 20
19.0179063879
 30
0.0
 40
0.0700000000000003
100
AcDbArc
 50
180.0
 51
270.0
  0
LINE
  5
194
330
1F
100
AcDbEntity
  8
0
  6
Continuous
 62
     7
370
    25
100
AcDbLine
 10
39.2003937008
 20
19.0179063879
 30
0.0
 11
39.2003937008
 21
19.0279063879
 31
0.0
  0
ARC
  5
195
330
1F
100
AcDbEntity
  8
0
  6
Continuous
 62
     7
370
    25
100
AcDbCircle
 10
39.2703937008
 20
19.0279063879
 30
0.0
 40
0.0700000000000038
100
AcDbArc
 50
90.0
 51
180.0
  0
LINE
  5
196
330
1F
100
AcDbEntity
  8
0
  6
Continuous
 62
     7
370
    25
100
AcDbLine
 10
33.7739319915
 20
18.972730755
 30
0.0
 11
33.9124960561
 21
19.052730755
 31
0.0
  0
ARC
  5
197
330
1F
100
AcDbEntity
  8
0
  6
Continuous
 62
     7
370
    25
100
AcDbCircle
 10
33.9474960561
 20
18.9921089767
 30
0.0
 40
0.0700000000000035
100
AcDbArc
 50
30.0
 51
120.0
  0
LINE
  5
198
330
1F
100
AcDbEntity
  8
0
  6
Continuous
 62
     7
370
    25
100
AcDbLine
 10
34.0081178344
 20
19.0271089767
 30
0.0
 11
34.0131178344
 21
19.0184487227
 31
0.0
  0
ARC
  5
199
330
1F
100
AcDbEntity
  8
0
  6
Continuous
 62
     7
370
    25
100
AcDbCircle
 10
33.9524960561
 20
18.9834487227
 30
0.0
 40
0.0700000000000071
100
AcDbArc
 50
300.0
 51
30.0
  0
LINE
  5
19A
330
1F
100
AcDbEntity
  8
0
  6
Continuous
 62
     7
370
    25
100
AcDbLine
 10
33.9874960561
 20
18.9228269444
 30
0.0
 11
33.8489319915
 21
18.8428269444
 31
0.0
  0
ARC
  5
19B
330
1F
100
AcDbEntity
  8
0
  6
Continuous
 62
     7
370
    25
100
AcDbCircle
 10
33.8139319915
 20
18.9034487227
 30
0.0
 40
0.0700000000000066
100
AcDbArc
 50
210.0
 51
300.0
  0
LINE
  5
19C
330
1F
100
AcDbEntity
  8
0
  6
Continuous
 62
     7
370
    25
100
AcDbLine
 10
33.7483102132
 20
18.8771089767
 30
0.0
 11
33.7533102132
 21
18.8684487227
 31
0.0
  0
ARC
  5
19D
330
1F
100
AcDbEntity
  8
0
  6
Continuous
 62
     7
370
    25
100
AcDbCircle
 10
33.8089319915
 20
18.9121089767
 30
0.0
 40
0.070000000000004
100
AcDbArc
 50
120.0
 51
210.0
  0
LINE
  5
19E
330
1F
100
AcDbEntity
  8
0
  6
Continuous
 62
     7
370
    25
100
AcDbLine
 10
32.7132913455
 20
17.6098142425
 30
0.0
 11
32.8518554101
 21
17.6898142425
 31
0.0
  0
ARC
  5
19F
330
1F
100
AcDbEntity
  8
0
  6
Continuous
 62
     7
370
    25
100
AcDbCircle
 10
32.8868554101
 20
17.6291924642
 30
0.0
 40
0.0700000000000089
100
AcDbArc
 50
30.0
 51
120.0
  0
LINE
  5
1A0
330
1F
100
AcDbEntity
  8
0
  6
Continuous
 62
     7
370
    25
100
AcDbLine
 10
32.9524771883
 20
17.6555322102
 30
0.0
 11
32.9474771883
 21
17.6641924642
 31
0.0
  0
ARC
  5
1A1
330
1F
100
AcDbEntity
  8
0
  6
Continuous
 62
     7
370
    25
100
AcDbCircle
 10
32.8918554101
 20
17.6205322102
 30
0.0
 40
0.0700000000000071
100
AcDbArc
 50
300.0000000002
 51
30.0
  0
LINE
  5
1A2
330
1F
100
AcDbEntity
  8
0
  6
Continuous
 62
     7
370
    25
100
AcDbLine
 10
32.9268554101
 20
17.5599104319
 30
0.0
 11
32.7882913455
 21
17.4799104319
 31
0.0
  0
ARC
  5
1A3
330
1F
100
AcDbEntity
  8
0
  6
Continuous
 62
     7
370
    25
100
AcDbCircle
 10
32.7532913455
 20
17.5405322102
 30
0.0
 40
0.0700000000000071
100
AcDbArc
 50
210.0
 51
300.0
  0
LINE
  5
1A4
330
1F
100
AcDbEntity
  8
0
  6
Continuous
 62
     7
370
    25
100
AcDbLine
 10
32.6926695672
 20
17.5055322102
 30
0.0
 11
32.6876695672
 21
17.5141924642
 31
0.0
  0
ARC
  5
1A5
330
1F
100
AcDbEntity
  8
0
  6
Continuous
 62
     7
370
    25
100
AcDbCircle
 10
32.7482913455
 20
17.5491924642
 30
0.0
 40
0.0700000000000027
100
AcDbArc
 50
120.0
 51
210.0
  0
LINE
  5
1A6
330
1F
100
AcDbEntity
  8
0
  6
Continuous
 62
     7
370
    25
100
AcDbLine
 10
48.3930691514
 20
13.1871828967
 30
0.0
 11
48.4730691514
 21
13.0486188321
 31
0.0
  0
ARC
  5
1A7
330
1F
100
AcDbEntity
  8
0
  6
Continuous
 62
     7
370
    25
100
AcDbCircle
 10
48.4124473732
 20
13.0136188321
 30
0.0
 40
0.0700000000000051
100
AcDbArc
 50
300.0
 51
30.0
  0
LINE
  5
1A8
330
1F
100
AcDbEntity
  8
0
  6
Continuous
 62
     7
370
    25
100
AcDbLine
 10
48.4474473732
 20
12.9529970538
 30
0.0
 11
48.4387871191
 21
12.9479970538
 31
0.0
  0
ARC
  5
1A9
330
1F
100
AcDbEntity
  8
0
  6
Continuous
 62
     7
370
    25
100
AcDbCircle
 10
48.4037871191
 20
13.0086188321
 30
0.0
 40
0.070000000000008
100
AcDbArc
 50
210.0
 51
300.0
  0
LINE
  5
1AA
330
1F
100
AcDbEntity
  8
0
  6
Continuous
 62
     7
370
    25
100
AcDbLine
 10
48.3431653409
 20
12.9736188321
 30
0.0
 11
48.2631653409
 21
13.1121828967
 31
0.0
  0
ARC
  5
1AB
330
1F
100
AcDbEntity
  8
0
  6
Continuous
 62
     7
370
    25
100
AcDbCircle
 10
48.3237871191
 20
13.1471828967
 30
0.0
 40
0.0699999999999986
100
AcDbArc
 50
120.0
 51
209.9999999988
  0
LINE
  5
1AC
330
1F
100
AcDbEntity
  8
0
  6
Continuous
 62
     7
370
    25
100
AcDbLine
 10
48.2887871191
 20
13.207804675
 30
0.0
 11
48.2974473732
 21
13.212804675
 31
0.0
  0
ARC
  5
1AD
330
1F
100
AcDbEntity
  8
0
  6
Continuous
 62
     7
370
    25
100
AcDbCircle
 10
48.3324473732
 20
13.1521828967
 30
0.0
 40
0.0700000000000089
100
AcDbArc
 50
30.0
 51
120.0
  0
LINE
  5
1AE
330
1F
100
AcDbEntity
  8
0
  6
Continuous
 62
     7
370
    25
100
AcDbLine
 10
49.0305681242
 20
13.5552431003
 30
0.0
 11
49.1105681242
 21
13.4166790357
 31
0.0
  0
ARC
  5
1AF
330
1F
100
AcDbEntity
  8
0
  6
Continuous
 62
     7
370
    25
100
AcDbCircle
 10
49.0499463459
 20
13.3816790357
 30
0.0
 40
0.0700000000000035
100
AcDbArc
 50
300.0
 51
30.0
  0
LINE
  5
1B0
330
1F
100
AcDbEntity
  8
0
  6
Continuous
 62
     7
370
    25
100
AcDbLine
 10
49.0849463459
 20
13.3210572574
 30
0.0
 11
49.0762860919
 21
13.3160572574
 31
0.0
  0
ARC
  5
1B1
330
1F
100
AcDbEntity
  8
0
  6
Continuous
 62
     7
370
    25
100
AcDbCircle
 10
49.0412860919
 20
13.3766790357
 30
0.0
 40
0.0699999999999932
100
AcDbArc
 50
210.0
 51
300.0
  0
LINE
  5
1B2
330
1F
100
AcDbEntity
  8
0
  6
Continuous
 62
     7
370
    25
100
AcDbLine
 10
48.9806643136
 20
13.3416790357
 30
0.0
 11
48.9006643136
 21
13.4802431003
 31
0.0
  0
ARC
  5
1B3
330
1F
100
AcDbEntity
  8
0
  6
Continuous
 62
     7
370
    25
100
AcDbCircle
 10
48.9612860919
 20
13.5152431003
 30
0.0
 40
0.0700000000000061
100
AcDbArc
 50
120.0
 51
210.0
  0
LINE
  5
1B4
330
1F
100
AcDbEntity
  8
0
  6
Continuous
 62
     7
370
    25
100
AcDbLine
 10
48.9262860919
 20
13.5758648785
 30
0.0
 11
48.9349463459
 21
13.5808648785
 31
0.0
  0
ARC
  5
1B5
330
1F
100
AcDbEntity
  8
0
  6
Continuous
 62
     7
370
    25
100
AcDbCircle
 10
48.9699463459
 20
13.5202431003
 30
0.0
 40
0.0700000000000071
100
AcDbArc
 50
30.0
 51
120.0
  0
LINE
  5
1B6
330
1F
100
AcDbEntity
  8
0
  6
Continuous
 62
     7
370
    25
100
AcDbLine
 10
46.1739319915
 20
18.252730755
 30
0.0
 11
46.3124960561
 21
18.172730755
 31
0.0
  0
ARC
  5
1B7
330
1F
100
AcDbEntity
  8
0
  6
Continuous
 62
     7
370
    25
100
AcDbCircle
 10
46.2774960561
 20
18.1121089767
 30
0.0
 40
0.0700000000000066
100
AcDbArc
 50
330.0
 51
60.0
  0
LINE
  5
1B8
330
1F
100
AcDbEntity
  8
0
  6
Continuous
 62
     7
370
    25
100
AcDbLine
 10
46.3381178344
 20
18.0771089767
 30
0.0
 11
46.3331178344
 21
18.0684487227
 31
0.0
  0
ARC
  5
1B9
330
1F
100
AcDbEntity
  8
0
  6
Continuous
 62
     7
370
    25
100
AcDbCircle
 10
46.2724960561
 20
18.1034487227
 30
0.0
 40
0.070000000000005
100
AcDbArc
 50
240.0
 51
330.0
  0
LINE
  5
1BA
330
1F
100
AcDbEntity
  8
0
  6
Continuous
 62
     7
370
    25
100
AcDbLine
 10
46.2374960561
 20
18.0428269444
 30
0.0
 11
46.0989319915
 21
18.1228269444
 31
0.0
  0
ARC
  5
1BB
330
1F
100
AcDbEntity
  8
0
  6
Continuous
 62
     7
370
    25
100
AcDbCircle
 10
46.1339319915
 20
18.1834487227
 30
0.0
 40
0.0699999999999974
100
AcDbArc
 50
150.0
 51
240.0
  0
LINE
  5
1BC
330
1F
100
AcDbEntity
  8
0
  6
Continuous
 62
     7
370
    25
100
AcDbLine
 10
46.0783102132
 20
18.2271089767
 30
0.0
 11
46.0733102132
 21
18.2184487227
 31
0.0
  0
ARC
  5
1BD
330
1F
100
AcDbEntity
  8
0
  6
Continuous
 62
     7
370
    25
100
AcDbCircle
 10
46.1389319915
 20
18.1921089767
 30
0.0
 40
0.070000000000004
100
AcDbArc
 50
60.0
 51
150.0
  0
LINE
  5
1BE
330
1F
100
AcDbEntity
  8
0
  6
Continuous
 62
     7
370
    25
100
AcDbLine
 10
44.4632913455
 20
18.4898142425
 30
0.0
 11
44.6018554101
 21
18.4098142425
 31
0.0
  0
ARC
  5
1BF
330
1F
100
AcDbEntity
  8
0
  6
Continuous
 62
     7
370
    25
100
AcDbCircle
 10
44.5668554101
 20
18.3491924642
 30
0.0
 40
0.0699999999999966
100
AcDbArc
 50
330.0
 51
60.0
  0
LINE
  5
1C0
330
1F
100
AcDbEntity
  8
0
  6
Continuous
 62
     7
370
    25
100
AcDbLine
 10
44.6224771883
 20
18.3055322102
 30
0.0
 11
44.6274771883
 21
18.3141924642
 31
0.0
  0
ARC
  5
1C1
330
1F
100
AcDbEntity
  8
0
  6
Continuous
 62
     7
370
    25
100
AcDbCircle
 10
44.5618554101
 20
18.3405322102
 30
0.0
 40
0.0700000000000027
100
AcDbArc
 50
240.0000000001
 51
330.0
  0
LINE
  5
1C2
330
1F
100
AcDbEntity
  8
0
  6
Continuous
 62
     7
370
    25
100
AcDbLine
 10
44.5268554101
 20
18.2799104319
 30
0.0
 11
44.3882913455
 21
18.3599104319
 31
0.0
  0
ARC
  5
1C3
330
1F
100
AcDbEntity
  8
0
  6
Continuous
 62
     7
370
    25
100
AcDbCircle
 10
44.4232913455
 20
18.4205322102
 30
0.0
 40
0.0699999999999992
100
AcDbArc
 50
150.0
 51
240.0
  0
LINE
  5
1C4
330
1F
100
AcDbEntity
  8
0
  6
Continuous
 62
     7
370
    25
100
AcDbLine
 10
44.3626695672
 20
18.4555322102
 30
0.0
 11
44.3676695672
 21
18.4641924642
 31
0.0
  0
ARC
  5
1C5
330
1F
100
AcDbEntity
  8
0
  6
Continuous
 62
     7
370
    25
100
AcDbCircle
 10
44.4282913455
 20
18.4291924642
 30
0.0
 40
0.0700000000000168
100
AcDbArc
 50
60.0
 51
150.0
  0
LINE
  5
1C6
330
1F
100
AcDbEntity
  8
0
  6
Continuous
 62
     7
370
    25
100
AcDbLine
 10
37.1105681242
 20
2.3313524604
 30
0.0
 11
37.0305681242
 21
2.1927883958
 31
0.0
  0
ARC
  5
1C7
330
1F
100
AcDbEntity
  8
0
  6
Continuous
 62
     7
370
    25
100
AcDbCircle
 10
36.9699463459
 20
2.2277883958
 30
0.0
 40
0.0700000000000095
100
AcDbArc
 50
240.0
 51
330.0
  0
LINE
  5
1C8
330
1F
100
AcDbEntity
  8
0
  6
Continuous
 62
     7
370
    25
100
AcDbLine
 10
36.9349463459
 20
2.1671666175
 30
0.0
 11
36.9262860919
 21
2.1721666175
 31
0.0
  0
ARC
  5
1C9
330
1F
100
AcDbEntity
  8
0
  6
Continuous
 62
     7
370
    25
100
AcDbCircle
 10
36.9612860919
 20
2.2327883958
 30
0.0
 40
0.0700000000000045
100
AcDbArc
 50
150.0
 51
240.0
  0
LINE
  5
1CA
330
1F
100
AcDbEntity
  8
0
  6
Continuous
 62
     7
370
    25
100
AcDbLine
 10
36.9006643136
 20
2.2677883958
 30
0.0
 11
36.9806643136
 21
2.4063524604
 31
0.0
  0
ARC
  5
1CB
330
1F
100
AcDbEntity
  8
0
  6
Continuous
 62
     7
370
    25
100
AcDbCircle
 10
37.0412860919
 20
2.3713524604
 30
0.0
 40
0.0699999999999992
100
AcDbArc
 50
60.0
 51
150.0
  0
LINE
  5
1CC
330
1F
100
AcDbEntity
  8
0
  6
Continuous
 62
     7
370
    25
100
AcDbLine
 10
37.0762860919
 20
2.4319742387
 30
0.0
 11
37.0849463459
 21
2.4269742387
 31
0.0
  0
ARC
  5
1CD
330
1F
100
AcDbEntity
  8
0
  6
Continuous
 62
     7
370
    25
100
AcDbCircle
 10
37.0499463459
 20
2.3663524604
 30
0.0
 40
0.0700000000000038
100
AcDbArc
 50
330.0
 51
60.0
  0
LINE
  5
1CE
330
1F
100
AcDbEntity
  8
0
  6
Continuous
 62
     7
370
    25
100
AcDbLine
 10
36.2974473732
 20
2.5352268211
 30
0.0
 11
36.2887871191
 21
2.5402268211
 31
0.0
  0
ARC
  5
1CF
330
1F
100
AcDbEntity
  8
0
  6
Continuous
 62
     7
370
    25
100
AcDbCircle
 10
36.3237871191
 20
2.6008485993
 30
0.0
 40
0.0700000000000064
100
AcDbArc
 50
150.0
 51
240.0
  0
LINE
  5
1D0
330
1F
100
AcDbEntity
  8
0
  6
Continuous
 62
     7
370
    25
100
AcDbLine
 10
36.2631653409
 20
2.6358485993
 30
0.0
 11
36.3431653409
 21
2.7744126639
 31
0.0
  0
ARC
  5
1D1
330
1F
100
AcDbEntity
  8
0
  6
Continuous
 62
     7
370
    25
100
AcDbCircle
 10
36.4037871191
 20
2.7394126639
 30
0.0
 40
0.0700000000000024
100
AcDbArc
 50
60.0
 51
150.0000000033
  0
LINE
  5
1D2
330
1F
100
AcDbEntity
  8
0
  6
Continuous
 62
     7
370
    25
100
AcDbLine
 10
36.4387871191
 20
2.8000344422
 30
0.0
 11
36.4474473732
 21
2.7950344422
 31
0.0
  0
ARC
  5
1D3
330
1F
100
AcDbEntity
  8
0
  6
Continuous
 62
     7
370
    25
100
AcDbCircle
 10
36.4124473732
 20
2.7344126639
 30
0.0
 40
0.0700000000000099
100
AcDbArc
 50
330.0
 51
60.0
  0
LINE
  5
1D4
330
1F
100
AcDbEntity
  8
0
  6
Continuous
 62
     7
370
    25
100
AcDbLine
 10
36.4730691514
 20
2.6994126639
 30
0.0
 11
36.3930691514
 21
2.5608485993
 31
0.0
  0
ARC
  5
1D5
330
1F
100
AcDbEntity
  8
0
  6
Continuous
 62
     7
370
    25
100
AcDbCircle
 10
36.3324473732
 20
2.5958485993
 30
0.0
 40
0.0700000000000024
100
AcDbArc
 50
240.0
 51
330.0
  0
LINE
  5
1D6
330
1F
100
AcDbEntity
  8
0
  6
Continuous
 62
     7
370
    25
100
AcDbLine
 10
39.6003937008
 20
6.994015748
 30
0.0
 11
39.6003937008
 21
7.154015748
 31
0.0
  0
ARC
  5
1D7
330
1F
100
AcDbEntity
  8
0
  6
Continuous
 62
     7
370
    25
100
AcDbCircle
 10
39.6703937008
 20
7.154015748
 30
0.0
 40
0.0700000000000003
100
AcDbArc
 50
90.0
 51
180.0
  0
LINE
  5
1D8
330
1F
100
AcDbEntity
  8
0
  6
Continuous
 62
     7
370
    25
100
AcDbLine
 10
39.6803937008
 20
7.224015748
 30
0.0
 11
39.6703937008
 21
7.224015748
 31
0.0
  0
ARC
  5
1D9
330
1F
100
AcDbEntity
  8
0
  6
Continuous
 62
     7
370
    25
100
AcDbCircle
 10
39.6803937008
 20
7.154015748
 30
0.0
 40
0.0700000000000074
100
AcDbArc
 50
0.0
 51
90.0
  0
LINE
  5
1DA
330
1F
100
AcDbEntity
  8
0
  6
Continuous
 62
     7
370
    25
100
AcDbLine
 10
39.7503937008
 20
7.154015748
 30
0.0
 11
39.7503937008
 21
6.994015748
 31
0.0
  0
ARC
  5
1DB
330
1F
100
AcDbEntity
  8
0
  6
Continuous
 62
     7
370
    25
100
AcDbCircle
 10
39.6803937008
 20
6.994015748
 30
0.0
 40
0.0700000000000074
100
AcDbArc
 50
270.0
 51
0.0
  0
LINE
  5
1DC
330
1F
100
AcDbEntity
  8
0
  6
Continuous
 62
     7
370
    25
100
AcDbLine
 10
39.6803937008
 20
6.924015748
 30
0.0
 11
39.6703937008
 21
6.924015748
 31
0.0
  0
ARC
  5
1DD
330
1F
100
AcDbEntity
  8
0
  6
Continuous
 62
     7
370
    25
100
AcDbCircle
 10
39.6703937008
 20
6.994015748
 30
0.0
 40
0.0700000000000003
100
AcDbArc
 50
180.0
 51
270.0
  0
LINE
  5
1DE
330
1F
100
AcDbEntity
  8
0
  6
Continuous
 62
     7
370
    25
100
AcDbLine
 10
39.1003937008
 20
8.754015748
 30
0.0
 11
39.1003937008
 21
8.594015748
 31
0.0
  0
ARC
  5
1DF
330
1F
100
AcDbEntity
  8
0
  6
Continuous
 62
     7
370
    25
100
AcDbCircle
 10
39.0303937008
 20
8.594015748
 30
0.0
 40
0.0700000000000003
100
AcDbArc
 50
270.0
 51
0.0
  0
LINE
  5
1E0
330
1F
100
AcDbEntity
  8
0
  6
Continuous
 62
     7
370
    25
100
AcDbLine
 10
39.0203937008
 20
8.524015748
 30
0.0
 11
39.0303937008
 21
8.524015748
 31
0.0
  0
ARC
  5
1E1
330
1F
100
AcDbEntity
  8
0
  6
Continuous
 62
     7
370
    25
100
AcDbCircle
 10
39.0203937008
 20
8.594015748
 30
0.0
 40
0.0700000000000003
100
AcDbArc
 50
180.0
 51
270.0
  0
LINE
  5
1E2
330
1F
100
AcDbEntity
  8
0
  6
Continuous
 62
     7
370
    25
100
AcDbLine
 10
38.9503937008
 20
8.594015748
 30
0.0
 11
38.9503937008
 21
8.754015748
 31
0.0
  0
ARC
  5
1E3
330
1F
100
AcDbEntity
  8
0
  6
Continuous
 62
     7
370
    25
100
AcDbCircle
 10
39.0203937008
 20
8.754015748
 30
0.0
 40
0.0700000000000003
100
AcDbArc
 50
90.0
 51
180.0
  0
LINE
  5
1E4
330
1F
100
AcDbEntity
  8
0
  6
Continuous
 62
     7
370
    25
100
AcDbLine
 10
39.0203937008
 20
8.824015748
 30
0.0
 11
39.0303937008
 21
8.824015748
 31
0.0
  0
ARC
  5
1E5
330
1F
100
AcDbEntity
  8
0
  6
Continuous
 62
     7
370
    25
100
AcDbCircle
 10
39.0303937008
 20
8.754015748
 30
0.0
 40
0.0700000000000003
100
AcDbArc
 50
0.0
 51
90.0
  0
LINE
  5
1E6
330
1F
100
AcDbEntity
  8
0
  6
Continuous
 62
     7
370
    25
100
AcDbLine
 10
42.0241087354
 20
4.5199465394
 30
0.0
 11
41.7513448287
 21
4.3624662244
 31
0.0
  0
ARC
  5
1E7
330
1F
100
AcDbEntity
  8
0
  6
Continuous
 62
     7
370
    25
100
AcDbCircle
 10
41.7119747499
 20
4.4306572011
 30
0.0
 40
0.0787401574803262
100
AcDbArc
 50
210.0
 51
300.0
  0
LINE
  5
1E8
330
1F
100
AcDbEntity
  8
0
  6
Continuous
 62
     7
370
    25
100
AcDbLine
 10
41.6437837733
 20
4.3912871223
 30
0.0
 11
41.6240987339
 21
4.4253826107
 31
0.0
  0
ARC
  5
1E9
330
1F
100
AcDbEntity
  8
0
  6
Continuous
 62
     7
370
    25
100
AcDbCircle
 10
41.6922897106
 20
4.4647526894
 30
0.0
 40
0.0787401574803115
100
AcDbArc
 50
120.0
 51
210.0
  0
LINE
  5
1EA
330
1F
100
AcDbEntity
  8
0
  6
Continuous
 62
     7
370
    25
100
AcDbLine
 10
41.6529196318
 20
4.5329436661
 30
0.0
 11
41.9256835385
 21
4.690423981
 31
0.0
  0
ARC
  5
1EB
330
1F
100
AcDbEntity
  8
0
  6
Continuous
 62
     7
370
    25
100
AcDbCircle
 10
41.9650536173
 20
4.6222330044
 30
0.0
 40
0.0787401574803243
100
AcDbArc
 50
30.0
 51
120.0
  0
LINE
  5
1EC
330
1F
100
AcDbEntity
  8
0
  6
Continuous
 62
     7
370
    25
100
AcDbLine
 10
42.0332445939
 20
4.6616030831
 30
0.0
 11
42.0529296333
 21
4.6275075948
 31
0.0
  0
ARC
  5
1ED
330
1F
100
AcDbEntity
  8
0
  6
Continuous
 62
     7
370
    25
100
AcDbCircle
 10
41.9847386566
 20
4.588137516
 30
0.0
 40
0.0787401574803211
100
AcDbArc
 50
300.0
 51
30.0
  0
ENDSEC
  0
SECTION
  2
OBJECTS
  0
DICTIONARY
  5
C
330
0
100
AcDbDictionary
281
     1
  3
ACAD_GROUP
350
D
  3
ACAD_LAYOUT
350
1A
  3
ACAD_MLINESTYLE
350
17
  3
ACAD_PLOTSETTINGS
350
19
  3
ACAD_PLOTSTYLENAME
350
E
  3
ACAD_SCALELIST
350
47
  0
DICTIONARY
  5
D
102
{ACAD_REACTORS
330
C
102
}
330
C
100
AcDbDictionary
281
     1
  0
DICTIONARY
  5
1A
102
{ACAD_REACTORS
330
C
102
}
330
C
100
AcDbDictionary
281
     1
  3
Layout1
350
1E
  3
Layout2
350
26
  3
Model
350
22
  0
DICTIONARY
  5
17
102
{ACAD_REACTORS
330
C
102
}
330
C
100
AcDbDictionary
281
     1
  3
Standard
350
18
  0
DICTIONARY
  5
19
102
{ACAD_REACTORS
330
C
102
}
330
C
100
AcDbDictionary
281
     1
  0
ACDBDICTIONARYWDFLT
  5
E
102
{ACAD_REACTORS
330
C
102
}
330
C
100
AcDbDictionary
281
     1
  3
Normal
350
F
100
AcDbDictionaryWithDefault
340
F
  0
DICTIONARY
  5
47
102
{ACAD_REACTORS
330
C
102
}
330
C
100
AcDbDictionary
281
     1
  3
A0
350
48
  3
A1
350
49
  3
A2
350
4A
  3
A3
350
4B
  3
A4
350
4C
  3
A5
350
4D
  3
A6
350
4E
  3
A7
350
4F
  3
A8
350
50
  3
A9
350
51
  3
B0
350
52
  3
B1
350
53
  3
B2
350
54
  3
B3
350
55
  3
B4
350
56
  3
B5
350
57
  3
B6
350
58
  3
B7
350
59
  3
B8
350
5A
  3
B9
350
5B
  3
C0
350
5C
  3
C1
350
5D
  3
C2
350
5E
  3
C3
350
5F
  3
C4
350
60
  3
C5
350
61
  3
C6
350
62
  3
C7
350
63
  3
C8
350
64
  3
C9
350
65
  3
D0
350
66
  3
D1
350
67
  3
D2
350
68
  0
LAYOUT
  5
1E
102
{ACAD_REACTORS
330
1A
102
}
330
1A
100
AcDbPlotSettings
  1

  2
none_device
  4

  6

 40
0.0
 41
0.0
 42
0.0
 43
0.0
 44
0.0
 45
0.0
 46
0.0
 47
0.0
 48
0.0
 49
0.0
140
0.0
141
0.0
142
1.0
143
1.0
 70
   688
 72
     0
 73
     0
 74
     5
  7

 75
    16
147
1.0
148
0.0
149
0.0
100
AcDbLayout
  1
Layout1
 70
     1
 71
     1
 10
0.0
 20
0.0
 11
12.0
 21
9.0
 12
0.0
 22
0.0
 32
0.0
 14
1.0000000000E+20
 24
1.0000000000E+20
 34
1.0000000000E+20
 15
-1.0000000000E+20
 25
-1.0000000000E+20
 35
-1.0000000000E+20
146
0.0
 13
0.0
 23
0.0
 33
0.0
 16
1.0
 26
0.0
 36
0.0
 17
0.0
 27
1.0
 37
0.0
 76
     0
330
1B
  0
LAYOUT
  5
26
102
{ACAD_REACTORS
330
1A
102
}
330
1A
100
AcDbPlotSettings
  1

  2
none_device
  4

  6

 40
0.0
 41
0.0
 42
0.0
 43
0.0
 44
0.0
 45
0.0
 46
0.0
 47
0.0
 48
0.0
 49
0.0
140
0.0
141
0.0
142
1.0
143
1.0
 70
   688
 72
     0
 73
     0
 74
     5
  7

 75
    16
147
1.0
148
0.0
149
0.0
100
AcDbLayout
  1
Layout2
 70
     1
 71
     2
 10
0.0
 20
0.0
 11
0.0
 21
0.0
 12
0.0
 22
0.0
 32
0.0
 14
0.0
 24
0.0
 34
0.0
 15
0.0
 25
0.0
 35
0.0
146
0.0
 13
0.0
 23
0.0
 33
0.0
 16
1.0
 26
0.0
 36
0.0
 17
0.0
 27
1.0
 37
0.0
 76
     0
330
23
  0
LAYOUT
  5
22
102
{ACAD_REACTORS
330
1A
102
}
330
1A
100
AcDbPlotSettings
  1

  2
none_device
  4
ANSI_A_(11.00_x_8.50_Inches)
  6

 40
6.35
 41
19.05
 42
6.35000508
 43
19.05000254
 44
279.4
 45
215.9
 46
-216.4762819365
 47
18.8997427227
 48
0.0
 49
0.0
140
0.0
141
0.0
142
0.35000128
143
1.0
 70
  1696
 72
     0
 73
     0
 74
     0
  7

 75
     0
147
0.5913241897
148
-39.4088153714
149
0.0
100
AcDbLayout
  1
Model
 70
     1
 71
     0
 10
0.0
 20
0.0
 11
12.0
 21
9.0
 12
0.0
 22
0.0
 32
0.0
 14
25.4692944239
 24
-4.1473688582
 34
0.0
 15
53.2314929777
 25
19.8954003543
 35
0.0
146
0.0
 13
0.0
 23
0.0
 33
0.0
 16
1.0
 26
0.0
 36
0.0
 17
0.0
 27
1.0
 37
0.0
 76
     0
330
1F
331
29
  0
MLINESTYLE
  5
18
102
{ACAD_REACTORS
330
17
102
}
330
17
100
AcDbMlineStyle
  2
Standard
 70
     0
  3

 62
   256
 51
90.0
 52
90.0
 71
     2
 49
0.5
 62
   256
  6
BYLAYER
 49
-0.5
 62
   256
  6
BYLAYER
  0
ACDBPLACEHOLDER
  5
F
102
{ACAD_REACTORS
330
E
102
}
330
E
  0
SCALE
  5
48
102
{ACAD_REACTORS
330
47
102
}
330
47
100
AcDbScale
 70
     0
300
1:1
140
1.0
141
1.0
290
     1
  0
SCALE
  5
49
102
{ACAD_REACTORS
330
47
102
}
330
47
100
AcDbScale
 70
     0
300
1:2
140
1.0
141
2.0
290
     0
  0
SCALE
  5
4A
102
{ACAD_REACTORS
330
47
102
}
330
47
100
AcDbScale
 70
     0
300
1:4
140
1.0
141
4.0
290
     0
  0
SCALE
  5
4B
102
{ACAD_REACTORS
330
47
102
}
330
47
100
AcDbScale
 70
     0
300
1:5
140
1.0
141
5.0
290
     0
  0
SCALE
  5
4C
102
{ACAD_REACTORS
330
47
102
}
330
47
100
AcDbScale
 70
     0
300
1:8
140
1.0
141
8.0
290
     0
  0
SCALE
  5
4D
102
{ACAD_REACTORS
330
47
102
}
330
47
100
AcDbScale
 70
     0
300
1:10
140
1.0
141
10.0
290
     0
  0
SCALE
  5
4E
102
{ACAD_REACTORS
330
47
102
}
330
47
100
AcDbScale
 70
     0
300
1:16
140
1.0
141
16.0
290
     0
  0
SCALE
  5
4F
102
{ACAD_REACTORS
330
47
102
}
330
47
100
AcDbScale
 70
     0
300
1:20
140
1.0
141
20.0
290
     0
  0
SCALE
  5
50
102
{ACAD_REACTORS
330
47
102
}
330
47
100
AcDbScale
 70
     0
300
1:30
140
1.0
141
30.0
290
     0
  0
SCALE
  5
51
102
{ACAD_REACTORS
330
47
102
}
330
47
100
AcDbScale
 70
     0
300
1:40
140
1.0
141
40.0
290
     0
  0
SCALE
  5
52
102
{ACAD_REACTORS
330
47
102
}
330
47
100
AcDbScale
 70
     0
300
1:50
140
1.0
141
50.0
290
     0
  0
SCALE
  5
53
102
{ACAD_REACTORS
330
47
102
}
330
47
100
AcDbScale
 70
     0
300
1:100
140
1.0
141
100.0
290
     0
  0
SCALE
  5
54
102
{ACAD_REACTORS
330
47
102
}
330
47
100
AcDbScale
 70
     0
300
2:1
140
2.0
141
1.0
290
     0
  0
SCALE
  5
55
102
{ACAD_REACTORS
330
47
102
}
330
47
100
AcDbScale
 70
     0
300
4:1
140
4.0
141
1.0
290
     0
  0
SCALE
  5
56
102
{ACAD_REACTORS
330
47
102
}
330
47
100
AcDbScale
 70
     0
300
8:1
140
8.0
141
1.0
290
     0
  0
SCALE
  5
57
102
{ACAD_REACTORS
330
47
102
}
330
47
100
AcDbScale
 70
     0
300
10:1
140
10.0
141
1.0
290
     0
  0
SCALE
  5
58
102
{ACAD_REACTORS
330
47
102
}
330
47
100
AcDbScale
 70
     0
300
100:1
140
100.0
141
1.0
290
     0
  0
SCALE
  5
59
102
{ACAD_REACTORS
330
47
102
}
330
47
100
AcDbScale
 70
     0
300
1/128" = 1'-0"
140
0.0078125
141
12.0
290
     0
  0
SCALE
  5
5A
102
{ACAD_REACTORS
330
47
102
}
330
47
100
AcDbScale
 70
     0
300
1/64" = 1'-0"
140
0.015625
141
12.0
290
     0
  0
SCALE
  5
5B
102
{ACAD_REACTORS
330
47
102
}
330
47
100
AcDbScale
 70
     0
300
1/32" = 1'-0"
140
0.03125
141
12.0
290
     0
  0
SCALE
  5
5C
102
{ACAD_REACTORS
330
47
102
}
330
47
100
AcDbScale
 70
     0
300
1/16" = 1'-0"
140
0.0625
141
12.0
290
     0
  0
SCALE
  5
5D
102
{ACAD_REACTORS
330
47
102
}
330
47
100
AcDbScale
 70
     0
300
3/32" = 1'-0"
140
0.09375
141
12.0
290
     0
  0
SCALE
  5
5E
102
{ACAD_REACTORS
330
47
102
}
330
47
100
AcDbScale
 70
     0
300
1/8" = 1'-0"
140
0.125
141
12.0
290
     0
  0
SCALE
  5
5F
102
{ACAD_REACTORS
330
47
102
}
330
47
100
AcDbScale
 70
     0
300
3/16" = 1'-0"
140
0.1875
141
12.0
290
     0
  0
SCALE
  5
60
102
{ACAD_REACTORS
330
47
102
}
330
47
100
AcDbScale
 70
     0
300
1/4" = 1'-0"
140
0.25
141
12.0
290
     0
  0
SCALE
  5
61
102
{ACAD_REACTORS
330
47
102
}
330
47
100
AcDbScale
 70
     0
300
3/8" = 1'-0"
140
0.375
141
12.0
290
     0
  0
SCALE
  5
62
102
{ACAD_REACTORS
330
47
102
}
330
47
100
AcDbScale
 70
     0
300
1/2" = 1'-0"
140
0.5
141
12.0
290
     0
  0
SCALE
  5
63
102
{ACAD_REACTORS
330
47
102
}
330
47
100
AcDbScale
 70
     0
300
3/4" = 1'-0"
140
0.75
141
12.0
290
     0
  0
SCALE
  5
64
102
{ACAD_REACTORS
330
47
102
}
330
47
100
AcDbScale
 70
     0
300
1" = 1'-0"
140
1.0
141
12.0
290
     0
  0
SCALE
  5
65
102
{ACAD_REACTORS
330
47
102
}
330
47
100
AcDbScale
 70
     0
300
1-1/2" = 1'-0"
140
1.5
141
12.0
290
     0
  0
SCALE
  5
66
102
{ACAD_REACTORS
330
47
102
}
330
47
100
AcDbScale
 70
     0
300
3" = 1'-0"
140
3.0
141
12.0
290
     0
  0
SCALE
  5
67
102
{ACAD_REACTORS
330
47
102
}
330
47
100
AcDbScale
 70
     0
300
6" = 1'-0"
140
6.0
141
12.0
290
     0
  0
SCALE
  5
68
102
{ACAD_REACTORS
330
47
102
}
330
47
100
AcDbScale
 70
     0
300
1'-0" = 1'-0"
140
12.0
141
12.0
290
     0
  0
ENDSEC
  0
EOF
