M48
;GenerationSoftware,Autodesk,EAGLE,9.6.2*%
;CreationDate,2023-04-17T23:02:55Z*%
FMAT,2
ICI,OFF
METRIC,TZ,000.000
T4C0.300
T3C0.350
T2C0.500
T1C1.016
%
G90
M71
T1
X272306Y-75860
X264686Y-75860
X150638Y-75860
X148098Y-75860
X145558Y-75860
X143018Y-75860
X21350Y-75860
X28970Y-75860
X26430Y-75860
X23890Y-75860
X267226Y-75860
X269766Y-75860
T2
X-4659Y-80352
X-5308Y-79977
X-3259Y-79428
X-3909Y-79053
X-4558Y-78678
X15766Y-61138
X16415Y-60763
X15866Y-62812
X16516Y-62437
X17165Y-62062
X15116Y-61513
X16641Y-39513
X17290Y-39138
X16741Y-41187
X17391Y-40812
X18040Y-40437
X15991Y-39888
X25891Y-34263
X26540Y-33888
X25991Y-35937
X26641Y-35562
X27290Y-35187
X25241Y-34638
X45016Y-44388
X45665Y-44013
X45116Y-46062
X45766Y-45687
X46415Y-45312
X44366Y-44763
X58141Y-36763
X58790Y-36388
X58891Y-38062
X59540Y-37687
X-45734Y45737
X-45085Y46112
X-45634Y44063
X-44984Y44438
X-44335Y44813
X-46384Y45362
X-26734Y35487
X-26085Y35862
X-26634Y33813
X-25984Y34188
X-25335Y34563
X-27384Y35112
X-17484Y40737
X-16835Y41112
X-17384Y39063
X18134Y40362
X-16085Y39813
X-18134Y40362
X-16734Y62487
X-16085Y62862
X-16634Y60813
X-15335Y61563
X-17384Y62112
X-3609Y70237
X-2960Y70612
X-2859Y68938
X-2210Y69313
X-15766Y-61138
X-16415Y-60763
X-15866Y-62812
X-16516Y-62437
X-17165Y-62062
X-15116Y-61513
X-16641Y-39513
X-17290Y-39138
X-16741Y-41187
X-17391Y-40812
X-18040Y-40437
X-15991Y-39888
X-25891Y-34263
X-26540Y-33888
X-25991Y-35937
X-26641Y-35562
X-27290Y-35187
X-25241Y-34638
X-45016Y-44388
X-45665Y-44013
X-45116Y-46062
X-45766Y-45687
X-46415Y-45312
X-44366Y-44763
X-58141Y-36763
X-58790Y-36388
X-58891Y-38062
X-59540Y-37687
X45734Y45737
X45085Y46112
X45634Y44063
X44984Y44438
X44335Y44813
X46384Y45362
X26734Y35487
X26085Y35862
X26634Y33813
X25984Y34188
X25335Y34563
X27384Y35112
X17484Y40737
X16835Y41112
X17384Y39063
X16734Y39438
X16085Y39813
X16734Y62487
X16085Y62862
X16634Y60813
X15984Y61188
X15335Y61563
X17384Y62112
X3609Y70237
X2960Y70612
X2859Y68938
X2210Y69313
X59484Y37737
X58835Y38112
X58734Y36438
X58085Y36813
X-59484Y37737
X-58835Y38112
X-58734Y36438
X-58085Y36813
X44049Y-5195
X44049Y-5945
X42549Y-4445
X42549Y-5195
X42549Y-5945
X44049Y-4445
X44049Y5430
X44049Y4680
X42549Y6180
X42549Y5430
X42549Y4680
X44049Y6180
X-44049Y-5195
X-44049Y-5945
X-42549Y-4445
X-42549Y-5195
X-42549Y-5945
X-44049Y-4445
X-44049Y5430
X-44049Y4680
X-42549Y6180
X-42549Y5430
X-42549Y4680
X-44049Y6180
X117009Y-80352
X116360Y-79977
X118409Y-79428
X117759Y-79053
X117110Y-78678
X137434Y-61138
X138083Y-60763
X137534Y-62812
X138184Y-62437
X138833Y-62062
X136784Y-61513
X138309Y-39513
X138958Y-39138
X138409Y-41187
X139059Y-40812
X139708Y-40437
X137659Y-39888
X147559Y-34263
X148208Y-33888
X147659Y-35937
X148309Y-35562
X148958Y-35187
X146909Y-34638
X166684Y-44388
X167333Y-44013
X166784Y-46062
X167434Y-45687
X168083Y-45312
X166034Y-44763
X179809Y-36763
X180458Y-36388
X180559Y-38062
X181208Y-37687
X75934Y45737
X76583Y46112
X76034Y44063
X76684Y44438
X77333Y44813
X75284Y45362
X94934Y35487
X95583Y35862
X95034Y33813
X95684Y34188
X96333Y34563
X94284Y35112
X104184Y40737
X104833Y41112
X104284Y39063
X104934Y39438
X105583Y39813
X103534Y40362
X104934Y62487
X105583Y62862
X105034Y60813
X105684Y61188
X106333Y61563
X104284Y62112
X118059Y70237
X118708Y70612
X118809Y68938
X119458Y69313
X105902Y-61138
X105252Y-60763
X105801Y-62812
X105152Y-62437
X104502Y-62062
X106551Y-61513
X105027Y-39513
X104377Y-39138
X104926Y-41187
X104277Y-40812
X103627Y-40437
X105676Y-39888
X95777Y-34263
X95127Y-33888
X95676Y-35937
X95027Y-35562
X94377Y-35187
X96426Y-34638
X76652Y-44388
X76002Y-44013
X76551Y-46062
X75902Y-45687
X75252Y-45312
X77301Y-44763
X63527Y-36763
X62877Y-36388
X62777Y-38062
X62127Y-37687
X167402Y45737
X166752Y46112
X167301Y44063
X166652Y44438
X166002Y44813
X168051Y45362
X148402Y35487
X147752Y35862
X148301Y33813
X147652Y34188
X147002Y34563
X149051Y35112
X139152Y40737
X138502Y41112
X139051Y39063
X138402Y39438
X137752Y39813
X139801Y40362
X137752Y62862
X138301Y60813
X137652Y61188
X137002Y61563
X139051Y62112
X125277Y70237
X124627Y70612
X124527Y68938
X123877Y69313
X181152Y37737
X180502Y38112
X180402Y36438
X179752Y36813
X62184Y37737
X62833Y38112
X62934Y36438
X63583Y36813
X165717Y-5195
X165717Y-5945
X164217Y-4445
X164217Y-5195
X164217Y-5945
X165717Y-4445
X165717Y5430
X165717Y4680
X164217Y6180
X164217Y5430
X164217Y4680
X165717Y6180
X77619Y-5195
X77619Y-5945
X79119Y-4445
X79119Y-5195
X79119Y-5945
X77619Y-4445
X77619Y5430
X77619Y4680
X79119Y6180
X79119Y5430
X79119Y4680
X77619Y6180
X238677Y-80352
X238027Y-79977
X240077Y-79428
X239427Y-79053
X238777Y-78678
X259101Y-61138
X259751Y-60763
X259202Y-62812
X259851Y-62437
X260501Y-62062
X258452Y-61513
X259976Y-39513
X260626Y-39138
X260077Y-41187
X260726Y-40812
X261376Y-40437
X259327Y-39888
X269226Y-34263
X269876Y-33888
X269327Y-35937
X269976Y-35562
X270626Y-35187
X268577Y-34638
X288351Y-44388
X289001Y-44013
X288452Y-46062
X289101Y-45687
X289751Y-45312
X287702Y-44763
X301476Y-36763
X302126Y-36388
X302226Y-38062
X302876Y-37687
X197601Y45737
X198251Y46112
X197702Y44063
X198351Y44438
X199001Y44813
X196952Y45362
X216601Y35487
X217251Y35862
X216702Y33813
X217351Y34188
X218001Y34563
X215952Y35112
X225851Y40737
X226501Y41112
X225952Y39063
X226601Y39438
X227251Y39813
X225202Y40362
X226601Y62487
X227251Y62862
X226702Y60813
X227351Y61188
X228001Y61563
X225952Y62112
X239726Y70237
X240376Y70612
X240476Y68938
X241126Y69313
X227570Y-61138
X226920Y-60763
X227469Y-62812
X226820Y-62437
X226170Y-62062
X228219Y-61513
X226695Y-39513
X226045Y-39138
X226594Y-41187
X225945Y-40812
X225295Y-40437
X227344Y-39888
X217445Y-34263
X216795Y-33888
X217344Y-35937
X216695Y-35562
X216045Y-35187
X218094Y-34638
X198320Y-44388
X197670Y-44013
X198219Y-46062
X197570Y-45687
X196920Y-45312
X198969Y-44763
X185195Y-36763
X184545Y-36388
X184445Y-38062
X183795Y-37687
X289070Y45737
X288420Y46112
X288969Y44063
X288320Y44438
X287670Y44813
X289719Y45362
X270070Y35487
X269420Y35862
X269969Y33813
X269320Y34188
X268670Y34563
X270719Y35112
X260820Y40737
X260170Y41112
X260719Y39063
X260070Y39438
X259420Y39813
X261469Y40362
X260070Y62487
X259420Y62862
X259969Y60813
X259320Y61188
X258670Y61563
X260719Y62112
X246945Y70237
X246295Y70612
X246195Y68938
X245545Y69313
X302820Y37737
X302170Y38112
X302070Y36438
X301420Y36813
X183851Y37737
X184501Y38112
X184601Y36438
X185251Y36813
X287385Y-5195
X287385Y-5945
X285885Y-4445
X285885Y-5195
X285885Y-5945
X287385Y-4445
X287385Y5430
X287385Y4680
X285885Y6180
X285885Y5430
X285885Y4680
X287385Y6180
X199286Y-5195
X199286Y-5945
X200786Y-4445
X200786Y-5195
X200786Y-5945
X199286Y-4445
X199286Y5430
X199286Y4680
X200786Y6180
X200786Y5430
X200786Y4680
X199286Y6180
X-16734Y39438
X-15984Y61188
X138402Y62487
T3
X-1700Y-54200
X121168Y-74292
X-5278Y-49722
X242835Y-74292
X116390Y-49722
X-500Y-74292
X238058Y-49722
X241636Y-54200
X119968Y-54200
T4
X-50142Y20766
X-34082Y8159
X-30137Y9216
X-21735Y21844
X525Y26595
X700Y50745
X700Y9270
X700Y17145
X700Y20995
X13650Y35870
X700Y32895
X700Y40770
X700Y44795
X700Y56695
X700Y60545
X-9800Y56520
X7875Y52670
X10850Y55645
X-7087Y53807
X-9975Y33595
X-7087Y30707
X8050Y29745
X23294Y12843
X44296Y24766
X8378Y4029
X15198Y7966
X18532Y9891
X37889Y6114
X28838Y15841
X35658Y19779
X39144Y21791
X49449Y27741
X52783Y29666
X44048Y36747
X49551Y19515
X53615Y18426
X43055Y33042
X24107Y25436
X23050Y21492
X29785Y7901
X22769Y-13752
X43596Y-25979
X7678Y-5241
X14498Y-9179
X17832Y-11104
X24239Y-29756
X28138Y-17054
X34958Y-20991
X38444Y-23004
X48749Y-28954
X52083Y-30879
X53848Y-19773
X41676Y-33155
X42765Y-37219
X50142Y-20766
X34082Y-8159
X30137Y-9216
X21735Y-21844
X-2700Y-5550
X-3600Y-4950
X-1650Y-11700
X-2250Y-21150
X-1650Y-35250
X-3300Y-53250
X121193Y-59613
X121193Y-58851
X121193Y-58089
X121193Y-57327
X120431Y-59613
X120431Y-58851
X120431Y-58089
X120431Y-57327
X120431Y-56565
X119669Y-56565
X119669Y-57327
X119669Y-58089
X119669Y-58851
X119669Y-59613
X118907Y-59613
X118907Y-58851
X118907Y-58089
X118907Y-57327
X118907Y-56565
X121168Y-75260
X120168Y-75260
X120168Y-74260
X119168Y-75260
X119168Y-74260
X121143Y-26595
X120968Y-50745
X120968Y-9270
X120968Y-17145
X120968Y-20995
X108018Y-35870
X120968Y-32895
X120968Y-40770
X120968Y-44795
X131468Y-56520
X113793Y-52670
X110818Y-55645
X128755Y-53807
X131643Y-33595
X128755Y-30707
X113618Y-29745
X98373Y-12843
X77371Y-24766
X113290Y-4029
X106470Y-7966
X103136Y-9891
X83779Y-6114
X92830Y-15841
X86010Y-19779
X82524Y-21791
X72219Y-27741
X68884Y-29666
X77620Y-36747
X72117Y-19515
X68053Y-18426
X78613Y-33042
X97561Y-25436
X98618Y-21492
X91883Y-7901
X98898Y13752
X78071Y25979
X113990Y5241
X107170Y9179
X103836Y11104
X97429Y29756
X93530Y17054
X86710Y20991
X83224Y23004
X72919Y28954
X69584Y30879
X67820Y19773
X79992Y33155
X78903Y37219
X71525Y20766
X87586Y8159
X91531Y9216
X99933Y21844
X122193Y26595
X122368Y50745
X122368Y9270
X122368Y17145
X122368Y20995
X135318Y35870
X122368Y32895
X122368Y40770
X122368Y44795
X122368Y56695
X122368Y60545
X111868Y56520
X129543Y52670
X132518Y55645
X114580Y53807
X111693Y33595
X114580Y30707
X129718Y29745
X144962Y12843
X165964Y24766
X130046Y4029
X136866Y7966
X140200Y9891
X159557Y6114
X150506Y15841
X157326Y19779
X160811Y21791
X171117Y27741
X174451Y29666
X165716Y36747
X171219Y19515
X175283Y18426
X164723Y33042
X145774Y25436
X144717Y21492
X151453Y7901
X144437Y-13752
X165264Y-25979
X129346Y-5241
X136166Y-9179
X139500Y-11104
X145907Y-29756
X149806Y-17054
X156626Y-20991
X160111Y-23004
X170417Y-28954
X173751Y-30879
X175516Y-19773
X163344Y-33155
X164433Y-37219
X171810Y-20766
X155749Y-8159
X151805Y-9216
X143403Y-21844
X118968Y-5550
X118068Y-4950
X120018Y-11700
X119418Y-21150
X120018Y-35250
X118368Y-53250
X242861Y-59613
X242861Y-58851
X242861Y-58089
X242861Y-57327
X242099Y-59613
X242099Y-58851
X242099Y-58089
X242099Y-57327
X242099Y-56565
X241337Y-56565
X241337Y-57327
X241337Y-58089
X241337Y-58851
X241337Y-59613
X240575Y-59613
X240575Y-58851
X240575Y-58089
X240575Y-57327
X240575Y-56565
X242835Y-75260
X241835Y-75260
X241835Y-74260
X240835Y-75260
X240835Y-74260
X242811Y-26595
X242636Y-50745
X242636Y-9270
X242636Y-17145
X242636Y-20995
X229686Y-35870
X242636Y-32895
X242636Y-40770
X242636Y-44795
X253136Y-56520
X235461Y-52670
X232486Y-55645
X250423Y-53807
X253311Y-33595
X250423Y-30707
X235286Y-29745
X220041Y-12843
X199039Y-24766
X234958Y-4029
X228138Y-7966
X224803Y-9891
X205446Y-6114
X214498Y-15841
X207678Y-19779
X204192Y-21791
X193886Y-27741
X190552Y-29666
X199288Y-36747
X193785Y-19515
X189721Y-18426
X200281Y-33042
X219229Y-25436
X220286Y-21492
X213551Y-7901
X220566Y13752
X199739Y25979
X235658Y5241
X228838Y9179
X225503Y11104
X219096Y29756
X215198Y17054
X208378Y20991
X204892Y23004
X194586Y28954
X191252Y30879
X189488Y19773
X201660Y33155
X200571Y37219
X193193Y20766
X209254Y8159
X213198Y9216
X221601Y21844
X243861Y26595
X244036Y50745
X244036Y9270
X244036Y17145
X244036Y20995
X256986Y35870
X244036Y32895
X244036Y40770
X244036Y44795
X244036Y56695
X244036Y60545
X233536Y56520
X251211Y52670
X254186Y55645
X236248Y53807
X233361Y33595
X236248Y30707
X251386Y29745
X266630Y12843
X287632Y24766
X251714Y4029
X258534Y7966
X261868Y9891
X281225Y6114
X272173Y15841
X278993Y19779
X282479Y21791
X292785Y27741
X296119Y29666
X287383Y36747
X292887Y19515
X296951Y18426
X286390Y33042
X267442Y25436
X266385Y21492
X273120Y7901
X266105Y-13752
X286932Y-25979
X251014Y-5241
X257834Y-9179
X261168Y-11104
X267575Y-29756
X271473Y-17054
X278293Y-20991
X281779Y-23004
X292085Y-28954
X295419Y-30879
X297183Y-19773
X285012Y-33155
X286101Y-37219
X293478Y-20766
X277417Y-8159
X273473Y-9216
X265070Y-21844
X240636Y-5550
X239736Y-4950
X241686Y-11700
X241086Y-21150
X241686Y-35250
X240036Y-53250
X0Y-29745
X11046Y-33748
X-11000Y-33838
X5271Y-27973
X-5000Y-27838
X0Y-21838
X0Y-14088
X120968Y9270
X5228Y-50942
X11000Y-56838
X-11000Y-56838
X-5000Y-51088
X0Y-45588
X0Y-37588
X8300Y-28500
X6800Y-32800
X5400Y-49100
X7300Y-55900
X1100Y-5800
X250Y-68260
X-25760Y-14872
X-23704Y-26441
X-34804Y-7392
X-21590Y-18552
X-26608Y-9589
X-18912Y-10919
X-12200Y-7044
X-53120Y-30669
X-46220Y-26685
X-41503Y-29998
X-43723Y-37945
X-54723Y-18892
X-46743Y-21214
X-39480Y-22794
X-32552Y-18794
X-1650Y-5720
X-5300Y-3060
X-1925Y-67374
X-25760Y14872
X-34750Y7308
X-23804Y26445
X-26861Y9421
X-21608Y18249
X-18912Y10919
X-12200Y7044
X-53120Y30669
X-46220Y26685
X-46731Y20944
X-54723Y18892
X-43723Y37945
X-41743Y29874
X-39480Y22794
X-32552Y18794
X-55762Y-31046
X-5725Y-1351
X-5300Y3060
X0Y29745
X-11046Y33748
X11000Y33838
X-5271Y27973
X5000Y27838
X0Y21838
X0Y14088
X0Y61338
X0Y53370
X-5228Y50942
X-11000Y56838
X11000Y56838
X5000Y51088
X0Y45588
X0Y37588
X-54768Y32768
X-4075Y4269
X0Y6120
X25760Y14872
X23704Y26441
X34804Y7392
X21590Y18552
X26608Y9589
X18912Y10919
X12200Y7044
X53120Y30669
X46220Y26685
X41503Y29998
X43723Y37945
X54723Y18892
X46743Y21214
X39480Y22794
X32552Y18794
X994Y63814
X1750Y5620
X5300Y3060
X25760Y-14872
X34750Y-7308
X23804Y-26445
X26861Y-9421
X21608Y-18249
X18912Y-10919
X12200Y-7044
X53120Y-30669
X46220Y-26685
X46731Y-20944
X54723Y-18892
X43723Y-37945
X41743Y-29874
X39480Y-22794
X32552Y-18794
X54768Y-32768
X4075Y-4369
X7865Y-56622
X6451Y-49749
X7600Y-33500
X7807Y-27707
X3250Y-67545
X55762Y31046
X5725Y1451
X5300Y-3060
X-3250Y-77260
X-4000Y-76510
X-4750Y-75760
X118418Y-77260
X117668Y-76510
X116918Y-75760
X240085Y-77260
X239335Y-76510
X238585Y-75760
X121668Y-29745
X132714Y-33748
X110668Y-33838
X126939Y-27973
X116668Y-27838
X121668Y-21838
X121668Y-14088
X121668Y-53370
X126896Y-50942
X132668Y-56838
X110668Y-56838
X116668Y-51088
X121668Y-45588
X121668Y-37588
X129968Y-28500
X128468Y-32800
X127068Y-49100
X128968Y-55900
X122768Y-5800
X121918Y-68260
X95908Y-14872
X97964Y-26441
X86864Y-7392
X100078Y-18552
X95060Y-9589
X102756Y-10919
X109468Y-7044
X68548Y-30669
X75448Y-26685
X80165Y-29998
X77945Y-37945
X66945Y-18892
X74925Y-21214
X82188Y-22794
X89116Y-18794
X120018Y-5720
X116368Y-3060
X2370Y-61798
X95908Y14872
X86918Y7308
X97864Y26445
X94806Y9421
X100060Y18249
X102756Y10919
X109468Y7044
X68548Y30669
X75448Y26685
X74937Y20944
X66945Y18892
X77945Y37945
X79925Y29874
X82188Y22794
X89116Y18794
X65906Y-31046
X115943Y-1351
X116368Y3060
X121668Y29745
X110621Y33748
X132668Y33838
X116396Y27973
X126668Y27838
X121668Y21838
X121668Y14088
X121668Y61338
X121668Y53370
X116440Y50942
X110668Y56838
X132668Y56838
X126668Y51088
X121668Y45588
X121668Y37588
X66900Y32768
X117593Y4269
X121668Y6120
X147428Y14872
X145372Y26441
X156472Y7392
X143258Y18552
X148276Y9589
X140580Y10919
X133868Y7044
X174788Y30669
X167888Y26685
X163171Y29998
X165391Y37945
X176391Y18892
X168411Y21214
X161148Y22794
X154220Y18794
X122662Y63814
X123418Y5620
X126968Y3060
X147428Y-14872
X156418Y-7308
X145472Y-26445
X148529Y-9421
X143276Y-18249
X140580Y-10919
X133868Y-7044
X174788Y-30669
X167888Y-26685
X168399Y-20944
X176391Y-18892
X165391Y-37945
X163411Y-29874
X161148Y-22794
X154220Y-18794
X176435Y-32768
X125743Y-4369
X129532Y-56622
X128118Y-49749
X129268Y-33500
X129475Y-27707
X124918Y-67545
X177430Y31046
X127393Y1451
X126968Y-3060
X243336Y-29745
X254382Y-33748
X232336Y-33838
X248607Y-27973
X238336Y-27838
X243336Y-21838
X243336Y-14088
X243336Y-53370
X248563Y-50942
X254336Y-56838
X232336Y-56838
X238336Y-51088
X243336Y-45588
X243336Y-37588
X251636Y-28500
X250136Y-32800
X248736Y-49100
X250636Y-55900
X244436Y-5800
X243585Y-68260
X217576Y-14872
X219632Y-26441
X208531Y-7392
X221746Y-18552
X216728Y-9589
X224424Y-10919
X231135Y-7044
X190216Y-30669
X197116Y-26685
X201832Y-29998
X199613Y-37945
X188613Y-18892
X196592Y-21214
X203856Y-22794
X210784Y-18794
X241686Y-5720
X238036Y-3060
X1608Y-61798
X217576Y14872
X208585Y7308
X219531Y26445
X216474Y9421
X221728Y18249
X224424Y10919
X231135Y7044
X190216Y30669
X197116Y26685
X196605Y20944
X188613Y18892
X199613Y37945
X201592Y29874
X203856Y22794
X210784Y18794
X187574Y-31046
X237611Y-1351
X238036Y3060
X243336Y29745
X232289Y33748
X254336Y33838
X238064Y27973
X248336Y27838
X243336Y21838
X243336Y14088
X243336Y61338
X243336Y53370
X238108Y50942
X232336Y56838
X254336Y56838
X248336Y51088
X243336Y45588
X243336Y37588
X188568Y32768
X239261Y4269
X243336Y6120
X269095Y14872
X267039Y26441
X278140Y7392
X264926Y18552
X269944Y9589
X262247Y10919
X255536Y7044
X296455Y30669
X289555Y26685
X284839Y29998
X287058Y37945
X298058Y18892
X290079Y21214
X282816Y22794
X275887Y18794
X244330Y63814
X245086Y5620
X248636Y3060
X269095Y-14872
X278086Y-7308
X267140Y-26445
X270197Y-9421
X264944Y-18249
X262247Y-10919
X255536Y-7044
X296455Y-30669
X289555Y-26685
X290067Y-20944
X298058Y-18892
X287058Y-37945
X285079Y-29874
X282816Y-22794
X275887Y-18794
X298103Y-32768
X247411Y-4369
X251200Y-56622
X249786Y-49749
X250936Y-33500
X251142Y-27707
X246585Y-67545
X299097Y31046
X249061Y1451
X248636Y-3060
X3132Y-61798
X2675Y-59613
X2675Y-58851
X2675Y-58089
X3437Y-59613
X3437Y-58851
X3437Y-58089
X2675Y-57327
X3437Y-57327
X3437Y-56565
X3437Y-55803
X2675Y-56565
X2675Y-55803
X1913Y-56565
X1913Y-55803
X700Y-27352
X1750Y-51327
X700Y-9270
X700Y-17145
X-9975Y-33945
X886Y-24506
X700Y-32895
X700Y-40770
X612Y-48557
X10850Y-55645
X-7000Y-53720
X-9888Y-56607
X8050Y-52845
X10937Y-32632
X8050Y-29745
X-6825Y-30795
X-23337Y-14282
X-43575Y-27179
X-7678Y-5241
X-14498Y-9179
X-34385Y-8334
X-20780Y-13020
X-28138Y-17054
X-34958Y-20991
X-41746Y-24809
X-48749Y-28954
X-52083Y-30879
X-42765Y-37219
X-50023Y-20798
X-53967Y-19741
X-41740Y-33394
X-22792Y-25788
X-21735Y-21844
X-30082Y-9487
X-24037Y13070
X-45325Y24148
X-8378Y4029
X-15198Y7966
X-24410Y25611
X-21666Y11486
X-28838Y15841
X-35658Y19779
X-42358Y23748
X-49449Y27741
X-52783Y29666
X-53615Y18426
X-43023Y32922
X-44080Y36867
X-49790Y19451
X-33729Y6844
X-29785Y7901
X-23257Y21308
X-700Y27352
X-1750Y51327
X-700Y9270
X-700Y17145
X9975Y33945
X-886Y24506
X-700Y32895
X-700Y40770
X-612Y48557
X-700Y56695
X-700Y60545
X-10850Y55645
X7000Y53720
X9888Y56607
X-8050Y52845
X-10937Y32632
X-8050Y29745
X6825Y30795
X23337Y14282
X43575Y27179
X7678Y5241
X14498Y9179
X34385Y8334
X20780Y13020
X28138Y17054
X34958Y20991
X41746Y24809
X48749Y28954
X52083Y30879
X42765Y37219
X50023Y20798
X53967Y19741
X41740Y33394
X22792Y25788
X21735Y21844
X30082Y9487
X24037Y-13070
X45325Y-24148
X8378Y-4029
X15198Y-7966
X24410Y-25611
X21666Y-11486
X28838Y-15841
X35658Y-19779
X42358Y-23748
X49449Y-27741
X52783Y-29666
X53615Y-18426
X43023Y-32922
X44080Y-36867
X49790Y-19451
X33729Y-6844
X29785Y-7901
X23257Y-21308
X-4900Y-4200
X-6100Y2100
X-1200Y6300
X4900Y4200
X6100Y-2100
X871Y-53871
X119742Y-67374
X124038Y-61798
X123276Y-61798
X124800Y-61798
X124342Y-59613
X124342Y-58851
X124342Y-58089
X125104Y-59613
X125104Y-58851
X125104Y-58089
X124342Y-57327
X125104Y-57327
X125104Y-56565
X125104Y-55803
X124342Y-56565
X124342Y-55803
X123580Y-56565
X123580Y-55803
X122368Y-27352
X123418Y-51327
X122368Y-9270
X122368Y-17145
X111693Y-33945
X122554Y-24506
X122368Y-32895
X122368Y-40770
X122280Y-48557
X132518Y-55645
X114668Y-53720
X111780Y-56607
X129718Y-52845
X132605Y-32632
X129718Y-29745
X114843Y-30795
X98330Y-14282
X78093Y-27179
X113990Y-5241
X107170Y-9179
X87283Y-8334
X100888Y-13020
X93530Y-17054
X86710Y-20991
X79922Y-24809
X72919Y-28954
X69584Y-30879
X78903Y-37219
X71645Y-20798
X67701Y-19741
X79928Y-33394
X98876Y-25788
X99933Y-21844
X91586Y-9487
X97630Y13070
X76343Y24148
X113290Y4029
X106470Y7966
X97258Y25611
X100002Y11486
X92830Y15841
X86010Y19779
X79310Y23748
X72219Y27741
X68884Y29666
X68053Y18426
X78645Y32922
X77588Y36867
X71878Y19451
X87939Y6844
X91883Y7901
X98411Y21308
X120968Y27352
X119918Y51327
X120968Y17145
X131643Y33945
X120782Y24506
X120968Y32895
X120968Y40770
X121055Y48557
X120968Y56695
X120968Y60545
X110818Y55645
X128668Y53720
X131555Y56607
X113618Y52845
X110730Y32632
X113618Y29745
X128493Y30795
X145005Y14282
X165243Y27179
X129346Y5241
X136166Y9179
X156052Y8334
X142448Y13020
X149806Y17054
X156626Y20991
X163414Y24809
X170417Y28954
X173751Y30879
X164433Y37219
X171691Y20798
X175635Y19741
X163408Y33394
X144460Y25788
X143403Y21844
X151750Y9487
X145705Y-13070
X166993Y-24148
X130046Y-4029
X136866Y-7966
X146077Y-25611
X143334Y-11486
X150506Y-15841
X157326Y-19779
X164026Y-23748
X171117Y-27741
X174451Y-29666
X175283Y-18426
X164691Y-32922
X165748Y-36867
X171458Y-19451
X155397Y-6844
X151453Y-7901
X144925Y-21308
X116768Y-4200
X115568Y2100
X120468Y6300
X126568Y4200
X127768Y-2100
X122539Y-53871
X0Y-53370
X241410Y-67374
X245705Y-61798
X244943Y-61798
X246467Y-61798
X246010Y-59613
X246010Y-58851
X246010Y-58089
X246772Y-59613
X246772Y-58851
X246772Y-58089
X246010Y-57327
X246772Y-57327
X246772Y-56565
X246772Y-55803
X246010Y-56565
X246010Y-55803
X245248Y-56565
X245248Y-55803
X244036Y-27352
X245086Y-51327
X244036Y-9270
X244036Y-17145
X233361Y-33945
X244222Y-24506
X244036Y-32895
X244036Y-40770
X243948Y-48557
X254186Y-55645
X236336Y-53720
X233448Y-56607
X251386Y-52845
X254273Y-32632
X251386Y-29745
X236511Y-30795
X219998Y-14282
X199760Y-27179
X235658Y-5241
X228838Y-9179
X208951Y-8334
X222556Y-13020
X215198Y-17054
X208378Y-20991
X201590Y-24809
X194586Y-28954
X191252Y-30879
X200571Y-37219
X193313Y-20798
X189368Y-19741
X201596Y-33394
X220544Y-25788
X221601Y-21844
X213254Y-9487
X219298Y13070
X198010Y24148
X234958Y4029
X228138Y7966
X218926Y25611
X221670Y11486
X214498Y15841
X207678Y19779
X200977Y23748
X193886Y27741
X190552Y29666
X189721Y18426
X200313Y32922
X199256Y36867
X193546Y19451
X209606Y6844
X213551Y7901
X220079Y21308
X242636Y27352
X241586Y51327
X242636Y9270
X242636Y17145
X253311Y33945
X242450Y24506
X242636Y32895
X242636Y40770
X242723Y48557
X242636Y56695
X242636Y60545
X232486Y55645
X250336Y53720
X253223Y56607
X235286Y52845
X232398Y32632
X235286Y29745
X250161Y30795
X266673Y14282
X286911Y27179
X251014Y5241
X257834Y9179
X277720Y8334
X264115Y13020
X271473Y17054
X278293Y20991
X285081Y24809
X292085Y28954
X295419Y30879
X286101Y37219
X293358Y20798
X297303Y19741
X285076Y33394
X266127Y25788
X265070Y21844
X273417Y9487
X267373Y-13070
X288661Y-24148
X251714Y-4029
X258534Y-7966
X267745Y-25611
X265001Y-11486
X272173Y-15841
X278993Y-19779
X285694Y-23748
X292785Y-27741
X296119Y-29666
X296951Y-18426
X286358Y-32922
X287415Y-36867
X293126Y-19451
X277065Y-6844
X273120Y-7901
X266592Y-21308
X238436Y-4200
X237236Y2100
X242136Y6300
X248236Y4200
X249436Y-2100
X244207Y-53871
X-475Y-59613
X-475Y-58851
X-475Y-58089
X-475Y-57327
X-1237Y-59613
X-1237Y-58851
X-1237Y-58089
X-1237Y-57327
X-1237Y-56565
X-1999Y-56565
X-1999Y-57327
X-1999Y-58089
X-1999Y-58851
X-1999Y-59613
X-2761Y-59613
X-2761Y-58851
X-2761Y-58089
X-2761Y-57327
X-2761Y-56565
X-500Y-75260
X-1500Y-75260
X-1500Y-74260
X-2500Y-75260
X-2500Y-74260
X-525Y-26595
X-700Y-50745
X-700Y-9270
X-700Y-17145
X-700Y-20995
X-13650Y-35870
X-700Y-32895
X-700Y-40770
X-700Y-44795
X9800Y-56520
X-7875Y-52670
X-10850Y-55645
X7087Y-53807
X9975Y-33595
X7087Y-30707
X-8050Y-29745
X-23294Y-12843
X-44296Y-24766
X-8378Y-4029
X-15198Y-7966
X-18532Y-9891
X-37889Y-6114
X-28838Y-15841
X-35658Y-19779
X-39144Y-21791
X-49449Y-27741
X-52783Y-29666
X-44048Y-36747
X-49551Y-19515
X-53615Y-18426
X-43055Y-33042
X-24107Y-25436
X-23050Y-21492
X-29785Y-7901
X-22769Y13752
X-43596Y25979
X-7678Y5241
X-14498Y9179
X-17832Y11104
X-24239Y29756
X-28138Y17054
X-34958Y20991
X-38444Y23004
X-48749Y28954
X-52083Y30879
X-53848Y19773
X-41676Y33155
X-42765Y37219
M30