G04 EAGLE Gerber RS-274X export*
G75*
%MOMM*%
%FSLAX34Y34*%
%LPD*%
%IN*%
%IPPOS*%
%AMOC8*
5,1,8,0,0,1.08239X$1,22.5*%
G01*
%ADD10C,0.254000*%


D10*
X0Y0D02*
X2159290Y0D01*
X2159290Y955708D01*
X2155386Y955708D01*
X2152001Y956739D01*
X2148357Y961487D01*
X2149139Y967420D01*
X2159285Y984999D01*
X2149139Y1002578D01*
X2148357Y1008511D01*
X2152001Y1013259D01*
X2155386Y1014291D01*
X2159290Y1014291D01*
X2159290Y1970000D01*
X0Y1970000D01*
X0Y1014291D01*
X3904Y1014291D01*
X7289Y1013259D01*
X10933Y1008511D01*
X10151Y1002578D01*
X6Y984999D01*
X10151Y967420D01*
X10933Y961487D01*
X7289Y956739D01*
X3904Y955708D01*
X0Y955708D01*
X0Y0D01*
X836366Y447213D02*
X942796Y50002D01*
X942803Y50002D01*
X945658Y45668D01*
X950507Y44074D01*
X1208783Y44074D01*
X1213632Y45668D01*
X1216487Y50002D01*
X1216494Y50002D01*
X1322924Y447213D01*
X1221153Y623485D01*
X1079645Y223447D01*
X938137Y623485D01*
X836366Y447213D01*
X836366Y1522785D02*
X938137Y1346514D01*
X1079645Y1746551D01*
X1221153Y1346514D01*
X1322924Y1522785D01*
X1216494Y1919996D01*
X1216487Y1919996D01*
X1213632Y1924330D01*
X1208783Y1925924D01*
X950507Y1925924D01*
X945658Y1924330D01*
X942803Y1919996D01*
X942796Y1919996D01*
X836366Y1522785D01*
X19285Y1045093D02*
X22928Y1040345D01*
X28861Y1039564D01*
X33609Y1043207D01*
X327619Y1043207D01*
X141225Y1229601D01*
X159533Y1262030D01*
X160314Y1267963D01*
X156671Y1272711D01*
X150738Y1273492D01*
X145990Y1269849D01*
X20066Y1051027D01*
X19285Y1045093D01*
X168666Y1304545D02*
X172309Y1299797D01*
X178243Y1299016D01*
X182991Y1302659D01*
X201487Y1333977D01*
X492256Y1043207D01*
X695800Y1043207D01*
X420114Y1365772D01*
X837319Y1288304D01*
X735547Y1464579D01*
X338337Y1571008D01*
X357373Y1604689D01*
X358154Y1610622D01*
X354511Y1615370D01*
X348578Y1616151D01*
X343830Y1612508D01*
X169447Y1310479D01*
X168666Y1304545D01*
X366506Y322794D02*
X367288Y316860D01*
X495156Y96077D01*
X526275Y42179D01*
X531023Y38536D01*
X536956Y39317D01*
X540599Y44065D01*
X539818Y49998D01*
X506217Y108212D01*
X653229Y362842D01*
X398597Y294615D01*
X380831Y324679D01*
X376083Y328323D01*
X370150Y327542D01*
X366506Y322794D01*
X366506Y1647205D02*
X370150Y1642457D01*
X376083Y1641676D01*
X380831Y1645319D01*
X398597Y1675383D01*
X653229Y1607156D01*
X506217Y1861786D01*
X539818Y1920000D01*
X540599Y1925933D01*
X536956Y1930681D01*
X531023Y1931462D01*
X526275Y1927819D01*
X495156Y1873921D01*
X367288Y1653138D01*
X366506Y1647205D01*
X1506061Y1607156D02*
X1760693Y1675383D01*
X1778459Y1645319D01*
X1783207Y1641676D01*
X1789140Y1642457D01*
X1792784Y1647205D01*
X1792003Y1653138D01*
X1664134Y1873921D01*
X1633015Y1927819D01*
X1628267Y1931462D01*
X1622334Y1930681D01*
X1618691Y1925933D01*
X1619472Y1920000D01*
X1653073Y1861786D01*
X1506061Y1607156D01*
X1321971Y681695D02*
X1423744Y505419D01*
X1820953Y398990D01*
X1801917Y365309D01*
X1801136Y359376D01*
X1804779Y354628D01*
X1810712Y353847D01*
X1815460Y357490D01*
X1989843Y659520D01*
X1990624Y665453D01*
X1986981Y670201D01*
X1981047Y670982D01*
X1976299Y667339D01*
X1957803Y636021D01*
X1667034Y926791D01*
X1463490Y926791D01*
X1739176Y604226D01*
X1321971Y681695D01*
X1831671Y926791D02*
X2018065Y740397D01*
X1999757Y707968D01*
X1998976Y702035D01*
X2002619Y697287D01*
X2008552Y696506D01*
X2013300Y700149D01*
X2139224Y918972D01*
X2140005Y924905D01*
X2136362Y929653D01*
X2130429Y930434D01*
X2125681Y926791D01*
X1831671Y926791D01*
X1337017Y1919996D02*
X1405244Y1665368D01*
X1552253Y1919996D01*
X1552241Y1920000D01*
X1553023Y1925933D01*
X1549379Y1930681D01*
X1545993Y1931713D01*
X1344495Y1929712D01*
X1342720Y1929478D01*
X1337909Y1925919D01*
X1337025Y1920000D01*
X1337017Y1919996D01*
X1337017Y50002D02*
X1337025Y49998D01*
X1337909Y44079D01*
X1342720Y40520D01*
X1344495Y40287D01*
X1545993Y38285D01*
X1549379Y39317D01*
X1553023Y44065D01*
X1552241Y49998D01*
X1552253Y50002D01*
X1405244Y304630D01*
X1337017Y50002D01*
X606267Y1925933D02*
X607049Y1920000D01*
X607037Y1919996D01*
X754046Y1665368D01*
X822273Y1919996D01*
X822265Y1920000D01*
X821381Y1925919D01*
X816570Y1929478D01*
X814795Y1929712D01*
X613297Y1931713D01*
X609911Y1930681D01*
X606267Y1925933D01*
X1506061Y362842D02*
X1653073Y108212D01*
X1619472Y49998D01*
X1618691Y44065D01*
X1622334Y39317D01*
X1628267Y38536D01*
X1633015Y42179D01*
X1664134Y96077D01*
X1792003Y316860D01*
X1792784Y322794D01*
X1789140Y327542D01*
X1783207Y328323D01*
X1778459Y324679D01*
X1760693Y294615D01*
X1506061Y362842D01*
X606267Y44065D02*
X609911Y39317D01*
X613297Y38285D01*
X814795Y40287D01*
X816570Y40520D01*
X821381Y44079D01*
X822265Y49998D01*
X822273Y50002D01*
X754046Y304630D01*
X607037Y50002D01*
X607049Y49998D01*
X606267Y44065D01*
X168666Y665453D02*
X169447Y659520D01*
X343830Y357490D01*
X348578Y353847D01*
X354511Y354628D01*
X358154Y359376D01*
X357373Y365309D01*
X338337Y398990D01*
X735547Y505419D01*
X837319Y681695D01*
X420114Y604226D01*
X695800Y926791D01*
X492256Y926791D01*
X201487Y636021D01*
X182991Y667339D01*
X178243Y670982D01*
X172309Y670201D01*
X168666Y665453D01*
X722437Y778769D02*
X913883Y814318D01*
X978820Y926791D01*
X848945Y926791D01*
X722437Y778769D01*
X1321971Y1288304D02*
X1739176Y1365772D01*
X1463490Y1043207D01*
X1667034Y1043207D01*
X1957803Y1333977D01*
X1976299Y1302659D01*
X1981047Y1299016D01*
X1986981Y1299797D01*
X1990624Y1304545D01*
X1989843Y1310479D01*
X1815460Y1612508D01*
X1810712Y1616151D01*
X1804779Y1615370D01*
X1801136Y1610622D01*
X1801917Y1604689D01*
X1820953Y1571008D01*
X1423744Y1464579D01*
X1321971Y1288304D01*
X1042984Y985000D02*
X1061315Y953250D01*
X1097977Y953250D01*
X1116308Y985000D01*
X1097977Y1016750D01*
X1061315Y1016750D01*
X1042984Y985000D01*
X1831671Y1043207D02*
X2125681Y1043207D01*
X2130429Y1039564D01*
X2136362Y1040345D01*
X2140005Y1045093D01*
X2139224Y1051027D01*
X2013300Y1269849D01*
X2008552Y1273492D01*
X2002619Y1272711D01*
X1998976Y1267963D01*
X1999757Y1262030D01*
X2018065Y1229601D01*
X1831671Y1043207D01*
X1014705Y756116D02*
X1079645Y572532D01*
X1144582Y756110D01*
X1079642Y868590D01*
X1014705Y756116D01*
X1014709Y1213886D02*
X1079645Y1101414D01*
X1144581Y1213886D01*
X1079645Y1397460D01*
X1014709Y1213886D01*
X1180461Y1043204D02*
X1310346Y1043204D01*
X1436864Y1191236D01*
X1245402Y1155685D01*
X1180461Y1043204D01*
X19285Y924905D02*
X20066Y918972D01*
X145990Y700149D01*
X150738Y696506D01*
X156671Y697287D01*
X160314Y702035D01*
X159533Y707968D01*
X141225Y740397D01*
X327619Y926791D01*
X33609Y926791D01*
X28861Y930434D01*
X22928Y929653D01*
X19285Y924905D01*
X722432Y1191229D02*
X848940Y1043207D01*
X978826Y1043207D01*
X913891Y1155679D01*
X722432Y1191229D01*
X1180466Y926787D02*
X1245401Y814316D01*
X1436857Y778765D01*
X1310348Y926787D01*
X1180466Y926787D01*
X1790335Y337393D02*
X1790273Y337004D01*
X1790152Y336630D01*
X1789973Y336279D01*
X1789742Y335961D01*
X1789464Y335683D01*
X1789145Y335452D01*
X1788795Y335273D01*
X1788420Y335151D01*
X1788032Y335090D01*
X1787638Y335090D01*
X1787250Y335151D01*
X1786875Y335273D01*
X1786525Y335452D01*
X1786206Y335683D01*
X1785928Y335961D01*
X1785697Y336279D01*
X1785518Y336630D01*
X1785396Y337004D01*
X1785335Y337393D01*
X1785335Y337786D01*
X1785396Y338175D01*
X1785518Y338549D01*
X1785697Y338900D01*
X1785928Y339218D01*
X1786206Y339497D01*
X1786525Y339728D01*
X1786875Y339907D01*
X1787250Y340028D01*
X1787638Y340090D01*
X1788032Y340090D01*
X1788420Y340028D01*
X1788795Y339907D01*
X1789145Y339728D01*
X1789464Y339497D01*
X1789742Y339218D01*
X1789973Y338900D01*
X1790152Y338549D01*
X1790273Y338175D01*
X1790335Y337786D01*
X1790335Y337393D01*
X1794085Y343888D02*
X1794023Y343500D01*
X1793902Y343125D01*
X1793723Y342775D01*
X1793492Y342456D01*
X1793214Y342178D01*
X1792895Y341947D01*
X1792545Y341768D01*
X1792170Y341646D01*
X1791782Y341585D01*
X1791388Y341585D01*
X1791000Y341646D01*
X1790625Y341768D01*
X1790275Y341947D01*
X1789956Y342178D01*
X1789678Y342456D01*
X1789447Y342775D01*
X1789268Y343125D01*
X1789146Y343500D01*
X1789085Y343888D01*
X1789085Y344282D01*
X1789146Y344670D01*
X1789268Y345045D01*
X1789447Y345395D01*
X1789678Y345714D01*
X1789956Y345992D01*
X1790275Y346223D01*
X1790625Y346402D01*
X1791000Y346523D01*
X1791388Y346585D01*
X1791782Y346585D01*
X1792170Y346523D01*
X1792545Y346402D01*
X1792895Y346223D01*
X1793214Y345992D01*
X1793492Y345714D01*
X1793723Y345395D01*
X1793902Y345045D01*
X1794023Y344670D01*
X1794085Y344282D01*
X1794085Y343888D01*
X1797835Y350383D02*
X1797773Y349995D01*
X1797652Y349620D01*
X1797473Y349270D01*
X1797242Y348951D01*
X1796964Y348673D01*
X1796645Y348442D01*
X1796295Y348263D01*
X1795920Y348142D01*
X1795532Y348080D01*
X1795138Y348080D01*
X1794750Y348142D01*
X1794375Y348263D01*
X1794025Y348442D01*
X1793706Y348673D01*
X1793428Y348951D01*
X1793197Y349270D01*
X1793018Y349620D01*
X1792896Y349995D01*
X1792835Y350383D01*
X1792835Y350777D01*
X1792896Y351166D01*
X1793018Y351540D01*
X1793197Y351890D01*
X1793428Y352209D01*
X1793706Y352487D01*
X1794025Y352718D01*
X1794375Y352897D01*
X1794750Y353019D01*
X1795138Y353080D01*
X1795532Y353080D01*
X1795920Y353019D01*
X1796295Y352897D01*
X1796645Y352718D01*
X1796964Y352487D01*
X1797242Y352209D01*
X1797473Y351890D01*
X1797652Y351540D01*
X1797773Y351166D01*
X1797835Y350777D01*
X1797835Y350383D01*
X1803325Y329893D02*
X1803264Y329504D01*
X1803142Y329130D01*
X1802964Y328779D01*
X1802732Y328461D01*
X1802454Y328183D01*
X1802136Y327952D01*
X1801785Y327773D01*
X1801411Y327651D01*
X1801022Y327590D01*
X1800629Y327590D01*
X1800240Y327651D01*
X1799866Y327773D01*
X1799515Y327952D01*
X1799197Y328183D01*
X1798918Y328461D01*
X1798687Y328779D01*
X1798508Y329130D01*
X1798387Y329504D01*
X1798325Y329893D01*
X1798325Y330286D01*
X1798387Y330675D01*
X1798508Y331049D01*
X1798687Y331400D01*
X1798918Y331718D01*
X1799197Y331997D01*
X1799515Y332228D01*
X1799866Y332407D01*
X1800240Y332528D01*
X1800629Y332590D01*
X1801022Y332590D01*
X1801411Y332528D01*
X1801785Y332407D01*
X1802136Y332228D01*
X1802454Y331997D01*
X1802732Y331718D01*
X1802964Y331400D01*
X1803142Y331049D01*
X1803264Y330675D01*
X1803325Y330286D01*
X1803325Y329893D01*
X1807075Y336388D02*
X1807014Y335999D01*
X1806892Y335625D01*
X1806713Y335275D01*
X1806482Y334956D01*
X1806204Y334678D01*
X1805886Y334447D01*
X1805535Y334268D01*
X1805161Y334146D01*
X1804772Y334085D01*
X1804379Y334085D01*
X1803990Y334146D01*
X1803616Y334268D01*
X1803265Y334447D01*
X1802947Y334678D01*
X1802668Y334956D01*
X1802437Y335275D01*
X1802258Y335625D01*
X1802137Y335999D01*
X1802075Y336388D01*
X1802075Y336782D01*
X1802137Y337170D01*
X1802258Y337545D01*
X1802437Y337895D01*
X1802668Y338214D01*
X1802947Y338492D01*
X1803265Y338723D01*
X1803616Y338902D01*
X1803990Y339023D01*
X1804379Y339085D01*
X1804772Y339085D01*
X1805161Y339023D01*
X1805535Y338902D01*
X1805886Y338723D01*
X1806204Y338492D01*
X1806482Y338214D01*
X1806713Y337895D01*
X1806892Y337545D01*
X1807014Y337170D01*
X1807075Y336782D01*
X1807075Y336388D01*
X1810825Y342883D02*
X1810764Y342495D01*
X1810642Y342120D01*
X1810463Y341770D01*
X1810232Y341451D01*
X1809954Y341173D01*
X1809636Y340942D01*
X1809285Y340763D01*
X1808911Y340642D01*
X1808522Y340580D01*
X1808129Y340580D01*
X1807740Y340642D01*
X1807366Y340763D01*
X1807015Y340942D01*
X1806697Y341173D01*
X1806418Y341451D01*
X1806187Y341770D01*
X1806008Y342120D01*
X1805887Y342495D01*
X1805825Y342883D01*
X1805825Y343277D01*
X1805887Y343665D01*
X1806008Y344040D01*
X1806187Y344390D01*
X1806418Y344709D01*
X1806697Y344987D01*
X1807015Y345218D01*
X1807366Y345397D01*
X1807740Y345519D01*
X1808129Y345580D01*
X1808522Y345580D01*
X1808911Y345519D01*
X1809285Y345397D01*
X1809636Y345218D01*
X1809954Y344987D01*
X1810232Y344709D01*
X1810463Y344390D01*
X1810642Y344040D01*
X1810764Y343665D01*
X1810825Y343277D01*
X1810825Y342883D01*
X1987835Y682393D02*
X1987773Y682004D01*
X1987652Y681630D01*
X1987473Y681279D01*
X1987242Y680961D01*
X1986964Y680683D01*
X1986645Y680452D01*
X1986295Y680273D01*
X1985920Y680151D01*
X1985532Y680090D01*
X1985138Y680090D01*
X1984750Y680151D01*
X1984375Y680273D01*
X1984025Y680452D01*
X1983706Y680683D01*
X1983428Y680961D01*
X1983197Y681279D01*
X1983018Y681630D01*
X1982896Y682004D01*
X1982835Y682393D01*
X1982835Y682786D01*
X1982896Y683175D01*
X1983018Y683549D01*
X1983197Y683900D01*
X1983428Y684218D01*
X1983706Y684497D01*
X1984025Y684728D01*
X1984375Y684907D01*
X1984750Y685028D01*
X1985138Y685090D01*
X1985532Y685090D01*
X1985920Y685028D01*
X1986295Y684907D01*
X1986645Y684728D01*
X1986964Y684497D01*
X1987242Y684218D01*
X1987473Y683900D01*
X1987652Y683549D01*
X1987773Y683175D01*
X1987835Y682786D01*
X1987835Y682393D01*
X1991585Y688888D02*
X1991523Y688500D01*
X1991402Y688125D01*
X1991223Y687775D01*
X1990992Y687456D01*
X1990714Y687178D01*
X1990395Y686947D01*
X1990045Y686768D01*
X1989670Y686646D01*
X1989282Y686585D01*
X1988888Y686585D01*
X1988500Y686646D01*
X1988125Y686768D01*
X1987775Y686947D01*
X1987456Y687178D01*
X1987178Y687456D01*
X1986947Y687775D01*
X1986768Y688125D01*
X1986646Y688500D01*
X1986585Y688888D01*
X1986585Y689282D01*
X1986646Y689670D01*
X1986768Y690045D01*
X1986947Y690395D01*
X1987178Y690714D01*
X1987456Y690992D01*
X1987775Y691223D01*
X1988125Y691402D01*
X1988500Y691523D01*
X1988888Y691585D01*
X1989282Y691585D01*
X1989670Y691523D01*
X1990045Y691402D01*
X1990395Y691223D01*
X1990714Y690992D01*
X1990992Y690714D01*
X1991223Y690395D01*
X1991402Y690045D01*
X1991523Y689670D01*
X1991585Y689282D01*
X1991585Y688888D01*
X1995335Y695383D02*
X1995273Y694995D01*
X1995152Y694620D01*
X1994973Y694270D01*
X1994742Y693951D01*
X1994464Y693673D01*
X1994145Y693442D01*
X1993795Y693263D01*
X1993420Y693142D01*
X1993032Y693080D01*
X1992638Y693080D01*
X1992250Y693142D01*
X1991875Y693263D01*
X1991525Y693442D01*
X1991206Y693673D01*
X1990928Y693951D01*
X1990697Y694270D01*
X1990518Y694620D01*
X1990396Y694995D01*
X1990335Y695383D01*
X1990335Y695777D01*
X1990396Y696166D01*
X1990518Y696540D01*
X1990697Y696890D01*
X1990928Y697209D01*
X1991206Y697487D01*
X1991525Y697718D01*
X1991875Y697897D01*
X1992250Y698019D01*
X1992638Y698080D01*
X1993032Y698080D01*
X1993420Y698019D01*
X1993795Y697897D01*
X1994145Y697718D01*
X1994464Y697487D01*
X1994742Y697209D01*
X1994973Y696890D01*
X1995152Y696540D01*
X1995273Y696166D01*
X1995335Y695777D01*
X1995335Y695383D01*
X2000825Y674893D02*
X2000764Y674504D01*
X2000642Y674130D01*
X2000464Y673779D01*
X2000232Y673461D01*
X1999954Y673183D01*
X1999636Y672952D01*
X1999285Y672773D01*
X1998911Y672651D01*
X1998522Y672590D01*
X1998129Y672590D01*
X1997740Y672651D01*
X1997366Y672773D01*
X1997015Y672952D01*
X1996697Y673183D01*
X1996418Y673461D01*
X1996187Y673779D01*
X1996008Y674130D01*
X1995887Y674504D01*
X1995825Y674893D01*
X1995825Y675286D01*
X1995887Y675675D01*
X1996008Y676049D01*
X1996187Y676400D01*
X1996418Y676718D01*
X1996697Y676997D01*
X1997015Y677228D01*
X1997366Y677407D01*
X1997740Y677528D01*
X1998129Y677590D01*
X1998522Y677590D01*
X1998911Y677528D01*
X1999285Y677407D01*
X1999636Y677228D01*
X1999954Y676997D01*
X2000232Y676718D01*
X2000464Y676400D01*
X2000642Y676049D01*
X2000764Y675675D01*
X2000825Y675286D01*
X2000825Y674893D01*
X2004575Y681388D02*
X2004514Y680999D01*
X2004392Y680625D01*
X2004213Y680275D01*
X2003982Y679956D01*
X2003704Y679678D01*
X2003386Y679447D01*
X2003035Y679268D01*
X2002661Y679146D01*
X2002272Y679085D01*
X2001879Y679085D01*
X2001490Y679146D01*
X2001116Y679268D01*
X2000765Y679447D01*
X2000447Y679678D01*
X2000168Y679956D01*
X1999937Y680275D01*
X1999758Y680625D01*
X1999637Y680999D01*
X1999575Y681388D01*
X1999575Y681782D01*
X1999637Y682170D01*
X1999758Y682545D01*
X1999937Y682895D01*
X2000168Y683214D01*
X2000447Y683492D01*
X2000765Y683723D01*
X2001116Y683902D01*
X2001490Y684023D01*
X2001879Y684085D01*
X2002272Y684085D01*
X2002661Y684023D01*
X2003035Y683902D01*
X2003386Y683723D01*
X2003704Y683492D01*
X2003982Y683214D01*
X2004213Y682895D01*
X2004392Y682545D01*
X2004514Y682170D01*
X2004575Y681782D01*
X2004575Y681388D01*
X2008325Y687883D02*
X2008264Y687495D01*
X2008142Y687120D01*
X2007963Y686770D01*
X2007732Y686451D01*
X2007454Y686173D01*
X2007136Y685942D01*
X2006785Y685763D01*
X2006411Y685642D01*
X2006022Y685580D01*
X2005629Y685580D01*
X2005240Y685642D01*
X2004866Y685763D01*
X2004515Y685942D01*
X2004197Y686173D01*
X2003918Y686451D01*
X2003687Y686770D01*
X2003508Y687120D01*
X2003387Y687495D01*
X2003325Y687883D01*
X2003325Y688277D01*
X2003387Y688665D01*
X2003508Y689040D01*
X2003687Y689390D01*
X2003918Y689709D01*
X2004197Y689987D01*
X2004515Y690218D01*
X2004866Y690397D01*
X2005240Y690519D01*
X2005629Y690580D01*
X2006022Y690580D01*
X2006411Y690519D01*
X2006785Y690397D01*
X2007136Y690218D01*
X2007454Y689987D01*
X2007732Y689709D01*
X2007963Y689390D01*
X2008142Y689040D01*
X2008264Y688665D01*
X2008325Y688277D01*
X2008325Y687883D01*
X355335Y1627393D02*
X355273Y1627004D01*
X355152Y1626630D01*
X354973Y1626279D01*
X354742Y1625961D01*
X354464Y1625683D01*
X354145Y1625452D01*
X353795Y1625273D01*
X353420Y1625151D01*
X353032Y1625090D01*
X352638Y1625090D01*
X352250Y1625151D01*
X351875Y1625273D01*
X351525Y1625452D01*
X351206Y1625683D01*
X350928Y1625961D01*
X350697Y1626279D01*
X350518Y1626630D01*
X350396Y1627004D01*
X350335Y1627393D01*
X350335Y1627786D01*
X350396Y1628175D01*
X350518Y1628549D01*
X350697Y1628900D01*
X350928Y1629218D01*
X351206Y1629497D01*
X351525Y1629728D01*
X351875Y1629907D01*
X352250Y1630028D01*
X352638Y1630090D01*
X353032Y1630090D01*
X353420Y1630028D01*
X353795Y1629907D01*
X354145Y1629728D01*
X354464Y1629497D01*
X354742Y1629218D01*
X354973Y1628900D01*
X355152Y1628549D01*
X355273Y1628175D01*
X355335Y1627786D01*
X355335Y1627393D01*
X359085Y1633888D02*
X359023Y1633500D01*
X358902Y1633125D01*
X358723Y1632775D01*
X358492Y1632456D01*
X358214Y1632178D01*
X357895Y1631947D01*
X357545Y1631768D01*
X357170Y1631646D01*
X356782Y1631585D01*
X356388Y1631585D01*
X356000Y1631646D01*
X355625Y1631768D01*
X355275Y1631947D01*
X354956Y1632178D01*
X354678Y1632456D01*
X354447Y1632775D01*
X354268Y1633125D01*
X354146Y1633500D01*
X354085Y1633888D01*
X354085Y1634282D01*
X354146Y1634670D01*
X354268Y1635045D01*
X354447Y1635395D01*
X354678Y1635714D01*
X354956Y1635992D01*
X355275Y1636223D01*
X355625Y1636402D01*
X356000Y1636523D01*
X356388Y1636585D01*
X356782Y1636585D01*
X357170Y1636523D01*
X357545Y1636402D01*
X357895Y1636223D01*
X358214Y1635992D01*
X358492Y1635714D01*
X358723Y1635395D01*
X358902Y1635045D01*
X359023Y1634670D01*
X359085Y1634282D01*
X359085Y1633888D01*
X362835Y1640383D02*
X362773Y1639995D01*
X362652Y1639620D01*
X362473Y1639270D01*
X362242Y1638951D01*
X361964Y1638673D01*
X361645Y1638442D01*
X361295Y1638263D01*
X360920Y1638142D01*
X360532Y1638080D01*
X360138Y1638080D01*
X359750Y1638142D01*
X359375Y1638263D01*
X359025Y1638442D01*
X358706Y1638673D01*
X358428Y1638951D01*
X358197Y1639270D01*
X358018Y1639620D01*
X357896Y1639995D01*
X357835Y1640383D01*
X357835Y1640777D01*
X357896Y1641166D01*
X358018Y1641540D01*
X358197Y1641890D01*
X358428Y1642209D01*
X358706Y1642487D01*
X359025Y1642718D01*
X359375Y1642897D01*
X359750Y1643019D01*
X360138Y1643080D01*
X360532Y1643080D01*
X360920Y1643019D01*
X361295Y1642897D01*
X361645Y1642718D01*
X361964Y1642487D01*
X362242Y1642209D01*
X362473Y1641890D01*
X362652Y1641540D01*
X362773Y1641166D01*
X362835Y1640777D01*
X362835Y1640383D01*
X368325Y1619893D02*
X368264Y1619504D01*
X368142Y1619130D01*
X367964Y1618779D01*
X367732Y1618461D01*
X367454Y1618183D01*
X367136Y1617952D01*
X366785Y1617773D01*
X366411Y1617651D01*
X366022Y1617590D01*
X365629Y1617590D01*
X365240Y1617651D01*
X364866Y1617773D01*
X364515Y1617952D01*
X364197Y1618183D01*
X363918Y1618461D01*
X363687Y1618779D01*
X363508Y1619130D01*
X363387Y1619504D01*
X363325Y1619893D01*
X363325Y1620286D01*
X363387Y1620675D01*
X363508Y1621049D01*
X363687Y1621400D01*
X363918Y1621718D01*
X364197Y1621997D01*
X364515Y1622228D01*
X364866Y1622407D01*
X365240Y1622528D01*
X365629Y1622590D01*
X366022Y1622590D01*
X366411Y1622528D01*
X366785Y1622407D01*
X367136Y1622228D01*
X367454Y1621997D01*
X367732Y1621718D01*
X367964Y1621400D01*
X368142Y1621049D01*
X368264Y1620675D01*
X368325Y1620286D01*
X368325Y1619893D01*
X372075Y1626388D02*
X372014Y1625999D01*
X371892Y1625625D01*
X371713Y1625275D01*
X371482Y1624956D01*
X371204Y1624678D01*
X370886Y1624447D01*
X370535Y1624268D01*
X370161Y1624146D01*
X369772Y1624085D01*
X369379Y1624085D01*
X368990Y1624146D01*
X368616Y1624268D01*
X368265Y1624447D01*
X367947Y1624678D01*
X367668Y1624956D01*
X367437Y1625275D01*
X367258Y1625625D01*
X367137Y1625999D01*
X367075Y1626388D01*
X367075Y1626782D01*
X367137Y1627170D01*
X367258Y1627545D01*
X367437Y1627895D01*
X367668Y1628214D01*
X367947Y1628492D01*
X368265Y1628723D01*
X368616Y1628902D01*
X368990Y1629023D01*
X369379Y1629085D01*
X369772Y1629085D01*
X370161Y1629023D01*
X370535Y1628902D01*
X370886Y1628723D01*
X371204Y1628492D01*
X371482Y1628214D01*
X371713Y1627895D01*
X371892Y1627545D01*
X372014Y1627170D01*
X372075Y1626782D01*
X372075Y1626388D01*
X375825Y1632883D02*
X375764Y1632495D01*
X375642Y1632120D01*
X375463Y1631770D01*
X375232Y1631451D01*
X374954Y1631173D01*
X374636Y1630942D01*
X374285Y1630763D01*
X373911Y1630642D01*
X373522Y1630580D01*
X373129Y1630580D01*
X372740Y1630642D01*
X372366Y1630763D01*
X372015Y1630942D01*
X371697Y1631173D01*
X371418Y1631451D01*
X371187Y1631770D01*
X371008Y1632120D01*
X370887Y1632495D01*
X370825Y1632883D01*
X370825Y1633277D01*
X370887Y1633665D01*
X371008Y1634040D01*
X371187Y1634390D01*
X371418Y1634709D01*
X371697Y1634987D01*
X372015Y1635218D01*
X372366Y1635397D01*
X372740Y1635519D01*
X373129Y1635580D01*
X373522Y1635580D01*
X373911Y1635519D01*
X374285Y1635397D01*
X374636Y1635218D01*
X374954Y1634987D01*
X375232Y1634709D01*
X375463Y1634390D01*
X375642Y1634040D01*
X375764Y1633665D01*
X375825Y1633277D01*
X375825Y1632883D01*
X155335Y1282393D02*
X155273Y1282004D01*
X155152Y1281630D01*
X154973Y1281279D01*
X154742Y1280961D01*
X154464Y1280683D01*
X154145Y1280452D01*
X153795Y1280273D01*
X153420Y1280151D01*
X153032Y1280090D01*
X152638Y1280090D01*
X152250Y1280151D01*
X151875Y1280273D01*
X151525Y1280452D01*
X151206Y1280683D01*
X150928Y1280961D01*
X150697Y1281279D01*
X150518Y1281630D01*
X150396Y1282004D01*
X150335Y1282393D01*
X150335Y1282786D01*
X150396Y1283175D01*
X150518Y1283549D01*
X150697Y1283900D01*
X150928Y1284218D01*
X151206Y1284497D01*
X151525Y1284728D01*
X151875Y1284907D01*
X152250Y1285028D01*
X152638Y1285090D01*
X153032Y1285090D01*
X153420Y1285028D01*
X153795Y1284907D01*
X154145Y1284728D01*
X154464Y1284497D01*
X154742Y1284218D01*
X154973Y1283900D01*
X155152Y1283549D01*
X155273Y1283175D01*
X155335Y1282786D01*
X155335Y1282393D01*
X159085Y1288888D02*
X159023Y1288500D01*
X158902Y1288125D01*
X158723Y1287775D01*
X158492Y1287456D01*
X158214Y1287178D01*
X157895Y1286947D01*
X157545Y1286768D01*
X157170Y1286646D01*
X156782Y1286585D01*
X156388Y1286585D01*
X156000Y1286646D01*
X155625Y1286768D01*
X155275Y1286947D01*
X154956Y1287178D01*
X154678Y1287456D01*
X154447Y1287775D01*
X154268Y1288125D01*
X154146Y1288500D01*
X154085Y1288888D01*
X154085Y1289282D01*
X154146Y1289670D01*
X154268Y1290045D01*
X154447Y1290395D01*
X154678Y1290714D01*
X154956Y1290992D01*
X155275Y1291223D01*
X155625Y1291402D01*
X156000Y1291523D01*
X156388Y1291585D01*
X156782Y1291585D01*
X157170Y1291523D01*
X157545Y1291402D01*
X157895Y1291223D01*
X158214Y1290992D01*
X158492Y1290714D01*
X158723Y1290395D01*
X158902Y1290045D01*
X159023Y1289670D01*
X159085Y1289282D01*
X159085Y1288888D01*
X162835Y1295383D02*
X162773Y1294995D01*
X162652Y1294620D01*
X162473Y1294270D01*
X162242Y1293951D01*
X161964Y1293673D01*
X161645Y1293442D01*
X161295Y1293263D01*
X160920Y1293142D01*
X160532Y1293080D01*
X160138Y1293080D01*
X159750Y1293142D01*
X159375Y1293263D01*
X159025Y1293442D01*
X158706Y1293673D01*
X158428Y1293951D01*
X158197Y1294270D01*
X158018Y1294620D01*
X157896Y1294995D01*
X157835Y1295383D01*
X157835Y1295777D01*
X157896Y1296166D01*
X158018Y1296540D01*
X158197Y1296890D01*
X158428Y1297209D01*
X158706Y1297487D01*
X159025Y1297718D01*
X159375Y1297897D01*
X159750Y1298019D01*
X160138Y1298080D01*
X160532Y1298080D01*
X160920Y1298019D01*
X161295Y1297897D01*
X161645Y1297718D01*
X161964Y1297487D01*
X162242Y1297209D01*
X162473Y1296890D01*
X162652Y1296540D01*
X162773Y1296166D01*
X162835Y1295777D01*
X162835Y1295383D01*
X168325Y1274893D02*
X168264Y1274504D01*
X168142Y1274130D01*
X167964Y1273779D01*
X167732Y1273461D01*
X167454Y1273183D01*
X167136Y1272952D01*
X166785Y1272773D01*
X166411Y1272651D01*
X166022Y1272590D01*
X165629Y1272590D01*
X165240Y1272651D01*
X164866Y1272773D01*
X164515Y1272952D01*
X164197Y1273183D01*
X163918Y1273461D01*
X163687Y1273779D01*
X163508Y1274130D01*
X163387Y1274504D01*
X163325Y1274893D01*
X163325Y1275286D01*
X163387Y1275675D01*
X163508Y1276049D01*
X163687Y1276400D01*
X163918Y1276718D01*
X164197Y1276997D01*
X164515Y1277228D01*
X164866Y1277407D01*
X165240Y1277528D01*
X165629Y1277590D01*
X166022Y1277590D01*
X166411Y1277528D01*
X166785Y1277407D01*
X167136Y1277228D01*
X167454Y1276997D01*
X167732Y1276718D01*
X167964Y1276400D01*
X168142Y1276049D01*
X168264Y1275675D01*
X168325Y1275286D01*
X168325Y1274893D01*
X172075Y1281388D02*
X172014Y1280999D01*
X171892Y1280625D01*
X171713Y1280275D01*
X171482Y1279956D01*
X171204Y1279678D01*
X170886Y1279447D01*
X170535Y1279268D01*
X170161Y1279146D01*
X169772Y1279085D01*
X169379Y1279085D01*
X168990Y1279146D01*
X168616Y1279268D01*
X168265Y1279447D01*
X167947Y1279678D01*
X167668Y1279956D01*
X167437Y1280275D01*
X167258Y1280625D01*
X167137Y1280999D01*
X167075Y1281388D01*
X167075Y1281782D01*
X167137Y1282170D01*
X167258Y1282545D01*
X167437Y1282895D01*
X167668Y1283214D01*
X167947Y1283492D01*
X168265Y1283723D01*
X168616Y1283902D01*
X168990Y1284023D01*
X169379Y1284085D01*
X169772Y1284085D01*
X170161Y1284023D01*
X170535Y1283902D01*
X170886Y1283723D01*
X171204Y1283492D01*
X171482Y1283214D01*
X171713Y1282895D01*
X171892Y1282545D01*
X172014Y1282170D01*
X172075Y1281782D01*
X172075Y1281388D01*
X175825Y1287883D02*
X175764Y1287495D01*
X175642Y1287120D01*
X175463Y1286770D01*
X175232Y1286451D01*
X174954Y1286173D01*
X174636Y1285942D01*
X174285Y1285763D01*
X173911Y1285642D01*
X173522Y1285580D01*
X173129Y1285580D01*
X172740Y1285642D01*
X172366Y1285763D01*
X172015Y1285942D01*
X171697Y1286173D01*
X171418Y1286451D01*
X171187Y1286770D01*
X171008Y1287120D01*
X170887Y1287495D01*
X170825Y1287883D01*
X170825Y1288277D01*
X170887Y1288665D01*
X171008Y1289040D01*
X171187Y1289390D01*
X171418Y1289709D01*
X171697Y1289987D01*
X172015Y1290218D01*
X172366Y1290397D01*
X172740Y1290519D01*
X173129Y1290580D01*
X173522Y1290580D01*
X173911Y1290519D01*
X174285Y1290397D01*
X174636Y1290218D01*
X174954Y1289987D01*
X175232Y1289709D01*
X175463Y1289390D01*
X175642Y1289040D01*
X175764Y1288665D01*
X175825Y1288277D01*
X175825Y1287883D01*
X177165Y682393D02*
X177104Y682004D01*
X176982Y681630D01*
X176803Y681279D01*
X176572Y680961D01*
X176294Y680683D01*
X175975Y680452D01*
X175625Y680273D01*
X175251Y680151D01*
X174862Y680090D01*
X174468Y680090D01*
X174080Y680151D01*
X173705Y680273D01*
X173355Y680452D01*
X173036Y680683D01*
X172758Y680961D01*
X172527Y681279D01*
X172348Y681630D01*
X172227Y682004D01*
X172165Y682393D01*
X172165Y682786D01*
X172227Y683175D01*
X172348Y683549D01*
X172527Y683900D01*
X172758Y684218D01*
X173036Y684497D01*
X173355Y684728D01*
X173705Y684907D01*
X174080Y685028D01*
X174468Y685090D01*
X174862Y685090D01*
X175251Y685028D01*
X175625Y684907D01*
X175975Y684728D01*
X176294Y684497D01*
X176572Y684218D01*
X176803Y683900D01*
X176982Y683549D01*
X177104Y683175D01*
X177165Y682786D01*
X177165Y682393D01*
X169665Y695383D02*
X169604Y694995D01*
X169482Y694620D01*
X169303Y694270D01*
X169072Y693951D01*
X168794Y693673D01*
X168475Y693442D01*
X168125Y693263D01*
X167751Y693142D01*
X167362Y693080D01*
X166968Y693080D01*
X166580Y693142D01*
X166205Y693263D01*
X165855Y693442D01*
X165536Y693673D01*
X165258Y693951D01*
X165027Y694270D01*
X164848Y694620D01*
X164727Y694995D01*
X164665Y695383D01*
X164665Y695777D01*
X164727Y696166D01*
X164848Y696540D01*
X165027Y696890D01*
X165258Y697209D01*
X165536Y697487D01*
X165855Y697718D01*
X166205Y697897D01*
X166580Y698019D01*
X166968Y698080D01*
X167362Y698080D01*
X167751Y698019D01*
X168125Y697897D01*
X168475Y697718D01*
X168794Y697487D01*
X169072Y697209D01*
X169303Y696890D01*
X169482Y696540D01*
X169604Y696166D01*
X169665Y695777D01*
X169665Y695383D01*
X164175Y674893D02*
X164113Y674504D01*
X163992Y674130D01*
X163813Y673779D01*
X163582Y673461D01*
X163303Y673183D01*
X162985Y672952D01*
X162634Y672773D01*
X162260Y672651D01*
X161871Y672590D01*
X161478Y672590D01*
X161089Y672651D01*
X160715Y672773D01*
X160364Y672952D01*
X160046Y673183D01*
X159768Y673461D01*
X159537Y673779D01*
X159358Y674130D01*
X159236Y674504D01*
X159175Y674893D01*
X159175Y675286D01*
X159236Y675675D01*
X159358Y676049D01*
X159537Y676400D01*
X159768Y676718D01*
X160046Y676997D01*
X160364Y677228D01*
X160715Y677407D01*
X161089Y677528D01*
X161478Y677590D01*
X161871Y677590D01*
X162260Y677528D01*
X162634Y677407D01*
X162985Y677228D01*
X163303Y676997D01*
X163582Y676718D01*
X163813Y676400D01*
X163992Y676049D01*
X164113Y675675D01*
X164175Y675286D01*
X164175Y674893D01*
X156675Y687883D02*
X156613Y687495D01*
X156492Y687120D01*
X156313Y686770D01*
X156082Y686451D01*
X155803Y686173D01*
X155485Y685942D01*
X155134Y685763D01*
X154760Y685642D01*
X154371Y685580D01*
X153978Y685580D01*
X153589Y685642D01*
X153215Y685763D01*
X152864Y685942D01*
X152546Y686173D01*
X152268Y686451D01*
X152037Y686770D01*
X151858Y687120D01*
X151736Y687495D01*
X151675Y687883D01*
X151675Y688277D01*
X151736Y688665D01*
X151858Y689040D01*
X152037Y689390D01*
X152268Y689709D01*
X152546Y689987D01*
X152864Y690218D01*
X153215Y690397D01*
X153589Y690519D01*
X153978Y690580D01*
X154371Y690580D01*
X154760Y690519D01*
X155134Y690397D01*
X155485Y690218D01*
X155803Y689987D01*
X156082Y689709D01*
X156313Y689390D01*
X156492Y689040D01*
X156613Y688665D01*
X156675Y688277D01*
X156675Y687883D01*
X374665Y337393D02*
X374604Y337004D01*
X374482Y336630D01*
X374303Y336279D01*
X374072Y335961D01*
X373794Y335683D01*
X373475Y335452D01*
X373125Y335273D01*
X372751Y335151D01*
X372362Y335090D01*
X371968Y335090D01*
X371580Y335151D01*
X371205Y335273D01*
X370855Y335452D01*
X370536Y335683D01*
X370258Y335961D01*
X370027Y336279D01*
X369848Y336630D01*
X369727Y337004D01*
X369665Y337393D01*
X369665Y337786D01*
X369727Y338175D01*
X369848Y338549D01*
X370027Y338900D01*
X370258Y339218D01*
X370536Y339497D01*
X370855Y339728D01*
X371205Y339907D01*
X371580Y340028D01*
X371968Y340090D01*
X372362Y340090D01*
X372751Y340028D01*
X373125Y339907D01*
X373475Y339728D01*
X373794Y339497D01*
X374072Y339218D01*
X374303Y338900D01*
X374482Y338549D01*
X374604Y338175D01*
X374665Y337786D01*
X374665Y337393D01*
X370915Y343888D02*
X370854Y343500D01*
X370732Y343125D01*
X370553Y342775D01*
X370322Y342456D01*
X370044Y342178D01*
X369725Y341947D01*
X369375Y341768D01*
X369001Y341646D01*
X368612Y341585D01*
X368218Y341585D01*
X367830Y341646D01*
X367455Y341768D01*
X367105Y341947D01*
X366786Y342178D01*
X366508Y342456D01*
X366277Y342775D01*
X366098Y343125D01*
X365977Y343500D01*
X365915Y343888D01*
X365915Y344282D01*
X365977Y344670D01*
X366098Y345045D01*
X366277Y345395D01*
X366508Y345714D01*
X366786Y345992D01*
X367105Y346223D01*
X367455Y346402D01*
X367830Y346523D01*
X368218Y346585D01*
X368612Y346585D01*
X369001Y346523D01*
X369375Y346402D01*
X369725Y346223D01*
X370044Y345992D01*
X370322Y345714D01*
X370553Y345395D01*
X370732Y345045D01*
X370854Y344670D01*
X370915Y344282D01*
X370915Y343888D01*
X367165Y350383D02*
X367104Y349995D01*
X366982Y349620D01*
X366803Y349270D01*
X366572Y348951D01*
X366294Y348673D01*
X365975Y348442D01*
X365625Y348263D01*
X365251Y348142D01*
X364862Y348080D01*
X364468Y348080D01*
X364080Y348142D01*
X363705Y348263D01*
X363355Y348442D01*
X363036Y348673D01*
X362758Y348951D01*
X362527Y349270D01*
X362348Y349620D01*
X362227Y349995D01*
X362165Y350383D01*
X362165Y350777D01*
X362227Y351166D01*
X362348Y351540D01*
X362527Y351890D01*
X362758Y352209D01*
X363036Y352487D01*
X363355Y352718D01*
X363705Y352897D01*
X364080Y353019D01*
X364468Y353080D01*
X364862Y353080D01*
X365251Y353019D01*
X365625Y352897D01*
X365975Y352718D01*
X366294Y352487D01*
X366572Y352209D01*
X366803Y351890D01*
X366982Y351540D01*
X367104Y351166D01*
X367165Y350777D01*
X367165Y350383D01*
X361675Y329893D02*
X361613Y329504D01*
X361492Y329130D01*
X361313Y328779D01*
X361082Y328461D01*
X360803Y328183D01*
X360485Y327952D01*
X360134Y327773D01*
X359760Y327651D01*
X359371Y327590D01*
X358978Y327590D01*
X358589Y327651D01*
X358215Y327773D01*
X357864Y327952D01*
X357546Y328183D01*
X357268Y328461D01*
X357037Y328779D01*
X356858Y329130D01*
X356736Y329504D01*
X356675Y329893D01*
X356675Y330286D01*
X356736Y330675D01*
X356858Y331049D01*
X357037Y331400D01*
X357268Y331718D01*
X357546Y331997D01*
X357864Y332228D01*
X358215Y332407D01*
X358589Y332528D01*
X358978Y332590D01*
X359371Y332590D01*
X359760Y332528D01*
X360134Y332407D01*
X360485Y332228D01*
X360803Y331997D01*
X361082Y331718D01*
X361313Y331400D01*
X361492Y331049D01*
X361613Y330675D01*
X361675Y330286D01*
X361675Y329893D01*
X357925Y336388D02*
X357863Y335999D01*
X357742Y335625D01*
X357563Y335275D01*
X357332Y334956D01*
X357053Y334678D01*
X356735Y334447D01*
X356384Y334268D01*
X356010Y334146D01*
X355621Y334085D01*
X355228Y334085D01*
X354839Y334146D01*
X354465Y334268D01*
X354114Y334447D01*
X353796Y334678D01*
X353518Y334956D01*
X353287Y335275D01*
X353108Y335625D01*
X352986Y335999D01*
X352925Y336388D01*
X352925Y336782D01*
X352986Y337170D01*
X353108Y337545D01*
X353287Y337895D01*
X353518Y338214D01*
X353796Y338492D01*
X354114Y338723D01*
X354465Y338902D01*
X354839Y339023D01*
X355228Y339085D01*
X355621Y339085D01*
X356010Y339023D01*
X356384Y338902D01*
X356735Y338723D01*
X357053Y338492D01*
X357332Y338214D01*
X357563Y337895D01*
X357742Y337545D01*
X357863Y337170D01*
X357925Y336782D01*
X357925Y336388D01*
X354175Y342883D02*
X354113Y342495D01*
X353992Y342120D01*
X353813Y341770D01*
X353582Y341451D01*
X353303Y341173D01*
X352985Y340942D01*
X352634Y340763D01*
X352260Y340642D01*
X351871Y340580D01*
X351478Y340580D01*
X351089Y340642D01*
X350715Y340763D01*
X350364Y340942D01*
X350046Y341173D01*
X349768Y341451D01*
X349537Y341770D01*
X349358Y342120D01*
X349236Y342495D01*
X349175Y342883D01*
X349175Y343277D01*
X349236Y343665D01*
X349358Y344040D01*
X349537Y344390D01*
X349768Y344709D01*
X350046Y344987D01*
X350364Y345218D01*
X350715Y345397D01*
X351089Y345519D01*
X351478Y345580D01*
X351871Y345580D01*
X352260Y345519D01*
X352634Y345397D01*
X352985Y345218D01*
X353303Y344987D01*
X353582Y344709D01*
X353813Y344390D01*
X353992Y344040D01*
X354113Y343665D01*
X354175Y343277D01*
X354175Y342883D01*
X2007165Y1284893D02*
X2007104Y1284504D01*
X2006982Y1284130D01*
X2006803Y1283779D01*
X2006572Y1283461D01*
X2006294Y1283183D01*
X2005975Y1282952D01*
X2005625Y1282773D01*
X2005251Y1282651D01*
X2004862Y1282590D01*
X2004468Y1282590D01*
X2004080Y1282651D01*
X2003705Y1282773D01*
X2003355Y1282952D01*
X2003036Y1283183D01*
X2002758Y1283461D01*
X2002527Y1283779D01*
X2002348Y1284130D01*
X2002227Y1284504D01*
X2002165Y1284893D01*
X2002165Y1285286D01*
X2002227Y1285675D01*
X2002348Y1286049D01*
X2002527Y1286400D01*
X2002758Y1286718D01*
X2003036Y1286997D01*
X2003355Y1287228D01*
X2003705Y1287407D01*
X2004080Y1287528D01*
X2004468Y1287590D01*
X2004862Y1287590D01*
X2005251Y1287528D01*
X2005625Y1287407D01*
X2005975Y1287228D01*
X2006294Y1286997D01*
X2006572Y1286718D01*
X2006803Y1286400D01*
X2006982Y1286049D01*
X2007104Y1285675D01*
X2007165Y1285286D01*
X2007165Y1284893D01*
X2003415Y1291388D02*
X2003354Y1291000D01*
X2003232Y1290625D01*
X2003053Y1290275D01*
X2002822Y1289956D01*
X2002544Y1289678D01*
X2002225Y1289447D01*
X2001875Y1289268D01*
X2001501Y1289146D01*
X2001112Y1289085D01*
X2000718Y1289085D01*
X2000330Y1289146D01*
X1999955Y1289268D01*
X1999605Y1289447D01*
X1999286Y1289678D01*
X1999008Y1289956D01*
X1998777Y1290275D01*
X1998598Y1290625D01*
X1998477Y1291000D01*
X1998415Y1291388D01*
X1998415Y1291782D01*
X1998477Y1292170D01*
X1998598Y1292545D01*
X1998777Y1292895D01*
X1999008Y1293214D01*
X1999286Y1293492D01*
X1999605Y1293723D01*
X1999955Y1293902D01*
X2000330Y1294023D01*
X2000718Y1294085D01*
X2001112Y1294085D01*
X2001501Y1294023D01*
X2001875Y1293902D01*
X2002225Y1293723D01*
X2002544Y1293492D01*
X2002822Y1293214D01*
X2003053Y1292895D01*
X2003232Y1292545D01*
X2003354Y1292170D01*
X2003415Y1291782D01*
X2003415Y1291388D01*
X1999665Y1297883D02*
X1999604Y1297495D01*
X1999482Y1297120D01*
X1999303Y1296770D01*
X1999072Y1296451D01*
X1998794Y1296173D01*
X1998475Y1295942D01*
X1998125Y1295763D01*
X1997751Y1295642D01*
X1997362Y1295580D01*
X1996968Y1295580D01*
X1996580Y1295642D01*
X1996205Y1295763D01*
X1995855Y1295942D01*
X1995536Y1296173D01*
X1995258Y1296451D01*
X1995027Y1296770D01*
X1994848Y1297120D01*
X1994727Y1297495D01*
X1994665Y1297883D01*
X1994665Y1298277D01*
X1994727Y1298666D01*
X1994848Y1299040D01*
X1995027Y1299390D01*
X1995258Y1299709D01*
X1995536Y1299987D01*
X1995855Y1300218D01*
X1996205Y1300397D01*
X1996580Y1300519D01*
X1996968Y1300580D01*
X1997362Y1300580D01*
X1997751Y1300519D01*
X1998125Y1300397D01*
X1998475Y1300218D01*
X1998794Y1299987D01*
X1999072Y1299709D01*
X1999303Y1299390D01*
X1999482Y1299040D01*
X1999604Y1298666D01*
X1999665Y1298277D01*
X1999665Y1297883D01*
X1994175Y1277393D02*
X1994113Y1277004D01*
X1993992Y1276630D01*
X1993813Y1276279D01*
X1993582Y1275961D01*
X1993303Y1275683D01*
X1992985Y1275452D01*
X1992634Y1275273D01*
X1992260Y1275151D01*
X1991871Y1275090D01*
X1991478Y1275090D01*
X1991089Y1275151D01*
X1990715Y1275273D01*
X1990364Y1275452D01*
X1990046Y1275683D01*
X1989768Y1275961D01*
X1989537Y1276279D01*
X1989358Y1276630D01*
X1989236Y1277004D01*
X1989175Y1277393D01*
X1989175Y1277786D01*
X1989236Y1278175D01*
X1989358Y1278549D01*
X1989537Y1278900D01*
X1989768Y1279218D01*
X1990046Y1279497D01*
X1990364Y1279728D01*
X1990715Y1279907D01*
X1991089Y1280028D01*
X1991478Y1280090D01*
X1991871Y1280090D01*
X1992260Y1280028D01*
X1992634Y1279907D01*
X1992985Y1279728D01*
X1993303Y1279497D01*
X1993582Y1279218D01*
X1993813Y1278900D01*
X1993992Y1278549D01*
X1994113Y1278175D01*
X1994175Y1277786D01*
X1994175Y1277393D01*
X1990425Y1283888D02*
X1990363Y1283499D01*
X1990242Y1283125D01*
X1990063Y1282775D01*
X1989832Y1282456D01*
X1989553Y1282178D01*
X1989235Y1281947D01*
X1988884Y1281768D01*
X1988510Y1281646D01*
X1988121Y1281585D01*
X1987728Y1281585D01*
X1987339Y1281646D01*
X1986965Y1281768D01*
X1986614Y1281947D01*
X1986296Y1282178D01*
X1986018Y1282456D01*
X1985787Y1282775D01*
X1985608Y1283125D01*
X1985486Y1283499D01*
X1985425Y1283888D01*
X1985425Y1284282D01*
X1985486Y1284670D01*
X1985608Y1285045D01*
X1985787Y1285395D01*
X1986018Y1285714D01*
X1986296Y1285992D01*
X1986614Y1286223D01*
X1986965Y1286402D01*
X1987339Y1286523D01*
X1987728Y1286585D01*
X1988121Y1286585D01*
X1988510Y1286523D01*
X1988884Y1286402D01*
X1989235Y1286223D01*
X1989553Y1285992D01*
X1989832Y1285714D01*
X1990063Y1285395D01*
X1990242Y1285045D01*
X1990363Y1284670D01*
X1990425Y1284282D01*
X1990425Y1283888D01*
X1986675Y1290383D02*
X1986613Y1289995D01*
X1986492Y1289620D01*
X1986313Y1289270D01*
X1986082Y1288951D01*
X1985803Y1288673D01*
X1985485Y1288442D01*
X1985134Y1288263D01*
X1984760Y1288142D01*
X1984371Y1288080D01*
X1983978Y1288080D01*
X1983589Y1288142D01*
X1983215Y1288263D01*
X1982864Y1288442D01*
X1982546Y1288673D01*
X1982268Y1288951D01*
X1982037Y1289270D01*
X1981858Y1289620D01*
X1981736Y1289995D01*
X1981675Y1290383D01*
X1981675Y1290777D01*
X1981736Y1291165D01*
X1981858Y1291540D01*
X1982037Y1291890D01*
X1982268Y1292209D01*
X1982546Y1292487D01*
X1982864Y1292718D01*
X1983215Y1292897D01*
X1983589Y1293019D01*
X1983978Y1293080D01*
X1984371Y1293080D01*
X1984760Y1293019D01*
X1985134Y1292897D01*
X1985485Y1292718D01*
X1985803Y1292487D01*
X1986082Y1292209D01*
X1986313Y1291890D01*
X1986492Y1291540D01*
X1986613Y1291165D01*
X1986675Y1290777D01*
X1986675Y1290383D01*
X1809665Y1624893D02*
X1809604Y1624504D01*
X1809482Y1624130D01*
X1809303Y1623779D01*
X1809072Y1623461D01*
X1808794Y1623183D01*
X1808475Y1622952D01*
X1808125Y1622773D01*
X1807751Y1622651D01*
X1807362Y1622590D01*
X1806968Y1622590D01*
X1806580Y1622651D01*
X1806205Y1622773D01*
X1805855Y1622952D01*
X1805536Y1623183D01*
X1805258Y1623461D01*
X1805027Y1623779D01*
X1804848Y1624130D01*
X1804727Y1624504D01*
X1804665Y1624893D01*
X1804665Y1625286D01*
X1804727Y1625675D01*
X1804848Y1626049D01*
X1805027Y1626400D01*
X1805258Y1626718D01*
X1805536Y1626997D01*
X1805855Y1627228D01*
X1806205Y1627407D01*
X1806580Y1627528D01*
X1806968Y1627590D01*
X1807362Y1627590D01*
X1807751Y1627528D01*
X1808125Y1627407D01*
X1808475Y1627228D01*
X1808794Y1626997D01*
X1809072Y1626718D01*
X1809303Y1626400D01*
X1809482Y1626049D01*
X1809604Y1625675D01*
X1809665Y1625286D01*
X1809665Y1624893D01*
X1805915Y1631388D02*
X1805854Y1631000D01*
X1805732Y1630625D01*
X1805553Y1630275D01*
X1805322Y1629956D01*
X1805044Y1629678D01*
X1804725Y1629447D01*
X1804375Y1629268D01*
X1804001Y1629146D01*
X1803612Y1629085D01*
X1803218Y1629085D01*
X1802830Y1629146D01*
X1802455Y1629268D01*
X1802105Y1629447D01*
X1801786Y1629678D01*
X1801508Y1629956D01*
X1801277Y1630275D01*
X1801098Y1630625D01*
X1800977Y1631000D01*
X1800915Y1631388D01*
X1800915Y1631782D01*
X1800977Y1632170D01*
X1801098Y1632545D01*
X1801277Y1632895D01*
X1801508Y1633214D01*
X1801786Y1633492D01*
X1802105Y1633723D01*
X1802455Y1633902D01*
X1802830Y1634023D01*
X1803218Y1634085D01*
X1803612Y1634085D01*
X1804001Y1634023D01*
X1804375Y1633902D01*
X1804725Y1633723D01*
X1805044Y1633492D01*
X1805322Y1633214D01*
X1805553Y1632895D01*
X1805732Y1632545D01*
X1805854Y1632170D01*
X1805915Y1631782D01*
X1805915Y1631388D01*
X1802165Y1637883D02*
X1802104Y1637495D01*
X1801982Y1637120D01*
X1801803Y1636770D01*
X1801572Y1636451D01*
X1801294Y1636173D01*
X1800975Y1635942D01*
X1800625Y1635763D01*
X1800251Y1635642D01*
X1799862Y1635580D01*
X1799468Y1635580D01*
X1799080Y1635642D01*
X1798705Y1635763D01*
X1798355Y1635942D01*
X1798036Y1636173D01*
X1797758Y1636451D01*
X1797527Y1636770D01*
X1797348Y1637120D01*
X1797227Y1637495D01*
X1797165Y1637883D01*
X1797165Y1638277D01*
X1797227Y1638666D01*
X1797348Y1639040D01*
X1797527Y1639390D01*
X1797758Y1639709D01*
X1798036Y1639987D01*
X1798355Y1640218D01*
X1798705Y1640397D01*
X1799080Y1640519D01*
X1799468Y1640580D01*
X1799862Y1640580D01*
X1800251Y1640519D01*
X1800625Y1640397D01*
X1800975Y1640218D01*
X1801294Y1639987D01*
X1801572Y1639709D01*
X1801803Y1639390D01*
X1801982Y1639040D01*
X1802104Y1638666D01*
X1802165Y1638277D01*
X1802165Y1637883D01*
X1796675Y1617393D02*
X1796613Y1617004D01*
X1796492Y1616630D01*
X1796313Y1616279D01*
X1796082Y1615961D01*
X1795803Y1615683D01*
X1795485Y1615452D01*
X1795134Y1615273D01*
X1794760Y1615151D01*
X1794371Y1615090D01*
X1793978Y1615090D01*
X1793589Y1615151D01*
X1793215Y1615273D01*
X1792864Y1615452D01*
X1792546Y1615683D01*
X1792268Y1615961D01*
X1792037Y1616279D01*
X1791858Y1616630D01*
X1791736Y1617004D01*
X1791675Y1617393D01*
X1791675Y1617786D01*
X1791736Y1618175D01*
X1791858Y1618549D01*
X1792037Y1618900D01*
X1792268Y1619218D01*
X1792546Y1619497D01*
X1792864Y1619728D01*
X1793215Y1619907D01*
X1793589Y1620028D01*
X1793978Y1620090D01*
X1794371Y1620090D01*
X1794760Y1620028D01*
X1795134Y1619907D01*
X1795485Y1619728D01*
X1795803Y1619497D01*
X1796082Y1619218D01*
X1796313Y1618900D01*
X1796492Y1618549D01*
X1796613Y1618175D01*
X1796675Y1617786D01*
X1796675Y1617393D01*
X1792925Y1623888D02*
X1792863Y1623499D01*
X1792742Y1623125D01*
X1792563Y1622775D01*
X1792332Y1622456D01*
X1792053Y1622178D01*
X1791735Y1621947D01*
X1791384Y1621768D01*
X1791010Y1621646D01*
X1790621Y1621585D01*
X1790228Y1621585D01*
X1789839Y1621646D01*
X1789465Y1621768D01*
X1789114Y1621947D01*
X1788796Y1622178D01*
X1788518Y1622456D01*
X1788287Y1622775D01*
X1788108Y1623125D01*
X1787986Y1623499D01*
X1787925Y1623888D01*
X1787925Y1624282D01*
X1787986Y1624670D01*
X1788108Y1625045D01*
X1788287Y1625395D01*
X1788518Y1625714D01*
X1788796Y1625992D01*
X1789114Y1626223D01*
X1789465Y1626402D01*
X1789839Y1626523D01*
X1790228Y1626585D01*
X1790621Y1626585D01*
X1791010Y1626523D01*
X1791384Y1626402D01*
X1791735Y1626223D01*
X1792053Y1625992D01*
X1792332Y1625714D01*
X1792563Y1625395D01*
X1792742Y1625045D01*
X1792863Y1624670D01*
X1792925Y1624282D01*
X1792925Y1623888D01*
X1789175Y1630383D02*
X1789113Y1629995D01*
X1788992Y1629620D01*
X1788813Y1629270D01*
X1788582Y1628951D01*
X1788303Y1628673D01*
X1787985Y1628442D01*
X1787634Y1628263D01*
X1787260Y1628142D01*
X1786871Y1628080D01*
X1786478Y1628080D01*
X1786089Y1628142D01*
X1785715Y1628263D01*
X1785364Y1628442D01*
X1785046Y1628673D01*
X1784768Y1628951D01*
X1784537Y1629270D01*
X1784358Y1629620D01*
X1784236Y1629995D01*
X1784175Y1630383D01*
X1784175Y1630777D01*
X1784236Y1631165D01*
X1784358Y1631540D01*
X1784537Y1631890D01*
X1784768Y1632209D01*
X1785046Y1632487D01*
X1785364Y1632718D01*
X1785715Y1632897D01*
X1786089Y1633019D01*
X1786478Y1633080D01*
X1786871Y1633080D01*
X1787260Y1633019D01*
X1787634Y1632897D01*
X1787985Y1632718D01*
X1788303Y1632487D01*
X1788582Y1632209D01*
X1788813Y1631890D01*
X1788992Y1631540D01*
X1789113Y1631165D01*
X1789175Y1630777D01*
X1789175Y1630383D01*
X2153415Y1031388D02*
X2153354Y1031000D01*
X2153232Y1030625D01*
X2153053Y1030275D01*
X2152822Y1029956D01*
X2152544Y1029678D01*
X2152225Y1029447D01*
X2151875Y1029268D01*
X2151501Y1029146D01*
X2151112Y1029085D01*
X2150718Y1029085D01*
X2150330Y1029146D01*
X2149955Y1029268D01*
X2149605Y1029447D01*
X2149286Y1029678D01*
X2149008Y1029956D01*
X2148777Y1030275D01*
X2148598Y1030625D01*
X2148477Y1031000D01*
X2148415Y1031388D01*
X2148415Y1031782D01*
X2148477Y1032170D01*
X2148598Y1032545D01*
X2148777Y1032895D01*
X2149008Y1033214D01*
X2149286Y1033492D01*
X2149605Y1033723D01*
X2149955Y1033902D01*
X2150330Y1034023D01*
X2150718Y1034085D01*
X2151112Y1034085D01*
X2151501Y1034023D01*
X2151875Y1033902D01*
X2152225Y1033723D01*
X2152544Y1033492D01*
X2152822Y1033214D01*
X2153053Y1032895D01*
X2153232Y1032545D01*
X2153354Y1032170D01*
X2153415Y1031782D01*
X2153415Y1031388D01*
X2149665Y1037883D02*
X2149604Y1037495D01*
X2149482Y1037120D01*
X2149303Y1036770D01*
X2149072Y1036451D01*
X2148794Y1036173D01*
X2148475Y1035942D01*
X2148125Y1035763D01*
X2147751Y1035642D01*
X2147362Y1035580D01*
X2146968Y1035580D01*
X2146580Y1035642D01*
X2146205Y1035763D01*
X2145855Y1035942D01*
X2145536Y1036173D01*
X2145258Y1036451D01*
X2145027Y1036770D01*
X2144848Y1037120D01*
X2144727Y1037495D01*
X2144665Y1037883D01*
X2144665Y1038277D01*
X2144727Y1038666D01*
X2144848Y1039040D01*
X2145027Y1039390D01*
X2145258Y1039709D01*
X2145536Y1039987D01*
X2145855Y1040218D01*
X2146205Y1040397D01*
X2146580Y1040519D01*
X2146968Y1040580D01*
X2147362Y1040580D01*
X2147751Y1040519D01*
X2148125Y1040397D01*
X2148475Y1040218D01*
X2148794Y1039987D01*
X2149072Y1039709D01*
X2149303Y1039390D01*
X2149482Y1039040D01*
X2149604Y1038666D01*
X2149665Y1038277D01*
X2149665Y1037883D01*
X2144175Y1017393D02*
X2144113Y1017004D01*
X2143992Y1016630D01*
X2143813Y1016279D01*
X2143582Y1015961D01*
X2143303Y1015683D01*
X2142985Y1015452D01*
X2142634Y1015273D01*
X2142260Y1015151D01*
X2141871Y1015090D01*
X2141478Y1015090D01*
X2141089Y1015151D01*
X2140715Y1015273D01*
X2140364Y1015452D01*
X2140046Y1015683D01*
X2139768Y1015961D01*
X2139537Y1016279D01*
X2139358Y1016630D01*
X2139236Y1017004D01*
X2139175Y1017393D01*
X2139175Y1017786D01*
X2139236Y1018175D01*
X2139358Y1018549D01*
X2139537Y1018900D01*
X2139768Y1019218D01*
X2140046Y1019497D01*
X2140364Y1019728D01*
X2140715Y1019907D01*
X2141089Y1020028D01*
X2141478Y1020090D01*
X2141871Y1020090D01*
X2142260Y1020028D01*
X2142634Y1019907D01*
X2142985Y1019728D01*
X2143303Y1019497D01*
X2143582Y1019218D01*
X2143813Y1018900D01*
X2143992Y1018549D01*
X2144113Y1018175D01*
X2144175Y1017786D01*
X2144175Y1017393D01*
X2140425Y1023888D02*
X2140363Y1023499D01*
X2140242Y1023125D01*
X2140063Y1022775D01*
X2139832Y1022456D01*
X2139553Y1022178D01*
X2139235Y1021947D01*
X2138884Y1021768D01*
X2138510Y1021646D01*
X2138121Y1021585D01*
X2137728Y1021585D01*
X2137339Y1021646D01*
X2136965Y1021768D01*
X2136614Y1021947D01*
X2136296Y1022178D01*
X2136018Y1022456D01*
X2135787Y1022775D01*
X2135608Y1023125D01*
X2135486Y1023499D01*
X2135425Y1023888D01*
X2135425Y1024282D01*
X2135486Y1024670D01*
X2135608Y1025045D01*
X2135787Y1025395D01*
X2136018Y1025714D01*
X2136296Y1025992D01*
X2136614Y1026223D01*
X2136965Y1026402D01*
X2137339Y1026523D01*
X2137728Y1026585D01*
X2138121Y1026585D01*
X2138510Y1026523D01*
X2138884Y1026402D01*
X2139235Y1026223D01*
X2139553Y1025992D01*
X2139832Y1025714D01*
X2140063Y1025395D01*
X2140242Y1025045D01*
X2140363Y1024670D01*
X2140425Y1024282D01*
X2140425Y1023888D01*
X2136675Y1030383D02*
X2136613Y1029995D01*
X2136492Y1029620D01*
X2136313Y1029270D01*
X2136082Y1028951D01*
X2135803Y1028673D01*
X2135485Y1028442D01*
X2135134Y1028263D01*
X2134760Y1028142D01*
X2134371Y1028080D01*
X2133978Y1028080D01*
X2133589Y1028142D01*
X2133215Y1028263D01*
X2132864Y1028442D01*
X2132546Y1028673D01*
X2132268Y1028951D01*
X2132037Y1029270D01*
X2131858Y1029620D01*
X2131736Y1029995D01*
X2131675Y1030383D01*
X2131675Y1030777D01*
X2131736Y1031165D01*
X2131858Y1031540D01*
X2132037Y1031890D01*
X2132268Y1032209D01*
X2132546Y1032487D01*
X2132864Y1032718D01*
X2133215Y1032897D01*
X2133589Y1033019D01*
X2133978Y1033080D01*
X2134371Y1033080D01*
X2134760Y1033019D01*
X2135134Y1032897D01*
X2135485Y1032718D01*
X2135803Y1032487D01*
X2136082Y1032209D01*
X2136313Y1031890D01*
X2136492Y1031540D01*
X2136613Y1031165D01*
X2136675Y1030777D01*
X2136675Y1030383D01*
X2137835Y939893D02*
X2137773Y939504D01*
X2137652Y939130D01*
X2137473Y938779D01*
X2137242Y938461D01*
X2136964Y938183D01*
X2136645Y937952D01*
X2136295Y937773D01*
X2135920Y937651D01*
X2135532Y937590D01*
X2135138Y937590D01*
X2134750Y937651D01*
X2134375Y937773D01*
X2134025Y937952D01*
X2133706Y938183D01*
X2133428Y938461D01*
X2133197Y938779D01*
X2133018Y939130D01*
X2132896Y939504D01*
X2132835Y939893D01*
X2132835Y940286D01*
X2132896Y940675D01*
X2133018Y941049D01*
X2133197Y941400D01*
X2133428Y941718D01*
X2133706Y941997D01*
X2134025Y942228D01*
X2134375Y942407D01*
X2134750Y942528D01*
X2135138Y942590D01*
X2135532Y942590D01*
X2135920Y942528D01*
X2136295Y942407D01*
X2136645Y942228D01*
X2136964Y941997D01*
X2137242Y941718D01*
X2137473Y941400D01*
X2137652Y941049D01*
X2137773Y940675D01*
X2137835Y940286D01*
X2137835Y939893D01*
X2141585Y946388D02*
X2141523Y946000D01*
X2141402Y945625D01*
X2141223Y945275D01*
X2140992Y944956D01*
X2140714Y944678D01*
X2140395Y944447D01*
X2140045Y944268D01*
X2139670Y944146D01*
X2139282Y944085D01*
X2138888Y944085D01*
X2138500Y944146D01*
X2138125Y944268D01*
X2137775Y944447D01*
X2137456Y944678D01*
X2137178Y944956D01*
X2136947Y945275D01*
X2136768Y945625D01*
X2136646Y946000D01*
X2136585Y946388D01*
X2136585Y946782D01*
X2136646Y947170D01*
X2136768Y947545D01*
X2136947Y947895D01*
X2137178Y948214D01*
X2137456Y948492D01*
X2137775Y948723D01*
X2138125Y948902D01*
X2138500Y949023D01*
X2138888Y949085D01*
X2139282Y949085D01*
X2139670Y949023D01*
X2140045Y948902D01*
X2140395Y948723D01*
X2140714Y948492D01*
X2140992Y948214D01*
X2141223Y947895D01*
X2141402Y947545D01*
X2141523Y947170D01*
X2141585Y946782D01*
X2141585Y946388D01*
X2145335Y952883D02*
X2145273Y952495D01*
X2145152Y952120D01*
X2144973Y951770D01*
X2144742Y951451D01*
X2144464Y951173D01*
X2144145Y950942D01*
X2143795Y950763D01*
X2143420Y950642D01*
X2143032Y950580D01*
X2142638Y950580D01*
X2142250Y950642D01*
X2141875Y950763D01*
X2141525Y950942D01*
X2141206Y951173D01*
X2140928Y951451D01*
X2140697Y951770D01*
X2140518Y952120D01*
X2140396Y952495D01*
X2140335Y952883D01*
X2140335Y953277D01*
X2140396Y953666D01*
X2140518Y954040D01*
X2140697Y954390D01*
X2140928Y954709D01*
X2141206Y954987D01*
X2141525Y955218D01*
X2141875Y955397D01*
X2142250Y955519D01*
X2142638Y955580D01*
X2143032Y955580D01*
X2143420Y955519D01*
X2143795Y955397D01*
X2144145Y955218D01*
X2144464Y954987D01*
X2144742Y954709D01*
X2144973Y954390D01*
X2145152Y954040D01*
X2145273Y953666D01*
X2145335Y953277D01*
X2145335Y952883D01*
X2150825Y932393D02*
X2150764Y932004D01*
X2150642Y931630D01*
X2150464Y931279D01*
X2150232Y930961D01*
X2149954Y930683D01*
X2149636Y930452D01*
X2149285Y930273D01*
X2148911Y930151D01*
X2148522Y930090D01*
X2148129Y930090D01*
X2147740Y930151D01*
X2147366Y930273D01*
X2147015Y930452D01*
X2146697Y930683D01*
X2146418Y930961D01*
X2146187Y931279D01*
X2146008Y931630D01*
X2145887Y932004D01*
X2145825Y932393D01*
X2145825Y932786D01*
X2145887Y933175D01*
X2146008Y933549D01*
X2146187Y933900D01*
X2146418Y934218D01*
X2146697Y934497D01*
X2147015Y934728D01*
X2147366Y934907D01*
X2147740Y935028D01*
X2148129Y935090D01*
X2148522Y935090D01*
X2148911Y935028D01*
X2149285Y934907D01*
X2149636Y934728D01*
X2149954Y934497D01*
X2150232Y934218D01*
X2150464Y933900D01*
X2150642Y933549D01*
X2150764Y933175D01*
X2150825Y932786D01*
X2150825Y932393D01*
X2154575Y938888D02*
X2154514Y938499D01*
X2154392Y938125D01*
X2154213Y937775D01*
X2153982Y937456D01*
X2153704Y937178D01*
X2153386Y936947D01*
X2153035Y936768D01*
X2152661Y936646D01*
X2152272Y936585D01*
X2151879Y936585D01*
X2151490Y936646D01*
X2151116Y936768D01*
X2150765Y936947D01*
X2150447Y937178D01*
X2150168Y937456D01*
X2149937Y937775D01*
X2149758Y938125D01*
X2149637Y938499D01*
X2149575Y938888D01*
X2149575Y939282D01*
X2149637Y939670D01*
X2149758Y940045D01*
X2149937Y940395D01*
X2150168Y940714D01*
X2150447Y940992D01*
X2150765Y941223D01*
X2151116Y941402D01*
X2151490Y941523D01*
X2151879Y941585D01*
X2152272Y941585D01*
X2152661Y941523D01*
X2153035Y941402D01*
X2153386Y941223D01*
X2153704Y940992D01*
X2153982Y940714D01*
X2154213Y940395D01*
X2154392Y940045D01*
X2154514Y939670D01*
X2154575Y939282D01*
X2154575Y938888D01*
X11585Y1031388D02*
X11523Y1031000D01*
X11402Y1030625D01*
X11223Y1030275D01*
X10992Y1029956D01*
X10714Y1029678D01*
X10395Y1029447D01*
X10045Y1029268D01*
X9670Y1029146D01*
X9282Y1029085D01*
X8888Y1029085D01*
X8500Y1029146D01*
X8125Y1029268D01*
X7775Y1029447D01*
X7456Y1029678D01*
X7178Y1029956D01*
X6947Y1030275D01*
X6768Y1030625D01*
X6646Y1031000D01*
X6585Y1031388D01*
X6585Y1031782D01*
X6646Y1032170D01*
X6768Y1032545D01*
X6947Y1032895D01*
X7178Y1033214D01*
X7456Y1033492D01*
X7775Y1033723D01*
X8125Y1033902D01*
X8500Y1034023D01*
X8888Y1034085D01*
X9282Y1034085D01*
X9670Y1034023D01*
X10045Y1033902D01*
X10395Y1033723D01*
X10714Y1033492D01*
X10992Y1033214D01*
X11223Y1032895D01*
X11402Y1032545D01*
X11523Y1032170D01*
X11585Y1031782D01*
X11585Y1031388D01*
X15335Y1037883D02*
X15273Y1037495D01*
X15152Y1037120D01*
X14973Y1036770D01*
X14742Y1036451D01*
X14464Y1036173D01*
X14145Y1035942D01*
X13795Y1035763D01*
X13420Y1035642D01*
X13032Y1035580D01*
X12638Y1035580D01*
X12250Y1035642D01*
X11875Y1035763D01*
X11525Y1035942D01*
X11206Y1036173D01*
X10928Y1036451D01*
X10697Y1036770D01*
X10518Y1037120D01*
X10396Y1037495D01*
X10335Y1037883D01*
X10335Y1038277D01*
X10396Y1038666D01*
X10518Y1039040D01*
X10697Y1039390D01*
X10928Y1039709D01*
X11206Y1039987D01*
X11525Y1040218D01*
X11875Y1040397D01*
X12250Y1040519D01*
X12638Y1040580D01*
X13032Y1040580D01*
X13420Y1040519D01*
X13795Y1040397D01*
X14145Y1040218D01*
X14464Y1039987D01*
X14742Y1039709D01*
X14973Y1039390D01*
X15152Y1039040D01*
X15273Y1038666D01*
X15335Y1038277D01*
X15335Y1037883D01*
X20825Y1017393D02*
X20764Y1017004D01*
X20642Y1016630D01*
X20464Y1016279D01*
X20232Y1015961D01*
X19954Y1015683D01*
X19636Y1015452D01*
X19285Y1015273D01*
X18911Y1015151D01*
X18522Y1015090D01*
X18129Y1015090D01*
X17740Y1015151D01*
X17366Y1015273D01*
X17015Y1015452D01*
X16697Y1015683D01*
X16418Y1015961D01*
X16187Y1016279D01*
X16008Y1016630D01*
X15887Y1017004D01*
X15825Y1017393D01*
X15825Y1017786D01*
X15887Y1018175D01*
X16008Y1018549D01*
X16187Y1018900D01*
X16418Y1019218D01*
X16697Y1019497D01*
X17015Y1019728D01*
X17366Y1019907D01*
X17740Y1020028D01*
X18129Y1020090D01*
X18522Y1020090D01*
X18911Y1020028D01*
X19285Y1019907D01*
X19636Y1019728D01*
X19954Y1019497D01*
X20232Y1019218D01*
X20464Y1018900D01*
X20642Y1018549D01*
X20764Y1018175D01*
X20825Y1017786D01*
X20825Y1017393D01*
X24575Y1023888D02*
X24514Y1023499D01*
X24392Y1023125D01*
X24213Y1022775D01*
X23982Y1022456D01*
X23704Y1022178D01*
X23386Y1021947D01*
X23035Y1021768D01*
X22661Y1021646D01*
X22272Y1021585D01*
X21879Y1021585D01*
X21490Y1021646D01*
X21116Y1021768D01*
X20765Y1021947D01*
X20447Y1022178D01*
X20168Y1022456D01*
X19937Y1022775D01*
X19758Y1023125D01*
X19637Y1023499D01*
X19575Y1023888D01*
X19575Y1024282D01*
X19637Y1024670D01*
X19758Y1025045D01*
X19937Y1025395D01*
X20168Y1025714D01*
X20447Y1025992D01*
X20765Y1026223D01*
X21116Y1026402D01*
X21490Y1026523D01*
X21879Y1026585D01*
X22272Y1026585D01*
X22661Y1026523D01*
X23035Y1026402D01*
X23386Y1026223D01*
X23704Y1025992D01*
X23982Y1025714D01*
X24213Y1025395D01*
X24392Y1025045D01*
X24514Y1024670D01*
X24575Y1024282D01*
X24575Y1023888D01*
X28325Y1030383D02*
X28264Y1029995D01*
X28142Y1029620D01*
X27963Y1029270D01*
X27732Y1028951D01*
X27454Y1028673D01*
X27136Y1028442D01*
X26785Y1028263D01*
X26411Y1028142D01*
X26022Y1028080D01*
X25629Y1028080D01*
X25240Y1028142D01*
X24866Y1028263D01*
X24515Y1028442D01*
X24197Y1028673D01*
X23918Y1028951D01*
X23687Y1029270D01*
X23508Y1029620D01*
X23387Y1029995D01*
X23325Y1030383D01*
X23325Y1030777D01*
X23387Y1031165D01*
X23508Y1031540D01*
X23687Y1031890D01*
X23918Y1032209D01*
X24197Y1032487D01*
X24515Y1032718D01*
X24866Y1032897D01*
X25240Y1033019D01*
X25629Y1033080D01*
X26022Y1033080D01*
X26411Y1033019D01*
X26785Y1032897D01*
X27136Y1032718D01*
X27454Y1032487D01*
X27732Y1032209D01*
X27963Y1031890D01*
X28142Y1031540D01*
X28264Y1031165D01*
X28325Y1030777D01*
X28325Y1030383D01*
X25825Y937393D02*
X25764Y937004D01*
X25642Y936630D01*
X25464Y936279D01*
X25232Y935961D01*
X24954Y935683D01*
X24636Y935452D01*
X24285Y935273D01*
X23911Y935151D01*
X23522Y935090D01*
X23129Y935090D01*
X22740Y935151D01*
X22366Y935273D01*
X22015Y935452D01*
X21697Y935683D01*
X21418Y935961D01*
X21187Y936279D01*
X21008Y936630D01*
X20887Y937004D01*
X20825Y937393D01*
X20825Y937786D01*
X20887Y938175D01*
X21008Y938549D01*
X21187Y938900D01*
X21418Y939218D01*
X21697Y939497D01*
X22015Y939728D01*
X22366Y939907D01*
X22740Y940028D01*
X23129Y940090D01*
X23522Y940090D01*
X23911Y940028D01*
X24285Y939907D01*
X24636Y939728D01*
X24954Y939497D01*
X25232Y939218D01*
X25464Y938900D01*
X25642Y938549D01*
X25764Y938175D01*
X25825Y937786D01*
X25825Y937393D01*
M02*
