G04 EAGLE Gerber RS-274X export*
G75*
%MOMM*%
%FSLAX34Y34*%
%LPD*%
%INSolderpaste Top*%
%IPPOS*%
%AMOC8*
5,1,8,0,0,1.08239X$1,22.5*%
G01*
%ADD10R,0.550000X0.550000*%
%ADD11R,0.550000X0.550000*%
%ADD12R,1.000000X0.700000*%
%ADD13R,0.700000X1.000000*%


D10*
G36*
X956717Y981111D02*
X952828Y985000D01*
X956717Y988889D01*
X960606Y985000D01*
X956717Y981111D01*
G37*
G36*
X950000Y974394D02*
X946111Y978283D01*
X950000Y982172D01*
X953889Y978283D01*
X950000Y974394D01*
G37*
G36*
X943282Y981111D02*
X939393Y985000D01*
X943282Y988889D01*
X947171Y985000D01*
X943282Y981111D01*
G37*
G36*
X950000Y987829D02*
X946111Y991718D01*
X950000Y995607D01*
X953889Y991718D01*
X950000Y987829D01*
G37*
G36*
X824217Y981111D02*
X820328Y985000D01*
X824217Y988889D01*
X828106Y985000D01*
X824217Y981111D01*
G37*
G36*
X817500Y974393D02*
X813611Y978282D01*
X817500Y982171D01*
X821389Y978282D01*
X817500Y974393D01*
G37*
G36*
X810782Y981111D02*
X806893Y985000D01*
X810782Y988889D01*
X814671Y985000D01*
X810782Y981111D01*
G37*
G36*
X817500Y987829D02*
X813611Y991718D01*
X817500Y995607D01*
X821389Y991718D01*
X817500Y987829D01*
G37*
D11*
X737250Y1082750D03*
X727750Y1082750D03*
X727750Y1092250D03*
X737250Y1092250D03*
X657250Y1177750D03*
X647750Y1177750D03*
X647750Y1187250D03*
X657250Y1187250D03*
X567750Y1272750D03*
X567750Y1282250D03*
X577250Y1282250D03*
X577250Y1272750D03*
D10*
G36*
X689517Y1260495D02*
X692267Y1255733D01*
X687505Y1252983D01*
X684755Y1257745D01*
X689517Y1260495D01*
G37*
G36*
X697745Y1265245D02*
X700495Y1260483D01*
X695733Y1257733D01*
X692983Y1262495D01*
X697745Y1265245D01*
G37*
G36*
X702495Y1257017D02*
X705245Y1252255D01*
X700483Y1249505D01*
X697733Y1254267D01*
X702495Y1257017D01*
G37*
G36*
X694267Y1252267D02*
X697017Y1247505D01*
X692255Y1244755D01*
X689505Y1249517D01*
X694267Y1252267D01*
G37*
D12*
X342500Y992000D03*
X342500Y978000D03*
D10*
G36*
X812017Y1240495D02*
X814767Y1235733D01*
X810005Y1232983D01*
X807255Y1237745D01*
X812017Y1240495D01*
G37*
G36*
X820245Y1245245D02*
X822995Y1240483D01*
X818233Y1237733D01*
X815483Y1242495D01*
X820245Y1245245D01*
G37*
G36*
X824995Y1237017D02*
X827745Y1232255D01*
X822983Y1229505D01*
X820233Y1234267D01*
X824995Y1237017D01*
G37*
G36*
X816767Y1232267D02*
X819517Y1227505D01*
X814755Y1224755D01*
X812005Y1229517D01*
X816767Y1232267D01*
G37*
G36*
X701718Y981111D02*
X697829Y985000D01*
X701718Y988889D01*
X705607Y985000D01*
X701718Y981111D01*
G37*
G36*
X695000Y974393D02*
X691111Y978282D01*
X695000Y982171D01*
X698889Y978282D01*
X695000Y974393D01*
G37*
G36*
X688283Y981111D02*
X684394Y985000D01*
X688283Y988889D01*
X692172Y985000D01*
X688283Y981111D01*
G37*
G36*
X695000Y987829D02*
X691111Y991718D01*
X695000Y995607D01*
X698889Y991718D01*
X695000Y987829D01*
G37*
G36*
X579217Y981111D02*
X575328Y985000D01*
X579217Y988889D01*
X583106Y985000D01*
X579217Y981111D01*
G37*
G36*
X572500Y974393D02*
X568611Y978282D01*
X572500Y982171D01*
X576389Y978282D01*
X572500Y974393D01*
G37*
G36*
X565782Y981111D02*
X561893Y985000D01*
X565782Y988889D01*
X569671Y985000D01*
X565782Y981111D01*
G37*
G36*
X572500Y987829D02*
X568611Y991718D01*
X572500Y995607D01*
X576389Y991718D01*
X572500Y987829D01*
G37*
G36*
X454218Y981111D02*
X450329Y985000D01*
X454218Y988889D01*
X458107Y985000D01*
X454218Y981111D01*
G37*
G36*
X447500Y974393D02*
X443611Y978282D01*
X447500Y982171D01*
X451389Y978282D01*
X447500Y974393D01*
G37*
G36*
X440782Y981111D02*
X436893Y985000D01*
X440782Y988889D01*
X444671Y985000D01*
X440782Y981111D01*
G37*
G36*
X447500Y987829D02*
X443611Y991718D01*
X447500Y995607D01*
X451389Y991718D01*
X447500Y987829D01*
G37*
D11*
X349750Y1092750D03*
X340250Y1092750D03*
X340250Y1102250D03*
X349750Y1102250D03*
X242250Y1207750D03*
X232750Y1207750D03*
X232750Y1217250D03*
X242250Y1217250D03*
X349750Y877250D03*
X349750Y867750D03*
X340250Y867750D03*
X340250Y877250D03*
X242250Y762250D03*
X242250Y752750D03*
X232750Y752750D03*
X232750Y762250D03*
D10*
G36*
X316718Y981111D02*
X312829Y985000D01*
X316718Y988889D01*
X320607Y985000D01*
X316718Y981111D01*
G37*
G36*
X310000Y974393D02*
X306111Y978282D01*
X310000Y982171D01*
X313889Y978282D01*
X310000Y974393D01*
G37*
G36*
X303283Y981111D02*
X299394Y985000D01*
X303283Y988889D01*
X307172Y985000D01*
X303283Y981111D01*
G37*
G36*
X310000Y987829D02*
X306111Y991718D01*
X310000Y995607D01*
X313889Y991718D01*
X310000Y987829D01*
G37*
G36*
X179217Y981111D02*
X175328Y985000D01*
X179217Y988889D01*
X183106Y985000D01*
X179217Y981111D01*
G37*
G36*
X172500Y974393D02*
X168611Y978282D01*
X172500Y982171D01*
X176389Y978282D01*
X172500Y974393D01*
G37*
G36*
X165782Y981111D02*
X161893Y985000D01*
X165782Y988889D01*
X169671Y985000D01*
X165782Y981111D01*
G37*
G36*
X172500Y987828D02*
X168611Y991717D01*
X172500Y995606D01*
X176389Y991717D01*
X172500Y987828D01*
G37*
D12*
X727500Y992000D03*
X727500Y978000D03*
D10*
G36*
X1021550Y876597D02*
X1016238Y875173D01*
X1014814Y880485D01*
X1020126Y881909D01*
X1021550Y876597D01*
G37*
G36*
X1024009Y867421D02*
X1018697Y865997D01*
X1017273Y871309D01*
X1022585Y872733D01*
X1024009Y867421D01*
G37*
G36*
X1014832Y864962D02*
X1009520Y863538D01*
X1008096Y868850D01*
X1013408Y870274D01*
X1014832Y864962D01*
G37*
G36*
X1012373Y874138D02*
X1007061Y872714D01*
X1005637Y878026D01*
X1010949Y879450D01*
X1012373Y874138D01*
G37*
G36*
X955300Y761848D02*
X949988Y760424D01*
X948564Y765736D01*
X953876Y767160D01*
X955300Y761848D01*
G37*
G36*
X957759Y752672D02*
X952447Y751248D01*
X951023Y756560D01*
X956335Y757984D01*
X957759Y752672D01*
G37*
G36*
X948582Y750213D02*
X943270Y748789D01*
X941846Y754101D01*
X947158Y755525D01*
X948582Y750213D01*
G37*
G36*
X946123Y759390D02*
X940811Y757966D01*
X939387Y763278D01*
X944699Y764702D01*
X946123Y759390D01*
G37*
G36*
X824800Y733595D02*
X820038Y736345D01*
X822788Y741107D01*
X827550Y738357D01*
X824800Y733595D01*
G37*
G36*
X820050Y725368D02*
X815288Y728118D01*
X818038Y732880D01*
X822800Y730130D01*
X820050Y725368D01*
G37*
G36*
X811823Y730118D02*
X807061Y732868D01*
X809811Y737630D01*
X814573Y734880D01*
X811823Y730118D01*
G37*
G36*
X816573Y738345D02*
X811811Y741095D01*
X814561Y745857D01*
X819323Y743107D01*
X816573Y738345D01*
G37*
G36*
X702528Y711813D02*
X697766Y714563D01*
X700516Y719325D01*
X705278Y716575D01*
X702528Y711813D01*
G37*
G36*
X697778Y703586D02*
X693016Y706336D01*
X695766Y711098D01*
X700528Y708348D01*
X697778Y703586D01*
G37*
G36*
X689550Y708336D02*
X684788Y711086D01*
X687538Y715848D01*
X692300Y713098D01*
X689550Y708336D01*
G37*
G36*
X694300Y716563D02*
X689538Y719313D01*
X692288Y724075D01*
X697050Y721325D01*
X694300Y716563D01*
G37*
G36*
X570743Y684554D02*
X573493Y689316D01*
X578255Y686566D01*
X575505Y681804D01*
X570743Y684554D01*
G37*
G36*
X562516Y689304D02*
X565266Y694066D01*
X570028Y691316D01*
X567278Y686554D01*
X562516Y689304D01*
G37*
G36*
X567266Y697531D02*
X570016Y702293D01*
X574778Y699543D01*
X572028Y694781D01*
X567266Y697531D01*
G37*
G36*
X575493Y692781D02*
X578243Y697543D01*
X583005Y694793D01*
X580255Y690031D01*
X575493Y692781D01*
G37*
D11*
X648746Y782137D03*
X648746Y791637D03*
X658246Y791637D03*
X658246Y782137D03*
D13*
G36*
X704480Y356193D02*
X710542Y352693D01*
X705542Y344033D01*
X699480Y347533D01*
X704480Y356193D01*
G37*
G36*
X716604Y349193D02*
X722666Y345693D01*
X717666Y337033D01*
X711604Y340533D01*
X716604Y349193D01*
G37*
D11*
X727317Y878225D03*
X727317Y887725D03*
X736817Y887725D03*
X736817Y878225D03*
D10*
G36*
X894050Y655760D02*
X888738Y654336D01*
X887314Y659648D01*
X892626Y661072D01*
X894050Y655760D01*
G37*
G36*
X896509Y646584D02*
X891197Y645160D01*
X889773Y650472D01*
X895085Y651896D01*
X896509Y646584D01*
G37*
G36*
X887332Y644125D02*
X882020Y642701D01*
X880596Y648013D01*
X885908Y649437D01*
X887332Y644125D01*
G37*
G36*
X884873Y653302D02*
X879561Y651878D01*
X878137Y657190D01*
X883449Y658614D01*
X884873Y653302D01*
G37*
G36*
X832800Y549672D02*
X827488Y548248D01*
X826064Y553560D01*
X831376Y554984D01*
X832800Y549672D01*
G37*
G36*
X835259Y540496D02*
X829947Y539072D01*
X828523Y544384D01*
X833835Y545808D01*
X835259Y540496D01*
G37*
G36*
X826082Y538037D02*
X820770Y536613D01*
X819346Y541925D01*
X824658Y543349D01*
X826082Y538037D01*
G37*
G36*
X823623Y547213D02*
X818311Y545789D01*
X816887Y551101D01*
X822199Y552525D01*
X823623Y547213D01*
G37*
G36*
X770300Y441419D02*
X764988Y439995D01*
X763564Y445307D01*
X768876Y446731D01*
X770300Y441419D01*
G37*
G36*
X772759Y432243D02*
X767447Y430819D01*
X766023Y436131D01*
X771335Y437555D01*
X772759Y432243D01*
G37*
G36*
X763582Y429784D02*
X758270Y428360D01*
X756846Y433672D01*
X762158Y435096D01*
X763582Y429784D01*
G37*
G36*
X761123Y438960D02*
X755811Y437536D01*
X754387Y442848D01*
X759699Y444272D01*
X761123Y438960D01*
G37*
G36*
X622390Y403011D02*
X617628Y405761D01*
X620378Y410523D01*
X625140Y407773D01*
X622390Y403011D01*
G37*
G36*
X617640Y394783D02*
X612878Y397533D01*
X615628Y402295D01*
X620390Y399545D01*
X617640Y394783D01*
G37*
G36*
X609413Y399533D02*
X604651Y402283D01*
X607401Y407045D01*
X612163Y404295D01*
X609413Y399533D01*
G37*
G36*
X614163Y407761D02*
X609401Y410511D01*
X612151Y415273D01*
X616913Y412523D01*
X614163Y407761D01*
G37*
G36*
X469047Y367413D02*
X464285Y370163D01*
X467035Y374925D01*
X471797Y372175D01*
X469047Y367413D01*
G37*
G36*
X464297Y359186D02*
X459535Y361936D01*
X462285Y366698D01*
X467047Y363948D01*
X464297Y359186D01*
G37*
G36*
X456070Y363936D02*
X451308Y366686D01*
X454058Y371448D01*
X458820Y368698D01*
X456070Y363936D01*
G37*
G36*
X460820Y372163D02*
X456058Y374913D01*
X458808Y379675D01*
X463570Y376925D01*
X460820Y372163D01*
G37*
G36*
X811768Y300023D02*
X809018Y295261D01*
X804256Y298011D01*
X807006Y302773D01*
X811768Y300023D01*
G37*
G36*
X819995Y295273D02*
X817245Y290511D01*
X812483Y293261D01*
X815233Y298023D01*
X819995Y295273D01*
G37*
G36*
X815245Y287045D02*
X812495Y282283D01*
X807733Y285033D01*
X810483Y289795D01*
X815245Y287045D01*
G37*
G36*
X807018Y291795D02*
X804268Y287033D01*
X799506Y289783D01*
X802256Y294545D01*
X807018Y291795D01*
G37*
G36*
X857611Y149425D02*
X854861Y144663D01*
X850099Y147413D01*
X852849Y152175D01*
X857611Y149425D01*
G37*
G36*
X865838Y144675D02*
X863088Y139913D01*
X858326Y142663D01*
X861076Y147425D01*
X865838Y144675D01*
G37*
G36*
X861088Y136448D02*
X858338Y131686D01*
X853576Y134436D01*
X856326Y139198D01*
X861088Y136448D01*
G37*
G36*
X852861Y141198D02*
X850111Y136436D01*
X845349Y139186D01*
X848099Y143948D01*
X852861Y141198D01*
G37*
G36*
X701550Y322341D02*
X696238Y320917D01*
X694814Y326229D01*
X700126Y327653D01*
X701550Y322341D01*
G37*
G36*
X704009Y313164D02*
X698697Y311740D01*
X697273Y317052D01*
X702585Y318476D01*
X704009Y313164D01*
G37*
G36*
X694832Y310706D02*
X689520Y309282D01*
X688096Y314594D01*
X693408Y316018D01*
X694832Y310706D01*
G37*
G36*
X692373Y319882D02*
X687061Y318458D01*
X685637Y323770D01*
X690949Y325194D01*
X692373Y319882D01*
G37*
G36*
X632800Y203262D02*
X627488Y201838D01*
X626064Y207150D01*
X631376Y208574D01*
X632800Y203262D01*
G37*
G36*
X635259Y194086D02*
X629947Y192662D01*
X628523Y197974D01*
X633835Y199398D01*
X635259Y194086D01*
G37*
G36*
X626082Y191627D02*
X620770Y190203D01*
X619346Y195515D01*
X624658Y196939D01*
X626082Y191627D01*
G37*
G36*
X623623Y200803D02*
X618311Y199379D01*
X616887Y204691D01*
X622199Y206115D01*
X623623Y200803D01*
G37*
D13*
G36*
X896980Y689613D02*
X903042Y686113D01*
X898042Y677453D01*
X891980Y680953D01*
X896980Y689613D01*
G37*
G36*
X909104Y682613D02*
X915166Y679113D01*
X910166Y670453D01*
X904104Y673953D01*
X909104Y682613D01*
G37*
D10*
G36*
X1144478Y880485D02*
X1143054Y875173D01*
X1137742Y876597D01*
X1139166Y881909D01*
X1144478Y880485D01*
G37*
G36*
X1153655Y878026D02*
X1152231Y872714D01*
X1146919Y874138D01*
X1148343Y879450D01*
X1153655Y878026D01*
G37*
G36*
X1151196Y868850D02*
X1149772Y863538D01*
X1144460Y864962D01*
X1145884Y870274D01*
X1151196Y868850D01*
G37*
G36*
X1142019Y871309D02*
X1140595Y865997D01*
X1135283Y867421D01*
X1136707Y872733D01*
X1142019Y871309D01*
G37*
G36*
X1210728Y765736D02*
X1209304Y760424D01*
X1203992Y761848D01*
X1205416Y767160D01*
X1210728Y765736D01*
G37*
G36*
X1219905Y763278D02*
X1218481Y757966D01*
X1213169Y759390D01*
X1214593Y764702D01*
X1219905Y763278D01*
G37*
G36*
X1217446Y754101D02*
X1216022Y748789D01*
X1210710Y750213D01*
X1212134Y755525D01*
X1217446Y754101D01*
G37*
G36*
X1208269Y756560D02*
X1206845Y751248D01*
X1201533Y752672D01*
X1202957Y757984D01*
X1208269Y756560D01*
G37*
G36*
X1169946Y638595D02*
X1165184Y635845D01*
X1162434Y640607D01*
X1167196Y643357D01*
X1169946Y638595D01*
G37*
G36*
X1174696Y630368D02*
X1169934Y627618D01*
X1167184Y632380D01*
X1171946Y635130D01*
X1174696Y630368D01*
G37*
G36*
X1166469Y625618D02*
X1161707Y622868D01*
X1158957Y627630D01*
X1163719Y630380D01*
X1166469Y625618D01*
G37*
G36*
X1161719Y633845D02*
X1156957Y631095D01*
X1154207Y635857D01*
X1158969Y638607D01*
X1161719Y633845D01*
G37*
G36*
X1127674Y521813D02*
X1122912Y519063D01*
X1120162Y523825D01*
X1124924Y526575D01*
X1127674Y521813D01*
G37*
G36*
X1132424Y513586D02*
X1127662Y510836D01*
X1124912Y515598D01*
X1129674Y518348D01*
X1132424Y513586D01*
G37*
G36*
X1124196Y508836D02*
X1119434Y506086D01*
X1116684Y510848D01*
X1121446Y513598D01*
X1124196Y508836D01*
G37*
G36*
X1119446Y517063D02*
X1114684Y514313D01*
X1111934Y519075D01*
X1116696Y521825D01*
X1119446Y517063D01*
G37*
G36*
X1085389Y394054D02*
X1082639Y398816D01*
X1087401Y401566D01*
X1090151Y396804D01*
X1085389Y394054D01*
G37*
G36*
X1077162Y389304D02*
X1074412Y394066D01*
X1079174Y396816D01*
X1081924Y392054D01*
X1077162Y389304D01*
G37*
G36*
X1072412Y397531D02*
X1069662Y402293D01*
X1074424Y405043D01*
X1077174Y400281D01*
X1072412Y397531D01*
G37*
G36*
X1080639Y402281D02*
X1077889Y407043D01*
X1082651Y409793D01*
X1085401Y405031D01*
X1080639Y402281D01*
G37*
G36*
X1036125Y509392D02*
X1038875Y514154D01*
X1043637Y511404D01*
X1040887Y506642D01*
X1036125Y509392D01*
G37*
G36*
X1027897Y514142D02*
X1030647Y518904D01*
X1035409Y516154D01*
X1032659Y511392D01*
X1027897Y514142D01*
G37*
G36*
X1032647Y522369D02*
X1035397Y527131D01*
X1040159Y524381D01*
X1037409Y519619D01*
X1032647Y522369D01*
G37*
G36*
X1040875Y517619D02*
X1043625Y522381D01*
X1048387Y519631D01*
X1045637Y514869D01*
X1040875Y517619D01*
G37*
D13*
G36*
X1436626Y345693D02*
X1442688Y349193D01*
X1447688Y340533D01*
X1441626Y337033D01*
X1436626Y345693D01*
G37*
G36*
X1448750Y352693D02*
X1454812Y356193D01*
X1459812Y347533D01*
X1453750Y344033D01*
X1448750Y352693D01*
G37*
D10*
G36*
X992195Y625480D02*
X994945Y630242D01*
X999707Y627492D01*
X996957Y622730D01*
X992195Y625480D01*
G37*
G36*
X983968Y630230D02*
X986718Y634992D01*
X991480Y632242D01*
X988730Y627480D01*
X983968Y630230D01*
G37*
G36*
X988718Y638458D02*
X991468Y643220D01*
X996230Y640470D01*
X993480Y635708D01*
X988718Y638458D01*
G37*
G36*
X996945Y633708D02*
X999695Y638470D01*
X1004457Y635720D01*
X1001707Y630958D01*
X996945Y633708D01*
G37*
G36*
X1271978Y659648D02*
X1270554Y654336D01*
X1265242Y655760D01*
X1266666Y661072D01*
X1271978Y659648D01*
G37*
G36*
X1281155Y657190D02*
X1279731Y651878D01*
X1274419Y653302D01*
X1275843Y658614D01*
X1281155Y657190D01*
G37*
G36*
X1278696Y648013D02*
X1277272Y642701D01*
X1271960Y644125D01*
X1273384Y649437D01*
X1278696Y648013D01*
G37*
G36*
X1269519Y650472D02*
X1268095Y645160D01*
X1262783Y646584D01*
X1264207Y651896D01*
X1269519Y650472D01*
G37*
G36*
X1333228Y553560D02*
X1331804Y548248D01*
X1326492Y549672D01*
X1327916Y554984D01*
X1333228Y553560D01*
G37*
G36*
X1342405Y551101D02*
X1340981Y545789D01*
X1335669Y547213D01*
X1337093Y552525D01*
X1342405Y551101D01*
G37*
G36*
X1339946Y541925D02*
X1338522Y536613D01*
X1333210Y538037D01*
X1334634Y543349D01*
X1339946Y541925D01*
G37*
G36*
X1330769Y544384D02*
X1329345Y539072D01*
X1324033Y540496D01*
X1325457Y545808D01*
X1330769Y544384D01*
G37*
G36*
X1395728Y445307D02*
X1394304Y439995D01*
X1388992Y441419D01*
X1390416Y446731D01*
X1395728Y445307D01*
G37*
G36*
X1404905Y442848D02*
X1403481Y437536D01*
X1398169Y438960D01*
X1399593Y444272D01*
X1404905Y442848D01*
G37*
G36*
X1402446Y433672D02*
X1401022Y428360D01*
X1395710Y429784D01*
X1397134Y435096D01*
X1402446Y433672D01*
G37*
G36*
X1393269Y436131D02*
X1391845Y430819D01*
X1386533Y432243D01*
X1387957Y437555D01*
X1393269Y436131D01*
G37*
G36*
X1355036Y298011D02*
X1350274Y295261D01*
X1347524Y300023D01*
X1352286Y302773D01*
X1355036Y298011D01*
G37*
G36*
X1359786Y289783D02*
X1355024Y287033D01*
X1352274Y291795D01*
X1357036Y294545D01*
X1359786Y289783D01*
G37*
G36*
X1351559Y285033D02*
X1346797Y282283D01*
X1344047Y287045D01*
X1348809Y289795D01*
X1351559Y285033D01*
G37*
G36*
X1346809Y293261D02*
X1342047Y290511D01*
X1339297Y295273D01*
X1344059Y298023D01*
X1346809Y293261D01*
G37*
G36*
X1309193Y147413D02*
X1304431Y144663D01*
X1301681Y149425D01*
X1306443Y152175D01*
X1309193Y147413D01*
G37*
G36*
X1313943Y139186D02*
X1309181Y136436D01*
X1306431Y141198D01*
X1311193Y143948D01*
X1313943Y139186D01*
G37*
G36*
X1305716Y134436D02*
X1300954Y131686D01*
X1298204Y136448D01*
X1302966Y139198D01*
X1305716Y134436D01*
G37*
G36*
X1300966Y142663D02*
X1296204Y139913D01*
X1293454Y144675D01*
X1298216Y147425D01*
X1300966Y142663D01*
G37*
G36*
X1538914Y410523D02*
X1541664Y405761D01*
X1536902Y403011D01*
X1534152Y407773D01*
X1538914Y410523D01*
G37*
G36*
X1547141Y415273D02*
X1549891Y410511D01*
X1545129Y407761D01*
X1542379Y412523D01*
X1547141Y415273D01*
G37*
G36*
X1551891Y407045D02*
X1554641Y402283D01*
X1549879Y399533D01*
X1547129Y404295D01*
X1551891Y407045D01*
G37*
G36*
X1543664Y402295D02*
X1546414Y397533D01*
X1541652Y394783D01*
X1538902Y399545D01*
X1543664Y402295D01*
G37*
G36*
X1692257Y374925D02*
X1695007Y370163D01*
X1690245Y367413D01*
X1687495Y372175D01*
X1692257Y374925D01*
G37*
G36*
X1700484Y379675D02*
X1703234Y374913D01*
X1698472Y372163D01*
X1695722Y376925D01*
X1700484Y379675D01*
G37*
G36*
X1705234Y371448D02*
X1707984Y366686D01*
X1703222Y363936D01*
X1700472Y368698D01*
X1705234Y371448D01*
G37*
G36*
X1697007Y366698D02*
X1699757Y361936D01*
X1694995Y359186D01*
X1692245Y363948D01*
X1697007Y366698D01*
G37*
G36*
X1464478Y326229D02*
X1463054Y320917D01*
X1457742Y322341D01*
X1459166Y327653D01*
X1464478Y326229D01*
G37*
G36*
X1473655Y323770D02*
X1472231Y318458D01*
X1466919Y319882D01*
X1468343Y325194D01*
X1473655Y323770D01*
G37*
G36*
X1471196Y314594D02*
X1469772Y309282D01*
X1464460Y310706D01*
X1465884Y316018D01*
X1471196Y314594D01*
G37*
G36*
X1462019Y317052D02*
X1460595Y311740D01*
X1455283Y313164D01*
X1456707Y318476D01*
X1462019Y317052D01*
G37*
G36*
X1533228Y207150D02*
X1531804Y201838D01*
X1526492Y203262D01*
X1527916Y208574D01*
X1533228Y207150D01*
G37*
G36*
X1542405Y204691D02*
X1540981Y199379D01*
X1535669Y200803D01*
X1537093Y206115D01*
X1542405Y204691D01*
G37*
G36*
X1539946Y195515D02*
X1538522Y190203D01*
X1533210Y191627D01*
X1534634Y196939D01*
X1539946Y195515D01*
G37*
G36*
X1530769Y197974D02*
X1529345Y192662D01*
X1524033Y194086D01*
X1525457Y199398D01*
X1530769Y197974D01*
G37*
D13*
G36*
X1244126Y679113D02*
X1250188Y682613D01*
X1255188Y673953D01*
X1249126Y670453D01*
X1244126Y679113D01*
G37*
G36*
X1256250Y686113D02*
X1262312Y689613D01*
X1267312Y680953D01*
X1261250Y677453D01*
X1256250Y686113D01*
G37*
D10*
G36*
X1202574Y988889D02*
X1206463Y985000D01*
X1202574Y981111D01*
X1198685Y985000D01*
X1202574Y988889D01*
G37*
G36*
X1209292Y995607D02*
X1213181Y991718D01*
X1209292Y987829D01*
X1205403Y991718D01*
X1209292Y995607D01*
G37*
G36*
X1216009Y988889D02*
X1219898Y985000D01*
X1216009Y981111D01*
X1212120Y985000D01*
X1216009Y988889D01*
G37*
G36*
X1209292Y982171D02*
X1213181Y978282D01*
X1209292Y974393D01*
X1205403Y978282D01*
X1209292Y982171D01*
G37*
G36*
X1335074Y988889D02*
X1338963Y985000D01*
X1335074Y981111D01*
X1331185Y985000D01*
X1335074Y988889D01*
G37*
G36*
X1341792Y995607D02*
X1345681Y991718D01*
X1341792Y987829D01*
X1337903Y991718D01*
X1341792Y995607D01*
G37*
G36*
X1348509Y988889D02*
X1352398Y985000D01*
X1348509Y981111D01*
X1344620Y985000D01*
X1348509Y988889D01*
G37*
G36*
X1341792Y982171D02*
X1345681Y978282D01*
X1341792Y974393D01*
X1337903Y978282D01*
X1341792Y982171D01*
G37*
D11*
X1422042Y887250D03*
X1431542Y887250D03*
X1431542Y877750D03*
X1422042Y877750D03*
X1502042Y792250D03*
X1511542Y792250D03*
X1511542Y782750D03*
X1502042Y782750D03*
X1591542Y697250D03*
X1591542Y687750D03*
X1582042Y687750D03*
X1582042Y697250D03*
D10*
G36*
X1469775Y709505D02*
X1467025Y714267D01*
X1471787Y717017D01*
X1474537Y712255D01*
X1469775Y709505D01*
G37*
G36*
X1461547Y704755D02*
X1458797Y709517D01*
X1463559Y712267D01*
X1466309Y707505D01*
X1461547Y704755D01*
G37*
G36*
X1456797Y712983D02*
X1454047Y717745D01*
X1458809Y720495D01*
X1461559Y715733D01*
X1456797Y712983D01*
G37*
G36*
X1465025Y717733D02*
X1462275Y722495D01*
X1467037Y725245D01*
X1469787Y720483D01*
X1465025Y717733D01*
G37*
D12*
X1816792Y978000D03*
X1816792Y992000D03*
D10*
G36*
X1347275Y729505D02*
X1344525Y734267D01*
X1349287Y737017D01*
X1352037Y732255D01*
X1347275Y729505D01*
G37*
G36*
X1339047Y724755D02*
X1336297Y729517D01*
X1341059Y732267D01*
X1343809Y727505D01*
X1339047Y724755D01*
G37*
G36*
X1334297Y732983D02*
X1331547Y737745D01*
X1336309Y740495D01*
X1339059Y735733D01*
X1334297Y732983D01*
G37*
G36*
X1342525Y737733D02*
X1339775Y742495D01*
X1344537Y745245D01*
X1347287Y740483D01*
X1342525Y737733D01*
G37*
G36*
X1457574Y988889D02*
X1461463Y985000D01*
X1457574Y981111D01*
X1453685Y985000D01*
X1457574Y988889D01*
G37*
G36*
X1464292Y995607D02*
X1468181Y991718D01*
X1464292Y987829D01*
X1460403Y991718D01*
X1464292Y995607D01*
G37*
G36*
X1471009Y988889D02*
X1474898Y985000D01*
X1471009Y981111D01*
X1467120Y985000D01*
X1471009Y988889D01*
G37*
G36*
X1464292Y982171D02*
X1468181Y978282D01*
X1464292Y974393D01*
X1460403Y978282D01*
X1464292Y982171D01*
G37*
G36*
X1580074Y988889D02*
X1583963Y985000D01*
X1580074Y981111D01*
X1576185Y985000D01*
X1580074Y988889D01*
G37*
G36*
X1586792Y995607D02*
X1590681Y991718D01*
X1586792Y987829D01*
X1582903Y991718D01*
X1586792Y995607D01*
G37*
G36*
X1593509Y988889D02*
X1597398Y985000D01*
X1593509Y981111D01*
X1589620Y985000D01*
X1593509Y988889D01*
G37*
G36*
X1586792Y982171D02*
X1590681Y978282D01*
X1586792Y974393D01*
X1582903Y978282D01*
X1586792Y982171D01*
G37*
G36*
X1705074Y988889D02*
X1708963Y985000D01*
X1705074Y981111D01*
X1701185Y985000D01*
X1705074Y988889D01*
G37*
G36*
X1711792Y995607D02*
X1715681Y991718D01*
X1711792Y987829D01*
X1707903Y991718D01*
X1711792Y995607D01*
G37*
G36*
X1718509Y988889D02*
X1722398Y985000D01*
X1718509Y981111D01*
X1714620Y985000D01*
X1718509Y988889D01*
G37*
G36*
X1711792Y982171D02*
X1715681Y978282D01*
X1711792Y974393D01*
X1707903Y978282D01*
X1711792Y982171D01*
G37*
D11*
X1809542Y877250D03*
X1819042Y877250D03*
X1819042Y867750D03*
X1809542Y867750D03*
X1917042Y762250D03*
X1926542Y762250D03*
X1926542Y752750D03*
X1917042Y752750D03*
X1809542Y1092750D03*
X1809542Y1102250D03*
X1819042Y1102250D03*
X1819042Y1092750D03*
X1917042Y1207750D03*
X1917042Y1217250D03*
X1926542Y1217250D03*
X1926542Y1207750D03*
D10*
G36*
X1842574Y988889D02*
X1846463Y985000D01*
X1842574Y981111D01*
X1838685Y985000D01*
X1842574Y988889D01*
G37*
G36*
X1849292Y995607D02*
X1853181Y991718D01*
X1849292Y987829D01*
X1845403Y991718D01*
X1849292Y995607D01*
G37*
G36*
X1856009Y988889D02*
X1859898Y985000D01*
X1856009Y981111D01*
X1852120Y985000D01*
X1856009Y988889D01*
G37*
G36*
X1849292Y982171D02*
X1853181Y978282D01*
X1849292Y974393D01*
X1845403Y978282D01*
X1849292Y982171D01*
G37*
G36*
X1980074Y988889D02*
X1983963Y985000D01*
X1980074Y981111D01*
X1976185Y985000D01*
X1980074Y988889D01*
G37*
G36*
X1986792Y995607D02*
X1990681Y991718D01*
X1986792Y987829D01*
X1982903Y991718D01*
X1986792Y995607D01*
G37*
G36*
X1993510Y988889D02*
X1997399Y985000D01*
X1993510Y981111D01*
X1989621Y985000D01*
X1993510Y988889D01*
G37*
G36*
X1986792Y982172D02*
X1990681Y978283D01*
X1986792Y974394D01*
X1982903Y978283D01*
X1986792Y982172D01*
G37*
D12*
X1431792Y978000D03*
X1431792Y992000D03*
D10*
G36*
X1137742Y1093403D02*
X1143054Y1094827D01*
X1144478Y1089515D01*
X1139166Y1088091D01*
X1137742Y1093403D01*
G37*
G36*
X1135283Y1102579D02*
X1140595Y1104003D01*
X1142019Y1098691D01*
X1136707Y1097267D01*
X1135283Y1102579D01*
G37*
G36*
X1144460Y1105038D02*
X1149772Y1106462D01*
X1151196Y1101150D01*
X1145884Y1099726D01*
X1144460Y1105038D01*
G37*
G36*
X1146919Y1095862D02*
X1152231Y1097286D01*
X1153655Y1091974D01*
X1148343Y1090550D01*
X1146919Y1095862D01*
G37*
G36*
X1203992Y1208152D02*
X1209304Y1209576D01*
X1210728Y1204264D01*
X1205416Y1202840D01*
X1203992Y1208152D01*
G37*
G36*
X1201533Y1217328D02*
X1206845Y1218752D01*
X1208269Y1213440D01*
X1202957Y1212016D01*
X1201533Y1217328D01*
G37*
G36*
X1210710Y1219787D02*
X1216022Y1221211D01*
X1217446Y1215899D01*
X1212134Y1214475D01*
X1210710Y1219787D01*
G37*
G36*
X1213169Y1210610D02*
X1218481Y1212034D01*
X1219905Y1206722D01*
X1214593Y1205298D01*
X1213169Y1210610D01*
G37*
G36*
X1334492Y1236405D02*
X1339254Y1233655D01*
X1336504Y1228893D01*
X1331742Y1231643D01*
X1334492Y1236405D01*
G37*
G36*
X1339242Y1244632D02*
X1344004Y1241882D01*
X1341254Y1237120D01*
X1336492Y1239870D01*
X1339242Y1244632D01*
G37*
G36*
X1347469Y1239882D02*
X1352231Y1237132D01*
X1349481Y1232370D01*
X1344719Y1235120D01*
X1347469Y1239882D01*
G37*
G36*
X1342719Y1231655D02*
X1347481Y1228905D01*
X1344731Y1224143D01*
X1339969Y1226893D01*
X1342719Y1231655D01*
G37*
G36*
X1456764Y1258187D02*
X1461526Y1255437D01*
X1458776Y1250675D01*
X1454014Y1253425D01*
X1456764Y1258187D01*
G37*
G36*
X1461514Y1266414D02*
X1466276Y1263664D01*
X1463526Y1258902D01*
X1458764Y1261652D01*
X1461514Y1266414D01*
G37*
G36*
X1469742Y1261664D02*
X1474504Y1258914D01*
X1471754Y1254152D01*
X1466992Y1256902D01*
X1469742Y1261664D01*
G37*
G36*
X1464992Y1253437D02*
X1469754Y1250687D01*
X1467004Y1245925D01*
X1462242Y1248675D01*
X1464992Y1253437D01*
G37*
G36*
X1588549Y1285446D02*
X1585799Y1280684D01*
X1581037Y1283434D01*
X1583787Y1288196D01*
X1588549Y1285446D01*
G37*
G36*
X1596776Y1280696D02*
X1594026Y1275934D01*
X1589264Y1278684D01*
X1592014Y1283446D01*
X1596776Y1280696D01*
G37*
G36*
X1592026Y1272469D02*
X1589276Y1267707D01*
X1584514Y1270457D01*
X1587264Y1275219D01*
X1592026Y1272469D01*
G37*
G36*
X1583799Y1277219D02*
X1581049Y1272457D01*
X1576287Y1275207D01*
X1579037Y1279969D01*
X1583799Y1277219D01*
G37*
D11*
X1510546Y1187863D03*
X1510546Y1178363D03*
X1501046Y1178363D03*
X1501046Y1187863D03*
D13*
G36*
X1454812Y1613807D02*
X1448750Y1617307D01*
X1453750Y1625967D01*
X1459812Y1622467D01*
X1454812Y1613807D01*
G37*
G36*
X1442688Y1620807D02*
X1436626Y1624307D01*
X1441626Y1632967D01*
X1447688Y1629467D01*
X1442688Y1620807D01*
G37*
D11*
X1431975Y1091775D03*
X1431975Y1082275D03*
X1422475Y1082275D03*
X1422475Y1091775D03*
D10*
G36*
X1265242Y1314240D02*
X1270554Y1315664D01*
X1271978Y1310352D01*
X1266666Y1308928D01*
X1265242Y1314240D01*
G37*
G36*
X1262783Y1323416D02*
X1268095Y1324840D01*
X1269519Y1319528D01*
X1264207Y1318104D01*
X1262783Y1323416D01*
G37*
G36*
X1271960Y1325875D02*
X1277272Y1327299D01*
X1278696Y1321987D01*
X1273384Y1320563D01*
X1271960Y1325875D01*
G37*
G36*
X1274419Y1316698D02*
X1279731Y1318122D01*
X1281155Y1312810D01*
X1275843Y1311386D01*
X1274419Y1316698D01*
G37*
G36*
X1326492Y1420328D02*
X1331804Y1421752D01*
X1333228Y1416440D01*
X1327916Y1415016D01*
X1326492Y1420328D01*
G37*
G36*
X1324033Y1429504D02*
X1329345Y1430928D01*
X1330769Y1425616D01*
X1325457Y1424192D01*
X1324033Y1429504D01*
G37*
G36*
X1333210Y1431963D02*
X1338522Y1433387D01*
X1339946Y1428075D01*
X1334634Y1426651D01*
X1333210Y1431963D01*
G37*
G36*
X1335669Y1422787D02*
X1340981Y1424211D01*
X1342405Y1418899D01*
X1337093Y1417475D01*
X1335669Y1422787D01*
G37*
G36*
X1388992Y1528581D02*
X1394304Y1530005D01*
X1395728Y1524693D01*
X1390416Y1523269D01*
X1388992Y1528581D01*
G37*
G36*
X1386533Y1537757D02*
X1391845Y1539181D01*
X1393269Y1533869D01*
X1387957Y1532445D01*
X1386533Y1537757D01*
G37*
G36*
X1395710Y1540216D02*
X1401022Y1541640D01*
X1402446Y1536328D01*
X1397134Y1534904D01*
X1395710Y1540216D01*
G37*
G36*
X1398169Y1531040D02*
X1403481Y1532464D01*
X1404905Y1527152D01*
X1399593Y1525728D01*
X1398169Y1531040D01*
G37*
G36*
X1536902Y1566989D02*
X1541664Y1564239D01*
X1538914Y1559477D01*
X1534152Y1562227D01*
X1536902Y1566989D01*
G37*
G36*
X1541652Y1575217D02*
X1546414Y1572467D01*
X1543664Y1567705D01*
X1538902Y1570455D01*
X1541652Y1575217D01*
G37*
G36*
X1549879Y1570467D02*
X1554641Y1567717D01*
X1551891Y1562955D01*
X1547129Y1565705D01*
X1549879Y1570467D01*
G37*
G36*
X1545129Y1562239D02*
X1549891Y1559489D01*
X1547141Y1554727D01*
X1542379Y1557477D01*
X1545129Y1562239D01*
G37*
G36*
X1690245Y1602587D02*
X1695007Y1599837D01*
X1692257Y1595075D01*
X1687495Y1597825D01*
X1690245Y1602587D01*
G37*
G36*
X1694995Y1610814D02*
X1699757Y1608064D01*
X1697007Y1603302D01*
X1692245Y1606052D01*
X1694995Y1610814D01*
G37*
G36*
X1703222Y1606064D02*
X1707984Y1603314D01*
X1705234Y1598552D01*
X1700472Y1601302D01*
X1703222Y1606064D01*
G37*
G36*
X1698472Y1597837D02*
X1703234Y1595087D01*
X1700484Y1590325D01*
X1695722Y1593075D01*
X1698472Y1597837D01*
G37*
G36*
X1347524Y1669977D02*
X1350274Y1674739D01*
X1355036Y1671989D01*
X1352286Y1667227D01*
X1347524Y1669977D01*
G37*
G36*
X1339297Y1674727D02*
X1342047Y1679489D01*
X1346809Y1676739D01*
X1344059Y1671977D01*
X1339297Y1674727D01*
G37*
G36*
X1344047Y1682955D02*
X1346797Y1687717D01*
X1351559Y1684967D01*
X1348809Y1680205D01*
X1344047Y1682955D01*
G37*
G36*
X1352274Y1678205D02*
X1355024Y1682967D01*
X1359786Y1680217D01*
X1357036Y1675455D01*
X1352274Y1678205D01*
G37*
G36*
X1301681Y1820575D02*
X1304431Y1825337D01*
X1309193Y1822587D01*
X1306443Y1817825D01*
X1301681Y1820575D01*
G37*
G36*
X1293454Y1825325D02*
X1296204Y1830087D01*
X1300966Y1827337D01*
X1298216Y1822575D01*
X1293454Y1825325D01*
G37*
G36*
X1298204Y1833552D02*
X1300954Y1838314D01*
X1305716Y1835564D01*
X1302966Y1830802D01*
X1298204Y1833552D01*
G37*
G36*
X1306431Y1828802D02*
X1309181Y1833564D01*
X1313943Y1830814D01*
X1311193Y1826052D01*
X1306431Y1828802D01*
G37*
G36*
X1457742Y1647659D02*
X1463054Y1649083D01*
X1464478Y1643771D01*
X1459166Y1642347D01*
X1457742Y1647659D01*
G37*
G36*
X1455283Y1656836D02*
X1460595Y1658260D01*
X1462019Y1652948D01*
X1456707Y1651524D01*
X1455283Y1656836D01*
G37*
G36*
X1464460Y1659295D02*
X1469772Y1660719D01*
X1471196Y1655407D01*
X1465884Y1653983D01*
X1464460Y1659295D01*
G37*
G36*
X1466919Y1650118D02*
X1472231Y1651542D01*
X1473655Y1646230D01*
X1468343Y1644806D01*
X1466919Y1650118D01*
G37*
G36*
X1526492Y1766738D02*
X1531804Y1768162D01*
X1533228Y1762850D01*
X1527916Y1761426D01*
X1526492Y1766738D01*
G37*
G36*
X1524033Y1775914D02*
X1529345Y1777338D01*
X1530769Y1772026D01*
X1525457Y1770602D01*
X1524033Y1775914D01*
G37*
G36*
X1533210Y1778373D02*
X1538522Y1779797D01*
X1539946Y1774485D01*
X1534634Y1773061D01*
X1533210Y1778373D01*
G37*
G36*
X1535669Y1769197D02*
X1540981Y1770621D01*
X1542405Y1765309D01*
X1537093Y1763885D01*
X1535669Y1769197D01*
G37*
D13*
G36*
X1262312Y1280387D02*
X1256250Y1283887D01*
X1261250Y1292547D01*
X1267312Y1289047D01*
X1262312Y1280387D01*
G37*
G36*
X1250188Y1287387D02*
X1244126Y1290887D01*
X1249126Y1299547D01*
X1255188Y1296047D01*
X1250188Y1287387D01*
G37*
D10*
G36*
X1014814Y1089515D02*
X1016238Y1094827D01*
X1021550Y1093403D01*
X1020126Y1088091D01*
X1014814Y1089515D01*
G37*
G36*
X1005637Y1091974D02*
X1007061Y1097286D01*
X1012373Y1095862D01*
X1010949Y1090550D01*
X1005637Y1091974D01*
G37*
G36*
X1008096Y1101150D02*
X1009520Y1106462D01*
X1014832Y1105038D01*
X1013408Y1099726D01*
X1008096Y1101150D01*
G37*
G36*
X1017273Y1098691D02*
X1018697Y1104003D01*
X1024009Y1102579D01*
X1022585Y1097267D01*
X1017273Y1098691D01*
G37*
G36*
X948564Y1204264D02*
X949988Y1209576D01*
X955300Y1208152D01*
X953876Y1202840D01*
X948564Y1204264D01*
G37*
G36*
X939387Y1206722D02*
X940811Y1212034D01*
X946123Y1210610D01*
X944699Y1205298D01*
X939387Y1206722D01*
G37*
G36*
X941846Y1215899D02*
X943270Y1221211D01*
X948582Y1219787D01*
X947158Y1214475D01*
X941846Y1215899D01*
G37*
G36*
X951023Y1213440D02*
X952447Y1218752D01*
X957759Y1217328D01*
X956335Y1212016D01*
X951023Y1213440D01*
G37*
G36*
X989346Y1331405D02*
X994108Y1334155D01*
X996858Y1329393D01*
X992096Y1326643D01*
X989346Y1331405D01*
G37*
G36*
X984596Y1339632D02*
X989358Y1342382D01*
X992108Y1337620D01*
X987346Y1334870D01*
X984596Y1339632D01*
G37*
G36*
X992823Y1344382D02*
X997585Y1347132D01*
X1000335Y1342370D01*
X995573Y1339620D01*
X992823Y1344382D01*
G37*
G36*
X997573Y1336155D02*
X1002335Y1338905D01*
X1005085Y1334143D01*
X1000323Y1331393D01*
X997573Y1336155D01*
G37*
G36*
X1031618Y1448187D02*
X1036380Y1450937D01*
X1039130Y1446175D01*
X1034368Y1443425D01*
X1031618Y1448187D01*
G37*
G36*
X1026868Y1456414D02*
X1031630Y1459164D01*
X1034380Y1454402D01*
X1029618Y1451652D01*
X1026868Y1456414D01*
G37*
G36*
X1035096Y1461164D02*
X1039858Y1463914D01*
X1042608Y1459152D01*
X1037846Y1456402D01*
X1035096Y1461164D01*
G37*
G36*
X1039846Y1452937D02*
X1044608Y1455687D01*
X1047358Y1450925D01*
X1042596Y1448175D01*
X1039846Y1452937D01*
G37*
G36*
X1073903Y1575946D02*
X1076653Y1571184D01*
X1071891Y1568434D01*
X1069141Y1573196D01*
X1073903Y1575946D01*
G37*
G36*
X1082130Y1580696D02*
X1084880Y1575934D01*
X1080118Y1573184D01*
X1077368Y1577946D01*
X1082130Y1580696D01*
G37*
G36*
X1086880Y1572469D02*
X1089630Y1567707D01*
X1084868Y1564957D01*
X1082118Y1569719D01*
X1086880Y1572469D01*
G37*
G36*
X1078653Y1567719D02*
X1081403Y1562957D01*
X1076641Y1560207D01*
X1073891Y1564969D01*
X1078653Y1567719D01*
G37*
G36*
X1123167Y1460608D02*
X1120417Y1455846D01*
X1115655Y1458596D01*
X1118405Y1463358D01*
X1123167Y1460608D01*
G37*
G36*
X1131394Y1455858D02*
X1128644Y1451096D01*
X1123882Y1453846D01*
X1126632Y1458608D01*
X1131394Y1455858D01*
G37*
G36*
X1126644Y1447631D02*
X1123894Y1442869D01*
X1119132Y1445619D01*
X1121882Y1450381D01*
X1126644Y1447631D01*
G37*
G36*
X1118417Y1452381D02*
X1115667Y1447619D01*
X1110905Y1450369D01*
X1113655Y1455131D01*
X1118417Y1452381D01*
G37*
D13*
G36*
X722666Y1624307D02*
X716604Y1620807D01*
X711604Y1629467D01*
X717666Y1632967D01*
X722666Y1624307D01*
G37*
G36*
X710542Y1617307D02*
X704480Y1613807D01*
X699480Y1622467D01*
X705542Y1625967D01*
X710542Y1617307D01*
G37*
D10*
G36*
X1167097Y1344520D02*
X1164347Y1339758D01*
X1159585Y1342508D01*
X1162335Y1347270D01*
X1167097Y1344520D01*
G37*
G36*
X1175324Y1339770D02*
X1172574Y1335008D01*
X1167812Y1337758D01*
X1170562Y1342520D01*
X1175324Y1339770D01*
G37*
G36*
X1170574Y1331542D02*
X1167824Y1326780D01*
X1163062Y1329530D01*
X1165812Y1334292D01*
X1170574Y1331542D01*
G37*
G36*
X1162347Y1336292D02*
X1159597Y1331530D01*
X1154835Y1334280D01*
X1157585Y1339042D01*
X1162347Y1336292D01*
G37*
G36*
X887314Y1310352D02*
X888738Y1315664D01*
X894050Y1314240D01*
X892626Y1308928D01*
X887314Y1310352D01*
G37*
G36*
X878137Y1312810D02*
X879561Y1318122D01*
X884873Y1316698D01*
X883449Y1311386D01*
X878137Y1312810D01*
G37*
G36*
X880596Y1321987D02*
X882020Y1327299D01*
X887332Y1325875D01*
X885908Y1320563D01*
X880596Y1321987D01*
G37*
G36*
X889773Y1319528D02*
X891197Y1324840D01*
X896509Y1323416D01*
X895085Y1318104D01*
X889773Y1319528D01*
G37*
G36*
X826064Y1416440D02*
X827488Y1421752D01*
X832800Y1420328D01*
X831376Y1415016D01*
X826064Y1416440D01*
G37*
G36*
X816887Y1418899D02*
X818311Y1424211D01*
X823623Y1422787D01*
X822199Y1417475D01*
X816887Y1418899D01*
G37*
G36*
X819346Y1428075D02*
X820770Y1433387D01*
X826082Y1431963D01*
X824658Y1426651D01*
X819346Y1428075D01*
G37*
G36*
X828523Y1425616D02*
X829947Y1430928D01*
X835259Y1429504D01*
X833835Y1424192D01*
X828523Y1425616D01*
G37*
G36*
X763564Y1524693D02*
X764988Y1530005D01*
X770300Y1528581D01*
X768876Y1523269D01*
X763564Y1524693D01*
G37*
G36*
X754387Y1527152D02*
X755811Y1532464D01*
X761123Y1531040D01*
X759699Y1525728D01*
X754387Y1527152D01*
G37*
G36*
X756846Y1536328D02*
X758270Y1541640D01*
X763582Y1540216D01*
X762158Y1534904D01*
X756846Y1536328D01*
G37*
G36*
X766023Y1533869D02*
X767447Y1539181D01*
X772759Y1537757D01*
X771335Y1532445D01*
X766023Y1533869D01*
G37*
G36*
X804256Y1671989D02*
X809018Y1674739D01*
X811768Y1669977D01*
X807006Y1667227D01*
X804256Y1671989D01*
G37*
G36*
X799506Y1680217D02*
X804268Y1682967D01*
X807018Y1678205D01*
X802256Y1675455D01*
X799506Y1680217D01*
G37*
G36*
X807733Y1684967D02*
X812495Y1687717D01*
X815245Y1682955D01*
X810483Y1680205D01*
X807733Y1684967D01*
G37*
G36*
X812483Y1676739D02*
X817245Y1679489D01*
X819995Y1674727D01*
X815233Y1671977D01*
X812483Y1676739D01*
G37*
G36*
X850099Y1822587D02*
X854861Y1825337D01*
X857611Y1820575D01*
X852849Y1817825D01*
X850099Y1822587D01*
G37*
G36*
X845349Y1830814D02*
X850111Y1833564D01*
X852861Y1828802D01*
X848099Y1826052D01*
X845349Y1830814D01*
G37*
G36*
X853576Y1835564D02*
X858338Y1838314D01*
X861088Y1833552D01*
X856326Y1830802D01*
X853576Y1835564D01*
G37*
G36*
X858326Y1827337D02*
X863088Y1830087D01*
X865838Y1825325D01*
X861076Y1822575D01*
X858326Y1827337D01*
G37*
G36*
X620378Y1559477D02*
X617628Y1564239D01*
X622390Y1566989D01*
X625140Y1562227D01*
X620378Y1559477D01*
G37*
G36*
X612151Y1554727D02*
X609401Y1559489D01*
X614163Y1562239D01*
X616913Y1557477D01*
X612151Y1554727D01*
G37*
G36*
X607401Y1562955D02*
X604651Y1567717D01*
X609413Y1570467D01*
X612163Y1565705D01*
X607401Y1562955D01*
G37*
G36*
X615628Y1567705D02*
X612878Y1572467D01*
X617640Y1575217D01*
X620390Y1570455D01*
X615628Y1567705D01*
G37*
G36*
X467035Y1595075D02*
X464285Y1599837D01*
X469047Y1602587D01*
X471797Y1597825D01*
X467035Y1595075D01*
G37*
G36*
X458808Y1590325D02*
X456058Y1595087D01*
X460820Y1597837D01*
X463570Y1593075D01*
X458808Y1590325D01*
G37*
G36*
X454058Y1598552D02*
X451308Y1603314D01*
X456070Y1606064D01*
X458820Y1601302D01*
X454058Y1598552D01*
G37*
G36*
X462285Y1603302D02*
X459535Y1608064D01*
X464297Y1610814D01*
X467047Y1606052D01*
X462285Y1603302D01*
G37*
G36*
X694814Y1643771D02*
X696238Y1649083D01*
X701550Y1647659D01*
X700126Y1642347D01*
X694814Y1643771D01*
G37*
G36*
X685637Y1646230D02*
X687061Y1651542D01*
X692373Y1650118D01*
X690949Y1644806D01*
X685637Y1646230D01*
G37*
G36*
X688096Y1655407D02*
X689520Y1660719D01*
X694832Y1659295D01*
X693408Y1653983D01*
X688096Y1655407D01*
G37*
G36*
X697273Y1652948D02*
X698697Y1658260D01*
X704009Y1656836D01*
X702585Y1651524D01*
X697273Y1652948D01*
G37*
G36*
X626064Y1762850D02*
X627488Y1768162D01*
X632800Y1766738D01*
X631376Y1761426D01*
X626064Y1762850D01*
G37*
G36*
X616887Y1765309D02*
X618311Y1770621D01*
X623623Y1769197D01*
X622199Y1763885D01*
X616887Y1765309D01*
G37*
G36*
X619346Y1774485D02*
X620770Y1779797D01*
X626082Y1778373D01*
X624658Y1773061D01*
X619346Y1774485D01*
G37*
G36*
X628523Y1772026D02*
X629947Y1777338D01*
X635259Y1775914D01*
X633835Y1770602D01*
X628523Y1772026D01*
G37*
D13*
G36*
X915166Y1290887D02*
X909104Y1287387D01*
X904104Y1296047D01*
X910166Y1299547D01*
X915166Y1290887D01*
G37*
G36*
X903042Y1283887D02*
X896980Y1280387D01*
X891980Y1289047D01*
X898042Y1292547D01*
X903042Y1283887D01*
G37*
M02*
