G04 EAGLE Gerber RS-274X export*
G75*
%MOMM*%
%FSLAX34Y34*%
%LPD*%
%INSoldermask Top*%
%IPPOS*%
%AMOC8*
5,1,8,0,0,1.08239X$1,22.5*%
G01*
%ADD10C,0.550800*%
%ADD11C,2.550800*%
%ADD12C,1.050800*%
%ADD13R,0.600800X0.600800*%
%ADD14R,0.600800X0.600800*%
%ADD15R,1.050800X0.750800*%
%ADD16R,0.750800X1.050800*%
%ADD17R,1.150800X0.300800*%
%ADD18R,0.750800X0.300800*%
%ADD19R,0.300800X1.150800*%
%ADD20R,0.300800X0.750800*%
%ADD21C,1.930400*%

G36*
X186105Y951749D02*
X186105Y951749D01*
X186105Y951750D01*
X186105Y971250D01*
X186101Y971255D01*
X186100Y971255D01*
X175100Y971255D01*
X175095Y971251D01*
X175095Y971250D01*
X175095Y968750D01*
X175099Y968745D01*
X175100Y968745D01*
X180095Y968745D01*
X180095Y962755D01*
X175100Y962755D01*
X175095Y962751D01*
X175095Y962750D01*
X175095Y960250D01*
X175099Y960245D01*
X175100Y960245D01*
X180095Y960245D01*
X180095Y954255D01*
X175100Y954255D01*
X175095Y954251D01*
X175095Y954250D01*
X175095Y951750D01*
X175099Y951745D01*
X175100Y951745D01*
X186100Y951745D01*
X186105Y951749D01*
G37*
G36*
X211105Y951749D02*
X211105Y951749D01*
X211105Y951750D01*
X211105Y954250D01*
X211101Y954255D01*
X211100Y954255D01*
X206105Y954255D01*
X206105Y960245D01*
X211100Y960245D01*
X211105Y960249D01*
X211105Y960250D01*
X211105Y962750D01*
X211101Y962755D01*
X211100Y962755D01*
X206105Y962755D01*
X206105Y968745D01*
X211100Y968745D01*
X211105Y968749D01*
X211105Y968750D01*
X211105Y971250D01*
X211101Y971255D01*
X211100Y971255D01*
X200100Y971255D01*
X200095Y971251D01*
X200095Y971250D01*
X200095Y951750D01*
X200099Y951745D01*
X200100Y951745D01*
X211100Y951745D01*
X211105Y951749D01*
G37*
G36*
X182105Y988249D02*
X182105Y988249D01*
X182105Y988250D01*
X182105Y989500D01*
X182103Y989502D01*
X182104Y989504D01*
X180854Y990754D01*
X180851Y990754D01*
X180850Y990755D01*
X175100Y990755D01*
X175095Y990751D01*
X175095Y990750D01*
X175095Y988250D01*
X175099Y988245D01*
X175100Y988245D01*
X182100Y988245D01*
X182105Y988249D01*
G37*
D10*
X1787835Y337590D03*
X1791585Y344085D03*
X1795335Y350580D03*
X1800825Y330090D03*
X1804575Y336585D03*
X1808325Y343080D03*
X1985335Y682590D03*
X1989085Y689085D03*
X1992835Y695580D03*
X1998325Y675090D03*
X2002075Y681585D03*
X2005825Y688080D03*
X352835Y1627590D03*
X356585Y1634085D03*
X360335Y1640580D03*
X365825Y1620090D03*
X369575Y1626585D03*
X373325Y1633080D03*
X152835Y1282590D03*
X156585Y1289085D03*
X160335Y1295580D03*
X165825Y1275090D03*
X169575Y1281585D03*
X173325Y1288080D03*
X174665Y682590D03*
X167165Y695580D03*
X161675Y675090D03*
X154175Y688080D03*
X372165Y337590D03*
X368415Y344085D03*
X364665Y350580D03*
X359175Y330090D03*
X355425Y336585D03*
X351675Y343080D03*
X2004665Y1285090D03*
X2000915Y1291585D03*
X1997165Y1298080D03*
X1991675Y1277590D03*
X1987925Y1284085D03*
X1984175Y1290580D03*
X1807165Y1625090D03*
X1803415Y1631585D03*
X1799665Y1638080D03*
X1794175Y1617590D03*
X1790425Y1624085D03*
X1786675Y1630580D03*
X2150915Y1031585D03*
X2147165Y1038080D03*
X2141675Y1017590D03*
X2137925Y1024085D03*
X2134175Y1030580D03*
X2135335Y940090D03*
X2139085Y946585D03*
X2142835Y953080D03*
X2148325Y932590D03*
X2152075Y939085D03*
X9085Y1031585D03*
X12835Y1038080D03*
X18325Y1017590D03*
X22075Y1024085D03*
X25825Y1030580D03*
X23325Y937590D03*
D11*
X90313Y966250D02*
X115313Y966250D01*
X115313Y1003750D02*
X90313Y1003750D01*
D12*
X2140000Y1890000D03*
X2140000Y80000D03*
X20000Y1890000D03*
X20000Y80000D03*
D13*
G36*
X956717Y980752D02*
X952469Y985000D01*
X956717Y989248D01*
X960965Y985000D01*
X956717Y980752D01*
G37*
G36*
X950000Y974035D02*
X945752Y978283D01*
X950000Y982531D01*
X954248Y978283D01*
X950000Y974035D01*
G37*
G36*
X943282Y980752D02*
X939034Y985000D01*
X943282Y989248D01*
X947530Y985000D01*
X943282Y980752D01*
G37*
G36*
X950000Y987470D02*
X945752Y991718D01*
X950000Y995966D01*
X954248Y991718D01*
X950000Y987470D01*
G37*
G36*
X824217Y980752D02*
X819969Y985000D01*
X824217Y989248D01*
X828465Y985000D01*
X824217Y980752D01*
G37*
G36*
X817500Y974034D02*
X813252Y978282D01*
X817500Y982530D01*
X821748Y978282D01*
X817500Y974034D01*
G37*
G36*
X810782Y980752D02*
X806534Y985000D01*
X810782Y989248D01*
X815030Y985000D01*
X810782Y980752D01*
G37*
G36*
X817500Y987470D02*
X813252Y991718D01*
X817500Y995966D01*
X821748Y991718D01*
X817500Y987470D01*
G37*
D14*
X737250Y1082750D03*
X727750Y1082750D03*
X727750Y1092250D03*
X737250Y1092250D03*
X657250Y1177750D03*
X647750Y1177750D03*
X647750Y1187250D03*
X657250Y1187250D03*
X567750Y1272750D03*
X567750Y1282250D03*
X577250Y1282250D03*
X577250Y1272750D03*
D13*
G36*
X689610Y1260842D02*
X692614Y1255640D01*
X687412Y1252636D01*
X684408Y1257838D01*
X689610Y1260842D01*
G37*
G36*
X697838Y1265592D02*
X700842Y1260390D01*
X695640Y1257386D01*
X692636Y1262588D01*
X697838Y1265592D01*
G37*
G36*
X702588Y1257364D02*
X705592Y1252162D01*
X700390Y1249158D01*
X697386Y1254360D01*
X702588Y1257364D01*
G37*
G36*
X694360Y1252614D02*
X697364Y1247412D01*
X692162Y1244408D01*
X689158Y1249610D01*
X694360Y1252614D01*
G37*
D15*
X342500Y992000D03*
X342500Y978000D03*
D13*
G36*
X812110Y1240842D02*
X815114Y1235640D01*
X809912Y1232636D01*
X806908Y1237838D01*
X812110Y1240842D01*
G37*
G36*
X820338Y1245592D02*
X823342Y1240390D01*
X818140Y1237386D01*
X815136Y1242588D01*
X820338Y1245592D01*
G37*
G36*
X825088Y1237364D02*
X828092Y1232162D01*
X822890Y1229158D01*
X819886Y1234360D01*
X825088Y1237364D01*
G37*
G36*
X816860Y1232614D02*
X819864Y1227412D01*
X814662Y1224408D01*
X811658Y1229610D01*
X816860Y1232614D01*
G37*
G36*
X701718Y980752D02*
X697470Y985000D01*
X701718Y989248D01*
X705966Y985000D01*
X701718Y980752D01*
G37*
G36*
X695000Y974034D02*
X690752Y978282D01*
X695000Y982530D01*
X699248Y978282D01*
X695000Y974034D01*
G37*
G36*
X688283Y980752D02*
X684035Y985000D01*
X688283Y989248D01*
X692531Y985000D01*
X688283Y980752D01*
G37*
G36*
X695000Y987470D02*
X690752Y991718D01*
X695000Y995966D01*
X699248Y991718D01*
X695000Y987470D01*
G37*
G36*
X579217Y980752D02*
X574969Y985000D01*
X579217Y989248D01*
X583465Y985000D01*
X579217Y980752D01*
G37*
G36*
X572500Y974034D02*
X568252Y978282D01*
X572500Y982530D01*
X576748Y978282D01*
X572500Y974034D01*
G37*
G36*
X565782Y980752D02*
X561534Y985000D01*
X565782Y989248D01*
X570030Y985000D01*
X565782Y980752D01*
G37*
G36*
X572500Y987470D02*
X568252Y991718D01*
X572500Y995966D01*
X576748Y991718D01*
X572500Y987470D01*
G37*
G36*
X454218Y980752D02*
X449970Y985000D01*
X454218Y989248D01*
X458466Y985000D01*
X454218Y980752D01*
G37*
G36*
X447500Y974034D02*
X443252Y978282D01*
X447500Y982530D01*
X451748Y978282D01*
X447500Y974034D01*
G37*
G36*
X440782Y980752D02*
X436534Y985000D01*
X440782Y989248D01*
X445030Y985000D01*
X440782Y980752D01*
G37*
G36*
X447500Y987470D02*
X443252Y991718D01*
X447500Y995966D01*
X451748Y991718D01*
X447500Y987470D01*
G37*
D14*
X349750Y1092750D03*
X340250Y1092750D03*
X340250Y1102250D03*
X349750Y1102250D03*
X242250Y1207750D03*
X232750Y1207750D03*
X232750Y1217250D03*
X242250Y1217250D03*
X349750Y877250D03*
X349750Y867750D03*
X340250Y867750D03*
X340250Y877250D03*
X242250Y762250D03*
X242250Y752750D03*
X232750Y752750D03*
X232750Y762250D03*
D13*
G36*
X316718Y980752D02*
X312470Y985000D01*
X316718Y989248D01*
X320966Y985000D01*
X316718Y980752D01*
G37*
G36*
X310000Y974034D02*
X305752Y978282D01*
X310000Y982530D01*
X314248Y978282D01*
X310000Y974034D01*
G37*
G36*
X303283Y980752D02*
X299035Y985000D01*
X303283Y989248D01*
X307531Y985000D01*
X303283Y980752D01*
G37*
G36*
X310000Y987470D02*
X305752Y991718D01*
X310000Y995966D01*
X314248Y991718D01*
X310000Y987470D01*
G37*
D15*
X727500Y992000D03*
X727500Y978000D03*
D16*
X207720Y1012100D03*
X193720Y1012100D03*
D15*
X221040Y981000D03*
X221040Y967000D03*
X236280Y981000D03*
X236280Y967000D03*
X149920Y1011480D03*
X149920Y997480D03*
X165160Y997480D03*
X165160Y1011480D03*
X165160Y988620D03*
X165160Y974620D03*
X182940Y1010180D03*
X182940Y1024180D03*
D17*
X180600Y976500D03*
X205600Y976500D03*
X180600Y983000D03*
X205600Y983000D03*
D18*
X207600Y989500D03*
D19*
X195600Y996500D03*
X190600Y996500D03*
D20*
X200600Y998500D03*
X205600Y998500D03*
X185600Y998500D03*
X180600Y998500D03*
D13*
G36*
X1021861Y876417D02*
X1016058Y874862D01*
X1014503Y880665D01*
X1020306Y882220D01*
X1021861Y876417D01*
G37*
G36*
X1024320Y867241D02*
X1018517Y865686D01*
X1016962Y871489D01*
X1022765Y873044D01*
X1024320Y867241D01*
G37*
G36*
X1015143Y864782D02*
X1009340Y863227D01*
X1007785Y869030D01*
X1013588Y870585D01*
X1015143Y864782D01*
G37*
G36*
X1012684Y873958D02*
X1006881Y872403D01*
X1005326Y878206D01*
X1011129Y879761D01*
X1012684Y873958D01*
G37*
G36*
X955611Y761668D02*
X949808Y760113D01*
X948253Y765916D01*
X954056Y767471D01*
X955611Y761668D01*
G37*
G36*
X958070Y752492D02*
X952267Y750937D01*
X950712Y756740D01*
X956515Y758295D01*
X958070Y752492D01*
G37*
G36*
X948893Y750033D02*
X943090Y748478D01*
X941535Y754281D01*
X947338Y755836D01*
X948893Y750033D01*
G37*
G36*
X946434Y759210D02*
X940631Y757655D01*
X939076Y763458D01*
X944879Y765013D01*
X946434Y759210D01*
G37*
G36*
X824893Y733248D02*
X819691Y736252D01*
X822695Y741454D01*
X827897Y738450D01*
X824893Y733248D01*
G37*
G36*
X820143Y725021D02*
X814941Y728025D01*
X817945Y733227D01*
X823147Y730223D01*
X820143Y725021D01*
G37*
G36*
X811916Y729771D02*
X806714Y732775D01*
X809718Y737977D01*
X814920Y734973D01*
X811916Y729771D01*
G37*
G36*
X816666Y737998D02*
X811464Y741002D01*
X814468Y746204D01*
X819670Y743200D01*
X816666Y737998D01*
G37*
G36*
X702621Y711466D02*
X697419Y714470D01*
X700423Y719672D01*
X705625Y716668D01*
X702621Y711466D01*
G37*
G36*
X697871Y703239D02*
X692669Y706243D01*
X695673Y711445D01*
X700875Y708441D01*
X697871Y703239D01*
G37*
G36*
X689643Y707989D02*
X684441Y710993D01*
X687445Y716195D01*
X692647Y713191D01*
X689643Y707989D01*
G37*
G36*
X694393Y716216D02*
X689191Y719220D01*
X692195Y724422D01*
X697397Y721418D01*
X694393Y716216D01*
G37*
G36*
X570396Y684461D02*
X573400Y689663D01*
X578602Y686659D01*
X575598Y681457D01*
X570396Y684461D01*
G37*
G36*
X562169Y689211D02*
X565173Y694413D01*
X570375Y691409D01*
X567371Y686207D01*
X562169Y689211D01*
G37*
G36*
X566919Y697438D02*
X569923Y702640D01*
X575125Y699636D01*
X572121Y694434D01*
X566919Y697438D01*
G37*
G36*
X575146Y692688D02*
X578150Y697890D01*
X583352Y694886D01*
X580348Y689684D01*
X575146Y692688D01*
G37*
D14*
X648746Y782137D03*
X648746Y791637D03*
X658246Y791637D03*
X658246Y782137D03*
D16*
G36*
X704387Y356540D02*
X710889Y352786D01*
X705635Y343686D01*
X699133Y347440D01*
X704387Y356540D01*
G37*
G36*
X716511Y349540D02*
X723013Y345786D01*
X717759Y336686D01*
X711257Y340440D01*
X716511Y349540D01*
G37*
D14*
X727317Y878225D03*
X727317Y887725D03*
X736817Y887725D03*
X736817Y878225D03*
D13*
G36*
X894361Y655580D02*
X888558Y654025D01*
X887003Y659828D01*
X892806Y661383D01*
X894361Y655580D01*
G37*
G36*
X896820Y646404D02*
X891017Y644849D01*
X889462Y650652D01*
X895265Y652207D01*
X896820Y646404D01*
G37*
G36*
X887643Y643945D02*
X881840Y642390D01*
X880285Y648193D01*
X886088Y649748D01*
X887643Y643945D01*
G37*
G36*
X885184Y653122D02*
X879381Y651567D01*
X877826Y657370D01*
X883629Y658925D01*
X885184Y653122D01*
G37*
G36*
X833111Y549492D02*
X827308Y547937D01*
X825753Y553740D01*
X831556Y555295D01*
X833111Y549492D01*
G37*
G36*
X835570Y540316D02*
X829767Y538761D01*
X828212Y544564D01*
X834015Y546119D01*
X835570Y540316D01*
G37*
G36*
X826393Y537857D02*
X820590Y536302D01*
X819035Y542105D01*
X824838Y543660D01*
X826393Y537857D01*
G37*
G36*
X823934Y547033D02*
X818131Y545478D01*
X816576Y551281D01*
X822379Y552836D01*
X823934Y547033D01*
G37*
G36*
X770611Y441239D02*
X764808Y439684D01*
X763253Y445487D01*
X769056Y447042D01*
X770611Y441239D01*
G37*
G36*
X773070Y432063D02*
X767267Y430508D01*
X765712Y436311D01*
X771515Y437866D01*
X773070Y432063D01*
G37*
G36*
X763893Y429604D02*
X758090Y428049D01*
X756535Y433852D01*
X762338Y435407D01*
X763893Y429604D01*
G37*
G36*
X761434Y438780D02*
X755631Y437225D01*
X754076Y443028D01*
X759879Y444583D01*
X761434Y438780D01*
G37*
G36*
X622483Y402664D02*
X617281Y405668D01*
X620285Y410870D01*
X625487Y407866D01*
X622483Y402664D01*
G37*
G36*
X617733Y394436D02*
X612531Y397440D01*
X615535Y402642D01*
X620737Y399638D01*
X617733Y394436D01*
G37*
G36*
X609506Y399186D02*
X604304Y402190D01*
X607308Y407392D01*
X612510Y404388D01*
X609506Y399186D01*
G37*
G36*
X614256Y407414D02*
X609054Y410418D01*
X612058Y415620D01*
X617260Y412616D01*
X614256Y407414D01*
G37*
G36*
X469140Y367066D02*
X463938Y370070D01*
X466942Y375272D01*
X472144Y372268D01*
X469140Y367066D01*
G37*
G36*
X464390Y358839D02*
X459188Y361843D01*
X462192Y367045D01*
X467394Y364041D01*
X464390Y358839D01*
G37*
G36*
X456163Y363589D02*
X450961Y366593D01*
X453965Y371795D01*
X459167Y368791D01*
X456163Y363589D01*
G37*
G36*
X460913Y371816D02*
X455711Y374820D01*
X458715Y380022D01*
X463917Y377018D01*
X460913Y371816D01*
G37*
G36*
X812115Y300116D02*
X809111Y294914D01*
X803909Y297918D01*
X806913Y303120D01*
X812115Y300116D01*
G37*
G36*
X820342Y295366D02*
X817338Y290164D01*
X812136Y293168D01*
X815140Y298370D01*
X820342Y295366D01*
G37*
G36*
X815592Y287138D02*
X812588Y281936D01*
X807386Y284940D01*
X810390Y290142D01*
X815592Y287138D01*
G37*
G36*
X807365Y291888D02*
X804361Y286686D01*
X799159Y289690D01*
X802163Y294892D01*
X807365Y291888D01*
G37*
G36*
X857958Y149518D02*
X854954Y144316D01*
X849752Y147320D01*
X852756Y152522D01*
X857958Y149518D01*
G37*
G36*
X866185Y144768D02*
X863181Y139566D01*
X857979Y142570D01*
X860983Y147772D01*
X866185Y144768D01*
G37*
G36*
X861435Y136541D02*
X858431Y131339D01*
X853229Y134343D01*
X856233Y139545D01*
X861435Y136541D01*
G37*
G36*
X853208Y141291D02*
X850204Y136089D01*
X845002Y139093D01*
X848006Y144295D01*
X853208Y141291D01*
G37*
G36*
X701861Y322161D02*
X696058Y320606D01*
X694503Y326409D01*
X700306Y327964D01*
X701861Y322161D01*
G37*
G36*
X704320Y312984D02*
X698517Y311429D01*
X696962Y317232D01*
X702765Y318787D01*
X704320Y312984D01*
G37*
G36*
X695143Y310526D02*
X689340Y308971D01*
X687785Y314774D01*
X693588Y316329D01*
X695143Y310526D01*
G37*
G36*
X692684Y319702D02*
X686881Y318147D01*
X685326Y323950D01*
X691129Y325505D01*
X692684Y319702D01*
G37*
G36*
X633111Y203082D02*
X627308Y201527D01*
X625753Y207330D01*
X631556Y208885D01*
X633111Y203082D01*
G37*
G36*
X635570Y193906D02*
X629767Y192351D01*
X628212Y198154D01*
X634015Y199709D01*
X635570Y193906D01*
G37*
G36*
X626393Y191447D02*
X620590Y189892D01*
X619035Y195695D01*
X624838Y197250D01*
X626393Y191447D01*
G37*
G36*
X623934Y200623D02*
X618131Y199068D01*
X616576Y204871D01*
X622379Y206426D01*
X623934Y200623D01*
G37*
D16*
G36*
X896887Y689960D02*
X903389Y686206D01*
X898135Y677106D01*
X891633Y680860D01*
X896887Y689960D01*
G37*
G36*
X909011Y682960D02*
X915513Y679206D01*
X910259Y670106D01*
X903757Y673860D01*
X909011Y682960D01*
G37*
D13*
G36*
X1144789Y880665D02*
X1143234Y874862D01*
X1137431Y876417D01*
X1138986Y882220D01*
X1144789Y880665D01*
G37*
G36*
X1153966Y878206D02*
X1152411Y872403D01*
X1146608Y873958D01*
X1148163Y879761D01*
X1153966Y878206D01*
G37*
G36*
X1151507Y869030D02*
X1149952Y863227D01*
X1144149Y864782D01*
X1145704Y870585D01*
X1151507Y869030D01*
G37*
G36*
X1142330Y871489D02*
X1140775Y865686D01*
X1134972Y867241D01*
X1136527Y873044D01*
X1142330Y871489D01*
G37*
G36*
X1211039Y765916D02*
X1209484Y760113D01*
X1203681Y761668D01*
X1205236Y767471D01*
X1211039Y765916D01*
G37*
G36*
X1220216Y763458D02*
X1218661Y757655D01*
X1212858Y759210D01*
X1214413Y765013D01*
X1220216Y763458D01*
G37*
G36*
X1217757Y754281D02*
X1216202Y748478D01*
X1210399Y750033D01*
X1211954Y755836D01*
X1217757Y754281D01*
G37*
G36*
X1208580Y756740D02*
X1207025Y750937D01*
X1201222Y752492D01*
X1202777Y758295D01*
X1208580Y756740D01*
G37*
G36*
X1170293Y638502D02*
X1165091Y635498D01*
X1162087Y640700D01*
X1167289Y643704D01*
X1170293Y638502D01*
G37*
G36*
X1175043Y630275D02*
X1169841Y627271D01*
X1166837Y632473D01*
X1172039Y635477D01*
X1175043Y630275D01*
G37*
G36*
X1166816Y625525D02*
X1161614Y622521D01*
X1158610Y627723D01*
X1163812Y630727D01*
X1166816Y625525D01*
G37*
G36*
X1162066Y633752D02*
X1156864Y630748D01*
X1153860Y635950D01*
X1159062Y638954D01*
X1162066Y633752D01*
G37*
G36*
X1128021Y521720D02*
X1122819Y518716D01*
X1119815Y523918D01*
X1125017Y526922D01*
X1128021Y521720D01*
G37*
G36*
X1132771Y513493D02*
X1127569Y510489D01*
X1124565Y515691D01*
X1129767Y518695D01*
X1132771Y513493D01*
G37*
G36*
X1124543Y508743D02*
X1119341Y505739D01*
X1116337Y510941D01*
X1121539Y513945D01*
X1124543Y508743D01*
G37*
G36*
X1119793Y516970D02*
X1114591Y513966D01*
X1111587Y519168D01*
X1116789Y522172D01*
X1119793Y516970D01*
G37*
G36*
X1085296Y393707D02*
X1082292Y398909D01*
X1087494Y401913D01*
X1090498Y396711D01*
X1085296Y393707D01*
G37*
G36*
X1077069Y388957D02*
X1074065Y394159D01*
X1079267Y397163D01*
X1082271Y391961D01*
X1077069Y388957D01*
G37*
G36*
X1072319Y397184D02*
X1069315Y402386D01*
X1074517Y405390D01*
X1077521Y400188D01*
X1072319Y397184D01*
G37*
G36*
X1080546Y401934D02*
X1077542Y407136D01*
X1082744Y410140D01*
X1085748Y404938D01*
X1080546Y401934D01*
G37*
G36*
X1035778Y509299D02*
X1038782Y514501D01*
X1043984Y511497D01*
X1040980Y506295D01*
X1035778Y509299D01*
G37*
G36*
X1027550Y514049D02*
X1030554Y519251D01*
X1035756Y516247D01*
X1032752Y511045D01*
X1027550Y514049D01*
G37*
G36*
X1032300Y522276D02*
X1035304Y527478D01*
X1040506Y524474D01*
X1037502Y519272D01*
X1032300Y522276D01*
G37*
G36*
X1040528Y517526D02*
X1043532Y522728D01*
X1048734Y519724D01*
X1045730Y514522D01*
X1040528Y517526D01*
G37*
D16*
G36*
X1436279Y345786D02*
X1442781Y349540D01*
X1448035Y340440D01*
X1441533Y336686D01*
X1436279Y345786D01*
G37*
G36*
X1448403Y352786D02*
X1454905Y356540D01*
X1460159Y347440D01*
X1453657Y343686D01*
X1448403Y352786D01*
G37*
D13*
G36*
X991848Y625387D02*
X994852Y630589D01*
X1000054Y627585D01*
X997050Y622383D01*
X991848Y625387D01*
G37*
G36*
X983621Y630137D02*
X986625Y635339D01*
X991827Y632335D01*
X988823Y627133D01*
X983621Y630137D01*
G37*
G36*
X988371Y638365D02*
X991375Y643567D01*
X996577Y640563D01*
X993573Y635361D01*
X988371Y638365D01*
G37*
G36*
X996598Y633615D02*
X999602Y638817D01*
X1004804Y635813D01*
X1001800Y630611D01*
X996598Y633615D01*
G37*
G36*
X1272289Y659828D02*
X1270734Y654025D01*
X1264931Y655580D01*
X1266486Y661383D01*
X1272289Y659828D01*
G37*
G36*
X1281466Y657370D02*
X1279911Y651567D01*
X1274108Y653122D01*
X1275663Y658925D01*
X1281466Y657370D01*
G37*
G36*
X1279007Y648193D02*
X1277452Y642390D01*
X1271649Y643945D01*
X1273204Y649748D01*
X1279007Y648193D01*
G37*
G36*
X1269830Y650652D02*
X1268275Y644849D01*
X1262472Y646404D01*
X1264027Y652207D01*
X1269830Y650652D01*
G37*
G36*
X1333539Y553740D02*
X1331984Y547937D01*
X1326181Y549492D01*
X1327736Y555295D01*
X1333539Y553740D01*
G37*
G36*
X1342716Y551281D02*
X1341161Y545478D01*
X1335358Y547033D01*
X1336913Y552836D01*
X1342716Y551281D01*
G37*
G36*
X1340257Y542105D02*
X1338702Y536302D01*
X1332899Y537857D01*
X1334454Y543660D01*
X1340257Y542105D01*
G37*
G36*
X1331080Y544564D02*
X1329525Y538761D01*
X1323722Y540316D01*
X1325277Y546119D01*
X1331080Y544564D01*
G37*
G36*
X1396039Y445487D02*
X1394484Y439684D01*
X1388681Y441239D01*
X1390236Y447042D01*
X1396039Y445487D01*
G37*
G36*
X1405216Y443028D02*
X1403661Y437225D01*
X1397858Y438780D01*
X1399413Y444583D01*
X1405216Y443028D01*
G37*
G36*
X1402757Y433852D02*
X1401202Y428049D01*
X1395399Y429604D01*
X1396954Y435407D01*
X1402757Y433852D01*
G37*
G36*
X1393580Y436311D02*
X1392025Y430508D01*
X1386222Y432063D01*
X1387777Y437866D01*
X1393580Y436311D01*
G37*
G36*
X1355383Y297918D02*
X1350181Y294914D01*
X1347177Y300116D01*
X1352379Y303120D01*
X1355383Y297918D01*
G37*
G36*
X1360133Y289690D02*
X1354931Y286686D01*
X1351927Y291888D01*
X1357129Y294892D01*
X1360133Y289690D01*
G37*
G36*
X1351906Y284940D02*
X1346704Y281936D01*
X1343700Y287138D01*
X1348902Y290142D01*
X1351906Y284940D01*
G37*
G36*
X1347156Y293168D02*
X1341954Y290164D01*
X1338950Y295366D01*
X1344152Y298370D01*
X1347156Y293168D01*
G37*
G36*
X1309540Y147320D02*
X1304338Y144316D01*
X1301334Y149518D01*
X1306536Y152522D01*
X1309540Y147320D01*
G37*
G36*
X1314290Y139093D02*
X1309088Y136089D01*
X1306084Y141291D01*
X1311286Y144295D01*
X1314290Y139093D01*
G37*
G36*
X1306063Y134343D02*
X1300861Y131339D01*
X1297857Y136541D01*
X1303059Y139545D01*
X1306063Y134343D01*
G37*
G36*
X1301313Y142570D02*
X1296111Y139566D01*
X1293107Y144768D01*
X1298309Y147772D01*
X1301313Y142570D01*
G37*
G36*
X1539007Y410870D02*
X1542011Y405668D01*
X1536809Y402664D01*
X1533805Y407866D01*
X1539007Y410870D01*
G37*
G36*
X1547234Y415620D02*
X1550238Y410418D01*
X1545036Y407414D01*
X1542032Y412616D01*
X1547234Y415620D01*
G37*
G36*
X1551984Y407392D02*
X1554988Y402190D01*
X1549786Y399186D01*
X1546782Y404388D01*
X1551984Y407392D01*
G37*
G36*
X1543757Y402642D02*
X1546761Y397440D01*
X1541559Y394436D01*
X1538555Y399638D01*
X1543757Y402642D01*
G37*
G36*
X1692350Y375272D02*
X1695354Y370070D01*
X1690152Y367066D01*
X1687148Y372268D01*
X1692350Y375272D01*
G37*
G36*
X1700577Y380022D02*
X1703581Y374820D01*
X1698379Y371816D01*
X1695375Y377018D01*
X1700577Y380022D01*
G37*
G36*
X1705327Y371795D02*
X1708331Y366593D01*
X1703129Y363589D01*
X1700125Y368791D01*
X1705327Y371795D01*
G37*
G36*
X1697100Y367045D02*
X1700104Y361843D01*
X1694902Y358839D01*
X1691898Y364041D01*
X1697100Y367045D01*
G37*
G36*
X1464789Y326409D02*
X1463234Y320606D01*
X1457431Y322161D01*
X1458986Y327964D01*
X1464789Y326409D01*
G37*
G36*
X1473966Y323950D02*
X1472411Y318147D01*
X1466608Y319702D01*
X1468163Y325505D01*
X1473966Y323950D01*
G37*
G36*
X1471507Y314774D02*
X1469952Y308971D01*
X1464149Y310526D01*
X1465704Y316329D01*
X1471507Y314774D01*
G37*
G36*
X1462330Y317232D02*
X1460775Y311429D01*
X1454972Y312984D01*
X1456527Y318787D01*
X1462330Y317232D01*
G37*
G36*
X1533539Y207330D02*
X1531984Y201527D01*
X1526181Y203082D01*
X1527736Y208885D01*
X1533539Y207330D01*
G37*
G36*
X1542716Y204871D02*
X1541161Y199068D01*
X1535358Y200623D01*
X1536913Y206426D01*
X1542716Y204871D01*
G37*
G36*
X1540257Y195695D02*
X1538702Y189892D01*
X1532899Y191447D01*
X1534454Y197250D01*
X1540257Y195695D01*
G37*
G36*
X1531080Y198154D02*
X1529525Y192351D01*
X1523722Y193906D01*
X1525277Y199709D01*
X1531080Y198154D01*
G37*
D16*
G36*
X1243779Y679206D02*
X1250281Y682960D01*
X1255535Y673860D01*
X1249033Y670106D01*
X1243779Y679206D01*
G37*
G36*
X1255903Y686206D02*
X1262405Y689960D01*
X1267659Y680860D01*
X1261157Y677106D01*
X1255903Y686206D01*
G37*
D13*
G36*
X1202574Y989248D02*
X1206822Y985000D01*
X1202574Y980752D01*
X1198326Y985000D01*
X1202574Y989248D01*
G37*
G36*
X1209292Y995966D02*
X1213540Y991718D01*
X1209292Y987470D01*
X1205044Y991718D01*
X1209292Y995966D01*
G37*
G36*
X1216009Y989248D02*
X1220257Y985000D01*
X1216009Y980752D01*
X1211761Y985000D01*
X1216009Y989248D01*
G37*
G36*
X1209292Y982530D02*
X1213540Y978282D01*
X1209292Y974034D01*
X1205044Y978282D01*
X1209292Y982530D01*
G37*
G36*
X1335074Y989248D02*
X1339322Y985000D01*
X1335074Y980752D01*
X1330826Y985000D01*
X1335074Y989248D01*
G37*
G36*
X1341792Y995966D02*
X1346040Y991718D01*
X1341792Y987470D01*
X1337544Y991718D01*
X1341792Y995966D01*
G37*
G36*
X1348509Y989248D02*
X1352757Y985000D01*
X1348509Y980752D01*
X1344261Y985000D01*
X1348509Y989248D01*
G37*
G36*
X1341792Y982530D02*
X1346040Y978282D01*
X1341792Y974034D01*
X1337544Y978282D01*
X1341792Y982530D01*
G37*
D14*
X1422042Y887250D03*
X1431542Y887250D03*
X1431542Y877750D03*
X1422042Y877750D03*
X1502042Y792250D03*
X1511542Y792250D03*
X1511542Y782750D03*
X1502042Y782750D03*
X1591542Y697250D03*
X1591542Y687750D03*
X1582042Y687750D03*
X1582042Y697250D03*
D13*
G36*
X1469682Y709158D02*
X1466678Y714360D01*
X1471880Y717364D01*
X1474884Y712162D01*
X1469682Y709158D01*
G37*
G36*
X1461454Y704408D02*
X1458450Y709610D01*
X1463652Y712614D01*
X1466656Y707412D01*
X1461454Y704408D01*
G37*
G36*
X1456704Y712636D02*
X1453700Y717838D01*
X1458902Y720842D01*
X1461906Y715640D01*
X1456704Y712636D01*
G37*
G36*
X1464932Y717386D02*
X1461928Y722588D01*
X1467130Y725592D01*
X1470134Y720390D01*
X1464932Y717386D01*
G37*
D15*
X1816792Y978000D03*
X1816792Y992000D03*
D13*
G36*
X1347182Y729158D02*
X1344178Y734360D01*
X1349380Y737364D01*
X1352384Y732162D01*
X1347182Y729158D01*
G37*
G36*
X1338954Y724408D02*
X1335950Y729610D01*
X1341152Y732614D01*
X1344156Y727412D01*
X1338954Y724408D01*
G37*
G36*
X1334204Y732636D02*
X1331200Y737838D01*
X1336402Y740842D01*
X1339406Y735640D01*
X1334204Y732636D01*
G37*
G36*
X1342432Y737386D02*
X1339428Y742588D01*
X1344630Y745592D01*
X1347634Y740390D01*
X1342432Y737386D01*
G37*
G36*
X1457574Y989248D02*
X1461822Y985000D01*
X1457574Y980752D01*
X1453326Y985000D01*
X1457574Y989248D01*
G37*
G36*
X1464292Y995966D02*
X1468540Y991718D01*
X1464292Y987470D01*
X1460044Y991718D01*
X1464292Y995966D01*
G37*
G36*
X1471009Y989248D02*
X1475257Y985000D01*
X1471009Y980752D01*
X1466761Y985000D01*
X1471009Y989248D01*
G37*
G36*
X1464292Y982530D02*
X1468540Y978282D01*
X1464292Y974034D01*
X1460044Y978282D01*
X1464292Y982530D01*
G37*
G36*
X1580074Y989248D02*
X1584322Y985000D01*
X1580074Y980752D01*
X1575826Y985000D01*
X1580074Y989248D01*
G37*
G36*
X1586792Y995966D02*
X1591040Y991718D01*
X1586792Y987470D01*
X1582544Y991718D01*
X1586792Y995966D01*
G37*
G36*
X1593509Y989248D02*
X1597757Y985000D01*
X1593509Y980752D01*
X1589261Y985000D01*
X1593509Y989248D01*
G37*
G36*
X1586792Y982530D02*
X1591040Y978282D01*
X1586792Y974034D01*
X1582544Y978282D01*
X1586792Y982530D01*
G37*
G36*
X1705074Y989248D02*
X1709322Y985000D01*
X1705074Y980752D01*
X1700826Y985000D01*
X1705074Y989248D01*
G37*
G36*
X1711792Y995966D02*
X1716040Y991718D01*
X1711792Y987470D01*
X1707544Y991718D01*
X1711792Y995966D01*
G37*
G36*
X1718509Y989248D02*
X1722757Y985000D01*
X1718509Y980752D01*
X1714261Y985000D01*
X1718509Y989248D01*
G37*
G36*
X1711792Y982530D02*
X1716040Y978282D01*
X1711792Y974034D01*
X1707544Y978282D01*
X1711792Y982530D01*
G37*
D14*
X1809542Y877250D03*
X1819042Y877250D03*
X1819042Y867750D03*
X1809542Y867750D03*
X1917042Y762250D03*
X1926542Y762250D03*
X1926542Y752750D03*
X1917042Y752750D03*
X1809542Y1092750D03*
X1809542Y1102250D03*
X1819042Y1102250D03*
X1819042Y1092750D03*
X1917042Y1207750D03*
X1917042Y1217250D03*
X1926542Y1217250D03*
X1926542Y1207750D03*
D13*
G36*
X1842574Y989248D02*
X1846822Y985000D01*
X1842574Y980752D01*
X1838326Y985000D01*
X1842574Y989248D01*
G37*
G36*
X1849292Y995966D02*
X1853540Y991718D01*
X1849292Y987470D01*
X1845044Y991718D01*
X1849292Y995966D01*
G37*
G36*
X1856009Y989248D02*
X1860257Y985000D01*
X1856009Y980752D01*
X1851761Y985000D01*
X1856009Y989248D01*
G37*
G36*
X1849292Y982530D02*
X1853540Y978282D01*
X1849292Y974034D01*
X1845044Y978282D01*
X1849292Y982530D01*
G37*
G36*
X1980074Y989248D02*
X1984322Y985000D01*
X1980074Y980752D01*
X1975826Y985000D01*
X1980074Y989248D01*
G37*
G36*
X1986792Y995966D02*
X1991040Y991718D01*
X1986792Y987470D01*
X1982544Y991718D01*
X1986792Y995966D01*
G37*
G36*
X1993510Y989248D02*
X1997758Y985000D01*
X1993510Y980752D01*
X1989262Y985000D01*
X1993510Y989248D01*
G37*
G36*
X1986792Y982531D02*
X1991040Y978283D01*
X1986792Y974035D01*
X1982544Y978283D01*
X1986792Y982531D01*
G37*
D15*
X1431792Y978000D03*
X1431792Y992000D03*
D13*
G36*
X1137431Y1093583D02*
X1143234Y1095138D01*
X1144789Y1089335D01*
X1138986Y1087780D01*
X1137431Y1093583D01*
G37*
G36*
X1134972Y1102759D02*
X1140775Y1104314D01*
X1142330Y1098511D01*
X1136527Y1096956D01*
X1134972Y1102759D01*
G37*
G36*
X1144149Y1105218D02*
X1149952Y1106773D01*
X1151507Y1100970D01*
X1145704Y1099415D01*
X1144149Y1105218D01*
G37*
G36*
X1146608Y1096042D02*
X1152411Y1097597D01*
X1153966Y1091794D01*
X1148163Y1090239D01*
X1146608Y1096042D01*
G37*
G36*
X1203681Y1208332D02*
X1209484Y1209887D01*
X1211039Y1204084D01*
X1205236Y1202529D01*
X1203681Y1208332D01*
G37*
G36*
X1201222Y1217508D02*
X1207025Y1219063D01*
X1208580Y1213260D01*
X1202777Y1211705D01*
X1201222Y1217508D01*
G37*
G36*
X1210399Y1219967D02*
X1216202Y1221522D01*
X1217757Y1215719D01*
X1211954Y1214164D01*
X1210399Y1219967D01*
G37*
G36*
X1212858Y1210790D02*
X1218661Y1212345D01*
X1220216Y1206542D01*
X1214413Y1204987D01*
X1212858Y1210790D01*
G37*
G36*
X1334399Y1236752D02*
X1339601Y1233748D01*
X1336597Y1228546D01*
X1331395Y1231550D01*
X1334399Y1236752D01*
G37*
G36*
X1339149Y1244979D02*
X1344351Y1241975D01*
X1341347Y1236773D01*
X1336145Y1239777D01*
X1339149Y1244979D01*
G37*
G36*
X1347376Y1240229D02*
X1352578Y1237225D01*
X1349574Y1232023D01*
X1344372Y1235027D01*
X1347376Y1240229D01*
G37*
G36*
X1342626Y1232002D02*
X1347828Y1228998D01*
X1344824Y1223796D01*
X1339622Y1226800D01*
X1342626Y1232002D01*
G37*
G36*
X1456671Y1258534D02*
X1461873Y1255530D01*
X1458869Y1250328D01*
X1453667Y1253332D01*
X1456671Y1258534D01*
G37*
G36*
X1461421Y1266761D02*
X1466623Y1263757D01*
X1463619Y1258555D01*
X1458417Y1261559D01*
X1461421Y1266761D01*
G37*
G36*
X1469649Y1262011D02*
X1474851Y1259007D01*
X1471847Y1253805D01*
X1466645Y1256809D01*
X1469649Y1262011D01*
G37*
G36*
X1464899Y1253784D02*
X1470101Y1250780D01*
X1467097Y1245578D01*
X1461895Y1248582D01*
X1464899Y1253784D01*
G37*
G36*
X1588896Y1285539D02*
X1585892Y1280337D01*
X1580690Y1283341D01*
X1583694Y1288543D01*
X1588896Y1285539D01*
G37*
G36*
X1597123Y1280789D02*
X1594119Y1275587D01*
X1588917Y1278591D01*
X1591921Y1283793D01*
X1597123Y1280789D01*
G37*
G36*
X1592373Y1272562D02*
X1589369Y1267360D01*
X1584167Y1270364D01*
X1587171Y1275566D01*
X1592373Y1272562D01*
G37*
G36*
X1584146Y1277312D02*
X1581142Y1272110D01*
X1575940Y1275114D01*
X1578944Y1280316D01*
X1584146Y1277312D01*
G37*
D14*
X1510546Y1187863D03*
X1510546Y1178363D03*
X1501046Y1178363D03*
X1501046Y1187863D03*
D16*
G36*
X1454905Y1613460D02*
X1448403Y1617214D01*
X1453657Y1626314D01*
X1460159Y1622560D01*
X1454905Y1613460D01*
G37*
G36*
X1442781Y1620460D02*
X1436279Y1624214D01*
X1441533Y1633314D01*
X1448035Y1629560D01*
X1442781Y1620460D01*
G37*
D14*
X1431975Y1091775D03*
X1431975Y1082275D03*
X1422475Y1082275D03*
X1422475Y1091775D03*
D13*
G36*
X1264931Y1314420D02*
X1270734Y1315975D01*
X1272289Y1310172D01*
X1266486Y1308617D01*
X1264931Y1314420D01*
G37*
G36*
X1262472Y1323596D02*
X1268275Y1325151D01*
X1269830Y1319348D01*
X1264027Y1317793D01*
X1262472Y1323596D01*
G37*
G36*
X1271649Y1326055D02*
X1277452Y1327610D01*
X1279007Y1321807D01*
X1273204Y1320252D01*
X1271649Y1326055D01*
G37*
G36*
X1274108Y1316878D02*
X1279911Y1318433D01*
X1281466Y1312630D01*
X1275663Y1311075D01*
X1274108Y1316878D01*
G37*
G36*
X1326181Y1420508D02*
X1331984Y1422063D01*
X1333539Y1416260D01*
X1327736Y1414705D01*
X1326181Y1420508D01*
G37*
G36*
X1323722Y1429684D02*
X1329525Y1431239D01*
X1331080Y1425436D01*
X1325277Y1423881D01*
X1323722Y1429684D01*
G37*
G36*
X1332899Y1432143D02*
X1338702Y1433698D01*
X1340257Y1427895D01*
X1334454Y1426340D01*
X1332899Y1432143D01*
G37*
G36*
X1335358Y1422967D02*
X1341161Y1424522D01*
X1342716Y1418719D01*
X1336913Y1417164D01*
X1335358Y1422967D01*
G37*
G36*
X1388681Y1528761D02*
X1394484Y1530316D01*
X1396039Y1524513D01*
X1390236Y1522958D01*
X1388681Y1528761D01*
G37*
G36*
X1386222Y1537937D02*
X1392025Y1539492D01*
X1393580Y1533689D01*
X1387777Y1532134D01*
X1386222Y1537937D01*
G37*
G36*
X1395399Y1540396D02*
X1401202Y1541951D01*
X1402757Y1536148D01*
X1396954Y1534593D01*
X1395399Y1540396D01*
G37*
G36*
X1397858Y1531220D02*
X1403661Y1532775D01*
X1405216Y1526972D01*
X1399413Y1525417D01*
X1397858Y1531220D01*
G37*
G36*
X1536809Y1567336D02*
X1542011Y1564332D01*
X1539007Y1559130D01*
X1533805Y1562134D01*
X1536809Y1567336D01*
G37*
G36*
X1541559Y1575564D02*
X1546761Y1572560D01*
X1543757Y1567358D01*
X1538555Y1570362D01*
X1541559Y1575564D01*
G37*
G36*
X1549786Y1570814D02*
X1554988Y1567810D01*
X1551984Y1562608D01*
X1546782Y1565612D01*
X1549786Y1570814D01*
G37*
G36*
X1545036Y1562586D02*
X1550238Y1559582D01*
X1547234Y1554380D01*
X1542032Y1557384D01*
X1545036Y1562586D01*
G37*
G36*
X1690152Y1602934D02*
X1695354Y1599930D01*
X1692350Y1594728D01*
X1687148Y1597732D01*
X1690152Y1602934D01*
G37*
G36*
X1694902Y1611161D02*
X1700104Y1608157D01*
X1697100Y1602955D01*
X1691898Y1605959D01*
X1694902Y1611161D01*
G37*
G36*
X1703129Y1606411D02*
X1708331Y1603407D01*
X1705327Y1598205D01*
X1700125Y1601209D01*
X1703129Y1606411D01*
G37*
G36*
X1698379Y1598184D02*
X1703581Y1595180D01*
X1700577Y1589978D01*
X1695375Y1592982D01*
X1698379Y1598184D01*
G37*
G36*
X1347177Y1669884D02*
X1350181Y1675086D01*
X1355383Y1672082D01*
X1352379Y1666880D01*
X1347177Y1669884D01*
G37*
G36*
X1338950Y1674634D02*
X1341954Y1679836D01*
X1347156Y1676832D01*
X1344152Y1671630D01*
X1338950Y1674634D01*
G37*
G36*
X1343700Y1682862D02*
X1346704Y1688064D01*
X1351906Y1685060D01*
X1348902Y1679858D01*
X1343700Y1682862D01*
G37*
G36*
X1351927Y1678112D02*
X1354931Y1683314D01*
X1360133Y1680310D01*
X1357129Y1675108D01*
X1351927Y1678112D01*
G37*
G36*
X1301334Y1820482D02*
X1304338Y1825684D01*
X1309540Y1822680D01*
X1306536Y1817478D01*
X1301334Y1820482D01*
G37*
G36*
X1293107Y1825232D02*
X1296111Y1830434D01*
X1301313Y1827430D01*
X1298309Y1822228D01*
X1293107Y1825232D01*
G37*
G36*
X1297857Y1833459D02*
X1300861Y1838661D01*
X1306063Y1835657D01*
X1303059Y1830455D01*
X1297857Y1833459D01*
G37*
G36*
X1306084Y1828709D02*
X1309088Y1833911D01*
X1314290Y1830907D01*
X1311286Y1825705D01*
X1306084Y1828709D01*
G37*
G36*
X1457431Y1647839D02*
X1463234Y1649394D01*
X1464789Y1643591D01*
X1458986Y1642036D01*
X1457431Y1647839D01*
G37*
G36*
X1454972Y1657016D02*
X1460775Y1658571D01*
X1462330Y1652768D01*
X1456527Y1651213D01*
X1454972Y1657016D01*
G37*
G36*
X1464149Y1659475D02*
X1469952Y1661030D01*
X1471507Y1655227D01*
X1465704Y1653672D01*
X1464149Y1659475D01*
G37*
G36*
X1466608Y1650298D02*
X1472411Y1651853D01*
X1473966Y1646050D01*
X1468163Y1644495D01*
X1466608Y1650298D01*
G37*
G36*
X1526181Y1766918D02*
X1531984Y1768473D01*
X1533539Y1762670D01*
X1527736Y1761115D01*
X1526181Y1766918D01*
G37*
G36*
X1523722Y1776094D02*
X1529525Y1777649D01*
X1531080Y1771846D01*
X1525277Y1770291D01*
X1523722Y1776094D01*
G37*
G36*
X1532899Y1778553D02*
X1538702Y1780108D01*
X1540257Y1774305D01*
X1534454Y1772750D01*
X1532899Y1778553D01*
G37*
G36*
X1535358Y1769377D02*
X1541161Y1770932D01*
X1542716Y1765129D01*
X1536913Y1763574D01*
X1535358Y1769377D01*
G37*
D16*
G36*
X1262405Y1280040D02*
X1255903Y1283794D01*
X1261157Y1292894D01*
X1267659Y1289140D01*
X1262405Y1280040D01*
G37*
G36*
X1250281Y1287040D02*
X1243779Y1290794D01*
X1249033Y1299894D01*
X1255535Y1296140D01*
X1250281Y1287040D01*
G37*
D13*
G36*
X1014503Y1089335D02*
X1016058Y1095138D01*
X1021861Y1093583D01*
X1020306Y1087780D01*
X1014503Y1089335D01*
G37*
G36*
X1005326Y1091794D02*
X1006881Y1097597D01*
X1012684Y1096042D01*
X1011129Y1090239D01*
X1005326Y1091794D01*
G37*
G36*
X1007785Y1100970D02*
X1009340Y1106773D01*
X1015143Y1105218D01*
X1013588Y1099415D01*
X1007785Y1100970D01*
G37*
G36*
X1016962Y1098511D02*
X1018517Y1104314D01*
X1024320Y1102759D01*
X1022765Y1096956D01*
X1016962Y1098511D01*
G37*
G36*
X948253Y1204084D02*
X949808Y1209887D01*
X955611Y1208332D01*
X954056Y1202529D01*
X948253Y1204084D01*
G37*
G36*
X939076Y1206542D02*
X940631Y1212345D01*
X946434Y1210790D01*
X944879Y1204987D01*
X939076Y1206542D01*
G37*
G36*
X941535Y1215719D02*
X943090Y1221522D01*
X948893Y1219967D01*
X947338Y1214164D01*
X941535Y1215719D01*
G37*
G36*
X950712Y1213260D02*
X952267Y1219063D01*
X958070Y1217508D01*
X956515Y1211705D01*
X950712Y1213260D01*
G37*
G36*
X988999Y1331498D02*
X994201Y1334502D01*
X997205Y1329300D01*
X992003Y1326296D01*
X988999Y1331498D01*
G37*
G36*
X984249Y1339725D02*
X989451Y1342729D01*
X992455Y1337527D01*
X987253Y1334523D01*
X984249Y1339725D01*
G37*
G36*
X992476Y1344475D02*
X997678Y1347479D01*
X1000682Y1342277D01*
X995480Y1339273D01*
X992476Y1344475D01*
G37*
G36*
X997226Y1336248D02*
X1002428Y1339252D01*
X1005432Y1334050D01*
X1000230Y1331046D01*
X997226Y1336248D01*
G37*
G36*
X1031271Y1448280D02*
X1036473Y1451284D01*
X1039477Y1446082D01*
X1034275Y1443078D01*
X1031271Y1448280D01*
G37*
G36*
X1026521Y1456507D02*
X1031723Y1459511D01*
X1034727Y1454309D01*
X1029525Y1451305D01*
X1026521Y1456507D01*
G37*
G36*
X1034749Y1461257D02*
X1039951Y1464261D01*
X1042955Y1459059D01*
X1037753Y1456055D01*
X1034749Y1461257D01*
G37*
G36*
X1039499Y1453030D02*
X1044701Y1456034D01*
X1047705Y1450832D01*
X1042503Y1447828D01*
X1039499Y1453030D01*
G37*
G36*
X1073996Y1576293D02*
X1077000Y1571091D01*
X1071798Y1568087D01*
X1068794Y1573289D01*
X1073996Y1576293D01*
G37*
G36*
X1082223Y1581043D02*
X1085227Y1575841D01*
X1080025Y1572837D01*
X1077021Y1578039D01*
X1082223Y1581043D01*
G37*
G36*
X1086973Y1572816D02*
X1089977Y1567614D01*
X1084775Y1564610D01*
X1081771Y1569812D01*
X1086973Y1572816D01*
G37*
G36*
X1078746Y1568066D02*
X1081750Y1562864D01*
X1076548Y1559860D01*
X1073544Y1565062D01*
X1078746Y1568066D01*
G37*
G36*
X1123514Y1460701D02*
X1120510Y1455499D01*
X1115308Y1458503D01*
X1118312Y1463705D01*
X1123514Y1460701D01*
G37*
G36*
X1131741Y1455951D02*
X1128737Y1450749D01*
X1123535Y1453753D01*
X1126539Y1458955D01*
X1131741Y1455951D01*
G37*
G36*
X1126991Y1447724D02*
X1123987Y1442522D01*
X1118785Y1445526D01*
X1121789Y1450728D01*
X1126991Y1447724D01*
G37*
G36*
X1118764Y1452474D02*
X1115760Y1447272D01*
X1110558Y1450276D01*
X1113562Y1455478D01*
X1118764Y1452474D01*
G37*
D16*
G36*
X723013Y1624214D02*
X716511Y1620460D01*
X711257Y1629560D01*
X717759Y1633314D01*
X723013Y1624214D01*
G37*
G36*
X710889Y1617214D02*
X704387Y1613460D01*
X699133Y1622560D01*
X705635Y1626314D01*
X710889Y1617214D01*
G37*
D13*
G36*
X1167444Y1344613D02*
X1164440Y1339411D01*
X1159238Y1342415D01*
X1162242Y1347617D01*
X1167444Y1344613D01*
G37*
G36*
X1175671Y1339863D02*
X1172667Y1334661D01*
X1167465Y1337665D01*
X1170469Y1342867D01*
X1175671Y1339863D01*
G37*
G36*
X1170921Y1331635D02*
X1167917Y1326433D01*
X1162715Y1329437D01*
X1165719Y1334639D01*
X1170921Y1331635D01*
G37*
G36*
X1162694Y1336385D02*
X1159690Y1331183D01*
X1154488Y1334187D01*
X1157492Y1339389D01*
X1162694Y1336385D01*
G37*
G36*
X887003Y1310172D02*
X888558Y1315975D01*
X894361Y1314420D01*
X892806Y1308617D01*
X887003Y1310172D01*
G37*
G36*
X877826Y1312630D02*
X879381Y1318433D01*
X885184Y1316878D01*
X883629Y1311075D01*
X877826Y1312630D01*
G37*
G36*
X880285Y1321807D02*
X881840Y1327610D01*
X887643Y1326055D01*
X886088Y1320252D01*
X880285Y1321807D01*
G37*
G36*
X889462Y1319348D02*
X891017Y1325151D01*
X896820Y1323596D01*
X895265Y1317793D01*
X889462Y1319348D01*
G37*
G36*
X825753Y1416260D02*
X827308Y1422063D01*
X833111Y1420508D01*
X831556Y1414705D01*
X825753Y1416260D01*
G37*
G36*
X816576Y1418719D02*
X818131Y1424522D01*
X823934Y1422967D01*
X822379Y1417164D01*
X816576Y1418719D01*
G37*
G36*
X819035Y1427895D02*
X820590Y1433698D01*
X826393Y1432143D01*
X824838Y1426340D01*
X819035Y1427895D01*
G37*
G36*
X828212Y1425436D02*
X829767Y1431239D01*
X835570Y1429684D01*
X834015Y1423881D01*
X828212Y1425436D01*
G37*
G36*
X763253Y1524513D02*
X764808Y1530316D01*
X770611Y1528761D01*
X769056Y1522958D01*
X763253Y1524513D01*
G37*
G36*
X754076Y1526972D02*
X755631Y1532775D01*
X761434Y1531220D01*
X759879Y1525417D01*
X754076Y1526972D01*
G37*
G36*
X756535Y1536148D02*
X758090Y1541951D01*
X763893Y1540396D01*
X762338Y1534593D01*
X756535Y1536148D01*
G37*
G36*
X765712Y1533689D02*
X767267Y1539492D01*
X773070Y1537937D01*
X771515Y1532134D01*
X765712Y1533689D01*
G37*
G36*
X803909Y1672082D02*
X809111Y1675086D01*
X812115Y1669884D01*
X806913Y1666880D01*
X803909Y1672082D01*
G37*
G36*
X799159Y1680310D02*
X804361Y1683314D01*
X807365Y1678112D01*
X802163Y1675108D01*
X799159Y1680310D01*
G37*
G36*
X807386Y1685060D02*
X812588Y1688064D01*
X815592Y1682862D01*
X810390Y1679858D01*
X807386Y1685060D01*
G37*
G36*
X812136Y1676832D02*
X817338Y1679836D01*
X820342Y1674634D01*
X815140Y1671630D01*
X812136Y1676832D01*
G37*
G36*
X849752Y1822680D02*
X854954Y1825684D01*
X857958Y1820482D01*
X852756Y1817478D01*
X849752Y1822680D01*
G37*
G36*
X845002Y1830907D02*
X850204Y1833911D01*
X853208Y1828709D01*
X848006Y1825705D01*
X845002Y1830907D01*
G37*
G36*
X853229Y1835657D02*
X858431Y1838661D01*
X861435Y1833459D01*
X856233Y1830455D01*
X853229Y1835657D01*
G37*
G36*
X857979Y1827430D02*
X863181Y1830434D01*
X866185Y1825232D01*
X860983Y1822228D01*
X857979Y1827430D01*
G37*
G36*
X620285Y1559130D02*
X617281Y1564332D01*
X622483Y1567336D01*
X625487Y1562134D01*
X620285Y1559130D01*
G37*
G36*
X612058Y1554380D02*
X609054Y1559582D01*
X614256Y1562586D01*
X617260Y1557384D01*
X612058Y1554380D01*
G37*
G36*
X607308Y1562608D02*
X604304Y1567810D01*
X609506Y1570814D01*
X612510Y1565612D01*
X607308Y1562608D01*
G37*
G36*
X615535Y1567358D02*
X612531Y1572560D01*
X617733Y1575564D01*
X620737Y1570362D01*
X615535Y1567358D01*
G37*
G36*
X466942Y1594728D02*
X463938Y1599930D01*
X469140Y1602934D01*
X472144Y1597732D01*
X466942Y1594728D01*
G37*
G36*
X458715Y1589978D02*
X455711Y1595180D01*
X460913Y1598184D01*
X463917Y1592982D01*
X458715Y1589978D01*
G37*
G36*
X453965Y1598205D02*
X450961Y1603407D01*
X456163Y1606411D01*
X459167Y1601209D01*
X453965Y1598205D01*
G37*
G36*
X462192Y1602955D02*
X459188Y1608157D01*
X464390Y1611161D01*
X467394Y1605959D01*
X462192Y1602955D01*
G37*
G36*
X694503Y1643591D02*
X696058Y1649394D01*
X701861Y1647839D01*
X700306Y1642036D01*
X694503Y1643591D01*
G37*
G36*
X685326Y1646050D02*
X686881Y1651853D01*
X692684Y1650298D01*
X691129Y1644495D01*
X685326Y1646050D01*
G37*
G36*
X687785Y1655227D02*
X689340Y1661030D01*
X695143Y1659475D01*
X693588Y1653672D01*
X687785Y1655227D01*
G37*
G36*
X696962Y1652768D02*
X698517Y1658571D01*
X704320Y1657016D01*
X702765Y1651213D01*
X696962Y1652768D01*
G37*
G36*
X625753Y1762670D02*
X627308Y1768473D01*
X633111Y1766918D01*
X631556Y1761115D01*
X625753Y1762670D01*
G37*
G36*
X616576Y1765129D02*
X618131Y1770932D01*
X623934Y1769377D01*
X622379Y1763574D01*
X616576Y1765129D01*
G37*
G36*
X619035Y1774305D02*
X620590Y1780108D01*
X626393Y1778553D01*
X624838Y1772750D01*
X619035Y1774305D01*
G37*
G36*
X628212Y1771846D02*
X629767Y1777649D01*
X635570Y1776094D01*
X634015Y1770291D01*
X628212Y1771846D01*
G37*
D16*
G36*
X915513Y1290794D02*
X909011Y1287040D01*
X903757Y1296140D01*
X910259Y1299894D01*
X915513Y1290794D01*
G37*
G36*
X903389Y1283794D02*
X896887Y1280040D01*
X891633Y1289140D01*
X898135Y1292894D01*
X903389Y1283794D01*
G37*
D21*
X30000Y760000D03*
X30000Y734600D03*
X30000Y709200D03*
X30000Y683800D03*
M02*
