M48
;GenerationSoftware,Autodesk,EAGLE,9.6.2*%
;CreationDate,2023-04-11T22:13:26Z*%
FMAT,2
ICI,OFF
METRIC,TZ,000.000
T3C0.300
T2C0.500
T1C1.016
%
G90
M71
T1
X3000Y68380
X3000Y70920
X3000Y76000
X3000Y73460
T2
X179533Y35058
X180458Y33658
X180833Y34308
X198533Y68259
X198908Y68908
X199283Y69558
X199833Y67509
X200208Y68158
X200583Y68808
X35283Y162759
X35658Y163408
X36033Y164058
X36583Y162009
X36958Y162658
X37333Y163308
X15283Y128259
X15658Y128908
X16033Y129558
X16583Y127509
X16958Y128158
X17333Y128808
X17467Y68259
X16717Y69558
X16167Y67509
X15417Y68808
X37217Y33759
X36842Y34408
X36467Y35058
X35917Y33009
X35542Y33658
X35167Y34308
X200467Y128509
X200092Y129158
X199717Y129808
X199167Y127759
X198792Y128408
X198417Y129058
X180717Y162509
X180342Y163158
X179967Y163808
X179417Y161759
X179042Y162408
X178667Y163058
X215092Y103158
X214717Y103808
X180083Y33009
X213792Y102408
X213417Y103058
X213533Y94009
X213908Y94658
X214283Y95308
X214833Y93259
X215208Y93908
X214167Y101759
X1283Y103808
X1833Y101759
X2208Y102408
X2583Y103058
X2333Y93759
X178783Y33759
X179158Y34408
X908Y103158
T3
X151929Y80000
X159929Y68000
X145929Y69750
X133679Y71750
X146429Y100250
X158679Y100250
X171179Y100250
X182679Y88500
X193429Y77000
X184929Y100250
X198679Y100250
X190929Y122500
X180179Y111000
X181679Y100250
X143179Y100250
X130929Y100250
X167929Y100250
X109556Y104757
X112931Y110603
X119556Y122078
X133741Y125146
X145968Y127324
X160361Y128253
X151845Y117003
X143988Y107394
X125681Y132686
X131806Y143295
X138056Y154120
X153982Y158205
X169316Y161765
X144931Y166028
X151806Y177936
X128662Y182349
X133247Y167290
X143306Y163214
X124056Y129872
X117931Y119263
X136431Y151306
X103342Y103007
X99967Y108853
X93342Y120328
X97777Y134146
X102004Y145824
X108396Y158753
X113881Y145753
X118273Y134144
X87217Y130936
X81092Y141545
X74842Y152370
X79268Y168205
X83852Y183265
X67967Y164278
X61092Y176186
X45698Y158349
X61032Y154790
X69592Y161464
X88842Y128122
X94967Y117513
X76467Y149556
X107500Y92000
X107000Y87750
X105750Y88000
X97500Y97000
X97500Y96000
X102000Y96000
X13886Y100425
X19462Y96130
X19462Y96892
X19462Y95368
X21647Y95825
X22409Y95825
X23171Y95825
X21647Y95063
X22409Y95063
X23171Y95063
X23933Y95825
X23933Y95063
X24695Y95063
X25457Y95063
X24695Y95825
X25457Y95825
X24695Y96587
X25457Y96587
X21647Y98975
X22409Y98975
X23171Y98975
X23933Y98975
X24695Y98975
X21647Y99737
X22409Y99737
X23171Y99737
X23933Y99737
X24695Y99737
X24695Y100499
X23933Y100499
X23171Y100499
X22409Y100499
X21647Y100499
X21647Y101261
X22409Y101261
X23171Y101261
X23933Y101261
X24695Y101261
X98750Y100250
X95000Y100250
X81750Y100250
X74500Y110000
X66500Y119500
X58500Y126500
X69000Y123750
X81250Y121750
X69500Y100250
X57250Y100250
X44750Y100250
X35750Y111000
X25000Y122500
X31000Y100250
X22500Y77000
X33250Y88500
X34250Y100250
X72750Y100750
X85000Y100250
X48000Y100250
X101842Y91395
X99967Y88147
X93342Y76672
X81273Y75269
X69046Y73091
X58984Y69662
X66615Y77381
X74472Y86989
X87217Y66064
X81092Y55455
X74842Y44630
X61032Y42210
X45698Y38651
X67967Y32722
X61092Y20814
X83852Y13735
X79268Y28795
X69592Y35536
X88409Y69128
X94967Y79487
X76467Y47444
X111056Y89645
X112931Y86397
X119556Y74922
X114738Y63769
X110510Y52091
X108448Y41662
X105580Y52131
X101187Y63739
X125681Y64314
X131806Y53705
X138056Y42880
X133247Y29710
X128662Y14651
X144931Y30972
X151806Y19064
X169316Y35235
X153982Y38795
X143306Y33786
X123623Y66878
X117931Y77737
X136431Y45694
X117179Y96750
X120929Y96750
X134179Y96750
X141429Y87000
X149429Y77500
X157429Y70500
X146929Y73250
X134679Y75250
X146429Y96750
X158679Y96750
X171179Y96750
X180179Y86000
X190929Y74500
X184929Y96750
X198679Y96750
X193429Y120000
X182679Y108500
X181679Y96750
X143179Y96250
X114179Y100250
X167929Y96750
X114087Y105605
X115962Y108853
X122587Y120328
X134656Y121731
X146883Y123909
X156946Y127338
X149314Y119619
X141457Y110011
X128712Y130936
X134837Y141545
X141087Y152370
X154897Y154790
X170232Y158349
X147962Y164278
X154837Y176186
X132077Y183265
X136662Y168205
X146337Y161464
X127520Y127872
X120962Y117513
X139462Y149556
X104873Y107355
X102998Y110603
X96373Y122078
X101192Y133231
X105419Y144909
X107481Y155338
X110349Y144869
X114742Y133261
X90248Y132686
X84123Y143295
X77873Y154120
X82683Y167290
X87267Y182349
X70998Y166028
X64123Y177936
X46613Y161765
X61947Y158205
X72623Y163214
X92306Y130122
X97998Y119263
X79498Y151306
X118499Y132254
X142464Y106254
X131929Y72500
X97430Y64746
X27250Y98500
X7000Y99000
X6000Y99000
X6000Y100000
X7000Y100000
X6000Y101000
X7000Y101000
X96750Y98500
X36750Y93000
X43250Y93000
X93000Y96750
X13000Y98250
X71500Y98500
X79750Y124000
X56750Y126250
X67750Y126000
X66500Y117000
X74500Y107500
X83500Y98500
X33000Y98500
X35750Y88500
X25250Y77250
X25000Y120000
X35750Y108500
X46500Y98500
X59000Y98500
X4000Y101750
X4750Y102500
X5500Y103250
X89732Y66921
X71774Y86815
X58325Y68022
X64042Y77423
X71211Y71841
X83438Y74019
X95732Y77313
X63482Y21454
X70482Y33579
X80518Y30960
X85010Y16242
X47863Y37401
X63197Y40960
X77232Y45270
X83482Y56095
X66344Y37411
X70719Y44989
X84628Y69579
X89128Y77373
X42465Y92000
X34715Y92250
X13715Y95250
X126197Y66921
X99988Y61315
X109540Y40272
X104256Y49923
X112675Y53341
X116903Y65019
X120197Y77313
X152447Y21454
X145447Y33579
X152732Y40960
X167725Y37492
X130827Y15901
X135412Y30960
X138697Y45270
X132447Y56095
X140059Y31911
X135684Y39489
X121342Y63829
X116842Y71623
X102357Y88788
X144429Y98500
X136179Y73000
X159179Y70750
X148179Y71000
X149429Y80000
X141429Y89500
X101750Y97000
X196929Y98500
X182929Y98500
X180179Y108500
X190679Y119750
X190929Y77000
X180179Y88500
X169429Y98500
X156929Y98500
X181679Y93000
X172929Y93000
X144679Y92750
X135679Y92750
X113572Y88788
X126197Y130079
X144156Y110185
X157604Y128978
X151888Y119577
X144718Y125159
X132491Y122981
X120197Y119687
X152447Y175546
X145447Y163421
X135412Y166040
X130919Y180758
X168066Y159599
X152732Y156040
X138697Y151730
X132447Y140905
X149585Y159589
X145210Y152011
X131302Y127421
X126802Y119627
X119179Y98500
X89732Y130079
X115941Y135685
X106390Y156728
X111673Y147077
X103254Y143659
X99027Y131981
X95732Y119687
X63482Y175546
X70482Y163421
X63197Y156040
X48204Y159508
X85102Y181099
X80518Y166040
X77232Y151730
X83482Y140905
X75870Y165089
X80245Y157511
X94587Y133171
X99087Y125377
X113572Y108212
X34250Y104000
X43000Y104000
X71250Y104250
X80250Y104250
X102357Y108212
X95000Y96750
X81750Y96750
X72000Y107500
X130929Y96750
X64000Y117000
X56000Y129000
X70000Y127250
X82250Y125250
X69500Y96750
X57250Y96750
X44750Y96750
X33250Y108500
X22500Y120000
X31000Y96750
X25000Y74500
X35750Y86000
X34250Y96750
X72750Y96750
X85000Y96750
X48000Y96750
X106373Y92243
X102998Y86397
X96373Y74922
X82188Y71854
X69961Y69676
X55569Y68747
X64084Y79997
X71941Y89606
X90248Y64314
X84123Y53705
X77873Y42880
X61947Y38795
X46613Y35235
X70998Y30972
X64123Y19064
X87267Y14651
X82683Y29710
X72623Y33786
X91873Y67128
X97998Y77737
X79498Y45694
X112587Y93993
X115962Y88147
X122587Y76672
X118153Y62854
X113925Y51176
X107533Y38247
X102049Y51247
X97656Y62856
X128712Y66064
X134837Y55455
X141087Y44630
X136662Y28795
X132077Y13735
X147962Y32722
X154837Y20814
X170232Y38651
X154897Y42210
X146337Y35536
X127087Y68878
X120962Y79487
X139462Y47444
X120929Y100250
X134179Y100250
X143929Y89500
X132429Y98500
M30